G04 #@! TF.GenerationSoftware,KiCad,Pcbnew,(5.1.5)-2*
G04 #@! TF.CreationDate,2020-02-23T11:28:55+01:00*
G04 #@! TF.ProjectId,VIC20_kbd,56494332-305f-46b6-9264-2e6b69636164,rev?*
G04 #@! TF.SameCoordinates,Original*
G04 #@! TF.FileFunction,Copper,L2,Bot*
G04 #@! TF.FilePolarity,Positive*
%FSLAX46Y46*%
G04 Gerber Fmt 4.6, Leading zero omitted, Abs format (unit mm)*
G04 Created by KiCad (PCBNEW (5.1.5)-2) date 2020-02-23 11:28:55*
%MOMM*%
%LPD*%
G04 APERTURE LIST*
%ADD10C,2.200000*%
%ADD11R,0.600000X0.800000*%
%ADD12R,1.700000X1.700000*%
%ADD13O,1.700000X1.700000*%
%ADD14C,1.800000*%
%ADD15R,1.800000X1.800000*%
%ADD16C,0.600000*%
%ADD17C,0.250000*%
G04 APERTURE END LIST*
D10*
X333950000Y-118580000D03*
X327600000Y-121120000D03*
X20310000Y-60300000D03*
X13960000Y-62840000D03*
D11*
X24120000Y-60360000D03*
X22420000Y-60360000D03*
X62570000Y-60290000D03*
X60870000Y-60290000D03*
X101010000Y-60290000D03*
X99310000Y-60290000D03*
X139380000Y-60290000D03*
X137680000Y-60290000D03*
X177710000Y-60290000D03*
X176010000Y-60290000D03*
X216030000Y-60290000D03*
X214330000Y-60290000D03*
X254360000Y-60290000D03*
X252660000Y-60290000D03*
X292730000Y-60290000D03*
X291030000Y-60290000D03*
X5000000Y-60290000D03*
X3300000Y-60290000D03*
X53000000Y-79490000D03*
X51300000Y-79490000D03*
X91450000Y-79450000D03*
X89750000Y-79450000D03*
X129740000Y-79490000D03*
X128040000Y-79490000D03*
X168070000Y-79490000D03*
X166370000Y-79490000D03*
X206510000Y-79490000D03*
X204810000Y-79490000D03*
X244990000Y-79530000D03*
X243290000Y-79530000D03*
X279430000Y-98620000D03*
X277730000Y-98620000D03*
X9880000Y-79490000D03*
X8180000Y-79490000D03*
X39630000Y-98690000D03*
X37930000Y-98690000D03*
X78000000Y-98650000D03*
X76300000Y-98650000D03*
X116330000Y-98650000D03*
X114630000Y-98650000D03*
X154810000Y-98650000D03*
X153110000Y-98650000D03*
X193170000Y-98620000D03*
X191470000Y-98620000D03*
X231500000Y-98650000D03*
X229800000Y-98650000D03*
X289070000Y-117880000D03*
X287370000Y-117880000D03*
X1260000Y-98690000D03*
X-440000Y-98690000D03*
X25180000Y-117880000D03*
X23480000Y-117880000D03*
X68290000Y-117880000D03*
X66590000Y-117880000D03*
X106710000Y-117880000D03*
X105010000Y-117880000D03*
X145100000Y-117880000D03*
X143400000Y-117880000D03*
X183490000Y-117880000D03*
X181790000Y-117880000D03*
X221960000Y-117880000D03*
X220260000Y-117880000D03*
X269820000Y-117880000D03*
X268120000Y-117880000D03*
X129970000Y-137100000D03*
X128270000Y-137100000D03*
X49040000Y-117880000D03*
X47340000Y-117880000D03*
X87490000Y-117880000D03*
X85790000Y-117880000D03*
X125910000Y-117910000D03*
X124210000Y-117910000D03*
X164380000Y-117880000D03*
X162680000Y-117880000D03*
X202710000Y-117880000D03*
X201010000Y-117880000D03*
X245900000Y-117880000D03*
X244200000Y-117880000D03*
X337920000Y-60710000D03*
X336220000Y-60710000D03*
X1240000Y-117910000D03*
X-460000Y-117910000D03*
X58870000Y-98650000D03*
X57170000Y-98650000D03*
X97240000Y-98650000D03*
X95540000Y-98650000D03*
X135610000Y-98650000D03*
X133910000Y-98650000D03*
X173900000Y-98650000D03*
X172200000Y-98650000D03*
X212340000Y-98650000D03*
X210640000Y-98650000D03*
X250630000Y-98690000D03*
X248930000Y-98690000D03*
X337920000Y-79990000D03*
X336220000Y-79990000D03*
X33730000Y-79490000D03*
X32030000Y-79490000D03*
X72210000Y-79490000D03*
X70510000Y-79490000D03*
X110610000Y-79530000D03*
X108910000Y-79530000D03*
X148940000Y-79490000D03*
X147240000Y-79490000D03*
X187380000Y-79490000D03*
X185680000Y-79490000D03*
X225790000Y-79490000D03*
X224090000Y-79490000D03*
X264080000Y-79490000D03*
X262380000Y-79490000D03*
X337920000Y-99300000D03*
X336220000Y-99300000D03*
X43330000Y-60290000D03*
X41630000Y-60290000D03*
X81690000Y-60250000D03*
X79990000Y-60250000D03*
X120100000Y-60290000D03*
X118400000Y-60290000D03*
X158430000Y-60250000D03*
X156730000Y-60250000D03*
X196910000Y-60330000D03*
X195210000Y-60330000D03*
X235270000Y-60290000D03*
X233570000Y-60290000D03*
X273600000Y-60290000D03*
X271900000Y-60290000D03*
X337920000Y-118580000D03*
X336220000Y-118580000D03*
D12*
X197870000Y-46440000D03*
D13*
X195330000Y-46440000D03*
X192790000Y-46440000D03*
X190250000Y-46440000D03*
X187710000Y-46440000D03*
X185170000Y-46440000D03*
X182630000Y-46440000D03*
X180090000Y-46440000D03*
X177550000Y-46440000D03*
X175010000Y-46440000D03*
X172470000Y-46440000D03*
X169930000Y-46440000D03*
X167390000Y-46440000D03*
X164850000Y-46440000D03*
X162310000Y-46440000D03*
X159770000Y-46440000D03*
X157230000Y-46440000D03*
X154690000Y-46440000D03*
X152150000Y-46440000D03*
X149610000Y-46440000D03*
D10*
X58700000Y-60300000D03*
X52350000Y-62840000D03*
X97060000Y-60300000D03*
X90710000Y-62840000D03*
X135420000Y-60300000D03*
X129070000Y-62840000D03*
X173820000Y-60300000D03*
X167470000Y-62840000D03*
X212190000Y-60300000D03*
X205840000Y-62840000D03*
X250570000Y-60300000D03*
X244220000Y-62840000D03*
X288950000Y-60300000D03*
X282600000Y-62840000D03*
X1170000Y-60300000D03*
X-5180000Y-62840000D03*
X49100000Y-79500000D03*
X42750000Y-82040000D03*
X87500000Y-79500000D03*
X81150000Y-82040000D03*
X125890000Y-79500000D03*
X119540000Y-82040000D03*
X164250000Y-79500000D03*
X157900000Y-82040000D03*
X202660000Y-79500000D03*
X196310000Y-82040000D03*
X241070000Y-79510000D03*
X234720000Y-82050000D03*
X275530000Y-98660000D03*
X269180000Y-101200000D03*
X5940000Y-79500000D03*
X-410000Y-82040000D03*
X35770000Y-98680000D03*
X29420000Y-101220000D03*
X74130000Y-98660000D03*
X67780000Y-101200000D03*
X112520000Y-98660000D03*
X106170000Y-101200000D03*
X150900000Y-98660000D03*
X144550000Y-101200000D03*
X189270000Y-98660000D03*
X182920000Y-101200000D03*
X227630000Y-98660000D03*
X221280000Y-101200000D03*
X285150000Y-117870000D03*
X278800000Y-120410000D03*
X-2630000Y-98680000D03*
X-8980000Y-101220000D03*
X21310000Y-117870000D03*
X14960000Y-120410000D03*
X64470000Y-117870000D03*
X58120000Y-120410000D03*
X102880000Y-117870000D03*
X96530000Y-120410000D03*
X141280000Y-117870000D03*
X134930000Y-120410000D03*
X179680000Y-117870000D03*
X173330000Y-120410000D03*
X218070000Y-117870000D03*
X211720000Y-120410000D03*
X265970000Y-117870000D03*
X259620000Y-120410000D03*
X126150000Y-137060000D03*
X119800000Y-139600000D03*
X45260000Y-117880000D03*
X38910000Y-120420000D03*
X83670000Y-117870000D03*
X77320000Y-120410000D03*
X122070000Y-117870000D03*
X115720000Y-120410000D03*
X160480000Y-117870000D03*
X154130000Y-120410000D03*
X198880000Y-117870000D03*
X192530000Y-120410000D03*
X242020000Y-117870000D03*
X235670000Y-120410000D03*
X333950000Y-60710000D03*
X327600000Y-63250000D03*
X-2640000Y-117880000D03*
X-8990000Y-120420000D03*
X54970000Y-98660000D03*
X48620000Y-101200000D03*
X93320000Y-98660000D03*
X86970000Y-101200000D03*
X131700000Y-98660000D03*
X125350000Y-101200000D03*
X170060000Y-98660000D03*
X163710000Y-101200000D03*
X208430000Y-98660000D03*
X202080000Y-101200000D03*
X246820000Y-98680000D03*
X240470000Y-101220000D03*
X333950000Y-79990000D03*
X327600000Y-82530000D03*
X29900000Y-79500000D03*
X23550000Y-82040000D03*
X68300000Y-79500000D03*
X61950000Y-82040000D03*
X106690000Y-79500000D03*
X100340000Y-82040000D03*
X145070000Y-79500000D03*
X138720000Y-82040000D03*
X183460000Y-79500000D03*
X177110000Y-82040000D03*
X221860000Y-79500000D03*
X215510000Y-82040000D03*
X260210000Y-79510000D03*
X253860000Y-82050000D03*
X333950000Y-99300000D03*
X327600000Y-101840000D03*
X39500000Y-60300000D03*
X33150000Y-62840000D03*
X77870000Y-60300000D03*
X71520000Y-62840000D03*
X116250000Y-60300000D03*
X109900000Y-62840000D03*
X154620000Y-60300000D03*
X148270000Y-62840000D03*
X192990000Y-60300000D03*
X186640000Y-62840000D03*
X231380000Y-60300000D03*
X225030000Y-62840000D03*
X269760000Y-60300000D03*
X263410000Y-62840000D03*
X16570000Y-98660000D03*
X10220000Y-101200000D03*
X284180000Y-79500000D03*
X277830000Y-82040000D03*
D14*
X8510000Y-114070000D03*
D15*
X5970000Y-114070000D03*
D16*
X176190000Y-51690000D03*
X201340000Y-59570000D03*
X255570000Y-59090000D03*
X199380000Y-49400000D03*
X21460000Y-128300000D03*
X187680000Y-55550000D03*
X187720000Y-59090000D03*
X179370000Y-101480000D03*
X16990000Y-106000000D03*
X16990000Y-107850000D03*
X236340000Y-127970000D03*
X236400000Y-126180000D03*
X235650000Y-88940000D03*
X235740000Y-87250000D03*
X15690000Y-128380000D03*
X293140000Y-131450000D03*
X293140000Y-119230000D03*
X11770000Y-128580000D03*
X13430000Y-128350000D03*
X13690000Y-130900000D03*
X17360000Y-133970000D03*
X12430000Y-136710000D03*
X23020000Y-138230000D03*
X14690000Y-138480000D03*
X16190000Y-138360000D03*
X18290000Y-127940000D03*
X14430000Y-139470000D03*
X16170000Y-139390000D03*
X24020000Y-134860000D03*
X19340000Y-139400000D03*
X8820000Y-137250000D03*
X7950000Y-134670000D03*
D17*
X123190000Y-137100000D02*
X123150000Y-137060000D01*
X129970000Y-137100000D02*
X129970000Y-134900000D01*
X124550000Y-129480000D02*
X6960000Y-129480000D01*
X6960000Y-129480000D02*
X2640000Y-125160000D01*
X2640000Y-125160000D02*
X2640000Y-119310000D01*
X2640000Y-119310000D02*
X1240000Y-117910000D01*
X129970000Y-134900000D02*
X124550000Y-129480000D01*
X1240000Y-117910000D02*
X1240000Y-112430000D01*
X2180000Y-99610000D02*
X1260000Y-98690000D01*
X2180000Y-111490000D02*
X2180000Y-99610000D01*
X1240000Y-112430000D02*
X2180000Y-111490000D01*
X43330000Y-60290000D02*
X43630000Y-60290000D01*
X43630000Y-60290000D02*
X47110000Y-56810000D01*
X149610000Y-54590000D02*
X149610000Y-46440000D01*
X147390000Y-56810000D02*
X149610000Y-54590000D01*
X47110000Y-56810000D02*
X147390000Y-56810000D01*
X20430000Y-98650000D02*
X20260000Y-98650000D01*
X20260000Y-98650000D02*
X17540000Y-95930000D01*
X17540000Y-95930000D02*
X4020000Y-95930000D01*
X4020000Y-95930000D02*
X1260000Y-98690000D01*
X20430000Y-98650000D02*
X20430000Y-94390000D01*
X34890000Y-80650000D02*
X33730000Y-79490000D01*
X34890000Y-87670000D02*
X34890000Y-80650000D01*
X33600000Y-88960000D02*
X34890000Y-87670000D01*
X25860000Y-88960000D02*
X33600000Y-88960000D01*
X20430000Y-94390000D02*
X25860000Y-88960000D01*
X9880000Y-79490000D02*
X9880000Y-75150000D01*
X6200000Y-61490000D02*
X5000000Y-60290000D01*
X6200000Y-71470000D02*
X6200000Y-61490000D01*
X9880000Y-75150000D02*
X6200000Y-71470000D01*
X24120000Y-60360000D02*
X24120000Y-58990000D01*
X7070000Y-58220000D02*
X5000000Y-60290000D01*
X23350000Y-58220000D02*
X7070000Y-58220000D01*
X24120000Y-58990000D02*
X23350000Y-58220000D01*
X43330000Y-60290000D02*
X43330000Y-58990000D01*
X25920000Y-58560000D02*
X24120000Y-60360000D01*
X42900000Y-58560000D02*
X25920000Y-58560000D01*
X43330000Y-58990000D02*
X42900000Y-58560000D01*
X33730000Y-79490000D02*
X33730000Y-72380000D01*
X43930000Y-60890000D02*
X43330000Y-60290000D01*
X43930000Y-68570000D02*
X43930000Y-60890000D01*
X42660000Y-69840000D02*
X43930000Y-68570000D01*
X36270000Y-69840000D02*
X42660000Y-69840000D01*
X33730000Y-72380000D02*
X36270000Y-69840000D01*
X22420000Y-60360000D02*
X20370000Y-60360000D01*
X20370000Y-60360000D02*
X20310000Y-60300000D01*
X81690000Y-60250000D02*
X81710000Y-60250000D01*
X81710000Y-60250000D02*
X83820000Y-58140000D01*
X152150000Y-55530000D02*
X152150000Y-46440000D01*
X150300000Y-57380000D02*
X152150000Y-55530000D01*
X120470000Y-57380000D02*
X150300000Y-57380000D01*
X119710000Y-58140000D02*
X120470000Y-57380000D01*
X83820000Y-58140000D02*
X119710000Y-58140000D01*
X58870000Y-98650000D02*
X58870000Y-91050000D01*
X73340000Y-80620000D02*
X72210000Y-79490000D01*
X73340000Y-87440000D02*
X73340000Y-80620000D01*
X71700000Y-89080000D02*
X73340000Y-87440000D01*
X60840000Y-89080000D02*
X71700000Y-89080000D01*
X58870000Y-91050000D02*
X60840000Y-89080000D01*
X49040000Y-117880000D02*
X49040000Y-117580000D01*
X49040000Y-117580000D02*
X47470000Y-116010000D01*
X27050000Y-116010000D02*
X25180000Y-117880000D01*
X47470000Y-116010000D02*
X27050000Y-116010000D01*
X58870000Y-98650000D02*
X58870000Y-97730000D01*
X41390000Y-96930000D02*
X39630000Y-98690000D01*
X58070000Y-96930000D02*
X41390000Y-96930000D01*
X58870000Y-97730000D02*
X58070000Y-96930000D01*
X49040000Y-117880000D02*
X49040000Y-110170000D01*
X60200000Y-99980000D02*
X58870000Y-98650000D01*
X60200000Y-106220000D02*
X60200000Y-99980000D01*
X58410000Y-108010000D02*
X60200000Y-106220000D01*
X51200000Y-108010000D02*
X58410000Y-108010000D01*
X49040000Y-110170000D02*
X51200000Y-108010000D01*
X72210000Y-79490000D02*
X72210000Y-78920000D01*
X72210000Y-78920000D02*
X71050000Y-77760000D01*
X71050000Y-77760000D02*
X54730000Y-77760000D01*
X54730000Y-77760000D02*
X53000000Y-79490000D01*
X81690000Y-60250000D02*
X81690000Y-59520000D01*
X64220000Y-58640000D02*
X62570000Y-60290000D01*
X80810000Y-58640000D02*
X64220000Y-58640000D01*
X81690000Y-59520000D02*
X80810000Y-58640000D01*
X72210000Y-79490000D02*
X72210000Y-72270000D01*
X72210000Y-72270000D02*
X74530000Y-69950000D01*
X74530000Y-69950000D02*
X81490000Y-69950000D01*
X81490000Y-69950000D02*
X82940000Y-68500000D01*
X82940000Y-68500000D02*
X82940000Y-61500000D01*
X82940000Y-61500000D02*
X81690000Y-60250000D01*
X60870000Y-60290000D02*
X58710000Y-60290000D01*
X58710000Y-60290000D02*
X58700000Y-60300000D01*
X120100000Y-60290000D02*
X120100000Y-58680000D01*
X154690000Y-56400000D02*
X154690000Y-46440000D01*
X153140000Y-57950000D02*
X154690000Y-56400000D01*
X120830000Y-57950000D02*
X153140000Y-57950000D01*
X120100000Y-58680000D02*
X120830000Y-57950000D01*
X87490000Y-117880000D02*
X87490000Y-117320000D01*
X69810000Y-116360000D02*
X68290000Y-117880000D01*
X86530000Y-116360000D02*
X69810000Y-116360000D01*
X87490000Y-117320000D02*
X86530000Y-116360000D01*
X87490000Y-117880000D02*
X87490000Y-111700000D01*
X98260000Y-99670000D02*
X97240000Y-98650000D01*
X98260000Y-105840000D02*
X98260000Y-99670000D01*
X96540000Y-107560000D02*
X98260000Y-105840000D01*
X91630000Y-107560000D02*
X96540000Y-107560000D01*
X87490000Y-111700000D02*
X91630000Y-107560000D01*
X92830000Y-93060000D02*
X92830000Y-94930000D01*
X79110000Y-97540000D02*
X78000000Y-98650000D01*
X90220000Y-97540000D02*
X79110000Y-97540000D01*
X92830000Y-94930000D02*
X90220000Y-97540000D01*
X97240000Y-98650000D02*
X97240000Y-97470000D01*
X92700000Y-80700000D02*
X91450000Y-79450000D01*
X92700000Y-92930000D02*
X92700000Y-80700000D01*
X97240000Y-97470000D02*
X92830000Y-93060000D01*
X92830000Y-93060000D02*
X92700000Y-92930000D01*
X120100000Y-60290000D02*
X120100000Y-59370000D01*
X102590000Y-58710000D02*
X101010000Y-60290000D01*
X119440000Y-58710000D02*
X102590000Y-58710000D01*
X120100000Y-59370000D02*
X119440000Y-58710000D01*
X110610000Y-79530000D02*
X110610000Y-72530000D01*
X120930000Y-61120000D02*
X120100000Y-60290000D01*
X120930000Y-69040000D02*
X120930000Y-61120000D01*
X120210000Y-69760000D02*
X120930000Y-69040000D01*
X113380000Y-69760000D02*
X120210000Y-69760000D01*
X110610000Y-72530000D02*
X113380000Y-69760000D01*
X110610000Y-79530000D02*
X110610000Y-78990000D01*
X92870000Y-78030000D02*
X91450000Y-79450000D01*
X109650000Y-78030000D02*
X92870000Y-78030000D01*
X110610000Y-78990000D02*
X109650000Y-78030000D01*
X99310000Y-60290000D02*
X97070000Y-60290000D01*
X97070000Y-60290000D02*
X97060000Y-60300000D01*
X158430000Y-60250000D02*
X158430000Y-51930000D01*
X157230000Y-50730000D02*
X157230000Y-46440000D01*
X158430000Y-51930000D02*
X157230000Y-50730000D01*
X135610000Y-98650000D02*
X135610000Y-93160000D01*
X150260000Y-80810000D02*
X148940000Y-79490000D01*
X150260000Y-86950000D02*
X150260000Y-80810000D01*
X148580000Y-88630000D02*
X150260000Y-86950000D01*
X140140000Y-88630000D02*
X148580000Y-88630000D01*
X135610000Y-93160000D02*
X140140000Y-88630000D01*
X125910000Y-117910000D02*
X125910000Y-117300000D01*
X108350000Y-116240000D02*
X106710000Y-117880000D01*
X124850000Y-116240000D02*
X108350000Y-116240000D01*
X125910000Y-117300000D02*
X124850000Y-116240000D01*
X135610000Y-98650000D02*
X135610000Y-98150000D01*
X117820000Y-97160000D02*
X116330000Y-98650000D01*
X134620000Y-97160000D02*
X117820000Y-97160000D01*
X135610000Y-98150000D02*
X134620000Y-97160000D01*
X125910000Y-117910000D02*
X125910000Y-110200000D01*
X136820000Y-99860000D02*
X135610000Y-98650000D01*
X136820000Y-106260000D02*
X136820000Y-99860000D01*
X135410000Y-107670000D02*
X136820000Y-106260000D01*
X128440000Y-107670000D02*
X135410000Y-107670000D01*
X125910000Y-110200000D02*
X128440000Y-107670000D01*
X148940000Y-79490000D02*
X148940000Y-78600000D01*
X148940000Y-78600000D02*
X148100000Y-77760000D01*
X148100000Y-77760000D02*
X131470000Y-77760000D01*
X131470000Y-77760000D02*
X129740000Y-79490000D01*
X158430000Y-60250000D02*
X158430000Y-59330000D01*
X141110000Y-58560000D02*
X139380000Y-60290000D01*
X157660000Y-58560000D02*
X141110000Y-58560000D01*
X158430000Y-59330000D02*
X157660000Y-58560000D01*
X148940000Y-79490000D02*
X148940000Y-74180000D01*
X148940000Y-74180000D02*
X153050000Y-70070000D01*
X153050000Y-70070000D02*
X158300000Y-70070000D01*
X158300000Y-70070000D02*
X159300000Y-69070000D01*
X159300000Y-69070000D02*
X159300000Y-61120000D01*
X159300000Y-61120000D02*
X158430000Y-60250000D01*
X137680000Y-60290000D02*
X135430000Y-60290000D01*
X135430000Y-60290000D02*
X135420000Y-60300000D01*
X177710000Y-60290000D02*
X177710000Y-57900000D01*
X176190000Y-56380000D02*
X176190000Y-51690000D01*
X177710000Y-57900000D02*
X176190000Y-56380000D01*
X173900000Y-98650000D02*
X173900000Y-94770000D01*
X169400000Y-80820000D02*
X168070000Y-79490000D01*
X169400000Y-90270000D02*
X169400000Y-80820000D01*
X173900000Y-94770000D02*
X169400000Y-90270000D01*
X164380000Y-117880000D02*
X164380000Y-116870000D01*
X146930000Y-116050000D02*
X145100000Y-117880000D01*
X163560000Y-116050000D02*
X146930000Y-116050000D01*
X164380000Y-116870000D02*
X163560000Y-116050000D01*
X168070000Y-79490000D02*
X168070000Y-73870000D01*
X168070000Y-73870000D02*
X171950000Y-69990000D01*
X171950000Y-69990000D02*
X176860000Y-69990000D01*
X176860000Y-69990000D02*
X178460000Y-68390000D01*
X178460000Y-68390000D02*
X178460000Y-61040000D01*
X178460000Y-61040000D02*
X177710000Y-60290000D01*
X187380000Y-79490000D02*
X187380000Y-78870000D01*
X187380000Y-78870000D02*
X186270000Y-77760000D01*
X186270000Y-77760000D02*
X169800000Y-77760000D01*
X169800000Y-77760000D02*
X168070000Y-79490000D01*
X187380000Y-79490000D02*
X187380000Y-72690000D01*
X197890000Y-61310000D02*
X196910000Y-60330000D01*
X197890000Y-68620000D02*
X197890000Y-61310000D01*
X196750000Y-69760000D02*
X197890000Y-68620000D01*
X190310000Y-69760000D02*
X196750000Y-69760000D01*
X187380000Y-72690000D02*
X190310000Y-69760000D01*
X173900000Y-98650000D02*
X173900000Y-98120000D01*
X156790000Y-96670000D02*
X154810000Y-98650000D01*
X172450000Y-96670000D02*
X156790000Y-96670000D01*
X173900000Y-98120000D02*
X172450000Y-96670000D01*
X164380000Y-117880000D02*
X164380000Y-114150000D01*
X175370000Y-98650000D02*
X173900000Y-98650000D01*
X176300000Y-99580000D02*
X175370000Y-98650000D01*
X176300000Y-105700000D02*
X176300000Y-99580000D01*
X173960000Y-108040000D02*
X176300000Y-105700000D01*
X170490000Y-108040000D02*
X173960000Y-108040000D01*
X164380000Y-114150000D02*
X170490000Y-108040000D01*
X176010000Y-60290000D02*
X173830000Y-60290000D01*
X173830000Y-60290000D02*
X173820000Y-60300000D01*
X216030000Y-60290000D02*
X216030000Y-59120000D01*
X202400000Y-58510000D02*
X201340000Y-59570000D01*
X215420000Y-58510000D02*
X202400000Y-58510000D01*
X216030000Y-59120000D02*
X215420000Y-58510000D01*
X212340000Y-98650000D02*
X212340000Y-93720000D01*
X226580000Y-80280000D02*
X225790000Y-79490000D01*
X226580000Y-88190000D02*
X226580000Y-80280000D01*
X225580000Y-89190000D02*
X226580000Y-88190000D01*
X216870000Y-89190000D02*
X225580000Y-89190000D01*
X212340000Y-93720000D02*
X216870000Y-89190000D01*
X225790000Y-79490000D02*
X225790000Y-78860000D01*
X225790000Y-78860000D02*
X224500000Y-77570000D01*
X224500000Y-77570000D02*
X208430000Y-77570000D01*
X208430000Y-77570000D02*
X206510000Y-79490000D01*
X235270000Y-60290000D02*
X235270000Y-59100000D01*
X218070000Y-58250000D02*
X216030000Y-60290000D01*
X234420000Y-58250000D02*
X218070000Y-58250000D01*
X235270000Y-59100000D02*
X234420000Y-58250000D01*
X225790000Y-79490000D02*
X225790000Y-72950000D01*
X225790000Y-72950000D02*
X228900000Y-69840000D01*
X228900000Y-69840000D02*
X234960000Y-69840000D01*
X234960000Y-69840000D02*
X236030000Y-68770000D01*
X236030000Y-68770000D02*
X236030000Y-61050000D01*
X236030000Y-61050000D02*
X235270000Y-60290000D01*
X197320000Y-111440000D02*
X197320000Y-113070000D01*
X184890000Y-116480000D02*
X183490000Y-117880000D01*
X193910000Y-116480000D02*
X184890000Y-116480000D01*
X197320000Y-113070000D02*
X193910000Y-116480000D01*
X212340000Y-98650000D02*
X212340000Y-97770000D01*
X197090000Y-97000000D02*
X195470000Y-98620000D01*
X211570000Y-97000000D02*
X197090000Y-97000000D01*
X212340000Y-97770000D02*
X211570000Y-97000000D01*
X202710000Y-117880000D02*
X202710000Y-116830000D01*
X195470000Y-98620000D02*
X193170000Y-98620000D01*
X197320000Y-100470000D02*
X195470000Y-98620000D01*
X197320000Y-111440000D02*
X197320000Y-100470000D01*
X202710000Y-116830000D02*
X197320000Y-111440000D01*
X214330000Y-60290000D02*
X212200000Y-60290000D01*
X212200000Y-60290000D02*
X212190000Y-60300000D01*
X255570000Y-59090000D02*
X255565000Y-59085000D01*
X255565000Y-59085000D02*
X255570000Y-59090000D01*
X255570000Y-59090000D02*
X255570000Y-59080000D01*
X273600000Y-60290000D02*
X273600000Y-58820000D01*
X256420000Y-58230000D02*
X255570000Y-59080000D01*
X255570000Y-59080000D02*
X254360000Y-60290000D01*
X273010000Y-58230000D02*
X256420000Y-58230000D01*
X273600000Y-58820000D02*
X273010000Y-58230000D01*
X264080000Y-79490000D02*
X264080000Y-73010000D01*
X274280000Y-60970000D02*
X273600000Y-60290000D01*
X274280000Y-68590000D02*
X274280000Y-60970000D01*
X273530000Y-69340000D02*
X274280000Y-68590000D01*
X267750000Y-69340000D02*
X273530000Y-69340000D01*
X264080000Y-73010000D02*
X267750000Y-69340000D01*
X264080000Y-79490000D02*
X264080000Y-78210000D01*
X246820000Y-77700000D02*
X244990000Y-79530000D01*
X263570000Y-77700000D02*
X246820000Y-77700000D01*
X264080000Y-78210000D02*
X263570000Y-77700000D01*
X250630000Y-98690000D02*
X250630000Y-93660000D01*
X264950000Y-80360000D02*
X264080000Y-79490000D01*
X264950000Y-88050000D02*
X264950000Y-80360000D01*
X264460000Y-88540000D02*
X264950000Y-88050000D01*
X255750000Y-88540000D02*
X264460000Y-88540000D01*
X250630000Y-93660000D02*
X255750000Y-88540000D01*
X250630000Y-98690000D02*
X250630000Y-97850000D01*
X233230000Y-96920000D02*
X231500000Y-98650000D01*
X249700000Y-96920000D02*
X233230000Y-96920000D01*
X250630000Y-97850000D02*
X249700000Y-96920000D01*
X245900000Y-117880000D02*
X245900000Y-115080000D01*
X251610000Y-99670000D02*
X250630000Y-98690000D01*
X251610000Y-109370000D02*
X251610000Y-99670000D01*
X245900000Y-115080000D02*
X251610000Y-109370000D01*
X245900000Y-117880000D02*
X245900000Y-116900000D01*
X223670000Y-116170000D02*
X221960000Y-117880000D01*
X245170000Y-116170000D02*
X223670000Y-116170000D01*
X245900000Y-116900000D02*
X245170000Y-116170000D01*
X252660000Y-60290000D02*
X250580000Y-60290000D01*
X250580000Y-60290000D02*
X250570000Y-60300000D01*
X337920000Y-118580000D02*
X337920000Y-118230000D01*
X337920000Y-118230000D02*
X336060000Y-116370000D01*
X336060000Y-116370000D02*
X290580000Y-116370000D01*
X289070000Y-117880000D02*
X290580000Y-116370000D01*
X337920000Y-99300000D02*
X337920000Y-118580000D01*
X337920000Y-79990000D02*
X337920000Y-99300000D01*
X337920000Y-60710000D02*
X337920000Y-79990000D01*
X292730000Y-60290000D02*
X293800000Y-60290000D01*
X337920000Y-59100000D02*
X337920000Y-60710000D01*
X336990000Y-58170000D02*
X337920000Y-59100000D01*
X295920000Y-58170000D02*
X336990000Y-58170000D01*
X293800000Y-60290000D02*
X295920000Y-58170000D01*
X292730000Y-60290000D02*
X292730000Y-58760000D01*
X292730000Y-58760000D02*
X292250000Y-58280000D01*
X292250000Y-58280000D02*
X275370000Y-58280000D01*
X275370000Y-58280000D02*
X273670000Y-56580000D01*
X273670000Y-56580000D02*
X200140000Y-56580000D01*
X200140000Y-56580000D02*
X199380000Y-55820000D01*
X199380000Y-55820000D02*
X199380000Y-49400000D01*
X269820000Y-117880000D02*
X269820000Y-117080000D01*
X272130000Y-114770000D02*
X282450000Y-114770000D01*
X269820000Y-117080000D02*
X272130000Y-114770000D01*
X289070000Y-117880000D02*
X289070000Y-116410000D01*
X280450000Y-99640000D02*
X279430000Y-98620000D01*
X280450000Y-112770000D02*
X280450000Y-99640000D01*
X282450000Y-114770000D02*
X280450000Y-112770000D01*
X287430000Y-114770000D02*
X282450000Y-114770000D01*
X289070000Y-116410000D02*
X287430000Y-114770000D01*
X291030000Y-60290000D02*
X288960000Y-60290000D01*
X288960000Y-60290000D02*
X288950000Y-60300000D01*
X3300000Y-60290000D02*
X1180000Y-60290000D01*
X1180000Y-60290000D02*
X1170000Y-60300000D01*
X51300000Y-79490000D02*
X49110000Y-79490000D01*
X49110000Y-79490000D02*
X49100000Y-79500000D01*
X89750000Y-79450000D02*
X87550000Y-79450000D01*
X87550000Y-79450000D02*
X87500000Y-79500000D01*
X128040000Y-79490000D02*
X125900000Y-79490000D01*
X125900000Y-79490000D02*
X125890000Y-79500000D01*
X166370000Y-79490000D02*
X164260000Y-79490000D01*
X164260000Y-79490000D02*
X164250000Y-79500000D01*
X204810000Y-79490000D02*
X202670000Y-79490000D01*
X202670000Y-79490000D02*
X202660000Y-79500000D01*
X243290000Y-79530000D02*
X241090000Y-79530000D01*
X241090000Y-79530000D02*
X241070000Y-79510000D01*
X277730000Y-98620000D02*
X275570000Y-98620000D01*
X275570000Y-98620000D02*
X275530000Y-98660000D01*
X8180000Y-79490000D02*
X5950000Y-79490000D01*
X5950000Y-79490000D02*
X5940000Y-79500000D01*
X37930000Y-98690000D02*
X35780000Y-98690000D01*
X35780000Y-98690000D02*
X35770000Y-98680000D01*
X76300000Y-98650000D02*
X74140000Y-98650000D01*
X74140000Y-98650000D02*
X74130000Y-98660000D01*
X114630000Y-98650000D02*
X112530000Y-98650000D01*
X112530000Y-98650000D02*
X112520000Y-98660000D01*
X153110000Y-98650000D02*
X150910000Y-98650000D01*
X150910000Y-98650000D02*
X150900000Y-98660000D01*
X191470000Y-98620000D02*
X189310000Y-98620000D01*
X189310000Y-98620000D02*
X189270000Y-98660000D01*
X229800000Y-98650000D02*
X227640000Y-98650000D01*
X227640000Y-98650000D02*
X227630000Y-98660000D01*
X287370000Y-117880000D02*
X285160000Y-117880000D01*
X285160000Y-117880000D02*
X285150000Y-117870000D01*
X-440000Y-98690000D02*
X-2620000Y-98690000D01*
X-2620000Y-98690000D02*
X-2630000Y-98680000D01*
X21930000Y-127830000D02*
X21930000Y-118490000D01*
X21460000Y-128300000D02*
X21930000Y-127830000D01*
X21930000Y-118490000D02*
X21310000Y-117870000D01*
X23480000Y-117880000D02*
X21320000Y-117880000D01*
X21320000Y-117880000D02*
X21310000Y-117870000D01*
X66590000Y-117880000D02*
X64480000Y-117880000D01*
X64480000Y-117880000D02*
X64470000Y-117870000D01*
X105010000Y-117880000D02*
X102890000Y-117880000D01*
X102890000Y-117880000D02*
X102880000Y-117870000D01*
X143400000Y-117880000D02*
X141290000Y-117880000D01*
X141290000Y-117880000D02*
X141280000Y-117870000D01*
X181790000Y-117880000D02*
X179690000Y-117880000D01*
X179690000Y-117880000D02*
X179680000Y-117870000D01*
X220260000Y-117880000D02*
X218080000Y-117880000D01*
X218080000Y-117880000D02*
X218070000Y-117870000D01*
X268120000Y-117880000D02*
X265980000Y-117880000D01*
X265980000Y-117880000D02*
X265970000Y-117870000D01*
X128270000Y-137100000D02*
X126190000Y-137100000D01*
X126190000Y-137100000D02*
X126150000Y-137060000D01*
X47340000Y-117880000D02*
X45260000Y-117880000D01*
X85790000Y-117880000D02*
X83680000Y-117880000D01*
X83680000Y-117880000D02*
X83670000Y-117870000D01*
X124210000Y-117910000D02*
X122110000Y-117910000D01*
X122110000Y-117910000D02*
X122070000Y-117870000D01*
X162680000Y-117880000D02*
X160490000Y-117880000D01*
X160490000Y-117880000D02*
X160480000Y-117870000D01*
X201010000Y-117880000D02*
X198890000Y-117880000D01*
X198890000Y-117880000D02*
X198880000Y-117870000D01*
X198890000Y-117880000D02*
X198880000Y-117870000D01*
X244200000Y-117880000D02*
X242030000Y-117880000D01*
X242030000Y-117880000D02*
X242020000Y-117870000D01*
X336220000Y-60710000D02*
X333950000Y-60710000D01*
X-460000Y-117910000D02*
X-2610000Y-117910000D01*
X-2610000Y-117910000D02*
X-2640000Y-117880000D01*
X57170000Y-98650000D02*
X54980000Y-98650000D01*
X54980000Y-98650000D02*
X54970000Y-98660000D01*
X95540000Y-98650000D02*
X93330000Y-98650000D01*
X93330000Y-98650000D02*
X93320000Y-98660000D01*
X133910000Y-98650000D02*
X131710000Y-98650000D01*
X131710000Y-98650000D02*
X131700000Y-98660000D01*
X172200000Y-98650000D02*
X170070000Y-98650000D01*
X170070000Y-98650000D02*
X170060000Y-98660000D01*
X210640000Y-98650000D02*
X208440000Y-98650000D01*
X208440000Y-98650000D02*
X208430000Y-98660000D01*
X248930000Y-98690000D02*
X246830000Y-98690000D01*
X246830000Y-98690000D02*
X246820000Y-98680000D01*
X336220000Y-79990000D02*
X333950000Y-79990000D01*
X32030000Y-79490000D02*
X29910000Y-79490000D01*
X29910000Y-79490000D02*
X29900000Y-79500000D01*
X70510000Y-79490000D02*
X68310000Y-79490000D01*
X68310000Y-79490000D02*
X68300000Y-79500000D01*
X108910000Y-79530000D02*
X106720000Y-79530000D01*
X106720000Y-79530000D02*
X106690000Y-79500000D01*
X147240000Y-79490000D02*
X145080000Y-79490000D01*
X145080000Y-79490000D02*
X145070000Y-79500000D01*
X185680000Y-79490000D02*
X183470000Y-79490000D01*
X183470000Y-79490000D02*
X183460000Y-79500000D01*
X224090000Y-79490000D02*
X221870000Y-79490000D01*
X221870000Y-79490000D02*
X221860000Y-79500000D01*
X262380000Y-79490000D02*
X260230000Y-79490000D01*
X260230000Y-79490000D02*
X260210000Y-79510000D01*
X336220000Y-99300000D02*
X333950000Y-99300000D01*
X41630000Y-60290000D02*
X39510000Y-60290000D01*
X39510000Y-60290000D02*
X39500000Y-60300000D01*
X79990000Y-60250000D02*
X77920000Y-60250000D01*
X77920000Y-60250000D02*
X77870000Y-60300000D01*
X118400000Y-60290000D02*
X116260000Y-60290000D01*
X116260000Y-60290000D02*
X116250000Y-60300000D01*
X156730000Y-60250000D02*
X154670000Y-60250000D01*
X154670000Y-60250000D02*
X154620000Y-60300000D01*
X195210000Y-60330000D02*
X193020000Y-60330000D01*
X193020000Y-60330000D02*
X192990000Y-60300000D01*
X233570000Y-60290000D02*
X231390000Y-60290000D01*
X231390000Y-60290000D02*
X231380000Y-60300000D01*
X271900000Y-60290000D02*
X269770000Y-60290000D01*
X269770000Y-60290000D02*
X269760000Y-60300000D01*
X336220000Y-118580000D02*
X333950000Y-118580000D01*
X277830000Y-82040000D02*
X277830000Y-78870000D01*
X192790000Y-53900000D02*
X192790000Y-46440000D01*
X194660000Y-55770000D02*
X192790000Y-53900000D01*
X197700000Y-55770000D02*
X194660000Y-55770000D01*
X199630000Y-57700000D02*
X197700000Y-55770000D01*
X273200000Y-57700000D02*
X199630000Y-57700000D01*
X274890000Y-59390000D02*
X273200000Y-57700000D01*
X274890000Y-75930000D02*
X274890000Y-59390000D01*
X277830000Y-78870000D02*
X274890000Y-75930000D01*
X186640000Y-62840000D02*
X186640000Y-60170000D01*
X187710000Y-55520000D02*
X187710000Y-46440000D01*
X187680000Y-55550000D02*
X187710000Y-55520000D01*
X186640000Y-60170000D02*
X187720000Y-59090000D01*
X177110000Y-82040000D02*
X177170004Y-82040000D01*
X177170004Y-82040000D02*
X178260004Y-80950000D01*
X185170000Y-55280000D02*
X185170000Y-46440000D01*
X186269998Y-56379998D02*
X185170000Y-55280000D01*
X197509998Y-56379998D02*
X186269998Y-56379998D01*
X200070000Y-58940000D02*
X197509998Y-56379998D01*
X200070000Y-69640000D02*
X200070000Y-58940000D01*
X197720000Y-71990000D02*
X200070000Y-69640000D01*
X191070002Y-71990000D02*
X197720000Y-71990000D01*
X190160002Y-72900000D02*
X191070002Y-71990000D01*
X190160002Y-81029998D02*
X190160002Y-72900000D01*
X188689998Y-82500002D02*
X190160002Y-81029998D01*
X182053604Y-82500002D02*
X188689998Y-82500002D01*
X180503602Y-80950000D02*
X182053604Y-82500002D01*
X178260004Y-80950000D02*
X180503602Y-80950000D01*
X182630000Y-55640000D02*
X182630000Y-46440000D01*
X183820000Y-56830000D02*
X182630000Y-55640000D01*
X197220000Y-56830000D02*
X183820000Y-56830000D01*
X199550000Y-59160000D02*
X197220000Y-56830000D01*
X199550000Y-69400000D02*
X199550000Y-59160000D01*
X197450000Y-71500000D02*
X199550000Y-69400000D01*
X190880000Y-71500000D02*
X197450000Y-71500000D01*
X189710000Y-72670000D02*
X190880000Y-71500000D01*
X189710000Y-80660000D02*
X189710000Y-72670000D01*
X188320000Y-82050000D02*
X189710000Y-80660000D01*
X182240000Y-82050000D02*
X188320000Y-82050000D01*
X180660002Y-80470002D02*
X182240000Y-82050000D01*
X171769998Y-80470002D02*
X180660002Y-80470002D01*
X171080000Y-81160000D02*
X171769998Y-80470002D01*
X171080000Y-89660000D02*
X171080000Y-81160000D01*
X175550000Y-94130000D02*
X171080000Y-89660000D01*
X175550000Y-96480000D02*
X175550000Y-94130000D01*
X177950002Y-98880002D02*
X175550000Y-96480000D01*
X177950002Y-100060002D02*
X177950002Y-98880002D01*
X179370000Y-101480000D02*
X177950002Y-100060002D01*
X16990000Y-106000000D02*
X16990000Y-107850000D01*
X236340000Y-126240000D02*
X236340000Y-127970000D01*
X236400000Y-126180000D02*
X236340000Y-126240000D01*
X192530000Y-120410000D02*
X179500000Y-120410000D01*
X180090000Y-55930000D02*
X180090000Y-46440000D01*
X181580000Y-57420000D02*
X180090000Y-55930000D01*
X196980000Y-57420000D02*
X181580000Y-57420000D01*
X199020000Y-59460000D02*
X196980000Y-57420000D01*
X199020000Y-69150000D02*
X199020000Y-59460000D01*
X197200000Y-70970000D02*
X199020000Y-69150000D01*
X190690000Y-70970000D02*
X197200000Y-70970000D01*
X189130000Y-72530000D02*
X190690000Y-70970000D01*
X189130000Y-80480000D02*
X189130000Y-72530000D01*
X188090000Y-81520000D02*
X189130000Y-80480000D01*
X182440000Y-81520000D02*
X188090000Y-81520000D01*
X180940000Y-80020000D02*
X182440000Y-81520000D01*
X171520000Y-80020000D02*
X180940000Y-80020000D01*
X170520000Y-81020000D02*
X171520000Y-80020000D01*
X170520000Y-89800000D02*
X170520000Y-81020000D01*
X175040000Y-94320000D02*
X170520000Y-89800000D01*
X175040000Y-96780000D02*
X175040000Y-94320000D01*
X177500000Y-99240000D02*
X175040000Y-96780000D01*
X177500000Y-106010000D02*
X177500000Y-99240000D01*
X173840000Y-109670000D02*
X177500000Y-106010000D01*
X173840000Y-117400000D02*
X173840000Y-109670000D01*
X174850000Y-118410000D02*
X173840000Y-117400000D01*
X177500000Y-118410000D02*
X174850000Y-118410000D01*
X179500000Y-120410000D02*
X177500000Y-118410000D01*
X173330000Y-120410000D02*
X173330000Y-109310000D01*
X177550000Y-55110000D02*
X177550000Y-46440000D01*
X180360000Y-57920000D02*
X177550000Y-55110000D01*
X196640000Y-57920000D02*
X180360000Y-57920000D01*
X198490000Y-59770000D02*
X196640000Y-57920000D01*
X198490000Y-68870000D02*
X198490000Y-59770000D01*
X197010000Y-70350000D02*
X198490000Y-68870000D01*
X190530000Y-70350000D02*
X197010000Y-70350000D01*
X188540000Y-72340000D02*
X190530000Y-70350000D01*
X188540000Y-80350000D02*
X188540000Y-72340000D01*
X187890000Y-81000000D02*
X188540000Y-80350000D01*
X182620000Y-81000000D02*
X187890000Y-81000000D01*
X181170000Y-79550000D02*
X182620000Y-81000000D01*
X171270000Y-79550000D02*
X181170000Y-79550000D01*
X169930000Y-80890000D02*
X171270000Y-79550000D01*
X169930000Y-89990000D02*
X169930000Y-80890000D01*
X174430000Y-94490000D02*
X169930000Y-89990000D01*
X174430000Y-97030000D02*
X174430000Y-94490000D01*
X176780000Y-99380000D02*
X174430000Y-97030000D01*
X176780000Y-105860000D02*
X176780000Y-99380000D01*
X173330000Y-109310000D02*
X176780000Y-105860000D01*
X144550000Y-101200000D02*
X144550000Y-98360000D01*
X175010000Y-53900000D02*
X175010000Y-46440000D01*
X171050000Y-57860000D02*
X175010000Y-53900000D01*
X171050000Y-60570000D02*
X171050000Y-57860000D01*
X172280000Y-61800000D02*
X171050000Y-60570000D01*
X172730000Y-61800000D02*
X172280000Y-61800000D01*
X174460000Y-63530000D02*
X172730000Y-61800000D01*
X174460000Y-68060000D02*
X174460000Y-63530000D01*
X173560000Y-68960000D02*
X174460000Y-68060000D01*
X171210000Y-68960000D02*
X173560000Y-68960000D01*
X167080000Y-73090000D02*
X171210000Y-68960000D01*
X167080000Y-74320000D02*
X167080000Y-73090000D01*
X166300000Y-75100000D02*
X167080000Y-74320000D01*
X164850000Y-75100000D02*
X166300000Y-75100000D01*
X162330000Y-77620000D02*
X164850000Y-75100000D01*
X162330000Y-80910000D02*
X162330000Y-77620000D01*
X164570000Y-83150000D02*
X162330000Y-80910000D01*
X164570000Y-89630000D02*
X164570000Y-83150000D01*
X160100000Y-94100000D02*
X164570000Y-89630000D01*
X148810000Y-94100000D02*
X160100000Y-94100000D01*
X144550000Y-98360000D02*
X148810000Y-94100000D01*
X157900000Y-82040000D02*
X157900000Y-81150000D01*
X172470000Y-55640000D02*
X172470000Y-46440000D01*
X170550000Y-57560000D02*
X172470000Y-55640000D01*
X170550000Y-60830000D02*
X170550000Y-57560000D01*
X172045000Y-62325000D02*
X170550000Y-60830000D01*
X172445000Y-62325000D02*
X172045000Y-62325000D01*
X173930000Y-63810000D02*
X172445000Y-62325000D01*
X173930000Y-67850000D02*
X173930000Y-63810000D01*
X173340000Y-68440000D02*
X173930000Y-67850000D01*
X170920000Y-68440000D02*
X173340000Y-68440000D01*
X166590000Y-72770000D02*
X170920000Y-68440000D01*
X166590000Y-74080000D02*
X166590000Y-72770000D01*
X166055000Y-74615000D02*
X166590000Y-74080000D01*
X164435000Y-74615000D02*
X166055000Y-74615000D01*
X157900000Y-81150000D02*
X164435000Y-74615000D01*
X172500000Y-46470000D02*
X172470000Y-46440000D01*
X235290000Y-87700000D02*
X235740000Y-87250000D01*
X235290000Y-88580000D02*
X235290000Y-87700000D01*
X235650000Y-88940000D02*
X235290000Y-88580000D01*
X167470000Y-62840000D02*
X167470000Y-61710000D01*
X169930000Y-56920000D02*
X169930000Y-46440000D01*
X170080000Y-57070000D02*
X169930000Y-56920000D01*
X170080000Y-60870000D02*
X170080000Y-57070000D01*
X169650000Y-61300000D02*
X170080000Y-60870000D01*
X167880000Y-61300000D02*
X169650000Y-61300000D01*
X167470000Y-61710000D02*
X167880000Y-61300000D01*
X167470000Y-62840000D02*
X167470000Y-61770000D01*
X7950000Y-98660000D02*
X16570000Y-98660000D01*
X7120000Y-99490000D02*
X7950000Y-98660000D01*
X7120000Y-109660000D02*
X7120000Y-99490000D01*
X12170000Y-114710000D02*
X7120000Y-109660000D01*
X12170000Y-124860000D02*
X12170000Y-114710000D01*
X15690000Y-128380000D02*
X12170000Y-124860000D01*
X17000000Y-99090000D02*
X16570000Y-98660000D01*
X16580000Y-98650000D02*
X16570000Y-98660000D01*
X284180000Y-79500000D02*
X284180000Y-74970000D01*
X283150000Y-73940000D02*
X279080000Y-73940000D01*
X284180000Y-74970000D02*
X283150000Y-73940000D01*
X284190000Y-79490000D02*
X284180000Y-79500000D01*
X197870000Y-55180000D02*
X197870000Y-46440000D01*
X279080000Y-73940000D02*
X275460000Y-70320000D01*
X275460000Y-70320000D02*
X275460000Y-59180000D01*
X275460000Y-59180000D02*
X273450000Y-57170000D01*
X273450000Y-57170000D02*
X199860000Y-57170000D01*
X199860000Y-57170000D02*
X197870000Y-55180000D01*
X293140000Y-131450000D02*
X293140000Y-119230000D01*
X5970000Y-114070000D02*
X5970000Y-127280000D01*
X5970000Y-127280000D02*
X7270000Y-128580000D01*
X7270000Y-128580000D02*
X11770000Y-128580000D01*
X8510000Y-114070000D02*
X8510000Y-126610000D01*
X8510000Y-126610000D02*
X9590000Y-127690000D01*
X9590000Y-127690000D02*
X12770000Y-127690000D01*
X12770000Y-127690000D02*
X13430000Y-128350000D01*
X13690000Y-130900000D02*
X14880000Y-130900000D01*
X14880000Y-130900000D02*
X17360000Y-133380000D01*
X17360000Y-133380000D02*
X17360000Y-133970000D01*
X12430000Y-136710000D02*
X12670000Y-136950000D01*
X12670000Y-136950000D02*
X21790000Y-136950000D01*
X21790000Y-136950000D02*
X23010000Y-138170000D01*
X23010000Y-138170000D02*
X23010000Y-138220000D01*
X23010000Y-138220000D02*
X23020000Y-138230000D01*
X14690000Y-138480000D02*
X16070000Y-138480000D01*
X16070000Y-138480000D02*
X16190000Y-138360000D01*
X10970000Y-102880000D02*
X10220000Y-102130000D01*
X10970000Y-111990000D02*
X10970000Y-102880000D01*
X17060000Y-118080000D02*
X10970000Y-111990000D01*
X17060000Y-120670000D02*
X17060000Y-118080000D01*
X15660000Y-122070000D02*
X17060000Y-120670000D01*
X15660000Y-127020000D02*
X15660000Y-122070000D01*
X16690000Y-128050000D02*
X15660000Y-127020000D01*
X18180000Y-128050000D02*
X16690000Y-128050000D01*
X18290000Y-127940000D02*
X18180000Y-128050000D01*
X10220000Y-102130000D02*
X10220000Y-101200000D01*
X14430000Y-139470000D02*
X16090000Y-139470000D01*
X16090000Y-139470000D02*
X16170000Y-139390000D01*
X24020000Y-134860000D02*
X24770000Y-135610000D01*
X24770000Y-135610000D02*
X24770000Y-139530000D01*
X24770000Y-139530000D02*
X23730000Y-140570000D01*
X23730000Y-140570000D02*
X20510000Y-140570000D01*
X20510000Y-140570000D02*
X19340000Y-139400000D01*
X8820000Y-137250000D02*
X7950000Y-136380000D01*
X7950000Y-136380000D02*
X7950000Y-134670000D01*
M02*
