G04 #@! TF.GenerationSoftware,KiCad,Pcbnew,(5.1.5)-2*
G04 #@! TF.CreationDate,2021-01-09T12:48:30+01:00*
G04 #@! TF.ProjectId,VIC20_kbd,56494332-305f-46b6-9264-2e6b69636164,2.0*
G04 #@! TF.SameCoordinates,Original*
G04 #@! TF.FileFunction,Soldermask,Top*
G04 #@! TF.FilePolarity,Negative*
%FSLAX46Y46*%
G04 Gerber Fmt 4.6, Leading zero omitted, Abs format (unit mm)*
G04 Created by KiCad (PCBNEW (5.1.5)-2) date 2021-01-09 12:48:30*
%MOMM*%
%LPD*%
G04 APERTURE LIST*
%ADD10R,0.900000X1.300000*%
%ADD11R,1.200000X1.150000*%
%ADD12R,1.150000X1.200000*%
%ADD13R,2.100000X2.100000*%
%ADD14O,2.100000X2.100000*%
%ADD15C,3.900000*%
%ADD16C,2.600000*%
%ADD17C,3.600000*%
%ADD18C,4.400000*%
%ADD19C,2.200000*%
%ADD20R,2.200000X2.200000*%
%ADD21R,1.200000X1.300000*%
%ADD22R,1.300000X0.900000*%
%ADD23R,1.950000X1.000000*%
%ADD24C,3.400000*%
%ADD25C,2.686000*%
%ADD26C,4.387800*%
%ADD27C,2.101800*%
G04 APERTURE END LIST*
D10*
X45590000Y-207450000D03*
X44090000Y-207450000D03*
D11*
X47880000Y-207500000D03*
X49380000Y-207500000D03*
D12*
X54090000Y-208210000D03*
X54090000Y-209710000D03*
D13*
X242370000Y-113860000D03*
D14*
X239830000Y-113860000D03*
X237290000Y-113860000D03*
X234750000Y-113860000D03*
X232210000Y-113860000D03*
X229670000Y-113860000D03*
X227130000Y-113860000D03*
X224590000Y-113860000D03*
X222050000Y-113860000D03*
X219510000Y-113860000D03*
X216970000Y-113860000D03*
X214430000Y-113860000D03*
X211890000Y-113860000D03*
X209350000Y-113860000D03*
X206810000Y-113860000D03*
X204270000Y-113860000D03*
X201730000Y-113860000D03*
X199190000Y-113860000D03*
X196650000Y-113860000D03*
X194110000Y-113860000D03*
D15*
X192960000Y-108340000D03*
X205540000Y-108340000D03*
X218240000Y-108340000D03*
X230940000Y-108340000D03*
X243620000Y-108340000D03*
X390320000Y-124420000D03*
X390320000Y-216680000D03*
X237920000Y-201830000D03*
X96610000Y-201820000D03*
X29840000Y-216680000D03*
X29840000Y-124420000D03*
X348750000Y-131180000D03*
D16*
X129380000Y-141410000D03*
D15*
X235160000Y-160940000D03*
X158180000Y-160940000D03*
X137680000Y-216680000D03*
X189650000Y-216680000D03*
X341370000Y-201820000D03*
D17*
X105610000Y-202570000D03*
X230610000Y-202570000D03*
D18*
X230610000Y-217800000D03*
X105610000Y-217800000D03*
D19*
X53010000Y-181490000D03*
D20*
X50470000Y-181490000D03*
D21*
X64250000Y-207820000D03*
X65200000Y-209820000D03*
X63300000Y-209820000D03*
D22*
X58410000Y-208210000D03*
X58410000Y-209710000D03*
D10*
X60280000Y-212870000D03*
X61780000Y-212870000D03*
D22*
X60800000Y-209710000D03*
X60800000Y-208210000D03*
X56160000Y-212210000D03*
X56160000Y-213710000D03*
X56070000Y-209750000D03*
X56070000Y-208250000D03*
D23*
X44950000Y-214675000D03*
X44950000Y-213405000D03*
X44950000Y-212135000D03*
X44950000Y-210865000D03*
X50350000Y-210865000D03*
X50350000Y-212135000D03*
X50350000Y-213405000D03*
X50350000Y-214675000D03*
D24*
X59730000Y-137880000D03*
X66080000Y-135340000D03*
D25*
X64810000Y-127720000D03*
D26*
X62270000Y-132800000D03*
D25*
X58460000Y-130260000D03*
D27*
X67350000Y-132800000D03*
X57190000Y-132800000D03*
X95580000Y-132800000D03*
X105740000Y-132800000D03*
D25*
X96850000Y-130260000D03*
D26*
X100660000Y-132800000D03*
D25*
X103200000Y-127720000D03*
D24*
X104470000Y-135340000D03*
X98120000Y-137880000D03*
D27*
X133940000Y-132800000D03*
X144100000Y-132800000D03*
D25*
X135210000Y-130260000D03*
D26*
X139020000Y-132800000D03*
D25*
X141560000Y-127720000D03*
D24*
X142830000Y-135340000D03*
X136480000Y-137880000D03*
X174840000Y-137880000D03*
X181190000Y-135340000D03*
D25*
X179920000Y-127720000D03*
D26*
X177380000Y-132800000D03*
D25*
X173570000Y-130260000D03*
D27*
X182460000Y-132800000D03*
X172300000Y-132800000D03*
D24*
X213240000Y-137880000D03*
X219590000Y-135340000D03*
D25*
X218320000Y-127720000D03*
D26*
X215780000Y-132800000D03*
D25*
X211970000Y-130260000D03*
D27*
X220860000Y-132800000D03*
X210700000Y-132800000D03*
X249070000Y-132800000D03*
X259230000Y-132800000D03*
D25*
X250340000Y-130260000D03*
D26*
X254150000Y-132800000D03*
D25*
X256690000Y-127720000D03*
D24*
X257960000Y-135340000D03*
X251610000Y-137880000D03*
D27*
X287450000Y-132800000D03*
X297610000Y-132800000D03*
D25*
X288720000Y-130260000D03*
D26*
X292530000Y-132800000D03*
D25*
X295070000Y-127720000D03*
D24*
X296340000Y-135340000D03*
X289990000Y-137880000D03*
X328370000Y-137880000D03*
X334720000Y-135340000D03*
D25*
X333450000Y-127720000D03*
D26*
X330910000Y-132800000D03*
D25*
X327100000Y-130260000D03*
D27*
X335990000Y-132800000D03*
X325830000Y-132800000D03*
X38050000Y-132800000D03*
X48210000Y-132800000D03*
D25*
X39320000Y-130260000D03*
D26*
X43130000Y-132800000D03*
D25*
X45670000Y-127720000D03*
D24*
X46940000Y-135340000D03*
X40590000Y-137880000D03*
D27*
X85980000Y-152000000D03*
X96140000Y-152000000D03*
D25*
X87250000Y-149460000D03*
D26*
X91060000Y-152000000D03*
D25*
X93600000Y-146920000D03*
D24*
X94870000Y-154540000D03*
X88520000Y-157080000D03*
D27*
X124380000Y-152000000D03*
X134540000Y-152000000D03*
D25*
X125650000Y-149460000D03*
D26*
X129460000Y-152000000D03*
D25*
X132000000Y-146920000D03*
D24*
X133270000Y-154540000D03*
X126920000Y-157080000D03*
X165310000Y-157080000D03*
X171660000Y-154540000D03*
D25*
X170390000Y-146920000D03*
D26*
X167850000Y-152000000D03*
D25*
X164040000Y-149460000D03*
D27*
X172930000Y-152000000D03*
X162770000Y-152000000D03*
D24*
X203670000Y-157080000D03*
X210020000Y-154540000D03*
D25*
X208750000Y-146920000D03*
D26*
X206210000Y-152000000D03*
D25*
X202400000Y-149460000D03*
D27*
X211290000Y-152000000D03*
X201130000Y-152000000D03*
X239540000Y-152000000D03*
X249700000Y-152000000D03*
D25*
X240810000Y-149460000D03*
D26*
X244620000Y-152000000D03*
D25*
X247160000Y-146920000D03*
D24*
X248430000Y-154540000D03*
X242080000Y-157080000D03*
D27*
X277950000Y-152010000D03*
X288110000Y-152010000D03*
D25*
X279220000Y-149470000D03*
D26*
X283030000Y-152010000D03*
D25*
X285570000Y-146930000D03*
D24*
X286840000Y-154550000D03*
X280490000Y-157090000D03*
X314950000Y-176240000D03*
X321300000Y-173700000D03*
D25*
X320030000Y-166080000D03*
D26*
X317490000Y-171160000D03*
D25*
X313680000Y-168620000D03*
D27*
X322570000Y-171160000D03*
X312410000Y-171160000D03*
X42820000Y-152000000D03*
X52980000Y-152000000D03*
D25*
X44090000Y-149460000D03*
D26*
X47900000Y-152000000D03*
D25*
X50440000Y-146920000D03*
D24*
X51710000Y-154540000D03*
X45360000Y-157080000D03*
D27*
X72650000Y-171180000D03*
X82810000Y-171180000D03*
D25*
X73920000Y-168640000D03*
D26*
X77730000Y-171180000D03*
D25*
X80270000Y-166100000D03*
D24*
X81540000Y-173720000D03*
X75190000Y-176260000D03*
X113550000Y-176240000D03*
X119900000Y-173700000D03*
D25*
X118630000Y-166080000D03*
D26*
X116090000Y-171160000D03*
D25*
X112280000Y-168620000D03*
D27*
X121170000Y-171160000D03*
X111010000Y-171160000D03*
X149400000Y-171160000D03*
X159560000Y-171160000D03*
D25*
X150670000Y-168620000D03*
D26*
X154480000Y-171160000D03*
D25*
X157020000Y-166080000D03*
D24*
X158290000Y-173700000D03*
X151940000Y-176240000D03*
D27*
X187780000Y-171160000D03*
X197940000Y-171160000D03*
D25*
X189050000Y-168620000D03*
D26*
X192860000Y-171160000D03*
D25*
X195400000Y-166080000D03*
D24*
X196670000Y-173700000D03*
X190320000Y-176240000D03*
X228690000Y-176240000D03*
X235040000Y-173700000D03*
D25*
X233770000Y-166080000D03*
D26*
X231230000Y-171160000D03*
D25*
X227420000Y-168620000D03*
D27*
X236310000Y-171160000D03*
X226150000Y-171160000D03*
D24*
X267050000Y-176240000D03*
X273400000Y-173700000D03*
D25*
X272130000Y-166080000D03*
D26*
X269590000Y-171160000D03*
D25*
X265780000Y-168620000D03*
D27*
X274670000Y-171160000D03*
X264510000Y-171160000D03*
X322030000Y-190370000D03*
X332190000Y-190370000D03*
D25*
X323300000Y-187830000D03*
D26*
X327110000Y-190370000D03*
D25*
X329650000Y-185290000D03*
D24*
X330920000Y-192910000D03*
X324570000Y-195450000D03*
X36790000Y-176260000D03*
X43140000Y-173720000D03*
D25*
X41870000Y-166100000D03*
D26*
X39330000Y-171180000D03*
D25*
X35520000Y-168640000D03*
D27*
X44410000Y-171180000D03*
X34250000Y-171180000D03*
D24*
X60730000Y-195450000D03*
X67080000Y-192910000D03*
D25*
X65810000Y-185290000D03*
D26*
X63270000Y-190370000D03*
D25*
X59460000Y-187830000D03*
D27*
X68350000Y-190370000D03*
X58190000Y-190370000D03*
X101350000Y-190370000D03*
X111510000Y-190370000D03*
D25*
X102620000Y-187830000D03*
D26*
X106430000Y-190370000D03*
D25*
X108970000Y-185290000D03*
D24*
X110240000Y-192910000D03*
X103890000Y-195450000D03*
D27*
X139760000Y-190370000D03*
X149920000Y-190370000D03*
D25*
X141030000Y-187830000D03*
D26*
X144840000Y-190370000D03*
D25*
X147380000Y-185290000D03*
D24*
X148650000Y-192910000D03*
X142300000Y-195450000D03*
X180700000Y-195450000D03*
X187050000Y-192910000D03*
D25*
X185780000Y-185290000D03*
D26*
X183240000Y-190370000D03*
D25*
X179430000Y-187830000D03*
D27*
X188320000Y-190370000D03*
X178160000Y-190370000D03*
D24*
X219100000Y-195450000D03*
X225450000Y-192910000D03*
D25*
X224180000Y-185290000D03*
D26*
X221640000Y-190370000D03*
D25*
X217830000Y-187830000D03*
D27*
X226720000Y-190370000D03*
X216560000Y-190370000D03*
D24*
X257490000Y-195450000D03*
X263840000Y-192910000D03*
D25*
X262570000Y-185290000D03*
D26*
X260030000Y-190370000D03*
D25*
X256220000Y-187830000D03*
D27*
X265110000Y-190370000D03*
X254950000Y-190370000D03*
X302850000Y-190370000D03*
X313010000Y-190370000D03*
D25*
X304120000Y-187830000D03*
D26*
X307930000Y-190370000D03*
D25*
X310470000Y-185290000D03*
D24*
X311740000Y-192910000D03*
X305390000Y-195450000D03*
X165570000Y-214640000D03*
X171920000Y-212100000D03*
D25*
X170650000Y-204480000D03*
D26*
X168110000Y-209560000D03*
D25*
X164300000Y-207020000D03*
D27*
X173190000Y-209560000D03*
X163030000Y-209560000D03*
D24*
X84680000Y-195460000D03*
X91030000Y-192920000D03*
D25*
X89760000Y-185300000D03*
D26*
X87220000Y-190380000D03*
D25*
X83410000Y-187840000D03*
D27*
X92300000Y-190380000D03*
X82140000Y-190380000D03*
X120550000Y-190370000D03*
X130710000Y-190370000D03*
D25*
X121820000Y-187830000D03*
D26*
X125630000Y-190370000D03*
D25*
X128170000Y-185290000D03*
D24*
X129440000Y-192910000D03*
X123090000Y-195450000D03*
X161490000Y-195450000D03*
X167840000Y-192910000D03*
D25*
X166570000Y-185290000D03*
D26*
X164030000Y-190370000D03*
D25*
X160220000Y-187830000D03*
D27*
X169110000Y-190370000D03*
X158950000Y-190370000D03*
X197360000Y-190370000D03*
X207520000Y-190370000D03*
D25*
X198630000Y-187830000D03*
D26*
X202440000Y-190370000D03*
D25*
X204980000Y-185290000D03*
D24*
X206250000Y-192910000D03*
X199900000Y-195450000D03*
D27*
X235760000Y-190370000D03*
X245920000Y-190370000D03*
D25*
X237030000Y-187830000D03*
D26*
X240840000Y-190370000D03*
D25*
X243380000Y-185290000D03*
D24*
X244650000Y-192910000D03*
X238300000Y-195450000D03*
X281440000Y-195450000D03*
X287790000Y-192910000D03*
D25*
X286520000Y-185290000D03*
D26*
X283980000Y-190370000D03*
D25*
X280170000Y-187830000D03*
D27*
X289060000Y-190370000D03*
X278900000Y-190370000D03*
X370830000Y-133210000D03*
X380990000Y-133210000D03*
D25*
X372100000Y-130670000D03*
D26*
X375910000Y-133210000D03*
D25*
X378450000Y-128130000D03*
D24*
X379720000Y-135750000D03*
X373370000Y-138290000D03*
X36780000Y-195460000D03*
X43130000Y-192920000D03*
D25*
X41860000Y-185300000D03*
D26*
X39320000Y-190380000D03*
D25*
X35510000Y-187840000D03*
D27*
X44400000Y-190380000D03*
X34240000Y-190380000D03*
D24*
X94390000Y-176240000D03*
X100740000Y-173700000D03*
D25*
X99470000Y-166080000D03*
D26*
X96930000Y-171160000D03*
D25*
X93120000Y-168620000D03*
D27*
X102010000Y-171160000D03*
X91850000Y-171160000D03*
X130200000Y-171160000D03*
X140360000Y-171160000D03*
D25*
X131470000Y-168620000D03*
D26*
X135280000Y-171160000D03*
D25*
X137820000Y-166080000D03*
D24*
X139090000Y-173700000D03*
X132740000Y-176240000D03*
X171120000Y-176240000D03*
X177470000Y-173700000D03*
D25*
X176200000Y-166080000D03*
D26*
X173660000Y-171160000D03*
D25*
X169850000Y-168620000D03*
D27*
X178740000Y-171160000D03*
X168580000Y-171160000D03*
X206940000Y-171160000D03*
X217100000Y-171160000D03*
D25*
X208210000Y-168620000D03*
D26*
X212020000Y-171160000D03*
D25*
X214560000Y-166080000D03*
D24*
X215830000Y-173700000D03*
X209480000Y-176240000D03*
X247850000Y-176240000D03*
X254200000Y-173700000D03*
D25*
X252930000Y-166080000D03*
D26*
X250390000Y-171160000D03*
D25*
X246580000Y-168620000D03*
D27*
X255470000Y-171160000D03*
X245310000Y-171160000D03*
D24*
X286240000Y-176260000D03*
X292590000Y-173720000D03*
D25*
X291320000Y-166100000D03*
D26*
X288780000Y-171180000D03*
D25*
X284970000Y-168640000D03*
D27*
X293860000Y-171180000D03*
X283700000Y-171180000D03*
X370830000Y-152490000D03*
X380990000Y-152490000D03*
D25*
X372100000Y-149950000D03*
D26*
X375910000Y-152490000D03*
D25*
X378450000Y-147410000D03*
D24*
X379720000Y-155030000D03*
X373370000Y-157570000D03*
X69320000Y-157080000D03*
X75670000Y-154540000D03*
D25*
X74400000Y-146920000D03*
D26*
X71860000Y-152000000D03*
D25*
X68050000Y-149460000D03*
D27*
X76940000Y-152000000D03*
X66780000Y-152000000D03*
D24*
X107720000Y-157080000D03*
X114070000Y-154540000D03*
D25*
X112800000Y-146920000D03*
D26*
X110260000Y-152000000D03*
D25*
X106450000Y-149460000D03*
D27*
X115340000Y-152000000D03*
X105180000Y-152000000D03*
X143570000Y-152000000D03*
X153730000Y-152000000D03*
D25*
X144840000Y-149460000D03*
D26*
X148650000Y-152000000D03*
D25*
X151190000Y-146920000D03*
D24*
X152460000Y-154540000D03*
X146110000Y-157080000D03*
D27*
X181950000Y-152000000D03*
X192110000Y-152000000D03*
D25*
X183220000Y-149460000D03*
D26*
X187030000Y-152000000D03*
D25*
X189570000Y-146920000D03*
D24*
X190840000Y-154540000D03*
X184490000Y-157080000D03*
X222880000Y-157080000D03*
X229230000Y-154540000D03*
D25*
X227960000Y-146920000D03*
D26*
X225420000Y-152000000D03*
D25*
X221610000Y-149460000D03*
D27*
X230500000Y-152000000D03*
X220340000Y-152000000D03*
X258740000Y-152000000D03*
X268900000Y-152000000D03*
D25*
X260010000Y-149460000D03*
D26*
X263820000Y-152000000D03*
D25*
X266360000Y-146920000D03*
D24*
X267630000Y-154540000D03*
X261280000Y-157080000D03*
D27*
X297090000Y-152010000D03*
X307250000Y-152010000D03*
D25*
X298360000Y-149470000D03*
D26*
X302170000Y-152010000D03*
D25*
X304710000Y-146930000D03*
D24*
X305980000Y-154550000D03*
X299630000Y-157090000D03*
X373370000Y-176880000D03*
X379720000Y-174340000D03*
D25*
X378450000Y-166720000D03*
D26*
X375910000Y-171800000D03*
D25*
X372100000Y-169260000D03*
D27*
X380990000Y-171800000D03*
X370830000Y-171800000D03*
X76380000Y-132800000D03*
X86540000Y-132800000D03*
D25*
X77650000Y-130260000D03*
D26*
X81460000Y-132800000D03*
D25*
X84000000Y-127720000D03*
D24*
X85270000Y-135340000D03*
X78920000Y-137880000D03*
D27*
X114750000Y-132800000D03*
X124910000Y-132800000D03*
D25*
X116020000Y-130260000D03*
D26*
X119830000Y-132800000D03*
D25*
X122370000Y-127720000D03*
D24*
X123640000Y-135340000D03*
X117290000Y-137880000D03*
X155670000Y-137880000D03*
X162020000Y-135340000D03*
D25*
X160750000Y-127720000D03*
D26*
X158210000Y-132800000D03*
D25*
X154400000Y-130260000D03*
D27*
X163290000Y-132800000D03*
X153130000Y-132800000D03*
D24*
X194040000Y-137880000D03*
X200390000Y-135340000D03*
D25*
X199120000Y-127720000D03*
D26*
X196580000Y-132800000D03*
D25*
X192770000Y-130260000D03*
D27*
X201660000Y-132800000D03*
X191500000Y-132800000D03*
D24*
X232410000Y-137880000D03*
X238760000Y-135340000D03*
D25*
X237490000Y-127720000D03*
D26*
X234950000Y-132800000D03*
D25*
X231140000Y-130260000D03*
D27*
X240030000Y-132800000D03*
X229870000Y-132800000D03*
X268260000Y-132800000D03*
X278420000Y-132800000D03*
D25*
X269530000Y-130260000D03*
D26*
X273340000Y-132800000D03*
D25*
X275880000Y-127720000D03*
D24*
X277150000Y-135340000D03*
X270800000Y-137880000D03*
D27*
X306640000Y-132800000D03*
X316800000Y-132800000D03*
D25*
X307910000Y-130260000D03*
D26*
X311720000Y-132800000D03*
D25*
X314260000Y-127720000D03*
D24*
X315530000Y-135340000D03*
X309180000Y-137880000D03*
X373370000Y-196160000D03*
X379720000Y-193620000D03*
D25*
X378450000Y-186000000D03*
D26*
X375910000Y-191080000D03*
D25*
X372100000Y-188540000D03*
D27*
X380990000Y-191080000D03*
X370830000Y-191080000D03*
X53450000Y-171160000D03*
X63610000Y-171160000D03*
D25*
X54720000Y-168620000D03*
D26*
X58530000Y-171160000D03*
D25*
X61070000Y-166080000D03*
D24*
X62340000Y-173700000D03*
X55990000Y-176240000D03*
X323600000Y-157080000D03*
X329950000Y-154540000D03*
D25*
X328680000Y-146920000D03*
D26*
X326140000Y-152000000D03*
D25*
X322330000Y-149460000D03*
D27*
X331220000Y-152000000D03*
X321060000Y-152000000D03*
M02*
