G04 #@! TF.GenerationSoftware,KiCad,Pcbnew,(5.1.5)-2*
G04 #@! TF.CreationDate,2020-02-23T11:28:55+01:00*
G04 #@! TF.ProjectId,VIC20_kbd,56494332-305f-46b6-9264-2e6b69636164,rev?*
G04 #@! TF.SameCoordinates,Original*
G04 #@! TF.FileFunction,Soldermask,Top*
G04 #@! TF.FilePolarity,Negative*
%FSLAX46Y46*%
G04 Gerber Fmt 4.6, Leading zero omitted, Abs format (unit mm)*
G04 Created by KiCad (PCBNEW (5.1.5)-2) date 2020-02-23 11:28:55*
%MOMM*%
%LPD*%
G04 APERTURE LIST*
%ADD10R,0.900000X1.300000*%
%ADD11R,1.200000X1.150000*%
%ADD12R,1.150000X1.200000*%
%ADD13C,2.600000*%
%ADD14C,4.400000*%
%ADD15C,2.100000*%
%ADD16R,2.100000X2.100000*%
%ADD17O,2.100000X2.100000*%
%ADD18C,3.450000*%
%ADD19C,3.900000*%
%ADD20C,3.600000*%
%ADD21C,2.200000*%
%ADD22R,2.200000X2.200000*%
%ADD23R,1.200000X1.300000*%
%ADD24R,1.300000X0.900000*%
%ADD25R,1.950000X1.000000*%
G04 APERTURE END LIST*
D10*
X6910000Y-134640000D03*
X5410000Y-134640000D03*
D11*
X9200000Y-134690000D03*
X10700000Y-134690000D03*
D12*
X15410000Y-135400000D03*
X15410000Y-136900000D03*
D13*
X333950000Y-118580000D03*
X327600000Y-121120000D03*
D14*
X331410000Y-123660000D03*
D15*
X326330000Y-123660000D03*
X336490000Y-123660000D03*
D13*
X20310000Y-60300000D03*
X13960000Y-62840000D03*
D14*
X17770000Y-65380000D03*
D15*
X12690000Y-65380000D03*
X22850000Y-65380000D03*
D16*
X197870000Y-46440000D03*
D17*
X195330000Y-46440000D03*
X192790000Y-46440000D03*
X190250000Y-46440000D03*
X187710000Y-46440000D03*
X185170000Y-46440000D03*
X182630000Y-46440000D03*
X180090000Y-46440000D03*
X177550000Y-46440000D03*
X175010000Y-46440000D03*
X172470000Y-46440000D03*
X169930000Y-46440000D03*
X167390000Y-46440000D03*
X164850000Y-46440000D03*
X162310000Y-46440000D03*
X159770000Y-46440000D03*
X157230000Y-46440000D03*
X154690000Y-46440000D03*
X152150000Y-46440000D03*
X149610000Y-46440000D03*
D13*
X58700000Y-60300000D03*
X52350000Y-62840000D03*
D14*
X56160000Y-65380000D03*
D15*
X51080000Y-65380000D03*
X61240000Y-65380000D03*
D13*
X97060000Y-60300000D03*
X90710000Y-62840000D03*
D14*
X94520000Y-65380000D03*
D15*
X89440000Y-65380000D03*
X99600000Y-65380000D03*
D13*
X135420000Y-60300000D03*
X129070000Y-62840000D03*
D14*
X132880000Y-65380000D03*
D15*
X127800000Y-65380000D03*
X137960000Y-65380000D03*
D13*
X173820000Y-60300000D03*
X167470000Y-62840000D03*
D14*
X171280000Y-65380000D03*
D15*
X166200000Y-65380000D03*
X176360000Y-65380000D03*
D13*
X212190000Y-60300000D03*
X205840000Y-62840000D03*
D14*
X209650000Y-65380000D03*
D15*
X204570000Y-65380000D03*
X214730000Y-65380000D03*
D13*
X250570000Y-60300000D03*
X244220000Y-62840000D03*
D14*
X248030000Y-65380000D03*
D15*
X242950000Y-65380000D03*
X253110000Y-65380000D03*
D13*
X288950000Y-60300000D03*
X282600000Y-62840000D03*
D14*
X286410000Y-65380000D03*
D15*
X281330000Y-65380000D03*
X291490000Y-65380000D03*
D13*
X1170000Y-60300000D03*
X-5180000Y-62840000D03*
D14*
X-1370000Y-65380000D03*
D15*
X-6450000Y-65380000D03*
X3710000Y-65380000D03*
D13*
X49100000Y-79500000D03*
X42750000Y-82040000D03*
D14*
X46560000Y-84580000D03*
D15*
X41480000Y-84580000D03*
X51640000Y-84580000D03*
D13*
X87500000Y-79500000D03*
X81150000Y-82040000D03*
D14*
X84960000Y-84580000D03*
D15*
X79880000Y-84580000D03*
X90040000Y-84580000D03*
D13*
X125890000Y-79500000D03*
X119540000Y-82040000D03*
D14*
X123350000Y-84580000D03*
D15*
X118270000Y-84580000D03*
X128430000Y-84580000D03*
D13*
X164250000Y-79500000D03*
X157900000Y-82040000D03*
D14*
X161710000Y-84580000D03*
D15*
X156630000Y-84580000D03*
X166790000Y-84580000D03*
D13*
X202660000Y-79500000D03*
X196310000Y-82040000D03*
D14*
X200120000Y-84580000D03*
D15*
X195040000Y-84580000D03*
X205200000Y-84580000D03*
D13*
X241070000Y-79510000D03*
X234720000Y-82050000D03*
D14*
X238530000Y-84590000D03*
D15*
X233450000Y-84590000D03*
X243610000Y-84590000D03*
D13*
X275530000Y-98660000D03*
X269180000Y-101200000D03*
D14*
X272990000Y-103740000D03*
D15*
X267910000Y-103740000D03*
X278070000Y-103740000D03*
D14*
X284890000Y-111980000D03*
X261090000Y-111980000D03*
D18*
X261090000Y-96740000D03*
X284890000Y-96740000D03*
D13*
X5940000Y-79500000D03*
X-410000Y-82040000D03*
D14*
X3400000Y-84580000D03*
D15*
X-1680000Y-84580000D03*
X8480000Y-84580000D03*
D13*
X35770000Y-98680000D03*
X29420000Y-101220000D03*
D14*
X33230000Y-103760000D03*
D15*
X28150000Y-103760000D03*
X38310000Y-103760000D03*
D13*
X74130000Y-98660000D03*
X67780000Y-101200000D03*
D14*
X71590000Y-103740000D03*
D15*
X66510000Y-103740000D03*
X76670000Y-103740000D03*
D13*
X112520000Y-98660000D03*
X106170000Y-101200000D03*
D14*
X109980000Y-103740000D03*
D15*
X104900000Y-103740000D03*
X115060000Y-103740000D03*
D13*
X150900000Y-98660000D03*
X144550000Y-101200000D03*
D14*
X148360000Y-103740000D03*
D15*
X143280000Y-103740000D03*
X153440000Y-103740000D03*
D13*
X189270000Y-98660000D03*
X182920000Y-101200000D03*
D14*
X186730000Y-103740000D03*
D15*
X181650000Y-103740000D03*
X191810000Y-103740000D03*
D13*
X227630000Y-98660000D03*
X221280000Y-101200000D03*
D14*
X225090000Y-103740000D03*
D15*
X220010000Y-103740000D03*
X230170000Y-103740000D03*
D13*
X285150000Y-117870000D03*
X278800000Y-120410000D03*
D14*
X282610000Y-122950000D03*
D15*
X277530000Y-122950000D03*
X287690000Y-122950000D03*
D13*
X-2630000Y-98680000D03*
X-8980000Y-101220000D03*
D14*
X-5170000Y-103760000D03*
D15*
X-10250000Y-103760000D03*
X-90000Y-103760000D03*
D13*
X21310000Y-117870000D03*
X14960000Y-120410000D03*
D14*
X18770000Y-122950000D03*
D15*
X13690000Y-122950000D03*
X23850000Y-122950000D03*
D13*
X64470000Y-117870000D03*
X58120000Y-120410000D03*
D14*
X61930000Y-122950000D03*
D15*
X56850000Y-122950000D03*
X67010000Y-122950000D03*
D13*
X102880000Y-117870000D03*
X96530000Y-120410000D03*
D14*
X100340000Y-122950000D03*
D15*
X95260000Y-122950000D03*
X105420000Y-122950000D03*
D13*
X141280000Y-117870000D03*
X134930000Y-120410000D03*
D14*
X138740000Y-122950000D03*
D15*
X133660000Y-122950000D03*
X143820000Y-122950000D03*
D13*
X179680000Y-117870000D03*
X173330000Y-120410000D03*
D14*
X177140000Y-122950000D03*
D15*
X172060000Y-122950000D03*
X182220000Y-122950000D03*
D13*
X218070000Y-117870000D03*
X211720000Y-120410000D03*
D14*
X215530000Y-122950000D03*
D15*
X210450000Y-122950000D03*
X220610000Y-122950000D03*
D13*
X265970000Y-117870000D03*
X259620000Y-120410000D03*
D14*
X263430000Y-122950000D03*
D15*
X258350000Y-122950000D03*
X268510000Y-122950000D03*
D13*
X126150000Y-137060000D03*
X119800000Y-139600000D03*
D14*
X123610000Y-142140000D03*
D15*
X118530000Y-142140000D03*
X128690000Y-142140000D03*
D14*
X173610000Y-150380000D03*
X73610000Y-150380000D03*
D18*
X73610000Y-135140000D03*
X173610000Y-135140000D03*
D13*
X45260000Y-117880000D03*
X38910000Y-120420000D03*
D14*
X42720000Y-122960000D03*
D15*
X37640000Y-122960000D03*
X47800000Y-122960000D03*
D13*
X83670000Y-117870000D03*
X77320000Y-120410000D03*
D14*
X81130000Y-122950000D03*
D15*
X76050000Y-122950000D03*
X86210000Y-122950000D03*
D13*
X122070000Y-117870000D03*
X115720000Y-120410000D03*
D14*
X119530000Y-122950000D03*
D15*
X114450000Y-122950000D03*
X124610000Y-122950000D03*
D13*
X160480000Y-117870000D03*
X154130000Y-120410000D03*
D14*
X157940000Y-122950000D03*
D15*
X152860000Y-122950000D03*
X163020000Y-122950000D03*
D13*
X198880000Y-117870000D03*
X192530000Y-120410000D03*
D14*
X196340000Y-122950000D03*
D15*
X191260000Y-122950000D03*
X201420000Y-122950000D03*
D13*
X242020000Y-117870000D03*
X235670000Y-120410000D03*
D14*
X239480000Y-122950000D03*
D15*
X234400000Y-122950000D03*
X244560000Y-122950000D03*
D13*
X333950000Y-60710000D03*
X327600000Y-63250000D03*
D14*
X331410000Y-65790000D03*
D15*
X326330000Y-65790000D03*
X336490000Y-65790000D03*
D13*
X-2640000Y-117880000D03*
X-8990000Y-120420000D03*
D14*
X-5180000Y-122960000D03*
D15*
X-10260000Y-122960000D03*
X-100000Y-122960000D03*
D13*
X54970000Y-98660000D03*
X48620000Y-101200000D03*
D14*
X52430000Y-103740000D03*
D15*
X47350000Y-103740000D03*
X57510000Y-103740000D03*
D13*
X93320000Y-98660000D03*
X86970000Y-101200000D03*
D14*
X90780000Y-103740000D03*
D15*
X85700000Y-103740000D03*
X95860000Y-103740000D03*
D13*
X131700000Y-98660000D03*
X125350000Y-101200000D03*
D14*
X129160000Y-103740000D03*
D15*
X124080000Y-103740000D03*
X134240000Y-103740000D03*
D13*
X170060000Y-98660000D03*
X163710000Y-101200000D03*
D14*
X167520000Y-103740000D03*
D15*
X162440000Y-103740000D03*
X172600000Y-103740000D03*
D13*
X208430000Y-98660000D03*
X202080000Y-101200000D03*
D14*
X205890000Y-103740000D03*
D15*
X200810000Y-103740000D03*
X210970000Y-103740000D03*
D13*
X246820000Y-98680000D03*
X240470000Y-101220000D03*
D14*
X244280000Y-103760000D03*
D15*
X239200000Y-103760000D03*
X249360000Y-103760000D03*
D13*
X333950000Y-79990000D03*
X327600000Y-82530000D03*
D14*
X331410000Y-85070000D03*
D15*
X326330000Y-85070000D03*
X336490000Y-85070000D03*
D13*
X29900000Y-79500000D03*
X23550000Y-82040000D03*
D14*
X27360000Y-84580000D03*
D15*
X22280000Y-84580000D03*
X32440000Y-84580000D03*
D13*
X68300000Y-79500000D03*
X61950000Y-82040000D03*
D14*
X65760000Y-84580000D03*
D15*
X60680000Y-84580000D03*
X70840000Y-84580000D03*
D13*
X106690000Y-79500000D03*
X100340000Y-82040000D03*
D14*
X104150000Y-84580000D03*
D15*
X99070000Y-84580000D03*
X109230000Y-84580000D03*
D13*
X145070000Y-79500000D03*
X138720000Y-82040000D03*
D14*
X142530000Y-84580000D03*
D15*
X137450000Y-84580000D03*
X147610000Y-84580000D03*
D13*
X183460000Y-79500000D03*
X177110000Y-82040000D03*
D14*
X180920000Y-84580000D03*
D15*
X175840000Y-84580000D03*
X186000000Y-84580000D03*
D13*
X221860000Y-79500000D03*
X215510000Y-82040000D03*
D14*
X219320000Y-84580000D03*
D15*
X214240000Y-84580000D03*
X224400000Y-84580000D03*
D13*
X260210000Y-79510000D03*
X253860000Y-82050000D03*
D14*
X257670000Y-84590000D03*
D15*
X252590000Y-84590000D03*
X262750000Y-84590000D03*
D13*
X333950000Y-99300000D03*
X327600000Y-101840000D03*
D14*
X331410000Y-104380000D03*
D15*
X326330000Y-104380000D03*
X336490000Y-104380000D03*
D13*
X39500000Y-60300000D03*
X33150000Y-62840000D03*
D14*
X36960000Y-65380000D03*
D15*
X31880000Y-65380000D03*
X42040000Y-65380000D03*
D13*
X77870000Y-60300000D03*
X71520000Y-62840000D03*
D14*
X75330000Y-65380000D03*
D15*
X70250000Y-65380000D03*
X80410000Y-65380000D03*
D13*
X116250000Y-60300000D03*
X109900000Y-62840000D03*
D14*
X113710000Y-65380000D03*
D15*
X108630000Y-65380000D03*
X118790000Y-65380000D03*
D13*
X154620000Y-60300000D03*
X148270000Y-62840000D03*
D14*
X152080000Y-65380000D03*
D15*
X147000000Y-65380000D03*
X157160000Y-65380000D03*
D13*
X192990000Y-60300000D03*
X186640000Y-62840000D03*
D14*
X190450000Y-65380000D03*
D15*
X185370000Y-65380000D03*
X195530000Y-65380000D03*
D13*
X231380000Y-60300000D03*
X225030000Y-62840000D03*
D14*
X228840000Y-65380000D03*
D15*
X223760000Y-65380000D03*
X233920000Y-65380000D03*
D13*
X269760000Y-60300000D03*
X263410000Y-62840000D03*
D14*
X267220000Y-65380000D03*
D15*
X262140000Y-65380000D03*
X272300000Y-65380000D03*
D13*
X16570000Y-98660000D03*
X10220000Y-101200000D03*
D14*
X14030000Y-103740000D03*
D15*
X8950000Y-103740000D03*
X19110000Y-103740000D03*
D13*
X284180000Y-79500000D03*
X277830000Y-82040000D03*
D14*
X281640000Y-84580000D03*
D15*
X276560000Y-84580000D03*
X286720000Y-84580000D03*
D19*
X148460000Y-40920000D03*
X161040000Y-40920000D03*
X173740000Y-40920000D03*
X186440000Y-40920000D03*
X199120000Y-40920000D03*
X345820000Y-57000000D03*
X345820000Y-149260000D03*
X193420000Y-134410000D03*
X52110000Y-134400000D03*
X-14660000Y-149260000D03*
X-14660000Y-57000000D03*
X304250000Y-63760000D03*
D13*
X84880000Y-73990000D03*
D19*
X190660000Y-93520000D03*
X113680000Y-93520000D03*
X93180000Y-149260000D03*
X145150000Y-149260000D03*
X296870000Y-134400000D03*
D20*
X61110000Y-135150000D03*
X186110000Y-135150000D03*
D14*
X186110000Y-150380000D03*
X61110000Y-150380000D03*
D21*
X8510000Y-114070000D03*
D22*
X5970000Y-114070000D03*
D23*
X25570000Y-135010000D03*
X26520000Y-137010000D03*
X24620000Y-137010000D03*
D24*
X19730000Y-135400000D03*
X19730000Y-136900000D03*
D10*
X21600000Y-140060000D03*
X23100000Y-140060000D03*
D24*
X22120000Y-136900000D03*
X22120000Y-135400000D03*
X17480000Y-139400000D03*
X17480000Y-140900000D03*
X17390000Y-136940000D03*
X17390000Y-135440000D03*
D25*
X6270000Y-141865000D03*
X6270000Y-140595000D03*
X6270000Y-139325000D03*
X6270000Y-138055000D03*
X11670000Y-138055000D03*
X11670000Y-139325000D03*
X11670000Y-140595000D03*
X11670000Y-141865000D03*
M02*
