M48
; DRILL file {KiCad (5.1.5)-2} date 2020-03-07 20:44:33
; FORMAT={-:-/ absolute / metric / decimal}
; #@! TF.CreationDate,2020-03-07T20:44:33+01:00
; #@! TF.GenerationSoftware,Kicad,Pcbnew,(5.1.5)-2
; #@! TF.FileFunction,Plated,1,2,PTH
FMAT,2
METRIC
T1C0.400
T2C0.900
T3C1.000
T4C1.500
%
G90
G05
T1
X7.95Y-134.67
X8.82Y-137.25
X11.77Y-128.58
X12.43Y-136.71
X13.43Y-128.35
X13.69Y-130.9
X14.43Y-139.47
X14.69Y-138.48
X15.69Y-128.38
X16.17Y-139.39
X16.19Y-138.36
X16.99Y-106.0
X16.99Y-107.85
X17.36Y-133.97
X18.29Y-127.94
X19.34Y-139.4
X21.46Y-128.3
X23.02Y-138.23
X24.02Y-134.86
X176.19Y-51.69
X179.37Y-101.48
X187.68Y-55.55
X187.72Y-59.09
X199.38Y-49.4
X201.34Y-59.57
X235.65Y-88.94
X235.74Y-87.25
X236.34Y-127.97
X236.4Y-126.18
X255.57Y-59.09
X293.14Y-119.23
X293.14Y-131.45
T2
X5.97Y-114.07
X8.51Y-114.07
T3
X149.61Y-46.44
X152.15Y-46.44
X154.69Y-46.44
X157.23Y-46.44
X159.77Y-46.44
X162.31Y-46.44
X164.85Y-46.44
X167.39Y-46.44
X169.93Y-46.44
X172.47Y-46.44
X175.01Y-46.44
X177.55Y-46.44
X180.09Y-46.44
X182.63Y-46.44
X185.17Y-46.44
X187.71Y-46.44
X190.25Y-46.44
X192.79Y-46.44
X195.33Y-46.44
X197.87Y-46.44
T4
X277.83Y-82.04
X284.18Y-79.5
X282.6Y-62.84
X288.95Y-60.3
X205.84Y-62.84
X212.19Y-60.3
X67.78Y-101.2
X74.13Y-98.66
X-8.98Y-101.22
X-2.63Y-98.68
X163.71Y-101.2
X170.06Y-98.66
X138.72Y-82.04
X145.07Y-79.5
X-8.99Y-120.42
X-2.64Y-117.88
X148.27Y-62.84
X154.62Y-60.3
X129.07Y-62.84
X135.42Y-60.3
X259.62Y-120.41
X265.97Y-117.87
X211.72Y-120.41
X218.07Y-117.87
X61.95Y-82.04
X68.3Y-79.5
X327.6Y-63.25
X333.95Y-60.71
X192.53Y-120.41
X198.88Y-117.87
X109.9Y-62.84
X116.25Y-60.3
X263.41Y-62.84
X269.76Y-60.3
X52.35Y-62.84
X58.7Y-60.3
X167.47Y-62.84
X173.82Y-60.3
X327.6Y-121.12
X333.95Y-118.58
X-0.41Y-82.04
X5.94Y-79.5
X14.96Y-120.41
X21.31Y-117.87
X221.28Y-101.2
X227.63Y-98.66
X48.62Y-101.2
X54.97Y-98.66
X125.35Y-101.2
X131.7Y-98.66
X33.15Y-62.84
X39.5Y-60.3
X225.03Y-62.84
X231.38Y-60.3
X196.31Y-82.04
X202.66Y-79.5
X90.71Y-62.84
X97.06Y-60.3
X13.96Y-62.84
X20.31Y-60.3
X58.12Y-120.41
X64.47Y-117.87
X134.93Y-120.41
X141.28Y-117.87
X144.55Y-101.2
X150.9Y-98.66
X235.67Y-120.41
X242.02Y-117.87
X23.55Y-82.04
X29.9Y-79.5
X177.11Y-82.04
X183.46Y-79.5
X10.22Y-101.2
X16.57Y-98.66
X253.86Y-82.05
X260.21Y-79.51
X157.9Y-82.04
X164.25Y-79.5
X81.15Y-82.04
X87.5Y-79.5
X-5.18Y-62.84
X1.17Y-60.3
X29.42Y-101.22
X35.77Y-98.68
X38.91Y-120.42
X45.26Y-117.88
X96.53Y-120.41
X102.88Y-117.87
X202.08Y-101.2
X208.43Y-98.66
X240.47Y-101.22
X246.82Y-98.68
X327.6Y-101.84
X333.95Y-99.3
X215.51Y-82.04
X221.86Y-79.5
X119.54Y-82.04
X125.89Y-79.5
X42.75Y-82.04
X49.1Y-79.5
X269.18Y-101.2
X275.53Y-98.66
X119.8Y-139.6
X126.15Y-137.06
X173.33Y-120.41
X179.68Y-117.87
X278.8Y-120.41
X285.15Y-117.87
X154.13Y-120.41
X160.48Y-117.87
X100.34Y-82.04
X106.69Y-79.5
X115.72Y-120.41
X122.07Y-117.87
X71.52Y-62.84
X77.87Y-60.3
X186.64Y-62.84
X192.99Y-60.3
X244.22Y-62.84
X250.57Y-60.3
X234.72Y-82.05
X241.07Y-79.51
X182.92Y-101.2
X189.27Y-98.66
X106.17Y-101.2
X112.52Y-98.66
X77.32Y-120.41
X83.67Y-117.87
X327.6Y-82.53
X333.95Y-79.99
X86.97Y-101.2
X93.32Y-98.66
T0
M30
