G04 #@! TF.GenerationSoftware,KiCad,Pcbnew,(5.1.5)-2*
G04 #@! TF.CreationDate,2020-03-07T20:44:29+01:00*
G04 #@! TF.ProjectId,VIC20_kbd,56494332-305f-46b6-9264-2e6b69636164,rev?*
G04 #@! TF.SameCoordinates,Original*
G04 #@! TF.FileFunction,Paste,Bot*
G04 #@! TF.FilePolarity,Positive*
%FSLAX46Y46*%
G04 Gerber Fmt 4.6, Leading zero omitted, Abs format (unit mm)*
G04 Created by KiCad (PCBNEW (5.1.5)-2) date 2020-03-07 20:44:29*
%MOMM*%
%LPD*%
G04 APERTURE LIST*
%ADD10R,0.600000X0.800000*%
G04 APERTURE END LIST*
D10*
X24120000Y-60360000D03*
X22420000Y-60360000D03*
X62570000Y-60290000D03*
X60870000Y-60290000D03*
X101010000Y-60290000D03*
X99310000Y-60290000D03*
X139380000Y-60290000D03*
X137680000Y-60290000D03*
X177710000Y-60290000D03*
X176010000Y-60290000D03*
X216030000Y-60290000D03*
X214330000Y-60290000D03*
X254360000Y-60290000D03*
X252660000Y-60290000D03*
X292730000Y-60290000D03*
X291030000Y-60290000D03*
X5000000Y-60290000D03*
X3300000Y-60290000D03*
X53000000Y-79490000D03*
X51300000Y-79490000D03*
X91450000Y-79450000D03*
X89750000Y-79450000D03*
X129740000Y-79490000D03*
X128040000Y-79490000D03*
X168070000Y-79490000D03*
X166370000Y-79490000D03*
X206510000Y-79490000D03*
X204810000Y-79490000D03*
X244990000Y-79530000D03*
X243290000Y-79530000D03*
X279430000Y-98620000D03*
X277730000Y-98620000D03*
X9880000Y-79490000D03*
X8180000Y-79490000D03*
X39630000Y-98690000D03*
X37930000Y-98690000D03*
X78000000Y-98650000D03*
X76300000Y-98650000D03*
X116330000Y-98650000D03*
X114630000Y-98650000D03*
X154810000Y-98650000D03*
X153110000Y-98650000D03*
X193170000Y-98620000D03*
X191470000Y-98620000D03*
X231500000Y-98650000D03*
X229800000Y-98650000D03*
X289070000Y-117880000D03*
X287370000Y-117880000D03*
X1260000Y-98690000D03*
X-440000Y-98690000D03*
X25180000Y-117880000D03*
X23480000Y-117880000D03*
X68290000Y-117880000D03*
X66590000Y-117880000D03*
X106710000Y-117880000D03*
X105010000Y-117880000D03*
X145100000Y-117880000D03*
X143400000Y-117880000D03*
X183490000Y-117880000D03*
X181790000Y-117880000D03*
X221960000Y-117880000D03*
X220260000Y-117880000D03*
X269820000Y-117880000D03*
X268120000Y-117880000D03*
X129970000Y-137100000D03*
X128270000Y-137100000D03*
X49040000Y-117880000D03*
X47340000Y-117880000D03*
X87490000Y-117880000D03*
X85790000Y-117880000D03*
X125910000Y-117910000D03*
X124210000Y-117910000D03*
X164380000Y-117880000D03*
X162680000Y-117880000D03*
X202710000Y-117880000D03*
X201010000Y-117880000D03*
X245900000Y-117880000D03*
X244200000Y-117880000D03*
X337920000Y-60710000D03*
X336220000Y-60710000D03*
X1240000Y-117910000D03*
X-460000Y-117910000D03*
X58870000Y-98650000D03*
X57170000Y-98650000D03*
X97240000Y-98650000D03*
X95540000Y-98650000D03*
X135610000Y-98650000D03*
X133910000Y-98650000D03*
X173900000Y-98650000D03*
X172200000Y-98650000D03*
X212340000Y-98650000D03*
X210640000Y-98650000D03*
X250630000Y-98690000D03*
X248930000Y-98690000D03*
X337920000Y-79990000D03*
X336220000Y-79990000D03*
X33730000Y-79490000D03*
X32030000Y-79490000D03*
X72210000Y-79490000D03*
X70510000Y-79490000D03*
X110610000Y-79530000D03*
X108910000Y-79530000D03*
X148940000Y-79490000D03*
X147240000Y-79490000D03*
X187380000Y-79490000D03*
X185680000Y-79490000D03*
X225790000Y-79490000D03*
X224090000Y-79490000D03*
X264080000Y-79490000D03*
X262380000Y-79490000D03*
X337920000Y-99300000D03*
X336220000Y-99300000D03*
X43330000Y-60290000D03*
X41630000Y-60290000D03*
X81690000Y-60250000D03*
X79990000Y-60250000D03*
X120100000Y-60290000D03*
X118400000Y-60290000D03*
X158430000Y-60250000D03*
X156730000Y-60250000D03*
X196910000Y-60330000D03*
X195210000Y-60330000D03*
X235270000Y-60290000D03*
X233570000Y-60290000D03*
X273600000Y-60290000D03*
X271900000Y-60290000D03*
X337920000Y-118580000D03*
X336220000Y-118580000D03*
M02*
