G04 #@! TF.GenerationSoftware,KiCad,Pcbnew,(5.1.5)-2*
G04 #@! TF.CreationDate,2021-01-09T12:48:30+01:00*
G04 #@! TF.ProjectId,VIC20_kbd,56494332-305f-46b6-9264-2e6b69636164,2.0*
G04 #@! TF.SameCoordinates,Original*
G04 #@! TF.FileFunction,Soldermask,Bot*
G04 #@! TF.FilePolarity,Negative*
%FSLAX46Y46*%
G04 Gerber Fmt 4.6, Leading zero omitted, Abs format (unit mm)*
G04 Created by KiCad (PCBNEW (5.1.5)-2) date 2021-01-09 12:48:30*
%MOMM*%
%LPD*%
G04 APERTURE LIST*
%ADD10R,1.000000X1.200000*%
%ADD11R,2.100000X2.100000*%
%ADD12O,2.100000X2.100000*%
%ADD13C,3.900000*%
%ADD14C,2.600000*%
%ADD15C,3.600000*%
%ADD16C,4.400000*%
%ADD17C,2.200000*%
%ADD18R,2.200000X2.200000*%
%ADD19R,2.950000X2.900000*%
%ADD20C,3.400000*%
%ADD21C,2.686000*%
%ADD22C,4.387800*%
%ADD23C,2.101800*%
G04 APERTURE END LIST*
D10*
X68620000Y-127780000D03*
X66920000Y-127780000D03*
X107070000Y-127710000D03*
X105370000Y-127710000D03*
X145510000Y-127710000D03*
X143810000Y-127710000D03*
X183880000Y-127710000D03*
X182180000Y-127710000D03*
X222210000Y-127710000D03*
X220510000Y-127710000D03*
X260530000Y-127710000D03*
X258830000Y-127710000D03*
X298860000Y-127710000D03*
X297160000Y-127710000D03*
X337230000Y-127710000D03*
X335530000Y-127710000D03*
X49500000Y-127710000D03*
X47800000Y-127710000D03*
X97500000Y-146910000D03*
X95800000Y-146910000D03*
X135950000Y-146870000D03*
X134250000Y-146870000D03*
X174240000Y-146910000D03*
X172540000Y-146910000D03*
X212570000Y-146910000D03*
X210870000Y-146910000D03*
X251010000Y-146910000D03*
X249310000Y-146910000D03*
X289490000Y-146950000D03*
X287790000Y-146950000D03*
X323930000Y-166040000D03*
X322230000Y-166040000D03*
X54380000Y-146910000D03*
X52680000Y-146910000D03*
X84130000Y-166110000D03*
X82430000Y-166110000D03*
X122500000Y-166070000D03*
X120800000Y-166070000D03*
X160830000Y-166070000D03*
X159130000Y-166070000D03*
X199310000Y-166070000D03*
X197610000Y-166070000D03*
X237670000Y-166040000D03*
X235970000Y-166040000D03*
X276000000Y-166070000D03*
X274300000Y-166070000D03*
X333570000Y-185300000D03*
X331870000Y-185300000D03*
X45760000Y-166110000D03*
X44060000Y-166110000D03*
X69680000Y-185300000D03*
X67980000Y-185300000D03*
X112790000Y-185300000D03*
X111090000Y-185300000D03*
X151210000Y-185300000D03*
X149510000Y-185300000D03*
X189600000Y-185300000D03*
X187900000Y-185300000D03*
X227990000Y-185300000D03*
X226290000Y-185300000D03*
X266460000Y-185300000D03*
X264760000Y-185300000D03*
X314320000Y-185300000D03*
X312620000Y-185300000D03*
X174470000Y-204520000D03*
X172770000Y-204520000D03*
X93540000Y-185300000D03*
X91840000Y-185300000D03*
X131990000Y-185300000D03*
X130290000Y-185300000D03*
X170410000Y-185330000D03*
X168710000Y-185330000D03*
X208880000Y-185300000D03*
X207180000Y-185300000D03*
X247210000Y-185300000D03*
X245510000Y-185300000D03*
X290400000Y-185300000D03*
X288700000Y-185300000D03*
X382420000Y-128130000D03*
X380720000Y-128130000D03*
X45740000Y-185330000D03*
X44040000Y-185330000D03*
X103370000Y-166070000D03*
X101670000Y-166070000D03*
X141740000Y-166070000D03*
X140040000Y-166070000D03*
X180110000Y-166070000D03*
X178410000Y-166070000D03*
X218400000Y-166070000D03*
X216700000Y-166070000D03*
X256840000Y-166070000D03*
X255140000Y-166070000D03*
X295130000Y-166110000D03*
X293430000Y-166110000D03*
X382420000Y-147410000D03*
X380720000Y-147410000D03*
X78230000Y-146910000D03*
X76530000Y-146910000D03*
X116710000Y-146910000D03*
X115010000Y-146910000D03*
X155110000Y-146950000D03*
X153410000Y-146950000D03*
X193440000Y-146910000D03*
X191740000Y-146910000D03*
X231880000Y-146910000D03*
X230180000Y-146910000D03*
X270290000Y-146910000D03*
X268590000Y-146910000D03*
X308580000Y-146910000D03*
X306880000Y-146910000D03*
X382420000Y-166720000D03*
X380720000Y-166720000D03*
X87830000Y-127710000D03*
X86130000Y-127710000D03*
X126190000Y-127670000D03*
X124490000Y-127670000D03*
X164600000Y-127710000D03*
X162900000Y-127710000D03*
X202930000Y-127670000D03*
X201230000Y-127670000D03*
X241410000Y-127750000D03*
X239710000Y-127750000D03*
X279770000Y-127710000D03*
X278070000Y-127710000D03*
X318100000Y-127710000D03*
X316400000Y-127710000D03*
X382420000Y-186000000D03*
X380720000Y-186000000D03*
D11*
X242370000Y-113860000D03*
D12*
X239830000Y-113860000D03*
X237290000Y-113860000D03*
X234750000Y-113860000D03*
X232210000Y-113860000D03*
X229670000Y-113860000D03*
X227130000Y-113860000D03*
X224590000Y-113860000D03*
X222050000Y-113860000D03*
X219510000Y-113860000D03*
X216970000Y-113860000D03*
X214430000Y-113860000D03*
X211890000Y-113860000D03*
X209350000Y-113860000D03*
X206810000Y-113860000D03*
X204270000Y-113860000D03*
X201730000Y-113860000D03*
X199190000Y-113860000D03*
X196650000Y-113860000D03*
X194110000Y-113860000D03*
D13*
X192960000Y-108340000D03*
X205540000Y-108340000D03*
X218240000Y-108340000D03*
X230940000Y-108340000D03*
X243620000Y-108340000D03*
X390320000Y-124420000D03*
X390320000Y-216680000D03*
X237920000Y-201830000D03*
X96610000Y-201820000D03*
X29840000Y-216680000D03*
X29840000Y-124420000D03*
X348750000Y-131180000D03*
D14*
X129380000Y-141410000D03*
D13*
X235160000Y-160940000D03*
X158180000Y-160940000D03*
X137680000Y-216680000D03*
X189650000Y-216680000D03*
X341370000Y-201820000D03*
D15*
X105610000Y-202570000D03*
X230610000Y-202570000D03*
D16*
X230610000Y-217800000D03*
X105610000Y-217800000D03*
D17*
X53010000Y-181490000D03*
D18*
X50470000Y-181490000D03*
D19*
X55980000Y-137880000D03*
D20*
X59730000Y-137880000D03*
X66080000Y-135340000D03*
D21*
X64810000Y-127720000D03*
D22*
X62270000Y-132800000D03*
D21*
X58460000Y-130260000D03*
D23*
X67350000Y-132800000D03*
X57190000Y-132800000D03*
D19*
X69830000Y-135340000D03*
X108220000Y-135340000D03*
D23*
X95580000Y-132800000D03*
X105740000Y-132800000D03*
D21*
X96850000Y-130260000D03*
D22*
X100660000Y-132800000D03*
D21*
X103200000Y-127720000D03*
D20*
X104470000Y-135340000D03*
X98120000Y-137880000D03*
D19*
X94370000Y-137880000D03*
X146580000Y-135340000D03*
D23*
X133940000Y-132800000D03*
X144100000Y-132800000D03*
D21*
X135210000Y-130260000D03*
D22*
X139020000Y-132800000D03*
D21*
X141560000Y-127720000D03*
D20*
X142830000Y-135340000D03*
X136480000Y-137880000D03*
D19*
X132730000Y-137880000D03*
X171090000Y-137880000D03*
D20*
X174840000Y-137880000D03*
X181190000Y-135340000D03*
D21*
X179920000Y-127720000D03*
D22*
X177380000Y-132800000D03*
D21*
X173570000Y-130260000D03*
D23*
X182460000Y-132800000D03*
X172300000Y-132800000D03*
D19*
X184940000Y-135340000D03*
X209490000Y-137880000D03*
D20*
X213240000Y-137880000D03*
X219590000Y-135340000D03*
D21*
X218320000Y-127720000D03*
D22*
X215780000Y-132800000D03*
D21*
X211970000Y-130260000D03*
D23*
X220860000Y-132800000D03*
X210700000Y-132800000D03*
D19*
X223340000Y-135340000D03*
X261710000Y-135340000D03*
D23*
X249070000Y-132800000D03*
X259230000Y-132800000D03*
D21*
X250340000Y-130260000D03*
D22*
X254150000Y-132800000D03*
D21*
X256690000Y-127720000D03*
D20*
X257960000Y-135340000D03*
X251610000Y-137880000D03*
D19*
X247860000Y-137880000D03*
X300090000Y-135340000D03*
D23*
X287450000Y-132800000D03*
X297610000Y-132800000D03*
D21*
X288720000Y-130260000D03*
D22*
X292530000Y-132800000D03*
D21*
X295070000Y-127720000D03*
D20*
X296340000Y-135340000D03*
X289990000Y-137880000D03*
D19*
X286240000Y-137880000D03*
X324620000Y-137880000D03*
D20*
X328370000Y-137880000D03*
X334720000Y-135340000D03*
D21*
X333450000Y-127720000D03*
D22*
X330910000Y-132800000D03*
D21*
X327100000Y-130260000D03*
D23*
X335990000Y-132800000D03*
X325830000Y-132800000D03*
D19*
X338470000Y-135340000D03*
X50690000Y-135340000D03*
D23*
X38050000Y-132800000D03*
X48210000Y-132800000D03*
D21*
X39320000Y-130260000D03*
D22*
X43130000Y-132800000D03*
D21*
X45670000Y-127720000D03*
D20*
X46940000Y-135340000D03*
X40590000Y-137880000D03*
D19*
X36840000Y-137880000D03*
X98620000Y-154540000D03*
D23*
X85980000Y-152000000D03*
X96140000Y-152000000D03*
D21*
X87250000Y-149460000D03*
D22*
X91060000Y-152000000D03*
D21*
X93600000Y-146920000D03*
D20*
X94870000Y-154540000D03*
X88520000Y-157080000D03*
D19*
X84770000Y-157080000D03*
X137020000Y-154540000D03*
D23*
X124380000Y-152000000D03*
X134540000Y-152000000D03*
D21*
X125650000Y-149460000D03*
D22*
X129460000Y-152000000D03*
D21*
X132000000Y-146920000D03*
D20*
X133270000Y-154540000D03*
X126920000Y-157080000D03*
D19*
X123170000Y-157080000D03*
X161560000Y-157080000D03*
D20*
X165310000Y-157080000D03*
X171660000Y-154540000D03*
D21*
X170390000Y-146920000D03*
D22*
X167850000Y-152000000D03*
D21*
X164040000Y-149460000D03*
D23*
X172930000Y-152000000D03*
X162770000Y-152000000D03*
D19*
X175410000Y-154540000D03*
X199920000Y-157080000D03*
D20*
X203670000Y-157080000D03*
X210020000Y-154540000D03*
D21*
X208750000Y-146920000D03*
D22*
X206210000Y-152000000D03*
D21*
X202400000Y-149460000D03*
D23*
X211290000Y-152000000D03*
X201130000Y-152000000D03*
D19*
X213770000Y-154540000D03*
X252180000Y-154540000D03*
D23*
X239540000Y-152000000D03*
X249700000Y-152000000D03*
D21*
X240810000Y-149460000D03*
D22*
X244620000Y-152000000D03*
D21*
X247160000Y-146920000D03*
D20*
X248430000Y-154540000D03*
X242080000Y-157080000D03*
D19*
X238330000Y-157080000D03*
X290590000Y-154550000D03*
D23*
X277950000Y-152010000D03*
X288110000Y-152010000D03*
D21*
X279220000Y-149470000D03*
D22*
X283030000Y-152010000D03*
D21*
X285570000Y-146930000D03*
D20*
X286840000Y-154550000D03*
X280490000Y-157090000D03*
D19*
X276740000Y-157090000D03*
X311200000Y-176240000D03*
D20*
X314950000Y-176240000D03*
X321300000Y-173700000D03*
D21*
X320030000Y-166080000D03*
D22*
X317490000Y-171160000D03*
D21*
X313680000Y-168620000D03*
D23*
X322570000Y-171160000D03*
X312410000Y-171160000D03*
D19*
X325050000Y-173700000D03*
X55460000Y-154540000D03*
D23*
X42820000Y-152000000D03*
X52980000Y-152000000D03*
D21*
X44090000Y-149460000D03*
D22*
X47900000Y-152000000D03*
D21*
X50440000Y-146920000D03*
D20*
X51710000Y-154540000D03*
X45360000Y-157080000D03*
D19*
X41610000Y-157080000D03*
X85290000Y-173720000D03*
D23*
X72650000Y-171180000D03*
X82810000Y-171180000D03*
D21*
X73920000Y-168640000D03*
D22*
X77730000Y-171180000D03*
D21*
X80270000Y-166100000D03*
D20*
X81540000Y-173720000D03*
X75190000Y-176260000D03*
D19*
X71440000Y-176260000D03*
X109800000Y-176240000D03*
D20*
X113550000Y-176240000D03*
X119900000Y-173700000D03*
D21*
X118630000Y-166080000D03*
D22*
X116090000Y-171160000D03*
D21*
X112280000Y-168620000D03*
D23*
X121170000Y-171160000D03*
X111010000Y-171160000D03*
D19*
X123650000Y-173700000D03*
X162040000Y-173700000D03*
D23*
X149400000Y-171160000D03*
X159560000Y-171160000D03*
D21*
X150670000Y-168620000D03*
D22*
X154480000Y-171160000D03*
D21*
X157020000Y-166080000D03*
D20*
X158290000Y-173700000D03*
X151940000Y-176240000D03*
D19*
X148190000Y-176240000D03*
X200420000Y-173700000D03*
D23*
X187780000Y-171160000D03*
X197940000Y-171160000D03*
D21*
X189050000Y-168620000D03*
D22*
X192860000Y-171160000D03*
D21*
X195400000Y-166080000D03*
D20*
X196670000Y-173700000D03*
X190320000Y-176240000D03*
D19*
X186570000Y-176240000D03*
X224940000Y-176240000D03*
D20*
X228690000Y-176240000D03*
X235040000Y-173700000D03*
D21*
X233770000Y-166080000D03*
D22*
X231230000Y-171160000D03*
D21*
X227420000Y-168620000D03*
D23*
X236310000Y-171160000D03*
X226150000Y-171160000D03*
D19*
X238790000Y-173700000D03*
X263300000Y-176240000D03*
D20*
X267050000Y-176240000D03*
X273400000Y-173700000D03*
D21*
X272130000Y-166080000D03*
D22*
X269590000Y-171160000D03*
D21*
X265780000Y-168620000D03*
D23*
X274670000Y-171160000D03*
X264510000Y-171160000D03*
D19*
X277150000Y-173700000D03*
X334670000Y-192910000D03*
D23*
X322030000Y-190370000D03*
X332190000Y-190370000D03*
D21*
X323300000Y-187830000D03*
D22*
X327110000Y-190370000D03*
D21*
X329650000Y-185290000D03*
D20*
X330920000Y-192910000D03*
X324570000Y-195450000D03*
D19*
X320820000Y-195450000D03*
X33040000Y-176260000D03*
D20*
X36790000Y-176260000D03*
X43140000Y-173720000D03*
D21*
X41870000Y-166100000D03*
D22*
X39330000Y-171180000D03*
D21*
X35520000Y-168640000D03*
D23*
X44410000Y-171180000D03*
X34250000Y-171180000D03*
D19*
X46890000Y-173720000D03*
X56980000Y-195450000D03*
D20*
X60730000Y-195450000D03*
X67080000Y-192910000D03*
D21*
X65810000Y-185290000D03*
D22*
X63270000Y-190370000D03*
D21*
X59460000Y-187830000D03*
D23*
X68350000Y-190370000D03*
X58190000Y-190370000D03*
D19*
X70830000Y-192910000D03*
X113990000Y-192910000D03*
D23*
X101350000Y-190370000D03*
X111510000Y-190370000D03*
D21*
X102620000Y-187830000D03*
D22*
X106430000Y-190370000D03*
D21*
X108970000Y-185290000D03*
D20*
X110240000Y-192910000D03*
X103890000Y-195450000D03*
D19*
X100140000Y-195450000D03*
X152400000Y-192910000D03*
D23*
X139760000Y-190370000D03*
X149920000Y-190370000D03*
D21*
X141030000Y-187830000D03*
D22*
X144840000Y-190370000D03*
D21*
X147380000Y-185290000D03*
D20*
X148650000Y-192910000D03*
X142300000Y-195450000D03*
D19*
X138550000Y-195450000D03*
X176950000Y-195450000D03*
D20*
X180700000Y-195450000D03*
X187050000Y-192910000D03*
D21*
X185780000Y-185290000D03*
D22*
X183240000Y-190370000D03*
D21*
X179430000Y-187830000D03*
D23*
X188320000Y-190370000D03*
X178160000Y-190370000D03*
D19*
X190800000Y-192910000D03*
X215350000Y-195450000D03*
D20*
X219100000Y-195450000D03*
X225450000Y-192910000D03*
D21*
X224180000Y-185290000D03*
D22*
X221640000Y-190370000D03*
D21*
X217830000Y-187830000D03*
D23*
X226720000Y-190370000D03*
X216560000Y-190370000D03*
D19*
X229200000Y-192910000D03*
X253740000Y-195450000D03*
D20*
X257490000Y-195450000D03*
X263840000Y-192910000D03*
D21*
X262570000Y-185290000D03*
D22*
X260030000Y-190370000D03*
D21*
X256220000Y-187830000D03*
D23*
X265110000Y-190370000D03*
X254950000Y-190370000D03*
D19*
X267590000Y-192910000D03*
X315490000Y-192910000D03*
D23*
X302850000Y-190370000D03*
X313010000Y-190370000D03*
D21*
X304120000Y-187830000D03*
D22*
X307930000Y-190370000D03*
D21*
X310470000Y-185290000D03*
D20*
X311740000Y-192910000D03*
X305390000Y-195450000D03*
D19*
X301640000Y-195450000D03*
X161820000Y-214640000D03*
D20*
X165570000Y-214640000D03*
X171920000Y-212100000D03*
D21*
X170650000Y-204480000D03*
D22*
X168110000Y-209560000D03*
D21*
X164300000Y-207020000D03*
D23*
X173190000Y-209560000D03*
X163030000Y-209560000D03*
D19*
X175670000Y-212100000D03*
X80930000Y-195460000D03*
D20*
X84680000Y-195460000D03*
X91030000Y-192920000D03*
D21*
X89760000Y-185300000D03*
D22*
X87220000Y-190380000D03*
D21*
X83410000Y-187840000D03*
D23*
X92300000Y-190380000D03*
X82140000Y-190380000D03*
D19*
X94780000Y-192920000D03*
X133190000Y-192910000D03*
D23*
X120550000Y-190370000D03*
X130710000Y-190370000D03*
D21*
X121820000Y-187830000D03*
D22*
X125630000Y-190370000D03*
D21*
X128170000Y-185290000D03*
D20*
X129440000Y-192910000D03*
X123090000Y-195450000D03*
D19*
X119340000Y-195450000D03*
X157740000Y-195450000D03*
D20*
X161490000Y-195450000D03*
X167840000Y-192910000D03*
D21*
X166570000Y-185290000D03*
D22*
X164030000Y-190370000D03*
D21*
X160220000Y-187830000D03*
D23*
X169110000Y-190370000D03*
X158950000Y-190370000D03*
D19*
X171590000Y-192910000D03*
X210000000Y-192910000D03*
D23*
X197360000Y-190370000D03*
X207520000Y-190370000D03*
D21*
X198630000Y-187830000D03*
D22*
X202440000Y-190370000D03*
D21*
X204980000Y-185290000D03*
D20*
X206250000Y-192910000D03*
X199900000Y-195450000D03*
D19*
X196150000Y-195450000D03*
X248400000Y-192910000D03*
D23*
X235760000Y-190370000D03*
X245920000Y-190370000D03*
D21*
X237030000Y-187830000D03*
D22*
X240840000Y-190370000D03*
D21*
X243380000Y-185290000D03*
D20*
X244650000Y-192910000D03*
X238300000Y-195450000D03*
D19*
X234550000Y-195450000D03*
X277690000Y-195450000D03*
D20*
X281440000Y-195450000D03*
X287790000Y-192910000D03*
D21*
X286520000Y-185290000D03*
D22*
X283980000Y-190370000D03*
D21*
X280170000Y-187830000D03*
D23*
X289060000Y-190370000D03*
X278900000Y-190370000D03*
D19*
X291540000Y-192910000D03*
X383470000Y-135750000D03*
D23*
X370830000Y-133210000D03*
X380990000Y-133210000D03*
D21*
X372100000Y-130670000D03*
D22*
X375910000Y-133210000D03*
D21*
X378450000Y-128130000D03*
D20*
X379720000Y-135750000D03*
X373370000Y-138290000D03*
D19*
X369620000Y-138290000D03*
X33030000Y-195460000D03*
D20*
X36780000Y-195460000D03*
X43130000Y-192920000D03*
D21*
X41860000Y-185300000D03*
D22*
X39320000Y-190380000D03*
D21*
X35510000Y-187840000D03*
D23*
X44400000Y-190380000D03*
X34240000Y-190380000D03*
D19*
X46880000Y-192920000D03*
X90640000Y-176240000D03*
D20*
X94390000Y-176240000D03*
X100740000Y-173700000D03*
D21*
X99470000Y-166080000D03*
D22*
X96930000Y-171160000D03*
D21*
X93120000Y-168620000D03*
D23*
X102010000Y-171160000D03*
X91850000Y-171160000D03*
D19*
X104490000Y-173700000D03*
X142840000Y-173700000D03*
D23*
X130200000Y-171160000D03*
X140360000Y-171160000D03*
D21*
X131470000Y-168620000D03*
D22*
X135280000Y-171160000D03*
D21*
X137820000Y-166080000D03*
D20*
X139090000Y-173700000D03*
X132740000Y-176240000D03*
D19*
X128990000Y-176240000D03*
X167370000Y-176240000D03*
D20*
X171120000Y-176240000D03*
X177470000Y-173700000D03*
D21*
X176200000Y-166080000D03*
D22*
X173660000Y-171160000D03*
D21*
X169850000Y-168620000D03*
D23*
X178740000Y-171160000D03*
X168580000Y-171160000D03*
D19*
X181220000Y-173700000D03*
X219580000Y-173700000D03*
D23*
X206940000Y-171160000D03*
X217100000Y-171160000D03*
D21*
X208210000Y-168620000D03*
D22*
X212020000Y-171160000D03*
D21*
X214560000Y-166080000D03*
D20*
X215830000Y-173700000D03*
X209480000Y-176240000D03*
D19*
X205730000Y-176240000D03*
X244100000Y-176240000D03*
D20*
X247850000Y-176240000D03*
X254200000Y-173700000D03*
D21*
X252930000Y-166080000D03*
D22*
X250390000Y-171160000D03*
D21*
X246580000Y-168620000D03*
D23*
X255470000Y-171160000D03*
X245310000Y-171160000D03*
D19*
X257950000Y-173700000D03*
X282490000Y-176260000D03*
D20*
X286240000Y-176260000D03*
X292590000Y-173720000D03*
D21*
X291320000Y-166100000D03*
D22*
X288780000Y-171180000D03*
D21*
X284970000Y-168640000D03*
D23*
X293860000Y-171180000D03*
X283700000Y-171180000D03*
D19*
X296340000Y-173720000D03*
X383470000Y-155030000D03*
D23*
X370830000Y-152490000D03*
X380990000Y-152490000D03*
D21*
X372100000Y-149950000D03*
D22*
X375910000Y-152490000D03*
D21*
X378450000Y-147410000D03*
D20*
X379720000Y-155030000D03*
X373370000Y-157570000D03*
D19*
X369620000Y-157570000D03*
X65570000Y-157080000D03*
D20*
X69320000Y-157080000D03*
X75670000Y-154540000D03*
D21*
X74400000Y-146920000D03*
D22*
X71860000Y-152000000D03*
D21*
X68050000Y-149460000D03*
D23*
X76940000Y-152000000D03*
X66780000Y-152000000D03*
D19*
X79420000Y-154540000D03*
X103970000Y-157080000D03*
D20*
X107720000Y-157080000D03*
X114070000Y-154540000D03*
D21*
X112800000Y-146920000D03*
D22*
X110260000Y-152000000D03*
D21*
X106450000Y-149460000D03*
D23*
X115340000Y-152000000D03*
X105180000Y-152000000D03*
D19*
X117820000Y-154540000D03*
X156210000Y-154540000D03*
D23*
X143570000Y-152000000D03*
X153730000Y-152000000D03*
D21*
X144840000Y-149460000D03*
D22*
X148650000Y-152000000D03*
D21*
X151190000Y-146920000D03*
D20*
X152460000Y-154540000D03*
X146110000Y-157080000D03*
D19*
X142360000Y-157080000D03*
X194590000Y-154540000D03*
D23*
X181950000Y-152000000D03*
X192110000Y-152000000D03*
D21*
X183220000Y-149460000D03*
D22*
X187030000Y-152000000D03*
D21*
X189570000Y-146920000D03*
D20*
X190840000Y-154540000D03*
X184490000Y-157080000D03*
D19*
X180740000Y-157080000D03*
X219130000Y-157080000D03*
D20*
X222880000Y-157080000D03*
X229230000Y-154540000D03*
D21*
X227960000Y-146920000D03*
D22*
X225420000Y-152000000D03*
D21*
X221610000Y-149460000D03*
D23*
X230500000Y-152000000D03*
X220340000Y-152000000D03*
D19*
X232980000Y-154540000D03*
X271380000Y-154540000D03*
D23*
X258740000Y-152000000D03*
X268900000Y-152000000D03*
D21*
X260010000Y-149460000D03*
D22*
X263820000Y-152000000D03*
D21*
X266360000Y-146920000D03*
D20*
X267630000Y-154540000D03*
X261280000Y-157080000D03*
D19*
X257530000Y-157080000D03*
X309730000Y-154550000D03*
D23*
X297090000Y-152010000D03*
X307250000Y-152010000D03*
D21*
X298360000Y-149470000D03*
D22*
X302170000Y-152010000D03*
D21*
X304710000Y-146930000D03*
D20*
X305980000Y-154550000D03*
X299630000Y-157090000D03*
D19*
X295880000Y-157090000D03*
X369620000Y-176880000D03*
D20*
X373370000Y-176880000D03*
X379720000Y-174340000D03*
D21*
X378450000Y-166720000D03*
D22*
X375910000Y-171800000D03*
D21*
X372100000Y-169260000D03*
D23*
X380990000Y-171800000D03*
X370830000Y-171800000D03*
D19*
X383470000Y-174340000D03*
X89020000Y-135340000D03*
D23*
X76380000Y-132800000D03*
X86540000Y-132800000D03*
D21*
X77650000Y-130260000D03*
D22*
X81460000Y-132800000D03*
D21*
X84000000Y-127720000D03*
D20*
X85270000Y-135340000D03*
X78920000Y-137880000D03*
D19*
X75170000Y-137880000D03*
X127390000Y-135340000D03*
D23*
X114750000Y-132800000D03*
X124910000Y-132800000D03*
D21*
X116020000Y-130260000D03*
D22*
X119830000Y-132800000D03*
D21*
X122370000Y-127720000D03*
D20*
X123640000Y-135340000D03*
X117290000Y-137880000D03*
D19*
X113540000Y-137880000D03*
X151920000Y-137880000D03*
D20*
X155670000Y-137880000D03*
X162020000Y-135340000D03*
D21*
X160750000Y-127720000D03*
D22*
X158210000Y-132800000D03*
D21*
X154400000Y-130260000D03*
D23*
X163290000Y-132800000D03*
X153130000Y-132800000D03*
D19*
X165770000Y-135340000D03*
X190290000Y-137880000D03*
D20*
X194040000Y-137880000D03*
X200390000Y-135340000D03*
D21*
X199120000Y-127720000D03*
D22*
X196580000Y-132800000D03*
D21*
X192770000Y-130260000D03*
D23*
X201660000Y-132800000D03*
X191500000Y-132800000D03*
D19*
X204140000Y-135340000D03*
X228660000Y-137880000D03*
D20*
X232410000Y-137880000D03*
X238760000Y-135340000D03*
D21*
X237490000Y-127720000D03*
D22*
X234950000Y-132800000D03*
D21*
X231140000Y-130260000D03*
D23*
X240030000Y-132800000D03*
X229870000Y-132800000D03*
D19*
X242510000Y-135340000D03*
X280900000Y-135340000D03*
D23*
X268260000Y-132800000D03*
X278420000Y-132800000D03*
D21*
X269530000Y-130260000D03*
D22*
X273340000Y-132800000D03*
D21*
X275880000Y-127720000D03*
D20*
X277150000Y-135340000D03*
X270800000Y-137880000D03*
D19*
X267050000Y-137880000D03*
X319280000Y-135340000D03*
D23*
X306640000Y-132800000D03*
X316800000Y-132800000D03*
D21*
X307910000Y-130260000D03*
D22*
X311720000Y-132800000D03*
D21*
X314260000Y-127720000D03*
D20*
X315530000Y-135340000D03*
X309180000Y-137880000D03*
D19*
X305430000Y-137880000D03*
X369620000Y-196160000D03*
D20*
X373370000Y-196160000D03*
X379720000Y-193620000D03*
D21*
X378450000Y-186000000D03*
D22*
X375910000Y-191080000D03*
D21*
X372100000Y-188540000D03*
D23*
X380990000Y-191080000D03*
X370830000Y-191080000D03*
D19*
X383470000Y-193620000D03*
X66090000Y-173700000D03*
D23*
X53450000Y-171160000D03*
X63610000Y-171160000D03*
D21*
X54720000Y-168620000D03*
D22*
X58530000Y-171160000D03*
D21*
X61070000Y-166080000D03*
D20*
X62340000Y-173700000D03*
X55990000Y-176240000D03*
D19*
X52240000Y-176240000D03*
X319850000Y-157080000D03*
D20*
X323600000Y-157080000D03*
X329950000Y-154540000D03*
D21*
X328680000Y-146920000D03*
D22*
X326140000Y-152000000D03*
D21*
X322330000Y-149460000D03*
D23*
X331220000Y-152000000D03*
X321060000Y-152000000D03*
D19*
X333700000Y-154540000D03*
M02*
