G04 #@! TF.GenerationSoftware,KiCad,Pcbnew,(5.1.5)-2*
G04 #@! TF.CreationDate,2021-01-09T12:48:30+01:00*
G04 #@! TF.ProjectId,VIC20_kbd,56494332-305f-46b6-9264-2e6b69636164,2.0*
G04 #@! TF.SameCoordinates,Original*
G04 #@! TF.FileFunction,Legend,Bot*
G04 #@! TF.FilePolarity,Positive*
%FSLAX46Y46*%
G04 Gerber Fmt 4.6, Leading zero omitted, Abs format (unit mm)*
G04 Created by KiCad (PCBNEW (5.1.5)-2) date 2021-01-09 12:48:30*
%MOMM*%
%LPD*%
G04 APERTURE LIST*
%ADD10C,0.150000*%
%ADD11C,0.120000*%
G04 APERTURE END LIST*
D10*
X264040000Y-212720000D02*
X267020000Y-212720000D01*
X264030000Y-210710000D02*
X264020000Y-214700000D01*
X261950000Y-212640000D02*
X261950000Y-214750000D01*
X264060000Y-212720000D02*
X262040000Y-214690000D01*
X261950000Y-210690000D02*
X264060000Y-212720000D01*
X261950000Y-212670000D02*
X261950000Y-210690000D01*
X258020000Y-212670000D02*
X261950000Y-212670000D01*
D11*
X69070000Y-127210000D02*
X69070000Y-128350000D01*
X69070000Y-128350000D02*
X66970000Y-128350000D01*
X69070000Y-127210000D02*
X66970000Y-127210000D01*
X107520000Y-127140000D02*
X107520000Y-128280000D01*
X107520000Y-128280000D02*
X105420000Y-128280000D01*
X107520000Y-127140000D02*
X105420000Y-127140000D01*
X145960000Y-127140000D02*
X145960000Y-128280000D01*
X145960000Y-128280000D02*
X143860000Y-128280000D01*
X145960000Y-127140000D02*
X143860000Y-127140000D01*
X184330000Y-127140000D02*
X184330000Y-128280000D01*
X184330000Y-128280000D02*
X182230000Y-128280000D01*
X184330000Y-127140000D02*
X182230000Y-127140000D01*
X222660000Y-127140000D02*
X222660000Y-128280000D01*
X222660000Y-128280000D02*
X220560000Y-128280000D01*
X222660000Y-127140000D02*
X220560000Y-127140000D01*
X260980000Y-127140000D02*
X260980000Y-128280000D01*
X260980000Y-128280000D02*
X258880000Y-128280000D01*
X260980000Y-127140000D02*
X258880000Y-127140000D01*
X299310000Y-127140000D02*
X299310000Y-128280000D01*
X299310000Y-128280000D02*
X297210000Y-128280000D01*
X299310000Y-127140000D02*
X297210000Y-127140000D01*
X337680000Y-127140000D02*
X337680000Y-128280000D01*
X337680000Y-128280000D02*
X335580000Y-128280000D01*
X337680000Y-127140000D02*
X335580000Y-127140000D01*
X49950000Y-127140000D02*
X49950000Y-128280000D01*
X49950000Y-128280000D02*
X47850000Y-128280000D01*
X49950000Y-127140000D02*
X47850000Y-127140000D01*
X97950000Y-146340000D02*
X97950000Y-147480000D01*
X97950000Y-147480000D02*
X95850000Y-147480000D01*
X97950000Y-146340000D02*
X95850000Y-146340000D01*
X136400000Y-146300000D02*
X136400000Y-147440000D01*
X136400000Y-147440000D02*
X134300000Y-147440000D01*
X136400000Y-146300000D02*
X134300000Y-146300000D01*
X174690000Y-146340000D02*
X174690000Y-147480000D01*
X174690000Y-147480000D02*
X172590000Y-147480000D01*
X174690000Y-146340000D02*
X172590000Y-146340000D01*
X213020000Y-146340000D02*
X213020000Y-147480000D01*
X213020000Y-147480000D02*
X210920000Y-147480000D01*
X213020000Y-146340000D02*
X210920000Y-146340000D01*
X251460000Y-146340000D02*
X251460000Y-147480000D01*
X251460000Y-147480000D02*
X249360000Y-147480000D01*
X251460000Y-146340000D02*
X249360000Y-146340000D01*
X289940000Y-146380000D02*
X289940000Y-147520000D01*
X289940000Y-147520000D02*
X287840000Y-147520000D01*
X289940000Y-146380000D02*
X287840000Y-146380000D01*
X324380000Y-165470000D02*
X324380000Y-166610000D01*
X324380000Y-166610000D02*
X322280000Y-166610000D01*
X324380000Y-165470000D02*
X322280000Y-165470000D01*
X54830000Y-146340000D02*
X54830000Y-147480000D01*
X54830000Y-147480000D02*
X52730000Y-147480000D01*
X54830000Y-146340000D02*
X52730000Y-146340000D01*
X84580000Y-165540000D02*
X84580000Y-166680000D01*
X84580000Y-166680000D02*
X82480000Y-166680000D01*
X84580000Y-165540000D02*
X82480000Y-165540000D01*
X122950000Y-165500000D02*
X122950000Y-166640000D01*
X122950000Y-166640000D02*
X120850000Y-166640000D01*
X122950000Y-165500000D02*
X120850000Y-165500000D01*
X161280000Y-165500000D02*
X161280000Y-166640000D01*
X161280000Y-166640000D02*
X159180000Y-166640000D01*
X161280000Y-165500000D02*
X159180000Y-165500000D01*
X199760000Y-165500000D02*
X199760000Y-166640000D01*
X199760000Y-166640000D02*
X197660000Y-166640000D01*
X199760000Y-165500000D02*
X197660000Y-165500000D01*
X238120000Y-165470000D02*
X238120000Y-166610000D01*
X238120000Y-166610000D02*
X236020000Y-166610000D01*
X238120000Y-165470000D02*
X236020000Y-165470000D01*
X276450000Y-165500000D02*
X276450000Y-166640000D01*
X276450000Y-166640000D02*
X274350000Y-166640000D01*
X276450000Y-165500000D02*
X274350000Y-165500000D01*
X334020000Y-184730000D02*
X334020000Y-185870000D01*
X334020000Y-185870000D02*
X331920000Y-185870000D01*
X334020000Y-184730000D02*
X331920000Y-184730000D01*
X46210000Y-165540000D02*
X46210000Y-166680000D01*
X46210000Y-166680000D02*
X44110000Y-166680000D01*
X46210000Y-165540000D02*
X44110000Y-165540000D01*
X70130000Y-184730000D02*
X70130000Y-185870000D01*
X70130000Y-185870000D02*
X68030000Y-185870000D01*
X70130000Y-184730000D02*
X68030000Y-184730000D01*
X113240000Y-184730000D02*
X113240000Y-185870000D01*
X113240000Y-185870000D02*
X111140000Y-185870000D01*
X113240000Y-184730000D02*
X111140000Y-184730000D01*
X151660000Y-184730000D02*
X151660000Y-185870000D01*
X151660000Y-185870000D02*
X149560000Y-185870000D01*
X151660000Y-184730000D02*
X149560000Y-184730000D01*
X190050000Y-184730000D02*
X190050000Y-185870000D01*
X190050000Y-185870000D02*
X187950000Y-185870000D01*
X190050000Y-184730000D02*
X187950000Y-184730000D01*
X228440000Y-184730000D02*
X228440000Y-185870000D01*
X228440000Y-185870000D02*
X226340000Y-185870000D01*
X228440000Y-184730000D02*
X226340000Y-184730000D01*
X266910000Y-184730000D02*
X266910000Y-185870000D01*
X266910000Y-185870000D02*
X264810000Y-185870000D01*
X266910000Y-184730000D02*
X264810000Y-184730000D01*
X314770000Y-184730000D02*
X314770000Y-185870000D01*
X314770000Y-185870000D02*
X312670000Y-185870000D01*
X314770000Y-184730000D02*
X312670000Y-184730000D01*
X174920000Y-203950000D02*
X174920000Y-205090000D01*
X174920000Y-205090000D02*
X172820000Y-205090000D01*
X174920000Y-203950000D02*
X172820000Y-203950000D01*
X93990000Y-184730000D02*
X93990000Y-185870000D01*
X93990000Y-185870000D02*
X91890000Y-185870000D01*
X93990000Y-184730000D02*
X91890000Y-184730000D01*
X132440000Y-184730000D02*
X132440000Y-185870000D01*
X132440000Y-185870000D02*
X130340000Y-185870000D01*
X132440000Y-184730000D02*
X130340000Y-184730000D01*
X170860000Y-184760000D02*
X170860000Y-185900000D01*
X170860000Y-185900000D02*
X168760000Y-185900000D01*
X170860000Y-184760000D02*
X168760000Y-184760000D01*
X209330000Y-184730000D02*
X209330000Y-185870000D01*
X209330000Y-185870000D02*
X207230000Y-185870000D01*
X209330000Y-184730000D02*
X207230000Y-184730000D01*
X247660000Y-184730000D02*
X247660000Y-185870000D01*
X247660000Y-185870000D02*
X245560000Y-185870000D01*
X247660000Y-184730000D02*
X245560000Y-184730000D01*
X290850000Y-184730000D02*
X290850000Y-185870000D01*
X290850000Y-185870000D02*
X288750000Y-185870000D01*
X290850000Y-184730000D02*
X288750000Y-184730000D01*
X382870000Y-127560000D02*
X382870000Y-128700000D01*
X382870000Y-128700000D02*
X380770000Y-128700000D01*
X382870000Y-127560000D02*
X380770000Y-127560000D01*
X46190000Y-184760000D02*
X46190000Y-185900000D01*
X46190000Y-185900000D02*
X44090000Y-185900000D01*
X46190000Y-184760000D02*
X44090000Y-184760000D01*
X103820000Y-165500000D02*
X103820000Y-166640000D01*
X103820000Y-166640000D02*
X101720000Y-166640000D01*
X103820000Y-165500000D02*
X101720000Y-165500000D01*
X142190000Y-165500000D02*
X142190000Y-166640000D01*
X142190000Y-166640000D02*
X140090000Y-166640000D01*
X142190000Y-165500000D02*
X140090000Y-165500000D01*
X180560000Y-165500000D02*
X180560000Y-166640000D01*
X180560000Y-166640000D02*
X178460000Y-166640000D01*
X180560000Y-165500000D02*
X178460000Y-165500000D01*
X218850000Y-165500000D02*
X218850000Y-166640000D01*
X218850000Y-166640000D02*
X216750000Y-166640000D01*
X218850000Y-165500000D02*
X216750000Y-165500000D01*
X257290000Y-165500000D02*
X257290000Y-166640000D01*
X257290000Y-166640000D02*
X255190000Y-166640000D01*
X257290000Y-165500000D02*
X255190000Y-165500000D01*
X295580000Y-165540000D02*
X295580000Y-166680000D01*
X295580000Y-166680000D02*
X293480000Y-166680000D01*
X295580000Y-165540000D02*
X293480000Y-165540000D01*
X382870000Y-146840000D02*
X382870000Y-147980000D01*
X382870000Y-147980000D02*
X380770000Y-147980000D01*
X382870000Y-146840000D02*
X380770000Y-146840000D01*
X78680000Y-146340000D02*
X78680000Y-147480000D01*
X78680000Y-147480000D02*
X76580000Y-147480000D01*
X78680000Y-146340000D02*
X76580000Y-146340000D01*
X117160000Y-146340000D02*
X117160000Y-147480000D01*
X117160000Y-147480000D02*
X115060000Y-147480000D01*
X117160000Y-146340000D02*
X115060000Y-146340000D01*
X155560000Y-146380000D02*
X155560000Y-147520000D01*
X155560000Y-147520000D02*
X153460000Y-147520000D01*
X155560000Y-146380000D02*
X153460000Y-146380000D01*
X193890000Y-146340000D02*
X193890000Y-147480000D01*
X193890000Y-147480000D02*
X191790000Y-147480000D01*
X193890000Y-146340000D02*
X191790000Y-146340000D01*
X232330000Y-146340000D02*
X232330000Y-147480000D01*
X232330000Y-147480000D02*
X230230000Y-147480000D01*
X232330000Y-146340000D02*
X230230000Y-146340000D01*
X270740000Y-146340000D02*
X270740000Y-147480000D01*
X270740000Y-147480000D02*
X268640000Y-147480000D01*
X270740000Y-146340000D02*
X268640000Y-146340000D01*
X309030000Y-146340000D02*
X309030000Y-147480000D01*
X309030000Y-147480000D02*
X306930000Y-147480000D01*
X309030000Y-146340000D02*
X306930000Y-146340000D01*
X382870000Y-166150000D02*
X382870000Y-167290000D01*
X382870000Y-167290000D02*
X380770000Y-167290000D01*
X382870000Y-166150000D02*
X380770000Y-166150000D01*
X88280000Y-127140000D02*
X88280000Y-128280000D01*
X88280000Y-128280000D02*
X86180000Y-128280000D01*
X88280000Y-127140000D02*
X86180000Y-127140000D01*
X126640000Y-127100000D02*
X126640000Y-128240000D01*
X126640000Y-128240000D02*
X124540000Y-128240000D01*
X126640000Y-127100000D02*
X124540000Y-127100000D01*
X165050000Y-127140000D02*
X165050000Y-128280000D01*
X165050000Y-128280000D02*
X162950000Y-128280000D01*
X165050000Y-127140000D02*
X162950000Y-127140000D01*
X203380000Y-127100000D02*
X203380000Y-128240000D01*
X203380000Y-128240000D02*
X201280000Y-128240000D01*
X203380000Y-127100000D02*
X201280000Y-127100000D01*
X241860000Y-127180000D02*
X241860000Y-128320000D01*
X241860000Y-128320000D02*
X239760000Y-128320000D01*
X241860000Y-127180000D02*
X239760000Y-127180000D01*
X280220000Y-127140000D02*
X280220000Y-128280000D01*
X280220000Y-128280000D02*
X278120000Y-128280000D01*
X280220000Y-127140000D02*
X278120000Y-127140000D01*
X318550000Y-127140000D02*
X318550000Y-128280000D01*
X318550000Y-128280000D02*
X316450000Y-128280000D01*
X318550000Y-127140000D02*
X316450000Y-127140000D01*
X382870000Y-185430000D02*
X382870000Y-186570000D01*
X382870000Y-186570000D02*
X380770000Y-186570000D01*
X382870000Y-185430000D02*
X380770000Y-185430000D01*
D10*
X68620000Y-137245000D02*
G75*
G02X66080000Y-139785000I-2540000J0D01*
G01*
X64734162Y-133416040D02*
G75*
G02X62270000Y-135340000I-2464162J616040D01*
G01*
X68620000Y-137245000D02*
X68620000Y-136864000D01*
X68620000Y-133816000D02*
X68620000Y-133435000D01*
X68620000Y-133435000D02*
X68239000Y-133435000D01*
X66461000Y-133435000D02*
X64810000Y-133435000D01*
X62270000Y-135340000D02*
X57190000Y-135340000D01*
X57190000Y-135340000D02*
X57190000Y-136356000D01*
X57190000Y-139404000D02*
X57190000Y-139785000D01*
X57190000Y-139785000D02*
X66080000Y-139785000D01*
X95580000Y-139785000D02*
X104470000Y-139785000D01*
X95580000Y-139404000D02*
X95580000Y-139785000D01*
X95580000Y-135340000D02*
X95580000Y-136356000D01*
X100660000Y-135340000D02*
X95580000Y-135340000D01*
X104851000Y-133435000D02*
X103200000Y-133435000D01*
X107010000Y-133435000D02*
X106629000Y-133435000D01*
X107010000Y-133816000D02*
X107010000Y-133435000D01*
X107010000Y-137245000D02*
X107010000Y-136864000D01*
X103124162Y-133416040D02*
G75*
G02X100660000Y-135340000I-2464162J616040D01*
G01*
X107010000Y-137245000D02*
G75*
G02X104470000Y-139785000I-2540000J0D01*
G01*
X133940000Y-139785000D02*
X142830000Y-139785000D01*
X133940000Y-139404000D02*
X133940000Y-139785000D01*
X133940000Y-135340000D02*
X133940000Y-136356000D01*
X139020000Y-135340000D02*
X133940000Y-135340000D01*
X143211000Y-133435000D02*
X141560000Y-133435000D01*
X145370000Y-133435000D02*
X144989000Y-133435000D01*
X145370000Y-133816000D02*
X145370000Y-133435000D01*
X145370000Y-137245000D02*
X145370000Y-136864000D01*
X141484162Y-133416040D02*
G75*
G02X139020000Y-135340000I-2464162J616040D01*
G01*
X145370000Y-137245000D02*
G75*
G02X142830000Y-139785000I-2540000J0D01*
G01*
X183730000Y-137245000D02*
G75*
G02X181190000Y-139785000I-2540000J0D01*
G01*
X179844162Y-133416040D02*
G75*
G02X177380000Y-135340000I-2464162J616040D01*
G01*
X183730000Y-137245000D02*
X183730000Y-136864000D01*
X183730000Y-133816000D02*
X183730000Y-133435000D01*
X183730000Y-133435000D02*
X183349000Y-133435000D01*
X181571000Y-133435000D02*
X179920000Y-133435000D01*
X177380000Y-135340000D02*
X172300000Y-135340000D01*
X172300000Y-135340000D02*
X172300000Y-136356000D01*
X172300000Y-139404000D02*
X172300000Y-139785000D01*
X172300000Y-139785000D02*
X181190000Y-139785000D01*
X222130000Y-137245000D02*
G75*
G02X219590000Y-139785000I-2540000J0D01*
G01*
X218244162Y-133416040D02*
G75*
G02X215780000Y-135340000I-2464162J616040D01*
G01*
X222130000Y-137245000D02*
X222130000Y-136864000D01*
X222130000Y-133816000D02*
X222130000Y-133435000D01*
X222130000Y-133435000D02*
X221749000Y-133435000D01*
X219971000Y-133435000D02*
X218320000Y-133435000D01*
X215780000Y-135340000D02*
X210700000Y-135340000D01*
X210700000Y-135340000D02*
X210700000Y-136356000D01*
X210700000Y-139404000D02*
X210700000Y-139785000D01*
X210700000Y-139785000D02*
X219590000Y-139785000D01*
X249070000Y-139785000D02*
X257960000Y-139785000D01*
X249070000Y-139404000D02*
X249070000Y-139785000D01*
X249070000Y-135340000D02*
X249070000Y-136356000D01*
X254150000Y-135340000D02*
X249070000Y-135340000D01*
X258341000Y-133435000D02*
X256690000Y-133435000D01*
X260500000Y-133435000D02*
X260119000Y-133435000D01*
X260500000Y-133816000D02*
X260500000Y-133435000D01*
X260500000Y-137245000D02*
X260500000Y-136864000D01*
X256614162Y-133416040D02*
G75*
G02X254150000Y-135340000I-2464162J616040D01*
G01*
X260500000Y-137245000D02*
G75*
G02X257960000Y-139785000I-2540000J0D01*
G01*
X287450000Y-139785000D02*
X296340000Y-139785000D01*
X287450000Y-139404000D02*
X287450000Y-139785000D01*
X287450000Y-135340000D02*
X287450000Y-136356000D01*
X292530000Y-135340000D02*
X287450000Y-135340000D01*
X296721000Y-133435000D02*
X295070000Y-133435000D01*
X298880000Y-133435000D02*
X298499000Y-133435000D01*
X298880000Y-133816000D02*
X298880000Y-133435000D01*
X298880000Y-137245000D02*
X298880000Y-136864000D01*
X294994162Y-133416040D02*
G75*
G02X292530000Y-135340000I-2464162J616040D01*
G01*
X298880000Y-137245000D02*
G75*
G02X296340000Y-139785000I-2540000J0D01*
G01*
X337260000Y-137245000D02*
G75*
G02X334720000Y-139785000I-2540000J0D01*
G01*
X333374162Y-133416040D02*
G75*
G02X330910000Y-135340000I-2464162J616040D01*
G01*
X337260000Y-137245000D02*
X337260000Y-136864000D01*
X337260000Y-133816000D02*
X337260000Y-133435000D01*
X337260000Y-133435000D02*
X336879000Y-133435000D01*
X335101000Y-133435000D02*
X333450000Y-133435000D01*
X330910000Y-135340000D02*
X325830000Y-135340000D01*
X325830000Y-135340000D02*
X325830000Y-136356000D01*
X325830000Y-139404000D02*
X325830000Y-139785000D01*
X325830000Y-139785000D02*
X334720000Y-139785000D01*
X38050000Y-139785000D02*
X46940000Y-139785000D01*
X38050000Y-139404000D02*
X38050000Y-139785000D01*
X38050000Y-135340000D02*
X38050000Y-136356000D01*
X43130000Y-135340000D02*
X38050000Y-135340000D01*
X47321000Y-133435000D02*
X45670000Y-133435000D01*
X49480000Y-133435000D02*
X49099000Y-133435000D01*
X49480000Y-133816000D02*
X49480000Y-133435000D01*
X49480000Y-137245000D02*
X49480000Y-136864000D01*
X45594162Y-133416040D02*
G75*
G02X43130000Y-135340000I-2464162J616040D01*
G01*
X49480000Y-137245000D02*
G75*
G02X46940000Y-139785000I-2540000J0D01*
G01*
X85980000Y-158985000D02*
X94870000Y-158985000D01*
X85980000Y-158604000D02*
X85980000Y-158985000D01*
X85980000Y-154540000D02*
X85980000Y-155556000D01*
X91060000Y-154540000D02*
X85980000Y-154540000D01*
X95251000Y-152635000D02*
X93600000Y-152635000D01*
X97410000Y-152635000D02*
X97029000Y-152635000D01*
X97410000Y-153016000D02*
X97410000Y-152635000D01*
X97410000Y-156445000D02*
X97410000Y-156064000D01*
X93524162Y-152616040D02*
G75*
G02X91060000Y-154540000I-2464162J616040D01*
G01*
X97410000Y-156445000D02*
G75*
G02X94870000Y-158985000I-2540000J0D01*
G01*
X124380000Y-158985000D02*
X133270000Y-158985000D01*
X124380000Y-158604000D02*
X124380000Y-158985000D01*
X124380000Y-154540000D02*
X124380000Y-155556000D01*
X129460000Y-154540000D02*
X124380000Y-154540000D01*
X133651000Y-152635000D02*
X132000000Y-152635000D01*
X135810000Y-152635000D02*
X135429000Y-152635000D01*
X135810000Y-153016000D02*
X135810000Y-152635000D01*
X135810000Y-156445000D02*
X135810000Y-156064000D01*
X131924162Y-152616040D02*
G75*
G02X129460000Y-154540000I-2464162J616040D01*
G01*
X135810000Y-156445000D02*
G75*
G02X133270000Y-158985000I-2540000J0D01*
G01*
X174200000Y-156445000D02*
G75*
G02X171660000Y-158985000I-2540000J0D01*
G01*
X170314162Y-152616040D02*
G75*
G02X167850000Y-154540000I-2464162J616040D01*
G01*
X174200000Y-156445000D02*
X174200000Y-156064000D01*
X174200000Y-153016000D02*
X174200000Y-152635000D01*
X174200000Y-152635000D02*
X173819000Y-152635000D01*
X172041000Y-152635000D02*
X170390000Y-152635000D01*
X167850000Y-154540000D02*
X162770000Y-154540000D01*
X162770000Y-154540000D02*
X162770000Y-155556000D01*
X162770000Y-158604000D02*
X162770000Y-158985000D01*
X162770000Y-158985000D02*
X171660000Y-158985000D01*
X212560000Y-156445000D02*
G75*
G02X210020000Y-158985000I-2540000J0D01*
G01*
X208674162Y-152616040D02*
G75*
G02X206210000Y-154540000I-2464162J616040D01*
G01*
X212560000Y-156445000D02*
X212560000Y-156064000D01*
X212560000Y-153016000D02*
X212560000Y-152635000D01*
X212560000Y-152635000D02*
X212179000Y-152635000D01*
X210401000Y-152635000D02*
X208750000Y-152635000D01*
X206210000Y-154540000D02*
X201130000Y-154540000D01*
X201130000Y-154540000D02*
X201130000Y-155556000D01*
X201130000Y-158604000D02*
X201130000Y-158985000D01*
X201130000Y-158985000D02*
X210020000Y-158985000D01*
X239540000Y-158985000D02*
X248430000Y-158985000D01*
X239540000Y-158604000D02*
X239540000Y-158985000D01*
X239540000Y-154540000D02*
X239540000Y-155556000D01*
X244620000Y-154540000D02*
X239540000Y-154540000D01*
X248811000Y-152635000D02*
X247160000Y-152635000D01*
X250970000Y-152635000D02*
X250589000Y-152635000D01*
X250970000Y-153016000D02*
X250970000Y-152635000D01*
X250970000Y-156445000D02*
X250970000Y-156064000D01*
X247084162Y-152616040D02*
G75*
G02X244620000Y-154540000I-2464162J616040D01*
G01*
X250970000Y-156445000D02*
G75*
G02X248430000Y-158985000I-2540000J0D01*
G01*
X277950000Y-158995000D02*
X286840000Y-158995000D01*
X277950000Y-158614000D02*
X277950000Y-158995000D01*
X277950000Y-154550000D02*
X277950000Y-155566000D01*
X283030000Y-154550000D02*
X277950000Y-154550000D01*
X287221000Y-152645000D02*
X285570000Y-152645000D01*
X289380000Y-152645000D02*
X288999000Y-152645000D01*
X289380000Y-153026000D02*
X289380000Y-152645000D01*
X289380000Y-156455000D02*
X289380000Y-156074000D01*
X285494162Y-152626040D02*
G75*
G02X283030000Y-154550000I-2464162J616040D01*
G01*
X289380000Y-156455000D02*
G75*
G02X286840000Y-158995000I-2540000J0D01*
G01*
X323840000Y-175605000D02*
G75*
G02X321300000Y-178145000I-2540000J0D01*
G01*
X319954162Y-171776040D02*
G75*
G02X317490000Y-173700000I-2464162J616040D01*
G01*
X323840000Y-175605000D02*
X323840000Y-175224000D01*
X323840000Y-172176000D02*
X323840000Y-171795000D01*
X323840000Y-171795000D02*
X323459000Y-171795000D01*
X321681000Y-171795000D02*
X320030000Y-171795000D01*
X317490000Y-173700000D02*
X312410000Y-173700000D01*
X312410000Y-173700000D02*
X312410000Y-174716000D01*
X312410000Y-177764000D02*
X312410000Y-178145000D01*
X312410000Y-178145000D02*
X321300000Y-178145000D01*
X42820000Y-158985000D02*
X51710000Y-158985000D01*
X42820000Y-158604000D02*
X42820000Y-158985000D01*
X42820000Y-154540000D02*
X42820000Y-155556000D01*
X47900000Y-154540000D02*
X42820000Y-154540000D01*
X52091000Y-152635000D02*
X50440000Y-152635000D01*
X54250000Y-152635000D02*
X53869000Y-152635000D01*
X54250000Y-153016000D02*
X54250000Y-152635000D01*
X54250000Y-156445000D02*
X54250000Y-156064000D01*
X50364162Y-152616040D02*
G75*
G02X47900000Y-154540000I-2464162J616040D01*
G01*
X54250000Y-156445000D02*
G75*
G02X51710000Y-158985000I-2540000J0D01*
G01*
X72650000Y-178165000D02*
X81540000Y-178165000D01*
X72650000Y-177784000D02*
X72650000Y-178165000D01*
X72650000Y-173720000D02*
X72650000Y-174736000D01*
X77730000Y-173720000D02*
X72650000Y-173720000D01*
X81921000Y-171815000D02*
X80270000Y-171815000D01*
X84080000Y-171815000D02*
X83699000Y-171815000D01*
X84080000Y-172196000D02*
X84080000Y-171815000D01*
X84080000Y-175625000D02*
X84080000Y-175244000D01*
X80194162Y-171796040D02*
G75*
G02X77730000Y-173720000I-2464162J616040D01*
G01*
X84080000Y-175625000D02*
G75*
G02X81540000Y-178165000I-2540000J0D01*
G01*
X122440000Y-175605000D02*
G75*
G02X119900000Y-178145000I-2540000J0D01*
G01*
X118554162Y-171776040D02*
G75*
G02X116090000Y-173700000I-2464162J616040D01*
G01*
X122440000Y-175605000D02*
X122440000Y-175224000D01*
X122440000Y-172176000D02*
X122440000Y-171795000D01*
X122440000Y-171795000D02*
X122059000Y-171795000D01*
X120281000Y-171795000D02*
X118630000Y-171795000D01*
X116090000Y-173700000D02*
X111010000Y-173700000D01*
X111010000Y-173700000D02*
X111010000Y-174716000D01*
X111010000Y-177764000D02*
X111010000Y-178145000D01*
X111010000Y-178145000D02*
X119900000Y-178145000D01*
X149400000Y-178145000D02*
X158290000Y-178145000D01*
X149400000Y-177764000D02*
X149400000Y-178145000D01*
X149400000Y-173700000D02*
X149400000Y-174716000D01*
X154480000Y-173700000D02*
X149400000Y-173700000D01*
X158671000Y-171795000D02*
X157020000Y-171795000D01*
X160830000Y-171795000D02*
X160449000Y-171795000D01*
X160830000Y-172176000D02*
X160830000Y-171795000D01*
X160830000Y-175605000D02*
X160830000Y-175224000D01*
X156944162Y-171776040D02*
G75*
G02X154480000Y-173700000I-2464162J616040D01*
G01*
X160830000Y-175605000D02*
G75*
G02X158290000Y-178145000I-2540000J0D01*
G01*
X187780000Y-178145000D02*
X196670000Y-178145000D01*
X187780000Y-177764000D02*
X187780000Y-178145000D01*
X187780000Y-173700000D02*
X187780000Y-174716000D01*
X192860000Y-173700000D02*
X187780000Y-173700000D01*
X197051000Y-171795000D02*
X195400000Y-171795000D01*
X199210000Y-171795000D02*
X198829000Y-171795000D01*
X199210000Y-172176000D02*
X199210000Y-171795000D01*
X199210000Y-175605000D02*
X199210000Y-175224000D01*
X195324162Y-171776040D02*
G75*
G02X192860000Y-173700000I-2464162J616040D01*
G01*
X199210000Y-175605000D02*
G75*
G02X196670000Y-178145000I-2540000J0D01*
G01*
X237580000Y-175605000D02*
G75*
G02X235040000Y-178145000I-2540000J0D01*
G01*
X233694162Y-171776040D02*
G75*
G02X231230000Y-173700000I-2464162J616040D01*
G01*
X237580000Y-175605000D02*
X237580000Y-175224000D01*
X237580000Y-172176000D02*
X237580000Y-171795000D01*
X237580000Y-171795000D02*
X237199000Y-171795000D01*
X235421000Y-171795000D02*
X233770000Y-171795000D01*
X231230000Y-173700000D02*
X226150000Y-173700000D01*
X226150000Y-173700000D02*
X226150000Y-174716000D01*
X226150000Y-177764000D02*
X226150000Y-178145000D01*
X226150000Y-178145000D02*
X235040000Y-178145000D01*
X275940000Y-175605000D02*
G75*
G02X273400000Y-178145000I-2540000J0D01*
G01*
X272054162Y-171776040D02*
G75*
G02X269590000Y-173700000I-2464162J616040D01*
G01*
X275940000Y-175605000D02*
X275940000Y-175224000D01*
X275940000Y-172176000D02*
X275940000Y-171795000D01*
X275940000Y-171795000D02*
X275559000Y-171795000D01*
X273781000Y-171795000D02*
X272130000Y-171795000D01*
X269590000Y-173700000D02*
X264510000Y-173700000D01*
X264510000Y-173700000D02*
X264510000Y-174716000D01*
X264510000Y-177764000D02*
X264510000Y-178145000D01*
X264510000Y-178145000D02*
X273400000Y-178145000D01*
X322030000Y-197355000D02*
X330920000Y-197355000D01*
X322030000Y-196974000D02*
X322030000Y-197355000D01*
X322030000Y-192910000D02*
X322030000Y-193926000D01*
X327110000Y-192910000D02*
X322030000Y-192910000D01*
X331301000Y-191005000D02*
X329650000Y-191005000D01*
X333460000Y-191005000D02*
X333079000Y-191005000D01*
X333460000Y-191386000D02*
X333460000Y-191005000D01*
X333460000Y-194815000D02*
X333460000Y-194434000D01*
X329574162Y-190986040D02*
G75*
G02X327110000Y-192910000I-2464162J616040D01*
G01*
X333460000Y-194815000D02*
G75*
G02X330920000Y-197355000I-2540000J0D01*
G01*
X45680000Y-175625000D02*
G75*
G02X43140000Y-178165000I-2540000J0D01*
G01*
X41794162Y-171796040D02*
G75*
G02X39330000Y-173720000I-2464162J616040D01*
G01*
X45680000Y-175625000D02*
X45680000Y-175244000D01*
X45680000Y-172196000D02*
X45680000Y-171815000D01*
X45680000Y-171815000D02*
X45299000Y-171815000D01*
X43521000Y-171815000D02*
X41870000Y-171815000D01*
X39330000Y-173720000D02*
X34250000Y-173720000D01*
X34250000Y-173720000D02*
X34250000Y-174736000D01*
X34250000Y-177784000D02*
X34250000Y-178165000D01*
X34250000Y-178165000D02*
X43140000Y-178165000D01*
X69620000Y-194815000D02*
G75*
G02X67080000Y-197355000I-2540000J0D01*
G01*
X65734162Y-190986040D02*
G75*
G02X63270000Y-192910000I-2464162J616040D01*
G01*
X69620000Y-194815000D02*
X69620000Y-194434000D01*
X69620000Y-191386000D02*
X69620000Y-191005000D01*
X69620000Y-191005000D02*
X69239000Y-191005000D01*
X67461000Y-191005000D02*
X65810000Y-191005000D01*
X63270000Y-192910000D02*
X58190000Y-192910000D01*
X58190000Y-192910000D02*
X58190000Y-193926000D01*
X58190000Y-196974000D02*
X58190000Y-197355000D01*
X58190000Y-197355000D02*
X67080000Y-197355000D01*
X101350000Y-197355000D02*
X110240000Y-197355000D01*
X101350000Y-196974000D02*
X101350000Y-197355000D01*
X101350000Y-192910000D02*
X101350000Y-193926000D01*
X106430000Y-192910000D02*
X101350000Y-192910000D01*
X110621000Y-191005000D02*
X108970000Y-191005000D01*
X112780000Y-191005000D02*
X112399000Y-191005000D01*
X112780000Y-191386000D02*
X112780000Y-191005000D01*
X112780000Y-194815000D02*
X112780000Y-194434000D01*
X108894162Y-190986040D02*
G75*
G02X106430000Y-192910000I-2464162J616040D01*
G01*
X112780000Y-194815000D02*
G75*
G02X110240000Y-197355000I-2540000J0D01*
G01*
X139760000Y-197355000D02*
X148650000Y-197355000D01*
X139760000Y-196974000D02*
X139760000Y-197355000D01*
X139760000Y-192910000D02*
X139760000Y-193926000D01*
X144840000Y-192910000D02*
X139760000Y-192910000D01*
X149031000Y-191005000D02*
X147380000Y-191005000D01*
X151190000Y-191005000D02*
X150809000Y-191005000D01*
X151190000Y-191386000D02*
X151190000Y-191005000D01*
X151190000Y-194815000D02*
X151190000Y-194434000D01*
X147304162Y-190986040D02*
G75*
G02X144840000Y-192910000I-2464162J616040D01*
G01*
X151190000Y-194815000D02*
G75*
G02X148650000Y-197355000I-2540000J0D01*
G01*
X189590000Y-194815000D02*
G75*
G02X187050000Y-197355000I-2540000J0D01*
G01*
X185704162Y-190986040D02*
G75*
G02X183240000Y-192910000I-2464162J616040D01*
G01*
X189590000Y-194815000D02*
X189590000Y-194434000D01*
X189590000Y-191386000D02*
X189590000Y-191005000D01*
X189590000Y-191005000D02*
X189209000Y-191005000D01*
X187431000Y-191005000D02*
X185780000Y-191005000D01*
X183240000Y-192910000D02*
X178160000Y-192910000D01*
X178160000Y-192910000D02*
X178160000Y-193926000D01*
X178160000Y-196974000D02*
X178160000Y-197355000D01*
X178160000Y-197355000D02*
X187050000Y-197355000D01*
X227990000Y-194815000D02*
G75*
G02X225450000Y-197355000I-2540000J0D01*
G01*
X224104162Y-190986040D02*
G75*
G02X221640000Y-192910000I-2464162J616040D01*
G01*
X227990000Y-194815000D02*
X227990000Y-194434000D01*
X227990000Y-191386000D02*
X227990000Y-191005000D01*
X227990000Y-191005000D02*
X227609000Y-191005000D01*
X225831000Y-191005000D02*
X224180000Y-191005000D01*
X221640000Y-192910000D02*
X216560000Y-192910000D01*
X216560000Y-192910000D02*
X216560000Y-193926000D01*
X216560000Y-196974000D02*
X216560000Y-197355000D01*
X216560000Y-197355000D02*
X225450000Y-197355000D01*
X266380000Y-194815000D02*
G75*
G02X263840000Y-197355000I-2540000J0D01*
G01*
X262494162Y-190986040D02*
G75*
G02X260030000Y-192910000I-2464162J616040D01*
G01*
X266380000Y-194815000D02*
X266380000Y-194434000D01*
X266380000Y-191386000D02*
X266380000Y-191005000D01*
X266380000Y-191005000D02*
X265999000Y-191005000D01*
X264221000Y-191005000D02*
X262570000Y-191005000D01*
X260030000Y-192910000D02*
X254950000Y-192910000D01*
X254950000Y-192910000D02*
X254950000Y-193926000D01*
X254950000Y-196974000D02*
X254950000Y-197355000D01*
X254950000Y-197355000D02*
X263840000Y-197355000D01*
X302850000Y-197355000D02*
X311740000Y-197355000D01*
X302850000Y-196974000D02*
X302850000Y-197355000D01*
X302850000Y-192910000D02*
X302850000Y-193926000D01*
X307930000Y-192910000D02*
X302850000Y-192910000D01*
X312121000Y-191005000D02*
X310470000Y-191005000D01*
X314280000Y-191005000D02*
X313899000Y-191005000D01*
X314280000Y-191386000D02*
X314280000Y-191005000D01*
X314280000Y-194815000D02*
X314280000Y-194434000D01*
X310394162Y-190986040D02*
G75*
G02X307930000Y-192910000I-2464162J616040D01*
G01*
X314280000Y-194815000D02*
G75*
G02X311740000Y-197355000I-2540000J0D01*
G01*
X174460000Y-214005000D02*
G75*
G02X171920000Y-216545000I-2540000J0D01*
G01*
X170574162Y-210176040D02*
G75*
G02X168110000Y-212100000I-2464162J616040D01*
G01*
X174460000Y-214005000D02*
X174460000Y-213624000D01*
X174460000Y-210576000D02*
X174460000Y-210195000D01*
X174460000Y-210195000D02*
X174079000Y-210195000D01*
X172301000Y-210195000D02*
X170650000Y-210195000D01*
X168110000Y-212100000D02*
X163030000Y-212100000D01*
X163030000Y-212100000D02*
X163030000Y-213116000D01*
X163030000Y-216164000D02*
X163030000Y-216545000D01*
X163030000Y-216545000D02*
X171920000Y-216545000D01*
X93570000Y-194825000D02*
G75*
G02X91030000Y-197365000I-2540000J0D01*
G01*
X89684162Y-190996040D02*
G75*
G02X87220000Y-192920000I-2464162J616040D01*
G01*
X93570000Y-194825000D02*
X93570000Y-194444000D01*
X93570000Y-191396000D02*
X93570000Y-191015000D01*
X93570000Y-191015000D02*
X93189000Y-191015000D01*
X91411000Y-191015000D02*
X89760000Y-191015000D01*
X87220000Y-192920000D02*
X82140000Y-192920000D01*
X82140000Y-192920000D02*
X82140000Y-193936000D01*
X82140000Y-196984000D02*
X82140000Y-197365000D01*
X82140000Y-197365000D02*
X91030000Y-197365000D01*
X120550000Y-197355000D02*
X129440000Y-197355000D01*
X120550000Y-196974000D02*
X120550000Y-197355000D01*
X120550000Y-192910000D02*
X120550000Y-193926000D01*
X125630000Y-192910000D02*
X120550000Y-192910000D01*
X129821000Y-191005000D02*
X128170000Y-191005000D01*
X131980000Y-191005000D02*
X131599000Y-191005000D01*
X131980000Y-191386000D02*
X131980000Y-191005000D01*
X131980000Y-194815000D02*
X131980000Y-194434000D01*
X128094162Y-190986040D02*
G75*
G02X125630000Y-192910000I-2464162J616040D01*
G01*
X131980000Y-194815000D02*
G75*
G02X129440000Y-197355000I-2540000J0D01*
G01*
X170380000Y-194815000D02*
G75*
G02X167840000Y-197355000I-2540000J0D01*
G01*
X166494162Y-190986040D02*
G75*
G02X164030000Y-192910000I-2464162J616040D01*
G01*
X170380000Y-194815000D02*
X170380000Y-194434000D01*
X170380000Y-191386000D02*
X170380000Y-191005000D01*
X170380000Y-191005000D02*
X169999000Y-191005000D01*
X168221000Y-191005000D02*
X166570000Y-191005000D01*
X164030000Y-192910000D02*
X158950000Y-192910000D01*
X158950000Y-192910000D02*
X158950000Y-193926000D01*
X158950000Y-196974000D02*
X158950000Y-197355000D01*
X158950000Y-197355000D02*
X167840000Y-197355000D01*
X197360000Y-197355000D02*
X206250000Y-197355000D01*
X197360000Y-196974000D02*
X197360000Y-197355000D01*
X197360000Y-192910000D02*
X197360000Y-193926000D01*
X202440000Y-192910000D02*
X197360000Y-192910000D01*
X206631000Y-191005000D02*
X204980000Y-191005000D01*
X208790000Y-191005000D02*
X208409000Y-191005000D01*
X208790000Y-191386000D02*
X208790000Y-191005000D01*
X208790000Y-194815000D02*
X208790000Y-194434000D01*
X204904162Y-190986040D02*
G75*
G02X202440000Y-192910000I-2464162J616040D01*
G01*
X208790000Y-194815000D02*
G75*
G02X206250000Y-197355000I-2540000J0D01*
G01*
X235760000Y-197355000D02*
X244650000Y-197355000D01*
X235760000Y-196974000D02*
X235760000Y-197355000D01*
X235760000Y-192910000D02*
X235760000Y-193926000D01*
X240840000Y-192910000D02*
X235760000Y-192910000D01*
X245031000Y-191005000D02*
X243380000Y-191005000D01*
X247190000Y-191005000D02*
X246809000Y-191005000D01*
X247190000Y-191386000D02*
X247190000Y-191005000D01*
X247190000Y-194815000D02*
X247190000Y-194434000D01*
X243304162Y-190986040D02*
G75*
G02X240840000Y-192910000I-2464162J616040D01*
G01*
X247190000Y-194815000D02*
G75*
G02X244650000Y-197355000I-2540000J0D01*
G01*
X290330000Y-194815000D02*
G75*
G02X287790000Y-197355000I-2540000J0D01*
G01*
X286444162Y-190986040D02*
G75*
G02X283980000Y-192910000I-2464162J616040D01*
G01*
X290330000Y-194815000D02*
X290330000Y-194434000D01*
X290330000Y-191386000D02*
X290330000Y-191005000D01*
X290330000Y-191005000D02*
X289949000Y-191005000D01*
X288171000Y-191005000D02*
X286520000Y-191005000D01*
X283980000Y-192910000D02*
X278900000Y-192910000D01*
X278900000Y-192910000D02*
X278900000Y-193926000D01*
X278900000Y-196974000D02*
X278900000Y-197355000D01*
X278900000Y-197355000D02*
X287790000Y-197355000D01*
X370830000Y-140195000D02*
X379720000Y-140195000D01*
X370830000Y-139814000D02*
X370830000Y-140195000D01*
X370830000Y-135750000D02*
X370830000Y-136766000D01*
X375910000Y-135750000D02*
X370830000Y-135750000D01*
X380101000Y-133845000D02*
X378450000Y-133845000D01*
X382260000Y-133845000D02*
X381879000Y-133845000D01*
X382260000Y-134226000D02*
X382260000Y-133845000D01*
X382260000Y-137655000D02*
X382260000Y-137274000D01*
X378374162Y-133826040D02*
G75*
G02X375910000Y-135750000I-2464162J616040D01*
G01*
X382260000Y-137655000D02*
G75*
G02X379720000Y-140195000I-2540000J0D01*
G01*
X45670000Y-194825000D02*
G75*
G02X43130000Y-197365000I-2540000J0D01*
G01*
X41784162Y-190996040D02*
G75*
G02X39320000Y-192920000I-2464162J616040D01*
G01*
X45670000Y-194825000D02*
X45670000Y-194444000D01*
X45670000Y-191396000D02*
X45670000Y-191015000D01*
X45670000Y-191015000D02*
X45289000Y-191015000D01*
X43511000Y-191015000D02*
X41860000Y-191015000D01*
X39320000Y-192920000D02*
X34240000Y-192920000D01*
X34240000Y-192920000D02*
X34240000Y-193936000D01*
X34240000Y-196984000D02*
X34240000Y-197365000D01*
X34240000Y-197365000D02*
X43130000Y-197365000D01*
X103280000Y-175605000D02*
G75*
G02X100740000Y-178145000I-2540000J0D01*
G01*
X99394162Y-171776040D02*
G75*
G02X96930000Y-173700000I-2464162J616040D01*
G01*
X103280000Y-175605000D02*
X103280000Y-175224000D01*
X103280000Y-172176000D02*
X103280000Y-171795000D01*
X103280000Y-171795000D02*
X102899000Y-171795000D01*
X101121000Y-171795000D02*
X99470000Y-171795000D01*
X96930000Y-173700000D02*
X91850000Y-173700000D01*
X91850000Y-173700000D02*
X91850000Y-174716000D01*
X91850000Y-177764000D02*
X91850000Y-178145000D01*
X91850000Y-178145000D02*
X100740000Y-178145000D01*
X130200000Y-178145000D02*
X139090000Y-178145000D01*
X130200000Y-177764000D02*
X130200000Y-178145000D01*
X130200000Y-173700000D02*
X130200000Y-174716000D01*
X135280000Y-173700000D02*
X130200000Y-173700000D01*
X139471000Y-171795000D02*
X137820000Y-171795000D01*
X141630000Y-171795000D02*
X141249000Y-171795000D01*
X141630000Y-172176000D02*
X141630000Y-171795000D01*
X141630000Y-175605000D02*
X141630000Y-175224000D01*
X137744162Y-171776040D02*
G75*
G02X135280000Y-173700000I-2464162J616040D01*
G01*
X141630000Y-175605000D02*
G75*
G02X139090000Y-178145000I-2540000J0D01*
G01*
X180010000Y-175605000D02*
G75*
G02X177470000Y-178145000I-2540000J0D01*
G01*
X176124162Y-171776040D02*
G75*
G02X173660000Y-173700000I-2464162J616040D01*
G01*
X180010000Y-175605000D02*
X180010000Y-175224000D01*
X180010000Y-172176000D02*
X180010000Y-171795000D01*
X180010000Y-171795000D02*
X179629000Y-171795000D01*
X177851000Y-171795000D02*
X176200000Y-171795000D01*
X173660000Y-173700000D02*
X168580000Y-173700000D01*
X168580000Y-173700000D02*
X168580000Y-174716000D01*
X168580000Y-177764000D02*
X168580000Y-178145000D01*
X168580000Y-178145000D02*
X177470000Y-178145000D01*
X206940000Y-178145000D02*
X215830000Y-178145000D01*
X206940000Y-177764000D02*
X206940000Y-178145000D01*
X206940000Y-173700000D02*
X206940000Y-174716000D01*
X212020000Y-173700000D02*
X206940000Y-173700000D01*
X216211000Y-171795000D02*
X214560000Y-171795000D01*
X218370000Y-171795000D02*
X217989000Y-171795000D01*
X218370000Y-172176000D02*
X218370000Y-171795000D01*
X218370000Y-175605000D02*
X218370000Y-175224000D01*
X214484162Y-171776040D02*
G75*
G02X212020000Y-173700000I-2464162J616040D01*
G01*
X218370000Y-175605000D02*
G75*
G02X215830000Y-178145000I-2540000J0D01*
G01*
X256740000Y-175605000D02*
G75*
G02X254200000Y-178145000I-2540000J0D01*
G01*
X252854162Y-171776040D02*
G75*
G02X250390000Y-173700000I-2464162J616040D01*
G01*
X256740000Y-175605000D02*
X256740000Y-175224000D01*
X256740000Y-172176000D02*
X256740000Y-171795000D01*
X256740000Y-171795000D02*
X256359000Y-171795000D01*
X254581000Y-171795000D02*
X252930000Y-171795000D01*
X250390000Y-173700000D02*
X245310000Y-173700000D01*
X245310000Y-173700000D02*
X245310000Y-174716000D01*
X245310000Y-177764000D02*
X245310000Y-178145000D01*
X245310000Y-178145000D02*
X254200000Y-178145000D01*
X295130000Y-175625000D02*
G75*
G02X292590000Y-178165000I-2540000J0D01*
G01*
X291244162Y-171796040D02*
G75*
G02X288780000Y-173720000I-2464162J616040D01*
G01*
X295130000Y-175625000D02*
X295130000Y-175244000D01*
X295130000Y-172196000D02*
X295130000Y-171815000D01*
X295130000Y-171815000D02*
X294749000Y-171815000D01*
X292971000Y-171815000D02*
X291320000Y-171815000D01*
X288780000Y-173720000D02*
X283700000Y-173720000D01*
X283700000Y-173720000D02*
X283700000Y-174736000D01*
X283700000Y-177784000D02*
X283700000Y-178165000D01*
X283700000Y-178165000D02*
X292590000Y-178165000D01*
X370830000Y-159475000D02*
X379720000Y-159475000D01*
X370830000Y-159094000D02*
X370830000Y-159475000D01*
X370830000Y-155030000D02*
X370830000Y-156046000D01*
X375910000Y-155030000D02*
X370830000Y-155030000D01*
X380101000Y-153125000D02*
X378450000Y-153125000D01*
X382260000Y-153125000D02*
X381879000Y-153125000D01*
X382260000Y-153506000D02*
X382260000Y-153125000D01*
X382260000Y-156935000D02*
X382260000Y-156554000D01*
X378374162Y-153106040D02*
G75*
G02X375910000Y-155030000I-2464162J616040D01*
G01*
X382260000Y-156935000D02*
G75*
G02X379720000Y-159475000I-2540000J0D01*
G01*
X78210000Y-156445000D02*
G75*
G02X75670000Y-158985000I-2540000J0D01*
G01*
X74324162Y-152616040D02*
G75*
G02X71860000Y-154540000I-2464162J616040D01*
G01*
X78210000Y-156445000D02*
X78210000Y-156064000D01*
X78210000Y-153016000D02*
X78210000Y-152635000D01*
X78210000Y-152635000D02*
X77829000Y-152635000D01*
X76051000Y-152635000D02*
X74400000Y-152635000D01*
X71860000Y-154540000D02*
X66780000Y-154540000D01*
X66780000Y-154540000D02*
X66780000Y-155556000D01*
X66780000Y-158604000D02*
X66780000Y-158985000D01*
X66780000Y-158985000D02*
X75670000Y-158985000D01*
X116610000Y-156445000D02*
G75*
G02X114070000Y-158985000I-2540000J0D01*
G01*
X112724162Y-152616040D02*
G75*
G02X110260000Y-154540000I-2464162J616040D01*
G01*
X116610000Y-156445000D02*
X116610000Y-156064000D01*
X116610000Y-153016000D02*
X116610000Y-152635000D01*
X116610000Y-152635000D02*
X116229000Y-152635000D01*
X114451000Y-152635000D02*
X112800000Y-152635000D01*
X110260000Y-154540000D02*
X105180000Y-154540000D01*
X105180000Y-154540000D02*
X105180000Y-155556000D01*
X105180000Y-158604000D02*
X105180000Y-158985000D01*
X105180000Y-158985000D02*
X114070000Y-158985000D01*
X143570000Y-158985000D02*
X152460000Y-158985000D01*
X143570000Y-158604000D02*
X143570000Y-158985000D01*
X143570000Y-154540000D02*
X143570000Y-155556000D01*
X148650000Y-154540000D02*
X143570000Y-154540000D01*
X152841000Y-152635000D02*
X151190000Y-152635000D01*
X155000000Y-152635000D02*
X154619000Y-152635000D01*
X155000000Y-153016000D02*
X155000000Y-152635000D01*
X155000000Y-156445000D02*
X155000000Y-156064000D01*
X151114162Y-152616040D02*
G75*
G02X148650000Y-154540000I-2464162J616040D01*
G01*
X155000000Y-156445000D02*
G75*
G02X152460000Y-158985000I-2540000J0D01*
G01*
X181950000Y-158985000D02*
X190840000Y-158985000D01*
X181950000Y-158604000D02*
X181950000Y-158985000D01*
X181950000Y-154540000D02*
X181950000Y-155556000D01*
X187030000Y-154540000D02*
X181950000Y-154540000D01*
X191221000Y-152635000D02*
X189570000Y-152635000D01*
X193380000Y-152635000D02*
X192999000Y-152635000D01*
X193380000Y-153016000D02*
X193380000Y-152635000D01*
X193380000Y-156445000D02*
X193380000Y-156064000D01*
X189494162Y-152616040D02*
G75*
G02X187030000Y-154540000I-2464162J616040D01*
G01*
X193380000Y-156445000D02*
G75*
G02X190840000Y-158985000I-2540000J0D01*
G01*
X231770000Y-156445000D02*
G75*
G02X229230000Y-158985000I-2540000J0D01*
G01*
X227884162Y-152616040D02*
G75*
G02X225420000Y-154540000I-2464162J616040D01*
G01*
X231770000Y-156445000D02*
X231770000Y-156064000D01*
X231770000Y-153016000D02*
X231770000Y-152635000D01*
X231770000Y-152635000D02*
X231389000Y-152635000D01*
X229611000Y-152635000D02*
X227960000Y-152635000D01*
X225420000Y-154540000D02*
X220340000Y-154540000D01*
X220340000Y-154540000D02*
X220340000Y-155556000D01*
X220340000Y-158604000D02*
X220340000Y-158985000D01*
X220340000Y-158985000D02*
X229230000Y-158985000D01*
X258740000Y-158985000D02*
X267630000Y-158985000D01*
X258740000Y-158604000D02*
X258740000Y-158985000D01*
X258740000Y-154540000D02*
X258740000Y-155556000D01*
X263820000Y-154540000D02*
X258740000Y-154540000D01*
X268011000Y-152635000D02*
X266360000Y-152635000D01*
X270170000Y-152635000D02*
X269789000Y-152635000D01*
X270170000Y-153016000D02*
X270170000Y-152635000D01*
X270170000Y-156445000D02*
X270170000Y-156064000D01*
X266284162Y-152616040D02*
G75*
G02X263820000Y-154540000I-2464162J616040D01*
G01*
X270170000Y-156445000D02*
G75*
G02X267630000Y-158985000I-2540000J0D01*
G01*
X297090000Y-158995000D02*
X305980000Y-158995000D01*
X297090000Y-158614000D02*
X297090000Y-158995000D01*
X297090000Y-154550000D02*
X297090000Y-155566000D01*
X302170000Y-154550000D02*
X297090000Y-154550000D01*
X306361000Y-152645000D02*
X304710000Y-152645000D01*
X308520000Y-152645000D02*
X308139000Y-152645000D01*
X308520000Y-153026000D02*
X308520000Y-152645000D01*
X308520000Y-156455000D02*
X308520000Y-156074000D01*
X304634162Y-152626040D02*
G75*
G02X302170000Y-154550000I-2464162J616040D01*
G01*
X308520000Y-156455000D02*
G75*
G02X305980000Y-158995000I-2540000J0D01*
G01*
X382260000Y-176245000D02*
G75*
G02X379720000Y-178785000I-2540000J0D01*
G01*
X378374162Y-172416040D02*
G75*
G02X375910000Y-174340000I-2464162J616040D01*
G01*
X382260000Y-176245000D02*
X382260000Y-175864000D01*
X382260000Y-172816000D02*
X382260000Y-172435000D01*
X382260000Y-172435000D02*
X381879000Y-172435000D01*
X380101000Y-172435000D02*
X378450000Y-172435000D01*
X375910000Y-174340000D02*
X370830000Y-174340000D01*
X370830000Y-174340000D02*
X370830000Y-175356000D01*
X370830000Y-178404000D02*
X370830000Y-178785000D01*
X370830000Y-178785000D02*
X379720000Y-178785000D01*
X76380000Y-139785000D02*
X85270000Y-139785000D01*
X76380000Y-139404000D02*
X76380000Y-139785000D01*
X76380000Y-135340000D02*
X76380000Y-136356000D01*
X81460000Y-135340000D02*
X76380000Y-135340000D01*
X85651000Y-133435000D02*
X84000000Y-133435000D01*
X87810000Y-133435000D02*
X87429000Y-133435000D01*
X87810000Y-133816000D02*
X87810000Y-133435000D01*
X87810000Y-137245000D02*
X87810000Y-136864000D01*
X83924162Y-133416040D02*
G75*
G02X81460000Y-135340000I-2464162J616040D01*
G01*
X87810000Y-137245000D02*
G75*
G02X85270000Y-139785000I-2540000J0D01*
G01*
X114750000Y-139785000D02*
X123640000Y-139785000D01*
X114750000Y-139404000D02*
X114750000Y-139785000D01*
X114750000Y-135340000D02*
X114750000Y-136356000D01*
X119830000Y-135340000D02*
X114750000Y-135340000D01*
X124021000Y-133435000D02*
X122370000Y-133435000D01*
X126180000Y-133435000D02*
X125799000Y-133435000D01*
X126180000Y-133816000D02*
X126180000Y-133435000D01*
X126180000Y-137245000D02*
X126180000Y-136864000D01*
X122294162Y-133416040D02*
G75*
G02X119830000Y-135340000I-2464162J616040D01*
G01*
X126180000Y-137245000D02*
G75*
G02X123640000Y-139785000I-2540000J0D01*
G01*
X164560000Y-137245000D02*
G75*
G02X162020000Y-139785000I-2540000J0D01*
G01*
X160674162Y-133416040D02*
G75*
G02X158210000Y-135340000I-2464162J616040D01*
G01*
X164560000Y-137245000D02*
X164560000Y-136864000D01*
X164560000Y-133816000D02*
X164560000Y-133435000D01*
X164560000Y-133435000D02*
X164179000Y-133435000D01*
X162401000Y-133435000D02*
X160750000Y-133435000D01*
X158210000Y-135340000D02*
X153130000Y-135340000D01*
X153130000Y-135340000D02*
X153130000Y-136356000D01*
X153130000Y-139404000D02*
X153130000Y-139785000D01*
X153130000Y-139785000D02*
X162020000Y-139785000D01*
X202930000Y-137245000D02*
G75*
G02X200390000Y-139785000I-2540000J0D01*
G01*
X199044162Y-133416040D02*
G75*
G02X196580000Y-135340000I-2464162J616040D01*
G01*
X202930000Y-137245000D02*
X202930000Y-136864000D01*
X202930000Y-133816000D02*
X202930000Y-133435000D01*
X202930000Y-133435000D02*
X202549000Y-133435000D01*
X200771000Y-133435000D02*
X199120000Y-133435000D01*
X196580000Y-135340000D02*
X191500000Y-135340000D01*
X191500000Y-135340000D02*
X191500000Y-136356000D01*
X191500000Y-139404000D02*
X191500000Y-139785000D01*
X191500000Y-139785000D02*
X200390000Y-139785000D01*
X241300000Y-137245000D02*
G75*
G02X238760000Y-139785000I-2540000J0D01*
G01*
X237414162Y-133416040D02*
G75*
G02X234950000Y-135340000I-2464162J616040D01*
G01*
X241300000Y-137245000D02*
X241300000Y-136864000D01*
X241300000Y-133816000D02*
X241300000Y-133435000D01*
X241300000Y-133435000D02*
X240919000Y-133435000D01*
X239141000Y-133435000D02*
X237490000Y-133435000D01*
X234950000Y-135340000D02*
X229870000Y-135340000D01*
X229870000Y-135340000D02*
X229870000Y-136356000D01*
X229870000Y-139404000D02*
X229870000Y-139785000D01*
X229870000Y-139785000D02*
X238760000Y-139785000D01*
X268260000Y-139785000D02*
X277150000Y-139785000D01*
X268260000Y-139404000D02*
X268260000Y-139785000D01*
X268260000Y-135340000D02*
X268260000Y-136356000D01*
X273340000Y-135340000D02*
X268260000Y-135340000D01*
X277531000Y-133435000D02*
X275880000Y-133435000D01*
X279690000Y-133435000D02*
X279309000Y-133435000D01*
X279690000Y-133816000D02*
X279690000Y-133435000D01*
X279690000Y-137245000D02*
X279690000Y-136864000D01*
X275804162Y-133416040D02*
G75*
G02X273340000Y-135340000I-2464162J616040D01*
G01*
X279690000Y-137245000D02*
G75*
G02X277150000Y-139785000I-2540000J0D01*
G01*
X306640000Y-139785000D02*
X315530000Y-139785000D01*
X306640000Y-139404000D02*
X306640000Y-139785000D01*
X306640000Y-135340000D02*
X306640000Y-136356000D01*
X311720000Y-135340000D02*
X306640000Y-135340000D01*
X315911000Y-133435000D02*
X314260000Y-133435000D01*
X318070000Y-133435000D02*
X317689000Y-133435000D01*
X318070000Y-133816000D02*
X318070000Y-133435000D01*
X318070000Y-137245000D02*
X318070000Y-136864000D01*
X314184162Y-133416040D02*
G75*
G02X311720000Y-135340000I-2464162J616040D01*
G01*
X318070000Y-137245000D02*
G75*
G02X315530000Y-139785000I-2540000J0D01*
G01*
X382260000Y-195525000D02*
G75*
G02X379720000Y-198065000I-2540000J0D01*
G01*
X378374162Y-191696040D02*
G75*
G02X375910000Y-193620000I-2464162J616040D01*
G01*
X382260000Y-195525000D02*
X382260000Y-195144000D01*
X382260000Y-192096000D02*
X382260000Y-191715000D01*
X382260000Y-191715000D02*
X381879000Y-191715000D01*
X380101000Y-191715000D02*
X378450000Y-191715000D01*
X375910000Y-193620000D02*
X370830000Y-193620000D01*
X370830000Y-193620000D02*
X370830000Y-194636000D01*
X370830000Y-197684000D02*
X370830000Y-198065000D01*
X370830000Y-198065000D02*
X379720000Y-198065000D01*
X53450000Y-178145000D02*
X62340000Y-178145000D01*
X53450000Y-177764000D02*
X53450000Y-178145000D01*
X53450000Y-173700000D02*
X53450000Y-174716000D01*
X58530000Y-173700000D02*
X53450000Y-173700000D01*
X62721000Y-171795000D02*
X61070000Y-171795000D01*
X64880000Y-171795000D02*
X64499000Y-171795000D01*
X64880000Y-172176000D02*
X64880000Y-171795000D01*
X64880000Y-175605000D02*
X64880000Y-175224000D01*
X60994162Y-171776040D02*
G75*
G02X58530000Y-173700000I-2464162J616040D01*
G01*
X64880000Y-175605000D02*
G75*
G02X62340000Y-178145000I-2540000J0D01*
G01*
X332490000Y-156445000D02*
G75*
G02X329950000Y-158985000I-2540000J0D01*
G01*
X328604162Y-152616040D02*
G75*
G02X326140000Y-154540000I-2464162J616040D01*
G01*
X332490000Y-156445000D02*
X332490000Y-156064000D01*
X332490000Y-153016000D02*
X332490000Y-152635000D01*
X332490000Y-152635000D02*
X332109000Y-152635000D01*
X330331000Y-152635000D02*
X328680000Y-152635000D01*
X326140000Y-154540000D02*
X321060000Y-154540000D01*
X321060000Y-154540000D02*
X321060000Y-155556000D01*
X321060000Y-158604000D02*
X321060000Y-158985000D01*
X321060000Y-158985000D02*
X329950000Y-158985000D01*
X68508095Y-126832380D02*
X68508095Y-125832380D01*
X68270000Y-125832380D01*
X68127142Y-125880000D01*
X68031904Y-125975238D01*
X67984285Y-126070476D01*
X67936666Y-126260952D01*
X67936666Y-126403809D01*
X67984285Y-126594285D01*
X68031904Y-126689523D01*
X68127142Y-126784761D01*
X68270000Y-126832380D01*
X68508095Y-126832380D01*
X66984285Y-126832380D02*
X67555714Y-126832380D01*
X67270000Y-126832380D02*
X67270000Y-125832380D01*
X67365238Y-125975238D01*
X67460476Y-126070476D01*
X67555714Y-126118095D01*
X106958095Y-126762380D02*
X106958095Y-125762380D01*
X106720000Y-125762380D01*
X106577142Y-125810000D01*
X106481904Y-125905238D01*
X106434285Y-126000476D01*
X106386666Y-126190952D01*
X106386666Y-126333809D01*
X106434285Y-126524285D01*
X106481904Y-126619523D01*
X106577142Y-126714761D01*
X106720000Y-126762380D01*
X106958095Y-126762380D01*
X106005714Y-125857619D02*
X105958095Y-125810000D01*
X105862857Y-125762380D01*
X105624761Y-125762380D01*
X105529523Y-125810000D01*
X105481904Y-125857619D01*
X105434285Y-125952857D01*
X105434285Y-126048095D01*
X105481904Y-126190952D01*
X106053333Y-126762380D01*
X105434285Y-126762380D01*
X145398095Y-126762380D02*
X145398095Y-125762380D01*
X145160000Y-125762380D01*
X145017142Y-125810000D01*
X144921904Y-125905238D01*
X144874285Y-126000476D01*
X144826666Y-126190952D01*
X144826666Y-126333809D01*
X144874285Y-126524285D01*
X144921904Y-126619523D01*
X145017142Y-126714761D01*
X145160000Y-126762380D01*
X145398095Y-126762380D01*
X144493333Y-125762380D02*
X143874285Y-125762380D01*
X144207619Y-126143333D01*
X144064761Y-126143333D01*
X143969523Y-126190952D01*
X143921904Y-126238571D01*
X143874285Y-126333809D01*
X143874285Y-126571904D01*
X143921904Y-126667142D01*
X143969523Y-126714761D01*
X144064761Y-126762380D01*
X144350476Y-126762380D01*
X144445714Y-126714761D01*
X144493333Y-126667142D01*
X183768095Y-126762380D02*
X183768095Y-125762380D01*
X183530000Y-125762380D01*
X183387142Y-125810000D01*
X183291904Y-125905238D01*
X183244285Y-126000476D01*
X183196666Y-126190952D01*
X183196666Y-126333809D01*
X183244285Y-126524285D01*
X183291904Y-126619523D01*
X183387142Y-126714761D01*
X183530000Y-126762380D01*
X183768095Y-126762380D01*
X182339523Y-126095714D02*
X182339523Y-126762380D01*
X182577619Y-125714761D02*
X182815714Y-126429047D01*
X182196666Y-126429047D01*
X222098095Y-126762380D02*
X222098095Y-125762380D01*
X221860000Y-125762380D01*
X221717142Y-125810000D01*
X221621904Y-125905238D01*
X221574285Y-126000476D01*
X221526666Y-126190952D01*
X221526666Y-126333809D01*
X221574285Y-126524285D01*
X221621904Y-126619523D01*
X221717142Y-126714761D01*
X221860000Y-126762380D01*
X222098095Y-126762380D01*
X220621904Y-125762380D02*
X221098095Y-125762380D01*
X221145714Y-126238571D01*
X221098095Y-126190952D01*
X221002857Y-126143333D01*
X220764761Y-126143333D01*
X220669523Y-126190952D01*
X220621904Y-126238571D01*
X220574285Y-126333809D01*
X220574285Y-126571904D01*
X220621904Y-126667142D01*
X220669523Y-126714761D01*
X220764761Y-126762380D01*
X221002857Y-126762380D01*
X221098095Y-126714761D01*
X221145714Y-126667142D01*
X260418095Y-126762380D02*
X260418095Y-125762380D01*
X260180000Y-125762380D01*
X260037142Y-125810000D01*
X259941904Y-125905238D01*
X259894285Y-126000476D01*
X259846666Y-126190952D01*
X259846666Y-126333809D01*
X259894285Y-126524285D01*
X259941904Y-126619523D01*
X260037142Y-126714761D01*
X260180000Y-126762380D01*
X260418095Y-126762380D01*
X258989523Y-125762380D02*
X259180000Y-125762380D01*
X259275238Y-125810000D01*
X259322857Y-125857619D01*
X259418095Y-126000476D01*
X259465714Y-126190952D01*
X259465714Y-126571904D01*
X259418095Y-126667142D01*
X259370476Y-126714761D01*
X259275238Y-126762380D01*
X259084761Y-126762380D01*
X258989523Y-126714761D01*
X258941904Y-126667142D01*
X258894285Y-126571904D01*
X258894285Y-126333809D01*
X258941904Y-126238571D01*
X258989523Y-126190952D01*
X259084761Y-126143333D01*
X259275238Y-126143333D01*
X259370476Y-126190952D01*
X259418095Y-126238571D01*
X259465714Y-126333809D01*
X298748095Y-126762380D02*
X298748095Y-125762380D01*
X298510000Y-125762380D01*
X298367142Y-125810000D01*
X298271904Y-125905238D01*
X298224285Y-126000476D01*
X298176666Y-126190952D01*
X298176666Y-126333809D01*
X298224285Y-126524285D01*
X298271904Y-126619523D01*
X298367142Y-126714761D01*
X298510000Y-126762380D01*
X298748095Y-126762380D01*
X297843333Y-125762380D02*
X297176666Y-125762380D01*
X297605238Y-126762380D01*
X337118095Y-126762380D02*
X337118095Y-125762380D01*
X336880000Y-125762380D01*
X336737142Y-125810000D01*
X336641904Y-125905238D01*
X336594285Y-126000476D01*
X336546666Y-126190952D01*
X336546666Y-126333809D01*
X336594285Y-126524285D01*
X336641904Y-126619523D01*
X336737142Y-126714761D01*
X336880000Y-126762380D01*
X337118095Y-126762380D01*
X335975238Y-126190952D02*
X336070476Y-126143333D01*
X336118095Y-126095714D01*
X336165714Y-126000476D01*
X336165714Y-125952857D01*
X336118095Y-125857619D01*
X336070476Y-125810000D01*
X335975238Y-125762380D01*
X335784761Y-125762380D01*
X335689523Y-125810000D01*
X335641904Y-125857619D01*
X335594285Y-125952857D01*
X335594285Y-126000476D01*
X335641904Y-126095714D01*
X335689523Y-126143333D01*
X335784761Y-126190952D01*
X335975238Y-126190952D01*
X336070476Y-126238571D01*
X336118095Y-126286190D01*
X336165714Y-126381428D01*
X336165714Y-126571904D01*
X336118095Y-126667142D01*
X336070476Y-126714761D01*
X335975238Y-126762380D01*
X335784761Y-126762380D01*
X335689523Y-126714761D01*
X335641904Y-126667142D01*
X335594285Y-126571904D01*
X335594285Y-126381428D01*
X335641904Y-126286190D01*
X335689523Y-126238571D01*
X335784761Y-126190952D01*
X49388095Y-126762380D02*
X49388095Y-125762380D01*
X49150000Y-125762380D01*
X49007142Y-125810000D01*
X48911904Y-125905238D01*
X48864285Y-126000476D01*
X48816666Y-126190952D01*
X48816666Y-126333809D01*
X48864285Y-126524285D01*
X48911904Y-126619523D01*
X49007142Y-126714761D01*
X49150000Y-126762380D01*
X49388095Y-126762380D01*
X48340476Y-126762380D02*
X48150000Y-126762380D01*
X48054761Y-126714761D01*
X48007142Y-126667142D01*
X47911904Y-126524285D01*
X47864285Y-126333809D01*
X47864285Y-125952857D01*
X47911904Y-125857619D01*
X47959523Y-125810000D01*
X48054761Y-125762380D01*
X48245238Y-125762380D01*
X48340476Y-125810000D01*
X48388095Y-125857619D01*
X48435714Y-125952857D01*
X48435714Y-126190952D01*
X48388095Y-126286190D01*
X48340476Y-126333809D01*
X48245238Y-126381428D01*
X48054761Y-126381428D01*
X47959523Y-126333809D01*
X47911904Y-126286190D01*
X47864285Y-126190952D01*
X97864285Y-145962380D02*
X97864285Y-144962380D01*
X97626190Y-144962380D01*
X97483333Y-145010000D01*
X97388095Y-145105238D01*
X97340476Y-145200476D01*
X97292857Y-145390952D01*
X97292857Y-145533809D01*
X97340476Y-145724285D01*
X97388095Y-145819523D01*
X97483333Y-145914761D01*
X97626190Y-145962380D01*
X97864285Y-145962380D01*
X96340476Y-145962380D02*
X96911904Y-145962380D01*
X96626190Y-145962380D02*
X96626190Y-144962380D01*
X96721428Y-145105238D01*
X96816666Y-145200476D01*
X96911904Y-145248095D01*
X95721428Y-144962380D02*
X95626190Y-144962380D01*
X95530952Y-145010000D01*
X95483333Y-145057619D01*
X95435714Y-145152857D01*
X95388095Y-145343333D01*
X95388095Y-145581428D01*
X95435714Y-145771904D01*
X95483333Y-145867142D01*
X95530952Y-145914761D01*
X95626190Y-145962380D01*
X95721428Y-145962380D01*
X95816666Y-145914761D01*
X95864285Y-145867142D01*
X95911904Y-145771904D01*
X95959523Y-145581428D01*
X95959523Y-145343333D01*
X95911904Y-145152857D01*
X95864285Y-145057619D01*
X95816666Y-145010000D01*
X95721428Y-144962380D01*
X136314285Y-145922380D02*
X136314285Y-144922380D01*
X136076190Y-144922380D01*
X135933333Y-144970000D01*
X135838095Y-145065238D01*
X135790476Y-145160476D01*
X135742857Y-145350952D01*
X135742857Y-145493809D01*
X135790476Y-145684285D01*
X135838095Y-145779523D01*
X135933333Y-145874761D01*
X136076190Y-145922380D01*
X136314285Y-145922380D01*
X134790476Y-145922380D02*
X135361904Y-145922380D01*
X135076190Y-145922380D02*
X135076190Y-144922380D01*
X135171428Y-145065238D01*
X135266666Y-145160476D01*
X135361904Y-145208095D01*
X133838095Y-145922380D02*
X134409523Y-145922380D01*
X134123809Y-145922380D02*
X134123809Y-144922380D01*
X134219047Y-145065238D01*
X134314285Y-145160476D01*
X134409523Y-145208095D01*
X174604285Y-145962380D02*
X174604285Y-144962380D01*
X174366190Y-144962380D01*
X174223333Y-145010000D01*
X174128095Y-145105238D01*
X174080476Y-145200476D01*
X174032857Y-145390952D01*
X174032857Y-145533809D01*
X174080476Y-145724285D01*
X174128095Y-145819523D01*
X174223333Y-145914761D01*
X174366190Y-145962380D01*
X174604285Y-145962380D01*
X173080476Y-145962380D02*
X173651904Y-145962380D01*
X173366190Y-145962380D02*
X173366190Y-144962380D01*
X173461428Y-145105238D01*
X173556666Y-145200476D01*
X173651904Y-145248095D01*
X172699523Y-145057619D02*
X172651904Y-145010000D01*
X172556666Y-144962380D01*
X172318571Y-144962380D01*
X172223333Y-145010000D01*
X172175714Y-145057619D01*
X172128095Y-145152857D01*
X172128095Y-145248095D01*
X172175714Y-145390952D01*
X172747142Y-145962380D01*
X172128095Y-145962380D01*
X212934285Y-145962380D02*
X212934285Y-144962380D01*
X212696190Y-144962380D01*
X212553333Y-145010000D01*
X212458095Y-145105238D01*
X212410476Y-145200476D01*
X212362857Y-145390952D01*
X212362857Y-145533809D01*
X212410476Y-145724285D01*
X212458095Y-145819523D01*
X212553333Y-145914761D01*
X212696190Y-145962380D01*
X212934285Y-145962380D01*
X211410476Y-145962380D02*
X211981904Y-145962380D01*
X211696190Y-145962380D02*
X211696190Y-144962380D01*
X211791428Y-145105238D01*
X211886666Y-145200476D01*
X211981904Y-145248095D01*
X211077142Y-144962380D02*
X210458095Y-144962380D01*
X210791428Y-145343333D01*
X210648571Y-145343333D01*
X210553333Y-145390952D01*
X210505714Y-145438571D01*
X210458095Y-145533809D01*
X210458095Y-145771904D01*
X210505714Y-145867142D01*
X210553333Y-145914761D01*
X210648571Y-145962380D01*
X210934285Y-145962380D01*
X211029523Y-145914761D01*
X211077142Y-145867142D01*
X251374285Y-145962380D02*
X251374285Y-144962380D01*
X251136190Y-144962380D01*
X250993333Y-145010000D01*
X250898095Y-145105238D01*
X250850476Y-145200476D01*
X250802857Y-145390952D01*
X250802857Y-145533809D01*
X250850476Y-145724285D01*
X250898095Y-145819523D01*
X250993333Y-145914761D01*
X251136190Y-145962380D01*
X251374285Y-145962380D01*
X249850476Y-145962380D02*
X250421904Y-145962380D01*
X250136190Y-145962380D02*
X250136190Y-144962380D01*
X250231428Y-145105238D01*
X250326666Y-145200476D01*
X250421904Y-145248095D01*
X248993333Y-145295714D02*
X248993333Y-145962380D01*
X249231428Y-144914761D02*
X249469523Y-145629047D01*
X248850476Y-145629047D01*
X289854285Y-146002380D02*
X289854285Y-145002380D01*
X289616190Y-145002380D01*
X289473333Y-145050000D01*
X289378095Y-145145238D01*
X289330476Y-145240476D01*
X289282857Y-145430952D01*
X289282857Y-145573809D01*
X289330476Y-145764285D01*
X289378095Y-145859523D01*
X289473333Y-145954761D01*
X289616190Y-146002380D01*
X289854285Y-146002380D01*
X288330476Y-146002380D02*
X288901904Y-146002380D01*
X288616190Y-146002380D02*
X288616190Y-145002380D01*
X288711428Y-145145238D01*
X288806666Y-145240476D01*
X288901904Y-145288095D01*
X287425714Y-145002380D02*
X287901904Y-145002380D01*
X287949523Y-145478571D01*
X287901904Y-145430952D01*
X287806666Y-145383333D01*
X287568571Y-145383333D01*
X287473333Y-145430952D01*
X287425714Y-145478571D01*
X287378095Y-145573809D01*
X287378095Y-145811904D01*
X287425714Y-145907142D01*
X287473333Y-145954761D01*
X287568571Y-146002380D01*
X287806666Y-146002380D01*
X287901904Y-145954761D01*
X287949523Y-145907142D01*
X324294285Y-165092380D02*
X324294285Y-164092380D01*
X324056190Y-164092380D01*
X323913333Y-164140000D01*
X323818095Y-164235238D01*
X323770476Y-164330476D01*
X323722857Y-164520952D01*
X323722857Y-164663809D01*
X323770476Y-164854285D01*
X323818095Y-164949523D01*
X323913333Y-165044761D01*
X324056190Y-165092380D01*
X324294285Y-165092380D01*
X322770476Y-165092380D02*
X323341904Y-165092380D01*
X323056190Y-165092380D02*
X323056190Y-164092380D01*
X323151428Y-164235238D01*
X323246666Y-164330476D01*
X323341904Y-164378095D01*
X321913333Y-164092380D02*
X322103809Y-164092380D01*
X322199047Y-164140000D01*
X322246666Y-164187619D01*
X322341904Y-164330476D01*
X322389523Y-164520952D01*
X322389523Y-164901904D01*
X322341904Y-164997142D01*
X322294285Y-165044761D01*
X322199047Y-165092380D01*
X322008571Y-165092380D01*
X321913333Y-165044761D01*
X321865714Y-164997142D01*
X321818095Y-164901904D01*
X321818095Y-164663809D01*
X321865714Y-164568571D01*
X321913333Y-164520952D01*
X322008571Y-164473333D01*
X322199047Y-164473333D01*
X322294285Y-164520952D01*
X322341904Y-164568571D01*
X322389523Y-164663809D01*
X54744285Y-145962380D02*
X54744285Y-144962380D01*
X54506190Y-144962380D01*
X54363333Y-145010000D01*
X54268095Y-145105238D01*
X54220476Y-145200476D01*
X54172857Y-145390952D01*
X54172857Y-145533809D01*
X54220476Y-145724285D01*
X54268095Y-145819523D01*
X54363333Y-145914761D01*
X54506190Y-145962380D01*
X54744285Y-145962380D01*
X53220476Y-145962380D02*
X53791904Y-145962380D01*
X53506190Y-145962380D02*
X53506190Y-144962380D01*
X53601428Y-145105238D01*
X53696666Y-145200476D01*
X53791904Y-145248095D01*
X52887142Y-144962380D02*
X52220476Y-144962380D01*
X52649047Y-145962380D01*
X84494285Y-165162380D02*
X84494285Y-164162380D01*
X84256190Y-164162380D01*
X84113333Y-164210000D01*
X84018095Y-164305238D01*
X83970476Y-164400476D01*
X83922857Y-164590952D01*
X83922857Y-164733809D01*
X83970476Y-164924285D01*
X84018095Y-165019523D01*
X84113333Y-165114761D01*
X84256190Y-165162380D01*
X84494285Y-165162380D01*
X82970476Y-165162380D02*
X83541904Y-165162380D01*
X83256190Y-165162380D02*
X83256190Y-164162380D01*
X83351428Y-164305238D01*
X83446666Y-164400476D01*
X83541904Y-164448095D01*
X82399047Y-164590952D02*
X82494285Y-164543333D01*
X82541904Y-164495714D01*
X82589523Y-164400476D01*
X82589523Y-164352857D01*
X82541904Y-164257619D01*
X82494285Y-164210000D01*
X82399047Y-164162380D01*
X82208571Y-164162380D01*
X82113333Y-164210000D01*
X82065714Y-164257619D01*
X82018095Y-164352857D01*
X82018095Y-164400476D01*
X82065714Y-164495714D01*
X82113333Y-164543333D01*
X82208571Y-164590952D01*
X82399047Y-164590952D01*
X82494285Y-164638571D01*
X82541904Y-164686190D01*
X82589523Y-164781428D01*
X82589523Y-164971904D01*
X82541904Y-165067142D01*
X82494285Y-165114761D01*
X82399047Y-165162380D01*
X82208571Y-165162380D01*
X82113333Y-165114761D01*
X82065714Y-165067142D01*
X82018095Y-164971904D01*
X82018095Y-164781428D01*
X82065714Y-164686190D01*
X82113333Y-164638571D01*
X82208571Y-164590952D01*
X122864285Y-165122380D02*
X122864285Y-164122380D01*
X122626190Y-164122380D01*
X122483333Y-164170000D01*
X122388095Y-164265238D01*
X122340476Y-164360476D01*
X122292857Y-164550952D01*
X122292857Y-164693809D01*
X122340476Y-164884285D01*
X122388095Y-164979523D01*
X122483333Y-165074761D01*
X122626190Y-165122380D01*
X122864285Y-165122380D01*
X121340476Y-165122380D02*
X121911904Y-165122380D01*
X121626190Y-165122380D02*
X121626190Y-164122380D01*
X121721428Y-164265238D01*
X121816666Y-164360476D01*
X121911904Y-164408095D01*
X120864285Y-165122380D02*
X120673809Y-165122380D01*
X120578571Y-165074761D01*
X120530952Y-165027142D01*
X120435714Y-164884285D01*
X120388095Y-164693809D01*
X120388095Y-164312857D01*
X120435714Y-164217619D01*
X120483333Y-164170000D01*
X120578571Y-164122380D01*
X120769047Y-164122380D01*
X120864285Y-164170000D01*
X120911904Y-164217619D01*
X120959523Y-164312857D01*
X120959523Y-164550952D01*
X120911904Y-164646190D01*
X120864285Y-164693809D01*
X120769047Y-164741428D01*
X120578571Y-164741428D01*
X120483333Y-164693809D01*
X120435714Y-164646190D01*
X120388095Y-164550952D01*
X161194285Y-165122380D02*
X161194285Y-164122380D01*
X160956190Y-164122380D01*
X160813333Y-164170000D01*
X160718095Y-164265238D01*
X160670476Y-164360476D01*
X160622857Y-164550952D01*
X160622857Y-164693809D01*
X160670476Y-164884285D01*
X160718095Y-164979523D01*
X160813333Y-165074761D01*
X160956190Y-165122380D01*
X161194285Y-165122380D01*
X160241904Y-164217619D02*
X160194285Y-164170000D01*
X160099047Y-164122380D01*
X159860952Y-164122380D01*
X159765714Y-164170000D01*
X159718095Y-164217619D01*
X159670476Y-164312857D01*
X159670476Y-164408095D01*
X159718095Y-164550952D01*
X160289523Y-165122380D01*
X159670476Y-165122380D01*
X159051428Y-164122380D02*
X158956190Y-164122380D01*
X158860952Y-164170000D01*
X158813333Y-164217619D01*
X158765714Y-164312857D01*
X158718095Y-164503333D01*
X158718095Y-164741428D01*
X158765714Y-164931904D01*
X158813333Y-165027142D01*
X158860952Y-165074761D01*
X158956190Y-165122380D01*
X159051428Y-165122380D01*
X159146666Y-165074761D01*
X159194285Y-165027142D01*
X159241904Y-164931904D01*
X159289523Y-164741428D01*
X159289523Y-164503333D01*
X159241904Y-164312857D01*
X159194285Y-164217619D01*
X159146666Y-164170000D01*
X159051428Y-164122380D01*
X199674285Y-165122380D02*
X199674285Y-164122380D01*
X199436190Y-164122380D01*
X199293333Y-164170000D01*
X199198095Y-164265238D01*
X199150476Y-164360476D01*
X199102857Y-164550952D01*
X199102857Y-164693809D01*
X199150476Y-164884285D01*
X199198095Y-164979523D01*
X199293333Y-165074761D01*
X199436190Y-165122380D01*
X199674285Y-165122380D01*
X198721904Y-164217619D02*
X198674285Y-164170000D01*
X198579047Y-164122380D01*
X198340952Y-164122380D01*
X198245714Y-164170000D01*
X198198095Y-164217619D01*
X198150476Y-164312857D01*
X198150476Y-164408095D01*
X198198095Y-164550952D01*
X198769523Y-165122380D01*
X198150476Y-165122380D01*
X197198095Y-165122380D02*
X197769523Y-165122380D01*
X197483809Y-165122380D02*
X197483809Y-164122380D01*
X197579047Y-164265238D01*
X197674285Y-164360476D01*
X197769523Y-164408095D01*
X238034285Y-165092380D02*
X238034285Y-164092380D01*
X237796190Y-164092380D01*
X237653333Y-164140000D01*
X237558095Y-164235238D01*
X237510476Y-164330476D01*
X237462857Y-164520952D01*
X237462857Y-164663809D01*
X237510476Y-164854285D01*
X237558095Y-164949523D01*
X237653333Y-165044761D01*
X237796190Y-165092380D01*
X238034285Y-165092380D01*
X237081904Y-164187619D02*
X237034285Y-164140000D01*
X236939047Y-164092380D01*
X236700952Y-164092380D01*
X236605714Y-164140000D01*
X236558095Y-164187619D01*
X236510476Y-164282857D01*
X236510476Y-164378095D01*
X236558095Y-164520952D01*
X237129523Y-165092380D01*
X236510476Y-165092380D01*
X236129523Y-164187619D02*
X236081904Y-164140000D01*
X235986666Y-164092380D01*
X235748571Y-164092380D01*
X235653333Y-164140000D01*
X235605714Y-164187619D01*
X235558095Y-164282857D01*
X235558095Y-164378095D01*
X235605714Y-164520952D01*
X236177142Y-165092380D01*
X235558095Y-165092380D01*
X276364285Y-165122380D02*
X276364285Y-164122380D01*
X276126190Y-164122380D01*
X275983333Y-164170000D01*
X275888095Y-164265238D01*
X275840476Y-164360476D01*
X275792857Y-164550952D01*
X275792857Y-164693809D01*
X275840476Y-164884285D01*
X275888095Y-164979523D01*
X275983333Y-165074761D01*
X276126190Y-165122380D01*
X276364285Y-165122380D01*
X275411904Y-164217619D02*
X275364285Y-164170000D01*
X275269047Y-164122380D01*
X275030952Y-164122380D01*
X274935714Y-164170000D01*
X274888095Y-164217619D01*
X274840476Y-164312857D01*
X274840476Y-164408095D01*
X274888095Y-164550952D01*
X275459523Y-165122380D01*
X274840476Y-165122380D01*
X274507142Y-164122380D02*
X273888095Y-164122380D01*
X274221428Y-164503333D01*
X274078571Y-164503333D01*
X273983333Y-164550952D01*
X273935714Y-164598571D01*
X273888095Y-164693809D01*
X273888095Y-164931904D01*
X273935714Y-165027142D01*
X273983333Y-165074761D01*
X274078571Y-165122380D01*
X274364285Y-165122380D01*
X274459523Y-165074761D01*
X274507142Y-165027142D01*
X333934285Y-184352380D02*
X333934285Y-183352380D01*
X333696190Y-183352380D01*
X333553333Y-183400000D01*
X333458095Y-183495238D01*
X333410476Y-183590476D01*
X333362857Y-183780952D01*
X333362857Y-183923809D01*
X333410476Y-184114285D01*
X333458095Y-184209523D01*
X333553333Y-184304761D01*
X333696190Y-184352380D01*
X333934285Y-184352380D01*
X332981904Y-183447619D02*
X332934285Y-183400000D01*
X332839047Y-183352380D01*
X332600952Y-183352380D01*
X332505714Y-183400000D01*
X332458095Y-183447619D01*
X332410476Y-183542857D01*
X332410476Y-183638095D01*
X332458095Y-183780952D01*
X333029523Y-184352380D01*
X332410476Y-184352380D01*
X331553333Y-183685714D02*
X331553333Y-184352380D01*
X331791428Y-183304761D02*
X332029523Y-184019047D01*
X331410476Y-184019047D01*
X46124285Y-165162380D02*
X46124285Y-164162380D01*
X45886190Y-164162380D01*
X45743333Y-164210000D01*
X45648095Y-164305238D01*
X45600476Y-164400476D01*
X45552857Y-164590952D01*
X45552857Y-164733809D01*
X45600476Y-164924285D01*
X45648095Y-165019523D01*
X45743333Y-165114761D01*
X45886190Y-165162380D01*
X46124285Y-165162380D01*
X45171904Y-164257619D02*
X45124285Y-164210000D01*
X45029047Y-164162380D01*
X44790952Y-164162380D01*
X44695714Y-164210000D01*
X44648095Y-164257619D01*
X44600476Y-164352857D01*
X44600476Y-164448095D01*
X44648095Y-164590952D01*
X45219523Y-165162380D01*
X44600476Y-165162380D01*
X43695714Y-164162380D02*
X44171904Y-164162380D01*
X44219523Y-164638571D01*
X44171904Y-164590952D01*
X44076666Y-164543333D01*
X43838571Y-164543333D01*
X43743333Y-164590952D01*
X43695714Y-164638571D01*
X43648095Y-164733809D01*
X43648095Y-164971904D01*
X43695714Y-165067142D01*
X43743333Y-165114761D01*
X43838571Y-165162380D01*
X44076666Y-165162380D01*
X44171904Y-165114761D01*
X44219523Y-165067142D01*
X70044285Y-184352380D02*
X70044285Y-183352380D01*
X69806190Y-183352380D01*
X69663333Y-183400000D01*
X69568095Y-183495238D01*
X69520476Y-183590476D01*
X69472857Y-183780952D01*
X69472857Y-183923809D01*
X69520476Y-184114285D01*
X69568095Y-184209523D01*
X69663333Y-184304761D01*
X69806190Y-184352380D01*
X70044285Y-184352380D01*
X69091904Y-183447619D02*
X69044285Y-183400000D01*
X68949047Y-183352380D01*
X68710952Y-183352380D01*
X68615714Y-183400000D01*
X68568095Y-183447619D01*
X68520476Y-183542857D01*
X68520476Y-183638095D01*
X68568095Y-183780952D01*
X69139523Y-184352380D01*
X68520476Y-184352380D01*
X67663333Y-183352380D02*
X67853809Y-183352380D01*
X67949047Y-183400000D01*
X67996666Y-183447619D01*
X68091904Y-183590476D01*
X68139523Y-183780952D01*
X68139523Y-184161904D01*
X68091904Y-184257142D01*
X68044285Y-184304761D01*
X67949047Y-184352380D01*
X67758571Y-184352380D01*
X67663333Y-184304761D01*
X67615714Y-184257142D01*
X67568095Y-184161904D01*
X67568095Y-183923809D01*
X67615714Y-183828571D01*
X67663333Y-183780952D01*
X67758571Y-183733333D01*
X67949047Y-183733333D01*
X68044285Y-183780952D01*
X68091904Y-183828571D01*
X68139523Y-183923809D01*
X113154285Y-184352380D02*
X113154285Y-183352380D01*
X112916190Y-183352380D01*
X112773333Y-183400000D01*
X112678095Y-183495238D01*
X112630476Y-183590476D01*
X112582857Y-183780952D01*
X112582857Y-183923809D01*
X112630476Y-184114285D01*
X112678095Y-184209523D01*
X112773333Y-184304761D01*
X112916190Y-184352380D01*
X113154285Y-184352380D01*
X112201904Y-183447619D02*
X112154285Y-183400000D01*
X112059047Y-183352380D01*
X111820952Y-183352380D01*
X111725714Y-183400000D01*
X111678095Y-183447619D01*
X111630476Y-183542857D01*
X111630476Y-183638095D01*
X111678095Y-183780952D01*
X112249523Y-184352380D01*
X111630476Y-184352380D01*
X111297142Y-183352380D02*
X110630476Y-183352380D01*
X111059047Y-184352380D01*
X151574285Y-184352380D02*
X151574285Y-183352380D01*
X151336190Y-183352380D01*
X151193333Y-183400000D01*
X151098095Y-183495238D01*
X151050476Y-183590476D01*
X151002857Y-183780952D01*
X151002857Y-183923809D01*
X151050476Y-184114285D01*
X151098095Y-184209523D01*
X151193333Y-184304761D01*
X151336190Y-184352380D01*
X151574285Y-184352380D01*
X150621904Y-183447619D02*
X150574285Y-183400000D01*
X150479047Y-183352380D01*
X150240952Y-183352380D01*
X150145714Y-183400000D01*
X150098095Y-183447619D01*
X150050476Y-183542857D01*
X150050476Y-183638095D01*
X150098095Y-183780952D01*
X150669523Y-184352380D01*
X150050476Y-184352380D01*
X149479047Y-183780952D02*
X149574285Y-183733333D01*
X149621904Y-183685714D01*
X149669523Y-183590476D01*
X149669523Y-183542857D01*
X149621904Y-183447619D01*
X149574285Y-183400000D01*
X149479047Y-183352380D01*
X149288571Y-183352380D01*
X149193333Y-183400000D01*
X149145714Y-183447619D01*
X149098095Y-183542857D01*
X149098095Y-183590476D01*
X149145714Y-183685714D01*
X149193333Y-183733333D01*
X149288571Y-183780952D01*
X149479047Y-183780952D01*
X149574285Y-183828571D01*
X149621904Y-183876190D01*
X149669523Y-183971428D01*
X149669523Y-184161904D01*
X149621904Y-184257142D01*
X149574285Y-184304761D01*
X149479047Y-184352380D01*
X149288571Y-184352380D01*
X149193333Y-184304761D01*
X149145714Y-184257142D01*
X149098095Y-184161904D01*
X149098095Y-183971428D01*
X149145714Y-183876190D01*
X149193333Y-183828571D01*
X149288571Y-183780952D01*
X189964285Y-184352380D02*
X189964285Y-183352380D01*
X189726190Y-183352380D01*
X189583333Y-183400000D01*
X189488095Y-183495238D01*
X189440476Y-183590476D01*
X189392857Y-183780952D01*
X189392857Y-183923809D01*
X189440476Y-184114285D01*
X189488095Y-184209523D01*
X189583333Y-184304761D01*
X189726190Y-184352380D01*
X189964285Y-184352380D01*
X189011904Y-183447619D02*
X188964285Y-183400000D01*
X188869047Y-183352380D01*
X188630952Y-183352380D01*
X188535714Y-183400000D01*
X188488095Y-183447619D01*
X188440476Y-183542857D01*
X188440476Y-183638095D01*
X188488095Y-183780952D01*
X189059523Y-184352380D01*
X188440476Y-184352380D01*
X187964285Y-184352380D02*
X187773809Y-184352380D01*
X187678571Y-184304761D01*
X187630952Y-184257142D01*
X187535714Y-184114285D01*
X187488095Y-183923809D01*
X187488095Y-183542857D01*
X187535714Y-183447619D01*
X187583333Y-183400000D01*
X187678571Y-183352380D01*
X187869047Y-183352380D01*
X187964285Y-183400000D01*
X188011904Y-183447619D01*
X188059523Y-183542857D01*
X188059523Y-183780952D01*
X188011904Y-183876190D01*
X187964285Y-183923809D01*
X187869047Y-183971428D01*
X187678571Y-183971428D01*
X187583333Y-183923809D01*
X187535714Y-183876190D01*
X187488095Y-183780952D01*
X228354285Y-184352380D02*
X228354285Y-183352380D01*
X228116190Y-183352380D01*
X227973333Y-183400000D01*
X227878095Y-183495238D01*
X227830476Y-183590476D01*
X227782857Y-183780952D01*
X227782857Y-183923809D01*
X227830476Y-184114285D01*
X227878095Y-184209523D01*
X227973333Y-184304761D01*
X228116190Y-184352380D01*
X228354285Y-184352380D01*
X227449523Y-183352380D02*
X226830476Y-183352380D01*
X227163809Y-183733333D01*
X227020952Y-183733333D01*
X226925714Y-183780952D01*
X226878095Y-183828571D01*
X226830476Y-183923809D01*
X226830476Y-184161904D01*
X226878095Y-184257142D01*
X226925714Y-184304761D01*
X227020952Y-184352380D01*
X227306666Y-184352380D01*
X227401904Y-184304761D01*
X227449523Y-184257142D01*
X226211428Y-183352380D02*
X226116190Y-183352380D01*
X226020952Y-183400000D01*
X225973333Y-183447619D01*
X225925714Y-183542857D01*
X225878095Y-183733333D01*
X225878095Y-183971428D01*
X225925714Y-184161904D01*
X225973333Y-184257142D01*
X226020952Y-184304761D01*
X226116190Y-184352380D01*
X226211428Y-184352380D01*
X226306666Y-184304761D01*
X226354285Y-184257142D01*
X226401904Y-184161904D01*
X226449523Y-183971428D01*
X226449523Y-183733333D01*
X226401904Y-183542857D01*
X226354285Y-183447619D01*
X226306666Y-183400000D01*
X226211428Y-183352380D01*
X266824285Y-184352380D02*
X266824285Y-183352380D01*
X266586190Y-183352380D01*
X266443333Y-183400000D01*
X266348095Y-183495238D01*
X266300476Y-183590476D01*
X266252857Y-183780952D01*
X266252857Y-183923809D01*
X266300476Y-184114285D01*
X266348095Y-184209523D01*
X266443333Y-184304761D01*
X266586190Y-184352380D01*
X266824285Y-184352380D01*
X265919523Y-183352380D02*
X265300476Y-183352380D01*
X265633809Y-183733333D01*
X265490952Y-183733333D01*
X265395714Y-183780952D01*
X265348095Y-183828571D01*
X265300476Y-183923809D01*
X265300476Y-184161904D01*
X265348095Y-184257142D01*
X265395714Y-184304761D01*
X265490952Y-184352380D01*
X265776666Y-184352380D01*
X265871904Y-184304761D01*
X265919523Y-184257142D01*
X264348095Y-184352380D02*
X264919523Y-184352380D01*
X264633809Y-184352380D02*
X264633809Y-183352380D01*
X264729047Y-183495238D01*
X264824285Y-183590476D01*
X264919523Y-183638095D01*
X314684285Y-184352380D02*
X314684285Y-183352380D01*
X314446190Y-183352380D01*
X314303333Y-183400000D01*
X314208095Y-183495238D01*
X314160476Y-183590476D01*
X314112857Y-183780952D01*
X314112857Y-183923809D01*
X314160476Y-184114285D01*
X314208095Y-184209523D01*
X314303333Y-184304761D01*
X314446190Y-184352380D01*
X314684285Y-184352380D01*
X313779523Y-183352380D02*
X313160476Y-183352380D01*
X313493809Y-183733333D01*
X313350952Y-183733333D01*
X313255714Y-183780952D01*
X313208095Y-183828571D01*
X313160476Y-183923809D01*
X313160476Y-184161904D01*
X313208095Y-184257142D01*
X313255714Y-184304761D01*
X313350952Y-184352380D01*
X313636666Y-184352380D01*
X313731904Y-184304761D01*
X313779523Y-184257142D01*
X312779523Y-183447619D02*
X312731904Y-183400000D01*
X312636666Y-183352380D01*
X312398571Y-183352380D01*
X312303333Y-183400000D01*
X312255714Y-183447619D01*
X312208095Y-183542857D01*
X312208095Y-183638095D01*
X312255714Y-183780952D01*
X312827142Y-184352380D01*
X312208095Y-184352380D01*
X174834285Y-203572380D02*
X174834285Y-202572380D01*
X174596190Y-202572380D01*
X174453333Y-202620000D01*
X174358095Y-202715238D01*
X174310476Y-202810476D01*
X174262857Y-203000952D01*
X174262857Y-203143809D01*
X174310476Y-203334285D01*
X174358095Y-203429523D01*
X174453333Y-203524761D01*
X174596190Y-203572380D01*
X174834285Y-203572380D01*
X173929523Y-202572380D02*
X173310476Y-202572380D01*
X173643809Y-202953333D01*
X173500952Y-202953333D01*
X173405714Y-203000952D01*
X173358095Y-203048571D01*
X173310476Y-203143809D01*
X173310476Y-203381904D01*
X173358095Y-203477142D01*
X173405714Y-203524761D01*
X173500952Y-203572380D01*
X173786666Y-203572380D01*
X173881904Y-203524761D01*
X173929523Y-203477142D01*
X172977142Y-202572380D02*
X172358095Y-202572380D01*
X172691428Y-202953333D01*
X172548571Y-202953333D01*
X172453333Y-203000952D01*
X172405714Y-203048571D01*
X172358095Y-203143809D01*
X172358095Y-203381904D01*
X172405714Y-203477142D01*
X172453333Y-203524761D01*
X172548571Y-203572380D01*
X172834285Y-203572380D01*
X172929523Y-203524761D01*
X172977142Y-203477142D01*
X93904285Y-184352380D02*
X93904285Y-183352380D01*
X93666190Y-183352380D01*
X93523333Y-183400000D01*
X93428095Y-183495238D01*
X93380476Y-183590476D01*
X93332857Y-183780952D01*
X93332857Y-183923809D01*
X93380476Y-184114285D01*
X93428095Y-184209523D01*
X93523333Y-184304761D01*
X93666190Y-184352380D01*
X93904285Y-184352380D01*
X92999523Y-183352380D02*
X92380476Y-183352380D01*
X92713809Y-183733333D01*
X92570952Y-183733333D01*
X92475714Y-183780952D01*
X92428095Y-183828571D01*
X92380476Y-183923809D01*
X92380476Y-184161904D01*
X92428095Y-184257142D01*
X92475714Y-184304761D01*
X92570952Y-184352380D01*
X92856666Y-184352380D01*
X92951904Y-184304761D01*
X92999523Y-184257142D01*
X91523333Y-183685714D02*
X91523333Y-184352380D01*
X91761428Y-183304761D02*
X91999523Y-184019047D01*
X91380476Y-184019047D01*
X132354285Y-184352380D02*
X132354285Y-183352380D01*
X132116190Y-183352380D01*
X131973333Y-183400000D01*
X131878095Y-183495238D01*
X131830476Y-183590476D01*
X131782857Y-183780952D01*
X131782857Y-183923809D01*
X131830476Y-184114285D01*
X131878095Y-184209523D01*
X131973333Y-184304761D01*
X132116190Y-184352380D01*
X132354285Y-184352380D01*
X131449523Y-183352380D02*
X130830476Y-183352380D01*
X131163809Y-183733333D01*
X131020952Y-183733333D01*
X130925714Y-183780952D01*
X130878095Y-183828571D01*
X130830476Y-183923809D01*
X130830476Y-184161904D01*
X130878095Y-184257142D01*
X130925714Y-184304761D01*
X131020952Y-184352380D01*
X131306666Y-184352380D01*
X131401904Y-184304761D01*
X131449523Y-184257142D01*
X129925714Y-183352380D02*
X130401904Y-183352380D01*
X130449523Y-183828571D01*
X130401904Y-183780952D01*
X130306666Y-183733333D01*
X130068571Y-183733333D01*
X129973333Y-183780952D01*
X129925714Y-183828571D01*
X129878095Y-183923809D01*
X129878095Y-184161904D01*
X129925714Y-184257142D01*
X129973333Y-184304761D01*
X130068571Y-184352380D01*
X130306666Y-184352380D01*
X130401904Y-184304761D01*
X130449523Y-184257142D01*
X170774285Y-184382380D02*
X170774285Y-183382380D01*
X170536190Y-183382380D01*
X170393333Y-183430000D01*
X170298095Y-183525238D01*
X170250476Y-183620476D01*
X170202857Y-183810952D01*
X170202857Y-183953809D01*
X170250476Y-184144285D01*
X170298095Y-184239523D01*
X170393333Y-184334761D01*
X170536190Y-184382380D01*
X170774285Y-184382380D01*
X169869523Y-183382380D02*
X169250476Y-183382380D01*
X169583809Y-183763333D01*
X169440952Y-183763333D01*
X169345714Y-183810952D01*
X169298095Y-183858571D01*
X169250476Y-183953809D01*
X169250476Y-184191904D01*
X169298095Y-184287142D01*
X169345714Y-184334761D01*
X169440952Y-184382380D01*
X169726666Y-184382380D01*
X169821904Y-184334761D01*
X169869523Y-184287142D01*
X168393333Y-183382380D02*
X168583809Y-183382380D01*
X168679047Y-183430000D01*
X168726666Y-183477619D01*
X168821904Y-183620476D01*
X168869523Y-183810952D01*
X168869523Y-184191904D01*
X168821904Y-184287142D01*
X168774285Y-184334761D01*
X168679047Y-184382380D01*
X168488571Y-184382380D01*
X168393333Y-184334761D01*
X168345714Y-184287142D01*
X168298095Y-184191904D01*
X168298095Y-183953809D01*
X168345714Y-183858571D01*
X168393333Y-183810952D01*
X168488571Y-183763333D01*
X168679047Y-183763333D01*
X168774285Y-183810952D01*
X168821904Y-183858571D01*
X168869523Y-183953809D01*
X209244285Y-184352380D02*
X209244285Y-183352380D01*
X209006190Y-183352380D01*
X208863333Y-183400000D01*
X208768095Y-183495238D01*
X208720476Y-183590476D01*
X208672857Y-183780952D01*
X208672857Y-183923809D01*
X208720476Y-184114285D01*
X208768095Y-184209523D01*
X208863333Y-184304761D01*
X209006190Y-184352380D01*
X209244285Y-184352380D01*
X208339523Y-183352380D02*
X207720476Y-183352380D01*
X208053809Y-183733333D01*
X207910952Y-183733333D01*
X207815714Y-183780952D01*
X207768095Y-183828571D01*
X207720476Y-183923809D01*
X207720476Y-184161904D01*
X207768095Y-184257142D01*
X207815714Y-184304761D01*
X207910952Y-184352380D01*
X208196666Y-184352380D01*
X208291904Y-184304761D01*
X208339523Y-184257142D01*
X207387142Y-183352380D02*
X206720476Y-183352380D01*
X207149047Y-184352380D01*
X247574285Y-184352380D02*
X247574285Y-183352380D01*
X247336190Y-183352380D01*
X247193333Y-183400000D01*
X247098095Y-183495238D01*
X247050476Y-183590476D01*
X247002857Y-183780952D01*
X247002857Y-183923809D01*
X247050476Y-184114285D01*
X247098095Y-184209523D01*
X247193333Y-184304761D01*
X247336190Y-184352380D01*
X247574285Y-184352380D01*
X246669523Y-183352380D02*
X246050476Y-183352380D01*
X246383809Y-183733333D01*
X246240952Y-183733333D01*
X246145714Y-183780952D01*
X246098095Y-183828571D01*
X246050476Y-183923809D01*
X246050476Y-184161904D01*
X246098095Y-184257142D01*
X246145714Y-184304761D01*
X246240952Y-184352380D01*
X246526666Y-184352380D01*
X246621904Y-184304761D01*
X246669523Y-184257142D01*
X245479047Y-183780952D02*
X245574285Y-183733333D01*
X245621904Y-183685714D01*
X245669523Y-183590476D01*
X245669523Y-183542857D01*
X245621904Y-183447619D01*
X245574285Y-183400000D01*
X245479047Y-183352380D01*
X245288571Y-183352380D01*
X245193333Y-183400000D01*
X245145714Y-183447619D01*
X245098095Y-183542857D01*
X245098095Y-183590476D01*
X245145714Y-183685714D01*
X245193333Y-183733333D01*
X245288571Y-183780952D01*
X245479047Y-183780952D01*
X245574285Y-183828571D01*
X245621904Y-183876190D01*
X245669523Y-183971428D01*
X245669523Y-184161904D01*
X245621904Y-184257142D01*
X245574285Y-184304761D01*
X245479047Y-184352380D01*
X245288571Y-184352380D01*
X245193333Y-184304761D01*
X245145714Y-184257142D01*
X245098095Y-184161904D01*
X245098095Y-183971428D01*
X245145714Y-183876190D01*
X245193333Y-183828571D01*
X245288571Y-183780952D01*
X290764285Y-184352380D02*
X290764285Y-183352380D01*
X290526190Y-183352380D01*
X290383333Y-183400000D01*
X290288095Y-183495238D01*
X290240476Y-183590476D01*
X290192857Y-183780952D01*
X290192857Y-183923809D01*
X290240476Y-184114285D01*
X290288095Y-184209523D01*
X290383333Y-184304761D01*
X290526190Y-184352380D01*
X290764285Y-184352380D01*
X289859523Y-183352380D02*
X289240476Y-183352380D01*
X289573809Y-183733333D01*
X289430952Y-183733333D01*
X289335714Y-183780952D01*
X289288095Y-183828571D01*
X289240476Y-183923809D01*
X289240476Y-184161904D01*
X289288095Y-184257142D01*
X289335714Y-184304761D01*
X289430952Y-184352380D01*
X289716666Y-184352380D01*
X289811904Y-184304761D01*
X289859523Y-184257142D01*
X288764285Y-184352380D02*
X288573809Y-184352380D01*
X288478571Y-184304761D01*
X288430952Y-184257142D01*
X288335714Y-184114285D01*
X288288095Y-183923809D01*
X288288095Y-183542857D01*
X288335714Y-183447619D01*
X288383333Y-183400000D01*
X288478571Y-183352380D01*
X288669047Y-183352380D01*
X288764285Y-183400000D01*
X288811904Y-183447619D01*
X288859523Y-183542857D01*
X288859523Y-183780952D01*
X288811904Y-183876190D01*
X288764285Y-183923809D01*
X288669047Y-183971428D01*
X288478571Y-183971428D01*
X288383333Y-183923809D01*
X288335714Y-183876190D01*
X288288095Y-183780952D01*
X382784285Y-127182380D02*
X382784285Y-126182380D01*
X382546190Y-126182380D01*
X382403333Y-126230000D01*
X382308095Y-126325238D01*
X382260476Y-126420476D01*
X382212857Y-126610952D01*
X382212857Y-126753809D01*
X382260476Y-126944285D01*
X382308095Y-127039523D01*
X382403333Y-127134761D01*
X382546190Y-127182380D01*
X382784285Y-127182380D01*
X381355714Y-126515714D02*
X381355714Y-127182380D01*
X381593809Y-126134761D02*
X381831904Y-126849047D01*
X381212857Y-126849047D01*
X380641428Y-126182380D02*
X380546190Y-126182380D01*
X380450952Y-126230000D01*
X380403333Y-126277619D01*
X380355714Y-126372857D01*
X380308095Y-126563333D01*
X380308095Y-126801428D01*
X380355714Y-126991904D01*
X380403333Y-127087142D01*
X380450952Y-127134761D01*
X380546190Y-127182380D01*
X380641428Y-127182380D01*
X380736666Y-127134761D01*
X380784285Y-127087142D01*
X380831904Y-126991904D01*
X380879523Y-126801428D01*
X380879523Y-126563333D01*
X380831904Y-126372857D01*
X380784285Y-126277619D01*
X380736666Y-126230000D01*
X380641428Y-126182380D01*
X46104285Y-184382380D02*
X46104285Y-183382380D01*
X45866190Y-183382380D01*
X45723333Y-183430000D01*
X45628095Y-183525238D01*
X45580476Y-183620476D01*
X45532857Y-183810952D01*
X45532857Y-183953809D01*
X45580476Y-184144285D01*
X45628095Y-184239523D01*
X45723333Y-184334761D01*
X45866190Y-184382380D01*
X46104285Y-184382380D01*
X44675714Y-183715714D02*
X44675714Y-184382380D01*
X44913809Y-183334761D02*
X45151904Y-184049047D01*
X44532857Y-184049047D01*
X43628095Y-184382380D02*
X44199523Y-184382380D01*
X43913809Y-184382380D02*
X43913809Y-183382380D01*
X44009047Y-183525238D01*
X44104285Y-183620476D01*
X44199523Y-183668095D01*
X103734285Y-165122380D02*
X103734285Y-164122380D01*
X103496190Y-164122380D01*
X103353333Y-164170000D01*
X103258095Y-164265238D01*
X103210476Y-164360476D01*
X103162857Y-164550952D01*
X103162857Y-164693809D01*
X103210476Y-164884285D01*
X103258095Y-164979523D01*
X103353333Y-165074761D01*
X103496190Y-165122380D01*
X103734285Y-165122380D01*
X102305714Y-164455714D02*
X102305714Y-165122380D01*
X102543809Y-164074761D02*
X102781904Y-164789047D01*
X102162857Y-164789047D01*
X101829523Y-164217619D02*
X101781904Y-164170000D01*
X101686666Y-164122380D01*
X101448571Y-164122380D01*
X101353333Y-164170000D01*
X101305714Y-164217619D01*
X101258095Y-164312857D01*
X101258095Y-164408095D01*
X101305714Y-164550952D01*
X101877142Y-165122380D01*
X101258095Y-165122380D01*
X142104285Y-165122380D02*
X142104285Y-164122380D01*
X141866190Y-164122380D01*
X141723333Y-164170000D01*
X141628095Y-164265238D01*
X141580476Y-164360476D01*
X141532857Y-164550952D01*
X141532857Y-164693809D01*
X141580476Y-164884285D01*
X141628095Y-164979523D01*
X141723333Y-165074761D01*
X141866190Y-165122380D01*
X142104285Y-165122380D01*
X140675714Y-164455714D02*
X140675714Y-165122380D01*
X140913809Y-164074761D02*
X141151904Y-164789047D01*
X140532857Y-164789047D01*
X140247142Y-164122380D02*
X139628095Y-164122380D01*
X139961428Y-164503333D01*
X139818571Y-164503333D01*
X139723333Y-164550952D01*
X139675714Y-164598571D01*
X139628095Y-164693809D01*
X139628095Y-164931904D01*
X139675714Y-165027142D01*
X139723333Y-165074761D01*
X139818571Y-165122380D01*
X140104285Y-165122380D01*
X140199523Y-165074761D01*
X140247142Y-165027142D01*
X180474285Y-165122380D02*
X180474285Y-164122380D01*
X180236190Y-164122380D01*
X180093333Y-164170000D01*
X179998095Y-164265238D01*
X179950476Y-164360476D01*
X179902857Y-164550952D01*
X179902857Y-164693809D01*
X179950476Y-164884285D01*
X179998095Y-164979523D01*
X180093333Y-165074761D01*
X180236190Y-165122380D01*
X180474285Y-165122380D01*
X179045714Y-164455714D02*
X179045714Y-165122380D01*
X179283809Y-164074761D02*
X179521904Y-164789047D01*
X178902857Y-164789047D01*
X178093333Y-164455714D02*
X178093333Y-165122380D01*
X178331428Y-164074761D02*
X178569523Y-164789047D01*
X177950476Y-164789047D01*
X218764285Y-165122380D02*
X218764285Y-164122380D01*
X218526190Y-164122380D01*
X218383333Y-164170000D01*
X218288095Y-164265238D01*
X218240476Y-164360476D01*
X218192857Y-164550952D01*
X218192857Y-164693809D01*
X218240476Y-164884285D01*
X218288095Y-164979523D01*
X218383333Y-165074761D01*
X218526190Y-165122380D01*
X218764285Y-165122380D01*
X217335714Y-164455714D02*
X217335714Y-165122380D01*
X217573809Y-164074761D02*
X217811904Y-164789047D01*
X217192857Y-164789047D01*
X216335714Y-164122380D02*
X216811904Y-164122380D01*
X216859523Y-164598571D01*
X216811904Y-164550952D01*
X216716666Y-164503333D01*
X216478571Y-164503333D01*
X216383333Y-164550952D01*
X216335714Y-164598571D01*
X216288095Y-164693809D01*
X216288095Y-164931904D01*
X216335714Y-165027142D01*
X216383333Y-165074761D01*
X216478571Y-165122380D01*
X216716666Y-165122380D01*
X216811904Y-165074761D01*
X216859523Y-165027142D01*
X257204285Y-165122380D02*
X257204285Y-164122380D01*
X256966190Y-164122380D01*
X256823333Y-164170000D01*
X256728095Y-164265238D01*
X256680476Y-164360476D01*
X256632857Y-164550952D01*
X256632857Y-164693809D01*
X256680476Y-164884285D01*
X256728095Y-164979523D01*
X256823333Y-165074761D01*
X256966190Y-165122380D01*
X257204285Y-165122380D01*
X255775714Y-164455714D02*
X255775714Y-165122380D01*
X256013809Y-164074761D02*
X256251904Y-164789047D01*
X255632857Y-164789047D01*
X254823333Y-164122380D02*
X255013809Y-164122380D01*
X255109047Y-164170000D01*
X255156666Y-164217619D01*
X255251904Y-164360476D01*
X255299523Y-164550952D01*
X255299523Y-164931904D01*
X255251904Y-165027142D01*
X255204285Y-165074761D01*
X255109047Y-165122380D01*
X254918571Y-165122380D01*
X254823333Y-165074761D01*
X254775714Y-165027142D01*
X254728095Y-164931904D01*
X254728095Y-164693809D01*
X254775714Y-164598571D01*
X254823333Y-164550952D01*
X254918571Y-164503333D01*
X255109047Y-164503333D01*
X255204285Y-164550952D01*
X255251904Y-164598571D01*
X255299523Y-164693809D01*
X295494285Y-165162380D02*
X295494285Y-164162380D01*
X295256190Y-164162380D01*
X295113333Y-164210000D01*
X295018095Y-164305238D01*
X294970476Y-164400476D01*
X294922857Y-164590952D01*
X294922857Y-164733809D01*
X294970476Y-164924285D01*
X295018095Y-165019523D01*
X295113333Y-165114761D01*
X295256190Y-165162380D01*
X295494285Y-165162380D01*
X294065714Y-164495714D02*
X294065714Y-165162380D01*
X294303809Y-164114761D02*
X294541904Y-164829047D01*
X293922857Y-164829047D01*
X293637142Y-164162380D02*
X292970476Y-164162380D01*
X293399047Y-165162380D01*
X382784285Y-146462380D02*
X382784285Y-145462380D01*
X382546190Y-145462380D01*
X382403333Y-145510000D01*
X382308095Y-145605238D01*
X382260476Y-145700476D01*
X382212857Y-145890952D01*
X382212857Y-146033809D01*
X382260476Y-146224285D01*
X382308095Y-146319523D01*
X382403333Y-146414761D01*
X382546190Y-146462380D01*
X382784285Y-146462380D01*
X381355714Y-145795714D02*
X381355714Y-146462380D01*
X381593809Y-145414761D02*
X381831904Y-146129047D01*
X381212857Y-146129047D01*
X380689047Y-145890952D02*
X380784285Y-145843333D01*
X380831904Y-145795714D01*
X380879523Y-145700476D01*
X380879523Y-145652857D01*
X380831904Y-145557619D01*
X380784285Y-145510000D01*
X380689047Y-145462380D01*
X380498571Y-145462380D01*
X380403333Y-145510000D01*
X380355714Y-145557619D01*
X380308095Y-145652857D01*
X380308095Y-145700476D01*
X380355714Y-145795714D01*
X380403333Y-145843333D01*
X380498571Y-145890952D01*
X380689047Y-145890952D01*
X380784285Y-145938571D01*
X380831904Y-145986190D01*
X380879523Y-146081428D01*
X380879523Y-146271904D01*
X380831904Y-146367142D01*
X380784285Y-146414761D01*
X380689047Y-146462380D01*
X380498571Y-146462380D01*
X380403333Y-146414761D01*
X380355714Y-146367142D01*
X380308095Y-146271904D01*
X380308095Y-146081428D01*
X380355714Y-145986190D01*
X380403333Y-145938571D01*
X380498571Y-145890952D01*
X78594285Y-145962380D02*
X78594285Y-144962380D01*
X78356190Y-144962380D01*
X78213333Y-145010000D01*
X78118095Y-145105238D01*
X78070476Y-145200476D01*
X78022857Y-145390952D01*
X78022857Y-145533809D01*
X78070476Y-145724285D01*
X78118095Y-145819523D01*
X78213333Y-145914761D01*
X78356190Y-145962380D01*
X78594285Y-145962380D01*
X77165714Y-145295714D02*
X77165714Y-145962380D01*
X77403809Y-144914761D02*
X77641904Y-145629047D01*
X77022857Y-145629047D01*
X76594285Y-145962380D02*
X76403809Y-145962380D01*
X76308571Y-145914761D01*
X76260952Y-145867142D01*
X76165714Y-145724285D01*
X76118095Y-145533809D01*
X76118095Y-145152857D01*
X76165714Y-145057619D01*
X76213333Y-145010000D01*
X76308571Y-144962380D01*
X76499047Y-144962380D01*
X76594285Y-145010000D01*
X76641904Y-145057619D01*
X76689523Y-145152857D01*
X76689523Y-145390952D01*
X76641904Y-145486190D01*
X76594285Y-145533809D01*
X76499047Y-145581428D01*
X76308571Y-145581428D01*
X76213333Y-145533809D01*
X76165714Y-145486190D01*
X76118095Y-145390952D01*
X117074285Y-145962380D02*
X117074285Y-144962380D01*
X116836190Y-144962380D01*
X116693333Y-145010000D01*
X116598095Y-145105238D01*
X116550476Y-145200476D01*
X116502857Y-145390952D01*
X116502857Y-145533809D01*
X116550476Y-145724285D01*
X116598095Y-145819523D01*
X116693333Y-145914761D01*
X116836190Y-145962380D01*
X117074285Y-145962380D01*
X115598095Y-144962380D02*
X116074285Y-144962380D01*
X116121904Y-145438571D01*
X116074285Y-145390952D01*
X115979047Y-145343333D01*
X115740952Y-145343333D01*
X115645714Y-145390952D01*
X115598095Y-145438571D01*
X115550476Y-145533809D01*
X115550476Y-145771904D01*
X115598095Y-145867142D01*
X115645714Y-145914761D01*
X115740952Y-145962380D01*
X115979047Y-145962380D01*
X116074285Y-145914761D01*
X116121904Y-145867142D01*
X114931428Y-144962380D02*
X114836190Y-144962380D01*
X114740952Y-145010000D01*
X114693333Y-145057619D01*
X114645714Y-145152857D01*
X114598095Y-145343333D01*
X114598095Y-145581428D01*
X114645714Y-145771904D01*
X114693333Y-145867142D01*
X114740952Y-145914761D01*
X114836190Y-145962380D01*
X114931428Y-145962380D01*
X115026666Y-145914761D01*
X115074285Y-145867142D01*
X115121904Y-145771904D01*
X115169523Y-145581428D01*
X115169523Y-145343333D01*
X115121904Y-145152857D01*
X115074285Y-145057619D01*
X115026666Y-145010000D01*
X114931428Y-144962380D01*
X155474285Y-146002380D02*
X155474285Y-145002380D01*
X155236190Y-145002380D01*
X155093333Y-145050000D01*
X154998095Y-145145238D01*
X154950476Y-145240476D01*
X154902857Y-145430952D01*
X154902857Y-145573809D01*
X154950476Y-145764285D01*
X154998095Y-145859523D01*
X155093333Y-145954761D01*
X155236190Y-146002380D01*
X155474285Y-146002380D01*
X153998095Y-145002380D02*
X154474285Y-145002380D01*
X154521904Y-145478571D01*
X154474285Y-145430952D01*
X154379047Y-145383333D01*
X154140952Y-145383333D01*
X154045714Y-145430952D01*
X153998095Y-145478571D01*
X153950476Y-145573809D01*
X153950476Y-145811904D01*
X153998095Y-145907142D01*
X154045714Y-145954761D01*
X154140952Y-146002380D01*
X154379047Y-146002380D01*
X154474285Y-145954761D01*
X154521904Y-145907142D01*
X152998095Y-146002380D02*
X153569523Y-146002380D01*
X153283809Y-146002380D02*
X153283809Y-145002380D01*
X153379047Y-145145238D01*
X153474285Y-145240476D01*
X153569523Y-145288095D01*
X193804285Y-145962380D02*
X193804285Y-144962380D01*
X193566190Y-144962380D01*
X193423333Y-145010000D01*
X193328095Y-145105238D01*
X193280476Y-145200476D01*
X193232857Y-145390952D01*
X193232857Y-145533809D01*
X193280476Y-145724285D01*
X193328095Y-145819523D01*
X193423333Y-145914761D01*
X193566190Y-145962380D01*
X193804285Y-145962380D01*
X192328095Y-144962380D02*
X192804285Y-144962380D01*
X192851904Y-145438571D01*
X192804285Y-145390952D01*
X192709047Y-145343333D01*
X192470952Y-145343333D01*
X192375714Y-145390952D01*
X192328095Y-145438571D01*
X192280476Y-145533809D01*
X192280476Y-145771904D01*
X192328095Y-145867142D01*
X192375714Y-145914761D01*
X192470952Y-145962380D01*
X192709047Y-145962380D01*
X192804285Y-145914761D01*
X192851904Y-145867142D01*
X191899523Y-145057619D02*
X191851904Y-145010000D01*
X191756666Y-144962380D01*
X191518571Y-144962380D01*
X191423333Y-145010000D01*
X191375714Y-145057619D01*
X191328095Y-145152857D01*
X191328095Y-145248095D01*
X191375714Y-145390952D01*
X191947142Y-145962380D01*
X191328095Y-145962380D01*
X232244285Y-145962380D02*
X232244285Y-144962380D01*
X232006190Y-144962380D01*
X231863333Y-145010000D01*
X231768095Y-145105238D01*
X231720476Y-145200476D01*
X231672857Y-145390952D01*
X231672857Y-145533809D01*
X231720476Y-145724285D01*
X231768095Y-145819523D01*
X231863333Y-145914761D01*
X232006190Y-145962380D01*
X232244285Y-145962380D01*
X230768095Y-144962380D02*
X231244285Y-144962380D01*
X231291904Y-145438571D01*
X231244285Y-145390952D01*
X231149047Y-145343333D01*
X230910952Y-145343333D01*
X230815714Y-145390952D01*
X230768095Y-145438571D01*
X230720476Y-145533809D01*
X230720476Y-145771904D01*
X230768095Y-145867142D01*
X230815714Y-145914761D01*
X230910952Y-145962380D01*
X231149047Y-145962380D01*
X231244285Y-145914761D01*
X231291904Y-145867142D01*
X230387142Y-144962380D02*
X229768095Y-144962380D01*
X230101428Y-145343333D01*
X229958571Y-145343333D01*
X229863333Y-145390952D01*
X229815714Y-145438571D01*
X229768095Y-145533809D01*
X229768095Y-145771904D01*
X229815714Y-145867142D01*
X229863333Y-145914761D01*
X229958571Y-145962380D01*
X230244285Y-145962380D01*
X230339523Y-145914761D01*
X230387142Y-145867142D01*
X270654285Y-145962380D02*
X270654285Y-144962380D01*
X270416190Y-144962380D01*
X270273333Y-145010000D01*
X270178095Y-145105238D01*
X270130476Y-145200476D01*
X270082857Y-145390952D01*
X270082857Y-145533809D01*
X270130476Y-145724285D01*
X270178095Y-145819523D01*
X270273333Y-145914761D01*
X270416190Y-145962380D01*
X270654285Y-145962380D01*
X269178095Y-144962380D02*
X269654285Y-144962380D01*
X269701904Y-145438571D01*
X269654285Y-145390952D01*
X269559047Y-145343333D01*
X269320952Y-145343333D01*
X269225714Y-145390952D01*
X269178095Y-145438571D01*
X269130476Y-145533809D01*
X269130476Y-145771904D01*
X269178095Y-145867142D01*
X269225714Y-145914761D01*
X269320952Y-145962380D01*
X269559047Y-145962380D01*
X269654285Y-145914761D01*
X269701904Y-145867142D01*
X268273333Y-145295714D02*
X268273333Y-145962380D01*
X268511428Y-144914761D02*
X268749523Y-145629047D01*
X268130476Y-145629047D01*
X308944285Y-145962380D02*
X308944285Y-144962380D01*
X308706190Y-144962380D01*
X308563333Y-145010000D01*
X308468095Y-145105238D01*
X308420476Y-145200476D01*
X308372857Y-145390952D01*
X308372857Y-145533809D01*
X308420476Y-145724285D01*
X308468095Y-145819523D01*
X308563333Y-145914761D01*
X308706190Y-145962380D01*
X308944285Y-145962380D01*
X307468095Y-144962380D02*
X307944285Y-144962380D01*
X307991904Y-145438571D01*
X307944285Y-145390952D01*
X307849047Y-145343333D01*
X307610952Y-145343333D01*
X307515714Y-145390952D01*
X307468095Y-145438571D01*
X307420476Y-145533809D01*
X307420476Y-145771904D01*
X307468095Y-145867142D01*
X307515714Y-145914761D01*
X307610952Y-145962380D01*
X307849047Y-145962380D01*
X307944285Y-145914761D01*
X307991904Y-145867142D01*
X306515714Y-144962380D02*
X306991904Y-144962380D01*
X307039523Y-145438571D01*
X306991904Y-145390952D01*
X306896666Y-145343333D01*
X306658571Y-145343333D01*
X306563333Y-145390952D01*
X306515714Y-145438571D01*
X306468095Y-145533809D01*
X306468095Y-145771904D01*
X306515714Y-145867142D01*
X306563333Y-145914761D01*
X306658571Y-145962380D01*
X306896666Y-145962380D01*
X306991904Y-145914761D01*
X307039523Y-145867142D01*
X382784285Y-165772380D02*
X382784285Y-164772380D01*
X382546190Y-164772380D01*
X382403333Y-164820000D01*
X382308095Y-164915238D01*
X382260476Y-165010476D01*
X382212857Y-165200952D01*
X382212857Y-165343809D01*
X382260476Y-165534285D01*
X382308095Y-165629523D01*
X382403333Y-165724761D01*
X382546190Y-165772380D01*
X382784285Y-165772380D01*
X381308095Y-164772380D02*
X381784285Y-164772380D01*
X381831904Y-165248571D01*
X381784285Y-165200952D01*
X381689047Y-165153333D01*
X381450952Y-165153333D01*
X381355714Y-165200952D01*
X381308095Y-165248571D01*
X381260476Y-165343809D01*
X381260476Y-165581904D01*
X381308095Y-165677142D01*
X381355714Y-165724761D01*
X381450952Y-165772380D01*
X381689047Y-165772380D01*
X381784285Y-165724761D01*
X381831904Y-165677142D01*
X380403333Y-164772380D02*
X380593809Y-164772380D01*
X380689047Y-164820000D01*
X380736666Y-164867619D01*
X380831904Y-165010476D01*
X380879523Y-165200952D01*
X380879523Y-165581904D01*
X380831904Y-165677142D01*
X380784285Y-165724761D01*
X380689047Y-165772380D01*
X380498571Y-165772380D01*
X380403333Y-165724761D01*
X380355714Y-165677142D01*
X380308095Y-165581904D01*
X380308095Y-165343809D01*
X380355714Y-165248571D01*
X380403333Y-165200952D01*
X380498571Y-165153333D01*
X380689047Y-165153333D01*
X380784285Y-165200952D01*
X380831904Y-165248571D01*
X380879523Y-165343809D01*
X88194285Y-126762380D02*
X88194285Y-125762380D01*
X87956190Y-125762380D01*
X87813333Y-125810000D01*
X87718095Y-125905238D01*
X87670476Y-126000476D01*
X87622857Y-126190952D01*
X87622857Y-126333809D01*
X87670476Y-126524285D01*
X87718095Y-126619523D01*
X87813333Y-126714761D01*
X87956190Y-126762380D01*
X88194285Y-126762380D01*
X86718095Y-125762380D02*
X87194285Y-125762380D01*
X87241904Y-126238571D01*
X87194285Y-126190952D01*
X87099047Y-126143333D01*
X86860952Y-126143333D01*
X86765714Y-126190952D01*
X86718095Y-126238571D01*
X86670476Y-126333809D01*
X86670476Y-126571904D01*
X86718095Y-126667142D01*
X86765714Y-126714761D01*
X86860952Y-126762380D01*
X87099047Y-126762380D01*
X87194285Y-126714761D01*
X87241904Y-126667142D01*
X86337142Y-125762380D02*
X85670476Y-125762380D01*
X86099047Y-126762380D01*
X126554285Y-126722380D02*
X126554285Y-125722380D01*
X126316190Y-125722380D01*
X126173333Y-125770000D01*
X126078095Y-125865238D01*
X126030476Y-125960476D01*
X125982857Y-126150952D01*
X125982857Y-126293809D01*
X126030476Y-126484285D01*
X126078095Y-126579523D01*
X126173333Y-126674761D01*
X126316190Y-126722380D01*
X126554285Y-126722380D01*
X125078095Y-125722380D02*
X125554285Y-125722380D01*
X125601904Y-126198571D01*
X125554285Y-126150952D01*
X125459047Y-126103333D01*
X125220952Y-126103333D01*
X125125714Y-126150952D01*
X125078095Y-126198571D01*
X125030476Y-126293809D01*
X125030476Y-126531904D01*
X125078095Y-126627142D01*
X125125714Y-126674761D01*
X125220952Y-126722380D01*
X125459047Y-126722380D01*
X125554285Y-126674761D01*
X125601904Y-126627142D01*
X124459047Y-126150952D02*
X124554285Y-126103333D01*
X124601904Y-126055714D01*
X124649523Y-125960476D01*
X124649523Y-125912857D01*
X124601904Y-125817619D01*
X124554285Y-125770000D01*
X124459047Y-125722380D01*
X124268571Y-125722380D01*
X124173333Y-125770000D01*
X124125714Y-125817619D01*
X124078095Y-125912857D01*
X124078095Y-125960476D01*
X124125714Y-126055714D01*
X124173333Y-126103333D01*
X124268571Y-126150952D01*
X124459047Y-126150952D01*
X124554285Y-126198571D01*
X124601904Y-126246190D01*
X124649523Y-126341428D01*
X124649523Y-126531904D01*
X124601904Y-126627142D01*
X124554285Y-126674761D01*
X124459047Y-126722380D01*
X124268571Y-126722380D01*
X124173333Y-126674761D01*
X124125714Y-126627142D01*
X124078095Y-126531904D01*
X124078095Y-126341428D01*
X124125714Y-126246190D01*
X124173333Y-126198571D01*
X124268571Y-126150952D01*
X164964285Y-126762380D02*
X164964285Y-125762380D01*
X164726190Y-125762380D01*
X164583333Y-125810000D01*
X164488095Y-125905238D01*
X164440476Y-126000476D01*
X164392857Y-126190952D01*
X164392857Y-126333809D01*
X164440476Y-126524285D01*
X164488095Y-126619523D01*
X164583333Y-126714761D01*
X164726190Y-126762380D01*
X164964285Y-126762380D01*
X163488095Y-125762380D02*
X163964285Y-125762380D01*
X164011904Y-126238571D01*
X163964285Y-126190952D01*
X163869047Y-126143333D01*
X163630952Y-126143333D01*
X163535714Y-126190952D01*
X163488095Y-126238571D01*
X163440476Y-126333809D01*
X163440476Y-126571904D01*
X163488095Y-126667142D01*
X163535714Y-126714761D01*
X163630952Y-126762380D01*
X163869047Y-126762380D01*
X163964285Y-126714761D01*
X164011904Y-126667142D01*
X162964285Y-126762380D02*
X162773809Y-126762380D01*
X162678571Y-126714761D01*
X162630952Y-126667142D01*
X162535714Y-126524285D01*
X162488095Y-126333809D01*
X162488095Y-125952857D01*
X162535714Y-125857619D01*
X162583333Y-125810000D01*
X162678571Y-125762380D01*
X162869047Y-125762380D01*
X162964285Y-125810000D01*
X163011904Y-125857619D01*
X163059523Y-125952857D01*
X163059523Y-126190952D01*
X163011904Y-126286190D01*
X162964285Y-126333809D01*
X162869047Y-126381428D01*
X162678571Y-126381428D01*
X162583333Y-126333809D01*
X162535714Y-126286190D01*
X162488095Y-126190952D01*
X203294285Y-126722380D02*
X203294285Y-125722380D01*
X203056190Y-125722380D01*
X202913333Y-125770000D01*
X202818095Y-125865238D01*
X202770476Y-125960476D01*
X202722857Y-126150952D01*
X202722857Y-126293809D01*
X202770476Y-126484285D01*
X202818095Y-126579523D01*
X202913333Y-126674761D01*
X203056190Y-126722380D01*
X203294285Y-126722380D01*
X201865714Y-125722380D02*
X202056190Y-125722380D01*
X202151428Y-125770000D01*
X202199047Y-125817619D01*
X202294285Y-125960476D01*
X202341904Y-126150952D01*
X202341904Y-126531904D01*
X202294285Y-126627142D01*
X202246666Y-126674761D01*
X202151428Y-126722380D01*
X201960952Y-126722380D01*
X201865714Y-126674761D01*
X201818095Y-126627142D01*
X201770476Y-126531904D01*
X201770476Y-126293809D01*
X201818095Y-126198571D01*
X201865714Y-126150952D01*
X201960952Y-126103333D01*
X202151428Y-126103333D01*
X202246666Y-126150952D01*
X202294285Y-126198571D01*
X202341904Y-126293809D01*
X201151428Y-125722380D02*
X201056190Y-125722380D01*
X200960952Y-125770000D01*
X200913333Y-125817619D01*
X200865714Y-125912857D01*
X200818095Y-126103333D01*
X200818095Y-126341428D01*
X200865714Y-126531904D01*
X200913333Y-126627142D01*
X200960952Y-126674761D01*
X201056190Y-126722380D01*
X201151428Y-126722380D01*
X201246666Y-126674761D01*
X201294285Y-126627142D01*
X201341904Y-126531904D01*
X201389523Y-126341428D01*
X201389523Y-126103333D01*
X201341904Y-125912857D01*
X201294285Y-125817619D01*
X201246666Y-125770000D01*
X201151428Y-125722380D01*
X241774285Y-126802380D02*
X241774285Y-125802380D01*
X241536190Y-125802380D01*
X241393333Y-125850000D01*
X241298095Y-125945238D01*
X241250476Y-126040476D01*
X241202857Y-126230952D01*
X241202857Y-126373809D01*
X241250476Y-126564285D01*
X241298095Y-126659523D01*
X241393333Y-126754761D01*
X241536190Y-126802380D01*
X241774285Y-126802380D01*
X240345714Y-125802380D02*
X240536190Y-125802380D01*
X240631428Y-125850000D01*
X240679047Y-125897619D01*
X240774285Y-126040476D01*
X240821904Y-126230952D01*
X240821904Y-126611904D01*
X240774285Y-126707142D01*
X240726666Y-126754761D01*
X240631428Y-126802380D01*
X240440952Y-126802380D01*
X240345714Y-126754761D01*
X240298095Y-126707142D01*
X240250476Y-126611904D01*
X240250476Y-126373809D01*
X240298095Y-126278571D01*
X240345714Y-126230952D01*
X240440952Y-126183333D01*
X240631428Y-126183333D01*
X240726666Y-126230952D01*
X240774285Y-126278571D01*
X240821904Y-126373809D01*
X239298095Y-126802380D02*
X239869523Y-126802380D01*
X239583809Y-126802380D02*
X239583809Y-125802380D01*
X239679047Y-125945238D01*
X239774285Y-126040476D01*
X239869523Y-126088095D01*
X280134285Y-126762380D02*
X280134285Y-125762380D01*
X279896190Y-125762380D01*
X279753333Y-125810000D01*
X279658095Y-125905238D01*
X279610476Y-126000476D01*
X279562857Y-126190952D01*
X279562857Y-126333809D01*
X279610476Y-126524285D01*
X279658095Y-126619523D01*
X279753333Y-126714761D01*
X279896190Y-126762380D01*
X280134285Y-126762380D01*
X278705714Y-125762380D02*
X278896190Y-125762380D01*
X278991428Y-125810000D01*
X279039047Y-125857619D01*
X279134285Y-126000476D01*
X279181904Y-126190952D01*
X279181904Y-126571904D01*
X279134285Y-126667142D01*
X279086666Y-126714761D01*
X278991428Y-126762380D01*
X278800952Y-126762380D01*
X278705714Y-126714761D01*
X278658095Y-126667142D01*
X278610476Y-126571904D01*
X278610476Y-126333809D01*
X278658095Y-126238571D01*
X278705714Y-126190952D01*
X278800952Y-126143333D01*
X278991428Y-126143333D01*
X279086666Y-126190952D01*
X279134285Y-126238571D01*
X279181904Y-126333809D01*
X278229523Y-125857619D02*
X278181904Y-125810000D01*
X278086666Y-125762380D01*
X277848571Y-125762380D01*
X277753333Y-125810000D01*
X277705714Y-125857619D01*
X277658095Y-125952857D01*
X277658095Y-126048095D01*
X277705714Y-126190952D01*
X278277142Y-126762380D01*
X277658095Y-126762380D01*
X318464285Y-126762380D02*
X318464285Y-125762380D01*
X318226190Y-125762380D01*
X318083333Y-125810000D01*
X317988095Y-125905238D01*
X317940476Y-126000476D01*
X317892857Y-126190952D01*
X317892857Y-126333809D01*
X317940476Y-126524285D01*
X317988095Y-126619523D01*
X318083333Y-126714761D01*
X318226190Y-126762380D01*
X318464285Y-126762380D01*
X317035714Y-125762380D02*
X317226190Y-125762380D01*
X317321428Y-125810000D01*
X317369047Y-125857619D01*
X317464285Y-126000476D01*
X317511904Y-126190952D01*
X317511904Y-126571904D01*
X317464285Y-126667142D01*
X317416666Y-126714761D01*
X317321428Y-126762380D01*
X317130952Y-126762380D01*
X317035714Y-126714761D01*
X316988095Y-126667142D01*
X316940476Y-126571904D01*
X316940476Y-126333809D01*
X316988095Y-126238571D01*
X317035714Y-126190952D01*
X317130952Y-126143333D01*
X317321428Y-126143333D01*
X317416666Y-126190952D01*
X317464285Y-126238571D01*
X317511904Y-126333809D01*
X316607142Y-125762380D02*
X315988095Y-125762380D01*
X316321428Y-126143333D01*
X316178571Y-126143333D01*
X316083333Y-126190952D01*
X316035714Y-126238571D01*
X315988095Y-126333809D01*
X315988095Y-126571904D01*
X316035714Y-126667142D01*
X316083333Y-126714761D01*
X316178571Y-126762380D01*
X316464285Y-126762380D01*
X316559523Y-126714761D01*
X316607142Y-126667142D01*
X382784285Y-185052380D02*
X382784285Y-184052380D01*
X382546190Y-184052380D01*
X382403333Y-184100000D01*
X382308095Y-184195238D01*
X382260476Y-184290476D01*
X382212857Y-184480952D01*
X382212857Y-184623809D01*
X382260476Y-184814285D01*
X382308095Y-184909523D01*
X382403333Y-185004761D01*
X382546190Y-185052380D01*
X382784285Y-185052380D01*
X381355714Y-184052380D02*
X381546190Y-184052380D01*
X381641428Y-184100000D01*
X381689047Y-184147619D01*
X381784285Y-184290476D01*
X381831904Y-184480952D01*
X381831904Y-184861904D01*
X381784285Y-184957142D01*
X381736666Y-185004761D01*
X381641428Y-185052380D01*
X381450952Y-185052380D01*
X381355714Y-185004761D01*
X381308095Y-184957142D01*
X381260476Y-184861904D01*
X381260476Y-184623809D01*
X381308095Y-184528571D01*
X381355714Y-184480952D01*
X381450952Y-184433333D01*
X381641428Y-184433333D01*
X381736666Y-184480952D01*
X381784285Y-184528571D01*
X381831904Y-184623809D01*
X380403333Y-184385714D02*
X380403333Y-185052380D01*
X380641428Y-184004761D02*
X380879523Y-184719047D01*
X380260476Y-184719047D01*
X67413333Y-141459761D02*
X67270476Y-141507380D01*
X67032380Y-141507380D01*
X66937142Y-141459761D01*
X66889523Y-141412142D01*
X66841904Y-141316904D01*
X66841904Y-141221666D01*
X66889523Y-141126428D01*
X66937142Y-141078809D01*
X67032380Y-141031190D01*
X67222857Y-140983571D01*
X67318095Y-140935952D01*
X67365714Y-140888333D01*
X67413333Y-140793095D01*
X67413333Y-140697857D01*
X67365714Y-140602619D01*
X67318095Y-140555000D01*
X67222857Y-140507380D01*
X66984761Y-140507380D01*
X66841904Y-140555000D01*
X66508571Y-140507380D02*
X66270476Y-141507380D01*
X66080000Y-140793095D01*
X65889523Y-141507380D01*
X65651428Y-140507380D01*
X64746666Y-141507380D02*
X65318095Y-141507380D01*
X65032380Y-141507380D02*
X65032380Y-140507380D01*
X65127619Y-140650238D01*
X65222857Y-140745476D01*
X65318095Y-140793095D01*
X105803333Y-141459761D02*
X105660476Y-141507380D01*
X105422380Y-141507380D01*
X105327142Y-141459761D01*
X105279523Y-141412142D01*
X105231904Y-141316904D01*
X105231904Y-141221666D01*
X105279523Y-141126428D01*
X105327142Y-141078809D01*
X105422380Y-141031190D01*
X105612857Y-140983571D01*
X105708095Y-140935952D01*
X105755714Y-140888333D01*
X105803333Y-140793095D01*
X105803333Y-140697857D01*
X105755714Y-140602619D01*
X105708095Y-140555000D01*
X105612857Y-140507380D01*
X105374761Y-140507380D01*
X105231904Y-140555000D01*
X104898571Y-140507380D02*
X104660476Y-141507380D01*
X104470000Y-140793095D01*
X104279523Y-141507380D01*
X104041428Y-140507380D01*
X103708095Y-140602619D02*
X103660476Y-140555000D01*
X103565238Y-140507380D01*
X103327142Y-140507380D01*
X103231904Y-140555000D01*
X103184285Y-140602619D01*
X103136666Y-140697857D01*
X103136666Y-140793095D01*
X103184285Y-140935952D01*
X103755714Y-141507380D01*
X103136666Y-141507380D01*
X144163333Y-141459761D02*
X144020476Y-141507380D01*
X143782380Y-141507380D01*
X143687142Y-141459761D01*
X143639523Y-141412142D01*
X143591904Y-141316904D01*
X143591904Y-141221666D01*
X143639523Y-141126428D01*
X143687142Y-141078809D01*
X143782380Y-141031190D01*
X143972857Y-140983571D01*
X144068095Y-140935952D01*
X144115714Y-140888333D01*
X144163333Y-140793095D01*
X144163333Y-140697857D01*
X144115714Y-140602619D01*
X144068095Y-140555000D01*
X143972857Y-140507380D01*
X143734761Y-140507380D01*
X143591904Y-140555000D01*
X143258571Y-140507380D02*
X143020476Y-141507380D01*
X142830000Y-140793095D01*
X142639523Y-141507380D01*
X142401428Y-140507380D01*
X142115714Y-140507380D02*
X141496666Y-140507380D01*
X141830000Y-140888333D01*
X141687142Y-140888333D01*
X141591904Y-140935952D01*
X141544285Y-140983571D01*
X141496666Y-141078809D01*
X141496666Y-141316904D01*
X141544285Y-141412142D01*
X141591904Y-141459761D01*
X141687142Y-141507380D01*
X141972857Y-141507380D01*
X142068095Y-141459761D01*
X142115714Y-141412142D01*
X182523333Y-141459761D02*
X182380476Y-141507380D01*
X182142380Y-141507380D01*
X182047142Y-141459761D01*
X181999523Y-141412142D01*
X181951904Y-141316904D01*
X181951904Y-141221666D01*
X181999523Y-141126428D01*
X182047142Y-141078809D01*
X182142380Y-141031190D01*
X182332857Y-140983571D01*
X182428095Y-140935952D01*
X182475714Y-140888333D01*
X182523333Y-140793095D01*
X182523333Y-140697857D01*
X182475714Y-140602619D01*
X182428095Y-140555000D01*
X182332857Y-140507380D01*
X182094761Y-140507380D01*
X181951904Y-140555000D01*
X181618571Y-140507380D02*
X181380476Y-141507380D01*
X181190000Y-140793095D01*
X180999523Y-141507380D01*
X180761428Y-140507380D01*
X179951904Y-140840714D02*
X179951904Y-141507380D01*
X180190000Y-140459761D02*
X180428095Y-141174047D01*
X179809047Y-141174047D01*
X220923333Y-141459761D02*
X220780476Y-141507380D01*
X220542380Y-141507380D01*
X220447142Y-141459761D01*
X220399523Y-141412142D01*
X220351904Y-141316904D01*
X220351904Y-141221666D01*
X220399523Y-141126428D01*
X220447142Y-141078809D01*
X220542380Y-141031190D01*
X220732857Y-140983571D01*
X220828095Y-140935952D01*
X220875714Y-140888333D01*
X220923333Y-140793095D01*
X220923333Y-140697857D01*
X220875714Y-140602619D01*
X220828095Y-140555000D01*
X220732857Y-140507380D01*
X220494761Y-140507380D01*
X220351904Y-140555000D01*
X220018571Y-140507380D02*
X219780476Y-141507380D01*
X219590000Y-140793095D01*
X219399523Y-141507380D01*
X219161428Y-140507380D01*
X218304285Y-140507380D02*
X218780476Y-140507380D01*
X218828095Y-140983571D01*
X218780476Y-140935952D01*
X218685238Y-140888333D01*
X218447142Y-140888333D01*
X218351904Y-140935952D01*
X218304285Y-140983571D01*
X218256666Y-141078809D01*
X218256666Y-141316904D01*
X218304285Y-141412142D01*
X218351904Y-141459761D01*
X218447142Y-141507380D01*
X218685238Y-141507380D01*
X218780476Y-141459761D01*
X218828095Y-141412142D01*
X259293333Y-141459761D02*
X259150476Y-141507380D01*
X258912380Y-141507380D01*
X258817142Y-141459761D01*
X258769523Y-141412142D01*
X258721904Y-141316904D01*
X258721904Y-141221666D01*
X258769523Y-141126428D01*
X258817142Y-141078809D01*
X258912380Y-141031190D01*
X259102857Y-140983571D01*
X259198095Y-140935952D01*
X259245714Y-140888333D01*
X259293333Y-140793095D01*
X259293333Y-140697857D01*
X259245714Y-140602619D01*
X259198095Y-140555000D01*
X259102857Y-140507380D01*
X258864761Y-140507380D01*
X258721904Y-140555000D01*
X258388571Y-140507380D02*
X258150476Y-141507380D01*
X257960000Y-140793095D01*
X257769523Y-141507380D01*
X257531428Y-140507380D01*
X256721904Y-140507380D02*
X256912380Y-140507380D01*
X257007619Y-140555000D01*
X257055238Y-140602619D01*
X257150476Y-140745476D01*
X257198095Y-140935952D01*
X257198095Y-141316904D01*
X257150476Y-141412142D01*
X257102857Y-141459761D01*
X257007619Y-141507380D01*
X256817142Y-141507380D01*
X256721904Y-141459761D01*
X256674285Y-141412142D01*
X256626666Y-141316904D01*
X256626666Y-141078809D01*
X256674285Y-140983571D01*
X256721904Y-140935952D01*
X256817142Y-140888333D01*
X257007619Y-140888333D01*
X257102857Y-140935952D01*
X257150476Y-140983571D01*
X257198095Y-141078809D01*
X297673333Y-141459761D02*
X297530476Y-141507380D01*
X297292380Y-141507380D01*
X297197142Y-141459761D01*
X297149523Y-141412142D01*
X297101904Y-141316904D01*
X297101904Y-141221666D01*
X297149523Y-141126428D01*
X297197142Y-141078809D01*
X297292380Y-141031190D01*
X297482857Y-140983571D01*
X297578095Y-140935952D01*
X297625714Y-140888333D01*
X297673333Y-140793095D01*
X297673333Y-140697857D01*
X297625714Y-140602619D01*
X297578095Y-140555000D01*
X297482857Y-140507380D01*
X297244761Y-140507380D01*
X297101904Y-140555000D01*
X296768571Y-140507380D02*
X296530476Y-141507380D01*
X296340000Y-140793095D01*
X296149523Y-141507380D01*
X295911428Y-140507380D01*
X295625714Y-140507380D02*
X294959047Y-140507380D01*
X295387619Y-141507380D01*
X336053333Y-141459761D02*
X335910476Y-141507380D01*
X335672380Y-141507380D01*
X335577142Y-141459761D01*
X335529523Y-141412142D01*
X335481904Y-141316904D01*
X335481904Y-141221666D01*
X335529523Y-141126428D01*
X335577142Y-141078809D01*
X335672380Y-141031190D01*
X335862857Y-140983571D01*
X335958095Y-140935952D01*
X336005714Y-140888333D01*
X336053333Y-140793095D01*
X336053333Y-140697857D01*
X336005714Y-140602619D01*
X335958095Y-140555000D01*
X335862857Y-140507380D01*
X335624761Y-140507380D01*
X335481904Y-140555000D01*
X335148571Y-140507380D02*
X334910476Y-141507380D01*
X334720000Y-140793095D01*
X334529523Y-141507380D01*
X334291428Y-140507380D01*
X333767619Y-140935952D02*
X333862857Y-140888333D01*
X333910476Y-140840714D01*
X333958095Y-140745476D01*
X333958095Y-140697857D01*
X333910476Y-140602619D01*
X333862857Y-140555000D01*
X333767619Y-140507380D01*
X333577142Y-140507380D01*
X333481904Y-140555000D01*
X333434285Y-140602619D01*
X333386666Y-140697857D01*
X333386666Y-140745476D01*
X333434285Y-140840714D01*
X333481904Y-140888333D01*
X333577142Y-140935952D01*
X333767619Y-140935952D01*
X333862857Y-140983571D01*
X333910476Y-141031190D01*
X333958095Y-141126428D01*
X333958095Y-141316904D01*
X333910476Y-141412142D01*
X333862857Y-141459761D01*
X333767619Y-141507380D01*
X333577142Y-141507380D01*
X333481904Y-141459761D01*
X333434285Y-141412142D01*
X333386666Y-141316904D01*
X333386666Y-141126428D01*
X333434285Y-141031190D01*
X333481904Y-140983571D01*
X333577142Y-140935952D01*
X48273333Y-141459761D02*
X48130476Y-141507380D01*
X47892380Y-141507380D01*
X47797142Y-141459761D01*
X47749523Y-141412142D01*
X47701904Y-141316904D01*
X47701904Y-141221666D01*
X47749523Y-141126428D01*
X47797142Y-141078809D01*
X47892380Y-141031190D01*
X48082857Y-140983571D01*
X48178095Y-140935952D01*
X48225714Y-140888333D01*
X48273333Y-140793095D01*
X48273333Y-140697857D01*
X48225714Y-140602619D01*
X48178095Y-140555000D01*
X48082857Y-140507380D01*
X47844761Y-140507380D01*
X47701904Y-140555000D01*
X47368571Y-140507380D02*
X47130476Y-141507380D01*
X46940000Y-140793095D01*
X46749523Y-141507380D01*
X46511428Y-140507380D01*
X46082857Y-141507380D02*
X45892380Y-141507380D01*
X45797142Y-141459761D01*
X45749523Y-141412142D01*
X45654285Y-141269285D01*
X45606666Y-141078809D01*
X45606666Y-140697857D01*
X45654285Y-140602619D01*
X45701904Y-140555000D01*
X45797142Y-140507380D01*
X45987619Y-140507380D01*
X46082857Y-140555000D01*
X46130476Y-140602619D01*
X46178095Y-140697857D01*
X46178095Y-140935952D01*
X46130476Y-141031190D01*
X46082857Y-141078809D01*
X45987619Y-141126428D01*
X45797142Y-141126428D01*
X45701904Y-141078809D01*
X45654285Y-141031190D01*
X45606666Y-140935952D01*
X96679523Y-160659761D02*
X96536666Y-160707380D01*
X96298571Y-160707380D01*
X96203333Y-160659761D01*
X96155714Y-160612142D01*
X96108095Y-160516904D01*
X96108095Y-160421666D01*
X96155714Y-160326428D01*
X96203333Y-160278809D01*
X96298571Y-160231190D01*
X96489047Y-160183571D01*
X96584285Y-160135952D01*
X96631904Y-160088333D01*
X96679523Y-159993095D01*
X96679523Y-159897857D01*
X96631904Y-159802619D01*
X96584285Y-159755000D01*
X96489047Y-159707380D01*
X96250952Y-159707380D01*
X96108095Y-159755000D01*
X95774761Y-159707380D02*
X95536666Y-160707380D01*
X95346190Y-159993095D01*
X95155714Y-160707380D01*
X94917619Y-159707380D01*
X94012857Y-160707380D02*
X94584285Y-160707380D01*
X94298571Y-160707380D02*
X94298571Y-159707380D01*
X94393809Y-159850238D01*
X94489047Y-159945476D01*
X94584285Y-159993095D01*
X93393809Y-159707380D02*
X93298571Y-159707380D01*
X93203333Y-159755000D01*
X93155714Y-159802619D01*
X93108095Y-159897857D01*
X93060476Y-160088333D01*
X93060476Y-160326428D01*
X93108095Y-160516904D01*
X93155714Y-160612142D01*
X93203333Y-160659761D01*
X93298571Y-160707380D01*
X93393809Y-160707380D01*
X93489047Y-160659761D01*
X93536666Y-160612142D01*
X93584285Y-160516904D01*
X93631904Y-160326428D01*
X93631904Y-160088333D01*
X93584285Y-159897857D01*
X93536666Y-159802619D01*
X93489047Y-159755000D01*
X93393809Y-159707380D01*
X135079523Y-160659761D02*
X134936666Y-160707380D01*
X134698571Y-160707380D01*
X134603333Y-160659761D01*
X134555714Y-160612142D01*
X134508095Y-160516904D01*
X134508095Y-160421666D01*
X134555714Y-160326428D01*
X134603333Y-160278809D01*
X134698571Y-160231190D01*
X134889047Y-160183571D01*
X134984285Y-160135952D01*
X135031904Y-160088333D01*
X135079523Y-159993095D01*
X135079523Y-159897857D01*
X135031904Y-159802619D01*
X134984285Y-159755000D01*
X134889047Y-159707380D01*
X134650952Y-159707380D01*
X134508095Y-159755000D01*
X134174761Y-159707380D02*
X133936666Y-160707380D01*
X133746190Y-159993095D01*
X133555714Y-160707380D01*
X133317619Y-159707380D01*
X132412857Y-160707380D02*
X132984285Y-160707380D01*
X132698571Y-160707380D02*
X132698571Y-159707380D01*
X132793809Y-159850238D01*
X132889047Y-159945476D01*
X132984285Y-159993095D01*
X131460476Y-160707380D02*
X132031904Y-160707380D01*
X131746190Y-160707380D02*
X131746190Y-159707380D01*
X131841428Y-159850238D01*
X131936666Y-159945476D01*
X132031904Y-159993095D01*
X173469523Y-160659761D02*
X173326666Y-160707380D01*
X173088571Y-160707380D01*
X172993333Y-160659761D01*
X172945714Y-160612142D01*
X172898095Y-160516904D01*
X172898095Y-160421666D01*
X172945714Y-160326428D01*
X172993333Y-160278809D01*
X173088571Y-160231190D01*
X173279047Y-160183571D01*
X173374285Y-160135952D01*
X173421904Y-160088333D01*
X173469523Y-159993095D01*
X173469523Y-159897857D01*
X173421904Y-159802619D01*
X173374285Y-159755000D01*
X173279047Y-159707380D01*
X173040952Y-159707380D01*
X172898095Y-159755000D01*
X172564761Y-159707380D02*
X172326666Y-160707380D01*
X172136190Y-159993095D01*
X171945714Y-160707380D01*
X171707619Y-159707380D01*
X170802857Y-160707380D02*
X171374285Y-160707380D01*
X171088571Y-160707380D02*
X171088571Y-159707380D01*
X171183809Y-159850238D01*
X171279047Y-159945476D01*
X171374285Y-159993095D01*
X170421904Y-159802619D02*
X170374285Y-159755000D01*
X170279047Y-159707380D01*
X170040952Y-159707380D01*
X169945714Y-159755000D01*
X169898095Y-159802619D01*
X169850476Y-159897857D01*
X169850476Y-159993095D01*
X169898095Y-160135952D01*
X170469523Y-160707380D01*
X169850476Y-160707380D01*
X211829523Y-160659761D02*
X211686666Y-160707380D01*
X211448571Y-160707380D01*
X211353333Y-160659761D01*
X211305714Y-160612142D01*
X211258095Y-160516904D01*
X211258095Y-160421666D01*
X211305714Y-160326428D01*
X211353333Y-160278809D01*
X211448571Y-160231190D01*
X211639047Y-160183571D01*
X211734285Y-160135952D01*
X211781904Y-160088333D01*
X211829523Y-159993095D01*
X211829523Y-159897857D01*
X211781904Y-159802619D01*
X211734285Y-159755000D01*
X211639047Y-159707380D01*
X211400952Y-159707380D01*
X211258095Y-159755000D01*
X210924761Y-159707380D02*
X210686666Y-160707380D01*
X210496190Y-159993095D01*
X210305714Y-160707380D01*
X210067619Y-159707380D01*
X209162857Y-160707380D02*
X209734285Y-160707380D01*
X209448571Y-160707380D02*
X209448571Y-159707380D01*
X209543809Y-159850238D01*
X209639047Y-159945476D01*
X209734285Y-159993095D01*
X208829523Y-159707380D02*
X208210476Y-159707380D01*
X208543809Y-160088333D01*
X208400952Y-160088333D01*
X208305714Y-160135952D01*
X208258095Y-160183571D01*
X208210476Y-160278809D01*
X208210476Y-160516904D01*
X208258095Y-160612142D01*
X208305714Y-160659761D01*
X208400952Y-160707380D01*
X208686666Y-160707380D01*
X208781904Y-160659761D01*
X208829523Y-160612142D01*
X250239523Y-160659761D02*
X250096666Y-160707380D01*
X249858571Y-160707380D01*
X249763333Y-160659761D01*
X249715714Y-160612142D01*
X249668095Y-160516904D01*
X249668095Y-160421666D01*
X249715714Y-160326428D01*
X249763333Y-160278809D01*
X249858571Y-160231190D01*
X250049047Y-160183571D01*
X250144285Y-160135952D01*
X250191904Y-160088333D01*
X250239523Y-159993095D01*
X250239523Y-159897857D01*
X250191904Y-159802619D01*
X250144285Y-159755000D01*
X250049047Y-159707380D01*
X249810952Y-159707380D01*
X249668095Y-159755000D01*
X249334761Y-159707380D02*
X249096666Y-160707380D01*
X248906190Y-159993095D01*
X248715714Y-160707380D01*
X248477619Y-159707380D01*
X247572857Y-160707380D02*
X248144285Y-160707380D01*
X247858571Y-160707380D02*
X247858571Y-159707380D01*
X247953809Y-159850238D01*
X248049047Y-159945476D01*
X248144285Y-159993095D01*
X246715714Y-160040714D02*
X246715714Y-160707380D01*
X246953809Y-159659761D02*
X247191904Y-160374047D01*
X246572857Y-160374047D01*
X288649523Y-160669761D02*
X288506666Y-160717380D01*
X288268571Y-160717380D01*
X288173333Y-160669761D01*
X288125714Y-160622142D01*
X288078095Y-160526904D01*
X288078095Y-160431666D01*
X288125714Y-160336428D01*
X288173333Y-160288809D01*
X288268571Y-160241190D01*
X288459047Y-160193571D01*
X288554285Y-160145952D01*
X288601904Y-160098333D01*
X288649523Y-160003095D01*
X288649523Y-159907857D01*
X288601904Y-159812619D01*
X288554285Y-159765000D01*
X288459047Y-159717380D01*
X288220952Y-159717380D01*
X288078095Y-159765000D01*
X287744761Y-159717380D02*
X287506666Y-160717380D01*
X287316190Y-160003095D01*
X287125714Y-160717380D01*
X286887619Y-159717380D01*
X285982857Y-160717380D02*
X286554285Y-160717380D01*
X286268571Y-160717380D02*
X286268571Y-159717380D01*
X286363809Y-159860238D01*
X286459047Y-159955476D01*
X286554285Y-160003095D01*
X285078095Y-159717380D02*
X285554285Y-159717380D01*
X285601904Y-160193571D01*
X285554285Y-160145952D01*
X285459047Y-160098333D01*
X285220952Y-160098333D01*
X285125714Y-160145952D01*
X285078095Y-160193571D01*
X285030476Y-160288809D01*
X285030476Y-160526904D01*
X285078095Y-160622142D01*
X285125714Y-160669761D01*
X285220952Y-160717380D01*
X285459047Y-160717380D01*
X285554285Y-160669761D01*
X285601904Y-160622142D01*
X323109523Y-179819761D02*
X322966666Y-179867380D01*
X322728571Y-179867380D01*
X322633333Y-179819761D01*
X322585714Y-179772142D01*
X322538095Y-179676904D01*
X322538095Y-179581666D01*
X322585714Y-179486428D01*
X322633333Y-179438809D01*
X322728571Y-179391190D01*
X322919047Y-179343571D01*
X323014285Y-179295952D01*
X323061904Y-179248333D01*
X323109523Y-179153095D01*
X323109523Y-179057857D01*
X323061904Y-178962619D01*
X323014285Y-178915000D01*
X322919047Y-178867380D01*
X322680952Y-178867380D01*
X322538095Y-178915000D01*
X322204761Y-178867380D02*
X321966666Y-179867380D01*
X321776190Y-179153095D01*
X321585714Y-179867380D01*
X321347619Y-178867380D01*
X320442857Y-179867380D02*
X321014285Y-179867380D01*
X320728571Y-179867380D02*
X320728571Y-178867380D01*
X320823809Y-179010238D01*
X320919047Y-179105476D01*
X321014285Y-179153095D01*
X319585714Y-178867380D02*
X319776190Y-178867380D01*
X319871428Y-178915000D01*
X319919047Y-178962619D01*
X320014285Y-179105476D01*
X320061904Y-179295952D01*
X320061904Y-179676904D01*
X320014285Y-179772142D01*
X319966666Y-179819761D01*
X319871428Y-179867380D01*
X319680952Y-179867380D01*
X319585714Y-179819761D01*
X319538095Y-179772142D01*
X319490476Y-179676904D01*
X319490476Y-179438809D01*
X319538095Y-179343571D01*
X319585714Y-179295952D01*
X319680952Y-179248333D01*
X319871428Y-179248333D01*
X319966666Y-179295952D01*
X320014285Y-179343571D01*
X320061904Y-179438809D01*
X53519523Y-160659761D02*
X53376666Y-160707380D01*
X53138571Y-160707380D01*
X53043333Y-160659761D01*
X52995714Y-160612142D01*
X52948095Y-160516904D01*
X52948095Y-160421666D01*
X52995714Y-160326428D01*
X53043333Y-160278809D01*
X53138571Y-160231190D01*
X53329047Y-160183571D01*
X53424285Y-160135952D01*
X53471904Y-160088333D01*
X53519523Y-159993095D01*
X53519523Y-159897857D01*
X53471904Y-159802619D01*
X53424285Y-159755000D01*
X53329047Y-159707380D01*
X53090952Y-159707380D01*
X52948095Y-159755000D01*
X52614761Y-159707380D02*
X52376666Y-160707380D01*
X52186190Y-159993095D01*
X51995714Y-160707380D01*
X51757619Y-159707380D01*
X50852857Y-160707380D02*
X51424285Y-160707380D01*
X51138571Y-160707380D02*
X51138571Y-159707380D01*
X51233809Y-159850238D01*
X51329047Y-159945476D01*
X51424285Y-159993095D01*
X50519523Y-159707380D02*
X49852857Y-159707380D01*
X50281428Y-160707380D01*
X83349523Y-179839761D02*
X83206666Y-179887380D01*
X82968571Y-179887380D01*
X82873333Y-179839761D01*
X82825714Y-179792142D01*
X82778095Y-179696904D01*
X82778095Y-179601666D01*
X82825714Y-179506428D01*
X82873333Y-179458809D01*
X82968571Y-179411190D01*
X83159047Y-179363571D01*
X83254285Y-179315952D01*
X83301904Y-179268333D01*
X83349523Y-179173095D01*
X83349523Y-179077857D01*
X83301904Y-178982619D01*
X83254285Y-178935000D01*
X83159047Y-178887380D01*
X82920952Y-178887380D01*
X82778095Y-178935000D01*
X82444761Y-178887380D02*
X82206666Y-179887380D01*
X82016190Y-179173095D01*
X81825714Y-179887380D01*
X81587619Y-178887380D01*
X80682857Y-179887380D02*
X81254285Y-179887380D01*
X80968571Y-179887380D02*
X80968571Y-178887380D01*
X81063809Y-179030238D01*
X81159047Y-179125476D01*
X81254285Y-179173095D01*
X80111428Y-179315952D02*
X80206666Y-179268333D01*
X80254285Y-179220714D01*
X80301904Y-179125476D01*
X80301904Y-179077857D01*
X80254285Y-178982619D01*
X80206666Y-178935000D01*
X80111428Y-178887380D01*
X79920952Y-178887380D01*
X79825714Y-178935000D01*
X79778095Y-178982619D01*
X79730476Y-179077857D01*
X79730476Y-179125476D01*
X79778095Y-179220714D01*
X79825714Y-179268333D01*
X79920952Y-179315952D01*
X80111428Y-179315952D01*
X80206666Y-179363571D01*
X80254285Y-179411190D01*
X80301904Y-179506428D01*
X80301904Y-179696904D01*
X80254285Y-179792142D01*
X80206666Y-179839761D01*
X80111428Y-179887380D01*
X79920952Y-179887380D01*
X79825714Y-179839761D01*
X79778095Y-179792142D01*
X79730476Y-179696904D01*
X79730476Y-179506428D01*
X79778095Y-179411190D01*
X79825714Y-179363571D01*
X79920952Y-179315952D01*
X121709523Y-179819761D02*
X121566666Y-179867380D01*
X121328571Y-179867380D01*
X121233333Y-179819761D01*
X121185714Y-179772142D01*
X121138095Y-179676904D01*
X121138095Y-179581666D01*
X121185714Y-179486428D01*
X121233333Y-179438809D01*
X121328571Y-179391190D01*
X121519047Y-179343571D01*
X121614285Y-179295952D01*
X121661904Y-179248333D01*
X121709523Y-179153095D01*
X121709523Y-179057857D01*
X121661904Y-178962619D01*
X121614285Y-178915000D01*
X121519047Y-178867380D01*
X121280952Y-178867380D01*
X121138095Y-178915000D01*
X120804761Y-178867380D02*
X120566666Y-179867380D01*
X120376190Y-179153095D01*
X120185714Y-179867380D01*
X119947619Y-178867380D01*
X119042857Y-179867380D02*
X119614285Y-179867380D01*
X119328571Y-179867380D02*
X119328571Y-178867380D01*
X119423809Y-179010238D01*
X119519047Y-179105476D01*
X119614285Y-179153095D01*
X118566666Y-179867380D02*
X118376190Y-179867380D01*
X118280952Y-179819761D01*
X118233333Y-179772142D01*
X118138095Y-179629285D01*
X118090476Y-179438809D01*
X118090476Y-179057857D01*
X118138095Y-178962619D01*
X118185714Y-178915000D01*
X118280952Y-178867380D01*
X118471428Y-178867380D01*
X118566666Y-178915000D01*
X118614285Y-178962619D01*
X118661904Y-179057857D01*
X118661904Y-179295952D01*
X118614285Y-179391190D01*
X118566666Y-179438809D01*
X118471428Y-179486428D01*
X118280952Y-179486428D01*
X118185714Y-179438809D01*
X118138095Y-179391190D01*
X118090476Y-179295952D01*
X160099523Y-179819761D02*
X159956666Y-179867380D01*
X159718571Y-179867380D01*
X159623333Y-179819761D01*
X159575714Y-179772142D01*
X159528095Y-179676904D01*
X159528095Y-179581666D01*
X159575714Y-179486428D01*
X159623333Y-179438809D01*
X159718571Y-179391190D01*
X159909047Y-179343571D01*
X160004285Y-179295952D01*
X160051904Y-179248333D01*
X160099523Y-179153095D01*
X160099523Y-179057857D01*
X160051904Y-178962619D01*
X160004285Y-178915000D01*
X159909047Y-178867380D01*
X159670952Y-178867380D01*
X159528095Y-178915000D01*
X159194761Y-178867380D02*
X158956666Y-179867380D01*
X158766190Y-179153095D01*
X158575714Y-179867380D01*
X158337619Y-178867380D01*
X158004285Y-178962619D02*
X157956666Y-178915000D01*
X157861428Y-178867380D01*
X157623333Y-178867380D01*
X157528095Y-178915000D01*
X157480476Y-178962619D01*
X157432857Y-179057857D01*
X157432857Y-179153095D01*
X157480476Y-179295952D01*
X158051904Y-179867380D01*
X157432857Y-179867380D01*
X156813809Y-178867380D02*
X156718571Y-178867380D01*
X156623333Y-178915000D01*
X156575714Y-178962619D01*
X156528095Y-179057857D01*
X156480476Y-179248333D01*
X156480476Y-179486428D01*
X156528095Y-179676904D01*
X156575714Y-179772142D01*
X156623333Y-179819761D01*
X156718571Y-179867380D01*
X156813809Y-179867380D01*
X156909047Y-179819761D01*
X156956666Y-179772142D01*
X157004285Y-179676904D01*
X157051904Y-179486428D01*
X157051904Y-179248333D01*
X157004285Y-179057857D01*
X156956666Y-178962619D01*
X156909047Y-178915000D01*
X156813809Y-178867380D01*
X198479523Y-179819761D02*
X198336666Y-179867380D01*
X198098571Y-179867380D01*
X198003333Y-179819761D01*
X197955714Y-179772142D01*
X197908095Y-179676904D01*
X197908095Y-179581666D01*
X197955714Y-179486428D01*
X198003333Y-179438809D01*
X198098571Y-179391190D01*
X198289047Y-179343571D01*
X198384285Y-179295952D01*
X198431904Y-179248333D01*
X198479523Y-179153095D01*
X198479523Y-179057857D01*
X198431904Y-178962619D01*
X198384285Y-178915000D01*
X198289047Y-178867380D01*
X198050952Y-178867380D01*
X197908095Y-178915000D01*
X197574761Y-178867380D02*
X197336666Y-179867380D01*
X197146190Y-179153095D01*
X196955714Y-179867380D01*
X196717619Y-178867380D01*
X196384285Y-178962619D02*
X196336666Y-178915000D01*
X196241428Y-178867380D01*
X196003333Y-178867380D01*
X195908095Y-178915000D01*
X195860476Y-178962619D01*
X195812857Y-179057857D01*
X195812857Y-179153095D01*
X195860476Y-179295952D01*
X196431904Y-179867380D01*
X195812857Y-179867380D01*
X194860476Y-179867380D02*
X195431904Y-179867380D01*
X195146190Y-179867380D02*
X195146190Y-178867380D01*
X195241428Y-179010238D01*
X195336666Y-179105476D01*
X195431904Y-179153095D01*
X236849523Y-179819761D02*
X236706666Y-179867380D01*
X236468571Y-179867380D01*
X236373333Y-179819761D01*
X236325714Y-179772142D01*
X236278095Y-179676904D01*
X236278095Y-179581666D01*
X236325714Y-179486428D01*
X236373333Y-179438809D01*
X236468571Y-179391190D01*
X236659047Y-179343571D01*
X236754285Y-179295952D01*
X236801904Y-179248333D01*
X236849523Y-179153095D01*
X236849523Y-179057857D01*
X236801904Y-178962619D01*
X236754285Y-178915000D01*
X236659047Y-178867380D01*
X236420952Y-178867380D01*
X236278095Y-178915000D01*
X235944761Y-178867380D02*
X235706666Y-179867380D01*
X235516190Y-179153095D01*
X235325714Y-179867380D01*
X235087619Y-178867380D01*
X234754285Y-178962619D02*
X234706666Y-178915000D01*
X234611428Y-178867380D01*
X234373333Y-178867380D01*
X234278095Y-178915000D01*
X234230476Y-178962619D01*
X234182857Y-179057857D01*
X234182857Y-179153095D01*
X234230476Y-179295952D01*
X234801904Y-179867380D01*
X234182857Y-179867380D01*
X233801904Y-178962619D02*
X233754285Y-178915000D01*
X233659047Y-178867380D01*
X233420952Y-178867380D01*
X233325714Y-178915000D01*
X233278095Y-178962619D01*
X233230476Y-179057857D01*
X233230476Y-179153095D01*
X233278095Y-179295952D01*
X233849523Y-179867380D01*
X233230476Y-179867380D01*
X275209523Y-179819761D02*
X275066666Y-179867380D01*
X274828571Y-179867380D01*
X274733333Y-179819761D01*
X274685714Y-179772142D01*
X274638095Y-179676904D01*
X274638095Y-179581666D01*
X274685714Y-179486428D01*
X274733333Y-179438809D01*
X274828571Y-179391190D01*
X275019047Y-179343571D01*
X275114285Y-179295952D01*
X275161904Y-179248333D01*
X275209523Y-179153095D01*
X275209523Y-179057857D01*
X275161904Y-178962619D01*
X275114285Y-178915000D01*
X275019047Y-178867380D01*
X274780952Y-178867380D01*
X274638095Y-178915000D01*
X274304761Y-178867380D02*
X274066666Y-179867380D01*
X273876190Y-179153095D01*
X273685714Y-179867380D01*
X273447619Y-178867380D01*
X273114285Y-178962619D02*
X273066666Y-178915000D01*
X272971428Y-178867380D01*
X272733333Y-178867380D01*
X272638095Y-178915000D01*
X272590476Y-178962619D01*
X272542857Y-179057857D01*
X272542857Y-179153095D01*
X272590476Y-179295952D01*
X273161904Y-179867380D01*
X272542857Y-179867380D01*
X272209523Y-178867380D02*
X271590476Y-178867380D01*
X271923809Y-179248333D01*
X271780952Y-179248333D01*
X271685714Y-179295952D01*
X271638095Y-179343571D01*
X271590476Y-179438809D01*
X271590476Y-179676904D01*
X271638095Y-179772142D01*
X271685714Y-179819761D01*
X271780952Y-179867380D01*
X272066666Y-179867380D01*
X272161904Y-179819761D01*
X272209523Y-179772142D01*
X332729523Y-199029761D02*
X332586666Y-199077380D01*
X332348571Y-199077380D01*
X332253333Y-199029761D01*
X332205714Y-198982142D01*
X332158095Y-198886904D01*
X332158095Y-198791666D01*
X332205714Y-198696428D01*
X332253333Y-198648809D01*
X332348571Y-198601190D01*
X332539047Y-198553571D01*
X332634285Y-198505952D01*
X332681904Y-198458333D01*
X332729523Y-198363095D01*
X332729523Y-198267857D01*
X332681904Y-198172619D01*
X332634285Y-198125000D01*
X332539047Y-198077380D01*
X332300952Y-198077380D01*
X332158095Y-198125000D01*
X331824761Y-198077380D02*
X331586666Y-199077380D01*
X331396190Y-198363095D01*
X331205714Y-199077380D01*
X330967619Y-198077380D01*
X330634285Y-198172619D02*
X330586666Y-198125000D01*
X330491428Y-198077380D01*
X330253333Y-198077380D01*
X330158095Y-198125000D01*
X330110476Y-198172619D01*
X330062857Y-198267857D01*
X330062857Y-198363095D01*
X330110476Y-198505952D01*
X330681904Y-199077380D01*
X330062857Y-199077380D01*
X329205714Y-198410714D02*
X329205714Y-199077380D01*
X329443809Y-198029761D02*
X329681904Y-198744047D01*
X329062857Y-198744047D01*
X44949523Y-179839761D02*
X44806666Y-179887380D01*
X44568571Y-179887380D01*
X44473333Y-179839761D01*
X44425714Y-179792142D01*
X44378095Y-179696904D01*
X44378095Y-179601666D01*
X44425714Y-179506428D01*
X44473333Y-179458809D01*
X44568571Y-179411190D01*
X44759047Y-179363571D01*
X44854285Y-179315952D01*
X44901904Y-179268333D01*
X44949523Y-179173095D01*
X44949523Y-179077857D01*
X44901904Y-178982619D01*
X44854285Y-178935000D01*
X44759047Y-178887380D01*
X44520952Y-178887380D01*
X44378095Y-178935000D01*
X44044761Y-178887380D02*
X43806666Y-179887380D01*
X43616190Y-179173095D01*
X43425714Y-179887380D01*
X43187619Y-178887380D01*
X42854285Y-178982619D02*
X42806666Y-178935000D01*
X42711428Y-178887380D01*
X42473333Y-178887380D01*
X42378095Y-178935000D01*
X42330476Y-178982619D01*
X42282857Y-179077857D01*
X42282857Y-179173095D01*
X42330476Y-179315952D01*
X42901904Y-179887380D01*
X42282857Y-179887380D01*
X41378095Y-178887380D02*
X41854285Y-178887380D01*
X41901904Y-179363571D01*
X41854285Y-179315952D01*
X41759047Y-179268333D01*
X41520952Y-179268333D01*
X41425714Y-179315952D01*
X41378095Y-179363571D01*
X41330476Y-179458809D01*
X41330476Y-179696904D01*
X41378095Y-179792142D01*
X41425714Y-179839761D01*
X41520952Y-179887380D01*
X41759047Y-179887380D01*
X41854285Y-179839761D01*
X41901904Y-179792142D01*
X68889523Y-199029761D02*
X68746666Y-199077380D01*
X68508571Y-199077380D01*
X68413333Y-199029761D01*
X68365714Y-198982142D01*
X68318095Y-198886904D01*
X68318095Y-198791666D01*
X68365714Y-198696428D01*
X68413333Y-198648809D01*
X68508571Y-198601190D01*
X68699047Y-198553571D01*
X68794285Y-198505952D01*
X68841904Y-198458333D01*
X68889523Y-198363095D01*
X68889523Y-198267857D01*
X68841904Y-198172619D01*
X68794285Y-198125000D01*
X68699047Y-198077380D01*
X68460952Y-198077380D01*
X68318095Y-198125000D01*
X67984761Y-198077380D02*
X67746666Y-199077380D01*
X67556190Y-198363095D01*
X67365714Y-199077380D01*
X67127619Y-198077380D01*
X66794285Y-198172619D02*
X66746666Y-198125000D01*
X66651428Y-198077380D01*
X66413333Y-198077380D01*
X66318095Y-198125000D01*
X66270476Y-198172619D01*
X66222857Y-198267857D01*
X66222857Y-198363095D01*
X66270476Y-198505952D01*
X66841904Y-199077380D01*
X66222857Y-199077380D01*
X65365714Y-198077380D02*
X65556190Y-198077380D01*
X65651428Y-198125000D01*
X65699047Y-198172619D01*
X65794285Y-198315476D01*
X65841904Y-198505952D01*
X65841904Y-198886904D01*
X65794285Y-198982142D01*
X65746666Y-199029761D01*
X65651428Y-199077380D01*
X65460952Y-199077380D01*
X65365714Y-199029761D01*
X65318095Y-198982142D01*
X65270476Y-198886904D01*
X65270476Y-198648809D01*
X65318095Y-198553571D01*
X65365714Y-198505952D01*
X65460952Y-198458333D01*
X65651428Y-198458333D01*
X65746666Y-198505952D01*
X65794285Y-198553571D01*
X65841904Y-198648809D01*
X112049523Y-199029761D02*
X111906666Y-199077380D01*
X111668571Y-199077380D01*
X111573333Y-199029761D01*
X111525714Y-198982142D01*
X111478095Y-198886904D01*
X111478095Y-198791666D01*
X111525714Y-198696428D01*
X111573333Y-198648809D01*
X111668571Y-198601190D01*
X111859047Y-198553571D01*
X111954285Y-198505952D01*
X112001904Y-198458333D01*
X112049523Y-198363095D01*
X112049523Y-198267857D01*
X112001904Y-198172619D01*
X111954285Y-198125000D01*
X111859047Y-198077380D01*
X111620952Y-198077380D01*
X111478095Y-198125000D01*
X111144761Y-198077380D02*
X110906666Y-199077380D01*
X110716190Y-198363095D01*
X110525714Y-199077380D01*
X110287619Y-198077380D01*
X109954285Y-198172619D02*
X109906666Y-198125000D01*
X109811428Y-198077380D01*
X109573333Y-198077380D01*
X109478095Y-198125000D01*
X109430476Y-198172619D01*
X109382857Y-198267857D01*
X109382857Y-198363095D01*
X109430476Y-198505952D01*
X110001904Y-199077380D01*
X109382857Y-199077380D01*
X109049523Y-198077380D02*
X108382857Y-198077380D01*
X108811428Y-199077380D01*
X150459523Y-199029761D02*
X150316666Y-199077380D01*
X150078571Y-199077380D01*
X149983333Y-199029761D01*
X149935714Y-198982142D01*
X149888095Y-198886904D01*
X149888095Y-198791666D01*
X149935714Y-198696428D01*
X149983333Y-198648809D01*
X150078571Y-198601190D01*
X150269047Y-198553571D01*
X150364285Y-198505952D01*
X150411904Y-198458333D01*
X150459523Y-198363095D01*
X150459523Y-198267857D01*
X150411904Y-198172619D01*
X150364285Y-198125000D01*
X150269047Y-198077380D01*
X150030952Y-198077380D01*
X149888095Y-198125000D01*
X149554761Y-198077380D02*
X149316666Y-199077380D01*
X149126190Y-198363095D01*
X148935714Y-199077380D01*
X148697619Y-198077380D01*
X148364285Y-198172619D02*
X148316666Y-198125000D01*
X148221428Y-198077380D01*
X147983333Y-198077380D01*
X147888095Y-198125000D01*
X147840476Y-198172619D01*
X147792857Y-198267857D01*
X147792857Y-198363095D01*
X147840476Y-198505952D01*
X148411904Y-199077380D01*
X147792857Y-199077380D01*
X147221428Y-198505952D02*
X147316666Y-198458333D01*
X147364285Y-198410714D01*
X147411904Y-198315476D01*
X147411904Y-198267857D01*
X147364285Y-198172619D01*
X147316666Y-198125000D01*
X147221428Y-198077380D01*
X147030952Y-198077380D01*
X146935714Y-198125000D01*
X146888095Y-198172619D01*
X146840476Y-198267857D01*
X146840476Y-198315476D01*
X146888095Y-198410714D01*
X146935714Y-198458333D01*
X147030952Y-198505952D01*
X147221428Y-198505952D01*
X147316666Y-198553571D01*
X147364285Y-198601190D01*
X147411904Y-198696428D01*
X147411904Y-198886904D01*
X147364285Y-198982142D01*
X147316666Y-199029761D01*
X147221428Y-199077380D01*
X147030952Y-199077380D01*
X146935714Y-199029761D01*
X146888095Y-198982142D01*
X146840476Y-198886904D01*
X146840476Y-198696428D01*
X146888095Y-198601190D01*
X146935714Y-198553571D01*
X147030952Y-198505952D01*
X188859523Y-199029761D02*
X188716666Y-199077380D01*
X188478571Y-199077380D01*
X188383333Y-199029761D01*
X188335714Y-198982142D01*
X188288095Y-198886904D01*
X188288095Y-198791666D01*
X188335714Y-198696428D01*
X188383333Y-198648809D01*
X188478571Y-198601190D01*
X188669047Y-198553571D01*
X188764285Y-198505952D01*
X188811904Y-198458333D01*
X188859523Y-198363095D01*
X188859523Y-198267857D01*
X188811904Y-198172619D01*
X188764285Y-198125000D01*
X188669047Y-198077380D01*
X188430952Y-198077380D01*
X188288095Y-198125000D01*
X187954761Y-198077380D02*
X187716666Y-199077380D01*
X187526190Y-198363095D01*
X187335714Y-199077380D01*
X187097619Y-198077380D01*
X186764285Y-198172619D02*
X186716666Y-198125000D01*
X186621428Y-198077380D01*
X186383333Y-198077380D01*
X186288095Y-198125000D01*
X186240476Y-198172619D01*
X186192857Y-198267857D01*
X186192857Y-198363095D01*
X186240476Y-198505952D01*
X186811904Y-199077380D01*
X186192857Y-199077380D01*
X185716666Y-199077380D02*
X185526190Y-199077380D01*
X185430952Y-199029761D01*
X185383333Y-198982142D01*
X185288095Y-198839285D01*
X185240476Y-198648809D01*
X185240476Y-198267857D01*
X185288095Y-198172619D01*
X185335714Y-198125000D01*
X185430952Y-198077380D01*
X185621428Y-198077380D01*
X185716666Y-198125000D01*
X185764285Y-198172619D01*
X185811904Y-198267857D01*
X185811904Y-198505952D01*
X185764285Y-198601190D01*
X185716666Y-198648809D01*
X185621428Y-198696428D01*
X185430952Y-198696428D01*
X185335714Y-198648809D01*
X185288095Y-198601190D01*
X185240476Y-198505952D01*
X227259523Y-199029761D02*
X227116666Y-199077380D01*
X226878571Y-199077380D01*
X226783333Y-199029761D01*
X226735714Y-198982142D01*
X226688095Y-198886904D01*
X226688095Y-198791666D01*
X226735714Y-198696428D01*
X226783333Y-198648809D01*
X226878571Y-198601190D01*
X227069047Y-198553571D01*
X227164285Y-198505952D01*
X227211904Y-198458333D01*
X227259523Y-198363095D01*
X227259523Y-198267857D01*
X227211904Y-198172619D01*
X227164285Y-198125000D01*
X227069047Y-198077380D01*
X226830952Y-198077380D01*
X226688095Y-198125000D01*
X226354761Y-198077380D02*
X226116666Y-199077380D01*
X225926190Y-198363095D01*
X225735714Y-199077380D01*
X225497619Y-198077380D01*
X225211904Y-198077380D02*
X224592857Y-198077380D01*
X224926190Y-198458333D01*
X224783333Y-198458333D01*
X224688095Y-198505952D01*
X224640476Y-198553571D01*
X224592857Y-198648809D01*
X224592857Y-198886904D01*
X224640476Y-198982142D01*
X224688095Y-199029761D01*
X224783333Y-199077380D01*
X225069047Y-199077380D01*
X225164285Y-199029761D01*
X225211904Y-198982142D01*
X223973809Y-198077380D02*
X223878571Y-198077380D01*
X223783333Y-198125000D01*
X223735714Y-198172619D01*
X223688095Y-198267857D01*
X223640476Y-198458333D01*
X223640476Y-198696428D01*
X223688095Y-198886904D01*
X223735714Y-198982142D01*
X223783333Y-199029761D01*
X223878571Y-199077380D01*
X223973809Y-199077380D01*
X224069047Y-199029761D01*
X224116666Y-198982142D01*
X224164285Y-198886904D01*
X224211904Y-198696428D01*
X224211904Y-198458333D01*
X224164285Y-198267857D01*
X224116666Y-198172619D01*
X224069047Y-198125000D01*
X223973809Y-198077380D01*
X265649523Y-199029761D02*
X265506666Y-199077380D01*
X265268571Y-199077380D01*
X265173333Y-199029761D01*
X265125714Y-198982142D01*
X265078095Y-198886904D01*
X265078095Y-198791666D01*
X265125714Y-198696428D01*
X265173333Y-198648809D01*
X265268571Y-198601190D01*
X265459047Y-198553571D01*
X265554285Y-198505952D01*
X265601904Y-198458333D01*
X265649523Y-198363095D01*
X265649523Y-198267857D01*
X265601904Y-198172619D01*
X265554285Y-198125000D01*
X265459047Y-198077380D01*
X265220952Y-198077380D01*
X265078095Y-198125000D01*
X264744761Y-198077380D02*
X264506666Y-199077380D01*
X264316190Y-198363095D01*
X264125714Y-199077380D01*
X263887619Y-198077380D01*
X263601904Y-198077380D02*
X262982857Y-198077380D01*
X263316190Y-198458333D01*
X263173333Y-198458333D01*
X263078095Y-198505952D01*
X263030476Y-198553571D01*
X262982857Y-198648809D01*
X262982857Y-198886904D01*
X263030476Y-198982142D01*
X263078095Y-199029761D01*
X263173333Y-199077380D01*
X263459047Y-199077380D01*
X263554285Y-199029761D01*
X263601904Y-198982142D01*
X262030476Y-199077380D02*
X262601904Y-199077380D01*
X262316190Y-199077380D02*
X262316190Y-198077380D01*
X262411428Y-198220238D01*
X262506666Y-198315476D01*
X262601904Y-198363095D01*
X313549523Y-199029761D02*
X313406666Y-199077380D01*
X313168571Y-199077380D01*
X313073333Y-199029761D01*
X313025714Y-198982142D01*
X312978095Y-198886904D01*
X312978095Y-198791666D01*
X313025714Y-198696428D01*
X313073333Y-198648809D01*
X313168571Y-198601190D01*
X313359047Y-198553571D01*
X313454285Y-198505952D01*
X313501904Y-198458333D01*
X313549523Y-198363095D01*
X313549523Y-198267857D01*
X313501904Y-198172619D01*
X313454285Y-198125000D01*
X313359047Y-198077380D01*
X313120952Y-198077380D01*
X312978095Y-198125000D01*
X312644761Y-198077380D02*
X312406666Y-199077380D01*
X312216190Y-198363095D01*
X312025714Y-199077380D01*
X311787619Y-198077380D01*
X311501904Y-198077380D02*
X310882857Y-198077380D01*
X311216190Y-198458333D01*
X311073333Y-198458333D01*
X310978095Y-198505952D01*
X310930476Y-198553571D01*
X310882857Y-198648809D01*
X310882857Y-198886904D01*
X310930476Y-198982142D01*
X310978095Y-199029761D01*
X311073333Y-199077380D01*
X311359047Y-199077380D01*
X311454285Y-199029761D01*
X311501904Y-198982142D01*
X310501904Y-198172619D02*
X310454285Y-198125000D01*
X310359047Y-198077380D01*
X310120952Y-198077380D01*
X310025714Y-198125000D01*
X309978095Y-198172619D01*
X309930476Y-198267857D01*
X309930476Y-198363095D01*
X309978095Y-198505952D01*
X310549523Y-199077380D01*
X309930476Y-199077380D01*
X173729523Y-218219761D02*
X173586666Y-218267380D01*
X173348571Y-218267380D01*
X173253333Y-218219761D01*
X173205714Y-218172142D01*
X173158095Y-218076904D01*
X173158095Y-217981666D01*
X173205714Y-217886428D01*
X173253333Y-217838809D01*
X173348571Y-217791190D01*
X173539047Y-217743571D01*
X173634285Y-217695952D01*
X173681904Y-217648333D01*
X173729523Y-217553095D01*
X173729523Y-217457857D01*
X173681904Y-217362619D01*
X173634285Y-217315000D01*
X173539047Y-217267380D01*
X173300952Y-217267380D01*
X173158095Y-217315000D01*
X172824761Y-217267380D02*
X172586666Y-218267380D01*
X172396190Y-217553095D01*
X172205714Y-218267380D01*
X171967619Y-217267380D01*
X171681904Y-217267380D02*
X171062857Y-217267380D01*
X171396190Y-217648333D01*
X171253333Y-217648333D01*
X171158095Y-217695952D01*
X171110476Y-217743571D01*
X171062857Y-217838809D01*
X171062857Y-218076904D01*
X171110476Y-218172142D01*
X171158095Y-218219761D01*
X171253333Y-218267380D01*
X171539047Y-218267380D01*
X171634285Y-218219761D01*
X171681904Y-218172142D01*
X170729523Y-217267380D02*
X170110476Y-217267380D01*
X170443809Y-217648333D01*
X170300952Y-217648333D01*
X170205714Y-217695952D01*
X170158095Y-217743571D01*
X170110476Y-217838809D01*
X170110476Y-218076904D01*
X170158095Y-218172142D01*
X170205714Y-218219761D01*
X170300952Y-218267380D01*
X170586666Y-218267380D01*
X170681904Y-218219761D01*
X170729523Y-218172142D01*
X92839523Y-199039761D02*
X92696666Y-199087380D01*
X92458571Y-199087380D01*
X92363333Y-199039761D01*
X92315714Y-198992142D01*
X92268095Y-198896904D01*
X92268095Y-198801666D01*
X92315714Y-198706428D01*
X92363333Y-198658809D01*
X92458571Y-198611190D01*
X92649047Y-198563571D01*
X92744285Y-198515952D01*
X92791904Y-198468333D01*
X92839523Y-198373095D01*
X92839523Y-198277857D01*
X92791904Y-198182619D01*
X92744285Y-198135000D01*
X92649047Y-198087380D01*
X92410952Y-198087380D01*
X92268095Y-198135000D01*
X91934761Y-198087380D02*
X91696666Y-199087380D01*
X91506190Y-198373095D01*
X91315714Y-199087380D01*
X91077619Y-198087380D01*
X90791904Y-198087380D02*
X90172857Y-198087380D01*
X90506190Y-198468333D01*
X90363333Y-198468333D01*
X90268095Y-198515952D01*
X90220476Y-198563571D01*
X90172857Y-198658809D01*
X90172857Y-198896904D01*
X90220476Y-198992142D01*
X90268095Y-199039761D01*
X90363333Y-199087380D01*
X90649047Y-199087380D01*
X90744285Y-199039761D01*
X90791904Y-198992142D01*
X89315714Y-198420714D02*
X89315714Y-199087380D01*
X89553809Y-198039761D02*
X89791904Y-198754047D01*
X89172857Y-198754047D01*
X131249523Y-199029761D02*
X131106666Y-199077380D01*
X130868571Y-199077380D01*
X130773333Y-199029761D01*
X130725714Y-198982142D01*
X130678095Y-198886904D01*
X130678095Y-198791666D01*
X130725714Y-198696428D01*
X130773333Y-198648809D01*
X130868571Y-198601190D01*
X131059047Y-198553571D01*
X131154285Y-198505952D01*
X131201904Y-198458333D01*
X131249523Y-198363095D01*
X131249523Y-198267857D01*
X131201904Y-198172619D01*
X131154285Y-198125000D01*
X131059047Y-198077380D01*
X130820952Y-198077380D01*
X130678095Y-198125000D01*
X130344761Y-198077380D02*
X130106666Y-199077380D01*
X129916190Y-198363095D01*
X129725714Y-199077380D01*
X129487619Y-198077380D01*
X129201904Y-198077380D02*
X128582857Y-198077380D01*
X128916190Y-198458333D01*
X128773333Y-198458333D01*
X128678095Y-198505952D01*
X128630476Y-198553571D01*
X128582857Y-198648809D01*
X128582857Y-198886904D01*
X128630476Y-198982142D01*
X128678095Y-199029761D01*
X128773333Y-199077380D01*
X129059047Y-199077380D01*
X129154285Y-199029761D01*
X129201904Y-198982142D01*
X127678095Y-198077380D02*
X128154285Y-198077380D01*
X128201904Y-198553571D01*
X128154285Y-198505952D01*
X128059047Y-198458333D01*
X127820952Y-198458333D01*
X127725714Y-198505952D01*
X127678095Y-198553571D01*
X127630476Y-198648809D01*
X127630476Y-198886904D01*
X127678095Y-198982142D01*
X127725714Y-199029761D01*
X127820952Y-199077380D01*
X128059047Y-199077380D01*
X128154285Y-199029761D01*
X128201904Y-198982142D01*
X169649523Y-199029761D02*
X169506666Y-199077380D01*
X169268571Y-199077380D01*
X169173333Y-199029761D01*
X169125714Y-198982142D01*
X169078095Y-198886904D01*
X169078095Y-198791666D01*
X169125714Y-198696428D01*
X169173333Y-198648809D01*
X169268571Y-198601190D01*
X169459047Y-198553571D01*
X169554285Y-198505952D01*
X169601904Y-198458333D01*
X169649523Y-198363095D01*
X169649523Y-198267857D01*
X169601904Y-198172619D01*
X169554285Y-198125000D01*
X169459047Y-198077380D01*
X169220952Y-198077380D01*
X169078095Y-198125000D01*
X168744761Y-198077380D02*
X168506666Y-199077380D01*
X168316190Y-198363095D01*
X168125714Y-199077380D01*
X167887619Y-198077380D01*
X167601904Y-198077380D02*
X166982857Y-198077380D01*
X167316190Y-198458333D01*
X167173333Y-198458333D01*
X167078095Y-198505952D01*
X167030476Y-198553571D01*
X166982857Y-198648809D01*
X166982857Y-198886904D01*
X167030476Y-198982142D01*
X167078095Y-199029761D01*
X167173333Y-199077380D01*
X167459047Y-199077380D01*
X167554285Y-199029761D01*
X167601904Y-198982142D01*
X166125714Y-198077380D02*
X166316190Y-198077380D01*
X166411428Y-198125000D01*
X166459047Y-198172619D01*
X166554285Y-198315476D01*
X166601904Y-198505952D01*
X166601904Y-198886904D01*
X166554285Y-198982142D01*
X166506666Y-199029761D01*
X166411428Y-199077380D01*
X166220952Y-199077380D01*
X166125714Y-199029761D01*
X166078095Y-198982142D01*
X166030476Y-198886904D01*
X166030476Y-198648809D01*
X166078095Y-198553571D01*
X166125714Y-198505952D01*
X166220952Y-198458333D01*
X166411428Y-198458333D01*
X166506666Y-198505952D01*
X166554285Y-198553571D01*
X166601904Y-198648809D01*
X208059523Y-199029761D02*
X207916666Y-199077380D01*
X207678571Y-199077380D01*
X207583333Y-199029761D01*
X207535714Y-198982142D01*
X207488095Y-198886904D01*
X207488095Y-198791666D01*
X207535714Y-198696428D01*
X207583333Y-198648809D01*
X207678571Y-198601190D01*
X207869047Y-198553571D01*
X207964285Y-198505952D01*
X208011904Y-198458333D01*
X208059523Y-198363095D01*
X208059523Y-198267857D01*
X208011904Y-198172619D01*
X207964285Y-198125000D01*
X207869047Y-198077380D01*
X207630952Y-198077380D01*
X207488095Y-198125000D01*
X207154761Y-198077380D02*
X206916666Y-199077380D01*
X206726190Y-198363095D01*
X206535714Y-199077380D01*
X206297619Y-198077380D01*
X206011904Y-198077380D02*
X205392857Y-198077380D01*
X205726190Y-198458333D01*
X205583333Y-198458333D01*
X205488095Y-198505952D01*
X205440476Y-198553571D01*
X205392857Y-198648809D01*
X205392857Y-198886904D01*
X205440476Y-198982142D01*
X205488095Y-199029761D01*
X205583333Y-199077380D01*
X205869047Y-199077380D01*
X205964285Y-199029761D01*
X206011904Y-198982142D01*
X205059523Y-198077380D02*
X204392857Y-198077380D01*
X204821428Y-199077380D01*
X246459523Y-199029761D02*
X246316666Y-199077380D01*
X246078571Y-199077380D01*
X245983333Y-199029761D01*
X245935714Y-198982142D01*
X245888095Y-198886904D01*
X245888095Y-198791666D01*
X245935714Y-198696428D01*
X245983333Y-198648809D01*
X246078571Y-198601190D01*
X246269047Y-198553571D01*
X246364285Y-198505952D01*
X246411904Y-198458333D01*
X246459523Y-198363095D01*
X246459523Y-198267857D01*
X246411904Y-198172619D01*
X246364285Y-198125000D01*
X246269047Y-198077380D01*
X246030952Y-198077380D01*
X245888095Y-198125000D01*
X245554761Y-198077380D02*
X245316666Y-199077380D01*
X245126190Y-198363095D01*
X244935714Y-199077380D01*
X244697619Y-198077380D01*
X244411904Y-198077380D02*
X243792857Y-198077380D01*
X244126190Y-198458333D01*
X243983333Y-198458333D01*
X243888095Y-198505952D01*
X243840476Y-198553571D01*
X243792857Y-198648809D01*
X243792857Y-198886904D01*
X243840476Y-198982142D01*
X243888095Y-199029761D01*
X243983333Y-199077380D01*
X244269047Y-199077380D01*
X244364285Y-199029761D01*
X244411904Y-198982142D01*
X243221428Y-198505952D02*
X243316666Y-198458333D01*
X243364285Y-198410714D01*
X243411904Y-198315476D01*
X243411904Y-198267857D01*
X243364285Y-198172619D01*
X243316666Y-198125000D01*
X243221428Y-198077380D01*
X243030952Y-198077380D01*
X242935714Y-198125000D01*
X242888095Y-198172619D01*
X242840476Y-198267857D01*
X242840476Y-198315476D01*
X242888095Y-198410714D01*
X242935714Y-198458333D01*
X243030952Y-198505952D01*
X243221428Y-198505952D01*
X243316666Y-198553571D01*
X243364285Y-198601190D01*
X243411904Y-198696428D01*
X243411904Y-198886904D01*
X243364285Y-198982142D01*
X243316666Y-199029761D01*
X243221428Y-199077380D01*
X243030952Y-199077380D01*
X242935714Y-199029761D01*
X242888095Y-198982142D01*
X242840476Y-198886904D01*
X242840476Y-198696428D01*
X242888095Y-198601190D01*
X242935714Y-198553571D01*
X243030952Y-198505952D01*
X289599523Y-199029761D02*
X289456666Y-199077380D01*
X289218571Y-199077380D01*
X289123333Y-199029761D01*
X289075714Y-198982142D01*
X289028095Y-198886904D01*
X289028095Y-198791666D01*
X289075714Y-198696428D01*
X289123333Y-198648809D01*
X289218571Y-198601190D01*
X289409047Y-198553571D01*
X289504285Y-198505952D01*
X289551904Y-198458333D01*
X289599523Y-198363095D01*
X289599523Y-198267857D01*
X289551904Y-198172619D01*
X289504285Y-198125000D01*
X289409047Y-198077380D01*
X289170952Y-198077380D01*
X289028095Y-198125000D01*
X288694761Y-198077380D02*
X288456666Y-199077380D01*
X288266190Y-198363095D01*
X288075714Y-199077380D01*
X287837619Y-198077380D01*
X287551904Y-198077380D02*
X286932857Y-198077380D01*
X287266190Y-198458333D01*
X287123333Y-198458333D01*
X287028095Y-198505952D01*
X286980476Y-198553571D01*
X286932857Y-198648809D01*
X286932857Y-198886904D01*
X286980476Y-198982142D01*
X287028095Y-199029761D01*
X287123333Y-199077380D01*
X287409047Y-199077380D01*
X287504285Y-199029761D01*
X287551904Y-198982142D01*
X286456666Y-199077380D02*
X286266190Y-199077380D01*
X286170952Y-199029761D01*
X286123333Y-198982142D01*
X286028095Y-198839285D01*
X285980476Y-198648809D01*
X285980476Y-198267857D01*
X286028095Y-198172619D01*
X286075714Y-198125000D01*
X286170952Y-198077380D01*
X286361428Y-198077380D01*
X286456666Y-198125000D01*
X286504285Y-198172619D01*
X286551904Y-198267857D01*
X286551904Y-198505952D01*
X286504285Y-198601190D01*
X286456666Y-198648809D01*
X286361428Y-198696428D01*
X286170952Y-198696428D01*
X286075714Y-198648809D01*
X286028095Y-198601190D01*
X285980476Y-198505952D01*
X381529523Y-141869761D02*
X381386666Y-141917380D01*
X381148571Y-141917380D01*
X381053333Y-141869761D01*
X381005714Y-141822142D01*
X380958095Y-141726904D01*
X380958095Y-141631666D01*
X381005714Y-141536428D01*
X381053333Y-141488809D01*
X381148571Y-141441190D01*
X381339047Y-141393571D01*
X381434285Y-141345952D01*
X381481904Y-141298333D01*
X381529523Y-141203095D01*
X381529523Y-141107857D01*
X381481904Y-141012619D01*
X381434285Y-140965000D01*
X381339047Y-140917380D01*
X381100952Y-140917380D01*
X380958095Y-140965000D01*
X380624761Y-140917380D02*
X380386666Y-141917380D01*
X380196190Y-141203095D01*
X380005714Y-141917380D01*
X379767619Y-140917380D01*
X378958095Y-141250714D02*
X378958095Y-141917380D01*
X379196190Y-140869761D02*
X379434285Y-141584047D01*
X378815238Y-141584047D01*
X378243809Y-140917380D02*
X378148571Y-140917380D01*
X378053333Y-140965000D01*
X378005714Y-141012619D01*
X377958095Y-141107857D01*
X377910476Y-141298333D01*
X377910476Y-141536428D01*
X377958095Y-141726904D01*
X378005714Y-141822142D01*
X378053333Y-141869761D01*
X378148571Y-141917380D01*
X378243809Y-141917380D01*
X378339047Y-141869761D01*
X378386666Y-141822142D01*
X378434285Y-141726904D01*
X378481904Y-141536428D01*
X378481904Y-141298333D01*
X378434285Y-141107857D01*
X378386666Y-141012619D01*
X378339047Y-140965000D01*
X378243809Y-140917380D01*
X44939523Y-199039761D02*
X44796666Y-199087380D01*
X44558571Y-199087380D01*
X44463333Y-199039761D01*
X44415714Y-198992142D01*
X44368095Y-198896904D01*
X44368095Y-198801666D01*
X44415714Y-198706428D01*
X44463333Y-198658809D01*
X44558571Y-198611190D01*
X44749047Y-198563571D01*
X44844285Y-198515952D01*
X44891904Y-198468333D01*
X44939523Y-198373095D01*
X44939523Y-198277857D01*
X44891904Y-198182619D01*
X44844285Y-198135000D01*
X44749047Y-198087380D01*
X44510952Y-198087380D01*
X44368095Y-198135000D01*
X44034761Y-198087380D02*
X43796666Y-199087380D01*
X43606190Y-198373095D01*
X43415714Y-199087380D01*
X43177619Y-198087380D01*
X42368095Y-198420714D02*
X42368095Y-199087380D01*
X42606190Y-198039761D02*
X42844285Y-198754047D01*
X42225238Y-198754047D01*
X41320476Y-199087380D02*
X41891904Y-199087380D01*
X41606190Y-199087380D02*
X41606190Y-198087380D01*
X41701428Y-198230238D01*
X41796666Y-198325476D01*
X41891904Y-198373095D01*
X102549523Y-179819761D02*
X102406666Y-179867380D01*
X102168571Y-179867380D01*
X102073333Y-179819761D01*
X102025714Y-179772142D01*
X101978095Y-179676904D01*
X101978095Y-179581666D01*
X102025714Y-179486428D01*
X102073333Y-179438809D01*
X102168571Y-179391190D01*
X102359047Y-179343571D01*
X102454285Y-179295952D01*
X102501904Y-179248333D01*
X102549523Y-179153095D01*
X102549523Y-179057857D01*
X102501904Y-178962619D01*
X102454285Y-178915000D01*
X102359047Y-178867380D01*
X102120952Y-178867380D01*
X101978095Y-178915000D01*
X101644761Y-178867380D02*
X101406666Y-179867380D01*
X101216190Y-179153095D01*
X101025714Y-179867380D01*
X100787619Y-178867380D01*
X99978095Y-179200714D02*
X99978095Y-179867380D01*
X100216190Y-178819761D02*
X100454285Y-179534047D01*
X99835238Y-179534047D01*
X99501904Y-178962619D02*
X99454285Y-178915000D01*
X99359047Y-178867380D01*
X99120952Y-178867380D01*
X99025714Y-178915000D01*
X98978095Y-178962619D01*
X98930476Y-179057857D01*
X98930476Y-179153095D01*
X98978095Y-179295952D01*
X99549523Y-179867380D01*
X98930476Y-179867380D01*
X140899523Y-179819761D02*
X140756666Y-179867380D01*
X140518571Y-179867380D01*
X140423333Y-179819761D01*
X140375714Y-179772142D01*
X140328095Y-179676904D01*
X140328095Y-179581666D01*
X140375714Y-179486428D01*
X140423333Y-179438809D01*
X140518571Y-179391190D01*
X140709047Y-179343571D01*
X140804285Y-179295952D01*
X140851904Y-179248333D01*
X140899523Y-179153095D01*
X140899523Y-179057857D01*
X140851904Y-178962619D01*
X140804285Y-178915000D01*
X140709047Y-178867380D01*
X140470952Y-178867380D01*
X140328095Y-178915000D01*
X139994761Y-178867380D02*
X139756666Y-179867380D01*
X139566190Y-179153095D01*
X139375714Y-179867380D01*
X139137619Y-178867380D01*
X138328095Y-179200714D02*
X138328095Y-179867380D01*
X138566190Y-178819761D02*
X138804285Y-179534047D01*
X138185238Y-179534047D01*
X137899523Y-178867380D02*
X137280476Y-178867380D01*
X137613809Y-179248333D01*
X137470952Y-179248333D01*
X137375714Y-179295952D01*
X137328095Y-179343571D01*
X137280476Y-179438809D01*
X137280476Y-179676904D01*
X137328095Y-179772142D01*
X137375714Y-179819761D01*
X137470952Y-179867380D01*
X137756666Y-179867380D01*
X137851904Y-179819761D01*
X137899523Y-179772142D01*
X179279523Y-179819761D02*
X179136666Y-179867380D01*
X178898571Y-179867380D01*
X178803333Y-179819761D01*
X178755714Y-179772142D01*
X178708095Y-179676904D01*
X178708095Y-179581666D01*
X178755714Y-179486428D01*
X178803333Y-179438809D01*
X178898571Y-179391190D01*
X179089047Y-179343571D01*
X179184285Y-179295952D01*
X179231904Y-179248333D01*
X179279523Y-179153095D01*
X179279523Y-179057857D01*
X179231904Y-178962619D01*
X179184285Y-178915000D01*
X179089047Y-178867380D01*
X178850952Y-178867380D01*
X178708095Y-178915000D01*
X178374761Y-178867380D02*
X178136666Y-179867380D01*
X177946190Y-179153095D01*
X177755714Y-179867380D01*
X177517619Y-178867380D01*
X176708095Y-179200714D02*
X176708095Y-179867380D01*
X176946190Y-178819761D02*
X177184285Y-179534047D01*
X176565238Y-179534047D01*
X175755714Y-179200714D02*
X175755714Y-179867380D01*
X175993809Y-178819761D02*
X176231904Y-179534047D01*
X175612857Y-179534047D01*
X217639523Y-179819761D02*
X217496666Y-179867380D01*
X217258571Y-179867380D01*
X217163333Y-179819761D01*
X217115714Y-179772142D01*
X217068095Y-179676904D01*
X217068095Y-179581666D01*
X217115714Y-179486428D01*
X217163333Y-179438809D01*
X217258571Y-179391190D01*
X217449047Y-179343571D01*
X217544285Y-179295952D01*
X217591904Y-179248333D01*
X217639523Y-179153095D01*
X217639523Y-179057857D01*
X217591904Y-178962619D01*
X217544285Y-178915000D01*
X217449047Y-178867380D01*
X217210952Y-178867380D01*
X217068095Y-178915000D01*
X216734761Y-178867380D02*
X216496666Y-179867380D01*
X216306190Y-179153095D01*
X216115714Y-179867380D01*
X215877619Y-178867380D01*
X215068095Y-179200714D02*
X215068095Y-179867380D01*
X215306190Y-178819761D02*
X215544285Y-179534047D01*
X214925238Y-179534047D01*
X214068095Y-178867380D02*
X214544285Y-178867380D01*
X214591904Y-179343571D01*
X214544285Y-179295952D01*
X214449047Y-179248333D01*
X214210952Y-179248333D01*
X214115714Y-179295952D01*
X214068095Y-179343571D01*
X214020476Y-179438809D01*
X214020476Y-179676904D01*
X214068095Y-179772142D01*
X214115714Y-179819761D01*
X214210952Y-179867380D01*
X214449047Y-179867380D01*
X214544285Y-179819761D01*
X214591904Y-179772142D01*
X256009523Y-179819761D02*
X255866666Y-179867380D01*
X255628571Y-179867380D01*
X255533333Y-179819761D01*
X255485714Y-179772142D01*
X255438095Y-179676904D01*
X255438095Y-179581666D01*
X255485714Y-179486428D01*
X255533333Y-179438809D01*
X255628571Y-179391190D01*
X255819047Y-179343571D01*
X255914285Y-179295952D01*
X255961904Y-179248333D01*
X256009523Y-179153095D01*
X256009523Y-179057857D01*
X255961904Y-178962619D01*
X255914285Y-178915000D01*
X255819047Y-178867380D01*
X255580952Y-178867380D01*
X255438095Y-178915000D01*
X255104761Y-178867380D02*
X254866666Y-179867380D01*
X254676190Y-179153095D01*
X254485714Y-179867380D01*
X254247619Y-178867380D01*
X253438095Y-179200714D02*
X253438095Y-179867380D01*
X253676190Y-178819761D02*
X253914285Y-179534047D01*
X253295238Y-179534047D01*
X252485714Y-178867380D02*
X252676190Y-178867380D01*
X252771428Y-178915000D01*
X252819047Y-178962619D01*
X252914285Y-179105476D01*
X252961904Y-179295952D01*
X252961904Y-179676904D01*
X252914285Y-179772142D01*
X252866666Y-179819761D01*
X252771428Y-179867380D01*
X252580952Y-179867380D01*
X252485714Y-179819761D01*
X252438095Y-179772142D01*
X252390476Y-179676904D01*
X252390476Y-179438809D01*
X252438095Y-179343571D01*
X252485714Y-179295952D01*
X252580952Y-179248333D01*
X252771428Y-179248333D01*
X252866666Y-179295952D01*
X252914285Y-179343571D01*
X252961904Y-179438809D01*
X294399523Y-179839761D02*
X294256666Y-179887380D01*
X294018571Y-179887380D01*
X293923333Y-179839761D01*
X293875714Y-179792142D01*
X293828095Y-179696904D01*
X293828095Y-179601666D01*
X293875714Y-179506428D01*
X293923333Y-179458809D01*
X294018571Y-179411190D01*
X294209047Y-179363571D01*
X294304285Y-179315952D01*
X294351904Y-179268333D01*
X294399523Y-179173095D01*
X294399523Y-179077857D01*
X294351904Y-178982619D01*
X294304285Y-178935000D01*
X294209047Y-178887380D01*
X293970952Y-178887380D01*
X293828095Y-178935000D01*
X293494761Y-178887380D02*
X293256666Y-179887380D01*
X293066190Y-179173095D01*
X292875714Y-179887380D01*
X292637619Y-178887380D01*
X291828095Y-179220714D02*
X291828095Y-179887380D01*
X292066190Y-178839761D02*
X292304285Y-179554047D01*
X291685238Y-179554047D01*
X291399523Y-178887380D02*
X290732857Y-178887380D01*
X291161428Y-179887380D01*
X381529523Y-161149761D02*
X381386666Y-161197380D01*
X381148571Y-161197380D01*
X381053333Y-161149761D01*
X381005714Y-161102142D01*
X380958095Y-161006904D01*
X380958095Y-160911666D01*
X381005714Y-160816428D01*
X381053333Y-160768809D01*
X381148571Y-160721190D01*
X381339047Y-160673571D01*
X381434285Y-160625952D01*
X381481904Y-160578333D01*
X381529523Y-160483095D01*
X381529523Y-160387857D01*
X381481904Y-160292619D01*
X381434285Y-160245000D01*
X381339047Y-160197380D01*
X381100952Y-160197380D01*
X380958095Y-160245000D01*
X380624761Y-160197380D02*
X380386666Y-161197380D01*
X380196190Y-160483095D01*
X380005714Y-161197380D01*
X379767619Y-160197380D01*
X378958095Y-160530714D02*
X378958095Y-161197380D01*
X379196190Y-160149761D02*
X379434285Y-160864047D01*
X378815238Y-160864047D01*
X378291428Y-160625952D02*
X378386666Y-160578333D01*
X378434285Y-160530714D01*
X378481904Y-160435476D01*
X378481904Y-160387857D01*
X378434285Y-160292619D01*
X378386666Y-160245000D01*
X378291428Y-160197380D01*
X378100952Y-160197380D01*
X378005714Y-160245000D01*
X377958095Y-160292619D01*
X377910476Y-160387857D01*
X377910476Y-160435476D01*
X377958095Y-160530714D01*
X378005714Y-160578333D01*
X378100952Y-160625952D01*
X378291428Y-160625952D01*
X378386666Y-160673571D01*
X378434285Y-160721190D01*
X378481904Y-160816428D01*
X378481904Y-161006904D01*
X378434285Y-161102142D01*
X378386666Y-161149761D01*
X378291428Y-161197380D01*
X378100952Y-161197380D01*
X378005714Y-161149761D01*
X377958095Y-161102142D01*
X377910476Y-161006904D01*
X377910476Y-160816428D01*
X377958095Y-160721190D01*
X378005714Y-160673571D01*
X378100952Y-160625952D01*
X77479523Y-160659761D02*
X77336666Y-160707380D01*
X77098571Y-160707380D01*
X77003333Y-160659761D01*
X76955714Y-160612142D01*
X76908095Y-160516904D01*
X76908095Y-160421666D01*
X76955714Y-160326428D01*
X77003333Y-160278809D01*
X77098571Y-160231190D01*
X77289047Y-160183571D01*
X77384285Y-160135952D01*
X77431904Y-160088333D01*
X77479523Y-159993095D01*
X77479523Y-159897857D01*
X77431904Y-159802619D01*
X77384285Y-159755000D01*
X77289047Y-159707380D01*
X77050952Y-159707380D01*
X76908095Y-159755000D01*
X76574761Y-159707380D02*
X76336666Y-160707380D01*
X76146190Y-159993095D01*
X75955714Y-160707380D01*
X75717619Y-159707380D01*
X74908095Y-160040714D02*
X74908095Y-160707380D01*
X75146190Y-159659761D02*
X75384285Y-160374047D01*
X74765238Y-160374047D01*
X74336666Y-160707380D02*
X74146190Y-160707380D01*
X74050952Y-160659761D01*
X74003333Y-160612142D01*
X73908095Y-160469285D01*
X73860476Y-160278809D01*
X73860476Y-159897857D01*
X73908095Y-159802619D01*
X73955714Y-159755000D01*
X74050952Y-159707380D01*
X74241428Y-159707380D01*
X74336666Y-159755000D01*
X74384285Y-159802619D01*
X74431904Y-159897857D01*
X74431904Y-160135952D01*
X74384285Y-160231190D01*
X74336666Y-160278809D01*
X74241428Y-160326428D01*
X74050952Y-160326428D01*
X73955714Y-160278809D01*
X73908095Y-160231190D01*
X73860476Y-160135952D01*
X115879523Y-160659761D02*
X115736666Y-160707380D01*
X115498571Y-160707380D01*
X115403333Y-160659761D01*
X115355714Y-160612142D01*
X115308095Y-160516904D01*
X115308095Y-160421666D01*
X115355714Y-160326428D01*
X115403333Y-160278809D01*
X115498571Y-160231190D01*
X115689047Y-160183571D01*
X115784285Y-160135952D01*
X115831904Y-160088333D01*
X115879523Y-159993095D01*
X115879523Y-159897857D01*
X115831904Y-159802619D01*
X115784285Y-159755000D01*
X115689047Y-159707380D01*
X115450952Y-159707380D01*
X115308095Y-159755000D01*
X114974761Y-159707380D02*
X114736666Y-160707380D01*
X114546190Y-159993095D01*
X114355714Y-160707380D01*
X114117619Y-159707380D01*
X113260476Y-159707380D02*
X113736666Y-159707380D01*
X113784285Y-160183571D01*
X113736666Y-160135952D01*
X113641428Y-160088333D01*
X113403333Y-160088333D01*
X113308095Y-160135952D01*
X113260476Y-160183571D01*
X113212857Y-160278809D01*
X113212857Y-160516904D01*
X113260476Y-160612142D01*
X113308095Y-160659761D01*
X113403333Y-160707380D01*
X113641428Y-160707380D01*
X113736666Y-160659761D01*
X113784285Y-160612142D01*
X112593809Y-159707380D02*
X112498571Y-159707380D01*
X112403333Y-159755000D01*
X112355714Y-159802619D01*
X112308095Y-159897857D01*
X112260476Y-160088333D01*
X112260476Y-160326428D01*
X112308095Y-160516904D01*
X112355714Y-160612142D01*
X112403333Y-160659761D01*
X112498571Y-160707380D01*
X112593809Y-160707380D01*
X112689047Y-160659761D01*
X112736666Y-160612142D01*
X112784285Y-160516904D01*
X112831904Y-160326428D01*
X112831904Y-160088333D01*
X112784285Y-159897857D01*
X112736666Y-159802619D01*
X112689047Y-159755000D01*
X112593809Y-159707380D01*
X154269523Y-160659761D02*
X154126666Y-160707380D01*
X153888571Y-160707380D01*
X153793333Y-160659761D01*
X153745714Y-160612142D01*
X153698095Y-160516904D01*
X153698095Y-160421666D01*
X153745714Y-160326428D01*
X153793333Y-160278809D01*
X153888571Y-160231190D01*
X154079047Y-160183571D01*
X154174285Y-160135952D01*
X154221904Y-160088333D01*
X154269523Y-159993095D01*
X154269523Y-159897857D01*
X154221904Y-159802619D01*
X154174285Y-159755000D01*
X154079047Y-159707380D01*
X153840952Y-159707380D01*
X153698095Y-159755000D01*
X153364761Y-159707380D02*
X153126666Y-160707380D01*
X152936190Y-159993095D01*
X152745714Y-160707380D01*
X152507619Y-159707380D01*
X151650476Y-159707380D02*
X152126666Y-159707380D01*
X152174285Y-160183571D01*
X152126666Y-160135952D01*
X152031428Y-160088333D01*
X151793333Y-160088333D01*
X151698095Y-160135952D01*
X151650476Y-160183571D01*
X151602857Y-160278809D01*
X151602857Y-160516904D01*
X151650476Y-160612142D01*
X151698095Y-160659761D01*
X151793333Y-160707380D01*
X152031428Y-160707380D01*
X152126666Y-160659761D01*
X152174285Y-160612142D01*
X150650476Y-160707380D02*
X151221904Y-160707380D01*
X150936190Y-160707380D02*
X150936190Y-159707380D01*
X151031428Y-159850238D01*
X151126666Y-159945476D01*
X151221904Y-159993095D01*
X192649523Y-160659761D02*
X192506666Y-160707380D01*
X192268571Y-160707380D01*
X192173333Y-160659761D01*
X192125714Y-160612142D01*
X192078095Y-160516904D01*
X192078095Y-160421666D01*
X192125714Y-160326428D01*
X192173333Y-160278809D01*
X192268571Y-160231190D01*
X192459047Y-160183571D01*
X192554285Y-160135952D01*
X192601904Y-160088333D01*
X192649523Y-159993095D01*
X192649523Y-159897857D01*
X192601904Y-159802619D01*
X192554285Y-159755000D01*
X192459047Y-159707380D01*
X192220952Y-159707380D01*
X192078095Y-159755000D01*
X191744761Y-159707380D02*
X191506666Y-160707380D01*
X191316190Y-159993095D01*
X191125714Y-160707380D01*
X190887619Y-159707380D01*
X190030476Y-159707380D02*
X190506666Y-159707380D01*
X190554285Y-160183571D01*
X190506666Y-160135952D01*
X190411428Y-160088333D01*
X190173333Y-160088333D01*
X190078095Y-160135952D01*
X190030476Y-160183571D01*
X189982857Y-160278809D01*
X189982857Y-160516904D01*
X190030476Y-160612142D01*
X190078095Y-160659761D01*
X190173333Y-160707380D01*
X190411428Y-160707380D01*
X190506666Y-160659761D01*
X190554285Y-160612142D01*
X189601904Y-159802619D02*
X189554285Y-159755000D01*
X189459047Y-159707380D01*
X189220952Y-159707380D01*
X189125714Y-159755000D01*
X189078095Y-159802619D01*
X189030476Y-159897857D01*
X189030476Y-159993095D01*
X189078095Y-160135952D01*
X189649523Y-160707380D01*
X189030476Y-160707380D01*
X231039523Y-160659761D02*
X230896666Y-160707380D01*
X230658571Y-160707380D01*
X230563333Y-160659761D01*
X230515714Y-160612142D01*
X230468095Y-160516904D01*
X230468095Y-160421666D01*
X230515714Y-160326428D01*
X230563333Y-160278809D01*
X230658571Y-160231190D01*
X230849047Y-160183571D01*
X230944285Y-160135952D01*
X230991904Y-160088333D01*
X231039523Y-159993095D01*
X231039523Y-159897857D01*
X230991904Y-159802619D01*
X230944285Y-159755000D01*
X230849047Y-159707380D01*
X230610952Y-159707380D01*
X230468095Y-159755000D01*
X230134761Y-159707380D02*
X229896666Y-160707380D01*
X229706190Y-159993095D01*
X229515714Y-160707380D01*
X229277619Y-159707380D01*
X228420476Y-159707380D02*
X228896666Y-159707380D01*
X228944285Y-160183571D01*
X228896666Y-160135952D01*
X228801428Y-160088333D01*
X228563333Y-160088333D01*
X228468095Y-160135952D01*
X228420476Y-160183571D01*
X228372857Y-160278809D01*
X228372857Y-160516904D01*
X228420476Y-160612142D01*
X228468095Y-160659761D01*
X228563333Y-160707380D01*
X228801428Y-160707380D01*
X228896666Y-160659761D01*
X228944285Y-160612142D01*
X228039523Y-159707380D02*
X227420476Y-159707380D01*
X227753809Y-160088333D01*
X227610952Y-160088333D01*
X227515714Y-160135952D01*
X227468095Y-160183571D01*
X227420476Y-160278809D01*
X227420476Y-160516904D01*
X227468095Y-160612142D01*
X227515714Y-160659761D01*
X227610952Y-160707380D01*
X227896666Y-160707380D01*
X227991904Y-160659761D01*
X228039523Y-160612142D01*
X269439523Y-160659761D02*
X269296666Y-160707380D01*
X269058571Y-160707380D01*
X268963333Y-160659761D01*
X268915714Y-160612142D01*
X268868095Y-160516904D01*
X268868095Y-160421666D01*
X268915714Y-160326428D01*
X268963333Y-160278809D01*
X269058571Y-160231190D01*
X269249047Y-160183571D01*
X269344285Y-160135952D01*
X269391904Y-160088333D01*
X269439523Y-159993095D01*
X269439523Y-159897857D01*
X269391904Y-159802619D01*
X269344285Y-159755000D01*
X269249047Y-159707380D01*
X269010952Y-159707380D01*
X268868095Y-159755000D01*
X268534761Y-159707380D02*
X268296666Y-160707380D01*
X268106190Y-159993095D01*
X267915714Y-160707380D01*
X267677619Y-159707380D01*
X266820476Y-159707380D02*
X267296666Y-159707380D01*
X267344285Y-160183571D01*
X267296666Y-160135952D01*
X267201428Y-160088333D01*
X266963333Y-160088333D01*
X266868095Y-160135952D01*
X266820476Y-160183571D01*
X266772857Y-160278809D01*
X266772857Y-160516904D01*
X266820476Y-160612142D01*
X266868095Y-160659761D01*
X266963333Y-160707380D01*
X267201428Y-160707380D01*
X267296666Y-160659761D01*
X267344285Y-160612142D01*
X265915714Y-160040714D02*
X265915714Y-160707380D01*
X266153809Y-159659761D02*
X266391904Y-160374047D01*
X265772857Y-160374047D01*
X307789523Y-160669761D02*
X307646666Y-160717380D01*
X307408571Y-160717380D01*
X307313333Y-160669761D01*
X307265714Y-160622142D01*
X307218095Y-160526904D01*
X307218095Y-160431666D01*
X307265714Y-160336428D01*
X307313333Y-160288809D01*
X307408571Y-160241190D01*
X307599047Y-160193571D01*
X307694285Y-160145952D01*
X307741904Y-160098333D01*
X307789523Y-160003095D01*
X307789523Y-159907857D01*
X307741904Y-159812619D01*
X307694285Y-159765000D01*
X307599047Y-159717380D01*
X307360952Y-159717380D01*
X307218095Y-159765000D01*
X306884761Y-159717380D02*
X306646666Y-160717380D01*
X306456190Y-160003095D01*
X306265714Y-160717380D01*
X306027619Y-159717380D01*
X305170476Y-159717380D02*
X305646666Y-159717380D01*
X305694285Y-160193571D01*
X305646666Y-160145952D01*
X305551428Y-160098333D01*
X305313333Y-160098333D01*
X305218095Y-160145952D01*
X305170476Y-160193571D01*
X305122857Y-160288809D01*
X305122857Y-160526904D01*
X305170476Y-160622142D01*
X305218095Y-160669761D01*
X305313333Y-160717380D01*
X305551428Y-160717380D01*
X305646666Y-160669761D01*
X305694285Y-160622142D01*
X304218095Y-159717380D02*
X304694285Y-159717380D01*
X304741904Y-160193571D01*
X304694285Y-160145952D01*
X304599047Y-160098333D01*
X304360952Y-160098333D01*
X304265714Y-160145952D01*
X304218095Y-160193571D01*
X304170476Y-160288809D01*
X304170476Y-160526904D01*
X304218095Y-160622142D01*
X304265714Y-160669761D01*
X304360952Y-160717380D01*
X304599047Y-160717380D01*
X304694285Y-160669761D01*
X304741904Y-160622142D01*
X381529523Y-180459761D02*
X381386666Y-180507380D01*
X381148571Y-180507380D01*
X381053333Y-180459761D01*
X381005714Y-180412142D01*
X380958095Y-180316904D01*
X380958095Y-180221666D01*
X381005714Y-180126428D01*
X381053333Y-180078809D01*
X381148571Y-180031190D01*
X381339047Y-179983571D01*
X381434285Y-179935952D01*
X381481904Y-179888333D01*
X381529523Y-179793095D01*
X381529523Y-179697857D01*
X381481904Y-179602619D01*
X381434285Y-179555000D01*
X381339047Y-179507380D01*
X381100952Y-179507380D01*
X380958095Y-179555000D01*
X380624761Y-179507380D02*
X380386666Y-180507380D01*
X380196190Y-179793095D01*
X380005714Y-180507380D01*
X379767619Y-179507380D01*
X378910476Y-179507380D02*
X379386666Y-179507380D01*
X379434285Y-179983571D01*
X379386666Y-179935952D01*
X379291428Y-179888333D01*
X379053333Y-179888333D01*
X378958095Y-179935952D01*
X378910476Y-179983571D01*
X378862857Y-180078809D01*
X378862857Y-180316904D01*
X378910476Y-180412142D01*
X378958095Y-180459761D01*
X379053333Y-180507380D01*
X379291428Y-180507380D01*
X379386666Y-180459761D01*
X379434285Y-180412142D01*
X378005714Y-179507380D02*
X378196190Y-179507380D01*
X378291428Y-179555000D01*
X378339047Y-179602619D01*
X378434285Y-179745476D01*
X378481904Y-179935952D01*
X378481904Y-180316904D01*
X378434285Y-180412142D01*
X378386666Y-180459761D01*
X378291428Y-180507380D01*
X378100952Y-180507380D01*
X378005714Y-180459761D01*
X377958095Y-180412142D01*
X377910476Y-180316904D01*
X377910476Y-180078809D01*
X377958095Y-179983571D01*
X378005714Y-179935952D01*
X378100952Y-179888333D01*
X378291428Y-179888333D01*
X378386666Y-179935952D01*
X378434285Y-179983571D01*
X378481904Y-180078809D01*
X87079523Y-141459761D02*
X86936666Y-141507380D01*
X86698571Y-141507380D01*
X86603333Y-141459761D01*
X86555714Y-141412142D01*
X86508095Y-141316904D01*
X86508095Y-141221666D01*
X86555714Y-141126428D01*
X86603333Y-141078809D01*
X86698571Y-141031190D01*
X86889047Y-140983571D01*
X86984285Y-140935952D01*
X87031904Y-140888333D01*
X87079523Y-140793095D01*
X87079523Y-140697857D01*
X87031904Y-140602619D01*
X86984285Y-140555000D01*
X86889047Y-140507380D01*
X86650952Y-140507380D01*
X86508095Y-140555000D01*
X86174761Y-140507380D02*
X85936666Y-141507380D01*
X85746190Y-140793095D01*
X85555714Y-141507380D01*
X85317619Y-140507380D01*
X84460476Y-140507380D02*
X84936666Y-140507380D01*
X84984285Y-140983571D01*
X84936666Y-140935952D01*
X84841428Y-140888333D01*
X84603333Y-140888333D01*
X84508095Y-140935952D01*
X84460476Y-140983571D01*
X84412857Y-141078809D01*
X84412857Y-141316904D01*
X84460476Y-141412142D01*
X84508095Y-141459761D01*
X84603333Y-141507380D01*
X84841428Y-141507380D01*
X84936666Y-141459761D01*
X84984285Y-141412142D01*
X84079523Y-140507380D02*
X83412857Y-140507380D01*
X83841428Y-141507380D01*
X125449523Y-141459761D02*
X125306666Y-141507380D01*
X125068571Y-141507380D01*
X124973333Y-141459761D01*
X124925714Y-141412142D01*
X124878095Y-141316904D01*
X124878095Y-141221666D01*
X124925714Y-141126428D01*
X124973333Y-141078809D01*
X125068571Y-141031190D01*
X125259047Y-140983571D01*
X125354285Y-140935952D01*
X125401904Y-140888333D01*
X125449523Y-140793095D01*
X125449523Y-140697857D01*
X125401904Y-140602619D01*
X125354285Y-140555000D01*
X125259047Y-140507380D01*
X125020952Y-140507380D01*
X124878095Y-140555000D01*
X124544761Y-140507380D02*
X124306666Y-141507380D01*
X124116190Y-140793095D01*
X123925714Y-141507380D01*
X123687619Y-140507380D01*
X122830476Y-140507380D02*
X123306666Y-140507380D01*
X123354285Y-140983571D01*
X123306666Y-140935952D01*
X123211428Y-140888333D01*
X122973333Y-140888333D01*
X122878095Y-140935952D01*
X122830476Y-140983571D01*
X122782857Y-141078809D01*
X122782857Y-141316904D01*
X122830476Y-141412142D01*
X122878095Y-141459761D01*
X122973333Y-141507380D01*
X123211428Y-141507380D01*
X123306666Y-141459761D01*
X123354285Y-141412142D01*
X122211428Y-140935952D02*
X122306666Y-140888333D01*
X122354285Y-140840714D01*
X122401904Y-140745476D01*
X122401904Y-140697857D01*
X122354285Y-140602619D01*
X122306666Y-140555000D01*
X122211428Y-140507380D01*
X122020952Y-140507380D01*
X121925714Y-140555000D01*
X121878095Y-140602619D01*
X121830476Y-140697857D01*
X121830476Y-140745476D01*
X121878095Y-140840714D01*
X121925714Y-140888333D01*
X122020952Y-140935952D01*
X122211428Y-140935952D01*
X122306666Y-140983571D01*
X122354285Y-141031190D01*
X122401904Y-141126428D01*
X122401904Y-141316904D01*
X122354285Y-141412142D01*
X122306666Y-141459761D01*
X122211428Y-141507380D01*
X122020952Y-141507380D01*
X121925714Y-141459761D01*
X121878095Y-141412142D01*
X121830476Y-141316904D01*
X121830476Y-141126428D01*
X121878095Y-141031190D01*
X121925714Y-140983571D01*
X122020952Y-140935952D01*
X163829523Y-141459761D02*
X163686666Y-141507380D01*
X163448571Y-141507380D01*
X163353333Y-141459761D01*
X163305714Y-141412142D01*
X163258095Y-141316904D01*
X163258095Y-141221666D01*
X163305714Y-141126428D01*
X163353333Y-141078809D01*
X163448571Y-141031190D01*
X163639047Y-140983571D01*
X163734285Y-140935952D01*
X163781904Y-140888333D01*
X163829523Y-140793095D01*
X163829523Y-140697857D01*
X163781904Y-140602619D01*
X163734285Y-140555000D01*
X163639047Y-140507380D01*
X163400952Y-140507380D01*
X163258095Y-140555000D01*
X162924761Y-140507380D02*
X162686666Y-141507380D01*
X162496190Y-140793095D01*
X162305714Y-141507380D01*
X162067619Y-140507380D01*
X161210476Y-140507380D02*
X161686666Y-140507380D01*
X161734285Y-140983571D01*
X161686666Y-140935952D01*
X161591428Y-140888333D01*
X161353333Y-140888333D01*
X161258095Y-140935952D01*
X161210476Y-140983571D01*
X161162857Y-141078809D01*
X161162857Y-141316904D01*
X161210476Y-141412142D01*
X161258095Y-141459761D01*
X161353333Y-141507380D01*
X161591428Y-141507380D01*
X161686666Y-141459761D01*
X161734285Y-141412142D01*
X160686666Y-141507380D02*
X160496190Y-141507380D01*
X160400952Y-141459761D01*
X160353333Y-141412142D01*
X160258095Y-141269285D01*
X160210476Y-141078809D01*
X160210476Y-140697857D01*
X160258095Y-140602619D01*
X160305714Y-140555000D01*
X160400952Y-140507380D01*
X160591428Y-140507380D01*
X160686666Y-140555000D01*
X160734285Y-140602619D01*
X160781904Y-140697857D01*
X160781904Y-140935952D01*
X160734285Y-141031190D01*
X160686666Y-141078809D01*
X160591428Y-141126428D01*
X160400952Y-141126428D01*
X160305714Y-141078809D01*
X160258095Y-141031190D01*
X160210476Y-140935952D01*
X202199523Y-141459761D02*
X202056666Y-141507380D01*
X201818571Y-141507380D01*
X201723333Y-141459761D01*
X201675714Y-141412142D01*
X201628095Y-141316904D01*
X201628095Y-141221666D01*
X201675714Y-141126428D01*
X201723333Y-141078809D01*
X201818571Y-141031190D01*
X202009047Y-140983571D01*
X202104285Y-140935952D01*
X202151904Y-140888333D01*
X202199523Y-140793095D01*
X202199523Y-140697857D01*
X202151904Y-140602619D01*
X202104285Y-140555000D01*
X202009047Y-140507380D01*
X201770952Y-140507380D01*
X201628095Y-140555000D01*
X201294761Y-140507380D02*
X201056666Y-141507380D01*
X200866190Y-140793095D01*
X200675714Y-141507380D01*
X200437619Y-140507380D01*
X199628095Y-140507380D02*
X199818571Y-140507380D01*
X199913809Y-140555000D01*
X199961428Y-140602619D01*
X200056666Y-140745476D01*
X200104285Y-140935952D01*
X200104285Y-141316904D01*
X200056666Y-141412142D01*
X200009047Y-141459761D01*
X199913809Y-141507380D01*
X199723333Y-141507380D01*
X199628095Y-141459761D01*
X199580476Y-141412142D01*
X199532857Y-141316904D01*
X199532857Y-141078809D01*
X199580476Y-140983571D01*
X199628095Y-140935952D01*
X199723333Y-140888333D01*
X199913809Y-140888333D01*
X200009047Y-140935952D01*
X200056666Y-140983571D01*
X200104285Y-141078809D01*
X198913809Y-140507380D02*
X198818571Y-140507380D01*
X198723333Y-140555000D01*
X198675714Y-140602619D01*
X198628095Y-140697857D01*
X198580476Y-140888333D01*
X198580476Y-141126428D01*
X198628095Y-141316904D01*
X198675714Y-141412142D01*
X198723333Y-141459761D01*
X198818571Y-141507380D01*
X198913809Y-141507380D01*
X199009047Y-141459761D01*
X199056666Y-141412142D01*
X199104285Y-141316904D01*
X199151904Y-141126428D01*
X199151904Y-140888333D01*
X199104285Y-140697857D01*
X199056666Y-140602619D01*
X199009047Y-140555000D01*
X198913809Y-140507380D01*
X240569523Y-141459761D02*
X240426666Y-141507380D01*
X240188571Y-141507380D01*
X240093333Y-141459761D01*
X240045714Y-141412142D01*
X239998095Y-141316904D01*
X239998095Y-141221666D01*
X240045714Y-141126428D01*
X240093333Y-141078809D01*
X240188571Y-141031190D01*
X240379047Y-140983571D01*
X240474285Y-140935952D01*
X240521904Y-140888333D01*
X240569523Y-140793095D01*
X240569523Y-140697857D01*
X240521904Y-140602619D01*
X240474285Y-140555000D01*
X240379047Y-140507380D01*
X240140952Y-140507380D01*
X239998095Y-140555000D01*
X239664761Y-140507380D02*
X239426666Y-141507380D01*
X239236190Y-140793095D01*
X239045714Y-141507380D01*
X238807619Y-140507380D01*
X237998095Y-140507380D02*
X238188571Y-140507380D01*
X238283809Y-140555000D01*
X238331428Y-140602619D01*
X238426666Y-140745476D01*
X238474285Y-140935952D01*
X238474285Y-141316904D01*
X238426666Y-141412142D01*
X238379047Y-141459761D01*
X238283809Y-141507380D01*
X238093333Y-141507380D01*
X237998095Y-141459761D01*
X237950476Y-141412142D01*
X237902857Y-141316904D01*
X237902857Y-141078809D01*
X237950476Y-140983571D01*
X237998095Y-140935952D01*
X238093333Y-140888333D01*
X238283809Y-140888333D01*
X238379047Y-140935952D01*
X238426666Y-140983571D01*
X238474285Y-141078809D01*
X236950476Y-141507380D02*
X237521904Y-141507380D01*
X237236190Y-141507380D02*
X237236190Y-140507380D01*
X237331428Y-140650238D01*
X237426666Y-140745476D01*
X237521904Y-140793095D01*
X278959523Y-141459761D02*
X278816666Y-141507380D01*
X278578571Y-141507380D01*
X278483333Y-141459761D01*
X278435714Y-141412142D01*
X278388095Y-141316904D01*
X278388095Y-141221666D01*
X278435714Y-141126428D01*
X278483333Y-141078809D01*
X278578571Y-141031190D01*
X278769047Y-140983571D01*
X278864285Y-140935952D01*
X278911904Y-140888333D01*
X278959523Y-140793095D01*
X278959523Y-140697857D01*
X278911904Y-140602619D01*
X278864285Y-140555000D01*
X278769047Y-140507380D01*
X278530952Y-140507380D01*
X278388095Y-140555000D01*
X278054761Y-140507380D02*
X277816666Y-141507380D01*
X277626190Y-140793095D01*
X277435714Y-141507380D01*
X277197619Y-140507380D01*
X276388095Y-140507380D02*
X276578571Y-140507380D01*
X276673809Y-140555000D01*
X276721428Y-140602619D01*
X276816666Y-140745476D01*
X276864285Y-140935952D01*
X276864285Y-141316904D01*
X276816666Y-141412142D01*
X276769047Y-141459761D01*
X276673809Y-141507380D01*
X276483333Y-141507380D01*
X276388095Y-141459761D01*
X276340476Y-141412142D01*
X276292857Y-141316904D01*
X276292857Y-141078809D01*
X276340476Y-140983571D01*
X276388095Y-140935952D01*
X276483333Y-140888333D01*
X276673809Y-140888333D01*
X276769047Y-140935952D01*
X276816666Y-140983571D01*
X276864285Y-141078809D01*
X275911904Y-140602619D02*
X275864285Y-140555000D01*
X275769047Y-140507380D01*
X275530952Y-140507380D01*
X275435714Y-140555000D01*
X275388095Y-140602619D01*
X275340476Y-140697857D01*
X275340476Y-140793095D01*
X275388095Y-140935952D01*
X275959523Y-141507380D01*
X275340476Y-141507380D01*
X317339523Y-141459761D02*
X317196666Y-141507380D01*
X316958571Y-141507380D01*
X316863333Y-141459761D01*
X316815714Y-141412142D01*
X316768095Y-141316904D01*
X316768095Y-141221666D01*
X316815714Y-141126428D01*
X316863333Y-141078809D01*
X316958571Y-141031190D01*
X317149047Y-140983571D01*
X317244285Y-140935952D01*
X317291904Y-140888333D01*
X317339523Y-140793095D01*
X317339523Y-140697857D01*
X317291904Y-140602619D01*
X317244285Y-140555000D01*
X317149047Y-140507380D01*
X316910952Y-140507380D01*
X316768095Y-140555000D01*
X316434761Y-140507380D02*
X316196666Y-141507380D01*
X316006190Y-140793095D01*
X315815714Y-141507380D01*
X315577619Y-140507380D01*
X314768095Y-140507380D02*
X314958571Y-140507380D01*
X315053809Y-140555000D01*
X315101428Y-140602619D01*
X315196666Y-140745476D01*
X315244285Y-140935952D01*
X315244285Y-141316904D01*
X315196666Y-141412142D01*
X315149047Y-141459761D01*
X315053809Y-141507380D01*
X314863333Y-141507380D01*
X314768095Y-141459761D01*
X314720476Y-141412142D01*
X314672857Y-141316904D01*
X314672857Y-141078809D01*
X314720476Y-140983571D01*
X314768095Y-140935952D01*
X314863333Y-140888333D01*
X315053809Y-140888333D01*
X315149047Y-140935952D01*
X315196666Y-140983571D01*
X315244285Y-141078809D01*
X314339523Y-140507380D02*
X313720476Y-140507380D01*
X314053809Y-140888333D01*
X313910952Y-140888333D01*
X313815714Y-140935952D01*
X313768095Y-140983571D01*
X313720476Y-141078809D01*
X313720476Y-141316904D01*
X313768095Y-141412142D01*
X313815714Y-141459761D01*
X313910952Y-141507380D01*
X314196666Y-141507380D01*
X314291904Y-141459761D01*
X314339523Y-141412142D01*
X381529523Y-199739761D02*
X381386666Y-199787380D01*
X381148571Y-199787380D01*
X381053333Y-199739761D01*
X381005714Y-199692142D01*
X380958095Y-199596904D01*
X380958095Y-199501666D01*
X381005714Y-199406428D01*
X381053333Y-199358809D01*
X381148571Y-199311190D01*
X381339047Y-199263571D01*
X381434285Y-199215952D01*
X381481904Y-199168333D01*
X381529523Y-199073095D01*
X381529523Y-198977857D01*
X381481904Y-198882619D01*
X381434285Y-198835000D01*
X381339047Y-198787380D01*
X381100952Y-198787380D01*
X380958095Y-198835000D01*
X380624761Y-198787380D02*
X380386666Y-199787380D01*
X380196190Y-199073095D01*
X380005714Y-199787380D01*
X379767619Y-198787380D01*
X378958095Y-198787380D02*
X379148571Y-198787380D01*
X379243809Y-198835000D01*
X379291428Y-198882619D01*
X379386666Y-199025476D01*
X379434285Y-199215952D01*
X379434285Y-199596904D01*
X379386666Y-199692142D01*
X379339047Y-199739761D01*
X379243809Y-199787380D01*
X379053333Y-199787380D01*
X378958095Y-199739761D01*
X378910476Y-199692142D01*
X378862857Y-199596904D01*
X378862857Y-199358809D01*
X378910476Y-199263571D01*
X378958095Y-199215952D01*
X379053333Y-199168333D01*
X379243809Y-199168333D01*
X379339047Y-199215952D01*
X379386666Y-199263571D01*
X379434285Y-199358809D01*
X378005714Y-199120714D02*
X378005714Y-199787380D01*
X378243809Y-198739761D02*
X378481904Y-199454047D01*
X377862857Y-199454047D01*
X64149523Y-179819761D02*
X64006666Y-179867380D01*
X63768571Y-179867380D01*
X63673333Y-179819761D01*
X63625714Y-179772142D01*
X63578095Y-179676904D01*
X63578095Y-179581666D01*
X63625714Y-179486428D01*
X63673333Y-179438809D01*
X63768571Y-179391190D01*
X63959047Y-179343571D01*
X64054285Y-179295952D01*
X64101904Y-179248333D01*
X64149523Y-179153095D01*
X64149523Y-179057857D01*
X64101904Y-178962619D01*
X64054285Y-178915000D01*
X63959047Y-178867380D01*
X63720952Y-178867380D01*
X63578095Y-178915000D01*
X63244761Y-178867380D02*
X63006666Y-179867380D01*
X62816190Y-179153095D01*
X62625714Y-179867380D01*
X62387619Y-178867380D01*
X61578095Y-178867380D02*
X61768571Y-178867380D01*
X61863809Y-178915000D01*
X61911428Y-178962619D01*
X62006666Y-179105476D01*
X62054285Y-179295952D01*
X62054285Y-179676904D01*
X62006666Y-179772142D01*
X61959047Y-179819761D01*
X61863809Y-179867380D01*
X61673333Y-179867380D01*
X61578095Y-179819761D01*
X61530476Y-179772142D01*
X61482857Y-179676904D01*
X61482857Y-179438809D01*
X61530476Y-179343571D01*
X61578095Y-179295952D01*
X61673333Y-179248333D01*
X61863809Y-179248333D01*
X61959047Y-179295952D01*
X62006666Y-179343571D01*
X62054285Y-179438809D01*
X60578095Y-178867380D02*
X61054285Y-178867380D01*
X61101904Y-179343571D01*
X61054285Y-179295952D01*
X60959047Y-179248333D01*
X60720952Y-179248333D01*
X60625714Y-179295952D01*
X60578095Y-179343571D01*
X60530476Y-179438809D01*
X60530476Y-179676904D01*
X60578095Y-179772142D01*
X60625714Y-179819761D01*
X60720952Y-179867380D01*
X60959047Y-179867380D01*
X61054285Y-179819761D01*
X61101904Y-179772142D01*
X331759523Y-160659761D02*
X331616666Y-160707380D01*
X331378571Y-160707380D01*
X331283333Y-160659761D01*
X331235714Y-160612142D01*
X331188095Y-160516904D01*
X331188095Y-160421666D01*
X331235714Y-160326428D01*
X331283333Y-160278809D01*
X331378571Y-160231190D01*
X331569047Y-160183571D01*
X331664285Y-160135952D01*
X331711904Y-160088333D01*
X331759523Y-159993095D01*
X331759523Y-159897857D01*
X331711904Y-159802619D01*
X331664285Y-159755000D01*
X331569047Y-159707380D01*
X331330952Y-159707380D01*
X331188095Y-159755000D01*
X330854761Y-159707380D02*
X330616666Y-160707380D01*
X330426190Y-159993095D01*
X330235714Y-160707380D01*
X329997619Y-159707380D01*
X329188095Y-159707380D02*
X329378571Y-159707380D01*
X329473809Y-159755000D01*
X329521428Y-159802619D01*
X329616666Y-159945476D01*
X329664285Y-160135952D01*
X329664285Y-160516904D01*
X329616666Y-160612142D01*
X329569047Y-160659761D01*
X329473809Y-160707380D01*
X329283333Y-160707380D01*
X329188095Y-160659761D01*
X329140476Y-160612142D01*
X329092857Y-160516904D01*
X329092857Y-160278809D01*
X329140476Y-160183571D01*
X329188095Y-160135952D01*
X329283333Y-160088333D01*
X329473809Y-160088333D01*
X329569047Y-160135952D01*
X329616666Y-160183571D01*
X329664285Y-160278809D01*
X328235714Y-159707380D02*
X328426190Y-159707380D01*
X328521428Y-159755000D01*
X328569047Y-159802619D01*
X328664285Y-159945476D01*
X328711904Y-160135952D01*
X328711904Y-160516904D01*
X328664285Y-160612142D01*
X328616666Y-160659761D01*
X328521428Y-160707380D01*
X328330952Y-160707380D01*
X328235714Y-160659761D01*
X328188095Y-160612142D01*
X328140476Y-160516904D01*
X328140476Y-160278809D01*
X328188095Y-160183571D01*
X328235714Y-160135952D01*
X328330952Y-160088333D01*
X328521428Y-160088333D01*
X328616666Y-160135952D01*
X328664285Y-160183571D01*
X328711904Y-160278809D01*
M02*
