G04 #@! TF.GenerationSoftware,KiCad,Pcbnew,(5.1.5)-2*
G04 #@! TF.CreationDate,2021-01-09T12:48:30+01:00*
G04 #@! TF.ProjectId,VIC20_kbd,56494332-305f-46b6-9264-2e6b69636164,2.0*
G04 #@! TF.SameCoordinates,Original*
G04 #@! TF.FileFunction,Paste,Bot*
G04 #@! TF.FilePolarity,Positive*
%FSLAX46Y46*%
G04 Gerber Fmt 4.6, Leading zero omitted, Abs format (unit mm)*
G04 Created by KiCad (PCBNEW (5.1.5)-2) date 2021-01-09 12:48:30*
%MOMM*%
%LPD*%
G04 APERTURE LIST*
%ADD10R,0.600000X0.800000*%
%ADD11R,2.550000X2.500000*%
G04 APERTURE END LIST*
D10*
X68620000Y-127780000D03*
X66920000Y-127780000D03*
X107070000Y-127710000D03*
X105370000Y-127710000D03*
X145510000Y-127710000D03*
X143810000Y-127710000D03*
X183880000Y-127710000D03*
X182180000Y-127710000D03*
X222210000Y-127710000D03*
X220510000Y-127710000D03*
X260530000Y-127710000D03*
X258830000Y-127710000D03*
X298860000Y-127710000D03*
X297160000Y-127710000D03*
X337230000Y-127710000D03*
X335530000Y-127710000D03*
X49500000Y-127710000D03*
X47800000Y-127710000D03*
X97500000Y-146910000D03*
X95800000Y-146910000D03*
X135950000Y-146870000D03*
X134250000Y-146870000D03*
X174240000Y-146910000D03*
X172540000Y-146910000D03*
X212570000Y-146910000D03*
X210870000Y-146910000D03*
X251010000Y-146910000D03*
X249310000Y-146910000D03*
X289490000Y-146950000D03*
X287790000Y-146950000D03*
X323930000Y-166040000D03*
X322230000Y-166040000D03*
X54380000Y-146910000D03*
X52680000Y-146910000D03*
X84130000Y-166110000D03*
X82430000Y-166110000D03*
X122500000Y-166070000D03*
X120800000Y-166070000D03*
X160830000Y-166070000D03*
X159130000Y-166070000D03*
X199310000Y-166070000D03*
X197610000Y-166070000D03*
X237670000Y-166040000D03*
X235970000Y-166040000D03*
X276000000Y-166070000D03*
X274300000Y-166070000D03*
X333570000Y-185300000D03*
X331870000Y-185300000D03*
X45760000Y-166110000D03*
X44060000Y-166110000D03*
X69680000Y-185300000D03*
X67980000Y-185300000D03*
X112790000Y-185300000D03*
X111090000Y-185300000D03*
X151210000Y-185300000D03*
X149510000Y-185300000D03*
X189600000Y-185300000D03*
X187900000Y-185300000D03*
X227990000Y-185300000D03*
X226290000Y-185300000D03*
X266460000Y-185300000D03*
X264760000Y-185300000D03*
X314320000Y-185300000D03*
X312620000Y-185300000D03*
X174470000Y-204520000D03*
X172770000Y-204520000D03*
X93540000Y-185300000D03*
X91840000Y-185300000D03*
X131990000Y-185300000D03*
X130290000Y-185300000D03*
X170410000Y-185330000D03*
X168710000Y-185330000D03*
X208880000Y-185300000D03*
X207180000Y-185300000D03*
X247210000Y-185300000D03*
X245510000Y-185300000D03*
X290400000Y-185300000D03*
X288700000Y-185300000D03*
X382420000Y-128130000D03*
X380720000Y-128130000D03*
X45740000Y-185330000D03*
X44040000Y-185330000D03*
X103370000Y-166070000D03*
X101670000Y-166070000D03*
X141740000Y-166070000D03*
X140040000Y-166070000D03*
X180110000Y-166070000D03*
X178410000Y-166070000D03*
X218400000Y-166070000D03*
X216700000Y-166070000D03*
X256840000Y-166070000D03*
X255140000Y-166070000D03*
X295130000Y-166110000D03*
X293430000Y-166110000D03*
X382420000Y-147410000D03*
X380720000Y-147410000D03*
X78230000Y-146910000D03*
X76530000Y-146910000D03*
X116710000Y-146910000D03*
X115010000Y-146910000D03*
X155110000Y-146950000D03*
X153410000Y-146950000D03*
X193440000Y-146910000D03*
X191740000Y-146910000D03*
X231880000Y-146910000D03*
X230180000Y-146910000D03*
X270290000Y-146910000D03*
X268590000Y-146910000D03*
X308580000Y-146910000D03*
X306880000Y-146910000D03*
X382420000Y-166720000D03*
X380720000Y-166720000D03*
X87830000Y-127710000D03*
X86130000Y-127710000D03*
X126190000Y-127670000D03*
X124490000Y-127670000D03*
X164600000Y-127710000D03*
X162900000Y-127710000D03*
X202930000Y-127670000D03*
X201230000Y-127670000D03*
X241410000Y-127750000D03*
X239710000Y-127750000D03*
X279770000Y-127710000D03*
X278070000Y-127710000D03*
X318100000Y-127710000D03*
X316400000Y-127710000D03*
X382420000Y-186000000D03*
X380720000Y-186000000D03*
D11*
X55980000Y-137880000D03*
X69830000Y-135340000D03*
X108220000Y-135340000D03*
X94370000Y-137880000D03*
X146580000Y-135340000D03*
X132730000Y-137880000D03*
X171090000Y-137880000D03*
X184940000Y-135340000D03*
X209490000Y-137880000D03*
X223340000Y-135340000D03*
X261710000Y-135340000D03*
X247860000Y-137880000D03*
X300090000Y-135340000D03*
X286240000Y-137880000D03*
X324620000Y-137880000D03*
X338470000Y-135340000D03*
X50690000Y-135340000D03*
X36840000Y-137880000D03*
X98620000Y-154540000D03*
X84770000Y-157080000D03*
X137020000Y-154540000D03*
X123170000Y-157080000D03*
X161560000Y-157080000D03*
X175410000Y-154540000D03*
X199920000Y-157080000D03*
X213770000Y-154540000D03*
X252180000Y-154540000D03*
X238330000Y-157080000D03*
X290590000Y-154550000D03*
X276740000Y-157090000D03*
X311200000Y-176240000D03*
X325050000Y-173700000D03*
X55460000Y-154540000D03*
X41610000Y-157080000D03*
X85290000Y-173720000D03*
X71440000Y-176260000D03*
X109800000Y-176240000D03*
X123650000Y-173700000D03*
X162040000Y-173700000D03*
X148190000Y-176240000D03*
X200420000Y-173700000D03*
X186570000Y-176240000D03*
X224940000Y-176240000D03*
X238790000Y-173700000D03*
X263300000Y-176240000D03*
X277150000Y-173700000D03*
X334670000Y-192910000D03*
X320820000Y-195450000D03*
X33040000Y-176260000D03*
X46890000Y-173720000D03*
X56980000Y-195450000D03*
X70830000Y-192910000D03*
X113990000Y-192910000D03*
X100140000Y-195450000D03*
X152400000Y-192910000D03*
X138550000Y-195450000D03*
X176950000Y-195450000D03*
X190800000Y-192910000D03*
X215350000Y-195450000D03*
X229200000Y-192910000D03*
X253740000Y-195450000D03*
X267590000Y-192910000D03*
X315490000Y-192910000D03*
X301640000Y-195450000D03*
X161820000Y-214640000D03*
X175670000Y-212100000D03*
X80930000Y-195460000D03*
X94780000Y-192920000D03*
X133190000Y-192910000D03*
X119340000Y-195450000D03*
X157740000Y-195450000D03*
X171590000Y-192910000D03*
X210000000Y-192910000D03*
X196150000Y-195450000D03*
X248400000Y-192910000D03*
X234550000Y-195450000D03*
X277690000Y-195450000D03*
X291540000Y-192910000D03*
X383470000Y-135750000D03*
X369620000Y-138290000D03*
X33030000Y-195460000D03*
X46880000Y-192920000D03*
X90640000Y-176240000D03*
X104490000Y-173700000D03*
X142840000Y-173700000D03*
X128990000Y-176240000D03*
X167370000Y-176240000D03*
X181220000Y-173700000D03*
X219580000Y-173700000D03*
X205730000Y-176240000D03*
X244100000Y-176240000D03*
X257950000Y-173700000D03*
X282490000Y-176260000D03*
X296340000Y-173720000D03*
X383470000Y-155030000D03*
X369620000Y-157570000D03*
X65570000Y-157080000D03*
X79420000Y-154540000D03*
X103970000Y-157080000D03*
X117820000Y-154540000D03*
X156210000Y-154540000D03*
X142360000Y-157080000D03*
X194590000Y-154540000D03*
X180740000Y-157080000D03*
X219130000Y-157080000D03*
X232980000Y-154540000D03*
X271380000Y-154540000D03*
X257530000Y-157080000D03*
X309730000Y-154550000D03*
X295880000Y-157090000D03*
X369620000Y-176880000D03*
X383470000Y-174340000D03*
X89020000Y-135340000D03*
X75170000Y-137880000D03*
X127390000Y-135340000D03*
X113540000Y-137880000D03*
X151920000Y-137880000D03*
X165770000Y-135340000D03*
X190290000Y-137880000D03*
X204140000Y-135340000D03*
X228660000Y-137880000D03*
X242510000Y-135340000D03*
X280900000Y-135340000D03*
X267050000Y-137880000D03*
X319280000Y-135340000D03*
X305430000Y-137880000D03*
X369620000Y-196160000D03*
X383470000Y-193620000D03*
X66090000Y-173700000D03*
X52240000Y-176240000D03*
X319850000Y-157080000D03*
X333700000Y-154540000D03*
M02*
