G04 #@! TF.GenerationSoftware,KiCad,Pcbnew,(5.1.5)-2*
G04 #@! TF.CreationDate,2021-01-09T12:48:30+01:00*
G04 #@! TF.ProjectId,VIC20_kbd,56494332-305f-46b6-9264-2e6b69636164,2.0*
G04 #@! TF.SameCoordinates,Original*
G04 #@! TF.FileFunction,Legend,Top*
G04 #@! TF.FilePolarity,Positive*
%FSLAX46Y46*%
G04 Gerber Fmt 4.6, Leading zero omitted, Abs format (unit mm)*
G04 Created by KiCad (PCBNEW (5.1.5)-2) date 2021-01-09 12:48:30*
%MOMM*%
%LPD*%
G04 APERTURE LIST*
%ADD10C,0.150000*%
%ADD11C,0.300000*%
%ADD12C,0.200000*%
%ADD13C,0.120000*%
G04 APERTURE END LIST*
D10*
X59880000Y-216580000D02*
X59880000Y-218530000D01*
X69150000Y-216580000D02*
X59880000Y-216580000D01*
X60333333Y-217944761D02*
X60476190Y-217992380D01*
X60714285Y-217992380D01*
X60809523Y-217944761D01*
X60857142Y-217897142D01*
X60904761Y-217801904D01*
X60904761Y-217706666D01*
X60857142Y-217611428D01*
X60809523Y-217563809D01*
X60714285Y-217516190D01*
X60523809Y-217468571D01*
X60428571Y-217420952D01*
X60380952Y-217373333D01*
X60333333Y-217278095D01*
X60333333Y-217182857D01*
X60380952Y-217087619D01*
X60428571Y-217040000D01*
X60523809Y-216992380D01*
X60761904Y-216992380D01*
X60904761Y-217040000D01*
X61333333Y-217992380D02*
X61333333Y-216992380D01*
X61333333Y-217468571D02*
X61904761Y-217468571D01*
X61904761Y-217992380D02*
X61904761Y-216992380D01*
X62380952Y-217992380D02*
X62380952Y-216992380D01*
X63190476Y-217468571D02*
X62857142Y-217468571D01*
X62857142Y-217992380D02*
X62857142Y-216992380D01*
X63333333Y-216992380D01*
X63571428Y-216992380D02*
X64142857Y-216992380D01*
X63857142Y-217992380D02*
X63857142Y-216992380D01*
X65714285Y-217992380D02*
X65238095Y-217992380D01*
X65238095Y-216992380D01*
X66238095Y-216992380D02*
X66428571Y-216992380D01*
X66523809Y-217040000D01*
X66619047Y-217135238D01*
X66666666Y-217325714D01*
X66666666Y-217659047D01*
X66619047Y-217849523D01*
X66523809Y-217944761D01*
X66428571Y-217992380D01*
X66238095Y-217992380D01*
X66142857Y-217944761D01*
X66047619Y-217849523D01*
X66000000Y-217659047D01*
X66000000Y-217325714D01*
X66047619Y-217135238D01*
X66142857Y-217040000D01*
X66238095Y-216992380D01*
X67666666Y-217897142D02*
X67619047Y-217944761D01*
X67476190Y-217992380D01*
X67380952Y-217992380D01*
X67238095Y-217944761D01*
X67142857Y-217849523D01*
X67095238Y-217754285D01*
X67047619Y-217563809D01*
X67047619Y-217420952D01*
X67095238Y-217230476D01*
X67142857Y-217135238D01*
X67238095Y-217040000D01*
X67380952Y-216992380D01*
X67476190Y-216992380D01*
X67619047Y-217040000D01*
X67666666Y-217087619D01*
X68095238Y-217992380D02*
X68095238Y-216992380D01*
X68666666Y-217992380D02*
X68238095Y-217420952D01*
X68666666Y-216992380D02*
X68095238Y-217563809D01*
X40220000Y-218540000D02*
X40210000Y-203460000D01*
X69080000Y-218540000D02*
X40220000Y-218540000D01*
X69170000Y-203440000D02*
X69140000Y-218540000D01*
X40220000Y-203440000D02*
X69170000Y-203440000D01*
D11*
X322107142Y-213223571D02*
X322607142Y-214723571D01*
X323107142Y-213223571D01*
X323607142Y-214723571D02*
X323607142Y-213223571D01*
X325178571Y-214580714D02*
X325107142Y-214652142D01*
X324892857Y-214723571D01*
X324750000Y-214723571D01*
X324535714Y-214652142D01*
X324392857Y-214509285D01*
X324321428Y-214366428D01*
X324250000Y-214080714D01*
X324250000Y-213866428D01*
X324321428Y-213580714D01*
X324392857Y-213437857D01*
X324535714Y-213295000D01*
X324750000Y-213223571D01*
X324892857Y-213223571D01*
X325107142Y-213295000D01*
X325178571Y-213366428D01*
X325821428Y-214152142D02*
X326964285Y-214152142D01*
X327607142Y-213366428D02*
X327678571Y-213295000D01*
X327821428Y-213223571D01*
X328178571Y-213223571D01*
X328321428Y-213295000D01*
X328392857Y-213366428D01*
X328464285Y-213509285D01*
X328464285Y-213652142D01*
X328392857Y-213866428D01*
X327535714Y-214723571D01*
X328464285Y-214723571D01*
X329392857Y-213223571D02*
X329535714Y-213223571D01*
X329678571Y-213295000D01*
X329750000Y-213366428D01*
X329821428Y-213509285D01*
X329892857Y-213795000D01*
X329892857Y-214152142D01*
X329821428Y-214437857D01*
X329750000Y-214580714D01*
X329678571Y-214652142D01*
X329535714Y-214723571D01*
X329392857Y-214723571D01*
X329250000Y-214652142D01*
X329178571Y-214580714D01*
X329107142Y-214437857D01*
X329035714Y-214152142D01*
X329035714Y-213795000D01*
X329107142Y-213509285D01*
X329178571Y-213366428D01*
X329250000Y-213295000D01*
X329392857Y-213223571D01*
X331678571Y-214723571D02*
X331678571Y-213223571D01*
X331821428Y-214152142D02*
X332250000Y-214723571D01*
X332250000Y-213723571D02*
X331678571Y-214295000D01*
X333464285Y-214652142D02*
X333321428Y-214723571D01*
X333035714Y-214723571D01*
X332892857Y-214652142D01*
X332821428Y-214509285D01*
X332821428Y-213937857D01*
X332892857Y-213795000D01*
X333035714Y-213723571D01*
X333321428Y-213723571D01*
X333464285Y-213795000D01*
X333535714Y-213937857D01*
X333535714Y-214080714D01*
X332821428Y-214223571D01*
X334035714Y-213723571D02*
X334392857Y-214723571D01*
X334750000Y-213723571D02*
X334392857Y-214723571D01*
X334250000Y-215080714D01*
X334178571Y-215152142D01*
X334035714Y-215223571D01*
X335321428Y-214723571D02*
X335321428Y-213223571D01*
X335321428Y-213795000D02*
X335464285Y-213723571D01*
X335750000Y-213723571D01*
X335892857Y-213795000D01*
X335964285Y-213866428D01*
X336035714Y-214009285D01*
X336035714Y-214437857D01*
X335964285Y-214580714D01*
X335892857Y-214652142D01*
X335750000Y-214723571D01*
X335464285Y-214723571D01*
X335321428Y-214652142D01*
X336892857Y-214723571D02*
X336750000Y-214652142D01*
X336678571Y-214580714D01*
X336607142Y-214437857D01*
X336607142Y-214009285D01*
X336678571Y-213866428D01*
X336750000Y-213795000D01*
X336892857Y-213723571D01*
X337107142Y-213723571D01*
X337250000Y-213795000D01*
X337321428Y-213866428D01*
X337392857Y-214009285D01*
X337392857Y-214437857D01*
X337321428Y-214580714D01*
X337250000Y-214652142D01*
X337107142Y-214723571D01*
X336892857Y-214723571D01*
X338678571Y-214723571D02*
X338678571Y-213937857D01*
X338607142Y-213795000D01*
X338464285Y-213723571D01*
X338178571Y-213723571D01*
X338035714Y-213795000D01*
X338678571Y-214652142D02*
X338535714Y-214723571D01*
X338178571Y-214723571D01*
X338035714Y-214652142D01*
X337964285Y-214509285D01*
X337964285Y-214366428D01*
X338035714Y-214223571D01*
X338178571Y-214152142D01*
X338535714Y-214152142D01*
X338678571Y-214080714D01*
X339392857Y-214723571D02*
X339392857Y-213723571D01*
X339392857Y-214009285D02*
X339464285Y-213866428D01*
X339535714Y-213795000D01*
X339678571Y-213723571D01*
X339821428Y-213723571D01*
X340964285Y-214723571D02*
X340964285Y-213223571D01*
X340964285Y-214652142D02*
X340821428Y-214723571D01*
X340535714Y-214723571D01*
X340392857Y-214652142D01*
X340321428Y-214580714D01*
X340250000Y-214437857D01*
X340250000Y-214009285D01*
X340321428Y-213866428D01*
X340392857Y-213795000D01*
X340535714Y-213723571D01*
X340821428Y-213723571D01*
X340964285Y-213795000D01*
X342607142Y-213723571D02*
X343178571Y-213723571D01*
X342821428Y-214723571D02*
X342821428Y-213437857D01*
X342892857Y-213295000D01*
X343035714Y-213223571D01*
X343178571Y-213223571D01*
X343892857Y-214723571D02*
X343750000Y-214652142D01*
X343678571Y-214580714D01*
X343607142Y-214437857D01*
X343607142Y-214009285D01*
X343678571Y-213866428D01*
X343750000Y-213795000D01*
X343892857Y-213723571D01*
X344107142Y-213723571D01*
X344250000Y-213795000D01*
X344321428Y-213866428D01*
X344392857Y-214009285D01*
X344392857Y-214437857D01*
X344321428Y-214580714D01*
X344250000Y-214652142D01*
X344107142Y-214723571D01*
X343892857Y-214723571D01*
X345035714Y-214723571D02*
X345035714Y-213723571D01*
X345035714Y-214009285D02*
X345107142Y-213866428D01*
X345178571Y-213795000D01*
X345321428Y-213723571D01*
X345464285Y-213723571D01*
X347964285Y-214580714D02*
X347892857Y-214652142D01*
X347678571Y-214723571D01*
X347535714Y-214723571D01*
X347321428Y-214652142D01*
X347178571Y-214509285D01*
X347107142Y-214366428D01*
X347035714Y-214080714D01*
X347035714Y-213866428D01*
X347107142Y-213580714D01*
X347178571Y-213437857D01*
X347321428Y-213295000D01*
X347535714Y-213223571D01*
X347678571Y-213223571D01*
X347892857Y-213295000D01*
X347964285Y-213366428D01*
X348607142Y-214723571D02*
X348607142Y-213223571D01*
X349250000Y-214723571D02*
X349250000Y-213937857D01*
X349178571Y-213795000D01*
X349035714Y-213723571D01*
X348821428Y-213723571D01*
X348678571Y-213795000D01*
X348607142Y-213866428D01*
X350535714Y-214652142D02*
X350392857Y-214723571D01*
X350107142Y-214723571D01*
X349964285Y-214652142D01*
X349892857Y-214509285D01*
X349892857Y-213937857D01*
X349964285Y-213795000D01*
X350107142Y-213723571D01*
X350392857Y-213723571D01*
X350535714Y-213795000D01*
X350607142Y-213937857D01*
X350607142Y-214080714D01*
X349892857Y-214223571D01*
X351250000Y-214723571D02*
X351250000Y-213723571D01*
X351250000Y-214009285D02*
X351321428Y-213866428D01*
X351392857Y-213795000D01*
X351535714Y-213723571D01*
X351678571Y-213723571D01*
X352178571Y-214723571D02*
X352178571Y-213723571D01*
X352178571Y-214009285D02*
X352250000Y-213866428D01*
X352321428Y-213795000D01*
X352464285Y-213723571D01*
X352607142Y-213723571D01*
X352964285Y-213723571D02*
X353321428Y-214723571D01*
X353678571Y-213723571D02*
X353321428Y-214723571D01*
X353178571Y-215080714D01*
X353107142Y-215152142D01*
X352964285Y-215223571D01*
X355392857Y-214723571D02*
X355392857Y-213223571D01*
X355892857Y-214295000D01*
X356392857Y-213223571D01*
X356392857Y-214723571D01*
X356964285Y-213223571D02*
X357964285Y-214723571D01*
X357964285Y-213223571D02*
X356964285Y-214723571D01*
X359607142Y-214652142D02*
X359750000Y-214723571D01*
X360035714Y-214723571D01*
X360178571Y-214652142D01*
X360250000Y-214509285D01*
X360250000Y-214437857D01*
X360178571Y-214295000D01*
X360035714Y-214223571D01*
X359821428Y-214223571D01*
X359678571Y-214152142D01*
X359607142Y-214009285D01*
X359607142Y-213937857D01*
X359678571Y-213795000D01*
X359821428Y-213723571D01*
X360035714Y-213723571D01*
X360178571Y-213795000D01*
X360750000Y-213723571D02*
X361035714Y-214723571D01*
X361321428Y-214009285D01*
X361607142Y-214723571D01*
X361892857Y-213723571D01*
X362464285Y-214723571D02*
X362464285Y-213723571D01*
X362464285Y-213223571D02*
X362392857Y-213295000D01*
X362464285Y-213366428D01*
X362535714Y-213295000D01*
X362464285Y-213223571D01*
X362464285Y-213366428D01*
X362964285Y-213723571D02*
X363535714Y-213723571D01*
X363178571Y-213223571D02*
X363178571Y-214509285D01*
X363250000Y-214652142D01*
X363392857Y-214723571D01*
X363535714Y-214723571D01*
X364678571Y-214652142D02*
X364535714Y-214723571D01*
X364250000Y-214723571D01*
X364107142Y-214652142D01*
X364035714Y-214580714D01*
X363964285Y-214437857D01*
X363964285Y-214009285D01*
X364035714Y-213866428D01*
X364107142Y-213795000D01*
X364250000Y-213723571D01*
X364535714Y-213723571D01*
X364678571Y-213795000D01*
X365321428Y-214723571D02*
X365321428Y-213223571D01*
X365964285Y-214723571D02*
X365964285Y-213937857D01*
X365892857Y-213795000D01*
X365750000Y-213723571D01*
X365535714Y-213723571D01*
X365392857Y-213795000D01*
X365321428Y-213866428D01*
X367250000Y-214652142D02*
X367107142Y-214723571D01*
X366821428Y-214723571D01*
X366678571Y-214652142D01*
X366607142Y-214509285D01*
X366607142Y-213937857D01*
X366678571Y-213795000D01*
X366821428Y-213723571D01*
X367107142Y-213723571D01*
X367250000Y-213795000D01*
X367321428Y-213937857D01*
X367321428Y-214080714D01*
X366607142Y-214223571D01*
X367892857Y-214652142D02*
X368035714Y-214723571D01*
X368321428Y-214723571D01*
X368464285Y-214652142D01*
X368535714Y-214509285D01*
X368535714Y-214437857D01*
X368464285Y-214295000D01*
X368321428Y-214223571D01*
X368107142Y-214223571D01*
X367964285Y-214152142D01*
X367892857Y-214009285D01*
X367892857Y-213937857D01*
X367964285Y-213795000D01*
X368107142Y-213723571D01*
X368321428Y-213723571D01*
X368464285Y-213795000D01*
X369178571Y-214580714D02*
X369250000Y-214652142D01*
X369178571Y-214723571D01*
X369107142Y-214652142D01*
X369178571Y-214580714D01*
X369178571Y-214723571D01*
X370821428Y-213223571D02*
X371321428Y-214723571D01*
X371821428Y-213223571D01*
X372250000Y-213366428D02*
X372321428Y-213295000D01*
X372464285Y-213223571D01*
X372821428Y-213223571D01*
X372964285Y-213295000D01*
X373035714Y-213366428D01*
X373107142Y-213509285D01*
X373107142Y-213652142D01*
X373035714Y-213866428D01*
X372178571Y-214723571D01*
X373107142Y-214723571D01*
X373750000Y-214580714D02*
X373821428Y-214652142D01*
X373750000Y-214723571D01*
X373678571Y-214652142D01*
X373750000Y-214580714D01*
X373750000Y-214723571D01*
X374750000Y-213223571D02*
X374892857Y-213223571D01*
X375035714Y-213295000D01*
X375107142Y-213366428D01*
X375178571Y-213509285D01*
X375250000Y-213795000D01*
X375250000Y-214152142D01*
X375178571Y-214437857D01*
X375107142Y-214580714D01*
X375035714Y-214652142D01*
X374892857Y-214723571D01*
X374750000Y-214723571D01*
X374607142Y-214652142D01*
X374535714Y-214580714D01*
X374464285Y-214437857D01*
X374392857Y-214152142D01*
X374392857Y-213795000D01*
X374464285Y-213509285D01*
X374535714Y-213366428D01*
X374607142Y-213295000D01*
X374750000Y-213223571D01*
X333250000Y-215773571D02*
X333250000Y-216845000D01*
X333178571Y-217059285D01*
X333035714Y-217202142D01*
X332821428Y-217273571D01*
X332678571Y-217273571D01*
X334607142Y-217273571D02*
X334607142Y-216487857D01*
X334535714Y-216345000D01*
X334392857Y-216273571D01*
X334107142Y-216273571D01*
X333964285Y-216345000D01*
X334607142Y-217202142D02*
X334464285Y-217273571D01*
X334107142Y-217273571D01*
X333964285Y-217202142D01*
X333892857Y-217059285D01*
X333892857Y-216916428D01*
X333964285Y-216773571D01*
X334107142Y-216702142D01*
X334464285Y-216702142D01*
X334607142Y-216630714D01*
X335321428Y-216273571D02*
X335321428Y-217273571D01*
X335321428Y-216416428D02*
X335392857Y-216345000D01*
X335535714Y-216273571D01*
X335750000Y-216273571D01*
X335892857Y-216345000D01*
X335964285Y-216487857D01*
X335964285Y-217273571D01*
X337321428Y-216273571D02*
X337321428Y-217273571D01*
X336678571Y-216273571D02*
X336678571Y-217059285D01*
X336750000Y-217202142D01*
X336892857Y-217273571D01*
X337107142Y-217273571D01*
X337250000Y-217202142D01*
X337321428Y-217130714D01*
X338678571Y-217273571D02*
X338678571Y-216487857D01*
X338607142Y-216345000D01*
X338464285Y-216273571D01*
X338178571Y-216273571D01*
X338035714Y-216345000D01*
X338678571Y-217202142D02*
X338535714Y-217273571D01*
X338178571Y-217273571D01*
X338035714Y-217202142D01*
X337964285Y-217059285D01*
X337964285Y-216916428D01*
X338035714Y-216773571D01*
X338178571Y-216702142D01*
X338535714Y-216702142D01*
X338678571Y-216630714D01*
X339392857Y-217273571D02*
X339392857Y-216273571D01*
X339392857Y-216559285D02*
X339464285Y-216416428D01*
X339535714Y-216345000D01*
X339678571Y-216273571D01*
X339821428Y-216273571D01*
X340178571Y-216273571D02*
X340535714Y-217273571D01*
X340892857Y-216273571D02*
X340535714Y-217273571D01*
X340392857Y-217630714D01*
X340321428Y-217702142D01*
X340178571Y-217773571D01*
X342535714Y-215916428D02*
X342607142Y-215845000D01*
X342750000Y-215773571D01*
X343107142Y-215773571D01*
X343250000Y-215845000D01*
X343321428Y-215916428D01*
X343392857Y-216059285D01*
X343392857Y-216202142D01*
X343321428Y-216416428D01*
X342464285Y-217273571D01*
X343392857Y-217273571D01*
X344321428Y-215773571D02*
X344464285Y-215773571D01*
X344607142Y-215845000D01*
X344678571Y-215916428D01*
X344750000Y-216059285D01*
X344821428Y-216345000D01*
X344821428Y-216702142D01*
X344750000Y-216987857D01*
X344678571Y-217130714D01*
X344607142Y-217202142D01*
X344464285Y-217273571D01*
X344321428Y-217273571D01*
X344178571Y-217202142D01*
X344107142Y-217130714D01*
X344035714Y-216987857D01*
X343964285Y-216702142D01*
X343964285Y-216345000D01*
X344035714Y-216059285D01*
X344107142Y-215916428D01*
X344178571Y-215845000D01*
X344321428Y-215773571D01*
X345392857Y-215916428D02*
X345464285Y-215845000D01*
X345607142Y-215773571D01*
X345964285Y-215773571D01*
X346107142Y-215845000D01*
X346178571Y-215916428D01*
X346250000Y-216059285D01*
X346250000Y-216202142D01*
X346178571Y-216416428D01*
X345321428Y-217273571D01*
X346250000Y-217273571D01*
X347678571Y-217273571D02*
X346821428Y-217273571D01*
X347250000Y-217273571D02*
X347250000Y-215773571D01*
X347107142Y-215987857D01*
X346964285Y-216130714D01*
X346821428Y-216202142D01*
X348392857Y-217202142D02*
X348392857Y-217273571D01*
X348321428Y-217416428D01*
X348250000Y-217487857D01*
X350178571Y-217273571D02*
X350178571Y-215773571D01*
X350178571Y-216487857D02*
X351035714Y-216487857D01*
X351035714Y-217273571D02*
X351035714Y-215773571D01*
X352392857Y-217273571D02*
X352392857Y-216487857D01*
X352321428Y-216345000D01*
X352178571Y-216273571D01*
X351892857Y-216273571D01*
X351750000Y-216345000D01*
X352392857Y-217202142D02*
X352250000Y-217273571D01*
X351892857Y-217273571D01*
X351750000Y-217202142D01*
X351678571Y-217059285D01*
X351678571Y-216916428D01*
X351750000Y-216773571D01*
X351892857Y-216702142D01*
X352250000Y-216702142D01*
X352392857Y-216630714D01*
X353107142Y-216273571D02*
X353107142Y-217273571D01*
X353107142Y-216416428D02*
X353178571Y-216345000D01*
X353321428Y-216273571D01*
X353535714Y-216273571D01*
X353678571Y-216345000D01*
X353750000Y-216487857D01*
X353750000Y-217273571D01*
X354392857Y-217202142D02*
X354535714Y-217273571D01*
X354821428Y-217273571D01*
X354964285Y-217202142D01*
X355035714Y-217059285D01*
X355035714Y-216987857D01*
X354964285Y-216845000D01*
X354821428Y-216773571D01*
X354607142Y-216773571D01*
X354464285Y-216702142D01*
X354392857Y-216559285D01*
X354392857Y-216487857D01*
X354464285Y-216345000D01*
X354607142Y-216273571D01*
X354821428Y-216273571D01*
X354964285Y-216345000D01*
X356607142Y-216559285D02*
X356535714Y-216487857D01*
X356392857Y-216416428D01*
X356250000Y-216416428D01*
X356107142Y-216487857D01*
X356035714Y-216559285D01*
X355964285Y-216702142D01*
X355964285Y-216845000D01*
X356035714Y-216987857D01*
X356107142Y-217059285D01*
X356250000Y-217130714D01*
X356392857Y-217130714D01*
X356535714Y-217059285D01*
X356607142Y-216987857D01*
X356607142Y-216416428D02*
X356607142Y-216987857D01*
X356678571Y-217059285D01*
X356750000Y-217059285D01*
X356892857Y-216987857D01*
X356964285Y-216845000D01*
X356964285Y-216487857D01*
X356821428Y-216273571D01*
X356607142Y-216130714D01*
X356321428Y-216059285D01*
X356035714Y-216130714D01*
X355821428Y-216273571D01*
X355678571Y-216487857D01*
X355607142Y-216773571D01*
X355678571Y-217059285D01*
X355821428Y-217273571D01*
X356035714Y-217416428D01*
X356321428Y-217487857D01*
X356607142Y-217416428D01*
X356821428Y-217273571D01*
X358321428Y-217273571D02*
X357607142Y-217273571D01*
X357607142Y-215773571D01*
X358821428Y-217273571D02*
X358821428Y-216273571D01*
X358821428Y-215773571D02*
X358750000Y-215845000D01*
X358821428Y-215916428D01*
X358892857Y-215845000D01*
X358821428Y-215773571D01*
X358821428Y-215916428D01*
X359464285Y-217202142D02*
X359607142Y-217273571D01*
X359892857Y-217273571D01*
X360035714Y-217202142D01*
X360107142Y-217059285D01*
X360107142Y-216987857D01*
X360035714Y-216845000D01*
X359892857Y-216773571D01*
X359678571Y-216773571D01*
X359535714Y-216702142D01*
X359464285Y-216559285D01*
X359464285Y-216487857D01*
X359535714Y-216345000D01*
X359678571Y-216273571D01*
X359892857Y-216273571D01*
X360035714Y-216345000D01*
X360678571Y-217202142D02*
X360821428Y-217273571D01*
X361107142Y-217273571D01*
X361250000Y-217202142D01*
X361321428Y-217059285D01*
X361321428Y-216987857D01*
X361250000Y-216845000D01*
X361107142Y-216773571D01*
X360892857Y-216773571D01*
X360750000Y-216702142D01*
X360678571Y-216559285D01*
X360678571Y-216487857D01*
X360750000Y-216345000D01*
X360892857Y-216273571D01*
X361107142Y-216273571D01*
X361250000Y-216345000D01*
X361964285Y-217130714D02*
X362035714Y-217202142D01*
X361964285Y-217273571D01*
X361892857Y-217202142D01*
X361964285Y-217130714D01*
X361964285Y-217273571D01*
X362678571Y-216273571D02*
X362678571Y-217273571D01*
X362678571Y-216416428D02*
X362750000Y-216345000D01*
X362892857Y-216273571D01*
X363107142Y-216273571D01*
X363250000Y-216345000D01*
X363321428Y-216487857D01*
X363321428Y-217273571D01*
X364678571Y-216273571D02*
X364678571Y-217273571D01*
X364035714Y-216273571D02*
X364035714Y-217059285D01*
X364107142Y-217202142D01*
X364250000Y-217273571D01*
X364464285Y-217273571D01*
X364607142Y-217202142D01*
X364678571Y-217130714D01*
D12*
X390400000Y-122680000D02*
X359900000Y-122680000D01*
X390400000Y-200680000D02*
X390400000Y-122680000D01*
X359900000Y-200680000D02*
X390400000Y-200680000D01*
X359900000Y-122680000D02*
X359900000Y-200680000D01*
X340900000Y-163180000D02*
X340900000Y-122680000D01*
X335900000Y-163180000D02*
X340900000Y-163180000D01*
X335900000Y-201180000D02*
X335900000Y-163180000D01*
X254900000Y-201180000D02*
X335900000Y-201180000D01*
X254900000Y-220180000D02*
X254900000Y-201180000D01*
X194940000Y-220140000D02*
X194940000Y-220080000D01*
X81900000Y-220180000D02*
X254900000Y-220180000D01*
X81900000Y-201180000D02*
X81900000Y-220180000D01*
X29930000Y-171660000D02*
X29930000Y-171680000D01*
X29870000Y-171660000D02*
X29930000Y-171660000D01*
X29900000Y-160180000D02*
X29900000Y-201180000D01*
X30660000Y-160170000D02*
X30660000Y-160200000D01*
X33900000Y-160180000D02*
X29900000Y-160180000D01*
X33900000Y-122680000D02*
X33900000Y-160180000D01*
X33900000Y-122680000D02*
X340900000Y-122680000D01*
D13*
X44340000Y-206770000D02*
X45340000Y-206770000D01*
X45340000Y-208130000D02*
X44340000Y-208130000D01*
X48280000Y-206900000D02*
X48980000Y-206900000D01*
X48980000Y-208100000D02*
X48280000Y-208100000D01*
X54690000Y-208610000D02*
X54690000Y-209310000D01*
X53490000Y-209310000D02*
X53490000Y-208610000D01*
X192780000Y-112530000D02*
X192780000Y-115190000D01*
X241100000Y-112530000D02*
X192780000Y-112530000D01*
X241100000Y-115190000D02*
X192780000Y-115190000D01*
X241100000Y-112530000D02*
X241100000Y-115190000D01*
X242370000Y-112530000D02*
X243700000Y-112530000D01*
X243700000Y-112530000D02*
X243700000Y-113860000D01*
X49180000Y-179945000D02*
X49180000Y-183035000D01*
X54240000Y-181490000D02*
G75*
G03X54240000Y-181490000I-2500000J0D01*
G01*
X54730000Y-181489538D02*
G75*
G02X49180000Y-183034830I-2990000J-462D01*
G01*
X54730000Y-181490462D02*
G75*
G03X49180000Y-179945170I-2990000J462D01*
G01*
X65830000Y-208060000D02*
X65830000Y-209520000D01*
X62670000Y-208060000D02*
X62670000Y-210220000D01*
X62670000Y-208060000D02*
X63600000Y-208060000D01*
X65830000Y-208060000D02*
X64900000Y-208060000D01*
X57730000Y-209460000D02*
X57730000Y-208460000D01*
X59090000Y-208460000D02*
X59090000Y-209460000D01*
X61530000Y-213550000D02*
X60530000Y-213550000D01*
X60530000Y-212190000D02*
X61530000Y-212190000D01*
X61480000Y-208460000D02*
X61480000Y-209460000D01*
X60120000Y-209460000D02*
X60120000Y-208460000D01*
X55480000Y-213460000D02*
X55480000Y-212460000D01*
X56840000Y-212460000D02*
X56840000Y-213460000D01*
X56750000Y-208500000D02*
X56750000Y-209500000D01*
X55390000Y-209500000D02*
X55390000Y-208500000D01*
D10*
X49725000Y-215295000D02*
X51125000Y-215295000D01*
X49725000Y-210195000D02*
X45575000Y-210195000D01*
X49725000Y-215345000D02*
X45575000Y-215345000D01*
X49725000Y-210195000D02*
X49725000Y-210340000D01*
X45575000Y-210195000D02*
X45575000Y-210340000D01*
X45575000Y-215345000D02*
X45575000Y-215200000D01*
X49725000Y-215345000D02*
X49725000Y-215295000D01*
X55270000Y-126800000D02*
X55270000Y-125800000D01*
X55270000Y-139800000D02*
X56270000Y-139800000D01*
X56270000Y-125800000D02*
X55270000Y-125800000D01*
X55270000Y-139800000D02*
X55270000Y-138800000D01*
X69270000Y-138800000D02*
X69270000Y-139800000D01*
X69270000Y-125800000D02*
X68270000Y-125800000D01*
X68270000Y-139800000D02*
X69270000Y-139800000D01*
X69270000Y-125800000D02*
X69270000Y-126800000D01*
X107660000Y-125800000D02*
X107660000Y-126800000D01*
X106660000Y-139800000D02*
X107660000Y-139800000D01*
X107660000Y-125800000D02*
X106660000Y-125800000D01*
X107660000Y-138800000D02*
X107660000Y-139800000D01*
X93660000Y-139800000D02*
X93660000Y-138800000D01*
X94660000Y-125800000D02*
X93660000Y-125800000D01*
X93660000Y-139800000D02*
X94660000Y-139800000D01*
X93660000Y-126800000D02*
X93660000Y-125800000D01*
X146020000Y-125800000D02*
X146020000Y-126800000D01*
X145020000Y-139800000D02*
X146020000Y-139800000D01*
X146020000Y-125800000D02*
X145020000Y-125800000D01*
X146020000Y-138800000D02*
X146020000Y-139800000D01*
X132020000Y-139800000D02*
X132020000Y-138800000D01*
X133020000Y-125800000D02*
X132020000Y-125800000D01*
X132020000Y-139800000D02*
X133020000Y-139800000D01*
X132020000Y-126800000D02*
X132020000Y-125800000D01*
X170380000Y-126800000D02*
X170380000Y-125800000D01*
X170380000Y-139800000D02*
X171380000Y-139800000D01*
X171380000Y-125800000D02*
X170380000Y-125800000D01*
X170380000Y-139800000D02*
X170380000Y-138800000D01*
X184380000Y-138800000D02*
X184380000Y-139800000D01*
X184380000Y-125800000D02*
X183380000Y-125800000D01*
X183380000Y-139800000D02*
X184380000Y-139800000D01*
X184380000Y-125800000D02*
X184380000Y-126800000D01*
X208780000Y-126800000D02*
X208780000Y-125800000D01*
X208780000Y-139800000D02*
X209780000Y-139800000D01*
X209780000Y-125800000D02*
X208780000Y-125800000D01*
X208780000Y-139800000D02*
X208780000Y-138800000D01*
X222780000Y-138800000D02*
X222780000Y-139800000D01*
X222780000Y-125800000D02*
X221780000Y-125800000D01*
X221780000Y-139800000D02*
X222780000Y-139800000D01*
X222780000Y-125800000D02*
X222780000Y-126800000D01*
X261150000Y-125800000D02*
X261150000Y-126800000D01*
X260150000Y-139800000D02*
X261150000Y-139800000D01*
X261150000Y-125800000D02*
X260150000Y-125800000D01*
X261150000Y-138800000D02*
X261150000Y-139800000D01*
X247150000Y-139800000D02*
X247150000Y-138800000D01*
X248150000Y-125800000D02*
X247150000Y-125800000D01*
X247150000Y-139800000D02*
X248150000Y-139800000D01*
X247150000Y-126800000D02*
X247150000Y-125800000D01*
X299530000Y-125800000D02*
X299530000Y-126800000D01*
X298530000Y-139800000D02*
X299530000Y-139800000D01*
X299530000Y-125800000D02*
X298530000Y-125800000D01*
X299530000Y-138800000D02*
X299530000Y-139800000D01*
X285530000Y-139800000D02*
X285530000Y-138800000D01*
X286530000Y-125800000D02*
X285530000Y-125800000D01*
X285530000Y-139800000D02*
X286530000Y-139800000D01*
X285530000Y-126800000D02*
X285530000Y-125800000D01*
X323910000Y-126800000D02*
X323910000Y-125800000D01*
X323910000Y-139800000D02*
X324910000Y-139800000D01*
X324910000Y-125800000D02*
X323910000Y-125800000D01*
X323910000Y-139800000D02*
X323910000Y-138800000D01*
X337910000Y-138800000D02*
X337910000Y-139800000D01*
X337910000Y-125800000D02*
X336910000Y-125800000D01*
X336910000Y-139800000D02*
X337910000Y-139800000D01*
X337910000Y-125800000D02*
X337910000Y-126800000D01*
X50130000Y-125800000D02*
X50130000Y-126800000D01*
X49130000Y-139800000D02*
X50130000Y-139800000D01*
X50130000Y-125800000D02*
X49130000Y-125800000D01*
X50130000Y-138800000D02*
X50130000Y-139800000D01*
X36130000Y-139800000D02*
X36130000Y-138800000D01*
X37130000Y-125800000D02*
X36130000Y-125800000D01*
X36130000Y-139800000D02*
X37130000Y-139800000D01*
X36130000Y-126800000D02*
X36130000Y-125800000D01*
X98060000Y-145000000D02*
X98060000Y-146000000D01*
X97060000Y-159000000D02*
X98060000Y-159000000D01*
X98060000Y-145000000D02*
X97060000Y-145000000D01*
X98060000Y-158000000D02*
X98060000Y-159000000D01*
X84060000Y-159000000D02*
X84060000Y-158000000D01*
X85060000Y-145000000D02*
X84060000Y-145000000D01*
X84060000Y-159000000D02*
X85060000Y-159000000D01*
X84060000Y-146000000D02*
X84060000Y-145000000D01*
X136460000Y-145000000D02*
X136460000Y-146000000D01*
X135460000Y-159000000D02*
X136460000Y-159000000D01*
X136460000Y-145000000D02*
X135460000Y-145000000D01*
X136460000Y-158000000D02*
X136460000Y-159000000D01*
X122460000Y-159000000D02*
X122460000Y-158000000D01*
X123460000Y-145000000D02*
X122460000Y-145000000D01*
X122460000Y-159000000D02*
X123460000Y-159000000D01*
X122460000Y-146000000D02*
X122460000Y-145000000D01*
X160850000Y-146000000D02*
X160850000Y-145000000D01*
X160850000Y-159000000D02*
X161850000Y-159000000D01*
X161850000Y-145000000D02*
X160850000Y-145000000D01*
X160850000Y-159000000D02*
X160850000Y-158000000D01*
X174850000Y-158000000D02*
X174850000Y-159000000D01*
X174850000Y-145000000D02*
X173850000Y-145000000D01*
X173850000Y-159000000D02*
X174850000Y-159000000D01*
X174850000Y-145000000D02*
X174850000Y-146000000D01*
X199210000Y-146000000D02*
X199210000Y-145000000D01*
X199210000Y-159000000D02*
X200210000Y-159000000D01*
X200210000Y-145000000D02*
X199210000Y-145000000D01*
X199210000Y-159000000D02*
X199210000Y-158000000D01*
X213210000Y-158000000D02*
X213210000Y-159000000D01*
X213210000Y-145000000D02*
X212210000Y-145000000D01*
X212210000Y-159000000D02*
X213210000Y-159000000D01*
X213210000Y-145000000D02*
X213210000Y-146000000D01*
X251620000Y-145000000D02*
X251620000Y-146000000D01*
X250620000Y-159000000D02*
X251620000Y-159000000D01*
X251620000Y-145000000D02*
X250620000Y-145000000D01*
X251620000Y-158000000D02*
X251620000Y-159000000D01*
X237620000Y-159000000D02*
X237620000Y-158000000D01*
X238620000Y-145000000D02*
X237620000Y-145000000D01*
X237620000Y-159000000D02*
X238620000Y-159000000D01*
X237620000Y-146000000D02*
X237620000Y-145000000D01*
X290030000Y-145010000D02*
X290030000Y-146010000D01*
X289030000Y-159010000D02*
X290030000Y-159010000D01*
X290030000Y-145010000D02*
X289030000Y-145010000D01*
X290030000Y-158010000D02*
X290030000Y-159010000D01*
X276030000Y-159010000D02*
X276030000Y-158010000D01*
X277030000Y-145010000D02*
X276030000Y-145010000D01*
X276030000Y-159010000D02*
X277030000Y-159010000D01*
X276030000Y-146010000D02*
X276030000Y-145010000D01*
X310490000Y-165160000D02*
X310490000Y-164160000D01*
X310490000Y-178160000D02*
X311490000Y-178160000D01*
X311490000Y-164160000D02*
X310490000Y-164160000D01*
X310490000Y-178160000D02*
X310490000Y-177160000D01*
X324490000Y-177160000D02*
X324490000Y-178160000D01*
X324490000Y-164160000D02*
X323490000Y-164160000D01*
X323490000Y-178160000D02*
X324490000Y-178160000D01*
X324490000Y-164160000D02*
X324490000Y-165160000D01*
X54900000Y-145000000D02*
X54900000Y-146000000D01*
X53900000Y-159000000D02*
X54900000Y-159000000D01*
X54900000Y-145000000D02*
X53900000Y-145000000D01*
X54900000Y-158000000D02*
X54900000Y-159000000D01*
X40900000Y-159000000D02*
X40900000Y-158000000D01*
X41900000Y-145000000D02*
X40900000Y-145000000D01*
X40900000Y-159000000D02*
X41900000Y-159000000D01*
X40900000Y-146000000D02*
X40900000Y-145000000D01*
X84730000Y-164180000D02*
X84730000Y-165180000D01*
X83730000Y-178180000D02*
X84730000Y-178180000D01*
X84730000Y-164180000D02*
X83730000Y-164180000D01*
X84730000Y-177180000D02*
X84730000Y-178180000D01*
X70730000Y-178180000D02*
X70730000Y-177180000D01*
X71730000Y-164180000D02*
X70730000Y-164180000D01*
X70730000Y-178180000D02*
X71730000Y-178180000D01*
X70730000Y-165180000D02*
X70730000Y-164180000D01*
X109090000Y-165160000D02*
X109090000Y-164160000D01*
X109090000Y-178160000D02*
X110090000Y-178160000D01*
X110090000Y-164160000D02*
X109090000Y-164160000D01*
X109090000Y-178160000D02*
X109090000Y-177160000D01*
X123090000Y-177160000D02*
X123090000Y-178160000D01*
X123090000Y-164160000D02*
X122090000Y-164160000D01*
X122090000Y-178160000D02*
X123090000Y-178160000D01*
X123090000Y-164160000D02*
X123090000Y-165160000D01*
X161480000Y-164160000D02*
X161480000Y-165160000D01*
X160480000Y-178160000D02*
X161480000Y-178160000D01*
X161480000Y-164160000D02*
X160480000Y-164160000D01*
X161480000Y-177160000D02*
X161480000Y-178160000D01*
X147480000Y-178160000D02*
X147480000Y-177160000D01*
X148480000Y-164160000D02*
X147480000Y-164160000D01*
X147480000Y-178160000D02*
X148480000Y-178160000D01*
X147480000Y-165160000D02*
X147480000Y-164160000D01*
X199860000Y-164160000D02*
X199860000Y-165160000D01*
X198860000Y-178160000D02*
X199860000Y-178160000D01*
X199860000Y-164160000D02*
X198860000Y-164160000D01*
X199860000Y-177160000D02*
X199860000Y-178160000D01*
X185860000Y-178160000D02*
X185860000Y-177160000D01*
X186860000Y-164160000D02*
X185860000Y-164160000D01*
X185860000Y-178160000D02*
X186860000Y-178160000D01*
X185860000Y-165160000D02*
X185860000Y-164160000D01*
X224230000Y-165160000D02*
X224230000Y-164160000D01*
X224230000Y-178160000D02*
X225230000Y-178160000D01*
X225230000Y-164160000D02*
X224230000Y-164160000D01*
X224230000Y-178160000D02*
X224230000Y-177160000D01*
X238230000Y-177160000D02*
X238230000Y-178160000D01*
X238230000Y-164160000D02*
X237230000Y-164160000D01*
X237230000Y-178160000D02*
X238230000Y-178160000D01*
X238230000Y-164160000D02*
X238230000Y-165160000D01*
X262590000Y-165160000D02*
X262590000Y-164160000D01*
X262590000Y-178160000D02*
X263590000Y-178160000D01*
X263590000Y-164160000D02*
X262590000Y-164160000D01*
X262590000Y-178160000D02*
X262590000Y-177160000D01*
X276590000Y-177160000D02*
X276590000Y-178160000D01*
X276590000Y-164160000D02*
X275590000Y-164160000D01*
X275590000Y-178160000D02*
X276590000Y-178160000D01*
X276590000Y-164160000D02*
X276590000Y-165160000D01*
X334110000Y-183370000D02*
X334110000Y-184370000D01*
X333110000Y-197370000D02*
X334110000Y-197370000D01*
X334110000Y-183370000D02*
X333110000Y-183370000D01*
X334110000Y-196370000D02*
X334110000Y-197370000D01*
X320110000Y-197370000D02*
X320110000Y-196370000D01*
X321110000Y-183370000D02*
X320110000Y-183370000D01*
X320110000Y-197370000D02*
X321110000Y-197370000D01*
X320110000Y-184370000D02*
X320110000Y-183370000D01*
X32330000Y-165180000D02*
X32330000Y-164180000D01*
X32330000Y-178180000D02*
X33330000Y-178180000D01*
X33330000Y-164180000D02*
X32330000Y-164180000D01*
X32330000Y-178180000D02*
X32330000Y-177180000D01*
X46330000Y-177180000D02*
X46330000Y-178180000D01*
X46330000Y-164180000D02*
X45330000Y-164180000D01*
X45330000Y-178180000D02*
X46330000Y-178180000D01*
X46330000Y-164180000D02*
X46330000Y-165180000D01*
X56270000Y-184370000D02*
X56270000Y-183370000D01*
X56270000Y-197370000D02*
X57270000Y-197370000D01*
X57270000Y-183370000D02*
X56270000Y-183370000D01*
X56270000Y-197370000D02*
X56270000Y-196370000D01*
X70270000Y-196370000D02*
X70270000Y-197370000D01*
X70270000Y-183370000D02*
X69270000Y-183370000D01*
X69270000Y-197370000D02*
X70270000Y-197370000D01*
X70270000Y-183370000D02*
X70270000Y-184370000D01*
X113430000Y-183370000D02*
X113430000Y-184370000D01*
X112430000Y-197370000D02*
X113430000Y-197370000D01*
X113430000Y-183370000D02*
X112430000Y-183370000D01*
X113430000Y-196370000D02*
X113430000Y-197370000D01*
X99430000Y-197370000D02*
X99430000Y-196370000D01*
X100430000Y-183370000D02*
X99430000Y-183370000D01*
X99430000Y-197370000D02*
X100430000Y-197370000D01*
X99430000Y-184370000D02*
X99430000Y-183370000D01*
X151840000Y-183370000D02*
X151840000Y-184370000D01*
X150840000Y-197370000D02*
X151840000Y-197370000D01*
X151840000Y-183370000D02*
X150840000Y-183370000D01*
X151840000Y-196370000D02*
X151840000Y-197370000D01*
X137840000Y-197370000D02*
X137840000Y-196370000D01*
X138840000Y-183370000D02*
X137840000Y-183370000D01*
X137840000Y-197370000D02*
X138840000Y-197370000D01*
X137840000Y-184370000D02*
X137840000Y-183370000D01*
X176240000Y-184370000D02*
X176240000Y-183370000D01*
X176240000Y-197370000D02*
X177240000Y-197370000D01*
X177240000Y-183370000D02*
X176240000Y-183370000D01*
X176240000Y-197370000D02*
X176240000Y-196370000D01*
X190240000Y-196370000D02*
X190240000Y-197370000D01*
X190240000Y-183370000D02*
X189240000Y-183370000D01*
X189240000Y-197370000D02*
X190240000Y-197370000D01*
X190240000Y-183370000D02*
X190240000Y-184370000D01*
X214640000Y-184370000D02*
X214640000Y-183370000D01*
X214640000Y-197370000D02*
X215640000Y-197370000D01*
X215640000Y-183370000D02*
X214640000Y-183370000D01*
X214640000Y-197370000D02*
X214640000Y-196370000D01*
X228640000Y-196370000D02*
X228640000Y-197370000D01*
X228640000Y-183370000D02*
X227640000Y-183370000D01*
X227640000Y-197370000D02*
X228640000Y-197370000D01*
X228640000Y-183370000D02*
X228640000Y-184370000D01*
X253030000Y-184370000D02*
X253030000Y-183370000D01*
X253030000Y-197370000D02*
X254030000Y-197370000D01*
X254030000Y-183370000D02*
X253030000Y-183370000D01*
X253030000Y-197370000D02*
X253030000Y-196370000D01*
X267030000Y-196370000D02*
X267030000Y-197370000D01*
X267030000Y-183370000D02*
X266030000Y-183370000D01*
X266030000Y-197370000D02*
X267030000Y-197370000D01*
X267030000Y-183370000D02*
X267030000Y-184370000D01*
X314930000Y-183370000D02*
X314930000Y-184370000D01*
X313930000Y-197370000D02*
X314930000Y-197370000D01*
X314930000Y-183370000D02*
X313930000Y-183370000D01*
X314930000Y-196370000D02*
X314930000Y-197370000D01*
X300930000Y-197370000D02*
X300930000Y-196370000D01*
X301930000Y-183370000D02*
X300930000Y-183370000D01*
X300930000Y-197370000D02*
X301930000Y-197370000D01*
X300930000Y-184370000D02*
X300930000Y-183370000D01*
X161110000Y-203560000D02*
X161110000Y-202560000D01*
X161110000Y-216560000D02*
X162110000Y-216560000D01*
X162110000Y-202560000D02*
X161110000Y-202560000D01*
X161110000Y-216560000D02*
X161110000Y-215560000D01*
X175110000Y-215560000D02*
X175110000Y-216560000D01*
X175110000Y-202560000D02*
X174110000Y-202560000D01*
X174110000Y-216560000D02*
X175110000Y-216560000D01*
X175110000Y-202560000D02*
X175110000Y-203560000D01*
X80220000Y-184380000D02*
X80220000Y-183380000D01*
X80220000Y-197380000D02*
X81220000Y-197380000D01*
X81220000Y-183380000D02*
X80220000Y-183380000D01*
X80220000Y-197380000D02*
X80220000Y-196380000D01*
X94220000Y-196380000D02*
X94220000Y-197380000D01*
X94220000Y-183380000D02*
X93220000Y-183380000D01*
X93220000Y-197380000D02*
X94220000Y-197380000D01*
X94220000Y-183380000D02*
X94220000Y-184380000D01*
X132630000Y-183370000D02*
X132630000Y-184370000D01*
X131630000Y-197370000D02*
X132630000Y-197370000D01*
X132630000Y-183370000D02*
X131630000Y-183370000D01*
X132630000Y-196370000D02*
X132630000Y-197370000D01*
X118630000Y-197370000D02*
X118630000Y-196370000D01*
X119630000Y-183370000D02*
X118630000Y-183370000D01*
X118630000Y-197370000D02*
X119630000Y-197370000D01*
X118630000Y-184370000D02*
X118630000Y-183370000D01*
X157030000Y-184370000D02*
X157030000Y-183370000D01*
X157030000Y-197370000D02*
X158030000Y-197370000D01*
X158030000Y-183370000D02*
X157030000Y-183370000D01*
X157030000Y-197370000D02*
X157030000Y-196370000D01*
X171030000Y-196370000D02*
X171030000Y-197370000D01*
X171030000Y-183370000D02*
X170030000Y-183370000D01*
X170030000Y-197370000D02*
X171030000Y-197370000D01*
X171030000Y-183370000D02*
X171030000Y-184370000D01*
X209440000Y-183370000D02*
X209440000Y-184370000D01*
X208440000Y-197370000D02*
X209440000Y-197370000D01*
X209440000Y-183370000D02*
X208440000Y-183370000D01*
X209440000Y-196370000D02*
X209440000Y-197370000D01*
X195440000Y-197370000D02*
X195440000Y-196370000D01*
X196440000Y-183370000D02*
X195440000Y-183370000D01*
X195440000Y-197370000D02*
X196440000Y-197370000D01*
X195440000Y-184370000D02*
X195440000Y-183370000D01*
X247840000Y-183370000D02*
X247840000Y-184370000D01*
X246840000Y-197370000D02*
X247840000Y-197370000D01*
X247840000Y-183370000D02*
X246840000Y-183370000D01*
X247840000Y-196370000D02*
X247840000Y-197370000D01*
X233840000Y-197370000D02*
X233840000Y-196370000D01*
X234840000Y-183370000D02*
X233840000Y-183370000D01*
X233840000Y-197370000D02*
X234840000Y-197370000D01*
X233840000Y-184370000D02*
X233840000Y-183370000D01*
X276980000Y-184370000D02*
X276980000Y-183370000D01*
X276980000Y-197370000D02*
X277980000Y-197370000D01*
X277980000Y-183370000D02*
X276980000Y-183370000D01*
X276980000Y-197370000D02*
X276980000Y-196370000D01*
X290980000Y-196370000D02*
X290980000Y-197370000D01*
X290980000Y-183370000D02*
X289980000Y-183370000D01*
X289980000Y-197370000D02*
X290980000Y-197370000D01*
X290980000Y-183370000D02*
X290980000Y-184370000D01*
X382910000Y-126210000D02*
X382910000Y-127210000D01*
X381910000Y-140210000D02*
X382910000Y-140210000D01*
X382910000Y-126210000D02*
X381910000Y-126210000D01*
X382910000Y-139210000D02*
X382910000Y-140210000D01*
X368910000Y-140210000D02*
X368910000Y-139210000D01*
X369910000Y-126210000D02*
X368910000Y-126210000D01*
X368910000Y-140210000D02*
X369910000Y-140210000D01*
X368910000Y-127210000D02*
X368910000Y-126210000D01*
X32320000Y-184380000D02*
X32320000Y-183380000D01*
X32320000Y-197380000D02*
X33320000Y-197380000D01*
X33320000Y-183380000D02*
X32320000Y-183380000D01*
X32320000Y-197380000D02*
X32320000Y-196380000D01*
X46320000Y-196380000D02*
X46320000Y-197380000D01*
X46320000Y-183380000D02*
X45320000Y-183380000D01*
X45320000Y-197380000D02*
X46320000Y-197380000D01*
X46320000Y-183380000D02*
X46320000Y-184380000D01*
X89930000Y-165160000D02*
X89930000Y-164160000D01*
X89930000Y-178160000D02*
X90930000Y-178160000D01*
X90930000Y-164160000D02*
X89930000Y-164160000D01*
X89930000Y-178160000D02*
X89930000Y-177160000D01*
X103930000Y-177160000D02*
X103930000Y-178160000D01*
X103930000Y-164160000D02*
X102930000Y-164160000D01*
X102930000Y-178160000D02*
X103930000Y-178160000D01*
X103930000Y-164160000D02*
X103930000Y-165160000D01*
X142280000Y-164160000D02*
X142280000Y-165160000D01*
X141280000Y-178160000D02*
X142280000Y-178160000D01*
X142280000Y-164160000D02*
X141280000Y-164160000D01*
X142280000Y-177160000D02*
X142280000Y-178160000D01*
X128280000Y-178160000D02*
X128280000Y-177160000D01*
X129280000Y-164160000D02*
X128280000Y-164160000D01*
X128280000Y-178160000D02*
X129280000Y-178160000D01*
X128280000Y-165160000D02*
X128280000Y-164160000D01*
X166660000Y-165160000D02*
X166660000Y-164160000D01*
X166660000Y-178160000D02*
X167660000Y-178160000D01*
X167660000Y-164160000D02*
X166660000Y-164160000D01*
X166660000Y-178160000D02*
X166660000Y-177160000D01*
X180660000Y-177160000D02*
X180660000Y-178160000D01*
X180660000Y-164160000D02*
X179660000Y-164160000D01*
X179660000Y-178160000D02*
X180660000Y-178160000D01*
X180660000Y-164160000D02*
X180660000Y-165160000D01*
X219020000Y-164160000D02*
X219020000Y-165160000D01*
X218020000Y-178160000D02*
X219020000Y-178160000D01*
X219020000Y-164160000D02*
X218020000Y-164160000D01*
X219020000Y-177160000D02*
X219020000Y-178160000D01*
X205020000Y-178160000D02*
X205020000Y-177160000D01*
X206020000Y-164160000D02*
X205020000Y-164160000D01*
X205020000Y-178160000D02*
X206020000Y-178160000D01*
X205020000Y-165160000D02*
X205020000Y-164160000D01*
X243390000Y-165160000D02*
X243390000Y-164160000D01*
X243390000Y-178160000D02*
X244390000Y-178160000D01*
X244390000Y-164160000D02*
X243390000Y-164160000D01*
X243390000Y-178160000D02*
X243390000Y-177160000D01*
X257390000Y-177160000D02*
X257390000Y-178160000D01*
X257390000Y-164160000D02*
X256390000Y-164160000D01*
X256390000Y-178160000D02*
X257390000Y-178160000D01*
X257390000Y-164160000D02*
X257390000Y-165160000D01*
X281780000Y-165180000D02*
X281780000Y-164180000D01*
X281780000Y-178180000D02*
X282780000Y-178180000D01*
X282780000Y-164180000D02*
X281780000Y-164180000D01*
X281780000Y-178180000D02*
X281780000Y-177180000D01*
X295780000Y-177180000D02*
X295780000Y-178180000D01*
X295780000Y-164180000D02*
X294780000Y-164180000D01*
X294780000Y-178180000D02*
X295780000Y-178180000D01*
X295780000Y-164180000D02*
X295780000Y-165180000D01*
X382910000Y-145490000D02*
X382910000Y-146490000D01*
X381910000Y-159490000D02*
X382910000Y-159490000D01*
X382910000Y-145490000D02*
X381910000Y-145490000D01*
X382910000Y-158490000D02*
X382910000Y-159490000D01*
X368910000Y-159490000D02*
X368910000Y-158490000D01*
X369910000Y-145490000D02*
X368910000Y-145490000D01*
X368910000Y-159490000D02*
X369910000Y-159490000D01*
X368910000Y-146490000D02*
X368910000Y-145490000D01*
X64860000Y-146000000D02*
X64860000Y-145000000D01*
X64860000Y-159000000D02*
X65860000Y-159000000D01*
X65860000Y-145000000D02*
X64860000Y-145000000D01*
X64860000Y-159000000D02*
X64860000Y-158000000D01*
X78860000Y-158000000D02*
X78860000Y-159000000D01*
X78860000Y-145000000D02*
X77860000Y-145000000D01*
X77860000Y-159000000D02*
X78860000Y-159000000D01*
X78860000Y-145000000D02*
X78860000Y-146000000D01*
X103260000Y-146000000D02*
X103260000Y-145000000D01*
X103260000Y-159000000D02*
X104260000Y-159000000D01*
X104260000Y-145000000D02*
X103260000Y-145000000D01*
X103260000Y-159000000D02*
X103260000Y-158000000D01*
X117260000Y-158000000D02*
X117260000Y-159000000D01*
X117260000Y-145000000D02*
X116260000Y-145000000D01*
X116260000Y-159000000D02*
X117260000Y-159000000D01*
X117260000Y-145000000D02*
X117260000Y-146000000D01*
X155650000Y-145000000D02*
X155650000Y-146000000D01*
X154650000Y-159000000D02*
X155650000Y-159000000D01*
X155650000Y-145000000D02*
X154650000Y-145000000D01*
X155650000Y-158000000D02*
X155650000Y-159000000D01*
X141650000Y-159000000D02*
X141650000Y-158000000D01*
X142650000Y-145000000D02*
X141650000Y-145000000D01*
X141650000Y-159000000D02*
X142650000Y-159000000D01*
X141650000Y-146000000D02*
X141650000Y-145000000D01*
X194030000Y-145000000D02*
X194030000Y-146000000D01*
X193030000Y-159000000D02*
X194030000Y-159000000D01*
X194030000Y-145000000D02*
X193030000Y-145000000D01*
X194030000Y-158000000D02*
X194030000Y-159000000D01*
X180030000Y-159000000D02*
X180030000Y-158000000D01*
X181030000Y-145000000D02*
X180030000Y-145000000D01*
X180030000Y-159000000D02*
X181030000Y-159000000D01*
X180030000Y-146000000D02*
X180030000Y-145000000D01*
X218420000Y-146000000D02*
X218420000Y-145000000D01*
X218420000Y-159000000D02*
X219420000Y-159000000D01*
X219420000Y-145000000D02*
X218420000Y-145000000D01*
X218420000Y-159000000D02*
X218420000Y-158000000D01*
X232420000Y-158000000D02*
X232420000Y-159000000D01*
X232420000Y-145000000D02*
X231420000Y-145000000D01*
X231420000Y-159000000D02*
X232420000Y-159000000D01*
X232420000Y-145000000D02*
X232420000Y-146000000D01*
X270820000Y-145000000D02*
X270820000Y-146000000D01*
X269820000Y-159000000D02*
X270820000Y-159000000D01*
X270820000Y-145000000D02*
X269820000Y-145000000D01*
X270820000Y-158000000D02*
X270820000Y-159000000D01*
X256820000Y-159000000D02*
X256820000Y-158000000D01*
X257820000Y-145000000D02*
X256820000Y-145000000D01*
X256820000Y-159000000D02*
X257820000Y-159000000D01*
X256820000Y-146000000D02*
X256820000Y-145000000D01*
X309170000Y-145010000D02*
X309170000Y-146010000D01*
X308170000Y-159010000D02*
X309170000Y-159010000D01*
X309170000Y-145010000D02*
X308170000Y-145010000D01*
X309170000Y-158010000D02*
X309170000Y-159010000D01*
X295170000Y-159010000D02*
X295170000Y-158010000D01*
X296170000Y-145010000D02*
X295170000Y-145010000D01*
X295170000Y-159010000D02*
X296170000Y-159010000D01*
X295170000Y-146010000D02*
X295170000Y-145010000D01*
X368910000Y-165800000D02*
X368910000Y-164800000D01*
X368910000Y-178800000D02*
X369910000Y-178800000D01*
X369910000Y-164800000D02*
X368910000Y-164800000D01*
X368910000Y-178800000D02*
X368910000Y-177800000D01*
X382910000Y-177800000D02*
X382910000Y-178800000D01*
X382910000Y-164800000D02*
X381910000Y-164800000D01*
X381910000Y-178800000D02*
X382910000Y-178800000D01*
X382910000Y-164800000D02*
X382910000Y-165800000D01*
X88460000Y-125800000D02*
X88460000Y-126800000D01*
X87460000Y-139800000D02*
X88460000Y-139800000D01*
X88460000Y-125800000D02*
X87460000Y-125800000D01*
X88460000Y-138800000D02*
X88460000Y-139800000D01*
X74460000Y-139800000D02*
X74460000Y-138800000D01*
X75460000Y-125800000D02*
X74460000Y-125800000D01*
X74460000Y-139800000D02*
X75460000Y-139800000D01*
X74460000Y-126800000D02*
X74460000Y-125800000D01*
X126830000Y-125800000D02*
X126830000Y-126800000D01*
X125830000Y-139800000D02*
X126830000Y-139800000D01*
X126830000Y-125800000D02*
X125830000Y-125800000D01*
X126830000Y-138800000D02*
X126830000Y-139800000D01*
X112830000Y-139800000D02*
X112830000Y-138800000D01*
X113830000Y-125800000D02*
X112830000Y-125800000D01*
X112830000Y-139800000D02*
X113830000Y-139800000D01*
X112830000Y-126800000D02*
X112830000Y-125800000D01*
X151210000Y-126800000D02*
X151210000Y-125800000D01*
X151210000Y-139800000D02*
X152210000Y-139800000D01*
X152210000Y-125800000D02*
X151210000Y-125800000D01*
X151210000Y-139800000D02*
X151210000Y-138800000D01*
X165210000Y-138800000D02*
X165210000Y-139800000D01*
X165210000Y-125800000D02*
X164210000Y-125800000D01*
X164210000Y-139800000D02*
X165210000Y-139800000D01*
X165210000Y-125800000D02*
X165210000Y-126800000D01*
X189580000Y-126800000D02*
X189580000Y-125800000D01*
X189580000Y-139800000D02*
X190580000Y-139800000D01*
X190580000Y-125800000D02*
X189580000Y-125800000D01*
X189580000Y-139800000D02*
X189580000Y-138800000D01*
X203580000Y-138800000D02*
X203580000Y-139800000D01*
X203580000Y-125800000D02*
X202580000Y-125800000D01*
X202580000Y-139800000D02*
X203580000Y-139800000D01*
X203580000Y-125800000D02*
X203580000Y-126800000D01*
X227950000Y-126800000D02*
X227950000Y-125800000D01*
X227950000Y-139800000D02*
X228950000Y-139800000D01*
X228950000Y-125800000D02*
X227950000Y-125800000D01*
X227950000Y-139800000D02*
X227950000Y-138800000D01*
X241950000Y-138800000D02*
X241950000Y-139800000D01*
X241950000Y-125800000D02*
X240950000Y-125800000D01*
X240950000Y-139800000D02*
X241950000Y-139800000D01*
X241950000Y-125800000D02*
X241950000Y-126800000D01*
X280340000Y-125800000D02*
X280340000Y-126800000D01*
X279340000Y-139800000D02*
X280340000Y-139800000D01*
X280340000Y-125800000D02*
X279340000Y-125800000D01*
X280340000Y-138800000D02*
X280340000Y-139800000D01*
X266340000Y-139800000D02*
X266340000Y-138800000D01*
X267340000Y-125800000D02*
X266340000Y-125800000D01*
X266340000Y-139800000D02*
X267340000Y-139800000D01*
X266340000Y-126800000D02*
X266340000Y-125800000D01*
X318720000Y-125800000D02*
X318720000Y-126800000D01*
X317720000Y-139800000D02*
X318720000Y-139800000D01*
X318720000Y-125800000D02*
X317720000Y-125800000D01*
X318720000Y-138800000D02*
X318720000Y-139800000D01*
X304720000Y-139800000D02*
X304720000Y-138800000D01*
X305720000Y-125800000D02*
X304720000Y-125800000D01*
X304720000Y-139800000D02*
X305720000Y-139800000D01*
X304720000Y-126800000D02*
X304720000Y-125800000D01*
X368910000Y-185080000D02*
X368910000Y-184080000D01*
X368910000Y-198080000D02*
X369910000Y-198080000D01*
X369910000Y-184080000D02*
X368910000Y-184080000D01*
X368910000Y-198080000D02*
X368910000Y-197080000D01*
X382910000Y-197080000D02*
X382910000Y-198080000D01*
X382910000Y-184080000D02*
X381910000Y-184080000D01*
X381910000Y-198080000D02*
X382910000Y-198080000D01*
X382910000Y-184080000D02*
X382910000Y-185080000D01*
X65530000Y-164160000D02*
X65530000Y-165160000D01*
X64530000Y-178160000D02*
X65530000Y-178160000D01*
X65530000Y-164160000D02*
X64530000Y-164160000D01*
X65530000Y-177160000D02*
X65530000Y-178160000D01*
X51530000Y-178160000D02*
X51530000Y-177160000D01*
X52530000Y-164160000D02*
X51530000Y-164160000D01*
X51530000Y-178160000D02*
X52530000Y-178160000D01*
X51530000Y-165160000D02*
X51530000Y-164160000D01*
X319140000Y-146000000D02*
X319140000Y-145000000D01*
X319140000Y-159000000D02*
X320140000Y-159000000D01*
X320140000Y-145000000D02*
X319140000Y-145000000D01*
X319140000Y-159000000D02*
X319140000Y-158000000D01*
X333140000Y-158000000D02*
X333140000Y-159000000D01*
X333140000Y-145000000D02*
X332140000Y-145000000D01*
X332140000Y-159000000D02*
X333140000Y-159000000D01*
X333140000Y-145000000D02*
X333140000Y-146000000D01*
X44653333Y-209342380D02*
X44320000Y-208866190D01*
X44081904Y-209342380D02*
X44081904Y-208342380D01*
X44462857Y-208342380D01*
X44558095Y-208390000D01*
X44605714Y-208437619D01*
X44653333Y-208532857D01*
X44653333Y-208675714D01*
X44605714Y-208770952D01*
X44558095Y-208818571D01*
X44462857Y-208866190D01*
X44081904Y-208866190D01*
X45510476Y-208342380D02*
X45320000Y-208342380D01*
X45224761Y-208390000D01*
X45177142Y-208437619D01*
X45081904Y-208580476D01*
X45034285Y-208770952D01*
X45034285Y-209151904D01*
X45081904Y-209247142D01*
X45129523Y-209294761D01*
X45224761Y-209342380D01*
X45415238Y-209342380D01*
X45510476Y-209294761D01*
X45558095Y-209247142D01*
X45605714Y-209151904D01*
X45605714Y-208913809D01*
X45558095Y-208818571D01*
X45510476Y-208770952D01*
X45415238Y-208723333D01*
X45224761Y-208723333D01*
X45129523Y-208770952D01*
X45081904Y-208818571D01*
X45034285Y-208913809D01*
X44294761Y-206322380D02*
X43723333Y-206322380D01*
X44009047Y-206322380D02*
X44009047Y-205322380D01*
X43913809Y-205465238D01*
X43818571Y-205560476D01*
X43723333Y-205608095D01*
X44913809Y-205322380D02*
X45009047Y-205322380D01*
X45104285Y-205370000D01*
X45151904Y-205417619D01*
X45199523Y-205512857D01*
X45247142Y-205703333D01*
X45247142Y-205941428D01*
X45199523Y-206131904D01*
X45151904Y-206227142D01*
X45104285Y-206274761D01*
X45009047Y-206322380D01*
X44913809Y-206322380D01*
X44818571Y-206274761D01*
X44770952Y-206227142D01*
X44723333Y-206131904D01*
X44675714Y-205941428D01*
X44675714Y-205703333D01*
X44723333Y-205512857D01*
X44770952Y-205417619D01*
X44818571Y-205370000D01*
X44913809Y-205322380D01*
X45675714Y-206322380D02*
X45675714Y-205322380D01*
X45770952Y-205941428D02*
X46056666Y-206322380D01*
X46056666Y-205655714D02*
X45675714Y-206036666D01*
X48393333Y-209367142D02*
X48345714Y-209414761D01*
X48202857Y-209462380D01*
X48107619Y-209462380D01*
X47964761Y-209414761D01*
X47869523Y-209319523D01*
X47821904Y-209224285D01*
X47774285Y-209033809D01*
X47774285Y-208890952D01*
X47821904Y-208700476D01*
X47869523Y-208605238D01*
X47964761Y-208510000D01*
X48107619Y-208462380D01*
X48202857Y-208462380D01*
X48345714Y-208510000D01*
X48393333Y-208557619D01*
X48774285Y-208557619D02*
X48821904Y-208510000D01*
X48917142Y-208462380D01*
X49155238Y-208462380D01*
X49250476Y-208510000D01*
X49298095Y-208557619D01*
X49345714Y-208652857D01*
X49345714Y-208748095D01*
X49298095Y-208890952D01*
X48726666Y-209462380D01*
X49345714Y-209462380D01*
X48244761Y-206232380D02*
X47673333Y-206232380D01*
X47959047Y-206232380D02*
X47959047Y-205232380D01*
X47863809Y-205375238D01*
X47768571Y-205470476D01*
X47673333Y-205518095D01*
X49101904Y-205565714D02*
X49101904Y-206232380D01*
X48673333Y-205565714D02*
X48673333Y-206089523D01*
X48720952Y-206184761D01*
X48816190Y-206232380D01*
X48959047Y-206232380D01*
X49054285Y-206184761D01*
X49101904Y-206137142D01*
X49911428Y-205708571D02*
X49578095Y-205708571D01*
X49578095Y-206232380D02*
X49578095Y-205232380D01*
X50054285Y-205232380D01*
X54033333Y-211457142D02*
X53985714Y-211504761D01*
X53842857Y-211552380D01*
X53747619Y-211552380D01*
X53604761Y-211504761D01*
X53509523Y-211409523D01*
X53461904Y-211314285D01*
X53414285Y-211123809D01*
X53414285Y-210980952D01*
X53461904Y-210790476D01*
X53509523Y-210695238D01*
X53604761Y-210600000D01*
X53747619Y-210552380D01*
X53842857Y-210552380D01*
X53985714Y-210600000D01*
X54033333Y-210647619D01*
X54985714Y-211552380D02*
X54414285Y-211552380D01*
X54700000Y-211552380D02*
X54700000Y-210552380D01*
X54604761Y-210695238D01*
X54509523Y-210790476D01*
X54414285Y-210838095D01*
X54402380Y-206555238D02*
X54402380Y-207126666D01*
X54402380Y-206840952D02*
X53402380Y-206840952D01*
X53545238Y-206936190D01*
X53640476Y-207031428D01*
X53688095Y-207126666D01*
X53735714Y-205698095D02*
X54402380Y-205698095D01*
X53735714Y-206126666D02*
X54259523Y-206126666D01*
X54354761Y-206079047D01*
X54402380Y-205983809D01*
X54402380Y-205840952D01*
X54354761Y-205745714D01*
X54307142Y-205698095D01*
X53878571Y-204888571D02*
X53878571Y-205221904D01*
X54402380Y-205221904D02*
X53402380Y-205221904D01*
X53402380Y-204745714D01*
X244152380Y-114193333D02*
X244866666Y-114193333D01*
X245009523Y-114240952D01*
X245104761Y-114336190D01*
X245152380Y-114479047D01*
X245152380Y-114574285D01*
X245152380Y-113193333D02*
X245152380Y-113764761D01*
X245152380Y-113479047D02*
X244152380Y-113479047D01*
X244295238Y-113574285D01*
X244390476Y-113669523D01*
X244438095Y-113764761D01*
X128046666Y-138662380D02*
X127713333Y-138186190D01*
X127475238Y-138662380D02*
X127475238Y-137662380D01*
X127856190Y-137662380D01*
X127951428Y-137710000D01*
X127999047Y-137757619D01*
X128046666Y-137852857D01*
X128046666Y-137995714D01*
X127999047Y-138090952D01*
X127951428Y-138138571D01*
X127856190Y-138186190D01*
X127475238Y-138186190D01*
X128475238Y-138138571D02*
X128808571Y-138138571D01*
X128951428Y-138662380D02*
X128475238Y-138662380D01*
X128475238Y-137662380D01*
X128951428Y-137662380D01*
X129713333Y-138138571D02*
X129380000Y-138138571D01*
X129380000Y-138662380D02*
X129380000Y-137662380D01*
X129856190Y-137662380D01*
X130380000Y-137662380D02*
X130380000Y-137900476D01*
X130141904Y-137805238D02*
X130380000Y-137900476D01*
X130618095Y-137805238D01*
X130237142Y-138090952D02*
X130380000Y-137900476D01*
X130522857Y-138090952D01*
X131141904Y-137662380D02*
X131141904Y-137900476D01*
X130903809Y-137805238D02*
X131141904Y-137900476D01*
X131380000Y-137805238D01*
X130999047Y-138090952D02*
X131141904Y-137900476D01*
X131284761Y-138090952D01*
X233826666Y-158192380D02*
X233493333Y-157716190D01*
X233255238Y-158192380D02*
X233255238Y-157192380D01*
X233636190Y-157192380D01*
X233731428Y-157240000D01*
X233779047Y-157287619D01*
X233826666Y-157382857D01*
X233826666Y-157525714D01*
X233779047Y-157620952D01*
X233731428Y-157668571D01*
X233636190Y-157716190D01*
X233255238Y-157716190D01*
X234255238Y-157668571D02*
X234588571Y-157668571D01*
X234731428Y-158192380D02*
X234255238Y-158192380D01*
X234255238Y-157192380D01*
X234731428Y-157192380D01*
X235493333Y-157668571D02*
X235160000Y-157668571D01*
X235160000Y-158192380D02*
X235160000Y-157192380D01*
X235636190Y-157192380D01*
X236160000Y-157192380D02*
X236160000Y-157430476D01*
X235921904Y-157335238D02*
X236160000Y-157430476D01*
X236398095Y-157335238D01*
X236017142Y-157620952D02*
X236160000Y-157430476D01*
X236302857Y-157620952D01*
X236921904Y-157192380D02*
X236921904Y-157430476D01*
X236683809Y-157335238D02*
X236921904Y-157430476D01*
X237160000Y-157335238D01*
X236779047Y-157620952D02*
X236921904Y-157430476D01*
X237064761Y-157620952D01*
X156846666Y-158192380D02*
X156513333Y-157716190D01*
X156275238Y-158192380D02*
X156275238Y-157192380D01*
X156656190Y-157192380D01*
X156751428Y-157240000D01*
X156799047Y-157287619D01*
X156846666Y-157382857D01*
X156846666Y-157525714D01*
X156799047Y-157620952D01*
X156751428Y-157668571D01*
X156656190Y-157716190D01*
X156275238Y-157716190D01*
X157275238Y-157668571D02*
X157608571Y-157668571D01*
X157751428Y-158192380D02*
X157275238Y-158192380D01*
X157275238Y-157192380D01*
X157751428Y-157192380D01*
X158513333Y-157668571D02*
X158180000Y-157668571D01*
X158180000Y-158192380D02*
X158180000Y-157192380D01*
X158656190Y-157192380D01*
X159180000Y-157192380D02*
X159180000Y-157430476D01*
X158941904Y-157335238D02*
X159180000Y-157430476D01*
X159418095Y-157335238D01*
X159037142Y-157620952D02*
X159180000Y-157430476D01*
X159322857Y-157620952D01*
X159941904Y-157192380D02*
X159941904Y-157430476D01*
X159703809Y-157335238D02*
X159941904Y-157430476D01*
X160180000Y-157335238D01*
X159799047Y-157620952D02*
X159941904Y-157430476D01*
X160084761Y-157620952D01*
X50525714Y-177982380D02*
X50525714Y-176982380D01*
X50763809Y-176982380D01*
X50906666Y-177030000D01*
X51001904Y-177125238D01*
X51049523Y-177220476D01*
X51097142Y-177410952D01*
X51097142Y-177553809D01*
X51049523Y-177744285D01*
X51001904Y-177839523D01*
X50906666Y-177934761D01*
X50763809Y-177982380D01*
X50525714Y-177982380D01*
X51954285Y-176982380D02*
X51763809Y-176982380D01*
X51668571Y-177030000D01*
X51620952Y-177077619D01*
X51525714Y-177220476D01*
X51478095Y-177410952D01*
X51478095Y-177791904D01*
X51525714Y-177887142D01*
X51573333Y-177934761D01*
X51668571Y-177982380D01*
X51859047Y-177982380D01*
X51954285Y-177934761D01*
X52001904Y-177887142D01*
X52049523Y-177791904D01*
X52049523Y-177553809D01*
X52001904Y-177458571D01*
X51954285Y-177410952D01*
X51859047Y-177363333D01*
X51668571Y-177363333D01*
X51573333Y-177410952D01*
X51525714Y-177458571D01*
X51478095Y-177553809D01*
X52954285Y-176982380D02*
X52478095Y-176982380D01*
X52430476Y-177458571D01*
X52478095Y-177410952D01*
X52573333Y-177363333D01*
X52811428Y-177363333D01*
X52906666Y-177410952D01*
X52954285Y-177458571D01*
X53001904Y-177553809D01*
X53001904Y-177791904D01*
X52954285Y-177887142D01*
X52906666Y-177934761D01*
X52811428Y-177982380D01*
X52573333Y-177982380D01*
X52478095Y-177934761D01*
X52430476Y-177887142D01*
X64184761Y-212047619D02*
X64089523Y-212000000D01*
X63994285Y-211904761D01*
X63851428Y-211761904D01*
X63756190Y-211714285D01*
X63660952Y-211714285D01*
X63708571Y-211952380D02*
X63613333Y-211904761D01*
X63518095Y-211809523D01*
X63470476Y-211619047D01*
X63470476Y-211285714D01*
X63518095Y-211095238D01*
X63613333Y-211000000D01*
X63708571Y-210952380D01*
X63899047Y-210952380D01*
X63994285Y-211000000D01*
X64089523Y-211095238D01*
X64137142Y-211285714D01*
X64137142Y-211619047D01*
X64089523Y-211809523D01*
X63994285Y-211904761D01*
X63899047Y-211952380D01*
X63708571Y-211952380D01*
X65089523Y-211952380D02*
X64518095Y-211952380D01*
X64803809Y-211952380D02*
X64803809Y-210952380D01*
X64708571Y-211095238D01*
X64613333Y-211190476D01*
X64518095Y-211238095D01*
X66678571Y-210677142D02*
X66726190Y-210534285D01*
X66773809Y-210486666D01*
X66869047Y-210439047D01*
X67011904Y-210439047D01*
X67107142Y-210486666D01*
X67154761Y-210534285D01*
X67202380Y-210629523D01*
X67202380Y-211010476D01*
X66202380Y-211010476D01*
X66202380Y-210677142D01*
X66250000Y-210581904D01*
X66297619Y-210534285D01*
X66392857Y-210486666D01*
X66488095Y-210486666D01*
X66583333Y-210534285D01*
X66630952Y-210581904D01*
X66678571Y-210677142D01*
X66678571Y-211010476D01*
X67107142Y-209439047D02*
X67154761Y-209486666D01*
X67202380Y-209629523D01*
X67202380Y-209724761D01*
X67154761Y-209867619D01*
X67059523Y-209962857D01*
X66964285Y-210010476D01*
X66773809Y-210058095D01*
X66630952Y-210058095D01*
X66440476Y-210010476D01*
X66345238Y-209962857D01*
X66250000Y-209867619D01*
X66202380Y-209724761D01*
X66202380Y-209629523D01*
X66250000Y-209486666D01*
X66297619Y-209439047D01*
X66202380Y-208534285D02*
X66202380Y-209010476D01*
X66678571Y-209058095D01*
X66630952Y-209010476D01*
X66583333Y-208915238D01*
X66583333Y-208677142D01*
X66630952Y-208581904D01*
X66678571Y-208534285D01*
X66773809Y-208486666D01*
X67011904Y-208486666D01*
X67107142Y-208534285D01*
X67154761Y-208581904D01*
X67202380Y-208677142D01*
X67202380Y-208915238D01*
X67154761Y-209010476D01*
X67107142Y-209058095D01*
X66535714Y-207629523D02*
X67202380Y-207629523D01*
X66154761Y-207867619D02*
X66869047Y-208105714D01*
X66869047Y-207486666D01*
X66630952Y-206962857D02*
X66583333Y-207058095D01*
X66535714Y-207105714D01*
X66440476Y-207153333D01*
X66392857Y-207153333D01*
X66297619Y-207105714D01*
X66250000Y-207058095D01*
X66202380Y-206962857D01*
X66202380Y-206772380D01*
X66250000Y-206677142D01*
X66297619Y-206629523D01*
X66392857Y-206581904D01*
X66440476Y-206581904D01*
X66535714Y-206629523D01*
X66583333Y-206677142D01*
X66630952Y-206772380D01*
X66630952Y-206962857D01*
X66678571Y-207058095D01*
X66726190Y-207105714D01*
X66821428Y-207153333D01*
X67011904Y-207153333D01*
X67107142Y-207105714D01*
X67154761Y-207058095D01*
X67202380Y-206962857D01*
X67202380Y-206772380D01*
X67154761Y-206677142D01*
X67107142Y-206629523D01*
X67011904Y-206581904D01*
X66821428Y-206581904D01*
X66726190Y-206629523D01*
X66678571Y-206677142D01*
X66630952Y-206772380D01*
X58233333Y-211492380D02*
X57900000Y-211016190D01*
X57661904Y-211492380D02*
X57661904Y-210492380D01*
X58042857Y-210492380D01*
X58138095Y-210540000D01*
X58185714Y-210587619D01*
X58233333Y-210682857D01*
X58233333Y-210825714D01*
X58185714Y-210920952D01*
X58138095Y-210968571D01*
X58042857Y-211016190D01*
X57661904Y-211016190D01*
X59185714Y-211492380D02*
X58614285Y-211492380D01*
X58900000Y-211492380D02*
X58900000Y-210492380D01*
X58804761Y-210635238D01*
X58709523Y-210730476D01*
X58614285Y-210778095D01*
X58692380Y-206571428D02*
X58692380Y-207142857D01*
X58692380Y-206857142D02*
X57692380Y-206857142D01*
X57835238Y-206952380D01*
X57930476Y-207047619D01*
X57978095Y-207142857D01*
X57692380Y-205952380D02*
X57692380Y-205857142D01*
X57740000Y-205761904D01*
X57787619Y-205714285D01*
X57882857Y-205666666D01*
X58073333Y-205619047D01*
X58311428Y-205619047D01*
X58501904Y-205666666D01*
X58597142Y-205714285D01*
X58644761Y-205761904D01*
X58692380Y-205857142D01*
X58692380Y-205952380D01*
X58644761Y-206047619D01*
X58597142Y-206095238D01*
X58501904Y-206142857D01*
X58311428Y-206190476D01*
X58073333Y-206190476D01*
X57882857Y-206142857D01*
X57787619Y-206095238D01*
X57740000Y-206047619D01*
X57692380Y-205952380D01*
X57692380Y-205000000D02*
X57692380Y-204904761D01*
X57740000Y-204809523D01*
X57787619Y-204761904D01*
X57882857Y-204714285D01*
X58073333Y-204666666D01*
X58311428Y-204666666D01*
X58501904Y-204714285D01*
X58597142Y-204761904D01*
X58644761Y-204809523D01*
X58692380Y-204904761D01*
X58692380Y-205000000D01*
X58644761Y-205095238D01*
X58597142Y-205142857D01*
X58501904Y-205190476D01*
X58311428Y-205238095D01*
X58073333Y-205238095D01*
X57882857Y-205190476D01*
X57787619Y-205142857D01*
X57740000Y-205095238D01*
X57692380Y-205000000D01*
X58692380Y-204238095D02*
X57692380Y-204238095D01*
X58311428Y-204142857D02*
X58692380Y-203857142D01*
X58025714Y-203857142D02*
X58406666Y-204238095D01*
X60863333Y-214772380D02*
X60530000Y-214296190D01*
X60291904Y-214772380D02*
X60291904Y-213772380D01*
X60672857Y-213772380D01*
X60768095Y-213820000D01*
X60815714Y-213867619D01*
X60863333Y-213962857D01*
X60863333Y-214105714D01*
X60815714Y-214200952D01*
X60768095Y-214248571D01*
X60672857Y-214296190D01*
X60291904Y-214296190D01*
X61244285Y-213867619D02*
X61291904Y-213820000D01*
X61387142Y-213772380D01*
X61625238Y-213772380D01*
X61720476Y-213820000D01*
X61768095Y-213867619D01*
X61815714Y-213962857D01*
X61815714Y-214058095D01*
X61768095Y-214200952D01*
X61196666Y-214772380D01*
X61815714Y-214772380D01*
X63380952Y-213422380D02*
X62809523Y-213422380D01*
X63095238Y-213422380D02*
X63095238Y-212422380D01*
X63000000Y-212565238D01*
X62904761Y-212660476D01*
X62809523Y-212708095D01*
X63809523Y-213422380D02*
X63809523Y-212422380D01*
X63904761Y-213041428D02*
X64190476Y-213422380D01*
X64190476Y-212755714D02*
X63809523Y-213136666D01*
X60693333Y-211522380D02*
X60360000Y-211046190D01*
X60121904Y-211522380D02*
X60121904Y-210522380D01*
X60502857Y-210522380D01*
X60598095Y-210570000D01*
X60645714Y-210617619D01*
X60693333Y-210712857D01*
X60693333Y-210855714D01*
X60645714Y-210950952D01*
X60598095Y-210998571D01*
X60502857Y-211046190D01*
X60121904Y-211046190D01*
X61026666Y-210522380D02*
X61645714Y-210522380D01*
X61312380Y-210903333D01*
X61455238Y-210903333D01*
X61550476Y-210950952D01*
X61598095Y-210998571D01*
X61645714Y-211093809D01*
X61645714Y-211331904D01*
X61598095Y-211427142D01*
X61550476Y-211474761D01*
X61455238Y-211522380D01*
X61169523Y-211522380D01*
X61074285Y-211474761D01*
X61026666Y-211427142D01*
X61282380Y-206555238D02*
X61282380Y-207126666D01*
X61282380Y-206840952D02*
X60282380Y-206840952D01*
X60425238Y-206936190D01*
X60520476Y-207031428D01*
X60568095Y-207126666D01*
X60282380Y-205936190D02*
X60282380Y-205840952D01*
X60330000Y-205745714D01*
X60377619Y-205698095D01*
X60472857Y-205650476D01*
X60663333Y-205602857D01*
X60901428Y-205602857D01*
X61091904Y-205650476D01*
X61187142Y-205698095D01*
X61234761Y-205745714D01*
X61282380Y-205840952D01*
X61282380Y-205936190D01*
X61234761Y-206031428D01*
X61187142Y-206079047D01*
X61091904Y-206126666D01*
X60901428Y-206174285D01*
X60663333Y-206174285D01*
X60472857Y-206126666D01*
X60377619Y-206079047D01*
X60330000Y-206031428D01*
X60282380Y-205936190D01*
X61282380Y-205174285D02*
X60282380Y-205174285D01*
X60901428Y-205079047D02*
X61282380Y-204793333D01*
X60615714Y-204793333D02*
X60996666Y-205174285D01*
X56053333Y-215472380D02*
X55720000Y-214996190D01*
X55481904Y-215472380D02*
X55481904Y-214472380D01*
X55862857Y-214472380D01*
X55958095Y-214520000D01*
X56005714Y-214567619D01*
X56053333Y-214662857D01*
X56053333Y-214805714D01*
X56005714Y-214900952D01*
X55958095Y-214948571D01*
X55862857Y-214996190D01*
X55481904Y-214996190D01*
X56910476Y-214805714D02*
X56910476Y-215472380D01*
X56672380Y-214424761D02*
X56434285Y-215139047D01*
X57053333Y-215139047D01*
X55112380Y-213685238D02*
X55112380Y-214256666D01*
X55112380Y-213970952D02*
X54112380Y-213970952D01*
X54255238Y-214066190D01*
X54350476Y-214161428D01*
X54398095Y-214256666D01*
X54112380Y-213066190D02*
X54112380Y-212970952D01*
X54160000Y-212875714D01*
X54207619Y-212828095D01*
X54302857Y-212780476D01*
X54493333Y-212732857D01*
X54731428Y-212732857D01*
X54921904Y-212780476D01*
X55017142Y-212828095D01*
X55064761Y-212875714D01*
X55112380Y-212970952D01*
X55112380Y-213066190D01*
X55064761Y-213161428D01*
X55017142Y-213209047D01*
X54921904Y-213256666D01*
X54731428Y-213304285D01*
X54493333Y-213304285D01*
X54302857Y-213256666D01*
X54207619Y-213209047D01*
X54160000Y-213161428D01*
X54112380Y-213066190D01*
X55112380Y-212304285D02*
X54112380Y-212304285D01*
X54731428Y-212209047D02*
X55112380Y-211923333D01*
X54445714Y-211923333D02*
X54826666Y-212304285D01*
X55923333Y-211492380D02*
X55590000Y-211016190D01*
X55351904Y-211492380D02*
X55351904Y-210492380D01*
X55732857Y-210492380D01*
X55828095Y-210540000D01*
X55875714Y-210587619D01*
X55923333Y-210682857D01*
X55923333Y-210825714D01*
X55875714Y-210920952D01*
X55828095Y-210968571D01*
X55732857Y-211016190D01*
X55351904Y-211016190D01*
X56828095Y-210492380D02*
X56351904Y-210492380D01*
X56304285Y-210968571D01*
X56351904Y-210920952D01*
X56447142Y-210873333D01*
X56685238Y-210873333D01*
X56780476Y-210920952D01*
X56828095Y-210968571D01*
X56875714Y-211063809D01*
X56875714Y-211301904D01*
X56828095Y-211397142D01*
X56780476Y-211444761D01*
X56685238Y-211492380D01*
X56447142Y-211492380D01*
X56351904Y-211444761D01*
X56304285Y-211397142D01*
X55642380Y-207065714D02*
X55642380Y-206446666D01*
X56023333Y-206780000D01*
X56023333Y-206637142D01*
X56070952Y-206541904D01*
X56118571Y-206494285D01*
X56213809Y-206446666D01*
X56451904Y-206446666D01*
X56547142Y-206494285D01*
X56594761Y-206541904D01*
X56642380Y-206637142D01*
X56642380Y-206922857D01*
X56594761Y-207018095D01*
X56547142Y-207065714D01*
X56642380Y-205970476D02*
X56642380Y-205780000D01*
X56594761Y-205684761D01*
X56547142Y-205637142D01*
X56404285Y-205541904D01*
X56213809Y-205494285D01*
X55832857Y-205494285D01*
X55737619Y-205541904D01*
X55690000Y-205589523D01*
X55642380Y-205684761D01*
X55642380Y-205875238D01*
X55690000Y-205970476D01*
X55737619Y-206018095D01*
X55832857Y-206065714D01*
X56070952Y-206065714D01*
X56166190Y-206018095D01*
X56213809Y-205970476D01*
X56261428Y-205875238D01*
X56261428Y-205684761D01*
X56213809Y-205589523D01*
X56166190Y-205541904D01*
X56070952Y-205494285D01*
X55642380Y-204875238D02*
X55642380Y-204780000D01*
X55690000Y-204684761D01*
X55737619Y-204637142D01*
X55832857Y-204589523D01*
X56023333Y-204541904D01*
X56261428Y-204541904D01*
X56451904Y-204589523D01*
X56547142Y-204637142D01*
X56594761Y-204684761D01*
X56642380Y-204780000D01*
X56642380Y-204875238D01*
X56594761Y-204970476D01*
X56547142Y-205018095D01*
X56451904Y-205065714D01*
X56261428Y-205113333D01*
X56023333Y-205113333D01*
X55832857Y-205065714D01*
X55737619Y-205018095D01*
X55690000Y-204970476D01*
X55642380Y-204875238D01*
X46868095Y-215872380D02*
X46868095Y-216681904D01*
X46915714Y-216777142D01*
X46963333Y-216824761D01*
X47058571Y-216872380D01*
X47249047Y-216872380D01*
X47344285Y-216824761D01*
X47391904Y-216777142D01*
X47439523Y-216681904D01*
X47439523Y-215872380D01*
X48439523Y-216872380D02*
X47868095Y-216872380D01*
X48153809Y-216872380D02*
X48153809Y-215872380D01*
X48058571Y-216015238D01*
X47963333Y-216110476D01*
X47868095Y-216158095D01*
X46059523Y-218272380D02*
X45583333Y-218272380D01*
X45583333Y-217272380D01*
X46392857Y-218272380D02*
X46392857Y-217272380D01*
X46726190Y-217986666D01*
X47059523Y-217272380D01*
X47059523Y-218272380D01*
X48011904Y-217272380D02*
X47535714Y-217272380D01*
X47488095Y-217748571D01*
X47535714Y-217700952D01*
X47630952Y-217653333D01*
X47869047Y-217653333D01*
X47964285Y-217700952D01*
X48011904Y-217748571D01*
X48059523Y-217843809D01*
X48059523Y-218081904D01*
X48011904Y-218177142D01*
X47964285Y-218224761D01*
X47869047Y-218272380D01*
X47630952Y-218272380D01*
X47535714Y-218224761D01*
X47488095Y-218177142D01*
X48964285Y-217272380D02*
X48488095Y-217272380D01*
X48440476Y-217748571D01*
X48488095Y-217700952D01*
X48583333Y-217653333D01*
X48821428Y-217653333D01*
X48916666Y-217700952D01*
X48964285Y-217748571D01*
X49011904Y-217843809D01*
X49011904Y-218081904D01*
X48964285Y-218177142D01*
X48916666Y-218224761D01*
X48821428Y-218272380D01*
X48583333Y-218272380D01*
X48488095Y-218224761D01*
X48440476Y-218177142D01*
X49916666Y-217272380D02*
X49440476Y-217272380D01*
X49392857Y-217748571D01*
X49440476Y-217700952D01*
X49535714Y-217653333D01*
X49773809Y-217653333D01*
X49869047Y-217700952D01*
X49916666Y-217748571D01*
X49964285Y-217843809D01*
X49964285Y-218081904D01*
X49916666Y-218177142D01*
X49869047Y-218224761D01*
X49773809Y-218272380D01*
X49535714Y-218272380D01*
X49440476Y-218224761D01*
X49392857Y-218177142D01*
X60936666Y-124949761D02*
X61079523Y-124997380D01*
X61317619Y-124997380D01*
X61412857Y-124949761D01*
X61460476Y-124902142D01*
X61508095Y-124806904D01*
X61508095Y-124711666D01*
X61460476Y-124616428D01*
X61412857Y-124568809D01*
X61317619Y-124521190D01*
X61127142Y-124473571D01*
X61031904Y-124425952D01*
X60984285Y-124378333D01*
X60936666Y-124283095D01*
X60936666Y-124187857D01*
X60984285Y-124092619D01*
X61031904Y-124045000D01*
X61127142Y-123997380D01*
X61365238Y-123997380D01*
X61508095Y-124045000D01*
X61841428Y-123997380D02*
X62079523Y-124997380D01*
X62270000Y-124283095D01*
X62460476Y-124997380D01*
X62698571Y-123997380D01*
X63603333Y-124997380D02*
X63031904Y-124997380D01*
X63317619Y-124997380D02*
X63317619Y-123997380D01*
X63222380Y-124140238D01*
X63127142Y-124235476D01*
X63031904Y-124283095D01*
X99326666Y-124949761D02*
X99469523Y-124997380D01*
X99707619Y-124997380D01*
X99802857Y-124949761D01*
X99850476Y-124902142D01*
X99898095Y-124806904D01*
X99898095Y-124711666D01*
X99850476Y-124616428D01*
X99802857Y-124568809D01*
X99707619Y-124521190D01*
X99517142Y-124473571D01*
X99421904Y-124425952D01*
X99374285Y-124378333D01*
X99326666Y-124283095D01*
X99326666Y-124187857D01*
X99374285Y-124092619D01*
X99421904Y-124045000D01*
X99517142Y-123997380D01*
X99755238Y-123997380D01*
X99898095Y-124045000D01*
X100231428Y-123997380D02*
X100469523Y-124997380D01*
X100660000Y-124283095D01*
X100850476Y-124997380D01*
X101088571Y-123997380D01*
X101421904Y-124092619D02*
X101469523Y-124045000D01*
X101564761Y-123997380D01*
X101802857Y-123997380D01*
X101898095Y-124045000D01*
X101945714Y-124092619D01*
X101993333Y-124187857D01*
X101993333Y-124283095D01*
X101945714Y-124425952D01*
X101374285Y-124997380D01*
X101993333Y-124997380D01*
X137686666Y-124949761D02*
X137829523Y-124997380D01*
X138067619Y-124997380D01*
X138162857Y-124949761D01*
X138210476Y-124902142D01*
X138258095Y-124806904D01*
X138258095Y-124711666D01*
X138210476Y-124616428D01*
X138162857Y-124568809D01*
X138067619Y-124521190D01*
X137877142Y-124473571D01*
X137781904Y-124425952D01*
X137734285Y-124378333D01*
X137686666Y-124283095D01*
X137686666Y-124187857D01*
X137734285Y-124092619D01*
X137781904Y-124045000D01*
X137877142Y-123997380D01*
X138115238Y-123997380D01*
X138258095Y-124045000D01*
X138591428Y-123997380D02*
X138829523Y-124997380D01*
X139020000Y-124283095D01*
X139210476Y-124997380D01*
X139448571Y-123997380D01*
X139734285Y-123997380D02*
X140353333Y-123997380D01*
X140020000Y-124378333D01*
X140162857Y-124378333D01*
X140258095Y-124425952D01*
X140305714Y-124473571D01*
X140353333Y-124568809D01*
X140353333Y-124806904D01*
X140305714Y-124902142D01*
X140258095Y-124949761D01*
X140162857Y-124997380D01*
X139877142Y-124997380D01*
X139781904Y-124949761D01*
X139734285Y-124902142D01*
X176046666Y-124949761D02*
X176189523Y-124997380D01*
X176427619Y-124997380D01*
X176522857Y-124949761D01*
X176570476Y-124902142D01*
X176618095Y-124806904D01*
X176618095Y-124711666D01*
X176570476Y-124616428D01*
X176522857Y-124568809D01*
X176427619Y-124521190D01*
X176237142Y-124473571D01*
X176141904Y-124425952D01*
X176094285Y-124378333D01*
X176046666Y-124283095D01*
X176046666Y-124187857D01*
X176094285Y-124092619D01*
X176141904Y-124045000D01*
X176237142Y-123997380D01*
X176475238Y-123997380D01*
X176618095Y-124045000D01*
X176951428Y-123997380D02*
X177189523Y-124997380D01*
X177380000Y-124283095D01*
X177570476Y-124997380D01*
X177808571Y-123997380D01*
X178618095Y-124330714D02*
X178618095Y-124997380D01*
X178380000Y-123949761D02*
X178141904Y-124664047D01*
X178760952Y-124664047D01*
X214446666Y-124949761D02*
X214589523Y-124997380D01*
X214827619Y-124997380D01*
X214922857Y-124949761D01*
X214970476Y-124902142D01*
X215018095Y-124806904D01*
X215018095Y-124711666D01*
X214970476Y-124616428D01*
X214922857Y-124568809D01*
X214827619Y-124521190D01*
X214637142Y-124473571D01*
X214541904Y-124425952D01*
X214494285Y-124378333D01*
X214446666Y-124283095D01*
X214446666Y-124187857D01*
X214494285Y-124092619D01*
X214541904Y-124045000D01*
X214637142Y-123997380D01*
X214875238Y-123997380D01*
X215018095Y-124045000D01*
X215351428Y-123997380D02*
X215589523Y-124997380D01*
X215780000Y-124283095D01*
X215970476Y-124997380D01*
X216208571Y-123997380D01*
X217065714Y-123997380D02*
X216589523Y-123997380D01*
X216541904Y-124473571D01*
X216589523Y-124425952D01*
X216684761Y-124378333D01*
X216922857Y-124378333D01*
X217018095Y-124425952D01*
X217065714Y-124473571D01*
X217113333Y-124568809D01*
X217113333Y-124806904D01*
X217065714Y-124902142D01*
X217018095Y-124949761D01*
X216922857Y-124997380D01*
X216684761Y-124997380D01*
X216589523Y-124949761D01*
X216541904Y-124902142D01*
X252816666Y-124949761D02*
X252959523Y-124997380D01*
X253197619Y-124997380D01*
X253292857Y-124949761D01*
X253340476Y-124902142D01*
X253388095Y-124806904D01*
X253388095Y-124711666D01*
X253340476Y-124616428D01*
X253292857Y-124568809D01*
X253197619Y-124521190D01*
X253007142Y-124473571D01*
X252911904Y-124425952D01*
X252864285Y-124378333D01*
X252816666Y-124283095D01*
X252816666Y-124187857D01*
X252864285Y-124092619D01*
X252911904Y-124045000D01*
X253007142Y-123997380D01*
X253245238Y-123997380D01*
X253388095Y-124045000D01*
X253721428Y-123997380D02*
X253959523Y-124997380D01*
X254150000Y-124283095D01*
X254340476Y-124997380D01*
X254578571Y-123997380D01*
X255388095Y-123997380D02*
X255197619Y-123997380D01*
X255102380Y-124045000D01*
X255054761Y-124092619D01*
X254959523Y-124235476D01*
X254911904Y-124425952D01*
X254911904Y-124806904D01*
X254959523Y-124902142D01*
X255007142Y-124949761D01*
X255102380Y-124997380D01*
X255292857Y-124997380D01*
X255388095Y-124949761D01*
X255435714Y-124902142D01*
X255483333Y-124806904D01*
X255483333Y-124568809D01*
X255435714Y-124473571D01*
X255388095Y-124425952D01*
X255292857Y-124378333D01*
X255102380Y-124378333D01*
X255007142Y-124425952D01*
X254959523Y-124473571D01*
X254911904Y-124568809D01*
X291196666Y-124949761D02*
X291339523Y-124997380D01*
X291577619Y-124997380D01*
X291672857Y-124949761D01*
X291720476Y-124902142D01*
X291768095Y-124806904D01*
X291768095Y-124711666D01*
X291720476Y-124616428D01*
X291672857Y-124568809D01*
X291577619Y-124521190D01*
X291387142Y-124473571D01*
X291291904Y-124425952D01*
X291244285Y-124378333D01*
X291196666Y-124283095D01*
X291196666Y-124187857D01*
X291244285Y-124092619D01*
X291291904Y-124045000D01*
X291387142Y-123997380D01*
X291625238Y-123997380D01*
X291768095Y-124045000D01*
X292101428Y-123997380D02*
X292339523Y-124997380D01*
X292530000Y-124283095D01*
X292720476Y-124997380D01*
X292958571Y-123997380D01*
X293244285Y-123997380D02*
X293910952Y-123997380D01*
X293482380Y-124997380D01*
X329576666Y-124949761D02*
X329719523Y-124997380D01*
X329957619Y-124997380D01*
X330052857Y-124949761D01*
X330100476Y-124902142D01*
X330148095Y-124806904D01*
X330148095Y-124711666D01*
X330100476Y-124616428D01*
X330052857Y-124568809D01*
X329957619Y-124521190D01*
X329767142Y-124473571D01*
X329671904Y-124425952D01*
X329624285Y-124378333D01*
X329576666Y-124283095D01*
X329576666Y-124187857D01*
X329624285Y-124092619D01*
X329671904Y-124045000D01*
X329767142Y-123997380D01*
X330005238Y-123997380D01*
X330148095Y-124045000D01*
X330481428Y-123997380D02*
X330719523Y-124997380D01*
X330910000Y-124283095D01*
X331100476Y-124997380D01*
X331338571Y-123997380D01*
X331862380Y-124425952D02*
X331767142Y-124378333D01*
X331719523Y-124330714D01*
X331671904Y-124235476D01*
X331671904Y-124187857D01*
X331719523Y-124092619D01*
X331767142Y-124045000D01*
X331862380Y-123997380D01*
X332052857Y-123997380D01*
X332148095Y-124045000D01*
X332195714Y-124092619D01*
X332243333Y-124187857D01*
X332243333Y-124235476D01*
X332195714Y-124330714D01*
X332148095Y-124378333D01*
X332052857Y-124425952D01*
X331862380Y-124425952D01*
X331767142Y-124473571D01*
X331719523Y-124521190D01*
X331671904Y-124616428D01*
X331671904Y-124806904D01*
X331719523Y-124902142D01*
X331767142Y-124949761D01*
X331862380Y-124997380D01*
X332052857Y-124997380D01*
X332148095Y-124949761D01*
X332195714Y-124902142D01*
X332243333Y-124806904D01*
X332243333Y-124616428D01*
X332195714Y-124521190D01*
X332148095Y-124473571D01*
X332052857Y-124425952D01*
X41796666Y-124949761D02*
X41939523Y-124997380D01*
X42177619Y-124997380D01*
X42272857Y-124949761D01*
X42320476Y-124902142D01*
X42368095Y-124806904D01*
X42368095Y-124711666D01*
X42320476Y-124616428D01*
X42272857Y-124568809D01*
X42177619Y-124521190D01*
X41987142Y-124473571D01*
X41891904Y-124425952D01*
X41844285Y-124378333D01*
X41796666Y-124283095D01*
X41796666Y-124187857D01*
X41844285Y-124092619D01*
X41891904Y-124045000D01*
X41987142Y-123997380D01*
X42225238Y-123997380D01*
X42368095Y-124045000D01*
X42701428Y-123997380D02*
X42939523Y-124997380D01*
X43130000Y-124283095D01*
X43320476Y-124997380D01*
X43558571Y-123997380D01*
X43987142Y-124997380D02*
X44177619Y-124997380D01*
X44272857Y-124949761D01*
X44320476Y-124902142D01*
X44415714Y-124759285D01*
X44463333Y-124568809D01*
X44463333Y-124187857D01*
X44415714Y-124092619D01*
X44368095Y-124045000D01*
X44272857Y-123997380D01*
X44082380Y-123997380D01*
X43987142Y-124045000D01*
X43939523Y-124092619D01*
X43891904Y-124187857D01*
X43891904Y-124425952D01*
X43939523Y-124521190D01*
X43987142Y-124568809D01*
X44082380Y-124616428D01*
X44272857Y-124616428D01*
X44368095Y-124568809D01*
X44415714Y-124521190D01*
X44463333Y-124425952D01*
X89250476Y-144149761D02*
X89393333Y-144197380D01*
X89631428Y-144197380D01*
X89726666Y-144149761D01*
X89774285Y-144102142D01*
X89821904Y-144006904D01*
X89821904Y-143911666D01*
X89774285Y-143816428D01*
X89726666Y-143768809D01*
X89631428Y-143721190D01*
X89440952Y-143673571D01*
X89345714Y-143625952D01*
X89298095Y-143578333D01*
X89250476Y-143483095D01*
X89250476Y-143387857D01*
X89298095Y-143292619D01*
X89345714Y-143245000D01*
X89440952Y-143197380D01*
X89679047Y-143197380D01*
X89821904Y-143245000D01*
X90155238Y-143197380D02*
X90393333Y-144197380D01*
X90583809Y-143483095D01*
X90774285Y-144197380D01*
X91012380Y-143197380D01*
X91917142Y-144197380D02*
X91345714Y-144197380D01*
X91631428Y-144197380D02*
X91631428Y-143197380D01*
X91536190Y-143340238D01*
X91440952Y-143435476D01*
X91345714Y-143483095D01*
X92536190Y-143197380D02*
X92631428Y-143197380D01*
X92726666Y-143245000D01*
X92774285Y-143292619D01*
X92821904Y-143387857D01*
X92869523Y-143578333D01*
X92869523Y-143816428D01*
X92821904Y-144006904D01*
X92774285Y-144102142D01*
X92726666Y-144149761D01*
X92631428Y-144197380D01*
X92536190Y-144197380D01*
X92440952Y-144149761D01*
X92393333Y-144102142D01*
X92345714Y-144006904D01*
X92298095Y-143816428D01*
X92298095Y-143578333D01*
X92345714Y-143387857D01*
X92393333Y-143292619D01*
X92440952Y-143245000D01*
X92536190Y-143197380D01*
X127650476Y-144149761D02*
X127793333Y-144197380D01*
X128031428Y-144197380D01*
X128126666Y-144149761D01*
X128174285Y-144102142D01*
X128221904Y-144006904D01*
X128221904Y-143911666D01*
X128174285Y-143816428D01*
X128126666Y-143768809D01*
X128031428Y-143721190D01*
X127840952Y-143673571D01*
X127745714Y-143625952D01*
X127698095Y-143578333D01*
X127650476Y-143483095D01*
X127650476Y-143387857D01*
X127698095Y-143292619D01*
X127745714Y-143245000D01*
X127840952Y-143197380D01*
X128079047Y-143197380D01*
X128221904Y-143245000D01*
X128555238Y-143197380D02*
X128793333Y-144197380D01*
X128983809Y-143483095D01*
X129174285Y-144197380D01*
X129412380Y-143197380D01*
X130317142Y-144197380D02*
X129745714Y-144197380D01*
X130031428Y-144197380D02*
X130031428Y-143197380D01*
X129936190Y-143340238D01*
X129840952Y-143435476D01*
X129745714Y-143483095D01*
X131269523Y-144197380D02*
X130698095Y-144197380D01*
X130983809Y-144197380D02*
X130983809Y-143197380D01*
X130888571Y-143340238D01*
X130793333Y-143435476D01*
X130698095Y-143483095D01*
X166040476Y-144149761D02*
X166183333Y-144197380D01*
X166421428Y-144197380D01*
X166516666Y-144149761D01*
X166564285Y-144102142D01*
X166611904Y-144006904D01*
X166611904Y-143911666D01*
X166564285Y-143816428D01*
X166516666Y-143768809D01*
X166421428Y-143721190D01*
X166230952Y-143673571D01*
X166135714Y-143625952D01*
X166088095Y-143578333D01*
X166040476Y-143483095D01*
X166040476Y-143387857D01*
X166088095Y-143292619D01*
X166135714Y-143245000D01*
X166230952Y-143197380D01*
X166469047Y-143197380D01*
X166611904Y-143245000D01*
X166945238Y-143197380D02*
X167183333Y-144197380D01*
X167373809Y-143483095D01*
X167564285Y-144197380D01*
X167802380Y-143197380D01*
X168707142Y-144197380D02*
X168135714Y-144197380D01*
X168421428Y-144197380D02*
X168421428Y-143197380D01*
X168326190Y-143340238D01*
X168230952Y-143435476D01*
X168135714Y-143483095D01*
X169088095Y-143292619D02*
X169135714Y-143245000D01*
X169230952Y-143197380D01*
X169469047Y-143197380D01*
X169564285Y-143245000D01*
X169611904Y-143292619D01*
X169659523Y-143387857D01*
X169659523Y-143483095D01*
X169611904Y-143625952D01*
X169040476Y-144197380D01*
X169659523Y-144197380D01*
X204400476Y-144149761D02*
X204543333Y-144197380D01*
X204781428Y-144197380D01*
X204876666Y-144149761D01*
X204924285Y-144102142D01*
X204971904Y-144006904D01*
X204971904Y-143911666D01*
X204924285Y-143816428D01*
X204876666Y-143768809D01*
X204781428Y-143721190D01*
X204590952Y-143673571D01*
X204495714Y-143625952D01*
X204448095Y-143578333D01*
X204400476Y-143483095D01*
X204400476Y-143387857D01*
X204448095Y-143292619D01*
X204495714Y-143245000D01*
X204590952Y-143197380D01*
X204829047Y-143197380D01*
X204971904Y-143245000D01*
X205305238Y-143197380D02*
X205543333Y-144197380D01*
X205733809Y-143483095D01*
X205924285Y-144197380D01*
X206162380Y-143197380D01*
X207067142Y-144197380D02*
X206495714Y-144197380D01*
X206781428Y-144197380D02*
X206781428Y-143197380D01*
X206686190Y-143340238D01*
X206590952Y-143435476D01*
X206495714Y-143483095D01*
X207400476Y-143197380D02*
X208019523Y-143197380D01*
X207686190Y-143578333D01*
X207829047Y-143578333D01*
X207924285Y-143625952D01*
X207971904Y-143673571D01*
X208019523Y-143768809D01*
X208019523Y-144006904D01*
X207971904Y-144102142D01*
X207924285Y-144149761D01*
X207829047Y-144197380D01*
X207543333Y-144197380D01*
X207448095Y-144149761D01*
X207400476Y-144102142D01*
X242810476Y-144149761D02*
X242953333Y-144197380D01*
X243191428Y-144197380D01*
X243286666Y-144149761D01*
X243334285Y-144102142D01*
X243381904Y-144006904D01*
X243381904Y-143911666D01*
X243334285Y-143816428D01*
X243286666Y-143768809D01*
X243191428Y-143721190D01*
X243000952Y-143673571D01*
X242905714Y-143625952D01*
X242858095Y-143578333D01*
X242810476Y-143483095D01*
X242810476Y-143387857D01*
X242858095Y-143292619D01*
X242905714Y-143245000D01*
X243000952Y-143197380D01*
X243239047Y-143197380D01*
X243381904Y-143245000D01*
X243715238Y-143197380D02*
X243953333Y-144197380D01*
X244143809Y-143483095D01*
X244334285Y-144197380D01*
X244572380Y-143197380D01*
X245477142Y-144197380D02*
X244905714Y-144197380D01*
X245191428Y-144197380D02*
X245191428Y-143197380D01*
X245096190Y-143340238D01*
X245000952Y-143435476D01*
X244905714Y-143483095D01*
X246334285Y-143530714D02*
X246334285Y-144197380D01*
X246096190Y-143149761D02*
X245858095Y-143864047D01*
X246477142Y-143864047D01*
X281220476Y-144159761D02*
X281363333Y-144207380D01*
X281601428Y-144207380D01*
X281696666Y-144159761D01*
X281744285Y-144112142D01*
X281791904Y-144016904D01*
X281791904Y-143921666D01*
X281744285Y-143826428D01*
X281696666Y-143778809D01*
X281601428Y-143731190D01*
X281410952Y-143683571D01*
X281315714Y-143635952D01*
X281268095Y-143588333D01*
X281220476Y-143493095D01*
X281220476Y-143397857D01*
X281268095Y-143302619D01*
X281315714Y-143255000D01*
X281410952Y-143207380D01*
X281649047Y-143207380D01*
X281791904Y-143255000D01*
X282125238Y-143207380D02*
X282363333Y-144207380D01*
X282553809Y-143493095D01*
X282744285Y-144207380D01*
X282982380Y-143207380D01*
X283887142Y-144207380D02*
X283315714Y-144207380D01*
X283601428Y-144207380D02*
X283601428Y-143207380D01*
X283506190Y-143350238D01*
X283410952Y-143445476D01*
X283315714Y-143493095D01*
X284791904Y-143207380D02*
X284315714Y-143207380D01*
X284268095Y-143683571D01*
X284315714Y-143635952D01*
X284410952Y-143588333D01*
X284649047Y-143588333D01*
X284744285Y-143635952D01*
X284791904Y-143683571D01*
X284839523Y-143778809D01*
X284839523Y-144016904D01*
X284791904Y-144112142D01*
X284744285Y-144159761D01*
X284649047Y-144207380D01*
X284410952Y-144207380D01*
X284315714Y-144159761D01*
X284268095Y-144112142D01*
X315680476Y-163309761D02*
X315823333Y-163357380D01*
X316061428Y-163357380D01*
X316156666Y-163309761D01*
X316204285Y-163262142D01*
X316251904Y-163166904D01*
X316251904Y-163071666D01*
X316204285Y-162976428D01*
X316156666Y-162928809D01*
X316061428Y-162881190D01*
X315870952Y-162833571D01*
X315775714Y-162785952D01*
X315728095Y-162738333D01*
X315680476Y-162643095D01*
X315680476Y-162547857D01*
X315728095Y-162452619D01*
X315775714Y-162405000D01*
X315870952Y-162357380D01*
X316109047Y-162357380D01*
X316251904Y-162405000D01*
X316585238Y-162357380D02*
X316823333Y-163357380D01*
X317013809Y-162643095D01*
X317204285Y-163357380D01*
X317442380Y-162357380D01*
X318347142Y-163357380D02*
X317775714Y-163357380D01*
X318061428Y-163357380D02*
X318061428Y-162357380D01*
X317966190Y-162500238D01*
X317870952Y-162595476D01*
X317775714Y-162643095D01*
X319204285Y-162357380D02*
X319013809Y-162357380D01*
X318918571Y-162405000D01*
X318870952Y-162452619D01*
X318775714Y-162595476D01*
X318728095Y-162785952D01*
X318728095Y-163166904D01*
X318775714Y-163262142D01*
X318823333Y-163309761D01*
X318918571Y-163357380D01*
X319109047Y-163357380D01*
X319204285Y-163309761D01*
X319251904Y-163262142D01*
X319299523Y-163166904D01*
X319299523Y-162928809D01*
X319251904Y-162833571D01*
X319204285Y-162785952D01*
X319109047Y-162738333D01*
X318918571Y-162738333D01*
X318823333Y-162785952D01*
X318775714Y-162833571D01*
X318728095Y-162928809D01*
X46090476Y-144149761D02*
X46233333Y-144197380D01*
X46471428Y-144197380D01*
X46566666Y-144149761D01*
X46614285Y-144102142D01*
X46661904Y-144006904D01*
X46661904Y-143911666D01*
X46614285Y-143816428D01*
X46566666Y-143768809D01*
X46471428Y-143721190D01*
X46280952Y-143673571D01*
X46185714Y-143625952D01*
X46138095Y-143578333D01*
X46090476Y-143483095D01*
X46090476Y-143387857D01*
X46138095Y-143292619D01*
X46185714Y-143245000D01*
X46280952Y-143197380D01*
X46519047Y-143197380D01*
X46661904Y-143245000D01*
X46995238Y-143197380D02*
X47233333Y-144197380D01*
X47423809Y-143483095D01*
X47614285Y-144197380D01*
X47852380Y-143197380D01*
X48757142Y-144197380D02*
X48185714Y-144197380D01*
X48471428Y-144197380D02*
X48471428Y-143197380D01*
X48376190Y-143340238D01*
X48280952Y-143435476D01*
X48185714Y-143483095D01*
X49090476Y-143197380D02*
X49757142Y-143197380D01*
X49328571Y-144197380D01*
X75920476Y-163329761D02*
X76063333Y-163377380D01*
X76301428Y-163377380D01*
X76396666Y-163329761D01*
X76444285Y-163282142D01*
X76491904Y-163186904D01*
X76491904Y-163091666D01*
X76444285Y-162996428D01*
X76396666Y-162948809D01*
X76301428Y-162901190D01*
X76110952Y-162853571D01*
X76015714Y-162805952D01*
X75968095Y-162758333D01*
X75920476Y-162663095D01*
X75920476Y-162567857D01*
X75968095Y-162472619D01*
X76015714Y-162425000D01*
X76110952Y-162377380D01*
X76349047Y-162377380D01*
X76491904Y-162425000D01*
X76825238Y-162377380D02*
X77063333Y-163377380D01*
X77253809Y-162663095D01*
X77444285Y-163377380D01*
X77682380Y-162377380D01*
X78587142Y-163377380D02*
X78015714Y-163377380D01*
X78301428Y-163377380D02*
X78301428Y-162377380D01*
X78206190Y-162520238D01*
X78110952Y-162615476D01*
X78015714Y-162663095D01*
X79158571Y-162805952D02*
X79063333Y-162758333D01*
X79015714Y-162710714D01*
X78968095Y-162615476D01*
X78968095Y-162567857D01*
X79015714Y-162472619D01*
X79063333Y-162425000D01*
X79158571Y-162377380D01*
X79349047Y-162377380D01*
X79444285Y-162425000D01*
X79491904Y-162472619D01*
X79539523Y-162567857D01*
X79539523Y-162615476D01*
X79491904Y-162710714D01*
X79444285Y-162758333D01*
X79349047Y-162805952D01*
X79158571Y-162805952D01*
X79063333Y-162853571D01*
X79015714Y-162901190D01*
X78968095Y-162996428D01*
X78968095Y-163186904D01*
X79015714Y-163282142D01*
X79063333Y-163329761D01*
X79158571Y-163377380D01*
X79349047Y-163377380D01*
X79444285Y-163329761D01*
X79491904Y-163282142D01*
X79539523Y-163186904D01*
X79539523Y-162996428D01*
X79491904Y-162901190D01*
X79444285Y-162853571D01*
X79349047Y-162805952D01*
X114280476Y-163309761D02*
X114423333Y-163357380D01*
X114661428Y-163357380D01*
X114756666Y-163309761D01*
X114804285Y-163262142D01*
X114851904Y-163166904D01*
X114851904Y-163071666D01*
X114804285Y-162976428D01*
X114756666Y-162928809D01*
X114661428Y-162881190D01*
X114470952Y-162833571D01*
X114375714Y-162785952D01*
X114328095Y-162738333D01*
X114280476Y-162643095D01*
X114280476Y-162547857D01*
X114328095Y-162452619D01*
X114375714Y-162405000D01*
X114470952Y-162357380D01*
X114709047Y-162357380D01*
X114851904Y-162405000D01*
X115185238Y-162357380D02*
X115423333Y-163357380D01*
X115613809Y-162643095D01*
X115804285Y-163357380D01*
X116042380Y-162357380D01*
X116947142Y-163357380D02*
X116375714Y-163357380D01*
X116661428Y-163357380D02*
X116661428Y-162357380D01*
X116566190Y-162500238D01*
X116470952Y-162595476D01*
X116375714Y-162643095D01*
X117423333Y-163357380D02*
X117613809Y-163357380D01*
X117709047Y-163309761D01*
X117756666Y-163262142D01*
X117851904Y-163119285D01*
X117899523Y-162928809D01*
X117899523Y-162547857D01*
X117851904Y-162452619D01*
X117804285Y-162405000D01*
X117709047Y-162357380D01*
X117518571Y-162357380D01*
X117423333Y-162405000D01*
X117375714Y-162452619D01*
X117328095Y-162547857D01*
X117328095Y-162785952D01*
X117375714Y-162881190D01*
X117423333Y-162928809D01*
X117518571Y-162976428D01*
X117709047Y-162976428D01*
X117804285Y-162928809D01*
X117851904Y-162881190D01*
X117899523Y-162785952D01*
X152670476Y-163309761D02*
X152813333Y-163357380D01*
X153051428Y-163357380D01*
X153146666Y-163309761D01*
X153194285Y-163262142D01*
X153241904Y-163166904D01*
X153241904Y-163071666D01*
X153194285Y-162976428D01*
X153146666Y-162928809D01*
X153051428Y-162881190D01*
X152860952Y-162833571D01*
X152765714Y-162785952D01*
X152718095Y-162738333D01*
X152670476Y-162643095D01*
X152670476Y-162547857D01*
X152718095Y-162452619D01*
X152765714Y-162405000D01*
X152860952Y-162357380D01*
X153099047Y-162357380D01*
X153241904Y-162405000D01*
X153575238Y-162357380D02*
X153813333Y-163357380D01*
X154003809Y-162643095D01*
X154194285Y-163357380D01*
X154432380Y-162357380D01*
X154765714Y-162452619D02*
X154813333Y-162405000D01*
X154908571Y-162357380D01*
X155146666Y-162357380D01*
X155241904Y-162405000D01*
X155289523Y-162452619D01*
X155337142Y-162547857D01*
X155337142Y-162643095D01*
X155289523Y-162785952D01*
X154718095Y-163357380D01*
X155337142Y-163357380D01*
X155956190Y-162357380D02*
X156051428Y-162357380D01*
X156146666Y-162405000D01*
X156194285Y-162452619D01*
X156241904Y-162547857D01*
X156289523Y-162738333D01*
X156289523Y-162976428D01*
X156241904Y-163166904D01*
X156194285Y-163262142D01*
X156146666Y-163309761D01*
X156051428Y-163357380D01*
X155956190Y-163357380D01*
X155860952Y-163309761D01*
X155813333Y-163262142D01*
X155765714Y-163166904D01*
X155718095Y-162976428D01*
X155718095Y-162738333D01*
X155765714Y-162547857D01*
X155813333Y-162452619D01*
X155860952Y-162405000D01*
X155956190Y-162357380D01*
X191050476Y-163309761D02*
X191193333Y-163357380D01*
X191431428Y-163357380D01*
X191526666Y-163309761D01*
X191574285Y-163262142D01*
X191621904Y-163166904D01*
X191621904Y-163071666D01*
X191574285Y-162976428D01*
X191526666Y-162928809D01*
X191431428Y-162881190D01*
X191240952Y-162833571D01*
X191145714Y-162785952D01*
X191098095Y-162738333D01*
X191050476Y-162643095D01*
X191050476Y-162547857D01*
X191098095Y-162452619D01*
X191145714Y-162405000D01*
X191240952Y-162357380D01*
X191479047Y-162357380D01*
X191621904Y-162405000D01*
X191955238Y-162357380D02*
X192193333Y-163357380D01*
X192383809Y-162643095D01*
X192574285Y-163357380D01*
X192812380Y-162357380D01*
X193145714Y-162452619D02*
X193193333Y-162405000D01*
X193288571Y-162357380D01*
X193526666Y-162357380D01*
X193621904Y-162405000D01*
X193669523Y-162452619D01*
X193717142Y-162547857D01*
X193717142Y-162643095D01*
X193669523Y-162785952D01*
X193098095Y-163357380D01*
X193717142Y-163357380D01*
X194669523Y-163357380D02*
X194098095Y-163357380D01*
X194383809Y-163357380D02*
X194383809Y-162357380D01*
X194288571Y-162500238D01*
X194193333Y-162595476D01*
X194098095Y-162643095D01*
X229420476Y-163309761D02*
X229563333Y-163357380D01*
X229801428Y-163357380D01*
X229896666Y-163309761D01*
X229944285Y-163262142D01*
X229991904Y-163166904D01*
X229991904Y-163071666D01*
X229944285Y-162976428D01*
X229896666Y-162928809D01*
X229801428Y-162881190D01*
X229610952Y-162833571D01*
X229515714Y-162785952D01*
X229468095Y-162738333D01*
X229420476Y-162643095D01*
X229420476Y-162547857D01*
X229468095Y-162452619D01*
X229515714Y-162405000D01*
X229610952Y-162357380D01*
X229849047Y-162357380D01*
X229991904Y-162405000D01*
X230325238Y-162357380D02*
X230563333Y-163357380D01*
X230753809Y-162643095D01*
X230944285Y-163357380D01*
X231182380Y-162357380D01*
X231515714Y-162452619D02*
X231563333Y-162405000D01*
X231658571Y-162357380D01*
X231896666Y-162357380D01*
X231991904Y-162405000D01*
X232039523Y-162452619D01*
X232087142Y-162547857D01*
X232087142Y-162643095D01*
X232039523Y-162785952D01*
X231468095Y-163357380D01*
X232087142Y-163357380D01*
X232468095Y-162452619D02*
X232515714Y-162405000D01*
X232610952Y-162357380D01*
X232849047Y-162357380D01*
X232944285Y-162405000D01*
X232991904Y-162452619D01*
X233039523Y-162547857D01*
X233039523Y-162643095D01*
X232991904Y-162785952D01*
X232420476Y-163357380D01*
X233039523Y-163357380D01*
X267780476Y-163309761D02*
X267923333Y-163357380D01*
X268161428Y-163357380D01*
X268256666Y-163309761D01*
X268304285Y-163262142D01*
X268351904Y-163166904D01*
X268351904Y-163071666D01*
X268304285Y-162976428D01*
X268256666Y-162928809D01*
X268161428Y-162881190D01*
X267970952Y-162833571D01*
X267875714Y-162785952D01*
X267828095Y-162738333D01*
X267780476Y-162643095D01*
X267780476Y-162547857D01*
X267828095Y-162452619D01*
X267875714Y-162405000D01*
X267970952Y-162357380D01*
X268209047Y-162357380D01*
X268351904Y-162405000D01*
X268685238Y-162357380D02*
X268923333Y-163357380D01*
X269113809Y-162643095D01*
X269304285Y-163357380D01*
X269542380Y-162357380D01*
X269875714Y-162452619D02*
X269923333Y-162405000D01*
X270018571Y-162357380D01*
X270256666Y-162357380D01*
X270351904Y-162405000D01*
X270399523Y-162452619D01*
X270447142Y-162547857D01*
X270447142Y-162643095D01*
X270399523Y-162785952D01*
X269828095Y-163357380D01*
X270447142Y-163357380D01*
X270780476Y-162357380D02*
X271399523Y-162357380D01*
X271066190Y-162738333D01*
X271209047Y-162738333D01*
X271304285Y-162785952D01*
X271351904Y-162833571D01*
X271399523Y-162928809D01*
X271399523Y-163166904D01*
X271351904Y-163262142D01*
X271304285Y-163309761D01*
X271209047Y-163357380D01*
X270923333Y-163357380D01*
X270828095Y-163309761D01*
X270780476Y-163262142D01*
X325300476Y-182519761D02*
X325443333Y-182567380D01*
X325681428Y-182567380D01*
X325776666Y-182519761D01*
X325824285Y-182472142D01*
X325871904Y-182376904D01*
X325871904Y-182281666D01*
X325824285Y-182186428D01*
X325776666Y-182138809D01*
X325681428Y-182091190D01*
X325490952Y-182043571D01*
X325395714Y-181995952D01*
X325348095Y-181948333D01*
X325300476Y-181853095D01*
X325300476Y-181757857D01*
X325348095Y-181662619D01*
X325395714Y-181615000D01*
X325490952Y-181567380D01*
X325729047Y-181567380D01*
X325871904Y-181615000D01*
X326205238Y-181567380D02*
X326443333Y-182567380D01*
X326633809Y-181853095D01*
X326824285Y-182567380D01*
X327062380Y-181567380D01*
X327395714Y-181662619D02*
X327443333Y-181615000D01*
X327538571Y-181567380D01*
X327776666Y-181567380D01*
X327871904Y-181615000D01*
X327919523Y-181662619D01*
X327967142Y-181757857D01*
X327967142Y-181853095D01*
X327919523Y-181995952D01*
X327348095Y-182567380D01*
X327967142Y-182567380D01*
X328824285Y-181900714D02*
X328824285Y-182567380D01*
X328586190Y-181519761D02*
X328348095Y-182234047D01*
X328967142Y-182234047D01*
X37520476Y-163329761D02*
X37663333Y-163377380D01*
X37901428Y-163377380D01*
X37996666Y-163329761D01*
X38044285Y-163282142D01*
X38091904Y-163186904D01*
X38091904Y-163091666D01*
X38044285Y-162996428D01*
X37996666Y-162948809D01*
X37901428Y-162901190D01*
X37710952Y-162853571D01*
X37615714Y-162805952D01*
X37568095Y-162758333D01*
X37520476Y-162663095D01*
X37520476Y-162567857D01*
X37568095Y-162472619D01*
X37615714Y-162425000D01*
X37710952Y-162377380D01*
X37949047Y-162377380D01*
X38091904Y-162425000D01*
X38425238Y-162377380D02*
X38663333Y-163377380D01*
X38853809Y-162663095D01*
X39044285Y-163377380D01*
X39282380Y-162377380D01*
X39615714Y-162472619D02*
X39663333Y-162425000D01*
X39758571Y-162377380D01*
X39996666Y-162377380D01*
X40091904Y-162425000D01*
X40139523Y-162472619D01*
X40187142Y-162567857D01*
X40187142Y-162663095D01*
X40139523Y-162805952D01*
X39568095Y-163377380D01*
X40187142Y-163377380D01*
X41091904Y-162377380D02*
X40615714Y-162377380D01*
X40568095Y-162853571D01*
X40615714Y-162805952D01*
X40710952Y-162758333D01*
X40949047Y-162758333D01*
X41044285Y-162805952D01*
X41091904Y-162853571D01*
X41139523Y-162948809D01*
X41139523Y-163186904D01*
X41091904Y-163282142D01*
X41044285Y-163329761D01*
X40949047Y-163377380D01*
X40710952Y-163377380D01*
X40615714Y-163329761D01*
X40568095Y-163282142D01*
X61460476Y-182519761D02*
X61603333Y-182567380D01*
X61841428Y-182567380D01*
X61936666Y-182519761D01*
X61984285Y-182472142D01*
X62031904Y-182376904D01*
X62031904Y-182281666D01*
X61984285Y-182186428D01*
X61936666Y-182138809D01*
X61841428Y-182091190D01*
X61650952Y-182043571D01*
X61555714Y-181995952D01*
X61508095Y-181948333D01*
X61460476Y-181853095D01*
X61460476Y-181757857D01*
X61508095Y-181662619D01*
X61555714Y-181615000D01*
X61650952Y-181567380D01*
X61889047Y-181567380D01*
X62031904Y-181615000D01*
X62365238Y-181567380D02*
X62603333Y-182567380D01*
X62793809Y-181853095D01*
X62984285Y-182567380D01*
X63222380Y-181567380D01*
X63555714Y-181662619D02*
X63603333Y-181615000D01*
X63698571Y-181567380D01*
X63936666Y-181567380D01*
X64031904Y-181615000D01*
X64079523Y-181662619D01*
X64127142Y-181757857D01*
X64127142Y-181853095D01*
X64079523Y-181995952D01*
X63508095Y-182567380D01*
X64127142Y-182567380D01*
X64984285Y-181567380D02*
X64793809Y-181567380D01*
X64698571Y-181615000D01*
X64650952Y-181662619D01*
X64555714Y-181805476D01*
X64508095Y-181995952D01*
X64508095Y-182376904D01*
X64555714Y-182472142D01*
X64603333Y-182519761D01*
X64698571Y-182567380D01*
X64889047Y-182567380D01*
X64984285Y-182519761D01*
X65031904Y-182472142D01*
X65079523Y-182376904D01*
X65079523Y-182138809D01*
X65031904Y-182043571D01*
X64984285Y-181995952D01*
X64889047Y-181948333D01*
X64698571Y-181948333D01*
X64603333Y-181995952D01*
X64555714Y-182043571D01*
X64508095Y-182138809D01*
X104620476Y-182519761D02*
X104763333Y-182567380D01*
X105001428Y-182567380D01*
X105096666Y-182519761D01*
X105144285Y-182472142D01*
X105191904Y-182376904D01*
X105191904Y-182281666D01*
X105144285Y-182186428D01*
X105096666Y-182138809D01*
X105001428Y-182091190D01*
X104810952Y-182043571D01*
X104715714Y-181995952D01*
X104668095Y-181948333D01*
X104620476Y-181853095D01*
X104620476Y-181757857D01*
X104668095Y-181662619D01*
X104715714Y-181615000D01*
X104810952Y-181567380D01*
X105049047Y-181567380D01*
X105191904Y-181615000D01*
X105525238Y-181567380D02*
X105763333Y-182567380D01*
X105953809Y-181853095D01*
X106144285Y-182567380D01*
X106382380Y-181567380D01*
X106715714Y-181662619D02*
X106763333Y-181615000D01*
X106858571Y-181567380D01*
X107096666Y-181567380D01*
X107191904Y-181615000D01*
X107239523Y-181662619D01*
X107287142Y-181757857D01*
X107287142Y-181853095D01*
X107239523Y-181995952D01*
X106668095Y-182567380D01*
X107287142Y-182567380D01*
X107620476Y-181567380D02*
X108287142Y-181567380D01*
X107858571Y-182567380D01*
X143030476Y-182519761D02*
X143173333Y-182567380D01*
X143411428Y-182567380D01*
X143506666Y-182519761D01*
X143554285Y-182472142D01*
X143601904Y-182376904D01*
X143601904Y-182281666D01*
X143554285Y-182186428D01*
X143506666Y-182138809D01*
X143411428Y-182091190D01*
X143220952Y-182043571D01*
X143125714Y-181995952D01*
X143078095Y-181948333D01*
X143030476Y-181853095D01*
X143030476Y-181757857D01*
X143078095Y-181662619D01*
X143125714Y-181615000D01*
X143220952Y-181567380D01*
X143459047Y-181567380D01*
X143601904Y-181615000D01*
X143935238Y-181567380D02*
X144173333Y-182567380D01*
X144363809Y-181853095D01*
X144554285Y-182567380D01*
X144792380Y-181567380D01*
X145125714Y-181662619D02*
X145173333Y-181615000D01*
X145268571Y-181567380D01*
X145506666Y-181567380D01*
X145601904Y-181615000D01*
X145649523Y-181662619D01*
X145697142Y-181757857D01*
X145697142Y-181853095D01*
X145649523Y-181995952D01*
X145078095Y-182567380D01*
X145697142Y-182567380D01*
X146268571Y-181995952D02*
X146173333Y-181948333D01*
X146125714Y-181900714D01*
X146078095Y-181805476D01*
X146078095Y-181757857D01*
X146125714Y-181662619D01*
X146173333Y-181615000D01*
X146268571Y-181567380D01*
X146459047Y-181567380D01*
X146554285Y-181615000D01*
X146601904Y-181662619D01*
X146649523Y-181757857D01*
X146649523Y-181805476D01*
X146601904Y-181900714D01*
X146554285Y-181948333D01*
X146459047Y-181995952D01*
X146268571Y-181995952D01*
X146173333Y-182043571D01*
X146125714Y-182091190D01*
X146078095Y-182186428D01*
X146078095Y-182376904D01*
X146125714Y-182472142D01*
X146173333Y-182519761D01*
X146268571Y-182567380D01*
X146459047Y-182567380D01*
X146554285Y-182519761D01*
X146601904Y-182472142D01*
X146649523Y-182376904D01*
X146649523Y-182186428D01*
X146601904Y-182091190D01*
X146554285Y-182043571D01*
X146459047Y-181995952D01*
X181430476Y-182519761D02*
X181573333Y-182567380D01*
X181811428Y-182567380D01*
X181906666Y-182519761D01*
X181954285Y-182472142D01*
X182001904Y-182376904D01*
X182001904Y-182281666D01*
X181954285Y-182186428D01*
X181906666Y-182138809D01*
X181811428Y-182091190D01*
X181620952Y-182043571D01*
X181525714Y-181995952D01*
X181478095Y-181948333D01*
X181430476Y-181853095D01*
X181430476Y-181757857D01*
X181478095Y-181662619D01*
X181525714Y-181615000D01*
X181620952Y-181567380D01*
X181859047Y-181567380D01*
X182001904Y-181615000D01*
X182335238Y-181567380D02*
X182573333Y-182567380D01*
X182763809Y-181853095D01*
X182954285Y-182567380D01*
X183192380Y-181567380D01*
X183525714Y-181662619D02*
X183573333Y-181615000D01*
X183668571Y-181567380D01*
X183906666Y-181567380D01*
X184001904Y-181615000D01*
X184049523Y-181662619D01*
X184097142Y-181757857D01*
X184097142Y-181853095D01*
X184049523Y-181995952D01*
X183478095Y-182567380D01*
X184097142Y-182567380D01*
X184573333Y-182567380D02*
X184763809Y-182567380D01*
X184859047Y-182519761D01*
X184906666Y-182472142D01*
X185001904Y-182329285D01*
X185049523Y-182138809D01*
X185049523Y-181757857D01*
X185001904Y-181662619D01*
X184954285Y-181615000D01*
X184859047Y-181567380D01*
X184668571Y-181567380D01*
X184573333Y-181615000D01*
X184525714Y-181662619D01*
X184478095Y-181757857D01*
X184478095Y-181995952D01*
X184525714Y-182091190D01*
X184573333Y-182138809D01*
X184668571Y-182186428D01*
X184859047Y-182186428D01*
X184954285Y-182138809D01*
X185001904Y-182091190D01*
X185049523Y-181995952D01*
X219830476Y-182519761D02*
X219973333Y-182567380D01*
X220211428Y-182567380D01*
X220306666Y-182519761D01*
X220354285Y-182472142D01*
X220401904Y-182376904D01*
X220401904Y-182281666D01*
X220354285Y-182186428D01*
X220306666Y-182138809D01*
X220211428Y-182091190D01*
X220020952Y-182043571D01*
X219925714Y-181995952D01*
X219878095Y-181948333D01*
X219830476Y-181853095D01*
X219830476Y-181757857D01*
X219878095Y-181662619D01*
X219925714Y-181615000D01*
X220020952Y-181567380D01*
X220259047Y-181567380D01*
X220401904Y-181615000D01*
X220735238Y-181567380D02*
X220973333Y-182567380D01*
X221163809Y-181853095D01*
X221354285Y-182567380D01*
X221592380Y-181567380D01*
X221878095Y-181567380D02*
X222497142Y-181567380D01*
X222163809Y-181948333D01*
X222306666Y-181948333D01*
X222401904Y-181995952D01*
X222449523Y-182043571D01*
X222497142Y-182138809D01*
X222497142Y-182376904D01*
X222449523Y-182472142D01*
X222401904Y-182519761D01*
X222306666Y-182567380D01*
X222020952Y-182567380D01*
X221925714Y-182519761D01*
X221878095Y-182472142D01*
X223116190Y-181567380D02*
X223211428Y-181567380D01*
X223306666Y-181615000D01*
X223354285Y-181662619D01*
X223401904Y-181757857D01*
X223449523Y-181948333D01*
X223449523Y-182186428D01*
X223401904Y-182376904D01*
X223354285Y-182472142D01*
X223306666Y-182519761D01*
X223211428Y-182567380D01*
X223116190Y-182567380D01*
X223020952Y-182519761D01*
X222973333Y-182472142D01*
X222925714Y-182376904D01*
X222878095Y-182186428D01*
X222878095Y-181948333D01*
X222925714Y-181757857D01*
X222973333Y-181662619D01*
X223020952Y-181615000D01*
X223116190Y-181567380D01*
X258220476Y-182519761D02*
X258363333Y-182567380D01*
X258601428Y-182567380D01*
X258696666Y-182519761D01*
X258744285Y-182472142D01*
X258791904Y-182376904D01*
X258791904Y-182281666D01*
X258744285Y-182186428D01*
X258696666Y-182138809D01*
X258601428Y-182091190D01*
X258410952Y-182043571D01*
X258315714Y-181995952D01*
X258268095Y-181948333D01*
X258220476Y-181853095D01*
X258220476Y-181757857D01*
X258268095Y-181662619D01*
X258315714Y-181615000D01*
X258410952Y-181567380D01*
X258649047Y-181567380D01*
X258791904Y-181615000D01*
X259125238Y-181567380D02*
X259363333Y-182567380D01*
X259553809Y-181853095D01*
X259744285Y-182567380D01*
X259982380Y-181567380D01*
X260268095Y-181567380D02*
X260887142Y-181567380D01*
X260553809Y-181948333D01*
X260696666Y-181948333D01*
X260791904Y-181995952D01*
X260839523Y-182043571D01*
X260887142Y-182138809D01*
X260887142Y-182376904D01*
X260839523Y-182472142D01*
X260791904Y-182519761D01*
X260696666Y-182567380D01*
X260410952Y-182567380D01*
X260315714Y-182519761D01*
X260268095Y-182472142D01*
X261839523Y-182567380D02*
X261268095Y-182567380D01*
X261553809Y-182567380D02*
X261553809Y-181567380D01*
X261458571Y-181710238D01*
X261363333Y-181805476D01*
X261268095Y-181853095D01*
X306120476Y-182519761D02*
X306263333Y-182567380D01*
X306501428Y-182567380D01*
X306596666Y-182519761D01*
X306644285Y-182472142D01*
X306691904Y-182376904D01*
X306691904Y-182281666D01*
X306644285Y-182186428D01*
X306596666Y-182138809D01*
X306501428Y-182091190D01*
X306310952Y-182043571D01*
X306215714Y-181995952D01*
X306168095Y-181948333D01*
X306120476Y-181853095D01*
X306120476Y-181757857D01*
X306168095Y-181662619D01*
X306215714Y-181615000D01*
X306310952Y-181567380D01*
X306549047Y-181567380D01*
X306691904Y-181615000D01*
X307025238Y-181567380D02*
X307263333Y-182567380D01*
X307453809Y-181853095D01*
X307644285Y-182567380D01*
X307882380Y-181567380D01*
X308168095Y-181567380D02*
X308787142Y-181567380D01*
X308453809Y-181948333D01*
X308596666Y-181948333D01*
X308691904Y-181995952D01*
X308739523Y-182043571D01*
X308787142Y-182138809D01*
X308787142Y-182376904D01*
X308739523Y-182472142D01*
X308691904Y-182519761D01*
X308596666Y-182567380D01*
X308310952Y-182567380D01*
X308215714Y-182519761D01*
X308168095Y-182472142D01*
X309168095Y-181662619D02*
X309215714Y-181615000D01*
X309310952Y-181567380D01*
X309549047Y-181567380D01*
X309644285Y-181615000D01*
X309691904Y-181662619D01*
X309739523Y-181757857D01*
X309739523Y-181853095D01*
X309691904Y-181995952D01*
X309120476Y-182567380D01*
X309739523Y-182567380D01*
X166300476Y-201709761D02*
X166443333Y-201757380D01*
X166681428Y-201757380D01*
X166776666Y-201709761D01*
X166824285Y-201662142D01*
X166871904Y-201566904D01*
X166871904Y-201471666D01*
X166824285Y-201376428D01*
X166776666Y-201328809D01*
X166681428Y-201281190D01*
X166490952Y-201233571D01*
X166395714Y-201185952D01*
X166348095Y-201138333D01*
X166300476Y-201043095D01*
X166300476Y-200947857D01*
X166348095Y-200852619D01*
X166395714Y-200805000D01*
X166490952Y-200757380D01*
X166729047Y-200757380D01*
X166871904Y-200805000D01*
X167205238Y-200757380D02*
X167443333Y-201757380D01*
X167633809Y-201043095D01*
X167824285Y-201757380D01*
X168062380Y-200757380D01*
X168348095Y-200757380D02*
X168967142Y-200757380D01*
X168633809Y-201138333D01*
X168776666Y-201138333D01*
X168871904Y-201185952D01*
X168919523Y-201233571D01*
X168967142Y-201328809D01*
X168967142Y-201566904D01*
X168919523Y-201662142D01*
X168871904Y-201709761D01*
X168776666Y-201757380D01*
X168490952Y-201757380D01*
X168395714Y-201709761D01*
X168348095Y-201662142D01*
X169300476Y-200757380D02*
X169919523Y-200757380D01*
X169586190Y-201138333D01*
X169729047Y-201138333D01*
X169824285Y-201185952D01*
X169871904Y-201233571D01*
X169919523Y-201328809D01*
X169919523Y-201566904D01*
X169871904Y-201662142D01*
X169824285Y-201709761D01*
X169729047Y-201757380D01*
X169443333Y-201757380D01*
X169348095Y-201709761D01*
X169300476Y-201662142D01*
X85410476Y-182529761D02*
X85553333Y-182577380D01*
X85791428Y-182577380D01*
X85886666Y-182529761D01*
X85934285Y-182482142D01*
X85981904Y-182386904D01*
X85981904Y-182291666D01*
X85934285Y-182196428D01*
X85886666Y-182148809D01*
X85791428Y-182101190D01*
X85600952Y-182053571D01*
X85505714Y-182005952D01*
X85458095Y-181958333D01*
X85410476Y-181863095D01*
X85410476Y-181767857D01*
X85458095Y-181672619D01*
X85505714Y-181625000D01*
X85600952Y-181577380D01*
X85839047Y-181577380D01*
X85981904Y-181625000D01*
X86315238Y-181577380D02*
X86553333Y-182577380D01*
X86743809Y-181863095D01*
X86934285Y-182577380D01*
X87172380Y-181577380D01*
X87458095Y-181577380D02*
X88077142Y-181577380D01*
X87743809Y-181958333D01*
X87886666Y-181958333D01*
X87981904Y-182005952D01*
X88029523Y-182053571D01*
X88077142Y-182148809D01*
X88077142Y-182386904D01*
X88029523Y-182482142D01*
X87981904Y-182529761D01*
X87886666Y-182577380D01*
X87600952Y-182577380D01*
X87505714Y-182529761D01*
X87458095Y-182482142D01*
X88934285Y-181910714D02*
X88934285Y-182577380D01*
X88696190Y-181529761D02*
X88458095Y-182244047D01*
X89077142Y-182244047D01*
X123820476Y-182519761D02*
X123963333Y-182567380D01*
X124201428Y-182567380D01*
X124296666Y-182519761D01*
X124344285Y-182472142D01*
X124391904Y-182376904D01*
X124391904Y-182281666D01*
X124344285Y-182186428D01*
X124296666Y-182138809D01*
X124201428Y-182091190D01*
X124010952Y-182043571D01*
X123915714Y-181995952D01*
X123868095Y-181948333D01*
X123820476Y-181853095D01*
X123820476Y-181757857D01*
X123868095Y-181662619D01*
X123915714Y-181615000D01*
X124010952Y-181567380D01*
X124249047Y-181567380D01*
X124391904Y-181615000D01*
X124725238Y-181567380D02*
X124963333Y-182567380D01*
X125153809Y-181853095D01*
X125344285Y-182567380D01*
X125582380Y-181567380D01*
X125868095Y-181567380D02*
X126487142Y-181567380D01*
X126153809Y-181948333D01*
X126296666Y-181948333D01*
X126391904Y-181995952D01*
X126439523Y-182043571D01*
X126487142Y-182138809D01*
X126487142Y-182376904D01*
X126439523Y-182472142D01*
X126391904Y-182519761D01*
X126296666Y-182567380D01*
X126010952Y-182567380D01*
X125915714Y-182519761D01*
X125868095Y-182472142D01*
X127391904Y-181567380D02*
X126915714Y-181567380D01*
X126868095Y-182043571D01*
X126915714Y-181995952D01*
X127010952Y-181948333D01*
X127249047Y-181948333D01*
X127344285Y-181995952D01*
X127391904Y-182043571D01*
X127439523Y-182138809D01*
X127439523Y-182376904D01*
X127391904Y-182472142D01*
X127344285Y-182519761D01*
X127249047Y-182567380D01*
X127010952Y-182567380D01*
X126915714Y-182519761D01*
X126868095Y-182472142D01*
X162220476Y-182519761D02*
X162363333Y-182567380D01*
X162601428Y-182567380D01*
X162696666Y-182519761D01*
X162744285Y-182472142D01*
X162791904Y-182376904D01*
X162791904Y-182281666D01*
X162744285Y-182186428D01*
X162696666Y-182138809D01*
X162601428Y-182091190D01*
X162410952Y-182043571D01*
X162315714Y-181995952D01*
X162268095Y-181948333D01*
X162220476Y-181853095D01*
X162220476Y-181757857D01*
X162268095Y-181662619D01*
X162315714Y-181615000D01*
X162410952Y-181567380D01*
X162649047Y-181567380D01*
X162791904Y-181615000D01*
X163125238Y-181567380D02*
X163363333Y-182567380D01*
X163553809Y-181853095D01*
X163744285Y-182567380D01*
X163982380Y-181567380D01*
X164268095Y-181567380D02*
X164887142Y-181567380D01*
X164553809Y-181948333D01*
X164696666Y-181948333D01*
X164791904Y-181995952D01*
X164839523Y-182043571D01*
X164887142Y-182138809D01*
X164887142Y-182376904D01*
X164839523Y-182472142D01*
X164791904Y-182519761D01*
X164696666Y-182567380D01*
X164410952Y-182567380D01*
X164315714Y-182519761D01*
X164268095Y-182472142D01*
X165744285Y-181567380D02*
X165553809Y-181567380D01*
X165458571Y-181615000D01*
X165410952Y-181662619D01*
X165315714Y-181805476D01*
X165268095Y-181995952D01*
X165268095Y-182376904D01*
X165315714Y-182472142D01*
X165363333Y-182519761D01*
X165458571Y-182567380D01*
X165649047Y-182567380D01*
X165744285Y-182519761D01*
X165791904Y-182472142D01*
X165839523Y-182376904D01*
X165839523Y-182138809D01*
X165791904Y-182043571D01*
X165744285Y-181995952D01*
X165649047Y-181948333D01*
X165458571Y-181948333D01*
X165363333Y-181995952D01*
X165315714Y-182043571D01*
X165268095Y-182138809D01*
X200630476Y-182519761D02*
X200773333Y-182567380D01*
X201011428Y-182567380D01*
X201106666Y-182519761D01*
X201154285Y-182472142D01*
X201201904Y-182376904D01*
X201201904Y-182281666D01*
X201154285Y-182186428D01*
X201106666Y-182138809D01*
X201011428Y-182091190D01*
X200820952Y-182043571D01*
X200725714Y-181995952D01*
X200678095Y-181948333D01*
X200630476Y-181853095D01*
X200630476Y-181757857D01*
X200678095Y-181662619D01*
X200725714Y-181615000D01*
X200820952Y-181567380D01*
X201059047Y-181567380D01*
X201201904Y-181615000D01*
X201535238Y-181567380D02*
X201773333Y-182567380D01*
X201963809Y-181853095D01*
X202154285Y-182567380D01*
X202392380Y-181567380D01*
X202678095Y-181567380D02*
X203297142Y-181567380D01*
X202963809Y-181948333D01*
X203106666Y-181948333D01*
X203201904Y-181995952D01*
X203249523Y-182043571D01*
X203297142Y-182138809D01*
X203297142Y-182376904D01*
X203249523Y-182472142D01*
X203201904Y-182519761D01*
X203106666Y-182567380D01*
X202820952Y-182567380D01*
X202725714Y-182519761D01*
X202678095Y-182472142D01*
X203630476Y-181567380D02*
X204297142Y-181567380D01*
X203868571Y-182567380D01*
X239030476Y-182519761D02*
X239173333Y-182567380D01*
X239411428Y-182567380D01*
X239506666Y-182519761D01*
X239554285Y-182472142D01*
X239601904Y-182376904D01*
X239601904Y-182281666D01*
X239554285Y-182186428D01*
X239506666Y-182138809D01*
X239411428Y-182091190D01*
X239220952Y-182043571D01*
X239125714Y-181995952D01*
X239078095Y-181948333D01*
X239030476Y-181853095D01*
X239030476Y-181757857D01*
X239078095Y-181662619D01*
X239125714Y-181615000D01*
X239220952Y-181567380D01*
X239459047Y-181567380D01*
X239601904Y-181615000D01*
X239935238Y-181567380D02*
X240173333Y-182567380D01*
X240363809Y-181853095D01*
X240554285Y-182567380D01*
X240792380Y-181567380D01*
X241078095Y-181567380D02*
X241697142Y-181567380D01*
X241363809Y-181948333D01*
X241506666Y-181948333D01*
X241601904Y-181995952D01*
X241649523Y-182043571D01*
X241697142Y-182138809D01*
X241697142Y-182376904D01*
X241649523Y-182472142D01*
X241601904Y-182519761D01*
X241506666Y-182567380D01*
X241220952Y-182567380D01*
X241125714Y-182519761D01*
X241078095Y-182472142D01*
X242268571Y-181995952D02*
X242173333Y-181948333D01*
X242125714Y-181900714D01*
X242078095Y-181805476D01*
X242078095Y-181757857D01*
X242125714Y-181662619D01*
X242173333Y-181615000D01*
X242268571Y-181567380D01*
X242459047Y-181567380D01*
X242554285Y-181615000D01*
X242601904Y-181662619D01*
X242649523Y-181757857D01*
X242649523Y-181805476D01*
X242601904Y-181900714D01*
X242554285Y-181948333D01*
X242459047Y-181995952D01*
X242268571Y-181995952D01*
X242173333Y-182043571D01*
X242125714Y-182091190D01*
X242078095Y-182186428D01*
X242078095Y-182376904D01*
X242125714Y-182472142D01*
X242173333Y-182519761D01*
X242268571Y-182567380D01*
X242459047Y-182567380D01*
X242554285Y-182519761D01*
X242601904Y-182472142D01*
X242649523Y-182376904D01*
X242649523Y-182186428D01*
X242601904Y-182091190D01*
X242554285Y-182043571D01*
X242459047Y-181995952D01*
X282170476Y-182519761D02*
X282313333Y-182567380D01*
X282551428Y-182567380D01*
X282646666Y-182519761D01*
X282694285Y-182472142D01*
X282741904Y-182376904D01*
X282741904Y-182281666D01*
X282694285Y-182186428D01*
X282646666Y-182138809D01*
X282551428Y-182091190D01*
X282360952Y-182043571D01*
X282265714Y-181995952D01*
X282218095Y-181948333D01*
X282170476Y-181853095D01*
X282170476Y-181757857D01*
X282218095Y-181662619D01*
X282265714Y-181615000D01*
X282360952Y-181567380D01*
X282599047Y-181567380D01*
X282741904Y-181615000D01*
X283075238Y-181567380D02*
X283313333Y-182567380D01*
X283503809Y-181853095D01*
X283694285Y-182567380D01*
X283932380Y-181567380D01*
X284218095Y-181567380D02*
X284837142Y-181567380D01*
X284503809Y-181948333D01*
X284646666Y-181948333D01*
X284741904Y-181995952D01*
X284789523Y-182043571D01*
X284837142Y-182138809D01*
X284837142Y-182376904D01*
X284789523Y-182472142D01*
X284741904Y-182519761D01*
X284646666Y-182567380D01*
X284360952Y-182567380D01*
X284265714Y-182519761D01*
X284218095Y-182472142D01*
X285313333Y-182567380D02*
X285503809Y-182567380D01*
X285599047Y-182519761D01*
X285646666Y-182472142D01*
X285741904Y-182329285D01*
X285789523Y-182138809D01*
X285789523Y-181757857D01*
X285741904Y-181662619D01*
X285694285Y-181615000D01*
X285599047Y-181567380D01*
X285408571Y-181567380D01*
X285313333Y-181615000D01*
X285265714Y-181662619D01*
X285218095Y-181757857D01*
X285218095Y-181995952D01*
X285265714Y-182091190D01*
X285313333Y-182138809D01*
X285408571Y-182186428D01*
X285599047Y-182186428D01*
X285694285Y-182138809D01*
X285741904Y-182091190D01*
X285789523Y-181995952D01*
X374100476Y-125359761D02*
X374243333Y-125407380D01*
X374481428Y-125407380D01*
X374576666Y-125359761D01*
X374624285Y-125312142D01*
X374671904Y-125216904D01*
X374671904Y-125121666D01*
X374624285Y-125026428D01*
X374576666Y-124978809D01*
X374481428Y-124931190D01*
X374290952Y-124883571D01*
X374195714Y-124835952D01*
X374148095Y-124788333D01*
X374100476Y-124693095D01*
X374100476Y-124597857D01*
X374148095Y-124502619D01*
X374195714Y-124455000D01*
X374290952Y-124407380D01*
X374529047Y-124407380D01*
X374671904Y-124455000D01*
X375005238Y-124407380D02*
X375243333Y-125407380D01*
X375433809Y-124693095D01*
X375624285Y-125407380D01*
X375862380Y-124407380D01*
X376671904Y-124740714D02*
X376671904Y-125407380D01*
X376433809Y-124359761D02*
X376195714Y-125074047D01*
X376814761Y-125074047D01*
X377386190Y-124407380D02*
X377481428Y-124407380D01*
X377576666Y-124455000D01*
X377624285Y-124502619D01*
X377671904Y-124597857D01*
X377719523Y-124788333D01*
X377719523Y-125026428D01*
X377671904Y-125216904D01*
X377624285Y-125312142D01*
X377576666Y-125359761D01*
X377481428Y-125407380D01*
X377386190Y-125407380D01*
X377290952Y-125359761D01*
X377243333Y-125312142D01*
X377195714Y-125216904D01*
X377148095Y-125026428D01*
X377148095Y-124788333D01*
X377195714Y-124597857D01*
X377243333Y-124502619D01*
X377290952Y-124455000D01*
X377386190Y-124407380D01*
X37510476Y-182529761D02*
X37653333Y-182577380D01*
X37891428Y-182577380D01*
X37986666Y-182529761D01*
X38034285Y-182482142D01*
X38081904Y-182386904D01*
X38081904Y-182291666D01*
X38034285Y-182196428D01*
X37986666Y-182148809D01*
X37891428Y-182101190D01*
X37700952Y-182053571D01*
X37605714Y-182005952D01*
X37558095Y-181958333D01*
X37510476Y-181863095D01*
X37510476Y-181767857D01*
X37558095Y-181672619D01*
X37605714Y-181625000D01*
X37700952Y-181577380D01*
X37939047Y-181577380D01*
X38081904Y-181625000D01*
X38415238Y-181577380D02*
X38653333Y-182577380D01*
X38843809Y-181863095D01*
X39034285Y-182577380D01*
X39272380Y-181577380D01*
X40081904Y-181910714D02*
X40081904Y-182577380D01*
X39843809Y-181529761D02*
X39605714Y-182244047D01*
X40224761Y-182244047D01*
X41129523Y-182577380D02*
X40558095Y-182577380D01*
X40843809Y-182577380D02*
X40843809Y-181577380D01*
X40748571Y-181720238D01*
X40653333Y-181815476D01*
X40558095Y-181863095D01*
X95120476Y-163309761D02*
X95263333Y-163357380D01*
X95501428Y-163357380D01*
X95596666Y-163309761D01*
X95644285Y-163262142D01*
X95691904Y-163166904D01*
X95691904Y-163071666D01*
X95644285Y-162976428D01*
X95596666Y-162928809D01*
X95501428Y-162881190D01*
X95310952Y-162833571D01*
X95215714Y-162785952D01*
X95168095Y-162738333D01*
X95120476Y-162643095D01*
X95120476Y-162547857D01*
X95168095Y-162452619D01*
X95215714Y-162405000D01*
X95310952Y-162357380D01*
X95549047Y-162357380D01*
X95691904Y-162405000D01*
X96025238Y-162357380D02*
X96263333Y-163357380D01*
X96453809Y-162643095D01*
X96644285Y-163357380D01*
X96882380Y-162357380D01*
X97691904Y-162690714D02*
X97691904Y-163357380D01*
X97453809Y-162309761D02*
X97215714Y-163024047D01*
X97834761Y-163024047D01*
X98168095Y-162452619D02*
X98215714Y-162405000D01*
X98310952Y-162357380D01*
X98549047Y-162357380D01*
X98644285Y-162405000D01*
X98691904Y-162452619D01*
X98739523Y-162547857D01*
X98739523Y-162643095D01*
X98691904Y-162785952D01*
X98120476Y-163357380D01*
X98739523Y-163357380D01*
X133470476Y-163309761D02*
X133613333Y-163357380D01*
X133851428Y-163357380D01*
X133946666Y-163309761D01*
X133994285Y-163262142D01*
X134041904Y-163166904D01*
X134041904Y-163071666D01*
X133994285Y-162976428D01*
X133946666Y-162928809D01*
X133851428Y-162881190D01*
X133660952Y-162833571D01*
X133565714Y-162785952D01*
X133518095Y-162738333D01*
X133470476Y-162643095D01*
X133470476Y-162547857D01*
X133518095Y-162452619D01*
X133565714Y-162405000D01*
X133660952Y-162357380D01*
X133899047Y-162357380D01*
X134041904Y-162405000D01*
X134375238Y-162357380D02*
X134613333Y-163357380D01*
X134803809Y-162643095D01*
X134994285Y-163357380D01*
X135232380Y-162357380D01*
X136041904Y-162690714D02*
X136041904Y-163357380D01*
X135803809Y-162309761D02*
X135565714Y-163024047D01*
X136184761Y-163024047D01*
X136470476Y-162357380D02*
X137089523Y-162357380D01*
X136756190Y-162738333D01*
X136899047Y-162738333D01*
X136994285Y-162785952D01*
X137041904Y-162833571D01*
X137089523Y-162928809D01*
X137089523Y-163166904D01*
X137041904Y-163262142D01*
X136994285Y-163309761D01*
X136899047Y-163357380D01*
X136613333Y-163357380D01*
X136518095Y-163309761D01*
X136470476Y-163262142D01*
X171850476Y-163309761D02*
X171993333Y-163357380D01*
X172231428Y-163357380D01*
X172326666Y-163309761D01*
X172374285Y-163262142D01*
X172421904Y-163166904D01*
X172421904Y-163071666D01*
X172374285Y-162976428D01*
X172326666Y-162928809D01*
X172231428Y-162881190D01*
X172040952Y-162833571D01*
X171945714Y-162785952D01*
X171898095Y-162738333D01*
X171850476Y-162643095D01*
X171850476Y-162547857D01*
X171898095Y-162452619D01*
X171945714Y-162405000D01*
X172040952Y-162357380D01*
X172279047Y-162357380D01*
X172421904Y-162405000D01*
X172755238Y-162357380D02*
X172993333Y-163357380D01*
X173183809Y-162643095D01*
X173374285Y-163357380D01*
X173612380Y-162357380D01*
X174421904Y-162690714D02*
X174421904Y-163357380D01*
X174183809Y-162309761D02*
X173945714Y-163024047D01*
X174564761Y-163024047D01*
X175374285Y-162690714D02*
X175374285Y-163357380D01*
X175136190Y-162309761D02*
X174898095Y-163024047D01*
X175517142Y-163024047D01*
X210210476Y-163309761D02*
X210353333Y-163357380D01*
X210591428Y-163357380D01*
X210686666Y-163309761D01*
X210734285Y-163262142D01*
X210781904Y-163166904D01*
X210781904Y-163071666D01*
X210734285Y-162976428D01*
X210686666Y-162928809D01*
X210591428Y-162881190D01*
X210400952Y-162833571D01*
X210305714Y-162785952D01*
X210258095Y-162738333D01*
X210210476Y-162643095D01*
X210210476Y-162547857D01*
X210258095Y-162452619D01*
X210305714Y-162405000D01*
X210400952Y-162357380D01*
X210639047Y-162357380D01*
X210781904Y-162405000D01*
X211115238Y-162357380D02*
X211353333Y-163357380D01*
X211543809Y-162643095D01*
X211734285Y-163357380D01*
X211972380Y-162357380D01*
X212781904Y-162690714D02*
X212781904Y-163357380D01*
X212543809Y-162309761D02*
X212305714Y-163024047D01*
X212924761Y-163024047D01*
X213781904Y-162357380D02*
X213305714Y-162357380D01*
X213258095Y-162833571D01*
X213305714Y-162785952D01*
X213400952Y-162738333D01*
X213639047Y-162738333D01*
X213734285Y-162785952D01*
X213781904Y-162833571D01*
X213829523Y-162928809D01*
X213829523Y-163166904D01*
X213781904Y-163262142D01*
X213734285Y-163309761D01*
X213639047Y-163357380D01*
X213400952Y-163357380D01*
X213305714Y-163309761D01*
X213258095Y-163262142D01*
X248580476Y-163309761D02*
X248723333Y-163357380D01*
X248961428Y-163357380D01*
X249056666Y-163309761D01*
X249104285Y-163262142D01*
X249151904Y-163166904D01*
X249151904Y-163071666D01*
X249104285Y-162976428D01*
X249056666Y-162928809D01*
X248961428Y-162881190D01*
X248770952Y-162833571D01*
X248675714Y-162785952D01*
X248628095Y-162738333D01*
X248580476Y-162643095D01*
X248580476Y-162547857D01*
X248628095Y-162452619D01*
X248675714Y-162405000D01*
X248770952Y-162357380D01*
X249009047Y-162357380D01*
X249151904Y-162405000D01*
X249485238Y-162357380D02*
X249723333Y-163357380D01*
X249913809Y-162643095D01*
X250104285Y-163357380D01*
X250342380Y-162357380D01*
X251151904Y-162690714D02*
X251151904Y-163357380D01*
X250913809Y-162309761D02*
X250675714Y-163024047D01*
X251294761Y-163024047D01*
X252104285Y-162357380D02*
X251913809Y-162357380D01*
X251818571Y-162405000D01*
X251770952Y-162452619D01*
X251675714Y-162595476D01*
X251628095Y-162785952D01*
X251628095Y-163166904D01*
X251675714Y-163262142D01*
X251723333Y-163309761D01*
X251818571Y-163357380D01*
X252009047Y-163357380D01*
X252104285Y-163309761D01*
X252151904Y-163262142D01*
X252199523Y-163166904D01*
X252199523Y-162928809D01*
X252151904Y-162833571D01*
X252104285Y-162785952D01*
X252009047Y-162738333D01*
X251818571Y-162738333D01*
X251723333Y-162785952D01*
X251675714Y-162833571D01*
X251628095Y-162928809D01*
X286970476Y-163329761D02*
X287113333Y-163377380D01*
X287351428Y-163377380D01*
X287446666Y-163329761D01*
X287494285Y-163282142D01*
X287541904Y-163186904D01*
X287541904Y-163091666D01*
X287494285Y-162996428D01*
X287446666Y-162948809D01*
X287351428Y-162901190D01*
X287160952Y-162853571D01*
X287065714Y-162805952D01*
X287018095Y-162758333D01*
X286970476Y-162663095D01*
X286970476Y-162567857D01*
X287018095Y-162472619D01*
X287065714Y-162425000D01*
X287160952Y-162377380D01*
X287399047Y-162377380D01*
X287541904Y-162425000D01*
X287875238Y-162377380D02*
X288113333Y-163377380D01*
X288303809Y-162663095D01*
X288494285Y-163377380D01*
X288732380Y-162377380D01*
X289541904Y-162710714D02*
X289541904Y-163377380D01*
X289303809Y-162329761D02*
X289065714Y-163044047D01*
X289684761Y-163044047D01*
X289970476Y-162377380D02*
X290637142Y-162377380D01*
X290208571Y-163377380D01*
X374100476Y-144639761D02*
X374243333Y-144687380D01*
X374481428Y-144687380D01*
X374576666Y-144639761D01*
X374624285Y-144592142D01*
X374671904Y-144496904D01*
X374671904Y-144401666D01*
X374624285Y-144306428D01*
X374576666Y-144258809D01*
X374481428Y-144211190D01*
X374290952Y-144163571D01*
X374195714Y-144115952D01*
X374148095Y-144068333D01*
X374100476Y-143973095D01*
X374100476Y-143877857D01*
X374148095Y-143782619D01*
X374195714Y-143735000D01*
X374290952Y-143687380D01*
X374529047Y-143687380D01*
X374671904Y-143735000D01*
X375005238Y-143687380D02*
X375243333Y-144687380D01*
X375433809Y-143973095D01*
X375624285Y-144687380D01*
X375862380Y-143687380D01*
X376671904Y-144020714D02*
X376671904Y-144687380D01*
X376433809Y-143639761D02*
X376195714Y-144354047D01*
X376814761Y-144354047D01*
X377338571Y-144115952D02*
X377243333Y-144068333D01*
X377195714Y-144020714D01*
X377148095Y-143925476D01*
X377148095Y-143877857D01*
X377195714Y-143782619D01*
X377243333Y-143735000D01*
X377338571Y-143687380D01*
X377529047Y-143687380D01*
X377624285Y-143735000D01*
X377671904Y-143782619D01*
X377719523Y-143877857D01*
X377719523Y-143925476D01*
X377671904Y-144020714D01*
X377624285Y-144068333D01*
X377529047Y-144115952D01*
X377338571Y-144115952D01*
X377243333Y-144163571D01*
X377195714Y-144211190D01*
X377148095Y-144306428D01*
X377148095Y-144496904D01*
X377195714Y-144592142D01*
X377243333Y-144639761D01*
X377338571Y-144687380D01*
X377529047Y-144687380D01*
X377624285Y-144639761D01*
X377671904Y-144592142D01*
X377719523Y-144496904D01*
X377719523Y-144306428D01*
X377671904Y-144211190D01*
X377624285Y-144163571D01*
X377529047Y-144115952D01*
X70050476Y-144149761D02*
X70193333Y-144197380D01*
X70431428Y-144197380D01*
X70526666Y-144149761D01*
X70574285Y-144102142D01*
X70621904Y-144006904D01*
X70621904Y-143911666D01*
X70574285Y-143816428D01*
X70526666Y-143768809D01*
X70431428Y-143721190D01*
X70240952Y-143673571D01*
X70145714Y-143625952D01*
X70098095Y-143578333D01*
X70050476Y-143483095D01*
X70050476Y-143387857D01*
X70098095Y-143292619D01*
X70145714Y-143245000D01*
X70240952Y-143197380D01*
X70479047Y-143197380D01*
X70621904Y-143245000D01*
X70955238Y-143197380D02*
X71193333Y-144197380D01*
X71383809Y-143483095D01*
X71574285Y-144197380D01*
X71812380Y-143197380D01*
X72621904Y-143530714D02*
X72621904Y-144197380D01*
X72383809Y-143149761D02*
X72145714Y-143864047D01*
X72764761Y-143864047D01*
X73193333Y-144197380D02*
X73383809Y-144197380D01*
X73479047Y-144149761D01*
X73526666Y-144102142D01*
X73621904Y-143959285D01*
X73669523Y-143768809D01*
X73669523Y-143387857D01*
X73621904Y-143292619D01*
X73574285Y-143245000D01*
X73479047Y-143197380D01*
X73288571Y-143197380D01*
X73193333Y-143245000D01*
X73145714Y-143292619D01*
X73098095Y-143387857D01*
X73098095Y-143625952D01*
X73145714Y-143721190D01*
X73193333Y-143768809D01*
X73288571Y-143816428D01*
X73479047Y-143816428D01*
X73574285Y-143768809D01*
X73621904Y-143721190D01*
X73669523Y-143625952D01*
X108450476Y-144149761D02*
X108593333Y-144197380D01*
X108831428Y-144197380D01*
X108926666Y-144149761D01*
X108974285Y-144102142D01*
X109021904Y-144006904D01*
X109021904Y-143911666D01*
X108974285Y-143816428D01*
X108926666Y-143768809D01*
X108831428Y-143721190D01*
X108640952Y-143673571D01*
X108545714Y-143625952D01*
X108498095Y-143578333D01*
X108450476Y-143483095D01*
X108450476Y-143387857D01*
X108498095Y-143292619D01*
X108545714Y-143245000D01*
X108640952Y-143197380D01*
X108879047Y-143197380D01*
X109021904Y-143245000D01*
X109355238Y-143197380D02*
X109593333Y-144197380D01*
X109783809Y-143483095D01*
X109974285Y-144197380D01*
X110212380Y-143197380D01*
X111069523Y-143197380D02*
X110593333Y-143197380D01*
X110545714Y-143673571D01*
X110593333Y-143625952D01*
X110688571Y-143578333D01*
X110926666Y-143578333D01*
X111021904Y-143625952D01*
X111069523Y-143673571D01*
X111117142Y-143768809D01*
X111117142Y-144006904D01*
X111069523Y-144102142D01*
X111021904Y-144149761D01*
X110926666Y-144197380D01*
X110688571Y-144197380D01*
X110593333Y-144149761D01*
X110545714Y-144102142D01*
X111736190Y-143197380D02*
X111831428Y-143197380D01*
X111926666Y-143245000D01*
X111974285Y-143292619D01*
X112021904Y-143387857D01*
X112069523Y-143578333D01*
X112069523Y-143816428D01*
X112021904Y-144006904D01*
X111974285Y-144102142D01*
X111926666Y-144149761D01*
X111831428Y-144197380D01*
X111736190Y-144197380D01*
X111640952Y-144149761D01*
X111593333Y-144102142D01*
X111545714Y-144006904D01*
X111498095Y-143816428D01*
X111498095Y-143578333D01*
X111545714Y-143387857D01*
X111593333Y-143292619D01*
X111640952Y-143245000D01*
X111736190Y-143197380D01*
X146840476Y-144149761D02*
X146983333Y-144197380D01*
X147221428Y-144197380D01*
X147316666Y-144149761D01*
X147364285Y-144102142D01*
X147411904Y-144006904D01*
X147411904Y-143911666D01*
X147364285Y-143816428D01*
X147316666Y-143768809D01*
X147221428Y-143721190D01*
X147030952Y-143673571D01*
X146935714Y-143625952D01*
X146888095Y-143578333D01*
X146840476Y-143483095D01*
X146840476Y-143387857D01*
X146888095Y-143292619D01*
X146935714Y-143245000D01*
X147030952Y-143197380D01*
X147269047Y-143197380D01*
X147411904Y-143245000D01*
X147745238Y-143197380D02*
X147983333Y-144197380D01*
X148173809Y-143483095D01*
X148364285Y-144197380D01*
X148602380Y-143197380D01*
X149459523Y-143197380D02*
X148983333Y-143197380D01*
X148935714Y-143673571D01*
X148983333Y-143625952D01*
X149078571Y-143578333D01*
X149316666Y-143578333D01*
X149411904Y-143625952D01*
X149459523Y-143673571D01*
X149507142Y-143768809D01*
X149507142Y-144006904D01*
X149459523Y-144102142D01*
X149411904Y-144149761D01*
X149316666Y-144197380D01*
X149078571Y-144197380D01*
X148983333Y-144149761D01*
X148935714Y-144102142D01*
X150459523Y-144197380D02*
X149888095Y-144197380D01*
X150173809Y-144197380D02*
X150173809Y-143197380D01*
X150078571Y-143340238D01*
X149983333Y-143435476D01*
X149888095Y-143483095D01*
X185220476Y-144149761D02*
X185363333Y-144197380D01*
X185601428Y-144197380D01*
X185696666Y-144149761D01*
X185744285Y-144102142D01*
X185791904Y-144006904D01*
X185791904Y-143911666D01*
X185744285Y-143816428D01*
X185696666Y-143768809D01*
X185601428Y-143721190D01*
X185410952Y-143673571D01*
X185315714Y-143625952D01*
X185268095Y-143578333D01*
X185220476Y-143483095D01*
X185220476Y-143387857D01*
X185268095Y-143292619D01*
X185315714Y-143245000D01*
X185410952Y-143197380D01*
X185649047Y-143197380D01*
X185791904Y-143245000D01*
X186125238Y-143197380D02*
X186363333Y-144197380D01*
X186553809Y-143483095D01*
X186744285Y-144197380D01*
X186982380Y-143197380D01*
X187839523Y-143197380D02*
X187363333Y-143197380D01*
X187315714Y-143673571D01*
X187363333Y-143625952D01*
X187458571Y-143578333D01*
X187696666Y-143578333D01*
X187791904Y-143625952D01*
X187839523Y-143673571D01*
X187887142Y-143768809D01*
X187887142Y-144006904D01*
X187839523Y-144102142D01*
X187791904Y-144149761D01*
X187696666Y-144197380D01*
X187458571Y-144197380D01*
X187363333Y-144149761D01*
X187315714Y-144102142D01*
X188268095Y-143292619D02*
X188315714Y-143245000D01*
X188410952Y-143197380D01*
X188649047Y-143197380D01*
X188744285Y-143245000D01*
X188791904Y-143292619D01*
X188839523Y-143387857D01*
X188839523Y-143483095D01*
X188791904Y-143625952D01*
X188220476Y-144197380D01*
X188839523Y-144197380D01*
X223610476Y-144149761D02*
X223753333Y-144197380D01*
X223991428Y-144197380D01*
X224086666Y-144149761D01*
X224134285Y-144102142D01*
X224181904Y-144006904D01*
X224181904Y-143911666D01*
X224134285Y-143816428D01*
X224086666Y-143768809D01*
X223991428Y-143721190D01*
X223800952Y-143673571D01*
X223705714Y-143625952D01*
X223658095Y-143578333D01*
X223610476Y-143483095D01*
X223610476Y-143387857D01*
X223658095Y-143292619D01*
X223705714Y-143245000D01*
X223800952Y-143197380D01*
X224039047Y-143197380D01*
X224181904Y-143245000D01*
X224515238Y-143197380D02*
X224753333Y-144197380D01*
X224943809Y-143483095D01*
X225134285Y-144197380D01*
X225372380Y-143197380D01*
X226229523Y-143197380D02*
X225753333Y-143197380D01*
X225705714Y-143673571D01*
X225753333Y-143625952D01*
X225848571Y-143578333D01*
X226086666Y-143578333D01*
X226181904Y-143625952D01*
X226229523Y-143673571D01*
X226277142Y-143768809D01*
X226277142Y-144006904D01*
X226229523Y-144102142D01*
X226181904Y-144149761D01*
X226086666Y-144197380D01*
X225848571Y-144197380D01*
X225753333Y-144149761D01*
X225705714Y-144102142D01*
X226610476Y-143197380D02*
X227229523Y-143197380D01*
X226896190Y-143578333D01*
X227039047Y-143578333D01*
X227134285Y-143625952D01*
X227181904Y-143673571D01*
X227229523Y-143768809D01*
X227229523Y-144006904D01*
X227181904Y-144102142D01*
X227134285Y-144149761D01*
X227039047Y-144197380D01*
X226753333Y-144197380D01*
X226658095Y-144149761D01*
X226610476Y-144102142D01*
X262010476Y-144149761D02*
X262153333Y-144197380D01*
X262391428Y-144197380D01*
X262486666Y-144149761D01*
X262534285Y-144102142D01*
X262581904Y-144006904D01*
X262581904Y-143911666D01*
X262534285Y-143816428D01*
X262486666Y-143768809D01*
X262391428Y-143721190D01*
X262200952Y-143673571D01*
X262105714Y-143625952D01*
X262058095Y-143578333D01*
X262010476Y-143483095D01*
X262010476Y-143387857D01*
X262058095Y-143292619D01*
X262105714Y-143245000D01*
X262200952Y-143197380D01*
X262439047Y-143197380D01*
X262581904Y-143245000D01*
X262915238Y-143197380D02*
X263153333Y-144197380D01*
X263343809Y-143483095D01*
X263534285Y-144197380D01*
X263772380Y-143197380D01*
X264629523Y-143197380D02*
X264153333Y-143197380D01*
X264105714Y-143673571D01*
X264153333Y-143625952D01*
X264248571Y-143578333D01*
X264486666Y-143578333D01*
X264581904Y-143625952D01*
X264629523Y-143673571D01*
X264677142Y-143768809D01*
X264677142Y-144006904D01*
X264629523Y-144102142D01*
X264581904Y-144149761D01*
X264486666Y-144197380D01*
X264248571Y-144197380D01*
X264153333Y-144149761D01*
X264105714Y-144102142D01*
X265534285Y-143530714D02*
X265534285Y-144197380D01*
X265296190Y-143149761D02*
X265058095Y-143864047D01*
X265677142Y-143864047D01*
X300360476Y-144159761D02*
X300503333Y-144207380D01*
X300741428Y-144207380D01*
X300836666Y-144159761D01*
X300884285Y-144112142D01*
X300931904Y-144016904D01*
X300931904Y-143921666D01*
X300884285Y-143826428D01*
X300836666Y-143778809D01*
X300741428Y-143731190D01*
X300550952Y-143683571D01*
X300455714Y-143635952D01*
X300408095Y-143588333D01*
X300360476Y-143493095D01*
X300360476Y-143397857D01*
X300408095Y-143302619D01*
X300455714Y-143255000D01*
X300550952Y-143207380D01*
X300789047Y-143207380D01*
X300931904Y-143255000D01*
X301265238Y-143207380D02*
X301503333Y-144207380D01*
X301693809Y-143493095D01*
X301884285Y-144207380D01*
X302122380Y-143207380D01*
X302979523Y-143207380D02*
X302503333Y-143207380D01*
X302455714Y-143683571D01*
X302503333Y-143635952D01*
X302598571Y-143588333D01*
X302836666Y-143588333D01*
X302931904Y-143635952D01*
X302979523Y-143683571D01*
X303027142Y-143778809D01*
X303027142Y-144016904D01*
X302979523Y-144112142D01*
X302931904Y-144159761D01*
X302836666Y-144207380D01*
X302598571Y-144207380D01*
X302503333Y-144159761D01*
X302455714Y-144112142D01*
X303931904Y-143207380D02*
X303455714Y-143207380D01*
X303408095Y-143683571D01*
X303455714Y-143635952D01*
X303550952Y-143588333D01*
X303789047Y-143588333D01*
X303884285Y-143635952D01*
X303931904Y-143683571D01*
X303979523Y-143778809D01*
X303979523Y-144016904D01*
X303931904Y-144112142D01*
X303884285Y-144159761D01*
X303789047Y-144207380D01*
X303550952Y-144207380D01*
X303455714Y-144159761D01*
X303408095Y-144112142D01*
X374100476Y-163949761D02*
X374243333Y-163997380D01*
X374481428Y-163997380D01*
X374576666Y-163949761D01*
X374624285Y-163902142D01*
X374671904Y-163806904D01*
X374671904Y-163711666D01*
X374624285Y-163616428D01*
X374576666Y-163568809D01*
X374481428Y-163521190D01*
X374290952Y-163473571D01*
X374195714Y-163425952D01*
X374148095Y-163378333D01*
X374100476Y-163283095D01*
X374100476Y-163187857D01*
X374148095Y-163092619D01*
X374195714Y-163045000D01*
X374290952Y-162997380D01*
X374529047Y-162997380D01*
X374671904Y-163045000D01*
X375005238Y-162997380D02*
X375243333Y-163997380D01*
X375433809Y-163283095D01*
X375624285Y-163997380D01*
X375862380Y-162997380D01*
X376719523Y-162997380D02*
X376243333Y-162997380D01*
X376195714Y-163473571D01*
X376243333Y-163425952D01*
X376338571Y-163378333D01*
X376576666Y-163378333D01*
X376671904Y-163425952D01*
X376719523Y-163473571D01*
X376767142Y-163568809D01*
X376767142Y-163806904D01*
X376719523Y-163902142D01*
X376671904Y-163949761D01*
X376576666Y-163997380D01*
X376338571Y-163997380D01*
X376243333Y-163949761D01*
X376195714Y-163902142D01*
X377624285Y-162997380D02*
X377433809Y-162997380D01*
X377338571Y-163045000D01*
X377290952Y-163092619D01*
X377195714Y-163235476D01*
X377148095Y-163425952D01*
X377148095Y-163806904D01*
X377195714Y-163902142D01*
X377243333Y-163949761D01*
X377338571Y-163997380D01*
X377529047Y-163997380D01*
X377624285Y-163949761D01*
X377671904Y-163902142D01*
X377719523Y-163806904D01*
X377719523Y-163568809D01*
X377671904Y-163473571D01*
X377624285Y-163425952D01*
X377529047Y-163378333D01*
X377338571Y-163378333D01*
X377243333Y-163425952D01*
X377195714Y-163473571D01*
X377148095Y-163568809D01*
X79650476Y-124949761D02*
X79793333Y-124997380D01*
X80031428Y-124997380D01*
X80126666Y-124949761D01*
X80174285Y-124902142D01*
X80221904Y-124806904D01*
X80221904Y-124711666D01*
X80174285Y-124616428D01*
X80126666Y-124568809D01*
X80031428Y-124521190D01*
X79840952Y-124473571D01*
X79745714Y-124425952D01*
X79698095Y-124378333D01*
X79650476Y-124283095D01*
X79650476Y-124187857D01*
X79698095Y-124092619D01*
X79745714Y-124045000D01*
X79840952Y-123997380D01*
X80079047Y-123997380D01*
X80221904Y-124045000D01*
X80555238Y-123997380D02*
X80793333Y-124997380D01*
X80983809Y-124283095D01*
X81174285Y-124997380D01*
X81412380Y-123997380D01*
X82269523Y-123997380D02*
X81793333Y-123997380D01*
X81745714Y-124473571D01*
X81793333Y-124425952D01*
X81888571Y-124378333D01*
X82126666Y-124378333D01*
X82221904Y-124425952D01*
X82269523Y-124473571D01*
X82317142Y-124568809D01*
X82317142Y-124806904D01*
X82269523Y-124902142D01*
X82221904Y-124949761D01*
X82126666Y-124997380D01*
X81888571Y-124997380D01*
X81793333Y-124949761D01*
X81745714Y-124902142D01*
X82650476Y-123997380D02*
X83317142Y-123997380D01*
X82888571Y-124997380D01*
X118020476Y-124949761D02*
X118163333Y-124997380D01*
X118401428Y-124997380D01*
X118496666Y-124949761D01*
X118544285Y-124902142D01*
X118591904Y-124806904D01*
X118591904Y-124711666D01*
X118544285Y-124616428D01*
X118496666Y-124568809D01*
X118401428Y-124521190D01*
X118210952Y-124473571D01*
X118115714Y-124425952D01*
X118068095Y-124378333D01*
X118020476Y-124283095D01*
X118020476Y-124187857D01*
X118068095Y-124092619D01*
X118115714Y-124045000D01*
X118210952Y-123997380D01*
X118449047Y-123997380D01*
X118591904Y-124045000D01*
X118925238Y-123997380D02*
X119163333Y-124997380D01*
X119353809Y-124283095D01*
X119544285Y-124997380D01*
X119782380Y-123997380D01*
X120639523Y-123997380D02*
X120163333Y-123997380D01*
X120115714Y-124473571D01*
X120163333Y-124425952D01*
X120258571Y-124378333D01*
X120496666Y-124378333D01*
X120591904Y-124425952D01*
X120639523Y-124473571D01*
X120687142Y-124568809D01*
X120687142Y-124806904D01*
X120639523Y-124902142D01*
X120591904Y-124949761D01*
X120496666Y-124997380D01*
X120258571Y-124997380D01*
X120163333Y-124949761D01*
X120115714Y-124902142D01*
X121258571Y-124425952D02*
X121163333Y-124378333D01*
X121115714Y-124330714D01*
X121068095Y-124235476D01*
X121068095Y-124187857D01*
X121115714Y-124092619D01*
X121163333Y-124045000D01*
X121258571Y-123997380D01*
X121449047Y-123997380D01*
X121544285Y-124045000D01*
X121591904Y-124092619D01*
X121639523Y-124187857D01*
X121639523Y-124235476D01*
X121591904Y-124330714D01*
X121544285Y-124378333D01*
X121449047Y-124425952D01*
X121258571Y-124425952D01*
X121163333Y-124473571D01*
X121115714Y-124521190D01*
X121068095Y-124616428D01*
X121068095Y-124806904D01*
X121115714Y-124902142D01*
X121163333Y-124949761D01*
X121258571Y-124997380D01*
X121449047Y-124997380D01*
X121544285Y-124949761D01*
X121591904Y-124902142D01*
X121639523Y-124806904D01*
X121639523Y-124616428D01*
X121591904Y-124521190D01*
X121544285Y-124473571D01*
X121449047Y-124425952D01*
X156400476Y-124949761D02*
X156543333Y-124997380D01*
X156781428Y-124997380D01*
X156876666Y-124949761D01*
X156924285Y-124902142D01*
X156971904Y-124806904D01*
X156971904Y-124711666D01*
X156924285Y-124616428D01*
X156876666Y-124568809D01*
X156781428Y-124521190D01*
X156590952Y-124473571D01*
X156495714Y-124425952D01*
X156448095Y-124378333D01*
X156400476Y-124283095D01*
X156400476Y-124187857D01*
X156448095Y-124092619D01*
X156495714Y-124045000D01*
X156590952Y-123997380D01*
X156829047Y-123997380D01*
X156971904Y-124045000D01*
X157305238Y-123997380D02*
X157543333Y-124997380D01*
X157733809Y-124283095D01*
X157924285Y-124997380D01*
X158162380Y-123997380D01*
X159019523Y-123997380D02*
X158543333Y-123997380D01*
X158495714Y-124473571D01*
X158543333Y-124425952D01*
X158638571Y-124378333D01*
X158876666Y-124378333D01*
X158971904Y-124425952D01*
X159019523Y-124473571D01*
X159067142Y-124568809D01*
X159067142Y-124806904D01*
X159019523Y-124902142D01*
X158971904Y-124949761D01*
X158876666Y-124997380D01*
X158638571Y-124997380D01*
X158543333Y-124949761D01*
X158495714Y-124902142D01*
X159543333Y-124997380D02*
X159733809Y-124997380D01*
X159829047Y-124949761D01*
X159876666Y-124902142D01*
X159971904Y-124759285D01*
X160019523Y-124568809D01*
X160019523Y-124187857D01*
X159971904Y-124092619D01*
X159924285Y-124045000D01*
X159829047Y-123997380D01*
X159638571Y-123997380D01*
X159543333Y-124045000D01*
X159495714Y-124092619D01*
X159448095Y-124187857D01*
X159448095Y-124425952D01*
X159495714Y-124521190D01*
X159543333Y-124568809D01*
X159638571Y-124616428D01*
X159829047Y-124616428D01*
X159924285Y-124568809D01*
X159971904Y-124521190D01*
X160019523Y-124425952D01*
X194770476Y-124949761D02*
X194913333Y-124997380D01*
X195151428Y-124997380D01*
X195246666Y-124949761D01*
X195294285Y-124902142D01*
X195341904Y-124806904D01*
X195341904Y-124711666D01*
X195294285Y-124616428D01*
X195246666Y-124568809D01*
X195151428Y-124521190D01*
X194960952Y-124473571D01*
X194865714Y-124425952D01*
X194818095Y-124378333D01*
X194770476Y-124283095D01*
X194770476Y-124187857D01*
X194818095Y-124092619D01*
X194865714Y-124045000D01*
X194960952Y-123997380D01*
X195199047Y-123997380D01*
X195341904Y-124045000D01*
X195675238Y-123997380D02*
X195913333Y-124997380D01*
X196103809Y-124283095D01*
X196294285Y-124997380D01*
X196532380Y-123997380D01*
X197341904Y-123997380D02*
X197151428Y-123997380D01*
X197056190Y-124045000D01*
X197008571Y-124092619D01*
X196913333Y-124235476D01*
X196865714Y-124425952D01*
X196865714Y-124806904D01*
X196913333Y-124902142D01*
X196960952Y-124949761D01*
X197056190Y-124997380D01*
X197246666Y-124997380D01*
X197341904Y-124949761D01*
X197389523Y-124902142D01*
X197437142Y-124806904D01*
X197437142Y-124568809D01*
X197389523Y-124473571D01*
X197341904Y-124425952D01*
X197246666Y-124378333D01*
X197056190Y-124378333D01*
X196960952Y-124425952D01*
X196913333Y-124473571D01*
X196865714Y-124568809D01*
X198056190Y-123997380D02*
X198151428Y-123997380D01*
X198246666Y-124045000D01*
X198294285Y-124092619D01*
X198341904Y-124187857D01*
X198389523Y-124378333D01*
X198389523Y-124616428D01*
X198341904Y-124806904D01*
X198294285Y-124902142D01*
X198246666Y-124949761D01*
X198151428Y-124997380D01*
X198056190Y-124997380D01*
X197960952Y-124949761D01*
X197913333Y-124902142D01*
X197865714Y-124806904D01*
X197818095Y-124616428D01*
X197818095Y-124378333D01*
X197865714Y-124187857D01*
X197913333Y-124092619D01*
X197960952Y-124045000D01*
X198056190Y-123997380D01*
X233140476Y-124949761D02*
X233283333Y-124997380D01*
X233521428Y-124997380D01*
X233616666Y-124949761D01*
X233664285Y-124902142D01*
X233711904Y-124806904D01*
X233711904Y-124711666D01*
X233664285Y-124616428D01*
X233616666Y-124568809D01*
X233521428Y-124521190D01*
X233330952Y-124473571D01*
X233235714Y-124425952D01*
X233188095Y-124378333D01*
X233140476Y-124283095D01*
X233140476Y-124187857D01*
X233188095Y-124092619D01*
X233235714Y-124045000D01*
X233330952Y-123997380D01*
X233569047Y-123997380D01*
X233711904Y-124045000D01*
X234045238Y-123997380D02*
X234283333Y-124997380D01*
X234473809Y-124283095D01*
X234664285Y-124997380D01*
X234902380Y-123997380D01*
X235711904Y-123997380D02*
X235521428Y-123997380D01*
X235426190Y-124045000D01*
X235378571Y-124092619D01*
X235283333Y-124235476D01*
X235235714Y-124425952D01*
X235235714Y-124806904D01*
X235283333Y-124902142D01*
X235330952Y-124949761D01*
X235426190Y-124997380D01*
X235616666Y-124997380D01*
X235711904Y-124949761D01*
X235759523Y-124902142D01*
X235807142Y-124806904D01*
X235807142Y-124568809D01*
X235759523Y-124473571D01*
X235711904Y-124425952D01*
X235616666Y-124378333D01*
X235426190Y-124378333D01*
X235330952Y-124425952D01*
X235283333Y-124473571D01*
X235235714Y-124568809D01*
X236759523Y-124997380D02*
X236188095Y-124997380D01*
X236473809Y-124997380D02*
X236473809Y-123997380D01*
X236378571Y-124140238D01*
X236283333Y-124235476D01*
X236188095Y-124283095D01*
X271530476Y-124949761D02*
X271673333Y-124997380D01*
X271911428Y-124997380D01*
X272006666Y-124949761D01*
X272054285Y-124902142D01*
X272101904Y-124806904D01*
X272101904Y-124711666D01*
X272054285Y-124616428D01*
X272006666Y-124568809D01*
X271911428Y-124521190D01*
X271720952Y-124473571D01*
X271625714Y-124425952D01*
X271578095Y-124378333D01*
X271530476Y-124283095D01*
X271530476Y-124187857D01*
X271578095Y-124092619D01*
X271625714Y-124045000D01*
X271720952Y-123997380D01*
X271959047Y-123997380D01*
X272101904Y-124045000D01*
X272435238Y-123997380D02*
X272673333Y-124997380D01*
X272863809Y-124283095D01*
X273054285Y-124997380D01*
X273292380Y-123997380D01*
X274101904Y-123997380D02*
X273911428Y-123997380D01*
X273816190Y-124045000D01*
X273768571Y-124092619D01*
X273673333Y-124235476D01*
X273625714Y-124425952D01*
X273625714Y-124806904D01*
X273673333Y-124902142D01*
X273720952Y-124949761D01*
X273816190Y-124997380D01*
X274006666Y-124997380D01*
X274101904Y-124949761D01*
X274149523Y-124902142D01*
X274197142Y-124806904D01*
X274197142Y-124568809D01*
X274149523Y-124473571D01*
X274101904Y-124425952D01*
X274006666Y-124378333D01*
X273816190Y-124378333D01*
X273720952Y-124425952D01*
X273673333Y-124473571D01*
X273625714Y-124568809D01*
X274578095Y-124092619D02*
X274625714Y-124045000D01*
X274720952Y-123997380D01*
X274959047Y-123997380D01*
X275054285Y-124045000D01*
X275101904Y-124092619D01*
X275149523Y-124187857D01*
X275149523Y-124283095D01*
X275101904Y-124425952D01*
X274530476Y-124997380D01*
X275149523Y-124997380D01*
X309910476Y-124949761D02*
X310053333Y-124997380D01*
X310291428Y-124997380D01*
X310386666Y-124949761D01*
X310434285Y-124902142D01*
X310481904Y-124806904D01*
X310481904Y-124711666D01*
X310434285Y-124616428D01*
X310386666Y-124568809D01*
X310291428Y-124521190D01*
X310100952Y-124473571D01*
X310005714Y-124425952D01*
X309958095Y-124378333D01*
X309910476Y-124283095D01*
X309910476Y-124187857D01*
X309958095Y-124092619D01*
X310005714Y-124045000D01*
X310100952Y-123997380D01*
X310339047Y-123997380D01*
X310481904Y-124045000D01*
X310815238Y-123997380D02*
X311053333Y-124997380D01*
X311243809Y-124283095D01*
X311434285Y-124997380D01*
X311672380Y-123997380D01*
X312481904Y-123997380D02*
X312291428Y-123997380D01*
X312196190Y-124045000D01*
X312148571Y-124092619D01*
X312053333Y-124235476D01*
X312005714Y-124425952D01*
X312005714Y-124806904D01*
X312053333Y-124902142D01*
X312100952Y-124949761D01*
X312196190Y-124997380D01*
X312386666Y-124997380D01*
X312481904Y-124949761D01*
X312529523Y-124902142D01*
X312577142Y-124806904D01*
X312577142Y-124568809D01*
X312529523Y-124473571D01*
X312481904Y-124425952D01*
X312386666Y-124378333D01*
X312196190Y-124378333D01*
X312100952Y-124425952D01*
X312053333Y-124473571D01*
X312005714Y-124568809D01*
X312910476Y-123997380D02*
X313529523Y-123997380D01*
X313196190Y-124378333D01*
X313339047Y-124378333D01*
X313434285Y-124425952D01*
X313481904Y-124473571D01*
X313529523Y-124568809D01*
X313529523Y-124806904D01*
X313481904Y-124902142D01*
X313434285Y-124949761D01*
X313339047Y-124997380D01*
X313053333Y-124997380D01*
X312958095Y-124949761D01*
X312910476Y-124902142D01*
X374100476Y-183229761D02*
X374243333Y-183277380D01*
X374481428Y-183277380D01*
X374576666Y-183229761D01*
X374624285Y-183182142D01*
X374671904Y-183086904D01*
X374671904Y-182991666D01*
X374624285Y-182896428D01*
X374576666Y-182848809D01*
X374481428Y-182801190D01*
X374290952Y-182753571D01*
X374195714Y-182705952D01*
X374148095Y-182658333D01*
X374100476Y-182563095D01*
X374100476Y-182467857D01*
X374148095Y-182372619D01*
X374195714Y-182325000D01*
X374290952Y-182277380D01*
X374529047Y-182277380D01*
X374671904Y-182325000D01*
X375005238Y-182277380D02*
X375243333Y-183277380D01*
X375433809Y-182563095D01*
X375624285Y-183277380D01*
X375862380Y-182277380D01*
X376671904Y-182277380D02*
X376481428Y-182277380D01*
X376386190Y-182325000D01*
X376338571Y-182372619D01*
X376243333Y-182515476D01*
X376195714Y-182705952D01*
X376195714Y-183086904D01*
X376243333Y-183182142D01*
X376290952Y-183229761D01*
X376386190Y-183277380D01*
X376576666Y-183277380D01*
X376671904Y-183229761D01*
X376719523Y-183182142D01*
X376767142Y-183086904D01*
X376767142Y-182848809D01*
X376719523Y-182753571D01*
X376671904Y-182705952D01*
X376576666Y-182658333D01*
X376386190Y-182658333D01*
X376290952Y-182705952D01*
X376243333Y-182753571D01*
X376195714Y-182848809D01*
X377624285Y-182610714D02*
X377624285Y-183277380D01*
X377386190Y-182229761D02*
X377148095Y-182944047D01*
X377767142Y-182944047D01*
X56720476Y-163309761D02*
X56863333Y-163357380D01*
X57101428Y-163357380D01*
X57196666Y-163309761D01*
X57244285Y-163262142D01*
X57291904Y-163166904D01*
X57291904Y-163071666D01*
X57244285Y-162976428D01*
X57196666Y-162928809D01*
X57101428Y-162881190D01*
X56910952Y-162833571D01*
X56815714Y-162785952D01*
X56768095Y-162738333D01*
X56720476Y-162643095D01*
X56720476Y-162547857D01*
X56768095Y-162452619D01*
X56815714Y-162405000D01*
X56910952Y-162357380D01*
X57149047Y-162357380D01*
X57291904Y-162405000D01*
X57625238Y-162357380D02*
X57863333Y-163357380D01*
X58053809Y-162643095D01*
X58244285Y-163357380D01*
X58482380Y-162357380D01*
X59291904Y-162357380D02*
X59101428Y-162357380D01*
X59006190Y-162405000D01*
X58958571Y-162452619D01*
X58863333Y-162595476D01*
X58815714Y-162785952D01*
X58815714Y-163166904D01*
X58863333Y-163262142D01*
X58910952Y-163309761D01*
X59006190Y-163357380D01*
X59196666Y-163357380D01*
X59291904Y-163309761D01*
X59339523Y-163262142D01*
X59387142Y-163166904D01*
X59387142Y-162928809D01*
X59339523Y-162833571D01*
X59291904Y-162785952D01*
X59196666Y-162738333D01*
X59006190Y-162738333D01*
X58910952Y-162785952D01*
X58863333Y-162833571D01*
X58815714Y-162928809D01*
X60291904Y-162357380D02*
X59815714Y-162357380D01*
X59768095Y-162833571D01*
X59815714Y-162785952D01*
X59910952Y-162738333D01*
X60149047Y-162738333D01*
X60244285Y-162785952D01*
X60291904Y-162833571D01*
X60339523Y-162928809D01*
X60339523Y-163166904D01*
X60291904Y-163262142D01*
X60244285Y-163309761D01*
X60149047Y-163357380D01*
X59910952Y-163357380D01*
X59815714Y-163309761D01*
X59768095Y-163262142D01*
X324330476Y-144149761D02*
X324473333Y-144197380D01*
X324711428Y-144197380D01*
X324806666Y-144149761D01*
X324854285Y-144102142D01*
X324901904Y-144006904D01*
X324901904Y-143911666D01*
X324854285Y-143816428D01*
X324806666Y-143768809D01*
X324711428Y-143721190D01*
X324520952Y-143673571D01*
X324425714Y-143625952D01*
X324378095Y-143578333D01*
X324330476Y-143483095D01*
X324330476Y-143387857D01*
X324378095Y-143292619D01*
X324425714Y-143245000D01*
X324520952Y-143197380D01*
X324759047Y-143197380D01*
X324901904Y-143245000D01*
X325235238Y-143197380D02*
X325473333Y-144197380D01*
X325663809Y-143483095D01*
X325854285Y-144197380D01*
X326092380Y-143197380D01*
X326901904Y-143197380D02*
X326711428Y-143197380D01*
X326616190Y-143245000D01*
X326568571Y-143292619D01*
X326473333Y-143435476D01*
X326425714Y-143625952D01*
X326425714Y-144006904D01*
X326473333Y-144102142D01*
X326520952Y-144149761D01*
X326616190Y-144197380D01*
X326806666Y-144197380D01*
X326901904Y-144149761D01*
X326949523Y-144102142D01*
X326997142Y-144006904D01*
X326997142Y-143768809D01*
X326949523Y-143673571D01*
X326901904Y-143625952D01*
X326806666Y-143578333D01*
X326616190Y-143578333D01*
X326520952Y-143625952D01*
X326473333Y-143673571D01*
X326425714Y-143768809D01*
X327854285Y-143197380D02*
X327663809Y-143197380D01*
X327568571Y-143245000D01*
X327520952Y-143292619D01*
X327425714Y-143435476D01*
X327378095Y-143625952D01*
X327378095Y-144006904D01*
X327425714Y-144102142D01*
X327473333Y-144149761D01*
X327568571Y-144197380D01*
X327759047Y-144197380D01*
X327854285Y-144149761D01*
X327901904Y-144102142D01*
X327949523Y-144006904D01*
X327949523Y-143768809D01*
X327901904Y-143673571D01*
X327854285Y-143625952D01*
X327759047Y-143578333D01*
X327568571Y-143578333D01*
X327473333Y-143625952D01*
X327425714Y-143673571D01*
X327378095Y-143768809D01*
M02*
