G04 #@! TF.GenerationSoftware,KiCad,Pcbnew,(5.1.5)-2*
G04 #@! TF.CreationDate,2020-03-07T20:44:29+01:00*
G04 #@! TF.ProjectId,VIC20_kbd,56494332-305f-46b6-9264-2e6b69636164,rev?*
G04 #@! TF.SameCoordinates,Original*
G04 #@! TF.FileFunction,Other,User*
%FSLAX46Y46*%
G04 Gerber Fmt 4.6, Leading zero omitted, Abs format (unit mm)*
G04 Created by KiCad (PCBNEW (5.1.5)-2) date 2020-03-07 20:44:29*
%MOMM*%
%LPD*%
G04 APERTURE LIST*
%ADD10C,0.050000*%
G04 APERTURE END LIST*
D10*
X7410000Y-135340000D02*
X4910000Y-135340000D01*
X7410000Y-135340000D02*
X7410000Y-133940000D01*
X4910000Y-133940000D02*
X4910000Y-135340000D01*
X4910000Y-133940000D02*
X7410000Y-133940000D01*
X8550000Y-134040000D02*
X11350000Y-134040000D01*
X8550000Y-134040000D02*
X8550000Y-135340000D01*
X11350000Y-135340000D02*
X11350000Y-134040000D01*
X11350000Y-135340000D02*
X8550000Y-135340000D01*
X16060000Y-134750000D02*
X16060000Y-137550000D01*
X16060000Y-134750000D02*
X14760000Y-134750000D01*
X14760000Y-137550000D02*
X16060000Y-137550000D01*
X14760000Y-137550000D02*
X14760000Y-134750000D01*
X324170000Y-130900000D02*
X324170000Y-116420000D01*
X338650000Y-130900000D02*
X324170000Y-130900000D01*
X338650000Y-116420000D02*
X338650000Y-130900000D01*
X324170000Y-116420000D02*
X338650000Y-116420000D01*
X10530000Y-72620000D02*
X10530000Y-58140000D01*
X25010000Y-72620000D02*
X10530000Y-72620000D01*
X25010000Y-58140000D02*
X25010000Y-72620000D01*
X10530000Y-58140000D02*
X25010000Y-58140000D01*
X199670000Y-44640000D02*
X147820000Y-44640000D01*
X147820000Y-44640000D02*
X147820000Y-48240000D01*
X147820000Y-48240000D02*
X199670000Y-48240000D01*
X199670000Y-48240000D02*
X199670000Y-44640000D01*
X48920000Y-72620000D02*
X48920000Y-58140000D01*
X63400000Y-72620000D02*
X48920000Y-72620000D01*
X63400000Y-58140000D02*
X63400000Y-72620000D01*
X48920000Y-58140000D02*
X63400000Y-58140000D01*
X87280000Y-72620000D02*
X87280000Y-58140000D01*
X101760000Y-72620000D02*
X87280000Y-72620000D01*
X101760000Y-58140000D02*
X101760000Y-72620000D01*
X87280000Y-58140000D02*
X101760000Y-58140000D01*
X125640000Y-72620000D02*
X125640000Y-58140000D01*
X140120000Y-72620000D02*
X125640000Y-72620000D01*
X140120000Y-58140000D02*
X140120000Y-72620000D01*
X125640000Y-58140000D02*
X140120000Y-58140000D01*
X164040000Y-72620000D02*
X164040000Y-58140000D01*
X178520000Y-72620000D02*
X164040000Y-72620000D01*
X178520000Y-58140000D02*
X178520000Y-72620000D01*
X164040000Y-58140000D02*
X178520000Y-58140000D01*
X202410000Y-72620000D02*
X202410000Y-58140000D01*
X216890000Y-72620000D02*
X202410000Y-72620000D01*
X216890000Y-58140000D02*
X216890000Y-72620000D01*
X202410000Y-58140000D02*
X216890000Y-58140000D01*
X240790000Y-72620000D02*
X240790000Y-58140000D01*
X255270000Y-72620000D02*
X240790000Y-72620000D01*
X255270000Y-58140000D02*
X255270000Y-72620000D01*
X240790000Y-58140000D02*
X255270000Y-58140000D01*
X279170000Y-72620000D02*
X279170000Y-58140000D01*
X293650000Y-72620000D02*
X279170000Y-72620000D01*
X293650000Y-58140000D02*
X293650000Y-72620000D01*
X279170000Y-58140000D02*
X293650000Y-58140000D01*
X-8610000Y-72620000D02*
X-8610000Y-58140000D01*
X5870000Y-72620000D02*
X-8610000Y-72620000D01*
X5870000Y-58140000D02*
X5870000Y-72620000D01*
X-8610000Y-58140000D02*
X5870000Y-58140000D01*
X39320000Y-91820000D02*
X39320000Y-77340000D01*
X53800000Y-91820000D02*
X39320000Y-91820000D01*
X53800000Y-77340000D02*
X53800000Y-91820000D01*
X39320000Y-77340000D02*
X53800000Y-77340000D01*
X77720000Y-91820000D02*
X77720000Y-77340000D01*
X92200000Y-91820000D02*
X77720000Y-91820000D01*
X92200000Y-77340000D02*
X92200000Y-91820000D01*
X77720000Y-77340000D02*
X92200000Y-77340000D01*
X116110000Y-91820000D02*
X116110000Y-77340000D01*
X130590000Y-91820000D02*
X116110000Y-91820000D01*
X130590000Y-77340000D02*
X130590000Y-91820000D01*
X116110000Y-77340000D02*
X130590000Y-77340000D01*
X154470000Y-91820000D02*
X154470000Y-77340000D01*
X168950000Y-91820000D02*
X154470000Y-91820000D01*
X168950000Y-77340000D02*
X168950000Y-91820000D01*
X154470000Y-77340000D02*
X168950000Y-77340000D01*
X192880000Y-91820000D02*
X192880000Y-77340000D01*
X207360000Y-91820000D02*
X192880000Y-91820000D01*
X207360000Y-77340000D02*
X207360000Y-91820000D01*
X192880000Y-77340000D02*
X207360000Y-77340000D01*
X231290000Y-91830000D02*
X231290000Y-77350000D01*
X245770000Y-91830000D02*
X231290000Y-91830000D01*
X245770000Y-77350000D02*
X245770000Y-91830000D01*
X231290000Y-77350000D02*
X245770000Y-77350000D01*
X265750000Y-110980000D02*
X265750000Y-96500000D01*
X280230000Y-110980000D02*
X265750000Y-110980000D01*
X280230000Y-96500000D02*
X280230000Y-110980000D01*
X265750000Y-96500000D02*
X280230000Y-96500000D01*
X-3840000Y-91820000D02*
X-3840000Y-77340000D01*
X10640000Y-91820000D02*
X-3840000Y-91820000D01*
X10640000Y-77340000D02*
X10640000Y-91820000D01*
X-3840000Y-77340000D02*
X10640000Y-77340000D01*
X25990000Y-111000000D02*
X25990000Y-96520000D01*
X40470000Y-111000000D02*
X25990000Y-111000000D01*
X40470000Y-96520000D02*
X40470000Y-111000000D01*
X25990000Y-96520000D02*
X40470000Y-96520000D01*
X64350000Y-110980000D02*
X64350000Y-96500000D01*
X78830000Y-110980000D02*
X64350000Y-110980000D01*
X78830000Y-96500000D02*
X78830000Y-110980000D01*
X64350000Y-96500000D02*
X78830000Y-96500000D01*
X102740000Y-110980000D02*
X102740000Y-96500000D01*
X117220000Y-110980000D02*
X102740000Y-110980000D01*
X117220000Y-96500000D02*
X117220000Y-110980000D01*
X102740000Y-96500000D02*
X117220000Y-96500000D01*
X141120000Y-110980000D02*
X141120000Y-96500000D01*
X155600000Y-110980000D02*
X141120000Y-110980000D01*
X155600000Y-96500000D02*
X155600000Y-110980000D01*
X141120000Y-96500000D02*
X155600000Y-96500000D01*
X179490000Y-110980000D02*
X179490000Y-96500000D01*
X193970000Y-110980000D02*
X179490000Y-110980000D01*
X193970000Y-96500000D02*
X193970000Y-110980000D01*
X179490000Y-96500000D02*
X193970000Y-96500000D01*
X217850000Y-110980000D02*
X217850000Y-96500000D01*
X232330000Y-110980000D02*
X217850000Y-110980000D01*
X232330000Y-96500000D02*
X232330000Y-110980000D01*
X217850000Y-96500000D02*
X232330000Y-96500000D01*
X275370000Y-130190000D02*
X275370000Y-115710000D01*
X289850000Y-130190000D02*
X275370000Y-130190000D01*
X289850000Y-115710000D02*
X289850000Y-130190000D01*
X275370000Y-115710000D02*
X289850000Y-115710000D01*
X-12410000Y-111000000D02*
X-12410000Y-96520000D01*
X2070000Y-111000000D02*
X-12410000Y-111000000D01*
X2070000Y-96520000D02*
X2070000Y-111000000D01*
X-12410000Y-96520000D02*
X2070000Y-96520000D01*
X11530000Y-130190000D02*
X11530000Y-115710000D01*
X26010000Y-130190000D02*
X11530000Y-130190000D01*
X26010000Y-115710000D02*
X26010000Y-130190000D01*
X11530000Y-115710000D02*
X26010000Y-115710000D01*
X54690000Y-130190000D02*
X54690000Y-115710000D01*
X69170000Y-130190000D02*
X54690000Y-130190000D01*
X69170000Y-115710000D02*
X69170000Y-130190000D01*
X54690000Y-115710000D02*
X69170000Y-115710000D01*
X93100000Y-130190000D02*
X93100000Y-115710000D01*
X107580000Y-130190000D02*
X93100000Y-130190000D01*
X107580000Y-115710000D02*
X107580000Y-130190000D01*
X93100000Y-115710000D02*
X107580000Y-115710000D01*
X131500000Y-130190000D02*
X131500000Y-115710000D01*
X145980000Y-130190000D02*
X131500000Y-130190000D01*
X145980000Y-115710000D02*
X145980000Y-130190000D01*
X131500000Y-115710000D02*
X145980000Y-115710000D01*
X169900000Y-130190000D02*
X169900000Y-115710000D01*
X184380000Y-130190000D02*
X169900000Y-130190000D01*
X184380000Y-115710000D02*
X184380000Y-130190000D01*
X169900000Y-115710000D02*
X184380000Y-115710000D01*
X208290000Y-130190000D02*
X208290000Y-115710000D01*
X222770000Y-130190000D02*
X208290000Y-130190000D01*
X222770000Y-115710000D02*
X222770000Y-130190000D01*
X208290000Y-115710000D02*
X222770000Y-115710000D01*
X256190000Y-130190000D02*
X256190000Y-115710000D01*
X270670000Y-130190000D02*
X256190000Y-130190000D01*
X270670000Y-115710000D02*
X270670000Y-130190000D01*
X256190000Y-115710000D02*
X270670000Y-115710000D01*
X116370000Y-149380000D02*
X116370000Y-134900000D01*
X130850000Y-149380000D02*
X116370000Y-149380000D01*
X130850000Y-134900000D02*
X130850000Y-149380000D01*
X116370000Y-134900000D02*
X130850000Y-134900000D01*
X35480000Y-130200000D02*
X35480000Y-115720000D01*
X49960000Y-130200000D02*
X35480000Y-130200000D01*
X49960000Y-115720000D02*
X49960000Y-130200000D01*
X35480000Y-115720000D02*
X49960000Y-115720000D01*
X73890000Y-130190000D02*
X73890000Y-115710000D01*
X88370000Y-130190000D02*
X73890000Y-130190000D01*
X88370000Y-115710000D02*
X88370000Y-130190000D01*
X73890000Y-115710000D02*
X88370000Y-115710000D01*
X112290000Y-130190000D02*
X112290000Y-115710000D01*
X126770000Y-130190000D02*
X112290000Y-130190000D01*
X126770000Y-115710000D02*
X126770000Y-130190000D01*
X112290000Y-115710000D02*
X126770000Y-115710000D01*
X150700000Y-130190000D02*
X150700000Y-115710000D01*
X165180000Y-130190000D02*
X150700000Y-130190000D01*
X165180000Y-115710000D02*
X165180000Y-130190000D01*
X150700000Y-115710000D02*
X165180000Y-115710000D01*
X189100000Y-130190000D02*
X189100000Y-115710000D01*
X203580000Y-130190000D02*
X189100000Y-130190000D01*
X203580000Y-115710000D02*
X203580000Y-130190000D01*
X189100000Y-115710000D02*
X203580000Y-115710000D01*
X232240000Y-130190000D02*
X232240000Y-115710000D01*
X246720000Y-130190000D02*
X232240000Y-130190000D01*
X246720000Y-115710000D02*
X246720000Y-130190000D01*
X232240000Y-115710000D02*
X246720000Y-115710000D01*
X324170000Y-73030000D02*
X324170000Y-58550000D01*
X338650000Y-73030000D02*
X324170000Y-73030000D01*
X338650000Y-58550000D02*
X338650000Y-73030000D01*
X324170000Y-58550000D02*
X338650000Y-58550000D01*
X-12420000Y-130200000D02*
X-12420000Y-115720000D01*
X2060000Y-130200000D02*
X-12420000Y-130200000D01*
X2060000Y-115720000D02*
X2060000Y-130200000D01*
X-12420000Y-115720000D02*
X2060000Y-115720000D01*
X45190000Y-110980000D02*
X45190000Y-96500000D01*
X59670000Y-110980000D02*
X45190000Y-110980000D01*
X59670000Y-96500000D02*
X59670000Y-110980000D01*
X45190000Y-96500000D02*
X59670000Y-96500000D01*
X83540000Y-110980000D02*
X83540000Y-96500000D01*
X98020000Y-110980000D02*
X83540000Y-110980000D01*
X98020000Y-96500000D02*
X98020000Y-110980000D01*
X83540000Y-96500000D02*
X98020000Y-96500000D01*
X121920000Y-110980000D02*
X121920000Y-96500000D01*
X136400000Y-110980000D02*
X121920000Y-110980000D01*
X136400000Y-96500000D02*
X136400000Y-110980000D01*
X121920000Y-96500000D02*
X136400000Y-96500000D01*
X160280000Y-110980000D02*
X160280000Y-96500000D01*
X174760000Y-110980000D02*
X160280000Y-110980000D01*
X174760000Y-96500000D02*
X174760000Y-110980000D01*
X160280000Y-96500000D02*
X174760000Y-96500000D01*
X198650000Y-110980000D02*
X198650000Y-96500000D01*
X213130000Y-110980000D02*
X198650000Y-110980000D01*
X213130000Y-96500000D02*
X213130000Y-110980000D01*
X198650000Y-96500000D02*
X213130000Y-96500000D01*
X237040000Y-111000000D02*
X237040000Y-96520000D01*
X251520000Y-111000000D02*
X237040000Y-111000000D01*
X251520000Y-96520000D02*
X251520000Y-111000000D01*
X237040000Y-96520000D02*
X251520000Y-96520000D01*
X324170000Y-92310000D02*
X324170000Y-77830000D01*
X338650000Y-92310000D02*
X324170000Y-92310000D01*
X338650000Y-77830000D02*
X338650000Y-92310000D01*
X324170000Y-77830000D02*
X338650000Y-77830000D01*
X20120000Y-91820000D02*
X20120000Y-77340000D01*
X34600000Y-91820000D02*
X20120000Y-91820000D01*
X34600000Y-77340000D02*
X34600000Y-91820000D01*
X20120000Y-77340000D02*
X34600000Y-77340000D01*
X58520000Y-91820000D02*
X58520000Y-77340000D01*
X73000000Y-91820000D02*
X58520000Y-91820000D01*
X73000000Y-77340000D02*
X73000000Y-91820000D01*
X58520000Y-77340000D02*
X73000000Y-77340000D01*
X96910000Y-91820000D02*
X96910000Y-77340000D01*
X111390000Y-91820000D02*
X96910000Y-91820000D01*
X111390000Y-77340000D02*
X111390000Y-91820000D01*
X96910000Y-77340000D02*
X111390000Y-77340000D01*
X135290000Y-91820000D02*
X135290000Y-77340000D01*
X149770000Y-91820000D02*
X135290000Y-91820000D01*
X149770000Y-77340000D02*
X149770000Y-91820000D01*
X135290000Y-77340000D02*
X149770000Y-77340000D01*
X173680000Y-91820000D02*
X173680000Y-77340000D01*
X188160000Y-91820000D02*
X173680000Y-91820000D01*
X188160000Y-77340000D02*
X188160000Y-91820000D01*
X173680000Y-77340000D02*
X188160000Y-77340000D01*
X212080000Y-91820000D02*
X212080000Y-77340000D01*
X226560000Y-91820000D02*
X212080000Y-91820000D01*
X226560000Y-77340000D02*
X226560000Y-91820000D01*
X212080000Y-77340000D02*
X226560000Y-77340000D01*
X250430000Y-91830000D02*
X250430000Y-77350000D01*
X264910000Y-91830000D02*
X250430000Y-91830000D01*
X264910000Y-77350000D02*
X264910000Y-91830000D01*
X250430000Y-77350000D02*
X264910000Y-77350000D01*
X324170000Y-111620000D02*
X324170000Y-97140000D01*
X338650000Y-111620000D02*
X324170000Y-111620000D01*
X338650000Y-97140000D02*
X338650000Y-111620000D01*
X324170000Y-97140000D02*
X338650000Y-97140000D01*
X29720000Y-72620000D02*
X29720000Y-58140000D01*
X44200000Y-72620000D02*
X29720000Y-72620000D01*
X44200000Y-58140000D02*
X44200000Y-72620000D01*
X29720000Y-58140000D02*
X44200000Y-58140000D01*
X68090000Y-72620000D02*
X68090000Y-58140000D01*
X82570000Y-72620000D02*
X68090000Y-72620000D01*
X82570000Y-58140000D02*
X82570000Y-72620000D01*
X68090000Y-58140000D02*
X82570000Y-58140000D01*
X106470000Y-72620000D02*
X106470000Y-58140000D01*
X120950000Y-72620000D02*
X106470000Y-72620000D01*
X120950000Y-58140000D02*
X120950000Y-72620000D01*
X106470000Y-58140000D02*
X120950000Y-58140000D01*
X144840000Y-72620000D02*
X144840000Y-58140000D01*
X159320000Y-72620000D02*
X144840000Y-72620000D01*
X159320000Y-58140000D02*
X159320000Y-72620000D01*
X144840000Y-58140000D02*
X159320000Y-58140000D01*
X183210000Y-72620000D02*
X183210000Y-58140000D01*
X197690000Y-72620000D02*
X183210000Y-72620000D01*
X197690000Y-58140000D02*
X197690000Y-72620000D01*
X183210000Y-58140000D02*
X197690000Y-58140000D01*
X221600000Y-72620000D02*
X221600000Y-58140000D01*
X236080000Y-72620000D02*
X221600000Y-72620000D01*
X236080000Y-58140000D02*
X236080000Y-72620000D01*
X221600000Y-58140000D02*
X236080000Y-58140000D01*
X259980000Y-72620000D02*
X259980000Y-58140000D01*
X274460000Y-72620000D02*
X259980000Y-72620000D01*
X274460000Y-58140000D02*
X274460000Y-72620000D01*
X259980000Y-58140000D02*
X274460000Y-58140000D01*
X6790000Y-110980000D02*
X6790000Y-96500000D01*
X21270000Y-110980000D02*
X6790000Y-110980000D01*
X21270000Y-96500000D02*
X21270000Y-110980000D01*
X6790000Y-96500000D02*
X21270000Y-96500000D01*
X274400000Y-91820000D02*
X274400000Y-77340000D01*
X288880000Y-91820000D02*
X274400000Y-91820000D01*
X288880000Y-77340000D02*
X288880000Y-91820000D01*
X274400000Y-77340000D02*
X288880000Y-77340000D01*
X150910000Y-40920000D02*
G75*
G03X150910000Y-40920000I-2450000J0D01*
G01*
X163490000Y-40920000D02*
G75*
G03X163490000Y-40920000I-2450000J0D01*
G01*
X176190000Y-40920000D02*
G75*
G03X176190000Y-40920000I-2450000J0D01*
G01*
X188890000Y-40920000D02*
G75*
G03X188890000Y-40920000I-2450000J0D01*
G01*
X201570000Y-40920000D02*
G75*
G03X201570000Y-40920000I-2450000J0D01*
G01*
X348270000Y-57000000D02*
G75*
G03X348270000Y-57000000I-2450000J0D01*
G01*
X348270000Y-149260000D02*
G75*
G03X348270000Y-149260000I-2450000J0D01*
G01*
X195870000Y-134410000D02*
G75*
G03X195870000Y-134410000I-2450000J0D01*
G01*
X54560000Y-134400000D02*
G75*
G03X54560000Y-134400000I-2450000J0D01*
G01*
X-12210000Y-149260000D02*
G75*
G03X-12210000Y-149260000I-2450000J0D01*
G01*
X-12210000Y-57000000D02*
G75*
G03X-12210000Y-57000000I-2450000J0D01*
G01*
X306700000Y-63760000D02*
G75*
G03X306700000Y-63760000I-2450000J0D01*
G01*
X87330000Y-73990000D02*
G75*
G03X87330000Y-73990000I-2450000J0D01*
G01*
X193110000Y-93520000D02*
G75*
G03X193110000Y-93520000I-2450000J0D01*
G01*
X116130000Y-93520000D02*
G75*
G03X116130000Y-93520000I-2450000J0D01*
G01*
X95630000Y-149260000D02*
G75*
G03X95630000Y-149260000I-2450000J0D01*
G01*
X147600000Y-149260000D02*
G75*
G03X147600000Y-149260000I-2450000J0D01*
G01*
X299320000Y-134400000D02*
G75*
G03X299320000Y-134400000I-2450000J0D01*
G01*
X64560000Y-135150000D02*
G75*
G03X64560000Y-135150000I-3450000J0D01*
G01*
X189560000Y-135150000D02*
G75*
G03X189560000Y-135150000I-3450000J0D01*
G01*
X190360000Y-150380000D02*
G75*
G03X190360000Y-150380000I-4250000J0D01*
G01*
X65360000Y-150380000D02*
G75*
G03X65360000Y-150380000I-4250000J0D01*
G01*
X10470000Y-110820000D02*
X4020000Y-110820000D01*
X10470000Y-117320000D02*
X10470000Y-110820000D01*
X4020000Y-117320000D02*
X10470000Y-117320000D01*
X4020000Y-110820000D02*
X4020000Y-117320000D01*
X27320000Y-137710000D02*
X23820000Y-137710000D01*
X27320000Y-134310000D02*
X27320000Y-137710000D01*
X23820000Y-134310000D02*
X27320000Y-134310000D01*
X23820000Y-137710000D02*
X23820000Y-134310000D01*
X20430000Y-134900000D02*
X20430000Y-137400000D01*
X20430000Y-134900000D02*
X19030000Y-134900000D01*
X19030000Y-137400000D02*
X20430000Y-137400000D01*
X19030000Y-137400000D02*
X19030000Y-134900000D01*
X21100000Y-139360000D02*
X23600000Y-139360000D01*
X21100000Y-139360000D02*
X21100000Y-140760000D01*
X23600000Y-140760000D02*
X23600000Y-139360000D01*
X23600000Y-140760000D02*
X21100000Y-140760000D01*
X21420000Y-137400000D02*
X21420000Y-134900000D01*
X21420000Y-137400000D02*
X22820000Y-137400000D01*
X22820000Y-134900000D02*
X21420000Y-134900000D01*
X22820000Y-134900000D02*
X22820000Y-137400000D01*
X18180000Y-138900000D02*
X18180000Y-141400000D01*
X18180000Y-138900000D02*
X16780000Y-138900000D01*
X16780000Y-141400000D02*
X18180000Y-141400000D01*
X16780000Y-141400000D02*
X16780000Y-138900000D01*
X16690000Y-137440000D02*
X16690000Y-134940000D01*
X16690000Y-137440000D02*
X18090000Y-137440000D01*
X18090000Y-134940000D02*
X16690000Y-134940000D01*
X18090000Y-134940000D02*
X18090000Y-137440000D01*
X12700000Y-137260000D02*
X5240000Y-137260000D01*
X12700000Y-142660000D02*
X5240000Y-142660000D01*
X5240000Y-142660000D02*
X5240000Y-137260000D01*
X12700000Y-142660000D02*
X12700000Y-137260000D01*
M02*
