M48
; DRILL file {KiCad (5.1.5)-2} date 2021-01-09 12:48:28
; FORMAT={-:-/ absolute / metric / decimal}
; #@! TF.CreationDate,2021-01-09T12:48:28+01:00
; #@! TF.GenerationSoftware,Kicad,Pcbnew,(5.1.5)-2
; #@! TF.FileFunction,NonPlated,1,2,NPTH
FMAT,2
METRIC
T1C1.702
T2C2.200
T3C3.000
T4C3.200
T5C3.500
T6C3.988
T7C4.000
%
G90
G05
T1
X264.51Y-171.16
X274.67Y-171.16
X38.05Y-132.8
X48.21Y-132.8
X143.57Y-152.0
X153.73Y-152.0
X66.78Y-152.0
X76.94Y-152.0
X114.75Y-132.8
X124.91Y-132.8
X172.3Y-132.8
X182.46Y-132.8
X153.13Y-132.8
X163.29Y-132.8
X321.06Y-152.0
X331.22Y-152.0
X187.78Y-171.16
X197.94Y-171.16
X111.01Y-171.16
X121.17Y-171.16
X325.83Y-132.8
X335.99Y-132.8
X283.7Y-171.18
X293.86Y-171.18
X168.58Y-171.16
X178.74Y-171.16
X206.94Y-171.16
X217.1Y-171.16
X133.94Y-132.8
X144.1Y-132.8
X158.95Y-190.37
X169.11Y-190.37
X197.36Y-190.37
X207.52Y-190.37
X322.03Y-190.37
X332.19Y-190.37
X139.76Y-190.37
X149.92Y-190.37
X72.65Y-171.18
X82.81Y-171.18
X287.45Y-132.8
X297.61Y-132.8
X370.83Y-191.08
X380.99Y-191.08
X278.9Y-190.37
X289.06Y-190.37
X53.45Y-171.16
X63.61Y-171.16
X76.38Y-132.8
X86.54Y-132.8
X95.58Y-132.8
X105.74Y-132.8
X370.83Y-171.8
X380.99Y-171.8
X302.85Y-190.37
X313.01Y-190.37
X226.15Y-171.16
X236.31Y-171.16
X101.35Y-190.37
X111.51Y-190.37
X249.07Y-132.8
X259.23Y-132.8
X268.26Y-132.8
X278.42Y-132.8
X130.2Y-171.16
X140.36Y-171.16
X306.64Y-132.8
X316.8Y-132.8
X220.34Y-152.0
X230.5Y-152.0
X57.19Y-132.8
X67.35Y-132.8
X254.95Y-190.37
X265.11Y-190.37
X34.24Y-190.38
X44.4Y-190.38
X149.4Y-171.16
X159.56Y-171.16
X42.82Y-152.0
X52.98Y-152.0
X239.54Y-152.0
X249.7Y-152.0
X370.83Y-152.49
X380.99Y-152.49
X178.16Y-190.37
X188.32Y-190.37
X229.87Y-132.8
X240.03Y-132.8
X82.14Y-190.38
X92.3Y-190.38
X91.85Y-171.16
X102.01Y-171.16
X245.31Y-171.16
X255.47Y-171.16
X58.19Y-190.37
X68.35Y-190.37
X162.77Y-152.0
X172.93Y-152.0
X312.41Y-171.16
X322.57Y-171.16
X85.98Y-152.0
X96.14Y-152.0
X181.95Y-152.0
X192.11Y-152.0
X105.18Y-152.0
X115.34Y-152.0
X258.74Y-152.0
X268.9Y-152.0
X216.56Y-190.37
X226.72Y-190.37
X120.55Y-190.37
X130.71Y-190.37
X34.25Y-171.18
X44.41Y-171.18
X201.13Y-152.0
X211.29Y-152.0
X277.95Y-152.01
X288.11Y-152.01
X124.38Y-152.0
X134.54Y-152.0
X297.09Y-152.01
X307.25Y-152.01
X163.03Y-209.56
X173.19Y-209.56
X191.5Y-132.8
X201.66Y-132.8
X210.7Y-132.8
X220.86Y-132.8
X370.83Y-133.21
X380.99Y-133.21
X235.76Y-190.37
X245.92Y-190.37
T2
X129.38Y-141.41
T3
X267.05Y-176.24
X273.4Y-173.7
X40.59Y-137.88
X46.94Y-135.34
X146.11Y-157.08
X152.46Y-154.54
X69.32Y-157.08
X75.67Y-154.54
X117.29Y-137.88
X123.64Y-135.34
X174.84Y-137.88
X181.19Y-135.34
X155.67Y-137.88
X162.02Y-135.34
X323.6Y-157.08
X329.95Y-154.54
X190.32Y-176.24
X196.67Y-173.7
X113.55Y-176.24
X119.9Y-173.7
X328.37Y-137.88
X334.72Y-135.34
X286.24Y-176.26
X292.59Y-173.72
X171.12Y-176.24
X177.47Y-173.7
X209.48Y-176.24
X215.83Y-173.7
X136.48Y-137.88
X142.83Y-135.34
X161.49Y-195.45
X167.84Y-192.91
X199.9Y-195.45
X206.25Y-192.91
X324.57Y-195.45
X330.92Y-192.91
X142.3Y-195.45
X148.65Y-192.91
X75.19Y-176.26
X81.54Y-173.72
X289.99Y-137.88
X296.34Y-135.34
X373.37Y-196.16
X379.72Y-193.62
X281.44Y-195.45
X287.79Y-192.91
X55.99Y-176.24
X62.34Y-173.7
X78.92Y-137.88
X85.27Y-135.34
X98.12Y-137.88
X104.47Y-135.34
X373.37Y-176.88
X379.72Y-174.34
X305.39Y-195.45
X311.74Y-192.91
X228.69Y-176.24
X235.04Y-173.7
X103.89Y-195.45
X110.24Y-192.91
X251.61Y-137.88
X257.96Y-135.34
X270.8Y-137.88
X277.15Y-135.34
X132.74Y-176.24
X139.09Y-173.7
X309.18Y-137.88
X315.53Y-135.34
X222.88Y-157.08
X229.23Y-154.54
X59.73Y-137.88
X66.08Y-135.34
X257.49Y-195.45
X263.84Y-192.91
X36.78Y-195.46
X43.13Y-192.92
X151.94Y-176.24
X158.29Y-173.7
X45.36Y-157.08
X51.71Y-154.54
X242.08Y-157.08
X248.43Y-154.54
X373.37Y-157.57
X379.72Y-155.03
X180.7Y-195.45
X187.05Y-192.91
X232.41Y-137.88
X238.76Y-135.34
X84.68Y-195.46
X91.03Y-192.92
X94.39Y-176.24
X100.74Y-173.7
X247.85Y-176.24
X254.2Y-173.7
X60.73Y-195.45
X67.08Y-192.91
X165.31Y-157.08
X171.66Y-154.54
X314.95Y-176.24
X321.3Y-173.7
X88.52Y-157.08
X94.87Y-154.54
X184.49Y-157.08
X190.84Y-154.54
X107.72Y-157.08
X114.07Y-154.54
X261.28Y-157.08
X267.63Y-154.54
X219.1Y-195.45
X225.45Y-192.91
X123.09Y-195.45
X129.44Y-192.91
X36.79Y-176.26
X43.14Y-173.72
X203.67Y-157.08
X210.02Y-154.54
X280.49Y-157.09
X286.84Y-154.55
X126.92Y-157.08
X133.27Y-154.54
X299.63Y-157.09
X305.98Y-154.55
X165.57Y-214.64
X171.92Y-212.1
X194.04Y-137.88
X200.39Y-135.34
X213.24Y-137.88
X219.59Y-135.34
X373.37Y-138.29
X379.72Y-135.75
X238.3Y-195.45
X244.65Y-192.91
T4
X230.61Y-202.57
X105.61Y-202.57
T5
X237.92Y-201.83
X29.84Y-124.42
X235.16Y-160.94
X158.18Y-160.94
X390.32Y-216.68
X96.61Y-201.82
X29.84Y-216.68
X205.54Y-108.34
X218.24Y-108.34
X189.65Y-216.68
X137.68Y-216.68
X390.32Y-124.42
X192.96Y-108.34
X341.37Y-201.82
X243.62Y-108.34
X348.75Y-131.18
X230.94Y-108.34
T6
X231.23Y-171.16
X106.43Y-190.37
X254.15Y-132.8
X273.34Y-132.8
X135.28Y-171.16
X311.72Y-132.8
X225.42Y-152.0
X62.27Y-132.8
X260.03Y-190.37
X39.32Y-190.38
X154.48Y-171.16
X47.9Y-152.0
X244.62Y-152.0
X375.91Y-152.49
X183.24Y-190.37
X234.95Y-132.8
X87.22Y-190.38
X96.93Y-171.16
X250.39Y-171.16
X63.27Y-190.37
X167.85Y-152.0
X317.49Y-171.16
X91.06Y-152.0
X187.03Y-152.0
X110.26Y-152.0
X263.82Y-152.0
X221.64Y-190.37
X125.63Y-190.37
X39.33Y-171.18
X206.21Y-152.0
X283.03Y-152.01
X129.46Y-152.0
X302.17Y-152.01
X168.11Y-209.56
X196.58Y-132.8
X215.78Y-132.8
X375.91Y-133.21
X240.84Y-190.37
X269.59Y-171.16
X43.13Y-132.8
X148.65Y-152.0
X71.86Y-152.0
X119.83Y-132.8
X177.38Y-132.8
X158.21Y-132.8
X326.14Y-152.0
X192.86Y-171.16
X116.09Y-171.16
X330.91Y-132.8
X288.78Y-171.18
X173.66Y-171.16
X212.02Y-171.16
X139.02Y-132.8
X164.03Y-190.37
X202.44Y-190.37
X327.11Y-190.37
X144.84Y-190.37
X77.73Y-171.18
X292.53Y-132.8
X375.91Y-191.08
X283.98Y-190.37
X58.53Y-171.16
X81.46Y-132.8
X100.66Y-132.8
X375.91Y-171.8
X307.93Y-190.37
T7
X105.61Y-217.8
X230.61Y-217.8
T0
M30
