G04 #@! TF.GenerationSoftware,KiCad,Pcbnew,(5.1.5)-2*
G04 #@! TF.CreationDate,2021-01-09T12:48:30+01:00*
G04 #@! TF.ProjectId,VIC20_kbd,56494332-305f-46b6-9264-2e6b69636164,2.0*
G04 #@! TF.SameCoordinates,Original*
G04 #@! TF.FileFunction,Copper,L2,Bot*
G04 #@! TF.FilePolarity,Positive*
%FSLAX46Y46*%
G04 Gerber Fmt 4.6, Leading zero omitted, Abs format (unit mm)*
G04 Created by KiCad (PCBNEW (5.1.5)-2) date 2021-01-09 12:48:30*
%MOMM*%
%LPD*%
G04 APERTURE LIST*
%ADD10R,0.600000X0.800000*%
%ADD11R,1.700000X1.700000*%
%ADD12O,1.700000X1.700000*%
%ADD13C,1.800000*%
%ADD14R,1.800000X1.800000*%
%ADD15R,2.550000X2.500000*%
%ADD16C,2.286000*%
%ADD17C,0.600000*%
%ADD18C,0.250000*%
G04 APERTURE END LIST*
D10*
X68620000Y-127780000D03*
X66920000Y-127780000D03*
X107070000Y-127710000D03*
X105370000Y-127710000D03*
X145510000Y-127710000D03*
X143810000Y-127710000D03*
X183880000Y-127710000D03*
X182180000Y-127710000D03*
X222210000Y-127710000D03*
X220510000Y-127710000D03*
X260530000Y-127710000D03*
X258830000Y-127710000D03*
X298860000Y-127710000D03*
X297160000Y-127710000D03*
X337230000Y-127710000D03*
X335530000Y-127710000D03*
X49500000Y-127710000D03*
X47800000Y-127710000D03*
X97500000Y-146910000D03*
X95800000Y-146910000D03*
X135950000Y-146870000D03*
X134250000Y-146870000D03*
X174240000Y-146910000D03*
X172540000Y-146910000D03*
X212570000Y-146910000D03*
X210870000Y-146910000D03*
X251010000Y-146910000D03*
X249310000Y-146910000D03*
X289490000Y-146950000D03*
X287790000Y-146950000D03*
X323930000Y-166040000D03*
X322230000Y-166040000D03*
X54380000Y-146910000D03*
X52680000Y-146910000D03*
X84130000Y-166110000D03*
X82430000Y-166110000D03*
X122500000Y-166070000D03*
X120800000Y-166070000D03*
X160830000Y-166070000D03*
X159130000Y-166070000D03*
X199310000Y-166070000D03*
X197610000Y-166070000D03*
X237670000Y-166040000D03*
X235970000Y-166040000D03*
X276000000Y-166070000D03*
X274300000Y-166070000D03*
X333570000Y-185300000D03*
X331870000Y-185300000D03*
X45760000Y-166110000D03*
X44060000Y-166110000D03*
X69680000Y-185300000D03*
X67980000Y-185300000D03*
X112790000Y-185300000D03*
X111090000Y-185300000D03*
X151210000Y-185300000D03*
X149510000Y-185300000D03*
X189600000Y-185300000D03*
X187900000Y-185300000D03*
X227990000Y-185300000D03*
X226290000Y-185300000D03*
X266460000Y-185300000D03*
X264760000Y-185300000D03*
X314320000Y-185300000D03*
X312620000Y-185300000D03*
X174470000Y-204520000D03*
X172770000Y-204520000D03*
X93540000Y-185300000D03*
X91840000Y-185300000D03*
X131990000Y-185300000D03*
X130290000Y-185300000D03*
X170410000Y-185330000D03*
X168710000Y-185330000D03*
X208880000Y-185300000D03*
X207180000Y-185300000D03*
X247210000Y-185300000D03*
X245510000Y-185300000D03*
X290400000Y-185300000D03*
X288700000Y-185300000D03*
X382420000Y-128130000D03*
X380720000Y-128130000D03*
X45740000Y-185330000D03*
X44040000Y-185330000D03*
X103370000Y-166070000D03*
X101670000Y-166070000D03*
X141740000Y-166070000D03*
X140040000Y-166070000D03*
X180110000Y-166070000D03*
X178410000Y-166070000D03*
X218400000Y-166070000D03*
X216700000Y-166070000D03*
X256840000Y-166070000D03*
X255140000Y-166070000D03*
X295130000Y-166110000D03*
X293430000Y-166110000D03*
X382420000Y-147410000D03*
X380720000Y-147410000D03*
X78230000Y-146910000D03*
X76530000Y-146910000D03*
X116710000Y-146910000D03*
X115010000Y-146910000D03*
X155110000Y-146950000D03*
X153410000Y-146950000D03*
X193440000Y-146910000D03*
X191740000Y-146910000D03*
X231880000Y-146910000D03*
X230180000Y-146910000D03*
X270290000Y-146910000D03*
X268590000Y-146910000D03*
X308580000Y-146910000D03*
X306880000Y-146910000D03*
X382420000Y-166720000D03*
X380720000Y-166720000D03*
X87830000Y-127710000D03*
X86130000Y-127710000D03*
X126190000Y-127670000D03*
X124490000Y-127670000D03*
X164600000Y-127710000D03*
X162900000Y-127710000D03*
X202930000Y-127670000D03*
X201230000Y-127670000D03*
X241410000Y-127750000D03*
X239710000Y-127750000D03*
X279770000Y-127710000D03*
X278070000Y-127710000D03*
X318100000Y-127710000D03*
X316400000Y-127710000D03*
X382420000Y-186000000D03*
X380720000Y-186000000D03*
D11*
X242370000Y-113860000D03*
D12*
X239830000Y-113860000D03*
X237290000Y-113860000D03*
X234750000Y-113860000D03*
X232210000Y-113860000D03*
X229670000Y-113860000D03*
X227130000Y-113860000D03*
X224590000Y-113860000D03*
X222050000Y-113860000D03*
X219510000Y-113860000D03*
X216970000Y-113860000D03*
X214430000Y-113860000D03*
X211890000Y-113860000D03*
X209350000Y-113860000D03*
X206810000Y-113860000D03*
X204270000Y-113860000D03*
X201730000Y-113860000D03*
X199190000Y-113860000D03*
X196650000Y-113860000D03*
X194110000Y-113860000D03*
D13*
X53010000Y-181490000D03*
D14*
X50470000Y-181490000D03*
D15*
X55980000Y-137880000D03*
D16*
X64810000Y-127720000D03*
X58460000Y-130260000D03*
D15*
X69830000Y-135340000D03*
X108220000Y-135340000D03*
D16*
X96850000Y-130260000D03*
X103200000Y-127720000D03*
D15*
X94370000Y-137880000D03*
X146580000Y-135340000D03*
D16*
X135210000Y-130260000D03*
X141560000Y-127720000D03*
D15*
X132730000Y-137880000D03*
X171090000Y-137880000D03*
D16*
X179920000Y-127720000D03*
X173570000Y-130260000D03*
D15*
X184940000Y-135340000D03*
X209490000Y-137880000D03*
D16*
X218320000Y-127720000D03*
X211970000Y-130260000D03*
D15*
X223340000Y-135340000D03*
X261710000Y-135340000D03*
D16*
X250340000Y-130260000D03*
X256690000Y-127720000D03*
D15*
X247860000Y-137880000D03*
X300090000Y-135340000D03*
D16*
X288720000Y-130260000D03*
X295070000Y-127720000D03*
D15*
X286240000Y-137880000D03*
X324620000Y-137880000D03*
D16*
X333450000Y-127720000D03*
X327100000Y-130260000D03*
D15*
X338470000Y-135340000D03*
X50690000Y-135340000D03*
D16*
X39320000Y-130260000D03*
X45670000Y-127720000D03*
D15*
X36840000Y-137880000D03*
X98620000Y-154540000D03*
D16*
X87250000Y-149460000D03*
X93600000Y-146920000D03*
D15*
X84770000Y-157080000D03*
X137020000Y-154540000D03*
D16*
X125650000Y-149460000D03*
X132000000Y-146920000D03*
D15*
X123170000Y-157080000D03*
X161560000Y-157080000D03*
D16*
X170390000Y-146920000D03*
X164040000Y-149460000D03*
D15*
X175410000Y-154540000D03*
X199920000Y-157080000D03*
D16*
X208750000Y-146920000D03*
X202400000Y-149460000D03*
D15*
X213770000Y-154540000D03*
X252180000Y-154540000D03*
D16*
X240810000Y-149460000D03*
X247160000Y-146920000D03*
D15*
X238330000Y-157080000D03*
X290590000Y-154550000D03*
D16*
X279220000Y-149470000D03*
X285570000Y-146930000D03*
D15*
X276740000Y-157090000D03*
X311200000Y-176240000D03*
D16*
X320030000Y-166080000D03*
X313680000Y-168620000D03*
D15*
X325050000Y-173700000D03*
X55460000Y-154540000D03*
D16*
X44090000Y-149460000D03*
X50440000Y-146920000D03*
D15*
X41610000Y-157080000D03*
X85290000Y-173720000D03*
D16*
X73920000Y-168640000D03*
X80270000Y-166100000D03*
D15*
X71440000Y-176260000D03*
X109800000Y-176240000D03*
D16*
X118630000Y-166080000D03*
X112280000Y-168620000D03*
D15*
X123650000Y-173700000D03*
X162040000Y-173700000D03*
D16*
X150670000Y-168620000D03*
X157020000Y-166080000D03*
D15*
X148190000Y-176240000D03*
X200420000Y-173700000D03*
D16*
X189050000Y-168620000D03*
X195400000Y-166080000D03*
D15*
X186570000Y-176240000D03*
X224940000Y-176240000D03*
D16*
X233770000Y-166080000D03*
X227420000Y-168620000D03*
D15*
X238790000Y-173700000D03*
X263300000Y-176240000D03*
D16*
X272130000Y-166080000D03*
X265780000Y-168620000D03*
D15*
X277150000Y-173700000D03*
X334670000Y-192910000D03*
D16*
X323300000Y-187830000D03*
X329650000Y-185290000D03*
D15*
X320820000Y-195450000D03*
X33040000Y-176260000D03*
D16*
X41870000Y-166100000D03*
X35520000Y-168640000D03*
D15*
X46890000Y-173720000D03*
X56980000Y-195450000D03*
D16*
X65810000Y-185290000D03*
X59460000Y-187830000D03*
D15*
X70830000Y-192910000D03*
X113990000Y-192910000D03*
D16*
X102620000Y-187830000D03*
X108970000Y-185290000D03*
D15*
X100140000Y-195450000D03*
X152400000Y-192910000D03*
D16*
X141030000Y-187830000D03*
X147380000Y-185290000D03*
D15*
X138550000Y-195450000D03*
X176950000Y-195450000D03*
D16*
X185780000Y-185290000D03*
X179430000Y-187830000D03*
D15*
X190800000Y-192910000D03*
X215350000Y-195450000D03*
D16*
X224180000Y-185290000D03*
X217830000Y-187830000D03*
D15*
X229200000Y-192910000D03*
X253740000Y-195450000D03*
D16*
X262570000Y-185290000D03*
X256220000Y-187830000D03*
D15*
X267590000Y-192910000D03*
X315490000Y-192910000D03*
D16*
X304120000Y-187830000D03*
X310470000Y-185290000D03*
D15*
X301640000Y-195450000D03*
X161820000Y-214640000D03*
D16*
X170650000Y-204480000D03*
X164300000Y-207020000D03*
D15*
X175670000Y-212100000D03*
X80930000Y-195460000D03*
D16*
X89760000Y-185300000D03*
X83410000Y-187840000D03*
D15*
X94780000Y-192920000D03*
X133190000Y-192910000D03*
D16*
X121820000Y-187830000D03*
X128170000Y-185290000D03*
D15*
X119340000Y-195450000D03*
X157740000Y-195450000D03*
D16*
X166570000Y-185290000D03*
X160220000Y-187830000D03*
D15*
X171590000Y-192910000D03*
X210000000Y-192910000D03*
D16*
X198630000Y-187830000D03*
X204980000Y-185290000D03*
D15*
X196150000Y-195450000D03*
X248400000Y-192910000D03*
D16*
X237030000Y-187830000D03*
X243380000Y-185290000D03*
D15*
X234550000Y-195450000D03*
X277690000Y-195450000D03*
D16*
X286520000Y-185290000D03*
X280170000Y-187830000D03*
D15*
X291540000Y-192910000D03*
X383470000Y-135750000D03*
D16*
X372100000Y-130670000D03*
X378450000Y-128130000D03*
D15*
X369620000Y-138290000D03*
X33030000Y-195460000D03*
D16*
X41860000Y-185300000D03*
X35510000Y-187840000D03*
D15*
X46880000Y-192920000D03*
X90640000Y-176240000D03*
D16*
X99470000Y-166080000D03*
X93120000Y-168620000D03*
D15*
X104490000Y-173700000D03*
X142840000Y-173700000D03*
D16*
X131470000Y-168620000D03*
X137820000Y-166080000D03*
D15*
X128990000Y-176240000D03*
X167370000Y-176240000D03*
D16*
X176200000Y-166080000D03*
X169850000Y-168620000D03*
D15*
X181220000Y-173700000D03*
X219580000Y-173700000D03*
D16*
X208210000Y-168620000D03*
X214560000Y-166080000D03*
D15*
X205730000Y-176240000D03*
X244100000Y-176240000D03*
D16*
X252930000Y-166080000D03*
X246580000Y-168620000D03*
D15*
X257950000Y-173700000D03*
X282490000Y-176260000D03*
D16*
X291320000Y-166100000D03*
X284970000Y-168640000D03*
D15*
X296340000Y-173720000D03*
X383470000Y-155030000D03*
D16*
X372100000Y-149950000D03*
X378450000Y-147410000D03*
D15*
X369620000Y-157570000D03*
X65570000Y-157080000D03*
D16*
X74400000Y-146920000D03*
X68050000Y-149460000D03*
D15*
X79420000Y-154540000D03*
X103970000Y-157080000D03*
D16*
X112800000Y-146920000D03*
X106450000Y-149460000D03*
D15*
X117820000Y-154540000D03*
X156210000Y-154540000D03*
D16*
X144840000Y-149460000D03*
X151190000Y-146920000D03*
D15*
X142360000Y-157080000D03*
X194590000Y-154540000D03*
D16*
X183220000Y-149460000D03*
X189570000Y-146920000D03*
D15*
X180740000Y-157080000D03*
X219130000Y-157080000D03*
D16*
X227960000Y-146920000D03*
X221610000Y-149460000D03*
D15*
X232980000Y-154540000D03*
X271380000Y-154540000D03*
D16*
X260010000Y-149460000D03*
X266360000Y-146920000D03*
D15*
X257530000Y-157080000D03*
X309730000Y-154550000D03*
D16*
X298360000Y-149470000D03*
X304710000Y-146930000D03*
D15*
X295880000Y-157090000D03*
X369620000Y-176880000D03*
D16*
X378450000Y-166720000D03*
X372100000Y-169260000D03*
D15*
X383470000Y-174340000D03*
X89020000Y-135340000D03*
D16*
X77650000Y-130260000D03*
X84000000Y-127720000D03*
D15*
X75170000Y-137880000D03*
X127390000Y-135340000D03*
D16*
X116020000Y-130260000D03*
X122370000Y-127720000D03*
D15*
X113540000Y-137880000D03*
X151920000Y-137880000D03*
D16*
X160750000Y-127720000D03*
X154400000Y-130260000D03*
D15*
X165770000Y-135340000D03*
X190290000Y-137880000D03*
D16*
X199120000Y-127720000D03*
X192770000Y-130260000D03*
D15*
X204140000Y-135340000D03*
X228660000Y-137880000D03*
D16*
X237490000Y-127720000D03*
X231140000Y-130260000D03*
D15*
X242510000Y-135340000D03*
X280900000Y-135340000D03*
D16*
X269530000Y-130260000D03*
X275880000Y-127720000D03*
D15*
X267050000Y-137880000D03*
X319280000Y-135340000D03*
D16*
X307910000Y-130260000D03*
X314260000Y-127720000D03*
D15*
X305430000Y-137880000D03*
X369620000Y-196160000D03*
D16*
X378450000Y-186000000D03*
X372100000Y-188540000D03*
D15*
X383470000Y-193620000D03*
X66090000Y-173700000D03*
D16*
X54720000Y-168620000D03*
X61070000Y-166080000D03*
D15*
X52240000Y-176240000D03*
X319850000Y-157080000D03*
D16*
X328680000Y-146920000D03*
X322330000Y-149460000D03*
D15*
X333700000Y-154540000D03*
D17*
X206120000Y-119560000D03*
X220690000Y-119110000D03*
X223330000Y-128580000D03*
X223330000Y-130610000D03*
X259920000Y-125930000D03*
X300070000Y-126510000D03*
X243880000Y-116820000D03*
X66600000Y-209820000D03*
X230760000Y-147780000D03*
X235380000Y-148830000D03*
X232180000Y-122970000D03*
X232220000Y-126510000D03*
X363290000Y-162000000D03*
X360990000Y-162610000D03*
X223870000Y-168900000D03*
X87220000Y-179860000D03*
X224520000Y-183030000D03*
X277680000Y-200080000D03*
X64250000Y-205890000D03*
X310950000Y-146260000D03*
X58260000Y-207120000D03*
X48720000Y-214470000D03*
X49400000Y-208750000D03*
X49380000Y-206070000D03*
X41990000Y-209750000D03*
X56030000Y-207090000D03*
X60590000Y-210850000D03*
X58580000Y-214700000D03*
X60810000Y-207120000D03*
D18*
X167690000Y-204520000D02*
X167650000Y-204480000D01*
X87830000Y-127710000D02*
X88130000Y-127710000D01*
X88130000Y-127710000D02*
X91610000Y-124230000D01*
X194110000Y-122010000D02*
X194110000Y-113860000D01*
X191890000Y-124230000D02*
X194110000Y-122010000D01*
X91610000Y-124230000D02*
X191890000Y-124230000D01*
X68620000Y-127780000D02*
X68620000Y-126410000D01*
X51570000Y-125640000D02*
X49500000Y-127710000D01*
X67850000Y-125640000D02*
X51570000Y-125640000D01*
X68620000Y-126410000D02*
X67850000Y-125640000D01*
X87830000Y-127710000D02*
X87830000Y-126410000D01*
X70420000Y-125980000D02*
X68620000Y-127780000D01*
X87400000Y-125980000D02*
X70420000Y-125980000D01*
X87830000Y-126410000D02*
X87400000Y-125980000D01*
X52450000Y-130660000D02*
X49500000Y-127710000D01*
X52450000Y-140640000D02*
X52450000Y-130660000D01*
X54380000Y-146910000D02*
X54380000Y-142570000D01*
X54380000Y-142570000D02*
X52450000Y-140640000D01*
X48570000Y-167350000D02*
X47330000Y-166110000D01*
X47330000Y-166110000D02*
X45760000Y-166110000D01*
X45740000Y-185330000D02*
X45740000Y-182450000D01*
X48570000Y-179620000D02*
X48570000Y-167350000D01*
X45740000Y-182450000D02*
X48570000Y-179620000D01*
X89670000Y-127710000D02*
X87830000Y-127710000D01*
X90940000Y-128980000D02*
X89670000Y-127710000D01*
X78230000Y-144690000D02*
X80930000Y-141990000D01*
X78230000Y-146910000D02*
X78230000Y-144690000D01*
X80930000Y-141990000D02*
X89590000Y-141990000D01*
X89590000Y-141990000D02*
X90940000Y-140640000D01*
X90940000Y-140640000D02*
X90940000Y-128980000D01*
X81470000Y-148510000D02*
X79870000Y-146910000D01*
X79870000Y-146910000D02*
X78230000Y-146910000D01*
X49110000Y-166110000D02*
X51110000Y-164110000D01*
X45760000Y-166110000D02*
X49110000Y-166110000D01*
X79560000Y-164110000D02*
X81470000Y-162200000D01*
X51110000Y-164110000D02*
X79560000Y-164110000D01*
X81470000Y-162200000D02*
X81470000Y-148510000D01*
X174470000Y-202500000D02*
X174470000Y-204520000D01*
X173400000Y-182610000D02*
X173400000Y-201430000D01*
X175060000Y-180950000D02*
X173400000Y-182610000D01*
X173400000Y-201430000D02*
X174470000Y-202500000D01*
X181830000Y-180950000D02*
X175060000Y-180950000D01*
X183990000Y-178790000D02*
X181830000Y-180950000D01*
X197880000Y-142560000D02*
X197190000Y-143250000D01*
X203500000Y-142560000D02*
X197880000Y-142560000D01*
X207020000Y-139040000D02*
X203500000Y-142560000D01*
X206120000Y-119560000D02*
X207020000Y-120460000D01*
X197190000Y-143250000D02*
X197190000Y-159410000D01*
X207020000Y-120460000D02*
X207020000Y-139040000D01*
X183990000Y-163650000D02*
X183990000Y-178790000D01*
X197190000Y-159410000D02*
X195780000Y-160820000D01*
X195780000Y-160820000D02*
X186820000Y-160820000D01*
X186820000Y-160820000D02*
X183990000Y-163650000D01*
X66920000Y-127780000D02*
X64870000Y-127780000D01*
X64870000Y-127780000D02*
X64810000Y-127720000D01*
X66920000Y-127780000D02*
X66920000Y-128560000D01*
X69830000Y-131470000D02*
X69830000Y-135340000D01*
X66920000Y-128560000D02*
X69830000Y-131470000D01*
X126190000Y-127670000D02*
X126210000Y-127670000D01*
X126210000Y-127670000D02*
X128320000Y-125560000D01*
X196650000Y-122950000D02*
X196650000Y-113860000D01*
X194800000Y-124800000D02*
X196650000Y-122950000D01*
X164970000Y-124800000D02*
X194800000Y-124800000D01*
X164210000Y-125560000D02*
X164970000Y-124800000D01*
X128320000Y-125560000D02*
X164210000Y-125560000D01*
X93540000Y-185300000D02*
X93540000Y-185000000D01*
X93540000Y-185000000D02*
X91970000Y-183430000D01*
X71550000Y-183430000D02*
X69680000Y-185300000D01*
X91970000Y-183430000D02*
X71550000Y-183430000D01*
X103370000Y-166070000D02*
X103370000Y-165150000D01*
X85890000Y-164350000D02*
X84130000Y-166110000D01*
X102570000Y-164350000D02*
X85890000Y-164350000D01*
X103370000Y-165150000D02*
X102570000Y-164350000D01*
X116710000Y-146910000D02*
X116710000Y-146340000D01*
X116710000Y-146340000D02*
X115550000Y-145180000D01*
X115550000Y-145180000D02*
X99230000Y-145180000D01*
X99230000Y-145180000D02*
X97500000Y-146910000D01*
X126190000Y-127670000D02*
X126190000Y-126940000D01*
X108720000Y-126060000D02*
X107070000Y-127710000D01*
X125310000Y-126060000D02*
X108720000Y-126060000D01*
X126190000Y-126940000D02*
X125310000Y-126060000D01*
X106290000Y-167200000D02*
X105160000Y-166070000D01*
X93540000Y-180890000D02*
X95750000Y-178680000D01*
X93540000Y-185300000D02*
X93540000Y-180890000D01*
X105160000Y-166070000D02*
X103370000Y-166070000D01*
X105260000Y-178680000D02*
X106290000Y-177650000D01*
X95750000Y-178680000D02*
X105260000Y-178680000D01*
X106290000Y-177650000D02*
X106290000Y-167200000D01*
X118400000Y-146910000D02*
X116710000Y-146910000D01*
X119850000Y-148360000D02*
X118400000Y-146910000D01*
X103370000Y-164780000D02*
X106490000Y-161660000D01*
X103370000Y-166070000D02*
X103370000Y-164780000D01*
X117860000Y-161660000D02*
X119850000Y-159670000D01*
X106490000Y-161660000D02*
X117860000Y-161660000D01*
X119850000Y-159670000D02*
X119850000Y-148360000D01*
X128830000Y-127670000D02*
X126190000Y-127670000D01*
X116710000Y-143790000D02*
X118370000Y-142130000D01*
X129470000Y-138620000D02*
X129470000Y-128310000D01*
X129470000Y-128310000D02*
X128830000Y-127670000D01*
X116710000Y-146910000D02*
X116710000Y-143790000D01*
X118370000Y-142130000D02*
X125960000Y-142130000D01*
X125960000Y-142130000D02*
X129470000Y-138620000D01*
X105370000Y-127710000D02*
X103210000Y-127710000D01*
X103210000Y-127710000D02*
X103200000Y-127720000D01*
X105370000Y-127710000D02*
X105370000Y-128380000D01*
X108220000Y-131230000D02*
X108220000Y-135340000D01*
X105370000Y-128380000D02*
X108220000Y-131230000D01*
X164600000Y-127710000D02*
X164600000Y-126100000D01*
X199190000Y-123820000D02*
X199190000Y-113860000D01*
X197640000Y-125370000D02*
X199190000Y-123820000D01*
X165330000Y-125370000D02*
X197640000Y-125370000D01*
X164600000Y-126100000D02*
X165330000Y-125370000D01*
X131990000Y-185300000D02*
X131990000Y-184740000D01*
X114310000Y-183780000D02*
X112790000Y-185300000D01*
X131030000Y-183780000D02*
X114310000Y-183780000D01*
X131990000Y-184740000D02*
X131030000Y-183780000D01*
X141740000Y-166070000D02*
X141740000Y-164890000D01*
X141740000Y-164890000D02*
X137330000Y-160480000D01*
X164600000Y-127710000D02*
X164600000Y-126790000D01*
X147090000Y-126130000D02*
X145510000Y-127710000D01*
X163940000Y-126130000D02*
X147090000Y-126130000D01*
X164600000Y-126790000D02*
X163940000Y-126130000D01*
X155110000Y-146950000D02*
X155110000Y-146410000D01*
X137370000Y-145450000D02*
X135950000Y-146870000D01*
X154150000Y-145450000D02*
X137370000Y-145450000D01*
X155110000Y-146410000D02*
X154150000Y-145450000D01*
X167480000Y-130590000D02*
X164600000Y-127710000D01*
X155110000Y-145870000D02*
X158570000Y-142410000D01*
X155110000Y-146950000D02*
X155110000Y-145870000D01*
X167480000Y-140760000D02*
X167480000Y-130590000D01*
X158570000Y-142410000D02*
X165830000Y-142410000D01*
X165830000Y-142410000D02*
X167480000Y-140760000D01*
X132080000Y-185300000D02*
X137180000Y-180200000D01*
X131990000Y-185300000D02*
X132080000Y-185300000D01*
X144460000Y-168790000D02*
X141740000Y-166070000D01*
X137180000Y-180200000D02*
X142810000Y-180200000D01*
X142810000Y-180200000D02*
X144460000Y-178550000D01*
X144460000Y-178550000D02*
X144460000Y-168790000D01*
X139200000Y-148500000D02*
X137570000Y-146870000D01*
X137330000Y-160480000D02*
X139200000Y-158610000D01*
X137570000Y-146870000D02*
X135950000Y-146870000D01*
X139200000Y-158610000D02*
X139200000Y-148500000D01*
X137310000Y-162370000D02*
X134720000Y-164960000D01*
X123610000Y-164960000D02*
X122500000Y-166070000D01*
X137330000Y-160480000D02*
X137310000Y-160500000D01*
X134720000Y-164960000D02*
X123610000Y-164960000D01*
X137310000Y-160500000D02*
X137310000Y-162370000D01*
X143810000Y-127710000D02*
X141570000Y-127710000D01*
X141570000Y-127710000D02*
X141560000Y-127720000D01*
X143810000Y-127710000D02*
X143810000Y-128800000D01*
X146580000Y-131570000D02*
X146580000Y-135340000D01*
X143810000Y-128800000D02*
X146580000Y-131570000D01*
X202930000Y-127670000D02*
X202930000Y-119350000D01*
X201730000Y-118150000D02*
X201730000Y-113860000D01*
X202930000Y-119350000D02*
X201730000Y-118150000D01*
X170410000Y-185330000D02*
X170410000Y-184720000D01*
X152850000Y-183660000D02*
X151210000Y-185300000D01*
X169350000Y-183660000D02*
X152850000Y-183660000D01*
X170410000Y-184720000D02*
X169350000Y-183660000D01*
X180110000Y-166070000D02*
X180110000Y-165570000D01*
X162320000Y-164580000D02*
X160830000Y-166070000D01*
X179120000Y-164580000D02*
X162320000Y-164580000D01*
X180110000Y-165570000D02*
X179120000Y-164580000D01*
X193440000Y-146910000D02*
X193440000Y-146020000D01*
X193440000Y-146020000D02*
X192600000Y-145180000D01*
X192600000Y-145180000D02*
X175970000Y-145180000D01*
X175970000Y-145180000D02*
X174240000Y-146910000D01*
X202930000Y-127670000D02*
X202930000Y-126750000D01*
X185610000Y-125980000D02*
X183880000Y-127710000D01*
X202160000Y-125980000D02*
X185610000Y-125980000D01*
X202930000Y-126750000D02*
X202160000Y-125980000D01*
X193440000Y-146910000D02*
X193440000Y-144700000D01*
X193440000Y-144700000D02*
X197970000Y-140170000D01*
X197970000Y-140170000D02*
X205170000Y-140170000D01*
X205170000Y-140170000D02*
X206530000Y-138810000D01*
X204680000Y-127670000D02*
X202930000Y-127670000D01*
X206530000Y-129520000D02*
X204680000Y-127670000D01*
X206530000Y-138810000D02*
X206530000Y-129520000D01*
X180110000Y-163670000D02*
X183430000Y-160350000D01*
X196670000Y-159220000D02*
X196670000Y-150140000D01*
X196670000Y-150140000D02*
X193440000Y-146910000D01*
X180110000Y-166070000D02*
X180110000Y-163670000D01*
X183430000Y-160350000D02*
X195540000Y-160350000D01*
X195540000Y-160350000D02*
X196670000Y-159220000D01*
X183540000Y-169500000D02*
X180110000Y-166070000D01*
X183540000Y-178500000D02*
X183540000Y-169500000D01*
X170410000Y-185330000D02*
X170410000Y-183410000D01*
X173330000Y-180490000D02*
X181550000Y-180490000D01*
X170410000Y-183410000D02*
X173330000Y-180490000D01*
X181550000Y-180490000D02*
X183540000Y-178500000D01*
X182180000Y-127710000D02*
X179930000Y-127710000D01*
X179930000Y-127710000D02*
X179920000Y-127720000D01*
X182180000Y-127710000D02*
X182180000Y-129270000D01*
X184940000Y-132030000D02*
X184940000Y-135340000D01*
X182180000Y-129270000D02*
X184940000Y-132030000D01*
X222210000Y-127710000D02*
X222210000Y-125320000D01*
X220690000Y-123800000D02*
X220690000Y-119110000D01*
X222210000Y-125320000D02*
X220690000Y-123800000D01*
X208880000Y-185300000D02*
X208880000Y-184290000D01*
X191430000Y-183470000D02*
X189600000Y-185300000D01*
X208060000Y-183470000D02*
X191430000Y-183470000D01*
X208880000Y-184290000D02*
X208060000Y-183470000D01*
X218400000Y-166070000D02*
X218400000Y-165540000D01*
X201290000Y-164090000D02*
X199310000Y-166070000D01*
X216950000Y-164090000D02*
X201290000Y-164090000D01*
X218400000Y-165540000D02*
X216950000Y-164090000D01*
X212570000Y-145820000D02*
X212570000Y-146910000D01*
X229880000Y-144290000D02*
X214100000Y-144290000D01*
X214100000Y-144290000D02*
X212570000Y-145820000D01*
X231880000Y-146910000D02*
X231880000Y-146290000D01*
X231880000Y-146290000D02*
X229880000Y-144290000D01*
X215890000Y-150230000D02*
X212570000Y-146910000D01*
X215890000Y-159680000D02*
X215890000Y-150230000D01*
X218400000Y-166070000D02*
X218400000Y-162190000D01*
X218400000Y-162190000D02*
X215890000Y-159680000D01*
X219870000Y-166070000D02*
X218400000Y-166070000D01*
X222000000Y-168200000D02*
X219870000Y-166070000D01*
X208880000Y-184320000D02*
X211010000Y-182190000D01*
X211010000Y-182190000D02*
X217370000Y-182190000D01*
X208880000Y-185300000D02*
X208880000Y-184320000D01*
X222000000Y-177560000D02*
X222000000Y-168200000D01*
X217370000Y-182190000D02*
X222000000Y-177560000D01*
X224740000Y-127710000D02*
X222210000Y-127710000D01*
X227050000Y-130020000D02*
X224740000Y-127710000D01*
X225480000Y-143840000D02*
X227050000Y-142270000D01*
X212570000Y-145100000D02*
X213830000Y-143840000D01*
X212570000Y-146910000D02*
X212570000Y-145100000D01*
X227050000Y-142270000D02*
X227050000Y-130020000D01*
X213830000Y-143840000D02*
X225480000Y-143840000D01*
X243830000Y-127750000D02*
X241410000Y-127750000D01*
X244140000Y-128060000D02*
X243830000Y-127750000D01*
X231880000Y-145890000D02*
X235960000Y-141810000D01*
X231880000Y-146910000D02*
X231880000Y-145890000D01*
X244140000Y-141720000D02*
X244140000Y-128060000D01*
X235960000Y-141810000D02*
X244050000Y-141810000D01*
X244050000Y-141810000D02*
X244140000Y-141720000D01*
X220510000Y-127710000D02*
X218330000Y-127710000D01*
X218330000Y-127710000D02*
X218320000Y-127720000D01*
X220510000Y-127710000D02*
X220510000Y-128330000D01*
X220510000Y-128330000D02*
X220760000Y-128580000D01*
X220760000Y-128580000D02*
X223330000Y-128580000D01*
X223330000Y-135330000D02*
X223340000Y-135340000D01*
X223330000Y-130610000D02*
X223330000Y-135330000D01*
X260530000Y-127710000D02*
X260530000Y-126540000D01*
X260530000Y-126540000D02*
X259920000Y-125930000D01*
X270290000Y-146910000D02*
X270290000Y-146280000D01*
X270290000Y-146280000D02*
X269000000Y-144990000D01*
X269000000Y-144990000D02*
X252930000Y-144990000D01*
X252930000Y-144990000D02*
X251010000Y-146910000D01*
X279770000Y-127710000D02*
X279770000Y-126520000D01*
X262570000Y-125670000D02*
X260530000Y-127710000D01*
X278920000Y-125670000D02*
X262570000Y-125670000D01*
X279770000Y-126520000D02*
X278920000Y-125670000D01*
X241820000Y-178860000D02*
X241820000Y-180490000D01*
X229390000Y-183900000D02*
X227990000Y-185300000D01*
X238410000Y-183900000D02*
X229390000Y-183900000D01*
X241820000Y-180490000D02*
X238410000Y-183900000D01*
X256840000Y-166070000D02*
X256840000Y-165190000D01*
X241590000Y-164420000D02*
X239970000Y-166040000D01*
X256070000Y-164420000D02*
X241590000Y-164420000D01*
X256840000Y-165190000D02*
X256070000Y-164420000D01*
X247210000Y-185300000D02*
X247210000Y-184250000D01*
X239970000Y-166040000D02*
X237670000Y-166040000D01*
X241820000Y-167890000D02*
X239970000Y-166040000D01*
X241820000Y-178860000D02*
X241820000Y-167890000D01*
X247210000Y-184250000D02*
X241820000Y-178860000D01*
X282740000Y-130680000D02*
X279770000Y-127710000D01*
X282740000Y-141570000D02*
X282740000Y-130680000D01*
X279810000Y-144500000D02*
X282740000Y-141570000D01*
X270290000Y-146910000D02*
X272700000Y-144500000D01*
X272700000Y-144500000D02*
X279810000Y-144500000D01*
X273400000Y-147900000D02*
X272410000Y-146910000D01*
X256840000Y-165140000D02*
X259110000Y-162870000D01*
X272410000Y-146910000D02*
X270290000Y-146910000D01*
X259110000Y-162870000D02*
X272330000Y-162870000D01*
X256840000Y-166070000D02*
X256840000Y-165140000D01*
X272330000Y-162870000D02*
X273400000Y-161800000D01*
X273400000Y-161800000D02*
X273400000Y-147900000D01*
X258830000Y-127710000D02*
X256700000Y-127710000D01*
X256700000Y-127710000D02*
X256690000Y-127720000D01*
X258830000Y-127710000D02*
X258830000Y-128390000D01*
X261710000Y-131270000D02*
X261710000Y-135340000D01*
X258830000Y-128390000D02*
X261710000Y-131270000D01*
X300070000Y-126510000D02*
X300065000Y-126505000D01*
X300065000Y-126505000D02*
X300070000Y-126510000D01*
X300070000Y-126510000D02*
X300070000Y-126500000D01*
X318100000Y-127710000D02*
X318100000Y-126240000D01*
X300920000Y-125650000D02*
X300070000Y-126500000D01*
X300070000Y-126500000D02*
X298860000Y-127710000D01*
X317510000Y-125650000D02*
X300920000Y-125650000D01*
X318100000Y-126240000D02*
X317510000Y-125650000D01*
X308580000Y-146910000D02*
X308580000Y-145630000D01*
X291320000Y-145120000D02*
X289490000Y-146950000D01*
X308070000Y-145120000D02*
X291320000Y-145120000D01*
X308580000Y-145630000D02*
X308070000Y-145120000D01*
X295130000Y-166110000D02*
X295130000Y-165270000D01*
X277730000Y-164340000D02*
X276000000Y-166070000D01*
X294200000Y-164340000D02*
X277730000Y-164340000D01*
X295130000Y-165270000D02*
X294200000Y-164340000D01*
X290400000Y-185300000D02*
X290400000Y-184320000D01*
X268170000Y-183590000D02*
X266460000Y-185300000D01*
X289670000Y-183590000D02*
X268170000Y-183590000D01*
X290400000Y-184320000D02*
X289670000Y-183590000D01*
X308580000Y-144900000D02*
X310410000Y-143070000D01*
X308580000Y-146910000D02*
X308580000Y-144900000D01*
X310410000Y-143070000D02*
X317750000Y-143070000D01*
X317750000Y-143070000D02*
X321420000Y-139400000D01*
X321420000Y-131030000D02*
X318100000Y-127710000D01*
X321420000Y-139400000D02*
X321420000Y-131030000D01*
X295130000Y-163540000D02*
X297340000Y-161330000D01*
X295130000Y-166110000D02*
X295130000Y-163540000D01*
X297340000Y-161330000D02*
X310690000Y-161330000D01*
X310690000Y-161330000D02*
X311570000Y-160450000D01*
X311570000Y-149900000D02*
X308580000Y-146910000D01*
X311570000Y-160450000D02*
X311570000Y-149900000D01*
X297460000Y-166110000D02*
X295130000Y-166110000D01*
X298480000Y-167130000D02*
X297460000Y-166110000D01*
X298480000Y-182930000D02*
X298480000Y-167130000D01*
X290400000Y-185300000D02*
X296110000Y-185300000D01*
X296110000Y-185300000D02*
X298480000Y-182930000D01*
X297160000Y-127710000D02*
X295080000Y-127710000D01*
X295080000Y-127710000D02*
X295070000Y-127720000D01*
X297160000Y-127710000D02*
X297160000Y-129540000D01*
X300090000Y-132470000D02*
X300090000Y-135340000D01*
X297160000Y-129540000D02*
X300090000Y-132470000D01*
X382420000Y-186000000D02*
X382420000Y-185650000D01*
X382420000Y-185650000D02*
X380560000Y-183790000D01*
X380560000Y-183790000D02*
X335080000Y-183790000D01*
X333570000Y-185300000D02*
X335080000Y-183790000D01*
X337230000Y-127710000D02*
X338300000Y-127710000D01*
X382420000Y-126520000D02*
X382420000Y-128130000D01*
X381490000Y-125590000D02*
X382420000Y-126520000D01*
X340420000Y-125590000D02*
X381490000Y-125590000D01*
X338300000Y-127710000D02*
X340420000Y-125590000D01*
X314320000Y-185300000D02*
X314320000Y-184500000D01*
X316630000Y-182190000D02*
X326950000Y-182190000D01*
X314320000Y-184500000D02*
X316630000Y-182190000D01*
X333570000Y-185300000D02*
X333570000Y-183830000D01*
X331930000Y-182190000D02*
X326950000Y-182190000D01*
X333570000Y-183830000D02*
X331930000Y-182190000D01*
X326740000Y-168850000D02*
X323930000Y-166040000D01*
X326950000Y-182190000D02*
X326740000Y-182190000D01*
X326740000Y-182190000D02*
X326740000Y-168850000D01*
X337230000Y-126180000D02*
X336750000Y-125700000D01*
X337230000Y-127710000D02*
X337230000Y-126180000D01*
X336750000Y-125700000D02*
X319870000Y-125700000D01*
X243880000Y-121580000D02*
X243880000Y-116820000D01*
X318170000Y-124000000D02*
X246300000Y-124000000D01*
X246300000Y-124000000D02*
X243880000Y-121580000D01*
X319870000Y-125700000D02*
X318170000Y-124000000D01*
X383840000Y-186000000D02*
X382420000Y-186000000D01*
X385670000Y-167920000D02*
X385670000Y-184170000D01*
X385670000Y-184170000D02*
X383840000Y-186000000D01*
X382420000Y-166720000D02*
X384470000Y-166720000D01*
X384470000Y-166720000D02*
X385670000Y-167920000D01*
X384040000Y-166720000D02*
X382420000Y-166720000D01*
X382420000Y-147410000D02*
X384020000Y-147410000D01*
X385670000Y-165090000D02*
X384040000Y-166720000D01*
X385670000Y-149060000D02*
X385670000Y-165090000D01*
X384020000Y-147410000D02*
X385670000Y-149060000D01*
X383940000Y-147410000D02*
X382420000Y-147410000D01*
X385520000Y-145830000D02*
X383940000Y-147410000D01*
X385520000Y-129320000D02*
X385520000Y-145830000D01*
X382420000Y-128130000D02*
X384330000Y-128130000D01*
X384330000Y-128130000D02*
X385520000Y-129320000D01*
X335530000Y-127710000D02*
X333460000Y-127710000D01*
X333460000Y-127710000D02*
X333450000Y-127720000D01*
X335530000Y-127710000D02*
X335530000Y-129150000D01*
X338470000Y-132090000D02*
X338470000Y-135340000D01*
X335530000Y-129150000D02*
X338470000Y-132090000D01*
X47800000Y-127710000D02*
X45680000Y-127710000D01*
X45680000Y-127710000D02*
X45670000Y-127720000D01*
X47800000Y-127710000D02*
X47800000Y-128130000D01*
X50690000Y-131020000D02*
X50690000Y-135340000D01*
X47800000Y-128130000D02*
X50690000Y-131020000D01*
X95800000Y-146910000D02*
X93610000Y-146910000D01*
X93610000Y-146910000D02*
X93600000Y-146920000D01*
X95800000Y-146910000D02*
X95800000Y-148490000D01*
X98620000Y-151310000D02*
X98620000Y-154540000D01*
X95800000Y-148490000D02*
X98620000Y-151310000D01*
X134250000Y-146870000D02*
X132050000Y-146870000D01*
X132050000Y-146870000D02*
X132000000Y-146920000D01*
X134250000Y-146870000D02*
X134250000Y-148110000D01*
X137020000Y-150880000D02*
X137020000Y-154540000D01*
X134250000Y-148110000D02*
X137020000Y-150880000D01*
X172540000Y-146910000D02*
X170400000Y-146910000D01*
X170400000Y-146910000D02*
X170390000Y-146920000D01*
X172540000Y-146910000D02*
X172540000Y-148720000D01*
X175410000Y-151590000D02*
X175410000Y-154540000D01*
X172540000Y-148720000D02*
X175410000Y-151590000D01*
X210870000Y-146910000D02*
X208760000Y-146910000D01*
X208760000Y-146910000D02*
X208750000Y-146920000D01*
X210870000Y-146910000D02*
X210870000Y-148710000D01*
X213770000Y-151610000D02*
X213770000Y-154540000D01*
X210870000Y-148710000D02*
X213770000Y-151610000D01*
X249310000Y-146910000D02*
X247170000Y-146910000D01*
X247170000Y-146910000D02*
X247160000Y-146920000D01*
X249310000Y-146910000D02*
X249310000Y-146940000D01*
X252180000Y-149810000D02*
X252180000Y-154540000D01*
X249310000Y-146940000D02*
X252180000Y-149810000D01*
X287790000Y-146950000D02*
X285590000Y-146950000D01*
X285590000Y-146950000D02*
X285570000Y-146930000D01*
X287790000Y-146950000D02*
X287790000Y-148440000D01*
X290590000Y-151240000D02*
X290590000Y-154550000D01*
X287790000Y-148440000D02*
X290590000Y-151240000D01*
X322230000Y-166040000D02*
X320070000Y-166040000D01*
X320070000Y-166040000D02*
X320030000Y-166080000D01*
X322230000Y-166040000D02*
X322230000Y-166910000D01*
X325050000Y-169730000D02*
X325050000Y-173700000D01*
X322230000Y-166910000D02*
X325050000Y-169730000D01*
X52680000Y-146910000D02*
X50450000Y-146910000D01*
X50450000Y-146910000D02*
X50440000Y-146920000D01*
X52680000Y-146910000D02*
X52680000Y-147940000D01*
X55460000Y-150720000D02*
X55460000Y-154540000D01*
X52680000Y-147940000D02*
X55460000Y-150720000D01*
X82430000Y-166110000D02*
X80280000Y-166110000D01*
X80280000Y-166110000D02*
X80270000Y-166100000D01*
X82430000Y-166110000D02*
X82430000Y-167570000D01*
X85290000Y-170430000D02*
X85290000Y-173720000D01*
X82430000Y-167570000D02*
X85290000Y-170430000D01*
X120800000Y-166070000D02*
X118640000Y-166070000D01*
X118640000Y-166070000D02*
X118630000Y-166080000D01*
X120800000Y-166070000D02*
X120800000Y-168120000D01*
X123650000Y-170970000D02*
X123650000Y-173700000D01*
X120800000Y-168120000D02*
X123650000Y-170970000D01*
X159130000Y-166070000D02*
X157030000Y-166070000D01*
X157030000Y-166070000D02*
X157020000Y-166080000D01*
X159130000Y-166070000D02*
X159130000Y-166640000D01*
X162040000Y-169550000D02*
X162040000Y-173700000D01*
X159130000Y-166640000D02*
X162040000Y-169550000D01*
X197610000Y-166070000D02*
X195410000Y-166070000D01*
X195410000Y-166070000D02*
X195400000Y-166080000D01*
X197610000Y-166070000D02*
X197610000Y-168000000D01*
X200420000Y-170810000D02*
X200420000Y-173700000D01*
X197610000Y-168000000D02*
X200420000Y-170810000D01*
X235970000Y-166040000D02*
X233810000Y-166040000D01*
X233810000Y-166040000D02*
X233770000Y-166080000D01*
X235970000Y-166040000D02*
X235970000Y-167100000D01*
X238790000Y-169920000D02*
X238790000Y-173700000D01*
X235970000Y-167100000D02*
X238790000Y-169920000D01*
X274300000Y-166070000D02*
X272140000Y-166070000D01*
X272140000Y-166070000D02*
X272130000Y-166080000D01*
X274300000Y-166070000D02*
X274300000Y-167340000D01*
X277150000Y-170190000D02*
X277150000Y-173700000D01*
X274300000Y-167340000D02*
X277150000Y-170190000D01*
X331870000Y-185300000D02*
X329660000Y-185300000D01*
X329660000Y-185300000D02*
X329650000Y-185290000D01*
X331870000Y-185300000D02*
X331870000Y-186490000D01*
X334670000Y-189290000D02*
X334670000Y-192910000D01*
X331870000Y-186490000D02*
X334670000Y-189290000D01*
X44060000Y-166110000D02*
X41880000Y-166110000D01*
X41880000Y-166110000D02*
X41870000Y-166100000D01*
X44060000Y-166110000D02*
X44060000Y-167520000D01*
X46890000Y-170350000D02*
X46890000Y-173720000D01*
X44060000Y-167520000D02*
X46890000Y-170350000D01*
X67980000Y-185300000D02*
X65820000Y-185300000D01*
X65820000Y-185300000D02*
X65810000Y-185290000D01*
X72240000Y-209820000D02*
X66600000Y-209820000D01*
X74330000Y-207730000D02*
X72240000Y-209820000D01*
X67980000Y-185530000D02*
X69140000Y-186690000D01*
X67980000Y-185300000D02*
X67980000Y-185530000D01*
X69140000Y-186690000D02*
X71720000Y-186690000D01*
X71720000Y-186690000D02*
X74330000Y-189300000D01*
X74330000Y-189300000D02*
X74330000Y-207730000D01*
X67980000Y-185300000D02*
X67980000Y-187170000D01*
X67980000Y-187170000D02*
X70790000Y-189980000D01*
X70790000Y-192870000D02*
X70830000Y-192910000D01*
X70790000Y-189980000D02*
X70790000Y-192870000D01*
X111090000Y-185300000D02*
X108980000Y-185300000D01*
X108980000Y-185300000D02*
X108970000Y-185290000D01*
X111090000Y-185300000D02*
X111090000Y-186770000D01*
X113990000Y-189670000D02*
X113990000Y-192910000D01*
X111090000Y-186770000D02*
X113990000Y-189670000D01*
X149510000Y-185300000D02*
X147390000Y-185300000D01*
X147390000Y-185300000D02*
X147380000Y-185290000D01*
X149510000Y-185300000D02*
X149510000Y-187130000D01*
X152400000Y-190020000D02*
X152400000Y-192910000D01*
X149510000Y-187130000D02*
X152400000Y-190020000D01*
X187900000Y-185300000D02*
X185790000Y-185300000D01*
X185790000Y-185300000D02*
X185780000Y-185290000D01*
X187900000Y-185300000D02*
X187900000Y-186270000D01*
X190800000Y-189170000D02*
X190800000Y-192910000D01*
X187900000Y-186270000D02*
X190800000Y-189170000D01*
X226290000Y-185300000D02*
X224190000Y-185300000D01*
X224190000Y-185300000D02*
X224180000Y-185290000D01*
X226290000Y-185300000D02*
X226290000Y-186520000D01*
X229200000Y-189430000D02*
X229200000Y-192910000D01*
X226290000Y-186520000D02*
X229200000Y-189430000D01*
X264760000Y-185300000D02*
X262580000Y-185300000D01*
X262580000Y-185300000D02*
X262570000Y-185290000D01*
X264760000Y-185300000D02*
X264760000Y-186340000D01*
X267590000Y-189170000D02*
X267590000Y-192910000D01*
X264760000Y-186340000D02*
X267590000Y-189170000D01*
X312620000Y-185300000D02*
X310480000Y-185300000D01*
X310480000Y-185300000D02*
X310470000Y-185290000D01*
X312620000Y-185300000D02*
X312620000Y-186420000D01*
X315490000Y-189290000D02*
X315490000Y-192910000D01*
X312620000Y-186420000D02*
X315490000Y-189290000D01*
X172770000Y-204520000D02*
X170690000Y-204520000D01*
X170690000Y-204520000D02*
X170650000Y-204480000D01*
X172770000Y-204520000D02*
X172770000Y-204800000D01*
X175670000Y-207700000D02*
X175670000Y-212100000D01*
X172770000Y-204800000D02*
X175670000Y-207700000D01*
X91840000Y-185300000D02*
X89760000Y-185300000D01*
X91840000Y-185300000D02*
X91840000Y-186250000D01*
X94780000Y-189190000D02*
X94780000Y-192920000D01*
X91840000Y-186250000D02*
X94780000Y-189190000D01*
X130290000Y-185300000D02*
X128180000Y-185300000D01*
X128180000Y-185300000D02*
X128170000Y-185290000D01*
X130290000Y-185300000D02*
X130290000Y-186360000D01*
X133190000Y-189260000D02*
X133190000Y-192910000D01*
X130290000Y-186360000D02*
X133190000Y-189260000D01*
X168710000Y-185330000D02*
X166610000Y-185330000D01*
X166610000Y-185330000D02*
X166570000Y-185290000D01*
X168710000Y-185330000D02*
X168710000Y-186280000D01*
X171590000Y-189160000D02*
X171590000Y-192910000D01*
X168710000Y-186280000D02*
X171590000Y-189160000D01*
X207180000Y-185300000D02*
X204990000Y-185300000D01*
X204990000Y-185300000D02*
X204980000Y-185290000D01*
X207180000Y-185300000D02*
X207180000Y-186900000D01*
X210000000Y-189720000D02*
X210000000Y-192910000D01*
X207180000Y-186900000D02*
X210000000Y-189720000D01*
X245510000Y-185300000D02*
X243390000Y-185300000D01*
X243390000Y-185300000D02*
X243380000Y-185290000D01*
X243390000Y-185300000D02*
X243380000Y-185290000D01*
X245510000Y-185300000D02*
X245510000Y-187340000D01*
X248400000Y-190230000D02*
X248400000Y-192910000D01*
X245510000Y-187340000D02*
X248400000Y-190230000D01*
X288700000Y-185300000D02*
X286530000Y-185300000D01*
X286530000Y-185300000D02*
X286520000Y-185290000D01*
X288700000Y-185300000D02*
X288700000Y-186810000D01*
X291540000Y-189650000D02*
X291540000Y-192910000D01*
X288700000Y-186810000D02*
X291540000Y-189650000D01*
X380720000Y-128130000D02*
X378450000Y-128130000D01*
X380720000Y-128130000D02*
X380720000Y-129630000D01*
X383470000Y-132380000D02*
X383470000Y-135750000D01*
X380720000Y-129630000D02*
X383470000Y-132380000D01*
X44040000Y-185330000D02*
X41890000Y-185330000D01*
X41890000Y-185330000D02*
X41860000Y-185300000D01*
X44040000Y-185330000D02*
X44040000Y-186630000D01*
X46880000Y-189470000D02*
X46880000Y-192920000D01*
X44040000Y-186630000D02*
X46880000Y-189470000D01*
X101670000Y-166070000D02*
X99480000Y-166070000D01*
X99480000Y-166070000D02*
X99470000Y-166080000D01*
X101670000Y-166070000D02*
X101670000Y-167020000D01*
X104490000Y-169840000D02*
X104490000Y-173700000D01*
X101670000Y-167020000D02*
X104490000Y-169840000D01*
X140040000Y-166070000D02*
X137830000Y-166070000D01*
X137830000Y-166070000D02*
X137820000Y-166080000D01*
X140040000Y-166070000D02*
X140040000Y-168080000D01*
X142840000Y-170880000D02*
X142840000Y-173700000D01*
X140040000Y-168080000D02*
X142840000Y-170880000D01*
X178410000Y-166070000D02*
X176210000Y-166070000D01*
X176210000Y-166070000D02*
X176200000Y-166080000D01*
X178410000Y-166070000D02*
X178410000Y-167680000D01*
X181220000Y-170490000D02*
X181220000Y-173700000D01*
X178410000Y-167680000D02*
X181220000Y-170490000D01*
X216700000Y-166070000D02*
X214570000Y-166070000D01*
X214570000Y-166070000D02*
X214560000Y-166080000D01*
X216700000Y-166070000D02*
X216700000Y-167370000D01*
X219580000Y-170250000D02*
X219580000Y-173700000D01*
X216700000Y-167370000D02*
X219580000Y-170250000D01*
X255140000Y-166070000D02*
X252940000Y-166070000D01*
X252940000Y-166070000D02*
X252930000Y-166080000D01*
X255140000Y-166070000D02*
X255140000Y-167880000D01*
X257950000Y-170690000D02*
X257950000Y-173700000D01*
X255140000Y-167880000D02*
X257950000Y-170690000D01*
X293430000Y-166110000D02*
X291330000Y-166110000D01*
X291330000Y-166110000D02*
X291320000Y-166100000D01*
X293430000Y-166110000D02*
X293430000Y-167000000D01*
X296340000Y-169910000D02*
X296340000Y-173720000D01*
X293430000Y-167000000D02*
X296340000Y-169910000D01*
X380720000Y-147410000D02*
X378450000Y-147410000D01*
X380720000Y-147410000D02*
X380720000Y-148230000D01*
X383470000Y-150980000D02*
X383470000Y-155030000D01*
X380720000Y-148230000D02*
X383470000Y-150980000D01*
X76530000Y-146910000D02*
X74410000Y-146910000D01*
X74410000Y-146910000D02*
X74400000Y-146920000D01*
X76530000Y-146910000D02*
X76530000Y-147620000D01*
X79420000Y-150510000D02*
X79420000Y-154540000D01*
X76530000Y-147620000D02*
X79420000Y-150510000D01*
X115010000Y-146910000D02*
X112810000Y-146910000D01*
X112810000Y-146910000D02*
X112800000Y-146920000D01*
X115010000Y-146910000D02*
X115010000Y-148400000D01*
X117820000Y-151210000D02*
X117820000Y-154540000D01*
X115010000Y-148400000D02*
X117820000Y-151210000D01*
X153410000Y-146950000D02*
X151220000Y-146950000D01*
X151220000Y-146950000D02*
X151190000Y-146920000D01*
X153410000Y-146950000D02*
X153410000Y-147780000D01*
X156210000Y-150580000D02*
X156210000Y-154540000D01*
X153410000Y-147780000D02*
X156210000Y-150580000D01*
X191740000Y-146910000D02*
X189580000Y-146910000D01*
X189580000Y-146910000D02*
X189570000Y-146920000D01*
X191740000Y-146910000D02*
X191740000Y-147980000D01*
X194590000Y-150830000D02*
X194590000Y-154540000D01*
X191740000Y-147980000D02*
X194590000Y-150830000D01*
X230180000Y-146910000D02*
X227970000Y-146910000D01*
X227970000Y-146910000D02*
X227960000Y-146920000D01*
X230180000Y-146910000D02*
X230180000Y-147200000D01*
X230180000Y-147200000D02*
X230760000Y-147780000D01*
X235380000Y-148830000D02*
X235380000Y-153720000D01*
X234560000Y-154540000D02*
X232980000Y-154540000D01*
X235380000Y-153720000D02*
X234560000Y-154540000D01*
X268590000Y-146910000D02*
X266370000Y-146910000D01*
X266370000Y-146910000D02*
X266360000Y-146920000D01*
X268590000Y-146910000D02*
X268590000Y-148290000D01*
X271380000Y-151080000D02*
X271380000Y-154540000D01*
X268590000Y-148290000D02*
X271380000Y-151080000D01*
X306880000Y-146910000D02*
X304730000Y-146910000D01*
X304730000Y-146910000D02*
X304710000Y-146930000D01*
X306880000Y-146910000D02*
X306880000Y-148060000D01*
X309730000Y-150910000D02*
X309730000Y-154550000D01*
X306880000Y-148060000D02*
X309730000Y-150910000D01*
X380720000Y-166720000D02*
X378450000Y-166720000D01*
X380720000Y-166720000D02*
X380720000Y-167810000D01*
X383470000Y-170560000D02*
X383470000Y-174340000D01*
X380720000Y-167810000D02*
X383470000Y-170560000D01*
X86130000Y-127710000D02*
X84010000Y-127710000D01*
X84010000Y-127710000D02*
X84000000Y-127720000D01*
X86130000Y-127710000D02*
X86130000Y-128510000D01*
X89020000Y-131400000D02*
X89020000Y-135340000D01*
X86130000Y-128510000D02*
X89020000Y-131400000D01*
X124490000Y-127670000D02*
X122420000Y-127670000D01*
X122420000Y-127670000D02*
X122370000Y-127720000D01*
X124490000Y-127670000D02*
X124490000Y-128260000D01*
X127390000Y-131160000D02*
X127390000Y-135340000D01*
X124490000Y-128260000D02*
X127390000Y-131160000D01*
X162900000Y-127710000D02*
X160760000Y-127710000D01*
X160760000Y-127710000D02*
X160750000Y-127720000D01*
X162900000Y-127710000D02*
X162900000Y-129310000D01*
X165770000Y-132180000D02*
X165770000Y-135340000D01*
X162900000Y-129310000D02*
X165770000Y-132180000D01*
X201230000Y-127670000D02*
X199170000Y-127670000D01*
X199170000Y-127670000D02*
X199120000Y-127720000D01*
X201230000Y-127670000D02*
X201230000Y-128830000D01*
X204140000Y-131740000D02*
X204140000Y-135340000D01*
X201230000Y-128830000D02*
X204140000Y-131740000D01*
X239710000Y-127750000D02*
X237520000Y-127750000D01*
X237520000Y-127750000D02*
X237490000Y-127720000D01*
X239710000Y-127750000D02*
X239710000Y-128580000D01*
X242510000Y-131380000D02*
X242510000Y-135340000D01*
X239710000Y-128580000D02*
X242510000Y-131380000D01*
X278070000Y-127710000D02*
X275890000Y-127710000D01*
X275890000Y-127710000D02*
X275880000Y-127720000D01*
X278070000Y-127710000D02*
X278070000Y-129110000D01*
X280900000Y-131940000D02*
X280900000Y-135340000D01*
X278070000Y-129110000D02*
X280900000Y-131940000D01*
X316400000Y-127710000D02*
X314270000Y-127710000D01*
X314270000Y-127710000D02*
X314260000Y-127720000D01*
X316400000Y-127710000D02*
X316400000Y-128590000D01*
X319280000Y-131470000D02*
X319280000Y-135340000D01*
X316400000Y-128590000D02*
X319280000Y-131470000D01*
X380720000Y-186000000D02*
X378450000Y-186000000D01*
X380720000Y-186000000D02*
X380720000Y-188000000D01*
X383470000Y-190750000D02*
X383470000Y-193620000D01*
X380720000Y-188000000D02*
X383470000Y-190750000D01*
X237290000Y-121320000D02*
X237290000Y-113860000D01*
X239160000Y-123190000D02*
X237290000Y-121320000D01*
X244040000Y-123190000D02*
X239160000Y-123190000D01*
X245970000Y-125120000D02*
X244040000Y-123190000D01*
X322330000Y-146290000D02*
X321920000Y-145880000D01*
X322330000Y-149460000D02*
X322330000Y-146290000D01*
X321920000Y-145880000D02*
X321920000Y-129340000D01*
X321920000Y-129340000D02*
X317700000Y-125120000D01*
X317700000Y-125120000D02*
X245970000Y-125120000D01*
X319850000Y-157080000D02*
X319870000Y-157080000D01*
X319870000Y-157080000D02*
X322850000Y-154100000D01*
X322850000Y-149980000D02*
X322330000Y-149460000D01*
X322850000Y-154100000D02*
X322850000Y-149980000D01*
X231140000Y-130260000D02*
X231140000Y-127590000D01*
X232210000Y-122940000D02*
X232210000Y-113860000D01*
X232180000Y-122970000D02*
X232210000Y-122940000D01*
X231140000Y-127590000D02*
X232220000Y-126510000D01*
X75170000Y-137880000D02*
X75180000Y-137880000D01*
X75180000Y-137880000D02*
X78360000Y-134700000D01*
X78360000Y-130970000D02*
X77650000Y-130260000D01*
X78360000Y-134700000D02*
X78360000Y-130970000D01*
X113540000Y-137880000D02*
X113990000Y-137880000D01*
X113990000Y-137880000D02*
X116710000Y-135160000D01*
X116710000Y-130950000D02*
X116020000Y-130260000D01*
X116710000Y-135160000D02*
X116710000Y-130950000D01*
X151920000Y-137880000D02*
X151920000Y-137790000D01*
X151920000Y-137790000D02*
X155160000Y-134550000D01*
X155160000Y-131020000D02*
X154400000Y-130260000D01*
X155160000Y-134550000D02*
X155160000Y-131020000D01*
X190290000Y-137880000D02*
X190290000Y-137480000D01*
X190290000Y-137480000D02*
X193520000Y-134250000D01*
X193520000Y-131010000D02*
X192770000Y-130260000D01*
X193520000Y-134250000D02*
X193520000Y-131010000D01*
X228660000Y-137880000D02*
X228820000Y-137880000D01*
X228820000Y-137880000D02*
X231960000Y-134740000D01*
X231960000Y-131080000D02*
X231140000Y-130260000D01*
X231960000Y-134740000D02*
X231960000Y-131080000D01*
X267050000Y-137880000D02*
X267050000Y-137570000D01*
X267050000Y-137570000D02*
X270290000Y-134330000D01*
X270290000Y-131020000D02*
X269530000Y-130260000D01*
X270290000Y-134330000D02*
X270290000Y-131020000D01*
X305430000Y-137880000D02*
X305430000Y-137320000D01*
X305430000Y-137320000D02*
X308440000Y-134310000D01*
X308440000Y-130790000D02*
X307910000Y-130260000D01*
X308440000Y-134310000D02*
X308440000Y-130790000D01*
X369620000Y-196160000D02*
X369620000Y-196110000D01*
X369620000Y-196110000D02*
X372770000Y-192960000D01*
X372770000Y-189210000D02*
X372100000Y-188540000D01*
X372770000Y-192960000D02*
X372770000Y-189210000D01*
X363290000Y-162000000D02*
X362680000Y-162610000D01*
X362680000Y-162610000D02*
X360990000Y-162610000D01*
X229670000Y-122700000D02*
X229670000Y-113860000D01*
X230740000Y-123770000D02*
X229670000Y-122700000D01*
X243930000Y-123770000D02*
X230740000Y-123770000D01*
X226553604Y-149920002D02*
X233189998Y-149920002D01*
X246020000Y-125860000D02*
X243930000Y-123770000D01*
X221610000Y-149460000D02*
X221670004Y-149460000D01*
X222760004Y-148370000D02*
X225003602Y-148370000D01*
X225003602Y-148370000D02*
X226553604Y-149920002D01*
X221670004Y-149460000D02*
X222760004Y-148370000D01*
X244840000Y-143700000D02*
X246020000Y-142520000D01*
X234660002Y-148449998D02*
X234660002Y-145799998D01*
X234660002Y-145799998D02*
X236760000Y-143700000D01*
X246020000Y-142520000D02*
X246020000Y-125860000D01*
X233189998Y-149920002D02*
X234660002Y-148449998D01*
X236760000Y-143700000D02*
X244840000Y-143700000D01*
X369620000Y-176880000D02*
X369660000Y-176880000D01*
X369660000Y-176880000D02*
X372660000Y-173880000D01*
X372660000Y-169820000D02*
X372100000Y-169260000D01*
X372660000Y-173880000D02*
X372660000Y-169820000D01*
X65570000Y-157080000D02*
X65700000Y-157080000D01*
X65700000Y-157080000D02*
X68590000Y-154190000D01*
X68590000Y-150000000D02*
X68050000Y-149460000D01*
X68590000Y-154190000D02*
X68590000Y-150000000D01*
X103970000Y-157080000D02*
X103970000Y-157060000D01*
X103970000Y-157060000D02*
X107030000Y-154000000D01*
X107030000Y-150040000D02*
X106450000Y-149460000D01*
X107030000Y-154000000D02*
X107030000Y-150040000D01*
X142360000Y-157080000D02*
X142360000Y-156990000D01*
X142360000Y-156990000D02*
X145440000Y-153910000D01*
X145440000Y-150060000D02*
X144840000Y-149460000D01*
X145440000Y-153910000D02*
X145440000Y-150060000D01*
X180740000Y-157080000D02*
X181200000Y-157080000D01*
X181200000Y-157080000D02*
X183910000Y-154370000D01*
X183910000Y-150150000D02*
X183220000Y-149460000D01*
X183910000Y-154370000D02*
X183910000Y-150150000D01*
X219130000Y-157080000D02*
X219130000Y-157070000D01*
X219130000Y-157070000D02*
X222330000Y-153870000D01*
X222330000Y-150180000D02*
X221610000Y-149460000D01*
X222330000Y-153870000D02*
X222330000Y-150180000D01*
X257530000Y-157080000D02*
X257530000Y-156800000D01*
X257530000Y-156800000D02*
X260760000Y-153570000D01*
X260760000Y-150210000D02*
X260010000Y-149460000D01*
X260760000Y-153570000D02*
X260760000Y-150210000D01*
X295880000Y-157090000D02*
X296000000Y-157090000D01*
X296000000Y-157090000D02*
X299000000Y-154090000D01*
X299000000Y-150110000D02*
X298360000Y-149470000D01*
X299000000Y-154090000D02*
X299000000Y-150110000D01*
X87220000Y-179860000D02*
X87290000Y-179790000D01*
X87290000Y-179790000D02*
X87290000Y-171200000D01*
X89870000Y-168620000D02*
X93120000Y-168620000D01*
X87290000Y-171200000D02*
X89870000Y-168620000D01*
X227130000Y-123060000D02*
X227130000Y-113860000D01*
X245560000Y-126040000D02*
X243770000Y-124250000D01*
X245560000Y-142300000D02*
X245560000Y-126040000D01*
X244620000Y-143240000D02*
X245560000Y-142300000D01*
X236530000Y-143240000D02*
X244620000Y-143240000D01*
X234210000Y-145560000D02*
X236530000Y-143240000D01*
X243770000Y-124250000D02*
X228320000Y-124250000D01*
X234210000Y-148080000D02*
X234210000Y-145560000D01*
X228320000Y-124250000D02*
X227130000Y-123060000D01*
X220050000Y-161550000D02*
X217410000Y-158910000D01*
X220050000Y-163900000D02*
X220050000Y-161550000D01*
X232820000Y-149470000D02*
X234210000Y-148080000D01*
X223390000Y-167240000D02*
X220050000Y-163900000D01*
X223390000Y-168420000D02*
X223390000Y-167240000D01*
X225160002Y-147890002D02*
X226740000Y-149470000D01*
X223870000Y-168900000D02*
X223390000Y-168420000D01*
X217410000Y-158910000D02*
X217410000Y-148800000D01*
X217410000Y-148800000D02*
X218319998Y-147890002D01*
X226740000Y-149470000D02*
X232820000Y-149470000D01*
X218319998Y-147890002D02*
X225160002Y-147890002D01*
X369620000Y-157570000D02*
X369740000Y-157570000D01*
X369740000Y-157570000D02*
X372810000Y-154500000D01*
X372810000Y-150660000D02*
X372100000Y-149950000D01*
X372810000Y-154500000D02*
X372810000Y-150660000D01*
X90640000Y-176240000D02*
X90640000Y-176220000D01*
X90640000Y-176220000D02*
X93950000Y-172910000D01*
X93950000Y-169450000D02*
X93120000Y-168620000D01*
X93950000Y-172910000D02*
X93950000Y-169450000D01*
X128990000Y-176240000D02*
X128990000Y-176070000D01*
X128990000Y-176070000D02*
X132130000Y-172930000D01*
X132130000Y-169280000D02*
X131470000Y-168620000D01*
X132130000Y-172930000D02*
X132130000Y-169280000D01*
X167370000Y-176240000D02*
X167370000Y-175760000D01*
X167370000Y-175760000D02*
X170620000Y-172510000D01*
X170620000Y-169390000D02*
X169850000Y-168620000D01*
X170620000Y-172510000D02*
X170620000Y-169390000D01*
X205730000Y-176240000D02*
X205890000Y-176240000D01*
X205890000Y-176240000D02*
X208920000Y-173210000D01*
X208920000Y-169330000D02*
X208210000Y-168620000D01*
X208920000Y-173210000D02*
X208920000Y-169330000D01*
X244100000Y-176240000D02*
X244100000Y-175510000D01*
X244100000Y-175510000D02*
X247290000Y-172320000D01*
X247290000Y-169330000D02*
X246580000Y-168620000D01*
X247290000Y-172320000D02*
X247290000Y-169330000D01*
X282490000Y-176260000D02*
X282490000Y-175590000D01*
X282490000Y-175590000D02*
X285680000Y-172400000D01*
X285680000Y-169350000D02*
X284970000Y-168640000D01*
X285680000Y-172400000D02*
X285680000Y-169350000D01*
X33030000Y-195460000D02*
X33030000Y-194810000D01*
X33030000Y-194810000D02*
X36210000Y-191630000D01*
X36210000Y-188540000D02*
X35510000Y-187840000D01*
X36210000Y-191630000D02*
X36210000Y-188540000D01*
X369620000Y-138290000D02*
X369620000Y-138230000D01*
X369620000Y-138230000D02*
X372720000Y-135130000D01*
X372720000Y-131290000D02*
X372100000Y-130670000D01*
X372720000Y-135130000D02*
X372720000Y-131290000D01*
X80930000Y-195460000D02*
X80930000Y-195310000D01*
X80930000Y-195310000D02*
X84030000Y-192210000D01*
X84030000Y-188460000D02*
X83410000Y-187840000D01*
X84030000Y-192210000D02*
X84030000Y-188460000D01*
X119340000Y-195450000D02*
X119340000Y-195390000D01*
X119340000Y-195390000D02*
X122520000Y-192210000D01*
X122520000Y-188530000D02*
X121820000Y-187830000D01*
X122520000Y-192210000D02*
X122520000Y-188530000D01*
X157740000Y-195450000D02*
X157740000Y-195020000D01*
X157740000Y-195020000D02*
X161030000Y-191730000D01*
X161030000Y-188640000D02*
X160220000Y-187830000D01*
X161030000Y-191730000D02*
X161030000Y-188640000D01*
X196150000Y-195450000D02*
X196150000Y-195220000D01*
X196150000Y-195220000D02*
X199270000Y-192100000D01*
X199270000Y-188470000D02*
X198630000Y-187830000D01*
X199270000Y-192100000D02*
X199270000Y-188470000D01*
X161820000Y-214640000D02*
X161820000Y-214230000D01*
X161820000Y-214230000D02*
X165020000Y-211030000D01*
X165020000Y-207740000D02*
X164300000Y-207020000D01*
X165020000Y-211030000D02*
X165020000Y-207740000D01*
X225950000Y-124710000D02*
X224590000Y-123350000D01*
X216930000Y-159130000D02*
X216930000Y-148500000D01*
X219540000Y-164200000D02*
X219540000Y-161740000D01*
X222940000Y-167600000D02*
X219540000Y-164200000D01*
X224500000Y-179630000D02*
X222940000Y-178070000D01*
X245090000Y-126320000D02*
X243480000Y-124710000D01*
X222940000Y-178070000D02*
X222940000Y-167600000D01*
X233630000Y-147900000D02*
X233630000Y-145500000D01*
X224590000Y-123350000D02*
X224590000Y-113860000D01*
X232590000Y-148940000D02*
X233630000Y-147900000D01*
X219540000Y-161740000D02*
X216930000Y-159130000D01*
X225440000Y-147440000D02*
X226940000Y-148940000D01*
X216930000Y-148500000D02*
X217990000Y-147440000D01*
X243480000Y-124710000D02*
X225950000Y-124710000D01*
X217990000Y-147440000D02*
X225440000Y-147440000D01*
X226940000Y-148940000D02*
X232590000Y-148940000D01*
X233630000Y-145500000D02*
X236340000Y-142790000D01*
X236340000Y-142790000D02*
X244400000Y-142790000D01*
X244400000Y-142790000D02*
X245090000Y-142100000D01*
X245090000Y-142100000D02*
X245090000Y-126320000D01*
X224500000Y-183010000D02*
X224520000Y-183030000D01*
X224500000Y-179630000D02*
X224500000Y-183010000D01*
X234550000Y-195450000D02*
X234550000Y-195070000D01*
X234550000Y-195070000D02*
X237720000Y-191900000D01*
X237720000Y-188520000D02*
X237030000Y-187830000D01*
X237720000Y-191900000D02*
X237720000Y-188520000D01*
X277690000Y-195450000D02*
X277690000Y-194250000D01*
X277690000Y-194250000D02*
X280880000Y-191060000D01*
X280880000Y-188540000D02*
X280170000Y-187830000D01*
X280880000Y-191060000D02*
X280880000Y-188540000D01*
X277690000Y-200070000D02*
X277690000Y-195450000D01*
X277680000Y-200080000D02*
X277690000Y-200070000D01*
X63310000Y-204950000D02*
X64250000Y-205890000D01*
X50820000Y-188080000D02*
X50820000Y-204530000D01*
X51070000Y-187830000D02*
X50820000Y-188080000D01*
X59460000Y-187830000D02*
X51070000Y-187830000D01*
X51240000Y-204950000D02*
X63310000Y-204950000D01*
X50820000Y-204530000D02*
X51240000Y-204950000D01*
X222050000Y-122530000D02*
X222050000Y-113860000D01*
X243250000Y-125180000D02*
X224700000Y-125180000D01*
X244620000Y-126550000D02*
X243250000Y-125180000D01*
X244620000Y-141890000D02*
X244620000Y-126550000D01*
X244210000Y-142300000D02*
X244620000Y-141890000D01*
X224700000Y-125180000D02*
X222050000Y-122530000D01*
X236140000Y-142300000D02*
X244210000Y-142300000D01*
X233040000Y-145400000D02*
X236140000Y-142300000D01*
X233040000Y-147770000D02*
X233040000Y-145400000D01*
X232390000Y-148420000D02*
X233040000Y-147770000D01*
X225670000Y-146970000D02*
X227120000Y-148420000D01*
X222490000Y-168010000D02*
X218930000Y-164450000D01*
X218930000Y-164450000D02*
X218930000Y-161910000D01*
X222490000Y-177820000D02*
X222490000Y-168010000D01*
X216410000Y-159390000D02*
X216410000Y-148350000D01*
X217830000Y-187830000D02*
X217830000Y-182480000D01*
X218930000Y-161910000D02*
X216410000Y-159390000D01*
X216410000Y-148350000D02*
X217790000Y-146970000D01*
X217790000Y-146970000D02*
X225670000Y-146970000D01*
X217830000Y-182480000D02*
X222490000Y-177820000D01*
X227120000Y-148420000D02*
X232390000Y-148420000D01*
X33040000Y-176260000D02*
X33040000Y-176150000D01*
X33040000Y-176150000D02*
X36200000Y-172990000D01*
X36200000Y-169320000D02*
X35520000Y-168640000D01*
X36200000Y-172990000D02*
X36200000Y-169320000D01*
X56980000Y-195450000D02*
X56980000Y-194840000D01*
X56980000Y-194840000D02*
X60250000Y-191570000D01*
X60250000Y-188620000D02*
X59460000Y-187830000D01*
X60250000Y-191570000D02*
X60250000Y-188620000D01*
X100140000Y-195450000D02*
X100140000Y-195350000D01*
X100140000Y-195350000D02*
X103280000Y-192210000D01*
X103280000Y-188490000D02*
X102620000Y-187830000D01*
X103280000Y-192210000D02*
X103280000Y-188490000D01*
X138550000Y-195450000D02*
X138550000Y-195010000D01*
X138550000Y-195010000D02*
X141780000Y-191780000D01*
X141780000Y-188580000D02*
X141030000Y-187830000D01*
X141780000Y-191780000D02*
X141780000Y-188580000D01*
X176950000Y-195450000D02*
X176950000Y-195330000D01*
X176950000Y-195330000D02*
X179910000Y-192370000D01*
X179910000Y-188310000D02*
X179430000Y-187830000D01*
X179910000Y-192370000D02*
X179910000Y-188310000D01*
X215350000Y-195450000D02*
X215350000Y-195350000D01*
X215350000Y-195350000D02*
X218600000Y-192100000D01*
X218600000Y-188600000D02*
X217830000Y-187830000D01*
X218600000Y-192100000D02*
X218600000Y-188600000D01*
X253740000Y-195450000D02*
X253740000Y-195330000D01*
X253740000Y-195330000D02*
X256970000Y-192100000D01*
X256970000Y-188580000D02*
X256220000Y-187830000D01*
X256970000Y-192100000D02*
X256970000Y-188580000D01*
X301640000Y-195450000D02*
X301640000Y-194720000D01*
X301640000Y-194720000D02*
X304800000Y-191560000D01*
X304800000Y-188510000D02*
X304120000Y-187830000D01*
X304800000Y-191560000D02*
X304800000Y-188510000D01*
X219510000Y-121320000D02*
X219510000Y-113860000D01*
X215840000Y-124990000D02*
X219510000Y-121320000D01*
X216840000Y-129280000D02*
X215840000Y-128280000D01*
X225660000Y-129280000D02*
X216840000Y-129280000D01*
X226560000Y-130180000D02*
X225660000Y-129280000D01*
X212960000Y-161520000D02*
X215410000Y-159070000D01*
X193310000Y-161520000D02*
X212960000Y-161520000D01*
X189050000Y-168620000D02*
X189050000Y-165780000D01*
X225290000Y-143350000D02*
X226560000Y-142080000D01*
X189050000Y-165780000D02*
X193310000Y-161520000D01*
X215410000Y-151790000D02*
X211810000Y-148190000D01*
X211810000Y-148190000D02*
X211810000Y-144980000D01*
X215840000Y-128280000D02*
X215840000Y-124990000D01*
X211810000Y-144980000D02*
X213440000Y-143350000D01*
X213440000Y-143350000D02*
X225290000Y-143350000D01*
X215410000Y-159070000D02*
X215410000Y-151790000D01*
X226560000Y-142080000D02*
X226560000Y-130180000D01*
X41610000Y-157080000D02*
X41610000Y-156860000D01*
X41610000Y-156860000D02*
X44710000Y-153760000D01*
X44710000Y-150080000D02*
X44090000Y-149460000D01*
X44710000Y-153760000D02*
X44710000Y-150080000D01*
X71440000Y-176260000D02*
X71440000Y-176180000D01*
X71440000Y-176180000D02*
X74520000Y-173100000D01*
X74520000Y-169240000D02*
X73920000Y-168640000D01*
X74520000Y-173100000D02*
X74520000Y-169240000D01*
X109800000Y-176240000D02*
X109800000Y-176010000D01*
X109800000Y-176010000D02*
X113040000Y-172770000D01*
X113040000Y-169380000D02*
X112280000Y-168620000D01*
X113040000Y-172770000D02*
X113040000Y-169380000D01*
X148190000Y-176240000D02*
X148190000Y-175890000D01*
X148190000Y-175890000D02*
X151260000Y-172820000D01*
X151260000Y-169210000D02*
X150670000Y-168620000D01*
X151260000Y-172820000D02*
X151260000Y-169210000D01*
X186570000Y-176240000D02*
X186570000Y-176170000D01*
X186570000Y-176170000D02*
X189710000Y-173030000D01*
X189710000Y-169280000D02*
X189050000Y-168620000D01*
X189710000Y-173030000D02*
X189710000Y-169280000D01*
X224940000Y-176240000D02*
X224940000Y-176030000D01*
X224940000Y-176030000D02*
X228010000Y-172960000D01*
X228010000Y-169210000D02*
X227420000Y-168620000D01*
X228010000Y-172960000D02*
X228010000Y-169210000D01*
X263300000Y-176240000D02*
X263490000Y-176240000D01*
X263490000Y-176240000D02*
X266400000Y-173330000D01*
X266400000Y-169240000D02*
X265780000Y-168620000D01*
X266400000Y-173330000D02*
X266400000Y-169240000D01*
X320820000Y-195450000D02*
X320820000Y-194990000D01*
X320820000Y-194990000D02*
X323970000Y-191840000D01*
X323970000Y-188500000D02*
X323300000Y-187830000D01*
X323970000Y-191840000D02*
X323970000Y-188500000D01*
X217000000Y-113890000D02*
X216970000Y-113860000D01*
X312110000Y-167050000D02*
X313680000Y-168620000D01*
X310950000Y-146260000D02*
X312110000Y-147420000D01*
X312110000Y-147420000D02*
X312110000Y-167050000D01*
X216970000Y-123060000D02*
X216970000Y-113860000D01*
X216545000Y-129745000D02*
X215050000Y-128250000D01*
X225435000Y-129745000D02*
X216545000Y-129745000D01*
X215050000Y-124980000D02*
X216970000Y-123060000D01*
X215050000Y-128250000D02*
X215050000Y-124980000D01*
X226100000Y-130410000D02*
X225435000Y-129745000D01*
X202400000Y-148570000D02*
X208080000Y-142890000D01*
X224950000Y-142890000D02*
X226100000Y-141740000D01*
X202400000Y-149460000D02*
X202400000Y-148570000D01*
X208080000Y-142890000D02*
X224950000Y-142890000D01*
X226100000Y-141740000D02*
X226100000Y-130410000D01*
X36840000Y-137880000D02*
X36840000Y-137430000D01*
X36840000Y-137430000D02*
X40020000Y-134250000D01*
X40020000Y-130960000D02*
X39320000Y-130260000D01*
X40020000Y-134250000D02*
X40020000Y-130960000D01*
X84770000Y-157080000D02*
X84770000Y-156780000D01*
X84770000Y-156780000D02*
X87950000Y-153600000D01*
X87950000Y-150160000D02*
X87250000Y-149460000D01*
X87950000Y-153600000D02*
X87950000Y-150160000D01*
X123170000Y-157080000D02*
X123370000Y-157080000D01*
X123370000Y-157080000D02*
X126300000Y-154150000D01*
X126300000Y-150110000D02*
X125650000Y-149460000D01*
X126300000Y-154150000D02*
X126300000Y-150110000D01*
X161560000Y-157080000D02*
X161560000Y-156910000D01*
X161560000Y-156910000D02*
X164740000Y-153730000D01*
X164740000Y-150160000D02*
X164040000Y-149460000D01*
X164740000Y-153730000D02*
X164740000Y-150160000D01*
X203180000Y-150240000D02*
X202400000Y-149460000D01*
X199920000Y-157080000D02*
X203180000Y-153820000D01*
X203180000Y-153820000D02*
X203180000Y-150240000D01*
X238330000Y-157080000D02*
X238610000Y-157080000D01*
X238610000Y-157080000D02*
X241470000Y-154220000D01*
X241470000Y-150120000D02*
X240810000Y-149460000D01*
X241470000Y-154220000D02*
X241470000Y-150120000D01*
X276740000Y-157090000D02*
X276740000Y-156880000D01*
X276740000Y-156880000D02*
X279840000Y-153780000D01*
X279840000Y-150090000D02*
X279220000Y-149470000D01*
X279840000Y-153780000D02*
X279840000Y-150090000D01*
X311200000Y-176240000D02*
X311200000Y-175980000D01*
X311200000Y-175980000D02*
X314340000Y-172840000D01*
X314340000Y-169280000D02*
X313680000Y-168620000D01*
X314340000Y-172840000D02*
X314340000Y-169280000D01*
X211970000Y-130260000D02*
X211970000Y-129130000D01*
X214430000Y-124340000D02*
X214430000Y-113860000D01*
X214580000Y-124490000D02*
X214430000Y-124340000D01*
X214580000Y-128290000D02*
X214580000Y-124490000D01*
X214150000Y-128720000D02*
X214580000Y-128290000D01*
X212380000Y-128720000D02*
X214150000Y-128720000D01*
X211970000Y-129130000D02*
X212380000Y-128720000D01*
X211970000Y-130260000D02*
X211970000Y-129190000D01*
X55980000Y-137880000D02*
X55980000Y-137360000D01*
X55980000Y-137360000D02*
X59140000Y-134200000D01*
X59140000Y-130940000D02*
X58460000Y-130260000D01*
X59140000Y-134200000D02*
X59140000Y-130940000D01*
X94370000Y-137880000D02*
X94680000Y-137880000D01*
X94680000Y-137880000D02*
X97480000Y-135080000D01*
X97480000Y-130890000D02*
X96850000Y-130260000D01*
X97480000Y-135080000D02*
X97480000Y-130890000D01*
X132730000Y-137880000D02*
X132730000Y-137670000D01*
X132730000Y-137670000D02*
X135980000Y-134420000D01*
X135980000Y-131030000D02*
X135210000Y-130260000D01*
X135980000Y-134420000D02*
X135980000Y-131030000D01*
X171090000Y-137880000D02*
X171090000Y-137620000D01*
X171090000Y-137620000D02*
X174260000Y-134450000D01*
X174260000Y-130950000D02*
X173570000Y-130260000D01*
X174260000Y-134450000D02*
X174260000Y-130950000D01*
X209490000Y-137880000D02*
X209510000Y-137880000D01*
X209510000Y-137880000D02*
X212780000Y-134610000D01*
X212780000Y-131070000D02*
X211970000Y-130260000D01*
X212780000Y-134610000D02*
X212780000Y-131070000D01*
X247860000Y-137880000D02*
X247860000Y-137660000D01*
X247860000Y-137660000D02*
X251000000Y-134520000D01*
X251000000Y-130920000D02*
X250340000Y-130260000D01*
X251000000Y-134520000D02*
X251000000Y-130920000D01*
X286240000Y-137880000D02*
X286530000Y-137880000D01*
X286530000Y-137880000D02*
X289490000Y-134920000D01*
X289490000Y-131030000D02*
X288720000Y-130260000D01*
X289490000Y-134920000D02*
X289490000Y-131030000D01*
X324620000Y-137880000D02*
X324620000Y-137740000D01*
X324620000Y-137740000D02*
X327680000Y-134680000D01*
X327680000Y-130840000D02*
X327100000Y-130260000D01*
X327680000Y-134680000D02*
X327680000Y-130840000D01*
X61500000Y-166510000D02*
X61070000Y-166080000D01*
X61080000Y-166070000D02*
X61070000Y-166080000D01*
X59710000Y-164720000D02*
X61070000Y-166080000D01*
X51250000Y-164720000D02*
X59710000Y-164720000D01*
X49900000Y-204990000D02*
X49900000Y-187050000D01*
X58250000Y-207120000D02*
X56980000Y-205850000D01*
X58260000Y-207120000D02*
X58250000Y-207120000D01*
X49040000Y-166930000D02*
X51250000Y-164720000D01*
X50760000Y-205850000D02*
X49900000Y-204990000D01*
X56980000Y-205850000D02*
X50760000Y-205850000D01*
X50850000Y-179960000D02*
X49040000Y-178150000D01*
X49900000Y-187050000D02*
X54450000Y-182500000D01*
X54450000Y-180810000D02*
X53600000Y-179960000D01*
X54450000Y-182500000D02*
X54450000Y-180810000D01*
X49040000Y-178150000D02*
X49040000Y-166930000D01*
X53600000Y-179960000D02*
X50850000Y-179960000D01*
X61070000Y-166080000D02*
X62610000Y-166080000D01*
X66090000Y-169560000D02*
X66090000Y-173700000D01*
X62610000Y-166080000D02*
X66090000Y-169560000D01*
X328690000Y-146910000D02*
X328680000Y-146920000D01*
X48720000Y-214470000D02*
X48630000Y-214380000D01*
X48630000Y-209520000D02*
X49400000Y-208750000D01*
X42820000Y-210580000D02*
X48630000Y-210580000D01*
X41990000Y-209750000D02*
X42820000Y-210580000D01*
X48630000Y-214380000D02*
X48630000Y-210580000D01*
X48630000Y-210580000D02*
X48630000Y-209520000D01*
X246180000Y-124590000D02*
X242370000Y-120780000D01*
X317950000Y-124590000D02*
X246180000Y-124590000D01*
X322430000Y-129070000D02*
X317950000Y-124590000D01*
X328680000Y-142390000D02*
X327650000Y-141360000D01*
X328680000Y-146920000D02*
X328680000Y-142390000D01*
X242370000Y-120780000D02*
X242370000Y-113860000D01*
X327650000Y-141360000D02*
X323580000Y-141360000D01*
X323580000Y-141360000D02*
X322430000Y-140210000D01*
X322430000Y-140210000D02*
X322430000Y-129070000D01*
X48990000Y-205680000D02*
X49380000Y-206070000D01*
X50470000Y-181490000D02*
X48990000Y-182970000D01*
X48990000Y-182970000D02*
X48990000Y-205680000D01*
X328680000Y-146920000D02*
X331720000Y-146920000D01*
X333700000Y-148900000D02*
X333700000Y-154540000D01*
X331720000Y-146920000D02*
X333700000Y-148900000D01*
X50510000Y-206300000D02*
X55240000Y-206300000D01*
X49450000Y-205240000D02*
X50510000Y-206300000D01*
X55240000Y-206300000D02*
X56030000Y-207090000D01*
X53010000Y-181490000D02*
X49450000Y-185050000D01*
X49450000Y-185050000D02*
X49450000Y-205240000D01*
X60590000Y-210850000D02*
X60440000Y-211000000D01*
X60440000Y-211000000D02*
X59460000Y-211000000D01*
X59460000Y-211000000D02*
X58580000Y-211880000D01*
X58580000Y-211880000D02*
X58580000Y-214700000D01*
X50320000Y-168620000D02*
X54720000Y-168620000D01*
X49490010Y-169449990D02*
X50320000Y-168620000D01*
X50360000Y-204740000D02*
X50360000Y-187250000D01*
X60810000Y-207120000D02*
X60790000Y-207120000D01*
X50360000Y-187250000D02*
X54910000Y-182700000D01*
X51020000Y-205400000D02*
X50360000Y-204740000D01*
X49490010Y-177930010D02*
X49490010Y-169449990D01*
X59070000Y-205400000D02*
X51020000Y-205400000D01*
X54910000Y-182700000D02*
X54910000Y-180550000D01*
X60790000Y-207120000D02*
X59070000Y-205400000D01*
X54910000Y-180550000D02*
X53850000Y-179490000D01*
X51050000Y-179490000D02*
X49490010Y-177930010D01*
X53850000Y-179490000D02*
X51050000Y-179490000D01*
X52240000Y-176240000D02*
X52240000Y-175930000D01*
X52240000Y-175930000D02*
X55370000Y-172800000D01*
X55370000Y-169270000D02*
X54720000Y-168620000D01*
X55370000Y-172800000D02*
X55370000Y-169270000D01*
M02*
