G04 #@! TF.GenerationSoftware,KiCad,Pcbnew,(5.1.5)-2*
G04 #@! TF.CreationDate,2020-03-07T20:44:30+01:00*
G04 #@! TF.ProjectId,VIC20_kbd,56494332-305f-46b6-9264-2e6b69636164,rev?*
G04 #@! TF.SameCoordinates,Original*
G04 #@! TF.FileFunction,Other,User*
%FSLAX46Y46*%
G04 Gerber Fmt 4.6, Leading zero omitted, Abs format (unit mm)*
G04 Created by KiCad (PCBNEW (5.1.5)-2) date 2020-03-07 20:44:30*
%MOMM*%
%LPD*%
G04 APERTURE LIST*
%ADD10C,0.050000*%
G04 APERTURE END LIST*
D10*
X21870000Y-61030000D02*
X21870000Y-59690000D01*
X24670000Y-61030000D02*
X21870000Y-61030000D01*
X24670000Y-59690000D02*
X24670000Y-61030000D01*
X21870000Y-59690000D02*
X24670000Y-59690000D01*
X60320000Y-60960000D02*
X60320000Y-59620000D01*
X63120000Y-60960000D02*
X60320000Y-60960000D01*
X63120000Y-59620000D02*
X63120000Y-60960000D01*
X60320000Y-59620000D02*
X63120000Y-59620000D01*
X98760000Y-60960000D02*
X98760000Y-59620000D01*
X101560000Y-60960000D02*
X98760000Y-60960000D01*
X101560000Y-59620000D02*
X101560000Y-60960000D01*
X98760000Y-59620000D02*
X101560000Y-59620000D01*
X137130000Y-60960000D02*
X137130000Y-59620000D01*
X139930000Y-60960000D02*
X137130000Y-60960000D01*
X139930000Y-59620000D02*
X139930000Y-60960000D01*
X137130000Y-59620000D02*
X139930000Y-59620000D01*
X175460000Y-60960000D02*
X175460000Y-59620000D01*
X178260000Y-60960000D02*
X175460000Y-60960000D01*
X178260000Y-59620000D02*
X178260000Y-60960000D01*
X175460000Y-59620000D02*
X178260000Y-59620000D01*
X213780000Y-60960000D02*
X213780000Y-59620000D01*
X216580000Y-60960000D02*
X213780000Y-60960000D01*
X216580000Y-59620000D02*
X216580000Y-60960000D01*
X213780000Y-59620000D02*
X216580000Y-59620000D01*
X252110000Y-60960000D02*
X252110000Y-59620000D01*
X254910000Y-60960000D02*
X252110000Y-60960000D01*
X254910000Y-59620000D02*
X254910000Y-60960000D01*
X252110000Y-59620000D02*
X254910000Y-59620000D01*
X290480000Y-60960000D02*
X290480000Y-59620000D01*
X293280000Y-60960000D02*
X290480000Y-60960000D01*
X293280000Y-59620000D02*
X293280000Y-60960000D01*
X290480000Y-59620000D02*
X293280000Y-59620000D01*
X2750000Y-60960000D02*
X2750000Y-59620000D01*
X5550000Y-60960000D02*
X2750000Y-60960000D01*
X5550000Y-59620000D02*
X5550000Y-60960000D01*
X2750000Y-59620000D02*
X5550000Y-59620000D01*
X50750000Y-80160000D02*
X50750000Y-78820000D01*
X53550000Y-80160000D02*
X50750000Y-80160000D01*
X53550000Y-78820000D02*
X53550000Y-80160000D01*
X50750000Y-78820000D02*
X53550000Y-78820000D01*
X89200000Y-80120000D02*
X89200000Y-78780000D01*
X92000000Y-80120000D02*
X89200000Y-80120000D01*
X92000000Y-78780000D02*
X92000000Y-80120000D01*
X89200000Y-78780000D02*
X92000000Y-78780000D01*
X127490000Y-80160000D02*
X127490000Y-78820000D01*
X130290000Y-80160000D02*
X127490000Y-80160000D01*
X130290000Y-78820000D02*
X130290000Y-80160000D01*
X127490000Y-78820000D02*
X130290000Y-78820000D01*
X165820000Y-80160000D02*
X165820000Y-78820000D01*
X168620000Y-80160000D02*
X165820000Y-80160000D01*
X168620000Y-78820000D02*
X168620000Y-80160000D01*
X165820000Y-78820000D02*
X168620000Y-78820000D01*
X204260000Y-80160000D02*
X204260000Y-78820000D01*
X207060000Y-80160000D02*
X204260000Y-80160000D01*
X207060000Y-78820000D02*
X207060000Y-80160000D01*
X204260000Y-78820000D02*
X207060000Y-78820000D01*
X242740000Y-80200000D02*
X242740000Y-78860000D01*
X245540000Y-80200000D02*
X242740000Y-80200000D01*
X245540000Y-78860000D02*
X245540000Y-80200000D01*
X242740000Y-78860000D02*
X245540000Y-78860000D01*
X277180000Y-99290000D02*
X277180000Y-97950000D01*
X279980000Y-99290000D02*
X277180000Y-99290000D01*
X279980000Y-97950000D02*
X279980000Y-99290000D01*
X277180000Y-97950000D02*
X279980000Y-97950000D01*
X7630000Y-80160000D02*
X7630000Y-78820000D01*
X10430000Y-80160000D02*
X7630000Y-80160000D01*
X10430000Y-78820000D02*
X10430000Y-80160000D01*
X7630000Y-78820000D02*
X10430000Y-78820000D01*
X37380000Y-99360000D02*
X37380000Y-98020000D01*
X40180000Y-99360000D02*
X37380000Y-99360000D01*
X40180000Y-98020000D02*
X40180000Y-99360000D01*
X37380000Y-98020000D02*
X40180000Y-98020000D01*
X75750000Y-99320000D02*
X75750000Y-97980000D01*
X78550000Y-99320000D02*
X75750000Y-99320000D01*
X78550000Y-97980000D02*
X78550000Y-99320000D01*
X75750000Y-97980000D02*
X78550000Y-97980000D01*
X114080000Y-99320000D02*
X114080000Y-97980000D01*
X116880000Y-99320000D02*
X114080000Y-99320000D01*
X116880000Y-97980000D02*
X116880000Y-99320000D01*
X114080000Y-97980000D02*
X116880000Y-97980000D01*
X152560000Y-99320000D02*
X152560000Y-97980000D01*
X155360000Y-99320000D02*
X152560000Y-99320000D01*
X155360000Y-97980000D02*
X155360000Y-99320000D01*
X152560000Y-97980000D02*
X155360000Y-97980000D01*
X190920000Y-99290000D02*
X190920000Y-97950000D01*
X193720000Y-99290000D02*
X190920000Y-99290000D01*
X193720000Y-97950000D02*
X193720000Y-99290000D01*
X190920000Y-97950000D02*
X193720000Y-97950000D01*
X229250000Y-99320000D02*
X229250000Y-97980000D01*
X232050000Y-99320000D02*
X229250000Y-99320000D01*
X232050000Y-97980000D02*
X232050000Y-99320000D01*
X229250000Y-97980000D02*
X232050000Y-97980000D01*
X286820000Y-118550000D02*
X286820000Y-117210000D01*
X289620000Y-118550000D02*
X286820000Y-118550000D01*
X289620000Y-117210000D02*
X289620000Y-118550000D01*
X286820000Y-117210000D02*
X289620000Y-117210000D01*
X-990000Y-99360000D02*
X-990000Y-98020000D01*
X1810000Y-99360000D02*
X-990000Y-99360000D01*
X1810000Y-98020000D02*
X1810000Y-99360000D01*
X-990000Y-98020000D02*
X1810000Y-98020000D01*
X22930000Y-118550000D02*
X22930000Y-117210000D01*
X25730000Y-118550000D02*
X22930000Y-118550000D01*
X25730000Y-117210000D02*
X25730000Y-118550000D01*
X22930000Y-117210000D02*
X25730000Y-117210000D01*
X66040000Y-118550000D02*
X66040000Y-117210000D01*
X68840000Y-118550000D02*
X66040000Y-118550000D01*
X68840000Y-117210000D02*
X68840000Y-118550000D01*
X66040000Y-117210000D02*
X68840000Y-117210000D01*
X104460000Y-118550000D02*
X104460000Y-117210000D01*
X107260000Y-118550000D02*
X104460000Y-118550000D01*
X107260000Y-117210000D02*
X107260000Y-118550000D01*
X104460000Y-117210000D02*
X107260000Y-117210000D01*
X142850000Y-118550000D02*
X142850000Y-117210000D01*
X145650000Y-118550000D02*
X142850000Y-118550000D01*
X145650000Y-117210000D02*
X145650000Y-118550000D01*
X142850000Y-117210000D02*
X145650000Y-117210000D01*
X181240000Y-118550000D02*
X181240000Y-117210000D01*
X184040000Y-118550000D02*
X181240000Y-118550000D01*
X184040000Y-117210000D02*
X184040000Y-118550000D01*
X181240000Y-117210000D02*
X184040000Y-117210000D01*
X219710000Y-118550000D02*
X219710000Y-117210000D01*
X222510000Y-118550000D02*
X219710000Y-118550000D01*
X222510000Y-117210000D02*
X222510000Y-118550000D01*
X219710000Y-117210000D02*
X222510000Y-117210000D01*
X267570000Y-118550000D02*
X267570000Y-117210000D01*
X270370000Y-118550000D02*
X267570000Y-118550000D01*
X270370000Y-117210000D02*
X270370000Y-118550000D01*
X267570000Y-117210000D02*
X270370000Y-117210000D01*
X127720000Y-137770000D02*
X127720000Y-136430000D01*
X130520000Y-137770000D02*
X127720000Y-137770000D01*
X130520000Y-136430000D02*
X130520000Y-137770000D01*
X127720000Y-136430000D02*
X130520000Y-136430000D01*
X46790000Y-118550000D02*
X46790000Y-117210000D01*
X49590000Y-118550000D02*
X46790000Y-118550000D01*
X49590000Y-117210000D02*
X49590000Y-118550000D01*
X46790000Y-117210000D02*
X49590000Y-117210000D01*
X85240000Y-118550000D02*
X85240000Y-117210000D01*
X88040000Y-118550000D02*
X85240000Y-118550000D01*
X88040000Y-117210000D02*
X88040000Y-118550000D01*
X85240000Y-117210000D02*
X88040000Y-117210000D01*
X123660000Y-118580000D02*
X123660000Y-117240000D01*
X126460000Y-118580000D02*
X123660000Y-118580000D01*
X126460000Y-117240000D02*
X126460000Y-118580000D01*
X123660000Y-117240000D02*
X126460000Y-117240000D01*
X162130000Y-118550000D02*
X162130000Y-117210000D01*
X164930000Y-118550000D02*
X162130000Y-118550000D01*
X164930000Y-117210000D02*
X164930000Y-118550000D01*
X162130000Y-117210000D02*
X164930000Y-117210000D01*
X200460000Y-118550000D02*
X200460000Y-117210000D01*
X203260000Y-118550000D02*
X200460000Y-118550000D01*
X203260000Y-117210000D02*
X203260000Y-118550000D01*
X200460000Y-117210000D02*
X203260000Y-117210000D01*
X243650000Y-118550000D02*
X243650000Y-117210000D01*
X246450000Y-118550000D02*
X243650000Y-118550000D01*
X246450000Y-117210000D02*
X246450000Y-118550000D01*
X243650000Y-117210000D02*
X246450000Y-117210000D01*
X335670000Y-61380000D02*
X335670000Y-60040000D01*
X338470000Y-61380000D02*
X335670000Y-61380000D01*
X338470000Y-60040000D02*
X338470000Y-61380000D01*
X335670000Y-60040000D02*
X338470000Y-60040000D01*
X-1010000Y-118580000D02*
X-1010000Y-117240000D01*
X1790000Y-118580000D02*
X-1010000Y-118580000D01*
X1790000Y-117240000D02*
X1790000Y-118580000D01*
X-1010000Y-117240000D02*
X1790000Y-117240000D01*
X56620000Y-99320000D02*
X56620000Y-97980000D01*
X59420000Y-99320000D02*
X56620000Y-99320000D01*
X59420000Y-97980000D02*
X59420000Y-99320000D01*
X56620000Y-97980000D02*
X59420000Y-97980000D01*
X94990000Y-99320000D02*
X94990000Y-97980000D01*
X97790000Y-99320000D02*
X94990000Y-99320000D01*
X97790000Y-97980000D02*
X97790000Y-99320000D01*
X94990000Y-97980000D02*
X97790000Y-97980000D01*
X133360000Y-99320000D02*
X133360000Y-97980000D01*
X136160000Y-99320000D02*
X133360000Y-99320000D01*
X136160000Y-97980000D02*
X136160000Y-99320000D01*
X133360000Y-97980000D02*
X136160000Y-97980000D01*
X171650000Y-99320000D02*
X171650000Y-97980000D01*
X174450000Y-99320000D02*
X171650000Y-99320000D01*
X174450000Y-97980000D02*
X174450000Y-99320000D01*
X171650000Y-97980000D02*
X174450000Y-97980000D01*
X210090000Y-99320000D02*
X210090000Y-97980000D01*
X212890000Y-99320000D02*
X210090000Y-99320000D01*
X212890000Y-97980000D02*
X212890000Y-99320000D01*
X210090000Y-97980000D02*
X212890000Y-97980000D01*
X248380000Y-99360000D02*
X248380000Y-98020000D01*
X251180000Y-99360000D02*
X248380000Y-99360000D01*
X251180000Y-98020000D02*
X251180000Y-99360000D01*
X248380000Y-98020000D02*
X251180000Y-98020000D01*
X335670000Y-80660000D02*
X335670000Y-79320000D01*
X338470000Y-80660000D02*
X335670000Y-80660000D01*
X338470000Y-79320000D02*
X338470000Y-80660000D01*
X335670000Y-79320000D02*
X338470000Y-79320000D01*
X31480000Y-80160000D02*
X31480000Y-78820000D01*
X34280000Y-80160000D02*
X31480000Y-80160000D01*
X34280000Y-78820000D02*
X34280000Y-80160000D01*
X31480000Y-78820000D02*
X34280000Y-78820000D01*
X69960000Y-80160000D02*
X69960000Y-78820000D01*
X72760000Y-80160000D02*
X69960000Y-80160000D01*
X72760000Y-78820000D02*
X72760000Y-80160000D01*
X69960000Y-78820000D02*
X72760000Y-78820000D01*
X108360000Y-80200000D02*
X108360000Y-78860000D01*
X111160000Y-80200000D02*
X108360000Y-80200000D01*
X111160000Y-78860000D02*
X111160000Y-80200000D01*
X108360000Y-78860000D02*
X111160000Y-78860000D01*
X146690000Y-80160000D02*
X146690000Y-78820000D01*
X149490000Y-80160000D02*
X146690000Y-80160000D01*
X149490000Y-78820000D02*
X149490000Y-80160000D01*
X146690000Y-78820000D02*
X149490000Y-78820000D01*
X185130000Y-80160000D02*
X185130000Y-78820000D01*
X187930000Y-80160000D02*
X185130000Y-80160000D01*
X187930000Y-78820000D02*
X187930000Y-80160000D01*
X185130000Y-78820000D02*
X187930000Y-78820000D01*
X223540000Y-80160000D02*
X223540000Y-78820000D01*
X226340000Y-80160000D02*
X223540000Y-80160000D01*
X226340000Y-78820000D02*
X226340000Y-80160000D01*
X223540000Y-78820000D02*
X226340000Y-78820000D01*
X261830000Y-80160000D02*
X261830000Y-78820000D01*
X264630000Y-80160000D02*
X261830000Y-80160000D01*
X264630000Y-78820000D02*
X264630000Y-80160000D01*
X261830000Y-78820000D02*
X264630000Y-78820000D01*
X335670000Y-99970000D02*
X335670000Y-98630000D01*
X338470000Y-99970000D02*
X335670000Y-99970000D01*
X338470000Y-98630000D02*
X338470000Y-99970000D01*
X335670000Y-98630000D02*
X338470000Y-98630000D01*
X41080000Y-60960000D02*
X41080000Y-59620000D01*
X43880000Y-60960000D02*
X41080000Y-60960000D01*
X43880000Y-59620000D02*
X43880000Y-60960000D01*
X41080000Y-59620000D02*
X43880000Y-59620000D01*
X79440000Y-60920000D02*
X79440000Y-59580000D01*
X82240000Y-60920000D02*
X79440000Y-60920000D01*
X82240000Y-59580000D02*
X82240000Y-60920000D01*
X79440000Y-59580000D02*
X82240000Y-59580000D01*
X117850000Y-60960000D02*
X117850000Y-59620000D01*
X120650000Y-60960000D02*
X117850000Y-60960000D01*
X120650000Y-59620000D02*
X120650000Y-60960000D01*
X117850000Y-59620000D02*
X120650000Y-59620000D01*
X156180000Y-60920000D02*
X156180000Y-59580000D01*
X158980000Y-60920000D02*
X156180000Y-60920000D01*
X158980000Y-59580000D02*
X158980000Y-60920000D01*
X156180000Y-59580000D02*
X158980000Y-59580000D01*
X194660000Y-61000000D02*
X194660000Y-59660000D01*
X197460000Y-61000000D02*
X194660000Y-61000000D01*
X197460000Y-59660000D02*
X197460000Y-61000000D01*
X194660000Y-59660000D02*
X197460000Y-59660000D01*
X233020000Y-60960000D02*
X233020000Y-59620000D01*
X235820000Y-60960000D02*
X233020000Y-60960000D01*
X235820000Y-59620000D02*
X235820000Y-60960000D01*
X233020000Y-59620000D02*
X235820000Y-59620000D01*
X271350000Y-60960000D02*
X271350000Y-59620000D01*
X274150000Y-60960000D02*
X271350000Y-60960000D01*
X274150000Y-59620000D02*
X274150000Y-60960000D01*
X271350000Y-59620000D02*
X274150000Y-59620000D01*
X335670000Y-119250000D02*
X335670000Y-117910000D01*
X338470000Y-119250000D02*
X335670000Y-119250000D01*
X338470000Y-117910000D02*
X338470000Y-119250000D01*
X335670000Y-117910000D02*
X338470000Y-117910000D01*
M02*
