G04 #@! TF.GenerationSoftware,KiCad,Pcbnew,(5.1.5)-2*
G04 #@! TF.CreationDate,2021-01-09T12:48:30+01:00*
G04 #@! TF.ProjectId,VIC20_kbd,56494332-305f-46b6-9264-2e6b69636164,2.0*
G04 #@! TF.SameCoordinates,Original*
G04 #@! TF.FileFunction,Other,User*
%FSLAX46Y46*%
G04 Gerber Fmt 4.6, Leading zero omitted, Abs format (unit mm)*
G04 Created by KiCad (PCBNEW (5.1.5)-2) date 2021-01-09 12:48:30*
%MOMM*%
%LPD*%
G04 APERTURE LIST*
%ADD10C,0.050000*%
G04 APERTURE END LIST*
D10*
X46090000Y-208150000D02*
X43590000Y-208150000D01*
X46090000Y-208150000D02*
X46090000Y-206750000D01*
X43590000Y-206750000D02*
X43590000Y-208150000D01*
X43590000Y-206750000D02*
X46090000Y-206750000D01*
X47230000Y-206850000D02*
X50030000Y-206850000D01*
X47230000Y-206850000D02*
X47230000Y-208150000D01*
X50030000Y-208150000D02*
X50030000Y-206850000D01*
X50030000Y-208150000D02*
X47230000Y-208150000D01*
X54740000Y-207560000D02*
X54740000Y-210360000D01*
X54740000Y-207560000D02*
X53440000Y-207560000D01*
X53440000Y-210360000D02*
X54740000Y-210360000D01*
X53440000Y-210360000D02*
X53440000Y-207560000D01*
X244170000Y-112060000D02*
X192320000Y-112060000D01*
X192320000Y-112060000D02*
X192320000Y-115660000D01*
X192320000Y-115660000D02*
X244170000Y-115660000D01*
X244170000Y-115660000D02*
X244170000Y-112060000D01*
X195410000Y-108340000D02*
G75*
G03X195410000Y-108340000I-2450000J0D01*
G01*
X207990000Y-108340000D02*
G75*
G03X207990000Y-108340000I-2450000J0D01*
G01*
X220690000Y-108340000D02*
G75*
G03X220690000Y-108340000I-2450000J0D01*
G01*
X233390000Y-108340000D02*
G75*
G03X233390000Y-108340000I-2450000J0D01*
G01*
X246070000Y-108340000D02*
G75*
G03X246070000Y-108340000I-2450000J0D01*
G01*
X392770000Y-124420000D02*
G75*
G03X392770000Y-124420000I-2450000J0D01*
G01*
X392770000Y-216680000D02*
G75*
G03X392770000Y-216680000I-2450000J0D01*
G01*
X240370000Y-201830000D02*
G75*
G03X240370000Y-201830000I-2450000J0D01*
G01*
X99060000Y-201820000D02*
G75*
G03X99060000Y-201820000I-2450000J0D01*
G01*
X32290000Y-216680000D02*
G75*
G03X32290000Y-216680000I-2450000J0D01*
G01*
X32290000Y-124420000D02*
G75*
G03X32290000Y-124420000I-2450000J0D01*
G01*
X351200000Y-131180000D02*
G75*
G03X351200000Y-131180000I-2450000J0D01*
G01*
X131830000Y-141410000D02*
G75*
G03X131830000Y-141410000I-2450000J0D01*
G01*
X237610000Y-160940000D02*
G75*
G03X237610000Y-160940000I-2450000J0D01*
G01*
X160630000Y-160940000D02*
G75*
G03X160630000Y-160940000I-2450000J0D01*
G01*
X140130000Y-216680000D02*
G75*
G03X140130000Y-216680000I-2450000J0D01*
G01*
X192100000Y-216680000D02*
G75*
G03X192100000Y-216680000I-2450000J0D01*
G01*
X343820000Y-201820000D02*
G75*
G03X343820000Y-201820000I-2450000J0D01*
G01*
X109060000Y-202570000D02*
G75*
G03X109060000Y-202570000I-3450000J0D01*
G01*
X234060000Y-202570000D02*
G75*
G03X234060000Y-202570000I-3450000J0D01*
G01*
X234860000Y-217800000D02*
G75*
G03X234860000Y-217800000I-4250000J0D01*
G01*
X109860000Y-217800000D02*
G75*
G03X109860000Y-217800000I-4250000J0D01*
G01*
X54970000Y-178240000D02*
X48520000Y-178240000D01*
X54970000Y-184740000D02*
X54970000Y-178240000D01*
X48520000Y-184740000D02*
X54970000Y-184740000D01*
X48520000Y-178240000D02*
X48520000Y-184740000D01*
X66000000Y-210520000D02*
X62500000Y-210520000D01*
X66000000Y-207120000D02*
X66000000Y-210520000D01*
X62500000Y-207120000D02*
X66000000Y-207120000D01*
X62500000Y-210520000D02*
X62500000Y-207120000D01*
X59110000Y-207710000D02*
X59110000Y-210210000D01*
X59110000Y-207710000D02*
X57710000Y-207710000D01*
X57710000Y-210210000D02*
X59110000Y-210210000D01*
X57710000Y-210210000D02*
X57710000Y-207710000D01*
X59780000Y-212170000D02*
X62280000Y-212170000D01*
X59780000Y-212170000D02*
X59780000Y-213570000D01*
X62280000Y-213570000D02*
X62280000Y-212170000D01*
X62280000Y-213570000D02*
X59780000Y-213570000D01*
X60100000Y-210210000D02*
X60100000Y-207710000D01*
X60100000Y-210210000D02*
X61500000Y-210210000D01*
X61500000Y-207710000D02*
X60100000Y-207710000D01*
X61500000Y-207710000D02*
X61500000Y-210210000D01*
X56860000Y-211710000D02*
X56860000Y-214210000D01*
X56860000Y-211710000D02*
X55460000Y-211710000D01*
X55460000Y-214210000D02*
X56860000Y-214210000D01*
X55460000Y-214210000D02*
X55460000Y-211710000D01*
X55370000Y-210250000D02*
X55370000Y-207750000D01*
X55370000Y-210250000D02*
X56770000Y-210250000D01*
X56770000Y-207750000D02*
X55370000Y-207750000D01*
X56770000Y-207750000D02*
X56770000Y-210250000D01*
X51380000Y-210070000D02*
X43920000Y-210070000D01*
X51380000Y-215470000D02*
X43920000Y-215470000D01*
X43920000Y-215470000D02*
X43920000Y-210070000D01*
X51380000Y-215470000D02*
X51380000Y-210070000D01*
M02*
