G04 #@! TF.GenerationSoftware,KiCad,Pcbnew,(5.1.5)-2*
G04 #@! TF.CreationDate,2020-02-23T11:28:55+01:00*
G04 #@! TF.ProjectId,VIC20_kbd,56494332-305f-46b6-9264-2e6b69636164,rev?*
G04 #@! TF.SameCoordinates,Original*
G04 #@! TF.FileFunction,Legend,Top*
G04 #@! TF.FilePolarity,Positive*
%FSLAX46Y46*%
G04 Gerber Fmt 4.6, Leading zero omitted, Abs format (unit mm)*
G04 Created by KiCad (PCBNEW (5.1.5)-2) date 2020-02-23 11:28:55*
%MOMM*%
%LPD*%
G04 APERTURE LIST*
%ADD10C,0.300000*%
%ADD11C,0.200000*%
%ADD12C,0.120000*%
%ADD13C,0.150000*%
G04 APERTURE END LIST*
D10*
X277607142Y-145803571D02*
X278107142Y-147303571D01*
X278607142Y-145803571D01*
X279107142Y-147303571D02*
X279107142Y-145803571D01*
X280678571Y-147160714D02*
X280607142Y-147232142D01*
X280392857Y-147303571D01*
X280250000Y-147303571D01*
X280035714Y-147232142D01*
X279892857Y-147089285D01*
X279821428Y-146946428D01*
X279750000Y-146660714D01*
X279750000Y-146446428D01*
X279821428Y-146160714D01*
X279892857Y-146017857D01*
X280035714Y-145875000D01*
X280250000Y-145803571D01*
X280392857Y-145803571D01*
X280607142Y-145875000D01*
X280678571Y-145946428D01*
X281321428Y-146732142D02*
X282464285Y-146732142D01*
X283107142Y-145946428D02*
X283178571Y-145875000D01*
X283321428Y-145803571D01*
X283678571Y-145803571D01*
X283821428Y-145875000D01*
X283892857Y-145946428D01*
X283964285Y-146089285D01*
X283964285Y-146232142D01*
X283892857Y-146446428D01*
X283035714Y-147303571D01*
X283964285Y-147303571D01*
X284892857Y-145803571D02*
X285035714Y-145803571D01*
X285178571Y-145875000D01*
X285250000Y-145946428D01*
X285321428Y-146089285D01*
X285392857Y-146375000D01*
X285392857Y-146732142D01*
X285321428Y-147017857D01*
X285250000Y-147160714D01*
X285178571Y-147232142D01*
X285035714Y-147303571D01*
X284892857Y-147303571D01*
X284750000Y-147232142D01*
X284678571Y-147160714D01*
X284607142Y-147017857D01*
X284535714Y-146732142D01*
X284535714Y-146375000D01*
X284607142Y-146089285D01*
X284678571Y-145946428D01*
X284750000Y-145875000D01*
X284892857Y-145803571D01*
X287178571Y-147303571D02*
X287178571Y-145803571D01*
X287321428Y-146732142D02*
X287750000Y-147303571D01*
X287750000Y-146303571D02*
X287178571Y-146875000D01*
X288964285Y-147232142D02*
X288821428Y-147303571D01*
X288535714Y-147303571D01*
X288392857Y-147232142D01*
X288321428Y-147089285D01*
X288321428Y-146517857D01*
X288392857Y-146375000D01*
X288535714Y-146303571D01*
X288821428Y-146303571D01*
X288964285Y-146375000D01*
X289035714Y-146517857D01*
X289035714Y-146660714D01*
X288321428Y-146803571D01*
X289535714Y-146303571D02*
X289892857Y-147303571D01*
X290250000Y-146303571D02*
X289892857Y-147303571D01*
X289750000Y-147660714D01*
X289678571Y-147732142D01*
X289535714Y-147803571D01*
X290821428Y-147303571D02*
X290821428Y-145803571D01*
X290821428Y-146375000D02*
X290964285Y-146303571D01*
X291250000Y-146303571D01*
X291392857Y-146375000D01*
X291464285Y-146446428D01*
X291535714Y-146589285D01*
X291535714Y-147017857D01*
X291464285Y-147160714D01*
X291392857Y-147232142D01*
X291250000Y-147303571D01*
X290964285Y-147303571D01*
X290821428Y-147232142D01*
X292392857Y-147303571D02*
X292250000Y-147232142D01*
X292178571Y-147160714D01*
X292107142Y-147017857D01*
X292107142Y-146589285D01*
X292178571Y-146446428D01*
X292250000Y-146375000D01*
X292392857Y-146303571D01*
X292607142Y-146303571D01*
X292750000Y-146375000D01*
X292821428Y-146446428D01*
X292892857Y-146589285D01*
X292892857Y-147017857D01*
X292821428Y-147160714D01*
X292750000Y-147232142D01*
X292607142Y-147303571D01*
X292392857Y-147303571D01*
X294178571Y-147303571D02*
X294178571Y-146517857D01*
X294107142Y-146375000D01*
X293964285Y-146303571D01*
X293678571Y-146303571D01*
X293535714Y-146375000D01*
X294178571Y-147232142D02*
X294035714Y-147303571D01*
X293678571Y-147303571D01*
X293535714Y-147232142D01*
X293464285Y-147089285D01*
X293464285Y-146946428D01*
X293535714Y-146803571D01*
X293678571Y-146732142D01*
X294035714Y-146732142D01*
X294178571Y-146660714D01*
X294892857Y-147303571D02*
X294892857Y-146303571D01*
X294892857Y-146589285D02*
X294964285Y-146446428D01*
X295035714Y-146375000D01*
X295178571Y-146303571D01*
X295321428Y-146303571D01*
X296464285Y-147303571D02*
X296464285Y-145803571D01*
X296464285Y-147232142D02*
X296321428Y-147303571D01*
X296035714Y-147303571D01*
X295892857Y-147232142D01*
X295821428Y-147160714D01*
X295750000Y-147017857D01*
X295750000Y-146589285D01*
X295821428Y-146446428D01*
X295892857Y-146375000D01*
X296035714Y-146303571D01*
X296321428Y-146303571D01*
X296464285Y-146375000D01*
X298107142Y-146303571D02*
X298678571Y-146303571D01*
X298321428Y-147303571D02*
X298321428Y-146017857D01*
X298392857Y-145875000D01*
X298535714Y-145803571D01*
X298678571Y-145803571D01*
X299392857Y-147303571D02*
X299250000Y-147232142D01*
X299178571Y-147160714D01*
X299107142Y-147017857D01*
X299107142Y-146589285D01*
X299178571Y-146446428D01*
X299250000Y-146375000D01*
X299392857Y-146303571D01*
X299607142Y-146303571D01*
X299750000Y-146375000D01*
X299821428Y-146446428D01*
X299892857Y-146589285D01*
X299892857Y-147017857D01*
X299821428Y-147160714D01*
X299750000Y-147232142D01*
X299607142Y-147303571D01*
X299392857Y-147303571D01*
X300535714Y-147303571D02*
X300535714Y-146303571D01*
X300535714Y-146589285D02*
X300607142Y-146446428D01*
X300678571Y-146375000D01*
X300821428Y-146303571D01*
X300964285Y-146303571D01*
X303464285Y-147160714D02*
X303392857Y-147232142D01*
X303178571Y-147303571D01*
X303035714Y-147303571D01*
X302821428Y-147232142D01*
X302678571Y-147089285D01*
X302607142Y-146946428D01*
X302535714Y-146660714D01*
X302535714Y-146446428D01*
X302607142Y-146160714D01*
X302678571Y-146017857D01*
X302821428Y-145875000D01*
X303035714Y-145803571D01*
X303178571Y-145803571D01*
X303392857Y-145875000D01*
X303464285Y-145946428D01*
X304107142Y-147303571D02*
X304107142Y-145803571D01*
X304750000Y-147303571D02*
X304750000Y-146517857D01*
X304678571Y-146375000D01*
X304535714Y-146303571D01*
X304321428Y-146303571D01*
X304178571Y-146375000D01*
X304107142Y-146446428D01*
X306035714Y-147232142D02*
X305892857Y-147303571D01*
X305607142Y-147303571D01*
X305464285Y-147232142D01*
X305392857Y-147089285D01*
X305392857Y-146517857D01*
X305464285Y-146375000D01*
X305607142Y-146303571D01*
X305892857Y-146303571D01*
X306035714Y-146375000D01*
X306107142Y-146517857D01*
X306107142Y-146660714D01*
X305392857Y-146803571D01*
X306750000Y-147303571D02*
X306750000Y-146303571D01*
X306750000Y-146589285D02*
X306821428Y-146446428D01*
X306892857Y-146375000D01*
X307035714Y-146303571D01*
X307178571Y-146303571D01*
X307678571Y-147303571D02*
X307678571Y-146303571D01*
X307678571Y-146589285D02*
X307750000Y-146446428D01*
X307821428Y-146375000D01*
X307964285Y-146303571D01*
X308107142Y-146303571D01*
X308464285Y-146303571D02*
X308821428Y-147303571D01*
X309178571Y-146303571D02*
X308821428Y-147303571D01*
X308678571Y-147660714D01*
X308607142Y-147732142D01*
X308464285Y-147803571D01*
X310892857Y-147303571D02*
X310892857Y-145803571D01*
X311392857Y-146875000D01*
X311892857Y-145803571D01*
X311892857Y-147303571D01*
X312464285Y-145803571D02*
X313464285Y-147303571D01*
X313464285Y-145803571D02*
X312464285Y-147303571D01*
X315107142Y-147232142D02*
X315250000Y-147303571D01*
X315535714Y-147303571D01*
X315678571Y-147232142D01*
X315750000Y-147089285D01*
X315750000Y-147017857D01*
X315678571Y-146875000D01*
X315535714Y-146803571D01*
X315321428Y-146803571D01*
X315178571Y-146732142D01*
X315107142Y-146589285D01*
X315107142Y-146517857D01*
X315178571Y-146375000D01*
X315321428Y-146303571D01*
X315535714Y-146303571D01*
X315678571Y-146375000D01*
X316250000Y-146303571D02*
X316535714Y-147303571D01*
X316821428Y-146589285D01*
X317107142Y-147303571D01*
X317392857Y-146303571D01*
X317964285Y-147303571D02*
X317964285Y-146303571D01*
X317964285Y-145803571D02*
X317892857Y-145875000D01*
X317964285Y-145946428D01*
X318035714Y-145875000D01*
X317964285Y-145803571D01*
X317964285Y-145946428D01*
X318464285Y-146303571D02*
X319035714Y-146303571D01*
X318678571Y-145803571D02*
X318678571Y-147089285D01*
X318750000Y-147232142D01*
X318892857Y-147303571D01*
X319035714Y-147303571D01*
X320178571Y-147232142D02*
X320035714Y-147303571D01*
X319750000Y-147303571D01*
X319607142Y-147232142D01*
X319535714Y-147160714D01*
X319464285Y-147017857D01*
X319464285Y-146589285D01*
X319535714Y-146446428D01*
X319607142Y-146375000D01*
X319750000Y-146303571D01*
X320035714Y-146303571D01*
X320178571Y-146375000D01*
X320821428Y-147303571D02*
X320821428Y-145803571D01*
X321464285Y-147303571D02*
X321464285Y-146517857D01*
X321392857Y-146375000D01*
X321250000Y-146303571D01*
X321035714Y-146303571D01*
X320892857Y-146375000D01*
X320821428Y-146446428D01*
X322750000Y-147232142D02*
X322607142Y-147303571D01*
X322321428Y-147303571D01*
X322178571Y-147232142D01*
X322107142Y-147089285D01*
X322107142Y-146517857D01*
X322178571Y-146375000D01*
X322321428Y-146303571D01*
X322607142Y-146303571D01*
X322750000Y-146375000D01*
X322821428Y-146517857D01*
X322821428Y-146660714D01*
X322107142Y-146803571D01*
X323392857Y-147232142D02*
X323535714Y-147303571D01*
X323821428Y-147303571D01*
X323964285Y-147232142D01*
X324035714Y-147089285D01*
X324035714Y-147017857D01*
X323964285Y-146875000D01*
X323821428Y-146803571D01*
X323607142Y-146803571D01*
X323464285Y-146732142D01*
X323392857Y-146589285D01*
X323392857Y-146517857D01*
X323464285Y-146375000D01*
X323607142Y-146303571D01*
X323821428Y-146303571D01*
X323964285Y-146375000D01*
X324678571Y-147160714D02*
X324750000Y-147232142D01*
X324678571Y-147303571D01*
X324607142Y-147232142D01*
X324678571Y-147160714D01*
X324678571Y-147303571D01*
X326321428Y-145803571D02*
X326821428Y-147303571D01*
X327321428Y-145803571D01*
X328607142Y-147303571D02*
X327750000Y-147303571D01*
X328178571Y-147303571D02*
X328178571Y-145803571D01*
X328035714Y-146017857D01*
X327892857Y-146160714D01*
X327750000Y-146232142D01*
X329250000Y-147160714D02*
X329321428Y-147232142D01*
X329250000Y-147303571D01*
X329178571Y-147232142D01*
X329250000Y-147160714D01*
X329250000Y-147303571D01*
X329821428Y-145803571D02*
X330750000Y-145803571D01*
X330250000Y-146375000D01*
X330464285Y-146375000D01*
X330607142Y-146446428D01*
X330678571Y-146517857D01*
X330750000Y-146660714D01*
X330750000Y-147017857D01*
X330678571Y-147160714D01*
X330607142Y-147232142D01*
X330464285Y-147303571D01*
X330035714Y-147303571D01*
X329892857Y-147232142D01*
X329821428Y-147160714D01*
X288857142Y-149425000D02*
X289571428Y-149425000D01*
X288714285Y-149853571D02*
X289214285Y-148353571D01*
X289714285Y-149853571D01*
X290857142Y-148853571D02*
X290857142Y-149853571D01*
X290214285Y-148853571D02*
X290214285Y-149639285D01*
X290285714Y-149782142D01*
X290428571Y-149853571D01*
X290642857Y-149853571D01*
X290785714Y-149782142D01*
X290857142Y-149710714D01*
X292214285Y-148853571D02*
X292214285Y-150067857D01*
X292142857Y-150210714D01*
X292071428Y-150282142D01*
X291928571Y-150353571D01*
X291714285Y-150353571D01*
X291571428Y-150282142D01*
X292214285Y-149782142D02*
X292071428Y-149853571D01*
X291785714Y-149853571D01*
X291642857Y-149782142D01*
X291571428Y-149710714D01*
X291500000Y-149567857D01*
X291500000Y-149139285D01*
X291571428Y-148996428D01*
X291642857Y-148925000D01*
X291785714Y-148853571D01*
X292071428Y-148853571D01*
X292214285Y-148925000D01*
X293571428Y-148853571D02*
X293571428Y-149853571D01*
X292928571Y-148853571D02*
X292928571Y-149639285D01*
X293000000Y-149782142D01*
X293142857Y-149853571D01*
X293357142Y-149853571D01*
X293500000Y-149782142D01*
X293571428Y-149710714D01*
X294214285Y-149782142D02*
X294357142Y-149853571D01*
X294642857Y-149853571D01*
X294785714Y-149782142D01*
X294857142Y-149639285D01*
X294857142Y-149567857D01*
X294785714Y-149425000D01*
X294642857Y-149353571D01*
X294428571Y-149353571D01*
X294285714Y-149282142D01*
X294214285Y-149139285D01*
X294214285Y-149067857D01*
X294285714Y-148925000D01*
X294428571Y-148853571D01*
X294642857Y-148853571D01*
X294785714Y-148925000D01*
X295285714Y-148853571D02*
X295857142Y-148853571D01*
X295500000Y-148353571D02*
X295500000Y-149639285D01*
X295571428Y-149782142D01*
X295714285Y-149853571D01*
X295857142Y-149853571D01*
X297428571Y-148496428D02*
X297500000Y-148425000D01*
X297642857Y-148353571D01*
X298000000Y-148353571D01*
X298142857Y-148425000D01*
X298214285Y-148496428D01*
X298285714Y-148639285D01*
X298285714Y-148782142D01*
X298214285Y-148996428D01*
X297357142Y-149853571D01*
X298285714Y-149853571D01*
X299214285Y-148353571D02*
X299357142Y-148353571D01*
X299500000Y-148425000D01*
X299571428Y-148496428D01*
X299642857Y-148639285D01*
X299714285Y-148925000D01*
X299714285Y-149282142D01*
X299642857Y-149567857D01*
X299571428Y-149710714D01*
X299500000Y-149782142D01*
X299357142Y-149853571D01*
X299214285Y-149853571D01*
X299071428Y-149782142D01*
X299000000Y-149710714D01*
X298928571Y-149567857D01*
X298857142Y-149282142D01*
X298857142Y-148925000D01*
X298928571Y-148639285D01*
X299000000Y-148496428D01*
X299071428Y-148425000D01*
X299214285Y-148353571D01*
X301142857Y-149853571D02*
X300285714Y-149853571D01*
X300714285Y-149853571D02*
X300714285Y-148353571D01*
X300571428Y-148567857D01*
X300428571Y-148710714D01*
X300285714Y-148782142D01*
X301857142Y-149853571D02*
X302142857Y-149853571D01*
X302285714Y-149782142D01*
X302357142Y-149710714D01*
X302500000Y-149496428D01*
X302571428Y-149210714D01*
X302571428Y-148639285D01*
X302500000Y-148496428D01*
X302428571Y-148425000D01*
X302285714Y-148353571D01*
X302000000Y-148353571D01*
X301857142Y-148425000D01*
X301785714Y-148496428D01*
X301714285Y-148639285D01*
X301714285Y-148996428D01*
X301785714Y-149139285D01*
X301857142Y-149210714D01*
X302000000Y-149282142D01*
X302285714Y-149282142D01*
X302428571Y-149210714D01*
X302500000Y-149139285D01*
X302571428Y-148996428D01*
X303285714Y-149782142D02*
X303285714Y-149853571D01*
X303214285Y-149996428D01*
X303142857Y-150067857D01*
X305071428Y-149853571D02*
X305071428Y-148353571D01*
X305071428Y-149067857D02*
X305928571Y-149067857D01*
X305928571Y-149853571D02*
X305928571Y-148353571D01*
X307285714Y-149853571D02*
X307285714Y-149067857D01*
X307214285Y-148925000D01*
X307071428Y-148853571D01*
X306785714Y-148853571D01*
X306642857Y-148925000D01*
X307285714Y-149782142D02*
X307142857Y-149853571D01*
X306785714Y-149853571D01*
X306642857Y-149782142D01*
X306571428Y-149639285D01*
X306571428Y-149496428D01*
X306642857Y-149353571D01*
X306785714Y-149282142D01*
X307142857Y-149282142D01*
X307285714Y-149210714D01*
X308000000Y-148853571D02*
X308000000Y-149853571D01*
X308000000Y-148996428D02*
X308071428Y-148925000D01*
X308214285Y-148853571D01*
X308428571Y-148853571D01*
X308571428Y-148925000D01*
X308642857Y-149067857D01*
X308642857Y-149853571D01*
X309285714Y-149782142D02*
X309428571Y-149853571D01*
X309714285Y-149853571D01*
X309857142Y-149782142D01*
X309928571Y-149639285D01*
X309928571Y-149567857D01*
X309857142Y-149425000D01*
X309714285Y-149353571D01*
X309500000Y-149353571D01*
X309357142Y-149282142D01*
X309285714Y-149139285D01*
X309285714Y-149067857D01*
X309357142Y-148925000D01*
X309500000Y-148853571D01*
X309714285Y-148853571D01*
X309857142Y-148925000D01*
X311500000Y-149139285D02*
X311428571Y-149067857D01*
X311285714Y-148996428D01*
X311142857Y-148996428D01*
X311000000Y-149067857D01*
X310928571Y-149139285D01*
X310857142Y-149282142D01*
X310857142Y-149425000D01*
X310928571Y-149567857D01*
X311000000Y-149639285D01*
X311142857Y-149710714D01*
X311285714Y-149710714D01*
X311428571Y-149639285D01*
X311500000Y-149567857D01*
X311500000Y-148996428D02*
X311500000Y-149567857D01*
X311571428Y-149639285D01*
X311642857Y-149639285D01*
X311785714Y-149567857D01*
X311857142Y-149425000D01*
X311857142Y-149067857D01*
X311714285Y-148853571D01*
X311500000Y-148710714D01*
X311214285Y-148639285D01*
X310928571Y-148710714D01*
X310714285Y-148853571D01*
X310571428Y-149067857D01*
X310500000Y-149353571D01*
X310571428Y-149639285D01*
X310714285Y-149853571D01*
X310928571Y-149996428D01*
X311214285Y-150067857D01*
X311500000Y-149996428D01*
X311714285Y-149853571D01*
X313214285Y-149853571D02*
X312500000Y-149853571D01*
X312500000Y-148353571D01*
X313714285Y-149853571D02*
X313714285Y-148853571D01*
X313714285Y-148353571D02*
X313642857Y-148425000D01*
X313714285Y-148496428D01*
X313785714Y-148425000D01*
X313714285Y-148353571D01*
X313714285Y-148496428D01*
X314357142Y-149782142D02*
X314500000Y-149853571D01*
X314785714Y-149853571D01*
X314928571Y-149782142D01*
X315000000Y-149639285D01*
X315000000Y-149567857D01*
X314928571Y-149425000D01*
X314785714Y-149353571D01*
X314571428Y-149353571D01*
X314428571Y-149282142D01*
X314357142Y-149139285D01*
X314357142Y-149067857D01*
X314428571Y-148925000D01*
X314571428Y-148853571D01*
X314785714Y-148853571D01*
X314928571Y-148925000D01*
X315571428Y-149782142D02*
X315714285Y-149853571D01*
X316000000Y-149853571D01*
X316142857Y-149782142D01*
X316214285Y-149639285D01*
X316214285Y-149567857D01*
X316142857Y-149425000D01*
X316000000Y-149353571D01*
X315785714Y-149353571D01*
X315642857Y-149282142D01*
X315571428Y-149139285D01*
X315571428Y-149067857D01*
X315642857Y-148925000D01*
X315785714Y-148853571D01*
X316000000Y-148853571D01*
X316142857Y-148925000D01*
X316857142Y-149710714D02*
X316928571Y-149782142D01*
X316857142Y-149853571D01*
X316785714Y-149782142D01*
X316857142Y-149710714D01*
X316857142Y-149853571D01*
X317571428Y-148853571D02*
X317571428Y-149853571D01*
X317571428Y-148996428D02*
X317642857Y-148925000D01*
X317785714Y-148853571D01*
X318000000Y-148853571D01*
X318142857Y-148925000D01*
X318214285Y-149067857D01*
X318214285Y-149853571D01*
X319571428Y-148853571D02*
X319571428Y-149853571D01*
X318928571Y-148853571D02*
X318928571Y-149639285D01*
X319000000Y-149782142D01*
X319142857Y-149853571D01*
X319357142Y-149853571D01*
X319500000Y-149782142D01*
X319571428Y-149710714D01*
D11*
X345900000Y-55260000D02*
X315400000Y-55260000D01*
X345900000Y-133260000D02*
X345900000Y-55260000D01*
X315400000Y-133260000D02*
X345900000Y-133260000D01*
X315400000Y-55260000D02*
X315400000Y-133260000D01*
X296400000Y-95760000D02*
X296400000Y-55260000D01*
X291400000Y-95760000D02*
X296400000Y-95760000D01*
X291400000Y-133760000D02*
X291400000Y-95760000D01*
X210400000Y-133760000D02*
X291400000Y-133760000D01*
X210400000Y-152760000D02*
X210400000Y-133760000D01*
X150440000Y-152720000D02*
X150440000Y-152660000D01*
X37400000Y-152760000D02*
X210400000Y-152760000D01*
X37400000Y-133760000D02*
X37400000Y-152760000D01*
X-14600000Y-133760000D02*
X37400000Y-133760000D01*
X-14570000Y-104240000D02*
X-14570000Y-104260000D01*
X-14630000Y-104240000D02*
X-14570000Y-104240000D01*
X-14600000Y-92760000D02*
X-14600000Y-133760000D01*
X-13840000Y-92750000D02*
X-13840000Y-92780000D01*
X-10600000Y-92760000D02*
X-14600000Y-92760000D01*
X-10600000Y-55260000D02*
X-10600000Y-92760000D01*
X-10600000Y-55260000D02*
X296400000Y-55260000D01*
D12*
X5660000Y-133960000D02*
X6660000Y-133960000D01*
X6660000Y-135320000D02*
X5660000Y-135320000D01*
X9600000Y-134090000D02*
X10300000Y-134090000D01*
X10300000Y-135290000D02*
X9600000Y-135290000D01*
X16010000Y-135800000D02*
X16010000Y-136500000D01*
X14810000Y-136500000D02*
X14810000Y-135800000D01*
X324425000Y-116675000D02*
X338395000Y-116675000D01*
X338395000Y-116675000D02*
X338395000Y-130645000D01*
X338395000Y-130645000D02*
X324425000Y-130645000D01*
X324425000Y-130645000D02*
X324425000Y-116675000D01*
X10785000Y-58395000D02*
X24755000Y-58395000D01*
X24755000Y-58395000D02*
X24755000Y-72365000D01*
X24755000Y-72365000D02*
X10785000Y-72365000D01*
X10785000Y-72365000D02*
X10785000Y-58395000D01*
X148280000Y-45110000D02*
X148280000Y-47770000D01*
X196600000Y-45110000D02*
X148280000Y-45110000D01*
X196600000Y-47770000D02*
X148280000Y-47770000D01*
X196600000Y-45110000D02*
X196600000Y-47770000D01*
X197870000Y-45110000D02*
X199200000Y-45110000D01*
X199200000Y-45110000D02*
X199200000Y-46440000D01*
X49175000Y-58395000D02*
X63145000Y-58395000D01*
X63145000Y-58395000D02*
X63145000Y-72365000D01*
X63145000Y-72365000D02*
X49175000Y-72365000D01*
X49175000Y-72365000D02*
X49175000Y-58395000D01*
X87535000Y-58395000D02*
X101505000Y-58395000D01*
X101505000Y-58395000D02*
X101505000Y-72365000D01*
X101505000Y-72365000D02*
X87535000Y-72365000D01*
X87535000Y-72365000D02*
X87535000Y-58395000D01*
X125895000Y-58395000D02*
X139865000Y-58395000D01*
X139865000Y-58395000D02*
X139865000Y-72365000D01*
X139865000Y-72365000D02*
X125895000Y-72365000D01*
X125895000Y-72365000D02*
X125895000Y-58395000D01*
X164295000Y-58395000D02*
X178265000Y-58395000D01*
X178265000Y-58395000D02*
X178265000Y-72365000D01*
X178265000Y-72365000D02*
X164295000Y-72365000D01*
X164295000Y-72365000D02*
X164295000Y-58395000D01*
X202665000Y-58395000D02*
X216635000Y-58395000D01*
X216635000Y-58395000D02*
X216635000Y-72365000D01*
X216635000Y-72365000D02*
X202665000Y-72365000D01*
X202665000Y-72365000D02*
X202665000Y-58395000D01*
X241045000Y-58395000D02*
X255015000Y-58395000D01*
X255015000Y-58395000D02*
X255015000Y-72365000D01*
X255015000Y-72365000D02*
X241045000Y-72365000D01*
X241045000Y-72365000D02*
X241045000Y-58395000D01*
X279425000Y-58395000D02*
X293395000Y-58395000D01*
X293395000Y-58395000D02*
X293395000Y-72365000D01*
X293395000Y-72365000D02*
X279425000Y-72365000D01*
X279425000Y-72365000D02*
X279425000Y-58395000D01*
X-8355000Y-58395000D02*
X5615000Y-58395000D01*
X5615000Y-58395000D02*
X5615000Y-72365000D01*
X5615000Y-72365000D02*
X-8355000Y-72365000D01*
X-8355000Y-72365000D02*
X-8355000Y-58395000D01*
X39575000Y-77595000D02*
X53545000Y-77595000D01*
X53545000Y-77595000D02*
X53545000Y-91565000D01*
X53545000Y-91565000D02*
X39575000Y-91565000D01*
X39575000Y-91565000D02*
X39575000Y-77595000D01*
X77975000Y-77595000D02*
X91945000Y-77595000D01*
X91945000Y-77595000D02*
X91945000Y-91565000D01*
X91945000Y-91565000D02*
X77975000Y-91565000D01*
X77975000Y-91565000D02*
X77975000Y-77595000D01*
X116365000Y-77595000D02*
X130335000Y-77595000D01*
X130335000Y-77595000D02*
X130335000Y-91565000D01*
X130335000Y-91565000D02*
X116365000Y-91565000D01*
X116365000Y-91565000D02*
X116365000Y-77595000D01*
X154725000Y-77595000D02*
X168695000Y-77595000D01*
X168695000Y-77595000D02*
X168695000Y-91565000D01*
X168695000Y-91565000D02*
X154725000Y-91565000D01*
X154725000Y-91565000D02*
X154725000Y-77595000D01*
X193135000Y-77595000D02*
X207105000Y-77595000D01*
X207105000Y-77595000D02*
X207105000Y-91565000D01*
X207105000Y-91565000D02*
X193135000Y-91565000D01*
X193135000Y-91565000D02*
X193135000Y-77595000D01*
X231545000Y-77605000D02*
X245515000Y-77605000D01*
X245515000Y-77605000D02*
X245515000Y-91575000D01*
X245515000Y-91575000D02*
X231545000Y-91575000D01*
X231545000Y-91575000D02*
X231545000Y-77605000D01*
X266005000Y-96755000D02*
X279975000Y-96755000D01*
X279975000Y-96755000D02*
X279975000Y-110725000D01*
X279975000Y-110725000D02*
X266005000Y-110725000D01*
X266005000Y-110725000D02*
X266005000Y-96755000D01*
X-3585000Y-77595000D02*
X10385000Y-77595000D01*
X10385000Y-77595000D02*
X10385000Y-91565000D01*
X10385000Y-91565000D02*
X-3585000Y-91565000D01*
X-3585000Y-91565000D02*
X-3585000Y-77595000D01*
X26245000Y-96775000D02*
X40215000Y-96775000D01*
X40215000Y-96775000D02*
X40215000Y-110745000D01*
X40215000Y-110745000D02*
X26245000Y-110745000D01*
X26245000Y-110745000D02*
X26245000Y-96775000D01*
X64605000Y-96755000D02*
X78575000Y-96755000D01*
X78575000Y-96755000D02*
X78575000Y-110725000D01*
X78575000Y-110725000D02*
X64605000Y-110725000D01*
X64605000Y-110725000D02*
X64605000Y-96755000D01*
X102995000Y-96755000D02*
X116965000Y-96755000D01*
X116965000Y-96755000D02*
X116965000Y-110725000D01*
X116965000Y-110725000D02*
X102995000Y-110725000D01*
X102995000Y-110725000D02*
X102995000Y-96755000D01*
X141375000Y-96755000D02*
X155345000Y-96755000D01*
X155345000Y-96755000D02*
X155345000Y-110725000D01*
X155345000Y-110725000D02*
X141375000Y-110725000D01*
X141375000Y-110725000D02*
X141375000Y-96755000D01*
X179745000Y-96755000D02*
X193715000Y-96755000D01*
X193715000Y-96755000D02*
X193715000Y-110725000D01*
X193715000Y-110725000D02*
X179745000Y-110725000D01*
X179745000Y-110725000D02*
X179745000Y-96755000D01*
X218105000Y-96755000D02*
X232075000Y-96755000D01*
X232075000Y-96755000D02*
X232075000Y-110725000D01*
X232075000Y-110725000D02*
X218105000Y-110725000D01*
X218105000Y-110725000D02*
X218105000Y-96755000D01*
X275625000Y-115965000D02*
X289595000Y-115965000D01*
X289595000Y-115965000D02*
X289595000Y-129935000D01*
X289595000Y-129935000D02*
X275625000Y-129935000D01*
X275625000Y-129935000D02*
X275625000Y-115965000D01*
X-12155000Y-96775000D02*
X1815000Y-96775000D01*
X1815000Y-96775000D02*
X1815000Y-110745000D01*
X1815000Y-110745000D02*
X-12155000Y-110745000D01*
X-12155000Y-110745000D02*
X-12155000Y-96775000D01*
X11785000Y-115965000D02*
X25755000Y-115965000D01*
X25755000Y-115965000D02*
X25755000Y-129935000D01*
X25755000Y-129935000D02*
X11785000Y-129935000D01*
X11785000Y-129935000D02*
X11785000Y-115965000D01*
X54945000Y-115965000D02*
X68915000Y-115965000D01*
X68915000Y-115965000D02*
X68915000Y-129935000D01*
X68915000Y-129935000D02*
X54945000Y-129935000D01*
X54945000Y-129935000D02*
X54945000Y-115965000D01*
X93355000Y-115965000D02*
X107325000Y-115965000D01*
X107325000Y-115965000D02*
X107325000Y-129935000D01*
X107325000Y-129935000D02*
X93355000Y-129935000D01*
X93355000Y-129935000D02*
X93355000Y-115965000D01*
X131755000Y-115965000D02*
X145725000Y-115965000D01*
X145725000Y-115965000D02*
X145725000Y-129935000D01*
X145725000Y-129935000D02*
X131755000Y-129935000D01*
X131755000Y-129935000D02*
X131755000Y-115965000D01*
X170155000Y-115965000D02*
X184125000Y-115965000D01*
X184125000Y-115965000D02*
X184125000Y-129935000D01*
X184125000Y-129935000D02*
X170155000Y-129935000D01*
X170155000Y-129935000D02*
X170155000Y-115965000D01*
X208545000Y-115965000D02*
X222515000Y-115965000D01*
X222515000Y-115965000D02*
X222515000Y-129935000D01*
X222515000Y-129935000D02*
X208545000Y-129935000D01*
X208545000Y-129935000D02*
X208545000Y-115965000D01*
X256445000Y-115965000D02*
X270415000Y-115965000D01*
X270415000Y-115965000D02*
X270415000Y-129935000D01*
X270415000Y-129935000D02*
X256445000Y-129935000D01*
X256445000Y-129935000D02*
X256445000Y-115965000D01*
X116625000Y-135155000D02*
X130595000Y-135155000D01*
X130595000Y-135155000D02*
X130595000Y-149125000D01*
X130595000Y-149125000D02*
X116625000Y-149125000D01*
X116625000Y-149125000D02*
X116625000Y-135155000D01*
X35735000Y-115975000D02*
X49705000Y-115975000D01*
X49705000Y-115975000D02*
X49705000Y-129945000D01*
X49705000Y-129945000D02*
X35735000Y-129945000D01*
X35735000Y-129945000D02*
X35735000Y-115975000D01*
X74145000Y-115965000D02*
X88115000Y-115965000D01*
X88115000Y-115965000D02*
X88115000Y-129935000D01*
X88115000Y-129935000D02*
X74145000Y-129935000D01*
X74145000Y-129935000D02*
X74145000Y-115965000D01*
X112545000Y-115965000D02*
X126515000Y-115965000D01*
X126515000Y-115965000D02*
X126515000Y-129935000D01*
X126515000Y-129935000D02*
X112545000Y-129935000D01*
X112545000Y-129935000D02*
X112545000Y-115965000D01*
X150955000Y-115965000D02*
X164925000Y-115965000D01*
X164925000Y-115965000D02*
X164925000Y-129935000D01*
X164925000Y-129935000D02*
X150955000Y-129935000D01*
X150955000Y-129935000D02*
X150955000Y-115965000D01*
X189355000Y-115965000D02*
X203325000Y-115965000D01*
X203325000Y-115965000D02*
X203325000Y-129935000D01*
X203325000Y-129935000D02*
X189355000Y-129935000D01*
X189355000Y-129935000D02*
X189355000Y-115965000D01*
X232495000Y-115965000D02*
X246465000Y-115965000D01*
X246465000Y-115965000D02*
X246465000Y-129935000D01*
X246465000Y-129935000D02*
X232495000Y-129935000D01*
X232495000Y-129935000D02*
X232495000Y-115965000D01*
X324425000Y-58805000D02*
X338395000Y-58805000D01*
X338395000Y-58805000D02*
X338395000Y-72775000D01*
X338395000Y-72775000D02*
X324425000Y-72775000D01*
X324425000Y-72775000D02*
X324425000Y-58805000D01*
X-12165000Y-115975000D02*
X1805000Y-115975000D01*
X1805000Y-115975000D02*
X1805000Y-129945000D01*
X1805000Y-129945000D02*
X-12165000Y-129945000D01*
X-12165000Y-129945000D02*
X-12165000Y-115975000D01*
X45445000Y-96755000D02*
X59415000Y-96755000D01*
X59415000Y-96755000D02*
X59415000Y-110725000D01*
X59415000Y-110725000D02*
X45445000Y-110725000D01*
X45445000Y-110725000D02*
X45445000Y-96755000D01*
X83795000Y-96755000D02*
X97765000Y-96755000D01*
X97765000Y-96755000D02*
X97765000Y-110725000D01*
X97765000Y-110725000D02*
X83795000Y-110725000D01*
X83795000Y-110725000D02*
X83795000Y-96755000D01*
X122175000Y-96755000D02*
X136145000Y-96755000D01*
X136145000Y-96755000D02*
X136145000Y-110725000D01*
X136145000Y-110725000D02*
X122175000Y-110725000D01*
X122175000Y-110725000D02*
X122175000Y-96755000D01*
X160535000Y-96755000D02*
X174505000Y-96755000D01*
X174505000Y-96755000D02*
X174505000Y-110725000D01*
X174505000Y-110725000D02*
X160535000Y-110725000D01*
X160535000Y-110725000D02*
X160535000Y-96755000D01*
X198905000Y-96755000D02*
X212875000Y-96755000D01*
X212875000Y-96755000D02*
X212875000Y-110725000D01*
X212875000Y-110725000D02*
X198905000Y-110725000D01*
X198905000Y-110725000D02*
X198905000Y-96755000D01*
X237295000Y-96775000D02*
X251265000Y-96775000D01*
X251265000Y-96775000D02*
X251265000Y-110745000D01*
X251265000Y-110745000D02*
X237295000Y-110745000D01*
X237295000Y-110745000D02*
X237295000Y-96775000D01*
X324425000Y-78085000D02*
X338395000Y-78085000D01*
X338395000Y-78085000D02*
X338395000Y-92055000D01*
X338395000Y-92055000D02*
X324425000Y-92055000D01*
X324425000Y-92055000D02*
X324425000Y-78085000D01*
X20375000Y-77595000D02*
X34345000Y-77595000D01*
X34345000Y-77595000D02*
X34345000Y-91565000D01*
X34345000Y-91565000D02*
X20375000Y-91565000D01*
X20375000Y-91565000D02*
X20375000Y-77595000D01*
X58775000Y-77595000D02*
X72745000Y-77595000D01*
X72745000Y-77595000D02*
X72745000Y-91565000D01*
X72745000Y-91565000D02*
X58775000Y-91565000D01*
X58775000Y-91565000D02*
X58775000Y-77595000D01*
X97165000Y-77595000D02*
X111135000Y-77595000D01*
X111135000Y-77595000D02*
X111135000Y-91565000D01*
X111135000Y-91565000D02*
X97165000Y-91565000D01*
X97165000Y-91565000D02*
X97165000Y-77595000D01*
X135545000Y-77595000D02*
X149515000Y-77595000D01*
X149515000Y-77595000D02*
X149515000Y-91565000D01*
X149515000Y-91565000D02*
X135545000Y-91565000D01*
X135545000Y-91565000D02*
X135545000Y-77595000D01*
X173935000Y-77595000D02*
X187905000Y-77595000D01*
X187905000Y-77595000D02*
X187905000Y-91565000D01*
X187905000Y-91565000D02*
X173935000Y-91565000D01*
X173935000Y-91565000D02*
X173935000Y-77595000D01*
X212335000Y-77595000D02*
X226305000Y-77595000D01*
X226305000Y-77595000D02*
X226305000Y-91565000D01*
X226305000Y-91565000D02*
X212335000Y-91565000D01*
X212335000Y-91565000D02*
X212335000Y-77595000D01*
X250685000Y-77605000D02*
X264655000Y-77605000D01*
X264655000Y-77605000D02*
X264655000Y-91575000D01*
X264655000Y-91575000D02*
X250685000Y-91575000D01*
X250685000Y-91575000D02*
X250685000Y-77605000D01*
X324425000Y-97395000D02*
X338395000Y-97395000D01*
X338395000Y-97395000D02*
X338395000Y-111365000D01*
X338395000Y-111365000D02*
X324425000Y-111365000D01*
X324425000Y-111365000D02*
X324425000Y-97395000D01*
X29975000Y-58395000D02*
X43945000Y-58395000D01*
X43945000Y-58395000D02*
X43945000Y-72365000D01*
X43945000Y-72365000D02*
X29975000Y-72365000D01*
X29975000Y-72365000D02*
X29975000Y-58395000D01*
X68345000Y-58395000D02*
X82315000Y-58395000D01*
X82315000Y-58395000D02*
X82315000Y-72365000D01*
X82315000Y-72365000D02*
X68345000Y-72365000D01*
X68345000Y-72365000D02*
X68345000Y-58395000D01*
X106725000Y-58395000D02*
X120695000Y-58395000D01*
X120695000Y-58395000D02*
X120695000Y-72365000D01*
X120695000Y-72365000D02*
X106725000Y-72365000D01*
X106725000Y-72365000D02*
X106725000Y-58395000D01*
X145095000Y-58395000D02*
X159065000Y-58395000D01*
X159065000Y-58395000D02*
X159065000Y-72365000D01*
X159065000Y-72365000D02*
X145095000Y-72365000D01*
X145095000Y-72365000D02*
X145095000Y-58395000D01*
X183465000Y-58395000D02*
X197435000Y-58395000D01*
X197435000Y-58395000D02*
X197435000Y-72365000D01*
X197435000Y-72365000D02*
X183465000Y-72365000D01*
X183465000Y-72365000D02*
X183465000Y-58395000D01*
X221855000Y-58395000D02*
X235825000Y-58395000D01*
X235825000Y-58395000D02*
X235825000Y-72365000D01*
X235825000Y-72365000D02*
X221855000Y-72365000D01*
X221855000Y-72365000D02*
X221855000Y-58395000D01*
X260235000Y-58395000D02*
X274205000Y-58395000D01*
X274205000Y-58395000D02*
X274205000Y-72365000D01*
X274205000Y-72365000D02*
X260235000Y-72365000D01*
X260235000Y-72365000D02*
X260235000Y-58395000D01*
X7045000Y-96755000D02*
X21015000Y-96755000D01*
X21015000Y-96755000D02*
X21015000Y-110725000D01*
X21015000Y-110725000D02*
X7045000Y-110725000D01*
X7045000Y-110725000D02*
X7045000Y-96755000D01*
X274655000Y-77595000D02*
X288625000Y-77595000D01*
X288625000Y-77595000D02*
X288625000Y-91565000D01*
X288625000Y-91565000D02*
X274655000Y-91565000D01*
X274655000Y-91565000D02*
X274655000Y-77595000D01*
X4680000Y-112525000D02*
X4680000Y-115615000D01*
X9740000Y-114070000D02*
G75*
G03X9740000Y-114070000I-2500000J0D01*
G01*
X10230000Y-114069538D02*
G75*
G02X4680000Y-115614830I-2990000J-462D01*
G01*
X10230000Y-114070462D02*
G75*
G03X4680000Y-112525170I-2990000J462D01*
G01*
X27150000Y-135250000D02*
X27150000Y-136710000D01*
X23990000Y-135250000D02*
X23990000Y-137410000D01*
X23990000Y-135250000D02*
X24920000Y-135250000D01*
X27150000Y-135250000D02*
X26220000Y-135250000D01*
X19050000Y-136650000D02*
X19050000Y-135650000D01*
X20410000Y-135650000D02*
X20410000Y-136650000D01*
X22850000Y-140740000D02*
X21850000Y-140740000D01*
X21850000Y-139380000D02*
X22850000Y-139380000D01*
X22800000Y-135650000D02*
X22800000Y-136650000D01*
X21440000Y-136650000D02*
X21440000Y-135650000D01*
X16800000Y-140650000D02*
X16800000Y-139650000D01*
X18160000Y-139650000D02*
X18160000Y-140650000D01*
X18070000Y-135690000D02*
X18070000Y-136690000D01*
X16710000Y-136690000D02*
X16710000Y-135690000D01*
D13*
X11045000Y-142485000D02*
X12445000Y-142485000D01*
X11045000Y-137385000D02*
X6895000Y-137385000D01*
X11045000Y-142535000D02*
X6895000Y-142535000D01*
X11045000Y-137385000D02*
X11045000Y-137530000D01*
X6895000Y-137385000D02*
X6895000Y-137530000D01*
X6895000Y-142535000D02*
X6895000Y-142390000D01*
X11045000Y-142535000D02*
X11045000Y-142485000D01*
X5993333Y-133642380D02*
X5660000Y-133166190D01*
X5421904Y-133642380D02*
X5421904Y-132642380D01*
X5802857Y-132642380D01*
X5898095Y-132690000D01*
X5945714Y-132737619D01*
X5993333Y-132832857D01*
X5993333Y-132975714D01*
X5945714Y-133070952D01*
X5898095Y-133118571D01*
X5802857Y-133166190D01*
X5421904Y-133166190D01*
X6850476Y-132642380D02*
X6660000Y-132642380D01*
X6564761Y-132690000D01*
X6517142Y-132737619D01*
X6421904Y-132880476D01*
X6374285Y-133070952D01*
X6374285Y-133451904D01*
X6421904Y-133547142D01*
X6469523Y-133594761D01*
X6564761Y-133642380D01*
X6755238Y-133642380D01*
X6850476Y-133594761D01*
X6898095Y-133547142D01*
X6945714Y-133451904D01*
X6945714Y-133213809D01*
X6898095Y-133118571D01*
X6850476Y-133070952D01*
X6755238Y-133023333D01*
X6564761Y-133023333D01*
X6469523Y-133070952D01*
X6421904Y-133118571D01*
X6374285Y-133213809D01*
X9783333Y-133547142D02*
X9735714Y-133594761D01*
X9592857Y-133642380D01*
X9497619Y-133642380D01*
X9354761Y-133594761D01*
X9259523Y-133499523D01*
X9211904Y-133404285D01*
X9164285Y-133213809D01*
X9164285Y-133070952D01*
X9211904Y-132880476D01*
X9259523Y-132785238D01*
X9354761Y-132690000D01*
X9497619Y-132642380D01*
X9592857Y-132642380D01*
X9735714Y-132690000D01*
X9783333Y-132737619D01*
X10164285Y-132737619D02*
X10211904Y-132690000D01*
X10307142Y-132642380D01*
X10545238Y-132642380D01*
X10640476Y-132690000D01*
X10688095Y-132737619D01*
X10735714Y-132832857D01*
X10735714Y-132928095D01*
X10688095Y-133070952D01*
X10116666Y-133642380D01*
X10735714Y-133642380D01*
X17267142Y-136316666D02*
X17314761Y-136364285D01*
X17362380Y-136507142D01*
X17362380Y-136602380D01*
X17314761Y-136745238D01*
X17219523Y-136840476D01*
X17124285Y-136888095D01*
X16933809Y-136935714D01*
X16790952Y-136935714D01*
X16600476Y-136888095D01*
X16505238Y-136840476D01*
X16410000Y-136745238D01*
X16362380Y-136602380D01*
X16362380Y-136507142D01*
X16410000Y-136364285D01*
X16457619Y-136316666D01*
X17362380Y-135364285D02*
X17362380Y-135935714D01*
X17362380Y-135650000D02*
X16362380Y-135650000D01*
X16505238Y-135745238D01*
X16600476Y-135840476D01*
X16648095Y-135935714D01*
X329600476Y-116190761D02*
X329743333Y-116238380D01*
X329981428Y-116238380D01*
X330076666Y-116190761D01*
X330124285Y-116143142D01*
X330171904Y-116047904D01*
X330171904Y-115952666D01*
X330124285Y-115857428D01*
X330076666Y-115809809D01*
X329981428Y-115762190D01*
X329790952Y-115714571D01*
X329695714Y-115666952D01*
X329648095Y-115619333D01*
X329600476Y-115524095D01*
X329600476Y-115428857D01*
X329648095Y-115333619D01*
X329695714Y-115286000D01*
X329790952Y-115238380D01*
X330029047Y-115238380D01*
X330171904Y-115286000D01*
X330505238Y-115238380D02*
X330743333Y-116238380D01*
X330933809Y-115524095D01*
X331124285Y-116238380D01*
X331362380Y-115238380D01*
X332171904Y-115238380D02*
X331981428Y-115238380D01*
X331886190Y-115286000D01*
X331838571Y-115333619D01*
X331743333Y-115476476D01*
X331695714Y-115666952D01*
X331695714Y-116047904D01*
X331743333Y-116143142D01*
X331790952Y-116190761D01*
X331886190Y-116238380D01*
X332076666Y-116238380D01*
X332171904Y-116190761D01*
X332219523Y-116143142D01*
X332267142Y-116047904D01*
X332267142Y-115809809D01*
X332219523Y-115714571D01*
X332171904Y-115666952D01*
X332076666Y-115619333D01*
X331886190Y-115619333D01*
X331790952Y-115666952D01*
X331743333Y-115714571D01*
X331695714Y-115809809D01*
X333124285Y-115571714D02*
X333124285Y-116238380D01*
X332886190Y-115190761D02*
X332648095Y-115905047D01*
X333267142Y-115905047D01*
X16436666Y-57910761D02*
X16579523Y-57958380D01*
X16817619Y-57958380D01*
X16912857Y-57910761D01*
X16960476Y-57863142D01*
X17008095Y-57767904D01*
X17008095Y-57672666D01*
X16960476Y-57577428D01*
X16912857Y-57529809D01*
X16817619Y-57482190D01*
X16627142Y-57434571D01*
X16531904Y-57386952D01*
X16484285Y-57339333D01*
X16436666Y-57244095D01*
X16436666Y-57148857D01*
X16484285Y-57053619D01*
X16531904Y-57006000D01*
X16627142Y-56958380D01*
X16865238Y-56958380D01*
X17008095Y-57006000D01*
X17341428Y-56958380D02*
X17579523Y-57958380D01*
X17770000Y-57244095D01*
X17960476Y-57958380D01*
X18198571Y-56958380D01*
X19103333Y-57958380D02*
X18531904Y-57958380D01*
X18817619Y-57958380D02*
X18817619Y-56958380D01*
X18722380Y-57101238D01*
X18627142Y-57196476D01*
X18531904Y-57244095D01*
X199652380Y-46773333D02*
X200366666Y-46773333D01*
X200509523Y-46820952D01*
X200604761Y-46916190D01*
X200652380Y-47059047D01*
X200652380Y-47154285D01*
X200652380Y-45773333D02*
X200652380Y-46344761D01*
X200652380Y-46059047D02*
X199652380Y-46059047D01*
X199795238Y-46154285D01*
X199890476Y-46249523D01*
X199938095Y-46344761D01*
X54826666Y-57910761D02*
X54969523Y-57958380D01*
X55207619Y-57958380D01*
X55302857Y-57910761D01*
X55350476Y-57863142D01*
X55398095Y-57767904D01*
X55398095Y-57672666D01*
X55350476Y-57577428D01*
X55302857Y-57529809D01*
X55207619Y-57482190D01*
X55017142Y-57434571D01*
X54921904Y-57386952D01*
X54874285Y-57339333D01*
X54826666Y-57244095D01*
X54826666Y-57148857D01*
X54874285Y-57053619D01*
X54921904Y-57006000D01*
X55017142Y-56958380D01*
X55255238Y-56958380D01*
X55398095Y-57006000D01*
X55731428Y-56958380D02*
X55969523Y-57958380D01*
X56160000Y-57244095D01*
X56350476Y-57958380D01*
X56588571Y-56958380D01*
X56921904Y-57053619D02*
X56969523Y-57006000D01*
X57064761Y-56958380D01*
X57302857Y-56958380D01*
X57398095Y-57006000D01*
X57445714Y-57053619D01*
X57493333Y-57148857D01*
X57493333Y-57244095D01*
X57445714Y-57386952D01*
X56874285Y-57958380D01*
X57493333Y-57958380D01*
X93186666Y-57910761D02*
X93329523Y-57958380D01*
X93567619Y-57958380D01*
X93662857Y-57910761D01*
X93710476Y-57863142D01*
X93758095Y-57767904D01*
X93758095Y-57672666D01*
X93710476Y-57577428D01*
X93662857Y-57529809D01*
X93567619Y-57482190D01*
X93377142Y-57434571D01*
X93281904Y-57386952D01*
X93234285Y-57339333D01*
X93186666Y-57244095D01*
X93186666Y-57148857D01*
X93234285Y-57053619D01*
X93281904Y-57006000D01*
X93377142Y-56958380D01*
X93615238Y-56958380D01*
X93758095Y-57006000D01*
X94091428Y-56958380D02*
X94329523Y-57958380D01*
X94520000Y-57244095D01*
X94710476Y-57958380D01*
X94948571Y-56958380D01*
X95234285Y-56958380D02*
X95853333Y-56958380D01*
X95520000Y-57339333D01*
X95662857Y-57339333D01*
X95758095Y-57386952D01*
X95805714Y-57434571D01*
X95853333Y-57529809D01*
X95853333Y-57767904D01*
X95805714Y-57863142D01*
X95758095Y-57910761D01*
X95662857Y-57958380D01*
X95377142Y-57958380D01*
X95281904Y-57910761D01*
X95234285Y-57863142D01*
X131546666Y-57910761D02*
X131689523Y-57958380D01*
X131927619Y-57958380D01*
X132022857Y-57910761D01*
X132070476Y-57863142D01*
X132118095Y-57767904D01*
X132118095Y-57672666D01*
X132070476Y-57577428D01*
X132022857Y-57529809D01*
X131927619Y-57482190D01*
X131737142Y-57434571D01*
X131641904Y-57386952D01*
X131594285Y-57339333D01*
X131546666Y-57244095D01*
X131546666Y-57148857D01*
X131594285Y-57053619D01*
X131641904Y-57006000D01*
X131737142Y-56958380D01*
X131975238Y-56958380D01*
X132118095Y-57006000D01*
X132451428Y-56958380D02*
X132689523Y-57958380D01*
X132880000Y-57244095D01*
X133070476Y-57958380D01*
X133308571Y-56958380D01*
X134118095Y-57291714D02*
X134118095Y-57958380D01*
X133880000Y-56910761D02*
X133641904Y-57625047D01*
X134260952Y-57625047D01*
X169946666Y-57910761D02*
X170089523Y-57958380D01*
X170327619Y-57958380D01*
X170422857Y-57910761D01*
X170470476Y-57863142D01*
X170518095Y-57767904D01*
X170518095Y-57672666D01*
X170470476Y-57577428D01*
X170422857Y-57529809D01*
X170327619Y-57482190D01*
X170137142Y-57434571D01*
X170041904Y-57386952D01*
X169994285Y-57339333D01*
X169946666Y-57244095D01*
X169946666Y-57148857D01*
X169994285Y-57053619D01*
X170041904Y-57006000D01*
X170137142Y-56958380D01*
X170375238Y-56958380D01*
X170518095Y-57006000D01*
X170851428Y-56958380D02*
X171089523Y-57958380D01*
X171280000Y-57244095D01*
X171470476Y-57958380D01*
X171708571Y-56958380D01*
X172565714Y-56958380D02*
X172089523Y-56958380D01*
X172041904Y-57434571D01*
X172089523Y-57386952D01*
X172184761Y-57339333D01*
X172422857Y-57339333D01*
X172518095Y-57386952D01*
X172565714Y-57434571D01*
X172613333Y-57529809D01*
X172613333Y-57767904D01*
X172565714Y-57863142D01*
X172518095Y-57910761D01*
X172422857Y-57958380D01*
X172184761Y-57958380D01*
X172089523Y-57910761D01*
X172041904Y-57863142D01*
X208316666Y-57910761D02*
X208459523Y-57958380D01*
X208697619Y-57958380D01*
X208792857Y-57910761D01*
X208840476Y-57863142D01*
X208888095Y-57767904D01*
X208888095Y-57672666D01*
X208840476Y-57577428D01*
X208792857Y-57529809D01*
X208697619Y-57482190D01*
X208507142Y-57434571D01*
X208411904Y-57386952D01*
X208364285Y-57339333D01*
X208316666Y-57244095D01*
X208316666Y-57148857D01*
X208364285Y-57053619D01*
X208411904Y-57006000D01*
X208507142Y-56958380D01*
X208745238Y-56958380D01*
X208888095Y-57006000D01*
X209221428Y-56958380D02*
X209459523Y-57958380D01*
X209650000Y-57244095D01*
X209840476Y-57958380D01*
X210078571Y-56958380D01*
X210888095Y-56958380D02*
X210697619Y-56958380D01*
X210602380Y-57006000D01*
X210554761Y-57053619D01*
X210459523Y-57196476D01*
X210411904Y-57386952D01*
X210411904Y-57767904D01*
X210459523Y-57863142D01*
X210507142Y-57910761D01*
X210602380Y-57958380D01*
X210792857Y-57958380D01*
X210888095Y-57910761D01*
X210935714Y-57863142D01*
X210983333Y-57767904D01*
X210983333Y-57529809D01*
X210935714Y-57434571D01*
X210888095Y-57386952D01*
X210792857Y-57339333D01*
X210602380Y-57339333D01*
X210507142Y-57386952D01*
X210459523Y-57434571D01*
X210411904Y-57529809D01*
X246696666Y-57910761D02*
X246839523Y-57958380D01*
X247077619Y-57958380D01*
X247172857Y-57910761D01*
X247220476Y-57863142D01*
X247268095Y-57767904D01*
X247268095Y-57672666D01*
X247220476Y-57577428D01*
X247172857Y-57529809D01*
X247077619Y-57482190D01*
X246887142Y-57434571D01*
X246791904Y-57386952D01*
X246744285Y-57339333D01*
X246696666Y-57244095D01*
X246696666Y-57148857D01*
X246744285Y-57053619D01*
X246791904Y-57006000D01*
X246887142Y-56958380D01*
X247125238Y-56958380D01*
X247268095Y-57006000D01*
X247601428Y-56958380D02*
X247839523Y-57958380D01*
X248030000Y-57244095D01*
X248220476Y-57958380D01*
X248458571Y-56958380D01*
X248744285Y-56958380D02*
X249410952Y-56958380D01*
X248982380Y-57958380D01*
X285076666Y-57910761D02*
X285219523Y-57958380D01*
X285457619Y-57958380D01*
X285552857Y-57910761D01*
X285600476Y-57863142D01*
X285648095Y-57767904D01*
X285648095Y-57672666D01*
X285600476Y-57577428D01*
X285552857Y-57529809D01*
X285457619Y-57482190D01*
X285267142Y-57434571D01*
X285171904Y-57386952D01*
X285124285Y-57339333D01*
X285076666Y-57244095D01*
X285076666Y-57148857D01*
X285124285Y-57053619D01*
X285171904Y-57006000D01*
X285267142Y-56958380D01*
X285505238Y-56958380D01*
X285648095Y-57006000D01*
X285981428Y-56958380D02*
X286219523Y-57958380D01*
X286410000Y-57244095D01*
X286600476Y-57958380D01*
X286838571Y-56958380D01*
X287362380Y-57386952D02*
X287267142Y-57339333D01*
X287219523Y-57291714D01*
X287171904Y-57196476D01*
X287171904Y-57148857D01*
X287219523Y-57053619D01*
X287267142Y-57006000D01*
X287362380Y-56958380D01*
X287552857Y-56958380D01*
X287648095Y-57006000D01*
X287695714Y-57053619D01*
X287743333Y-57148857D01*
X287743333Y-57196476D01*
X287695714Y-57291714D01*
X287648095Y-57339333D01*
X287552857Y-57386952D01*
X287362380Y-57386952D01*
X287267142Y-57434571D01*
X287219523Y-57482190D01*
X287171904Y-57577428D01*
X287171904Y-57767904D01*
X287219523Y-57863142D01*
X287267142Y-57910761D01*
X287362380Y-57958380D01*
X287552857Y-57958380D01*
X287648095Y-57910761D01*
X287695714Y-57863142D01*
X287743333Y-57767904D01*
X287743333Y-57577428D01*
X287695714Y-57482190D01*
X287648095Y-57434571D01*
X287552857Y-57386952D01*
X-2703333Y-57910761D02*
X-2560476Y-57958380D01*
X-2322380Y-57958380D01*
X-2227142Y-57910761D01*
X-2179523Y-57863142D01*
X-2131904Y-57767904D01*
X-2131904Y-57672666D01*
X-2179523Y-57577428D01*
X-2227142Y-57529809D01*
X-2322380Y-57482190D01*
X-2512857Y-57434571D01*
X-2608095Y-57386952D01*
X-2655714Y-57339333D01*
X-2703333Y-57244095D01*
X-2703333Y-57148857D01*
X-2655714Y-57053619D01*
X-2608095Y-57006000D01*
X-2512857Y-56958380D01*
X-2274761Y-56958380D01*
X-2131904Y-57006000D01*
X-1798571Y-56958380D02*
X-1560476Y-57958380D01*
X-1370000Y-57244095D01*
X-1179523Y-57958380D01*
X-941428Y-56958380D01*
X-512857Y-57958380D02*
X-322380Y-57958380D01*
X-227142Y-57910761D01*
X-179523Y-57863142D01*
X-84285Y-57720285D01*
X-36666Y-57529809D01*
X-36666Y-57148857D01*
X-84285Y-57053619D01*
X-131904Y-57006000D01*
X-227142Y-56958380D01*
X-417619Y-56958380D01*
X-512857Y-57006000D01*
X-560476Y-57053619D01*
X-608095Y-57148857D01*
X-608095Y-57386952D01*
X-560476Y-57482190D01*
X-512857Y-57529809D01*
X-417619Y-57577428D01*
X-227142Y-57577428D01*
X-131904Y-57529809D01*
X-84285Y-57482190D01*
X-36666Y-57386952D01*
X44750476Y-77110761D02*
X44893333Y-77158380D01*
X45131428Y-77158380D01*
X45226666Y-77110761D01*
X45274285Y-77063142D01*
X45321904Y-76967904D01*
X45321904Y-76872666D01*
X45274285Y-76777428D01*
X45226666Y-76729809D01*
X45131428Y-76682190D01*
X44940952Y-76634571D01*
X44845714Y-76586952D01*
X44798095Y-76539333D01*
X44750476Y-76444095D01*
X44750476Y-76348857D01*
X44798095Y-76253619D01*
X44845714Y-76206000D01*
X44940952Y-76158380D01*
X45179047Y-76158380D01*
X45321904Y-76206000D01*
X45655238Y-76158380D02*
X45893333Y-77158380D01*
X46083809Y-76444095D01*
X46274285Y-77158380D01*
X46512380Y-76158380D01*
X47417142Y-77158380D02*
X46845714Y-77158380D01*
X47131428Y-77158380D02*
X47131428Y-76158380D01*
X47036190Y-76301238D01*
X46940952Y-76396476D01*
X46845714Y-76444095D01*
X48036190Y-76158380D02*
X48131428Y-76158380D01*
X48226666Y-76206000D01*
X48274285Y-76253619D01*
X48321904Y-76348857D01*
X48369523Y-76539333D01*
X48369523Y-76777428D01*
X48321904Y-76967904D01*
X48274285Y-77063142D01*
X48226666Y-77110761D01*
X48131428Y-77158380D01*
X48036190Y-77158380D01*
X47940952Y-77110761D01*
X47893333Y-77063142D01*
X47845714Y-76967904D01*
X47798095Y-76777428D01*
X47798095Y-76539333D01*
X47845714Y-76348857D01*
X47893333Y-76253619D01*
X47940952Y-76206000D01*
X48036190Y-76158380D01*
X83150476Y-77110761D02*
X83293333Y-77158380D01*
X83531428Y-77158380D01*
X83626666Y-77110761D01*
X83674285Y-77063142D01*
X83721904Y-76967904D01*
X83721904Y-76872666D01*
X83674285Y-76777428D01*
X83626666Y-76729809D01*
X83531428Y-76682190D01*
X83340952Y-76634571D01*
X83245714Y-76586952D01*
X83198095Y-76539333D01*
X83150476Y-76444095D01*
X83150476Y-76348857D01*
X83198095Y-76253619D01*
X83245714Y-76206000D01*
X83340952Y-76158380D01*
X83579047Y-76158380D01*
X83721904Y-76206000D01*
X84055238Y-76158380D02*
X84293333Y-77158380D01*
X84483809Y-76444095D01*
X84674285Y-77158380D01*
X84912380Y-76158380D01*
X85817142Y-77158380D02*
X85245714Y-77158380D01*
X85531428Y-77158380D02*
X85531428Y-76158380D01*
X85436190Y-76301238D01*
X85340952Y-76396476D01*
X85245714Y-76444095D01*
X86769523Y-77158380D02*
X86198095Y-77158380D01*
X86483809Y-77158380D02*
X86483809Y-76158380D01*
X86388571Y-76301238D01*
X86293333Y-76396476D01*
X86198095Y-76444095D01*
X121540476Y-77110761D02*
X121683333Y-77158380D01*
X121921428Y-77158380D01*
X122016666Y-77110761D01*
X122064285Y-77063142D01*
X122111904Y-76967904D01*
X122111904Y-76872666D01*
X122064285Y-76777428D01*
X122016666Y-76729809D01*
X121921428Y-76682190D01*
X121730952Y-76634571D01*
X121635714Y-76586952D01*
X121588095Y-76539333D01*
X121540476Y-76444095D01*
X121540476Y-76348857D01*
X121588095Y-76253619D01*
X121635714Y-76206000D01*
X121730952Y-76158380D01*
X121969047Y-76158380D01*
X122111904Y-76206000D01*
X122445238Y-76158380D02*
X122683333Y-77158380D01*
X122873809Y-76444095D01*
X123064285Y-77158380D01*
X123302380Y-76158380D01*
X124207142Y-77158380D02*
X123635714Y-77158380D01*
X123921428Y-77158380D02*
X123921428Y-76158380D01*
X123826190Y-76301238D01*
X123730952Y-76396476D01*
X123635714Y-76444095D01*
X124588095Y-76253619D02*
X124635714Y-76206000D01*
X124730952Y-76158380D01*
X124969047Y-76158380D01*
X125064285Y-76206000D01*
X125111904Y-76253619D01*
X125159523Y-76348857D01*
X125159523Y-76444095D01*
X125111904Y-76586952D01*
X124540476Y-77158380D01*
X125159523Y-77158380D01*
X159900476Y-77110761D02*
X160043333Y-77158380D01*
X160281428Y-77158380D01*
X160376666Y-77110761D01*
X160424285Y-77063142D01*
X160471904Y-76967904D01*
X160471904Y-76872666D01*
X160424285Y-76777428D01*
X160376666Y-76729809D01*
X160281428Y-76682190D01*
X160090952Y-76634571D01*
X159995714Y-76586952D01*
X159948095Y-76539333D01*
X159900476Y-76444095D01*
X159900476Y-76348857D01*
X159948095Y-76253619D01*
X159995714Y-76206000D01*
X160090952Y-76158380D01*
X160329047Y-76158380D01*
X160471904Y-76206000D01*
X160805238Y-76158380D02*
X161043333Y-77158380D01*
X161233809Y-76444095D01*
X161424285Y-77158380D01*
X161662380Y-76158380D01*
X162567142Y-77158380D02*
X161995714Y-77158380D01*
X162281428Y-77158380D02*
X162281428Y-76158380D01*
X162186190Y-76301238D01*
X162090952Y-76396476D01*
X161995714Y-76444095D01*
X162900476Y-76158380D02*
X163519523Y-76158380D01*
X163186190Y-76539333D01*
X163329047Y-76539333D01*
X163424285Y-76586952D01*
X163471904Y-76634571D01*
X163519523Y-76729809D01*
X163519523Y-76967904D01*
X163471904Y-77063142D01*
X163424285Y-77110761D01*
X163329047Y-77158380D01*
X163043333Y-77158380D01*
X162948095Y-77110761D01*
X162900476Y-77063142D01*
X198310476Y-77110761D02*
X198453333Y-77158380D01*
X198691428Y-77158380D01*
X198786666Y-77110761D01*
X198834285Y-77063142D01*
X198881904Y-76967904D01*
X198881904Y-76872666D01*
X198834285Y-76777428D01*
X198786666Y-76729809D01*
X198691428Y-76682190D01*
X198500952Y-76634571D01*
X198405714Y-76586952D01*
X198358095Y-76539333D01*
X198310476Y-76444095D01*
X198310476Y-76348857D01*
X198358095Y-76253619D01*
X198405714Y-76206000D01*
X198500952Y-76158380D01*
X198739047Y-76158380D01*
X198881904Y-76206000D01*
X199215238Y-76158380D02*
X199453333Y-77158380D01*
X199643809Y-76444095D01*
X199834285Y-77158380D01*
X200072380Y-76158380D01*
X200977142Y-77158380D02*
X200405714Y-77158380D01*
X200691428Y-77158380D02*
X200691428Y-76158380D01*
X200596190Y-76301238D01*
X200500952Y-76396476D01*
X200405714Y-76444095D01*
X201834285Y-76491714D02*
X201834285Y-77158380D01*
X201596190Y-76110761D02*
X201358095Y-76825047D01*
X201977142Y-76825047D01*
X236720476Y-77120761D02*
X236863333Y-77168380D01*
X237101428Y-77168380D01*
X237196666Y-77120761D01*
X237244285Y-77073142D01*
X237291904Y-76977904D01*
X237291904Y-76882666D01*
X237244285Y-76787428D01*
X237196666Y-76739809D01*
X237101428Y-76692190D01*
X236910952Y-76644571D01*
X236815714Y-76596952D01*
X236768095Y-76549333D01*
X236720476Y-76454095D01*
X236720476Y-76358857D01*
X236768095Y-76263619D01*
X236815714Y-76216000D01*
X236910952Y-76168380D01*
X237149047Y-76168380D01*
X237291904Y-76216000D01*
X237625238Y-76168380D02*
X237863333Y-77168380D01*
X238053809Y-76454095D01*
X238244285Y-77168380D01*
X238482380Y-76168380D01*
X239387142Y-77168380D02*
X238815714Y-77168380D01*
X239101428Y-77168380D02*
X239101428Y-76168380D01*
X239006190Y-76311238D01*
X238910952Y-76406476D01*
X238815714Y-76454095D01*
X240291904Y-76168380D02*
X239815714Y-76168380D01*
X239768095Y-76644571D01*
X239815714Y-76596952D01*
X239910952Y-76549333D01*
X240149047Y-76549333D01*
X240244285Y-76596952D01*
X240291904Y-76644571D01*
X240339523Y-76739809D01*
X240339523Y-76977904D01*
X240291904Y-77073142D01*
X240244285Y-77120761D01*
X240149047Y-77168380D01*
X239910952Y-77168380D01*
X239815714Y-77120761D01*
X239768095Y-77073142D01*
X271180476Y-96270761D02*
X271323333Y-96318380D01*
X271561428Y-96318380D01*
X271656666Y-96270761D01*
X271704285Y-96223142D01*
X271751904Y-96127904D01*
X271751904Y-96032666D01*
X271704285Y-95937428D01*
X271656666Y-95889809D01*
X271561428Y-95842190D01*
X271370952Y-95794571D01*
X271275714Y-95746952D01*
X271228095Y-95699333D01*
X271180476Y-95604095D01*
X271180476Y-95508857D01*
X271228095Y-95413619D01*
X271275714Y-95366000D01*
X271370952Y-95318380D01*
X271609047Y-95318380D01*
X271751904Y-95366000D01*
X272085238Y-95318380D02*
X272323333Y-96318380D01*
X272513809Y-95604095D01*
X272704285Y-96318380D01*
X272942380Y-95318380D01*
X273847142Y-96318380D02*
X273275714Y-96318380D01*
X273561428Y-96318380D02*
X273561428Y-95318380D01*
X273466190Y-95461238D01*
X273370952Y-95556476D01*
X273275714Y-95604095D01*
X274704285Y-95318380D02*
X274513809Y-95318380D01*
X274418571Y-95366000D01*
X274370952Y-95413619D01*
X274275714Y-95556476D01*
X274228095Y-95746952D01*
X274228095Y-96127904D01*
X274275714Y-96223142D01*
X274323333Y-96270761D01*
X274418571Y-96318380D01*
X274609047Y-96318380D01*
X274704285Y-96270761D01*
X274751904Y-96223142D01*
X274799523Y-96127904D01*
X274799523Y-95889809D01*
X274751904Y-95794571D01*
X274704285Y-95746952D01*
X274609047Y-95699333D01*
X274418571Y-95699333D01*
X274323333Y-95746952D01*
X274275714Y-95794571D01*
X274228095Y-95889809D01*
X1590476Y-77110761D02*
X1733333Y-77158380D01*
X1971428Y-77158380D01*
X2066666Y-77110761D01*
X2114285Y-77063142D01*
X2161904Y-76967904D01*
X2161904Y-76872666D01*
X2114285Y-76777428D01*
X2066666Y-76729809D01*
X1971428Y-76682190D01*
X1780952Y-76634571D01*
X1685714Y-76586952D01*
X1638095Y-76539333D01*
X1590476Y-76444095D01*
X1590476Y-76348857D01*
X1638095Y-76253619D01*
X1685714Y-76206000D01*
X1780952Y-76158380D01*
X2019047Y-76158380D01*
X2161904Y-76206000D01*
X2495238Y-76158380D02*
X2733333Y-77158380D01*
X2923809Y-76444095D01*
X3114285Y-77158380D01*
X3352380Y-76158380D01*
X4257142Y-77158380D02*
X3685714Y-77158380D01*
X3971428Y-77158380D02*
X3971428Y-76158380D01*
X3876190Y-76301238D01*
X3780952Y-76396476D01*
X3685714Y-76444095D01*
X4590476Y-76158380D02*
X5257142Y-76158380D01*
X4828571Y-77158380D01*
X31420476Y-96290761D02*
X31563333Y-96338380D01*
X31801428Y-96338380D01*
X31896666Y-96290761D01*
X31944285Y-96243142D01*
X31991904Y-96147904D01*
X31991904Y-96052666D01*
X31944285Y-95957428D01*
X31896666Y-95909809D01*
X31801428Y-95862190D01*
X31610952Y-95814571D01*
X31515714Y-95766952D01*
X31468095Y-95719333D01*
X31420476Y-95624095D01*
X31420476Y-95528857D01*
X31468095Y-95433619D01*
X31515714Y-95386000D01*
X31610952Y-95338380D01*
X31849047Y-95338380D01*
X31991904Y-95386000D01*
X32325238Y-95338380D02*
X32563333Y-96338380D01*
X32753809Y-95624095D01*
X32944285Y-96338380D01*
X33182380Y-95338380D01*
X34087142Y-96338380D02*
X33515714Y-96338380D01*
X33801428Y-96338380D02*
X33801428Y-95338380D01*
X33706190Y-95481238D01*
X33610952Y-95576476D01*
X33515714Y-95624095D01*
X34658571Y-95766952D02*
X34563333Y-95719333D01*
X34515714Y-95671714D01*
X34468095Y-95576476D01*
X34468095Y-95528857D01*
X34515714Y-95433619D01*
X34563333Y-95386000D01*
X34658571Y-95338380D01*
X34849047Y-95338380D01*
X34944285Y-95386000D01*
X34991904Y-95433619D01*
X35039523Y-95528857D01*
X35039523Y-95576476D01*
X34991904Y-95671714D01*
X34944285Y-95719333D01*
X34849047Y-95766952D01*
X34658571Y-95766952D01*
X34563333Y-95814571D01*
X34515714Y-95862190D01*
X34468095Y-95957428D01*
X34468095Y-96147904D01*
X34515714Y-96243142D01*
X34563333Y-96290761D01*
X34658571Y-96338380D01*
X34849047Y-96338380D01*
X34944285Y-96290761D01*
X34991904Y-96243142D01*
X35039523Y-96147904D01*
X35039523Y-95957428D01*
X34991904Y-95862190D01*
X34944285Y-95814571D01*
X34849047Y-95766952D01*
X69780476Y-96270761D02*
X69923333Y-96318380D01*
X70161428Y-96318380D01*
X70256666Y-96270761D01*
X70304285Y-96223142D01*
X70351904Y-96127904D01*
X70351904Y-96032666D01*
X70304285Y-95937428D01*
X70256666Y-95889809D01*
X70161428Y-95842190D01*
X69970952Y-95794571D01*
X69875714Y-95746952D01*
X69828095Y-95699333D01*
X69780476Y-95604095D01*
X69780476Y-95508857D01*
X69828095Y-95413619D01*
X69875714Y-95366000D01*
X69970952Y-95318380D01*
X70209047Y-95318380D01*
X70351904Y-95366000D01*
X70685238Y-95318380D02*
X70923333Y-96318380D01*
X71113809Y-95604095D01*
X71304285Y-96318380D01*
X71542380Y-95318380D01*
X72447142Y-96318380D02*
X71875714Y-96318380D01*
X72161428Y-96318380D02*
X72161428Y-95318380D01*
X72066190Y-95461238D01*
X71970952Y-95556476D01*
X71875714Y-95604095D01*
X72923333Y-96318380D02*
X73113809Y-96318380D01*
X73209047Y-96270761D01*
X73256666Y-96223142D01*
X73351904Y-96080285D01*
X73399523Y-95889809D01*
X73399523Y-95508857D01*
X73351904Y-95413619D01*
X73304285Y-95366000D01*
X73209047Y-95318380D01*
X73018571Y-95318380D01*
X72923333Y-95366000D01*
X72875714Y-95413619D01*
X72828095Y-95508857D01*
X72828095Y-95746952D01*
X72875714Y-95842190D01*
X72923333Y-95889809D01*
X73018571Y-95937428D01*
X73209047Y-95937428D01*
X73304285Y-95889809D01*
X73351904Y-95842190D01*
X73399523Y-95746952D01*
X108170476Y-96270761D02*
X108313333Y-96318380D01*
X108551428Y-96318380D01*
X108646666Y-96270761D01*
X108694285Y-96223142D01*
X108741904Y-96127904D01*
X108741904Y-96032666D01*
X108694285Y-95937428D01*
X108646666Y-95889809D01*
X108551428Y-95842190D01*
X108360952Y-95794571D01*
X108265714Y-95746952D01*
X108218095Y-95699333D01*
X108170476Y-95604095D01*
X108170476Y-95508857D01*
X108218095Y-95413619D01*
X108265714Y-95366000D01*
X108360952Y-95318380D01*
X108599047Y-95318380D01*
X108741904Y-95366000D01*
X109075238Y-95318380D02*
X109313333Y-96318380D01*
X109503809Y-95604095D01*
X109694285Y-96318380D01*
X109932380Y-95318380D01*
X110265714Y-95413619D02*
X110313333Y-95366000D01*
X110408571Y-95318380D01*
X110646666Y-95318380D01*
X110741904Y-95366000D01*
X110789523Y-95413619D01*
X110837142Y-95508857D01*
X110837142Y-95604095D01*
X110789523Y-95746952D01*
X110218095Y-96318380D01*
X110837142Y-96318380D01*
X111456190Y-95318380D02*
X111551428Y-95318380D01*
X111646666Y-95366000D01*
X111694285Y-95413619D01*
X111741904Y-95508857D01*
X111789523Y-95699333D01*
X111789523Y-95937428D01*
X111741904Y-96127904D01*
X111694285Y-96223142D01*
X111646666Y-96270761D01*
X111551428Y-96318380D01*
X111456190Y-96318380D01*
X111360952Y-96270761D01*
X111313333Y-96223142D01*
X111265714Y-96127904D01*
X111218095Y-95937428D01*
X111218095Y-95699333D01*
X111265714Y-95508857D01*
X111313333Y-95413619D01*
X111360952Y-95366000D01*
X111456190Y-95318380D01*
X146550476Y-96270761D02*
X146693333Y-96318380D01*
X146931428Y-96318380D01*
X147026666Y-96270761D01*
X147074285Y-96223142D01*
X147121904Y-96127904D01*
X147121904Y-96032666D01*
X147074285Y-95937428D01*
X147026666Y-95889809D01*
X146931428Y-95842190D01*
X146740952Y-95794571D01*
X146645714Y-95746952D01*
X146598095Y-95699333D01*
X146550476Y-95604095D01*
X146550476Y-95508857D01*
X146598095Y-95413619D01*
X146645714Y-95366000D01*
X146740952Y-95318380D01*
X146979047Y-95318380D01*
X147121904Y-95366000D01*
X147455238Y-95318380D02*
X147693333Y-96318380D01*
X147883809Y-95604095D01*
X148074285Y-96318380D01*
X148312380Y-95318380D01*
X148645714Y-95413619D02*
X148693333Y-95366000D01*
X148788571Y-95318380D01*
X149026666Y-95318380D01*
X149121904Y-95366000D01*
X149169523Y-95413619D01*
X149217142Y-95508857D01*
X149217142Y-95604095D01*
X149169523Y-95746952D01*
X148598095Y-96318380D01*
X149217142Y-96318380D01*
X150169523Y-96318380D02*
X149598095Y-96318380D01*
X149883809Y-96318380D02*
X149883809Y-95318380D01*
X149788571Y-95461238D01*
X149693333Y-95556476D01*
X149598095Y-95604095D01*
X184920476Y-96270761D02*
X185063333Y-96318380D01*
X185301428Y-96318380D01*
X185396666Y-96270761D01*
X185444285Y-96223142D01*
X185491904Y-96127904D01*
X185491904Y-96032666D01*
X185444285Y-95937428D01*
X185396666Y-95889809D01*
X185301428Y-95842190D01*
X185110952Y-95794571D01*
X185015714Y-95746952D01*
X184968095Y-95699333D01*
X184920476Y-95604095D01*
X184920476Y-95508857D01*
X184968095Y-95413619D01*
X185015714Y-95366000D01*
X185110952Y-95318380D01*
X185349047Y-95318380D01*
X185491904Y-95366000D01*
X185825238Y-95318380D02*
X186063333Y-96318380D01*
X186253809Y-95604095D01*
X186444285Y-96318380D01*
X186682380Y-95318380D01*
X187015714Y-95413619D02*
X187063333Y-95366000D01*
X187158571Y-95318380D01*
X187396666Y-95318380D01*
X187491904Y-95366000D01*
X187539523Y-95413619D01*
X187587142Y-95508857D01*
X187587142Y-95604095D01*
X187539523Y-95746952D01*
X186968095Y-96318380D01*
X187587142Y-96318380D01*
X187968095Y-95413619D02*
X188015714Y-95366000D01*
X188110952Y-95318380D01*
X188349047Y-95318380D01*
X188444285Y-95366000D01*
X188491904Y-95413619D01*
X188539523Y-95508857D01*
X188539523Y-95604095D01*
X188491904Y-95746952D01*
X187920476Y-96318380D01*
X188539523Y-96318380D01*
X223280476Y-96270761D02*
X223423333Y-96318380D01*
X223661428Y-96318380D01*
X223756666Y-96270761D01*
X223804285Y-96223142D01*
X223851904Y-96127904D01*
X223851904Y-96032666D01*
X223804285Y-95937428D01*
X223756666Y-95889809D01*
X223661428Y-95842190D01*
X223470952Y-95794571D01*
X223375714Y-95746952D01*
X223328095Y-95699333D01*
X223280476Y-95604095D01*
X223280476Y-95508857D01*
X223328095Y-95413619D01*
X223375714Y-95366000D01*
X223470952Y-95318380D01*
X223709047Y-95318380D01*
X223851904Y-95366000D01*
X224185238Y-95318380D02*
X224423333Y-96318380D01*
X224613809Y-95604095D01*
X224804285Y-96318380D01*
X225042380Y-95318380D01*
X225375714Y-95413619D02*
X225423333Y-95366000D01*
X225518571Y-95318380D01*
X225756666Y-95318380D01*
X225851904Y-95366000D01*
X225899523Y-95413619D01*
X225947142Y-95508857D01*
X225947142Y-95604095D01*
X225899523Y-95746952D01*
X225328095Y-96318380D01*
X225947142Y-96318380D01*
X226280476Y-95318380D02*
X226899523Y-95318380D01*
X226566190Y-95699333D01*
X226709047Y-95699333D01*
X226804285Y-95746952D01*
X226851904Y-95794571D01*
X226899523Y-95889809D01*
X226899523Y-96127904D01*
X226851904Y-96223142D01*
X226804285Y-96270761D01*
X226709047Y-96318380D01*
X226423333Y-96318380D01*
X226328095Y-96270761D01*
X226280476Y-96223142D01*
X280800476Y-115480761D02*
X280943333Y-115528380D01*
X281181428Y-115528380D01*
X281276666Y-115480761D01*
X281324285Y-115433142D01*
X281371904Y-115337904D01*
X281371904Y-115242666D01*
X281324285Y-115147428D01*
X281276666Y-115099809D01*
X281181428Y-115052190D01*
X280990952Y-115004571D01*
X280895714Y-114956952D01*
X280848095Y-114909333D01*
X280800476Y-114814095D01*
X280800476Y-114718857D01*
X280848095Y-114623619D01*
X280895714Y-114576000D01*
X280990952Y-114528380D01*
X281229047Y-114528380D01*
X281371904Y-114576000D01*
X281705238Y-114528380D02*
X281943333Y-115528380D01*
X282133809Y-114814095D01*
X282324285Y-115528380D01*
X282562380Y-114528380D01*
X282895714Y-114623619D02*
X282943333Y-114576000D01*
X283038571Y-114528380D01*
X283276666Y-114528380D01*
X283371904Y-114576000D01*
X283419523Y-114623619D01*
X283467142Y-114718857D01*
X283467142Y-114814095D01*
X283419523Y-114956952D01*
X282848095Y-115528380D01*
X283467142Y-115528380D01*
X284324285Y-114861714D02*
X284324285Y-115528380D01*
X284086190Y-114480761D02*
X283848095Y-115195047D01*
X284467142Y-115195047D01*
X-6979523Y-96290761D02*
X-6836666Y-96338380D01*
X-6598571Y-96338380D01*
X-6503333Y-96290761D01*
X-6455714Y-96243142D01*
X-6408095Y-96147904D01*
X-6408095Y-96052666D01*
X-6455714Y-95957428D01*
X-6503333Y-95909809D01*
X-6598571Y-95862190D01*
X-6789047Y-95814571D01*
X-6884285Y-95766952D01*
X-6931904Y-95719333D01*
X-6979523Y-95624095D01*
X-6979523Y-95528857D01*
X-6931904Y-95433619D01*
X-6884285Y-95386000D01*
X-6789047Y-95338380D01*
X-6550952Y-95338380D01*
X-6408095Y-95386000D01*
X-6074761Y-95338380D02*
X-5836666Y-96338380D01*
X-5646190Y-95624095D01*
X-5455714Y-96338380D01*
X-5217619Y-95338380D01*
X-4884285Y-95433619D02*
X-4836666Y-95386000D01*
X-4741428Y-95338380D01*
X-4503333Y-95338380D01*
X-4408095Y-95386000D01*
X-4360476Y-95433619D01*
X-4312857Y-95528857D01*
X-4312857Y-95624095D01*
X-4360476Y-95766952D01*
X-4931904Y-96338380D01*
X-4312857Y-96338380D01*
X-3408095Y-95338380D02*
X-3884285Y-95338380D01*
X-3931904Y-95814571D01*
X-3884285Y-95766952D01*
X-3789047Y-95719333D01*
X-3550952Y-95719333D01*
X-3455714Y-95766952D01*
X-3408095Y-95814571D01*
X-3360476Y-95909809D01*
X-3360476Y-96147904D01*
X-3408095Y-96243142D01*
X-3455714Y-96290761D01*
X-3550952Y-96338380D01*
X-3789047Y-96338380D01*
X-3884285Y-96290761D01*
X-3931904Y-96243142D01*
X16960476Y-115480761D02*
X17103333Y-115528380D01*
X17341428Y-115528380D01*
X17436666Y-115480761D01*
X17484285Y-115433142D01*
X17531904Y-115337904D01*
X17531904Y-115242666D01*
X17484285Y-115147428D01*
X17436666Y-115099809D01*
X17341428Y-115052190D01*
X17150952Y-115004571D01*
X17055714Y-114956952D01*
X17008095Y-114909333D01*
X16960476Y-114814095D01*
X16960476Y-114718857D01*
X17008095Y-114623619D01*
X17055714Y-114576000D01*
X17150952Y-114528380D01*
X17389047Y-114528380D01*
X17531904Y-114576000D01*
X17865238Y-114528380D02*
X18103333Y-115528380D01*
X18293809Y-114814095D01*
X18484285Y-115528380D01*
X18722380Y-114528380D01*
X19055714Y-114623619D02*
X19103333Y-114576000D01*
X19198571Y-114528380D01*
X19436666Y-114528380D01*
X19531904Y-114576000D01*
X19579523Y-114623619D01*
X19627142Y-114718857D01*
X19627142Y-114814095D01*
X19579523Y-114956952D01*
X19008095Y-115528380D01*
X19627142Y-115528380D01*
X20484285Y-114528380D02*
X20293809Y-114528380D01*
X20198571Y-114576000D01*
X20150952Y-114623619D01*
X20055714Y-114766476D01*
X20008095Y-114956952D01*
X20008095Y-115337904D01*
X20055714Y-115433142D01*
X20103333Y-115480761D01*
X20198571Y-115528380D01*
X20389047Y-115528380D01*
X20484285Y-115480761D01*
X20531904Y-115433142D01*
X20579523Y-115337904D01*
X20579523Y-115099809D01*
X20531904Y-115004571D01*
X20484285Y-114956952D01*
X20389047Y-114909333D01*
X20198571Y-114909333D01*
X20103333Y-114956952D01*
X20055714Y-115004571D01*
X20008095Y-115099809D01*
X60120476Y-115480761D02*
X60263333Y-115528380D01*
X60501428Y-115528380D01*
X60596666Y-115480761D01*
X60644285Y-115433142D01*
X60691904Y-115337904D01*
X60691904Y-115242666D01*
X60644285Y-115147428D01*
X60596666Y-115099809D01*
X60501428Y-115052190D01*
X60310952Y-115004571D01*
X60215714Y-114956952D01*
X60168095Y-114909333D01*
X60120476Y-114814095D01*
X60120476Y-114718857D01*
X60168095Y-114623619D01*
X60215714Y-114576000D01*
X60310952Y-114528380D01*
X60549047Y-114528380D01*
X60691904Y-114576000D01*
X61025238Y-114528380D02*
X61263333Y-115528380D01*
X61453809Y-114814095D01*
X61644285Y-115528380D01*
X61882380Y-114528380D01*
X62215714Y-114623619D02*
X62263333Y-114576000D01*
X62358571Y-114528380D01*
X62596666Y-114528380D01*
X62691904Y-114576000D01*
X62739523Y-114623619D01*
X62787142Y-114718857D01*
X62787142Y-114814095D01*
X62739523Y-114956952D01*
X62168095Y-115528380D01*
X62787142Y-115528380D01*
X63120476Y-114528380D02*
X63787142Y-114528380D01*
X63358571Y-115528380D01*
X98530476Y-115480761D02*
X98673333Y-115528380D01*
X98911428Y-115528380D01*
X99006666Y-115480761D01*
X99054285Y-115433142D01*
X99101904Y-115337904D01*
X99101904Y-115242666D01*
X99054285Y-115147428D01*
X99006666Y-115099809D01*
X98911428Y-115052190D01*
X98720952Y-115004571D01*
X98625714Y-114956952D01*
X98578095Y-114909333D01*
X98530476Y-114814095D01*
X98530476Y-114718857D01*
X98578095Y-114623619D01*
X98625714Y-114576000D01*
X98720952Y-114528380D01*
X98959047Y-114528380D01*
X99101904Y-114576000D01*
X99435238Y-114528380D02*
X99673333Y-115528380D01*
X99863809Y-114814095D01*
X100054285Y-115528380D01*
X100292380Y-114528380D01*
X100625714Y-114623619D02*
X100673333Y-114576000D01*
X100768571Y-114528380D01*
X101006666Y-114528380D01*
X101101904Y-114576000D01*
X101149523Y-114623619D01*
X101197142Y-114718857D01*
X101197142Y-114814095D01*
X101149523Y-114956952D01*
X100578095Y-115528380D01*
X101197142Y-115528380D01*
X101768571Y-114956952D02*
X101673333Y-114909333D01*
X101625714Y-114861714D01*
X101578095Y-114766476D01*
X101578095Y-114718857D01*
X101625714Y-114623619D01*
X101673333Y-114576000D01*
X101768571Y-114528380D01*
X101959047Y-114528380D01*
X102054285Y-114576000D01*
X102101904Y-114623619D01*
X102149523Y-114718857D01*
X102149523Y-114766476D01*
X102101904Y-114861714D01*
X102054285Y-114909333D01*
X101959047Y-114956952D01*
X101768571Y-114956952D01*
X101673333Y-115004571D01*
X101625714Y-115052190D01*
X101578095Y-115147428D01*
X101578095Y-115337904D01*
X101625714Y-115433142D01*
X101673333Y-115480761D01*
X101768571Y-115528380D01*
X101959047Y-115528380D01*
X102054285Y-115480761D01*
X102101904Y-115433142D01*
X102149523Y-115337904D01*
X102149523Y-115147428D01*
X102101904Y-115052190D01*
X102054285Y-115004571D01*
X101959047Y-114956952D01*
X136930476Y-115480761D02*
X137073333Y-115528380D01*
X137311428Y-115528380D01*
X137406666Y-115480761D01*
X137454285Y-115433142D01*
X137501904Y-115337904D01*
X137501904Y-115242666D01*
X137454285Y-115147428D01*
X137406666Y-115099809D01*
X137311428Y-115052190D01*
X137120952Y-115004571D01*
X137025714Y-114956952D01*
X136978095Y-114909333D01*
X136930476Y-114814095D01*
X136930476Y-114718857D01*
X136978095Y-114623619D01*
X137025714Y-114576000D01*
X137120952Y-114528380D01*
X137359047Y-114528380D01*
X137501904Y-114576000D01*
X137835238Y-114528380D02*
X138073333Y-115528380D01*
X138263809Y-114814095D01*
X138454285Y-115528380D01*
X138692380Y-114528380D01*
X139025714Y-114623619D02*
X139073333Y-114576000D01*
X139168571Y-114528380D01*
X139406666Y-114528380D01*
X139501904Y-114576000D01*
X139549523Y-114623619D01*
X139597142Y-114718857D01*
X139597142Y-114814095D01*
X139549523Y-114956952D01*
X138978095Y-115528380D01*
X139597142Y-115528380D01*
X140073333Y-115528380D02*
X140263809Y-115528380D01*
X140359047Y-115480761D01*
X140406666Y-115433142D01*
X140501904Y-115290285D01*
X140549523Y-115099809D01*
X140549523Y-114718857D01*
X140501904Y-114623619D01*
X140454285Y-114576000D01*
X140359047Y-114528380D01*
X140168571Y-114528380D01*
X140073333Y-114576000D01*
X140025714Y-114623619D01*
X139978095Y-114718857D01*
X139978095Y-114956952D01*
X140025714Y-115052190D01*
X140073333Y-115099809D01*
X140168571Y-115147428D01*
X140359047Y-115147428D01*
X140454285Y-115099809D01*
X140501904Y-115052190D01*
X140549523Y-114956952D01*
X175330476Y-115480761D02*
X175473333Y-115528380D01*
X175711428Y-115528380D01*
X175806666Y-115480761D01*
X175854285Y-115433142D01*
X175901904Y-115337904D01*
X175901904Y-115242666D01*
X175854285Y-115147428D01*
X175806666Y-115099809D01*
X175711428Y-115052190D01*
X175520952Y-115004571D01*
X175425714Y-114956952D01*
X175378095Y-114909333D01*
X175330476Y-114814095D01*
X175330476Y-114718857D01*
X175378095Y-114623619D01*
X175425714Y-114576000D01*
X175520952Y-114528380D01*
X175759047Y-114528380D01*
X175901904Y-114576000D01*
X176235238Y-114528380D02*
X176473333Y-115528380D01*
X176663809Y-114814095D01*
X176854285Y-115528380D01*
X177092380Y-114528380D01*
X177378095Y-114528380D02*
X177997142Y-114528380D01*
X177663809Y-114909333D01*
X177806666Y-114909333D01*
X177901904Y-114956952D01*
X177949523Y-115004571D01*
X177997142Y-115099809D01*
X177997142Y-115337904D01*
X177949523Y-115433142D01*
X177901904Y-115480761D01*
X177806666Y-115528380D01*
X177520952Y-115528380D01*
X177425714Y-115480761D01*
X177378095Y-115433142D01*
X178616190Y-114528380D02*
X178711428Y-114528380D01*
X178806666Y-114576000D01*
X178854285Y-114623619D01*
X178901904Y-114718857D01*
X178949523Y-114909333D01*
X178949523Y-115147428D01*
X178901904Y-115337904D01*
X178854285Y-115433142D01*
X178806666Y-115480761D01*
X178711428Y-115528380D01*
X178616190Y-115528380D01*
X178520952Y-115480761D01*
X178473333Y-115433142D01*
X178425714Y-115337904D01*
X178378095Y-115147428D01*
X178378095Y-114909333D01*
X178425714Y-114718857D01*
X178473333Y-114623619D01*
X178520952Y-114576000D01*
X178616190Y-114528380D01*
X213720476Y-115480761D02*
X213863333Y-115528380D01*
X214101428Y-115528380D01*
X214196666Y-115480761D01*
X214244285Y-115433142D01*
X214291904Y-115337904D01*
X214291904Y-115242666D01*
X214244285Y-115147428D01*
X214196666Y-115099809D01*
X214101428Y-115052190D01*
X213910952Y-115004571D01*
X213815714Y-114956952D01*
X213768095Y-114909333D01*
X213720476Y-114814095D01*
X213720476Y-114718857D01*
X213768095Y-114623619D01*
X213815714Y-114576000D01*
X213910952Y-114528380D01*
X214149047Y-114528380D01*
X214291904Y-114576000D01*
X214625238Y-114528380D02*
X214863333Y-115528380D01*
X215053809Y-114814095D01*
X215244285Y-115528380D01*
X215482380Y-114528380D01*
X215768095Y-114528380D02*
X216387142Y-114528380D01*
X216053809Y-114909333D01*
X216196666Y-114909333D01*
X216291904Y-114956952D01*
X216339523Y-115004571D01*
X216387142Y-115099809D01*
X216387142Y-115337904D01*
X216339523Y-115433142D01*
X216291904Y-115480761D01*
X216196666Y-115528380D01*
X215910952Y-115528380D01*
X215815714Y-115480761D01*
X215768095Y-115433142D01*
X217339523Y-115528380D02*
X216768095Y-115528380D01*
X217053809Y-115528380D02*
X217053809Y-114528380D01*
X216958571Y-114671238D01*
X216863333Y-114766476D01*
X216768095Y-114814095D01*
X261620476Y-115480761D02*
X261763333Y-115528380D01*
X262001428Y-115528380D01*
X262096666Y-115480761D01*
X262144285Y-115433142D01*
X262191904Y-115337904D01*
X262191904Y-115242666D01*
X262144285Y-115147428D01*
X262096666Y-115099809D01*
X262001428Y-115052190D01*
X261810952Y-115004571D01*
X261715714Y-114956952D01*
X261668095Y-114909333D01*
X261620476Y-114814095D01*
X261620476Y-114718857D01*
X261668095Y-114623619D01*
X261715714Y-114576000D01*
X261810952Y-114528380D01*
X262049047Y-114528380D01*
X262191904Y-114576000D01*
X262525238Y-114528380D02*
X262763333Y-115528380D01*
X262953809Y-114814095D01*
X263144285Y-115528380D01*
X263382380Y-114528380D01*
X263668095Y-114528380D02*
X264287142Y-114528380D01*
X263953809Y-114909333D01*
X264096666Y-114909333D01*
X264191904Y-114956952D01*
X264239523Y-115004571D01*
X264287142Y-115099809D01*
X264287142Y-115337904D01*
X264239523Y-115433142D01*
X264191904Y-115480761D01*
X264096666Y-115528380D01*
X263810952Y-115528380D01*
X263715714Y-115480761D01*
X263668095Y-115433142D01*
X264668095Y-114623619D02*
X264715714Y-114576000D01*
X264810952Y-114528380D01*
X265049047Y-114528380D01*
X265144285Y-114576000D01*
X265191904Y-114623619D01*
X265239523Y-114718857D01*
X265239523Y-114814095D01*
X265191904Y-114956952D01*
X264620476Y-115528380D01*
X265239523Y-115528380D01*
X121800476Y-134670761D02*
X121943333Y-134718380D01*
X122181428Y-134718380D01*
X122276666Y-134670761D01*
X122324285Y-134623142D01*
X122371904Y-134527904D01*
X122371904Y-134432666D01*
X122324285Y-134337428D01*
X122276666Y-134289809D01*
X122181428Y-134242190D01*
X121990952Y-134194571D01*
X121895714Y-134146952D01*
X121848095Y-134099333D01*
X121800476Y-134004095D01*
X121800476Y-133908857D01*
X121848095Y-133813619D01*
X121895714Y-133766000D01*
X121990952Y-133718380D01*
X122229047Y-133718380D01*
X122371904Y-133766000D01*
X122705238Y-133718380D02*
X122943333Y-134718380D01*
X123133809Y-134004095D01*
X123324285Y-134718380D01*
X123562380Y-133718380D01*
X123848095Y-133718380D02*
X124467142Y-133718380D01*
X124133809Y-134099333D01*
X124276666Y-134099333D01*
X124371904Y-134146952D01*
X124419523Y-134194571D01*
X124467142Y-134289809D01*
X124467142Y-134527904D01*
X124419523Y-134623142D01*
X124371904Y-134670761D01*
X124276666Y-134718380D01*
X123990952Y-134718380D01*
X123895714Y-134670761D01*
X123848095Y-134623142D01*
X124800476Y-133718380D02*
X125419523Y-133718380D01*
X125086190Y-134099333D01*
X125229047Y-134099333D01*
X125324285Y-134146952D01*
X125371904Y-134194571D01*
X125419523Y-134289809D01*
X125419523Y-134527904D01*
X125371904Y-134623142D01*
X125324285Y-134670761D01*
X125229047Y-134718380D01*
X124943333Y-134718380D01*
X124848095Y-134670761D01*
X124800476Y-134623142D01*
X40910476Y-115490761D02*
X41053333Y-115538380D01*
X41291428Y-115538380D01*
X41386666Y-115490761D01*
X41434285Y-115443142D01*
X41481904Y-115347904D01*
X41481904Y-115252666D01*
X41434285Y-115157428D01*
X41386666Y-115109809D01*
X41291428Y-115062190D01*
X41100952Y-115014571D01*
X41005714Y-114966952D01*
X40958095Y-114919333D01*
X40910476Y-114824095D01*
X40910476Y-114728857D01*
X40958095Y-114633619D01*
X41005714Y-114586000D01*
X41100952Y-114538380D01*
X41339047Y-114538380D01*
X41481904Y-114586000D01*
X41815238Y-114538380D02*
X42053333Y-115538380D01*
X42243809Y-114824095D01*
X42434285Y-115538380D01*
X42672380Y-114538380D01*
X42958095Y-114538380D02*
X43577142Y-114538380D01*
X43243809Y-114919333D01*
X43386666Y-114919333D01*
X43481904Y-114966952D01*
X43529523Y-115014571D01*
X43577142Y-115109809D01*
X43577142Y-115347904D01*
X43529523Y-115443142D01*
X43481904Y-115490761D01*
X43386666Y-115538380D01*
X43100952Y-115538380D01*
X43005714Y-115490761D01*
X42958095Y-115443142D01*
X44434285Y-114871714D02*
X44434285Y-115538380D01*
X44196190Y-114490761D02*
X43958095Y-115205047D01*
X44577142Y-115205047D01*
X79320476Y-115480761D02*
X79463333Y-115528380D01*
X79701428Y-115528380D01*
X79796666Y-115480761D01*
X79844285Y-115433142D01*
X79891904Y-115337904D01*
X79891904Y-115242666D01*
X79844285Y-115147428D01*
X79796666Y-115099809D01*
X79701428Y-115052190D01*
X79510952Y-115004571D01*
X79415714Y-114956952D01*
X79368095Y-114909333D01*
X79320476Y-114814095D01*
X79320476Y-114718857D01*
X79368095Y-114623619D01*
X79415714Y-114576000D01*
X79510952Y-114528380D01*
X79749047Y-114528380D01*
X79891904Y-114576000D01*
X80225238Y-114528380D02*
X80463333Y-115528380D01*
X80653809Y-114814095D01*
X80844285Y-115528380D01*
X81082380Y-114528380D01*
X81368095Y-114528380D02*
X81987142Y-114528380D01*
X81653809Y-114909333D01*
X81796666Y-114909333D01*
X81891904Y-114956952D01*
X81939523Y-115004571D01*
X81987142Y-115099809D01*
X81987142Y-115337904D01*
X81939523Y-115433142D01*
X81891904Y-115480761D01*
X81796666Y-115528380D01*
X81510952Y-115528380D01*
X81415714Y-115480761D01*
X81368095Y-115433142D01*
X82891904Y-114528380D02*
X82415714Y-114528380D01*
X82368095Y-115004571D01*
X82415714Y-114956952D01*
X82510952Y-114909333D01*
X82749047Y-114909333D01*
X82844285Y-114956952D01*
X82891904Y-115004571D01*
X82939523Y-115099809D01*
X82939523Y-115337904D01*
X82891904Y-115433142D01*
X82844285Y-115480761D01*
X82749047Y-115528380D01*
X82510952Y-115528380D01*
X82415714Y-115480761D01*
X82368095Y-115433142D01*
X117720476Y-115480761D02*
X117863333Y-115528380D01*
X118101428Y-115528380D01*
X118196666Y-115480761D01*
X118244285Y-115433142D01*
X118291904Y-115337904D01*
X118291904Y-115242666D01*
X118244285Y-115147428D01*
X118196666Y-115099809D01*
X118101428Y-115052190D01*
X117910952Y-115004571D01*
X117815714Y-114956952D01*
X117768095Y-114909333D01*
X117720476Y-114814095D01*
X117720476Y-114718857D01*
X117768095Y-114623619D01*
X117815714Y-114576000D01*
X117910952Y-114528380D01*
X118149047Y-114528380D01*
X118291904Y-114576000D01*
X118625238Y-114528380D02*
X118863333Y-115528380D01*
X119053809Y-114814095D01*
X119244285Y-115528380D01*
X119482380Y-114528380D01*
X119768095Y-114528380D02*
X120387142Y-114528380D01*
X120053809Y-114909333D01*
X120196666Y-114909333D01*
X120291904Y-114956952D01*
X120339523Y-115004571D01*
X120387142Y-115099809D01*
X120387142Y-115337904D01*
X120339523Y-115433142D01*
X120291904Y-115480761D01*
X120196666Y-115528380D01*
X119910952Y-115528380D01*
X119815714Y-115480761D01*
X119768095Y-115433142D01*
X121244285Y-114528380D02*
X121053809Y-114528380D01*
X120958571Y-114576000D01*
X120910952Y-114623619D01*
X120815714Y-114766476D01*
X120768095Y-114956952D01*
X120768095Y-115337904D01*
X120815714Y-115433142D01*
X120863333Y-115480761D01*
X120958571Y-115528380D01*
X121149047Y-115528380D01*
X121244285Y-115480761D01*
X121291904Y-115433142D01*
X121339523Y-115337904D01*
X121339523Y-115099809D01*
X121291904Y-115004571D01*
X121244285Y-114956952D01*
X121149047Y-114909333D01*
X120958571Y-114909333D01*
X120863333Y-114956952D01*
X120815714Y-115004571D01*
X120768095Y-115099809D01*
X156130476Y-115480761D02*
X156273333Y-115528380D01*
X156511428Y-115528380D01*
X156606666Y-115480761D01*
X156654285Y-115433142D01*
X156701904Y-115337904D01*
X156701904Y-115242666D01*
X156654285Y-115147428D01*
X156606666Y-115099809D01*
X156511428Y-115052190D01*
X156320952Y-115004571D01*
X156225714Y-114956952D01*
X156178095Y-114909333D01*
X156130476Y-114814095D01*
X156130476Y-114718857D01*
X156178095Y-114623619D01*
X156225714Y-114576000D01*
X156320952Y-114528380D01*
X156559047Y-114528380D01*
X156701904Y-114576000D01*
X157035238Y-114528380D02*
X157273333Y-115528380D01*
X157463809Y-114814095D01*
X157654285Y-115528380D01*
X157892380Y-114528380D01*
X158178095Y-114528380D02*
X158797142Y-114528380D01*
X158463809Y-114909333D01*
X158606666Y-114909333D01*
X158701904Y-114956952D01*
X158749523Y-115004571D01*
X158797142Y-115099809D01*
X158797142Y-115337904D01*
X158749523Y-115433142D01*
X158701904Y-115480761D01*
X158606666Y-115528380D01*
X158320952Y-115528380D01*
X158225714Y-115480761D01*
X158178095Y-115433142D01*
X159130476Y-114528380D02*
X159797142Y-114528380D01*
X159368571Y-115528380D01*
X194530476Y-115480761D02*
X194673333Y-115528380D01*
X194911428Y-115528380D01*
X195006666Y-115480761D01*
X195054285Y-115433142D01*
X195101904Y-115337904D01*
X195101904Y-115242666D01*
X195054285Y-115147428D01*
X195006666Y-115099809D01*
X194911428Y-115052190D01*
X194720952Y-115004571D01*
X194625714Y-114956952D01*
X194578095Y-114909333D01*
X194530476Y-114814095D01*
X194530476Y-114718857D01*
X194578095Y-114623619D01*
X194625714Y-114576000D01*
X194720952Y-114528380D01*
X194959047Y-114528380D01*
X195101904Y-114576000D01*
X195435238Y-114528380D02*
X195673333Y-115528380D01*
X195863809Y-114814095D01*
X196054285Y-115528380D01*
X196292380Y-114528380D01*
X196578095Y-114528380D02*
X197197142Y-114528380D01*
X196863809Y-114909333D01*
X197006666Y-114909333D01*
X197101904Y-114956952D01*
X197149523Y-115004571D01*
X197197142Y-115099809D01*
X197197142Y-115337904D01*
X197149523Y-115433142D01*
X197101904Y-115480761D01*
X197006666Y-115528380D01*
X196720952Y-115528380D01*
X196625714Y-115480761D01*
X196578095Y-115433142D01*
X197768571Y-114956952D02*
X197673333Y-114909333D01*
X197625714Y-114861714D01*
X197578095Y-114766476D01*
X197578095Y-114718857D01*
X197625714Y-114623619D01*
X197673333Y-114576000D01*
X197768571Y-114528380D01*
X197959047Y-114528380D01*
X198054285Y-114576000D01*
X198101904Y-114623619D01*
X198149523Y-114718857D01*
X198149523Y-114766476D01*
X198101904Y-114861714D01*
X198054285Y-114909333D01*
X197959047Y-114956952D01*
X197768571Y-114956952D01*
X197673333Y-115004571D01*
X197625714Y-115052190D01*
X197578095Y-115147428D01*
X197578095Y-115337904D01*
X197625714Y-115433142D01*
X197673333Y-115480761D01*
X197768571Y-115528380D01*
X197959047Y-115528380D01*
X198054285Y-115480761D01*
X198101904Y-115433142D01*
X198149523Y-115337904D01*
X198149523Y-115147428D01*
X198101904Y-115052190D01*
X198054285Y-115004571D01*
X197959047Y-114956952D01*
X237670476Y-115480761D02*
X237813333Y-115528380D01*
X238051428Y-115528380D01*
X238146666Y-115480761D01*
X238194285Y-115433142D01*
X238241904Y-115337904D01*
X238241904Y-115242666D01*
X238194285Y-115147428D01*
X238146666Y-115099809D01*
X238051428Y-115052190D01*
X237860952Y-115004571D01*
X237765714Y-114956952D01*
X237718095Y-114909333D01*
X237670476Y-114814095D01*
X237670476Y-114718857D01*
X237718095Y-114623619D01*
X237765714Y-114576000D01*
X237860952Y-114528380D01*
X238099047Y-114528380D01*
X238241904Y-114576000D01*
X238575238Y-114528380D02*
X238813333Y-115528380D01*
X239003809Y-114814095D01*
X239194285Y-115528380D01*
X239432380Y-114528380D01*
X239718095Y-114528380D02*
X240337142Y-114528380D01*
X240003809Y-114909333D01*
X240146666Y-114909333D01*
X240241904Y-114956952D01*
X240289523Y-115004571D01*
X240337142Y-115099809D01*
X240337142Y-115337904D01*
X240289523Y-115433142D01*
X240241904Y-115480761D01*
X240146666Y-115528380D01*
X239860952Y-115528380D01*
X239765714Y-115480761D01*
X239718095Y-115433142D01*
X240813333Y-115528380D02*
X241003809Y-115528380D01*
X241099047Y-115480761D01*
X241146666Y-115433142D01*
X241241904Y-115290285D01*
X241289523Y-115099809D01*
X241289523Y-114718857D01*
X241241904Y-114623619D01*
X241194285Y-114576000D01*
X241099047Y-114528380D01*
X240908571Y-114528380D01*
X240813333Y-114576000D01*
X240765714Y-114623619D01*
X240718095Y-114718857D01*
X240718095Y-114956952D01*
X240765714Y-115052190D01*
X240813333Y-115099809D01*
X240908571Y-115147428D01*
X241099047Y-115147428D01*
X241194285Y-115099809D01*
X241241904Y-115052190D01*
X241289523Y-114956952D01*
X329600476Y-58320761D02*
X329743333Y-58368380D01*
X329981428Y-58368380D01*
X330076666Y-58320761D01*
X330124285Y-58273142D01*
X330171904Y-58177904D01*
X330171904Y-58082666D01*
X330124285Y-57987428D01*
X330076666Y-57939809D01*
X329981428Y-57892190D01*
X329790952Y-57844571D01*
X329695714Y-57796952D01*
X329648095Y-57749333D01*
X329600476Y-57654095D01*
X329600476Y-57558857D01*
X329648095Y-57463619D01*
X329695714Y-57416000D01*
X329790952Y-57368380D01*
X330029047Y-57368380D01*
X330171904Y-57416000D01*
X330505238Y-57368380D02*
X330743333Y-58368380D01*
X330933809Y-57654095D01*
X331124285Y-58368380D01*
X331362380Y-57368380D01*
X332171904Y-57701714D02*
X332171904Y-58368380D01*
X331933809Y-57320761D02*
X331695714Y-58035047D01*
X332314761Y-58035047D01*
X332886190Y-57368380D02*
X332981428Y-57368380D01*
X333076666Y-57416000D01*
X333124285Y-57463619D01*
X333171904Y-57558857D01*
X333219523Y-57749333D01*
X333219523Y-57987428D01*
X333171904Y-58177904D01*
X333124285Y-58273142D01*
X333076666Y-58320761D01*
X332981428Y-58368380D01*
X332886190Y-58368380D01*
X332790952Y-58320761D01*
X332743333Y-58273142D01*
X332695714Y-58177904D01*
X332648095Y-57987428D01*
X332648095Y-57749333D01*
X332695714Y-57558857D01*
X332743333Y-57463619D01*
X332790952Y-57416000D01*
X332886190Y-57368380D01*
X-6989523Y-115490761D02*
X-6846666Y-115538380D01*
X-6608571Y-115538380D01*
X-6513333Y-115490761D01*
X-6465714Y-115443142D01*
X-6418095Y-115347904D01*
X-6418095Y-115252666D01*
X-6465714Y-115157428D01*
X-6513333Y-115109809D01*
X-6608571Y-115062190D01*
X-6799047Y-115014571D01*
X-6894285Y-114966952D01*
X-6941904Y-114919333D01*
X-6989523Y-114824095D01*
X-6989523Y-114728857D01*
X-6941904Y-114633619D01*
X-6894285Y-114586000D01*
X-6799047Y-114538380D01*
X-6560952Y-114538380D01*
X-6418095Y-114586000D01*
X-6084761Y-114538380D02*
X-5846666Y-115538380D01*
X-5656190Y-114824095D01*
X-5465714Y-115538380D01*
X-5227619Y-114538380D01*
X-4418095Y-114871714D02*
X-4418095Y-115538380D01*
X-4656190Y-114490761D02*
X-4894285Y-115205047D01*
X-4275238Y-115205047D01*
X-3370476Y-115538380D02*
X-3941904Y-115538380D01*
X-3656190Y-115538380D02*
X-3656190Y-114538380D01*
X-3751428Y-114681238D01*
X-3846666Y-114776476D01*
X-3941904Y-114824095D01*
X50620476Y-96270761D02*
X50763333Y-96318380D01*
X51001428Y-96318380D01*
X51096666Y-96270761D01*
X51144285Y-96223142D01*
X51191904Y-96127904D01*
X51191904Y-96032666D01*
X51144285Y-95937428D01*
X51096666Y-95889809D01*
X51001428Y-95842190D01*
X50810952Y-95794571D01*
X50715714Y-95746952D01*
X50668095Y-95699333D01*
X50620476Y-95604095D01*
X50620476Y-95508857D01*
X50668095Y-95413619D01*
X50715714Y-95366000D01*
X50810952Y-95318380D01*
X51049047Y-95318380D01*
X51191904Y-95366000D01*
X51525238Y-95318380D02*
X51763333Y-96318380D01*
X51953809Y-95604095D01*
X52144285Y-96318380D01*
X52382380Y-95318380D01*
X53191904Y-95651714D02*
X53191904Y-96318380D01*
X52953809Y-95270761D02*
X52715714Y-95985047D01*
X53334761Y-95985047D01*
X53668095Y-95413619D02*
X53715714Y-95366000D01*
X53810952Y-95318380D01*
X54049047Y-95318380D01*
X54144285Y-95366000D01*
X54191904Y-95413619D01*
X54239523Y-95508857D01*
X54239523Y-95604095D01*
X54191904Y-95746952D01*
X53620476Y-96318380D01*
X54239523Y-96318380D01*
X88970476Y-96270761D02*
X89113333Y-96318380D01*
X89351428Y-96318380D01*
X89446666Y-96270761D01*
X89494285Y-96223142D01*
X89541904Y-96127904D01*
X89541904Y-96032666D01*
X89494285Y-95937428D01*
X89446666Y-95889809D01*
X89351428Y-95842190D01*
X89160952Y-95794571D01*
X89065714Y-95746952D01*
X89018095Y-95699333D01*
X88970476Y-95604095D01*
X88970476Y-95508857D01*
X89018095Y-95413619D01*
X89065714Y-95366000D01*
X89160952Y-95318380D01*
X89399047Y-95318380D01*
X89541904Y-95366000D01*
X89875238Y-95318380D02*
X90113333Y-96318380D01*
X90303809Y-95604095D01*
X90494285Y-96318380D01*
X90732380Y-95318380D01*
X91541904Y-95651714D02*
X91541904Y-96318380D01*
X91303809Y-95270761D02*
X91065714Y-95985047D01*
X91684761Y-95985047D01*
X91970476Y-95318380D02*
X92589523Y-95318380D01*
X92256190Y-95699333D01*
X92399047Y-95699333D01*
X92494285Y-95746952D01*
X92541904Y-95794571D01*
X92589523Y-95889809D01*
X92589523Y-96127904D01*
X92541904Y-96223142D01*
X92494285Y-96270761D01*
X92399047Y-96318380D01*
X92113333Y-96318380D01*
X92018095Y-96270761D01*
X91970476Y-96223142D01*
X127350476Y-96270761D02*
X127493333Y-96318380D01*
X127731428Y-96318380D01*
X127826666Y-96270761D01*
X127874285Y-96223142D01*
X127921904Y-96127904D01*
X127921904Y-96032666D01*
X127874285Y-95937428D01*
X127826666Y-95889809D01*
X127731428Y-95842190D01*
X127540952Y-95794571D01*
X127445714Y-95746952D01*
X127398095Y-95699333D01*
X127350476Y-95604095D01*
X127350476Y-95508857D01*
X127398095Y-95413619D01*
X127445714Y-95366000D01*
X127540952Y-95318380D01*
X127779047Y-95318380D01*
X127921904Y-95366000D01*
X128255238Y-95318380D02*
X128493333Y-96318380D01*
X128683809Y-95604095D01*
X128874285Y-96318380D01*
X129112380Y-95318380D01*
X129921904Y-95651714D02*
X129921904Y-96318380D01*
X129683809Y-95270761D02*
X129445714Y-95985047D01*
X130064761Y-95985047D01*
X130874285Y-95651714D02*
X130874285Y-96318380D01*
X130636190Y-95270761D02*
X130398095Y-95985047D01*
X131017142Y-95985047D01*
X165710476Y-96270761D02*
X165853333Y-96318380D01*
X166091428Y-96318380D01*
X166186666Y-96270761D01*
X166234285Y-96223142D01*
X166281904Y-96127904D01*
X166281904Y-96032666D01*
X166234285Y-95937428D01*
X166186666Y-95889809D01*
X166091428Y-95842190D01*
X165900952Y-95794571D01*
X165805714Y-95746952D01*
X165758095Y-95699333D01*
X165710476Y-95604095D01*
X165710476Y-95508857D01*
X165758095Y-95413619D01*
X165805714Y-95366000D01*
X165900952Y-95318380D01*
X166139047Y-95318380D01*
X166281904Y-95366000D01*
X166615238Y-95318380D02*
X166853333Y-96318380D01*
X167043809Y-95604095D01*
X167234285Y-96318380D01*
X167472380Y-95318380D01*
X168281904Y-95651714D02*
X168281904Y-96318380D01*
X168043809Y-95270761D02*
X167805714Y-95985047D01*
X168424761Y-95985047D01*
X169281904Y-95318380D02*
X168805714Y-95318380D01*
X168758095Y-95794571D01*
X168805714Y-95746952D01*
X168900952Y-95699333D01*
X169139047Y-95699333D01*
X169234285Y-95746952D01*
X169281904Y-95794571D01*
X169329523Y-95889809D01*
X169329523Y-96127904D01*
X169281904Y-96223142D01*
X169234285Y-96270761D01*
X169139047Y-96318380D01*
X168900952Y-96318380D01*
X168805714Y-96270761D01*
X168758095Y-96223142D01*
X204080476Y-96270761D02*
X204223333Y-96318380D01*
X204461428Y-96318380D01*
X204556666Y-96270761D01*
X204604285Y-96223142D01*
X204651904Y-96127904D01*
X204651904Y-96032666D01*
X204604285Y-95937428D01*
X204556666Y-95889809D01*
X204461428Y-95842190D01*
X204270952Y-95794571D01*
X204175714Y-95746952D01*
X204128095Y-95699333D01*
X204080476Y-95604095D01*
X204080476Y-95508857D01*
X204128095Y-95413619D01*
X204175714Y-95366000D01*
X204270952Y-95318380D01*
X204509047Y-95318380D01*
X204651904Y-95366000D01*
X204985238Y-95318380D02*
X205223333Y-96318380D01*
X205413809Y-95604095D01*
X205604285Y-96318380D01*
X205842380Y-95318380D01*
X206651904Y-95651714D02*
X206651904Y-96318380D01*
X206413809Y-95270761D02*
X206175714Y-95985047D01*
X206794761Y-95985047D01*
X207604285Y-95318380D02*
X207413809Y-95318380D01*
X207318571Y-95366000D01*
X207270952Y-95413619D01*
X207175714Y-95556476D01*
X207128095Y-95746952D01*
X207128095Y-96127904D01*
X207175714Y-96223142D01*
X207223333Y-96270761D01*
X207318571Y-96318380D01*
X207509047Y-96318380D01*
X207604285Y-96270761D01*
X207651904Y-96223142D01*
X207699523Y-96127904D01*
X207699523Y-95889809D01*
X207651904Y-95794571D01*
X207604285Y-95746952D01*
X207509047Y-95699333D01*
X207318571Y-95699333D01*
X207223333Y-95746952D01*
X207175714Y-95794571D01*
X207128095Y-95889809D01*
X242470476Y-96290761D02*
X242613333Y-96338380D01*
X242851428Y-96338380D01*
X242946666Y-96290761D01*
X242994285Y-96243142D01*
X243041904Y-96147904D01*
X243041904Y-96052666D01*
X242994285Y-95957428D01*
X242946666Y-95909809D01*
X242851428Y-95862190D01*
X242660952Y-95814571D01*
X242565714Y-95766952D01*
X242518095Y-95719333D01*
X242470476Y-95624095D01*
X242470476Y-95528857D01*
X242518095Y-95433619D01*
X242565714Y-95386000D01*
X242660952Y-95338380D01*
X242899047Y-95338380D01*
X243041904Y-95386000D01*
X243375238Y-95338380D02*
X243613333Y-96338380D01*
X243803809Y-95624095D01*
X243994285Y-96338380D01*
X244232380Y-95338380D01*
X245041904Y-95671714D02*
X245041904Y-96338380D01*
X244803809Y-95290761D02*
X244565714Y-96005047D01*
X245184761Y-96005047D01*
X245470476Y-95338380D02*
X246137142Y-95338380D01*
X245708571Y-96338380D01*
X329600476Y-77600761D02*
X329743333Y-77648380D01*
X329981428Y-77648380D01*
X330076666Y-77600761D01*
X330124285Y-77553142D01*
X330171904Y-77457904D01*
X330171904Y-77362666D01*
X330124285Y-77267428D01*
X330076666Y-77219809D01*
X329981428Y-77172190D01*
X329790952Y-77124571D01*
X329695714Y-77076952D01*
X329648095Y-77029333D01*
X329600476Y-76934095D01*
X329600476Y-76838857D01*
X329648095Y-76743619D01*
X329695714Y-76696000D01*
X329790952Y-76648380D01*
X330029047Y-76648380D01*
X330171904Y-76696000D01*
X330505238Y-76648380D02*
X330743333Y-77648380D01*
X330933809Y-76934095D01*
X331124285Y-77648380D01*
X331362380Y-76648380D01*
X332171904Y-76981714D02*
X332171904Y-77648380D01*
X331933809Y-76600761D02*
X331695714Y-77315047D01*
X332314761Y-77315047D01*
X332838571Y-77076952D02*
X332743333Y-77029333D01*
X332695714Y-76981714D01*
X332648095Y-76886476D01*
X332648095Y-76838857D01*
X332695714Y-76743619D01*
X332743333Y-76696000D01*
X332838571Y-76648380D01*
X333029047Y-76648380D01*
X333124285Y-76696000D01*
X333171904Y-76743619D01*
X333219523Y-76838857D01*
X333219523Y-76886476D01*
X333171904Y-76981714D01*
X333124285Y-77029333D01*
X333029047Y-77076952D01*
X332838571Y-77076952D01*
X332743333Y-77124571D01*
X332695714Y-77172190D01*
X332648095Y-77267428D01*
X332648095Y-77457904D01*
X332695714Y-77553142D01*
X332743333Y-77600761D01*
X332838571Y-77648380D01*
X333029047Y-77648380D01*
X333124285Y-77600761D01*
X333171904Y-77553142D01*
X333219523Y-77457904D01*
X333219523Y-77267428D01*
X333171904Y-77172190D01*
X333124285Y-77124571D01*
X333029047Y-77076952D01*
X25550476Y-77110761D02*
X25693333Y-77158380D01*
X25931428Y-77158380D01*
X26026666Y-77110761D01*
X26074285Y-77063142D01*
X26121904Y-76967904D01*
X26121904Y-76872666D01*
X26074285Y-76777428D01*
X26026666Y-76729809D01*
X25931428Y-76682190D01*
X25740952Y-76634571D01*
X25645714Y-76586952D01*
X25598095Y-76539333D01*
X25550476Y-76444095D01*
X25550476Y-76348857D01*
X25598095Y-76253619D01*
X25645714Y-76206000D01*
X25740952Y-76158380D01*
X25979047Y-76158380D01*
X26121904Y-76206000D01*
X26455238Y-76158380D02*
X26693333Y-77158380D01*
X26883809Y-76444095D01*
X27074285Y-77158380D01*
X27312380Y-76158380D01*
X28121904Y-76491714D02*
X28121904Y-77158380D01*
X27883809Y-76110761D02*
X27645714Y-76825047D01*
X28264761Y-76825047D01*
X28693333Y-77158380D02*
X28883809Y-77158380D01*
X28979047Y-77110761D01*
X29026666Y-77063142D01*
X29121904Y-76920285D01*
X29169523Y-76729809D01*
X29169523Y-76348857D01*
X29121904Y-76253619D01*
X29074285Y-76206000D01*
X28979047Y-76158380D01*
X28788571Y-76158380D01*
X28693333Y-76206000D01*
X28645714Y-76253619D01*
X28598095Y-76348857D01*
X28598095Y-76586952D01*
X28645714Y-76682190D01*
X28693333Y-76729809D01*
X28788571Y-76777428D01*
X28979047Y-76777428D01*
X29074285Y-76729809D01*
X29121904Y-76682190D01*
X29169523Y-76586952D01*
X63950476Y-77110761D02*
X64093333Y-77158380D01*
X64331428Y-77158380D01*
X64426666Y-77110761D01*
X64474285Y-77063142D01*
X64521904Y-76967904D01*
X64521904Y-76872666D01*
X64474285Y-76777428D01*
X64426666Y-76729809D01*
X64331428Y-76682190D01*
X64140952Y-76634571D01*
X64045714Y-76586952D01*
X63998095Y-76539333D01*
X63950476Y-76444095D01*
X63950476Y-76348857D01*
X63998095Y-76253619D01*
X64045714Y-76206000D01*
X64140952Y-76158380D01*
X64379047Y-76158380D01*
X64521904Y-76206000D01*
X64855238Y-76158380D02*
X65093333Y-77158380D01*
X65283809Y-76444095D01*
X65474285Y-77158380D01*
X65712380Y-76158380D01*
X66569523Y-76158380D02*
X66093333Y-76158380D01*
X66045714Y-76634571D01*
X66093333Y-76586952D01*
X66188571Y-76539333D01*
X66426666Y-76539333D01*
X66521904Y-76586952D01*
X66569523Y-76634571D01*
X66617142Y-76729809D01*
X66617142Y-76967904D01*
X66569523Y-77063142D01*
X66521904Y-77110761D01*
X66426666Y-77158380D01*
X66188571Y-77158380D01*
X66093333Y-77110761D01*
X66045714Y-77063142D01*
X67236190Y-76158380D02*
X67331428Y-76158380D01*
X67426666Y-76206000D01*
X67474285Y-76253619D01*
X67521904Y-76348857D01*
X67569523Y-76539333D01*
X67569523Y-76777428D01*
X67521904Y-76967904D01*
X67474285Y-77063142D01*
X67426666Y-77110761D01*
X67331428Y-77158380D01*
X67236190Y-77158380D01*
X67140952Y-77110761D01*
X67093333Y-77063142D01*
X67045714Y-76967904D01*
X66998095Y-76777428D01*
X66998095Y-76539333D01*
X67045714Y-76348857D01*
X67093333Y-76253619D01*
X67140952Y-76206000D01*
X67236190Y-76158380D01*
X102340476Y-77110761D02*
X102483333Y-77158380D01*
X102721428Y-77158380D01*
X102816666Y-77110761D01*
X102864285Y-77063142D01*
X102911904Y-76967904D01*
X102911904Y-76872666D01*
X102864285Y-76777428D01*
X102816666Y-76729809D01*
X102721428Y-76682190D01*
X102530952Y-76634571D01*
X102435714Y-76586952D01*
X102388095Y-76539333D01*
X102340476Y-76444095D01*
X102340476Y-76348857D01*
X102388095Y-76253619D01*
X102435714Y-76206000D01*
X102530952Y-76158380D01*
X102769047Y-76158380D01*
X102911904Y-76206000D01*
X103245238Y-76158380D02*
X103483333Y-77158380D01*
X103673809Y-76444095D01*
X103864285Y-77158380D01*
X104102380Y-76158380D01*
X104959523Y-76158380D02*
X104483333Y-76158380D01*
X104435714Y-76634571D01*
X104483333Y-76586952D01*
X104578571Y-76539333D01*
X104816666Y-76539333D01*
X104911904Y-76586952D01*
X104959523Y-76634571D01*
X105007142Y-76729809D01*
X105007142Y-76967904D01*
X104959523Y-77063142D01*
X104911904Y-77110761D01*
X104816666Y-77158380D01*
X104578571Y-77158380D01*
X104483333Y-77110761D01*
X104435714Y-77063142D01*
X105959523Y-77158380D02*
X105388095Y-77158380D01*
X105673809Y-77158380D02*
X105673809Y-76158380D01*
X105578571Y-76301238D01*
X105483333Y-76396476D01*
X105388095Y-76444095D01*
X140720476Y-77110761D02*
X140863333Y-77158380D01*
X141101428Y-77158380D01*
X141196666Y-77110761D01*
X141244285Y-77063142D01*
X141291904Y-76967904D01*
X141291904Y-76872666D01*
X141244285Y-76777428D01*
X141196666Y-76729809D01*
X141101428Y-76682190D01*
X140910952Y-76634571D01*
X140815714Y-76586952D01*
X140768095Y-76539333D01*
X140720476Y-76444095D01*
X140720476Y-76348857D01*
X140768095Y-76253619D01*
X140815714Y-76206000D01*
X140910952Y-76158380D01*
X141149047Y-76158380D01*
X141291904Y-76206000D01*
X141625238Y-76158380D02*
X141863333Y-77158380D01*
X142053809Y-76444095D01*
X142244285Y-77158380D01*
X142482380Y-76158380D01*
X143339523Y-76158380D02*
X142863333Y-76158380D01*
X142815714Y-76634571D01*
X142863333Y-76586952D01*
X142958571Y-76539333D01*
X143196666Y-76539333D01*
X143291904Y-76586952D01*
X143339523Y-76634571D01*
X143387142Y-76729809D01*
X143387142Y-76967904D01*
X143339523Y-77063142D01*
X143291904Y-77110761D01*
X143196666Y-77158380D01*
X142958571Y-77158380D01*
X142863333Y-77110761D01*
X142815714Y-77063142D01*
X143768095Y-76253619D02*
X143815714Y-76206000D01*
X143910952Y-76158380D01*
X144149047Y-76158380D01*
X144244285Y-76206000D01*
X144291904Y-76253619D01*
X144339523Y-76348857D01*
X144339523Y-76444095D01*
X144291904Y-76586952D01*
X143720476Y-77158380D01*
X144339523Y-77158380D01*
X179110476Y-77110761D02*
X179253333Y-77158380D01*
X179491428Y-77158380D01*
X179586666Y-77110761D01*
X179634285Y-77063142D01*
X179681904Y-76967904D01*
X179681904Y-76872666D01*
X179634285Y-76777428D01*
X179586666Y-76729809D01*
X179491428Y-76682190D01*
X179300952Y-76634571D01*
X179205714Y-76586952D01*
X179158095Y-76539333D01*
X179110476Y-76444095D01*
X179110476Y-76348857D01*
X179158095Y-76253619D01*
X179205714Y-76206000D01*
X179300952Y-76158380D01*
X179539047Y-76158380D01*
X179681904Y-76206000D01*
X180015238Y-76158380D02*
X180253333Y-77158380D01*
X180443809Y-76444095D01*
X180634285Y-77158380D01*
X180872380Y-76158380D01*
X181729523Y-76158380D02*
X181253333Y-76158380D01*
X181205714Y-76634571D01*
X181253333Y-76586952D01*
X181348571Y-76539333D01*
X181586666Y-76539333D01*
X181681904Y-76586952D01*
X181729523Y-76634571D01*
X181777142Y-76729809D01*
X181777142Y-76967904D01*
X181729523Y-77063142D01*
X181681904Y-77110761D01*
X181586666Y-77158380D01*
X181348571Y-77158380D01*
X181253333Y-77110761D01*
X181205714Y-77063142D01*
X182110476Y-76158380D02*
X182729523Y-76158380D01*
X182396190Y-76539333D01*
X182539047Y-76539333D01*
X182634285Y-76586952D01*
X182681904Y-76634571D01*
X182729523Y-76729809D01*
X182729523Y-76967904D01*
X182681904Y-77063142D01*
X182634285Y-77110761D01*
X182539047Y-77158380D01*
X182253333Y-77158380D01*
X182158095Y-77110761D01*
X182110476Y-77063142D01*
X217510476Y-77110761D02*
X217653333Y-77158380D01*
X217891428Y-77158380D01*
X217986666Y-77110761D01*
X218034285Y-77063142D01*
X218081904Y-76967904D01*
X218081904Y-76872666D01*
X218034285Y-76777428D01*
X217986666Y-76729809D01*
X217891428Y-76682190D01*
X217700952Y-76634571D01*
X217605714Y-76586952D01*
X217558095Y-76539333D01*
X217510476Y-76444095D01*
X217510476Y-76348857D01*
X217558095Y-76253619D01*
X217605714Y-76206000D01*
X217700952Y-76158380D01*
X217939047Y-76158380D01*
X218081904Y-76206000D01*
X218415238Y-76158380D02*
X218653333Y-77158380D01*
X218843809Y-76444095D01*
X219034285Y-77158380D01*
X219272380Y-76158380D01*
X220129523Y-76158380D02*
X219653333Y-76158380D01*
X219605714Y-76634571D01*
X219653333Y-76586952D01*
X219748571Y-76539333D01*
X219986666Y-76539333D01*
X220081904Y-76586952D01*
X220129523Y-76634571D01*
X220177142Y-76729809D01*
X220177142Y-76967904D01*
X220129523Y-77063142D01*
X220081904Y-77110761D01*
X219986666Y-77158380D01*
X219748571Y-77158380D01*
X219653333Y-77110761D01*
X219605714Y-77063142D01*
X221034285Y-76491714D02*
X221034285Y-77158380D01*
X220796190Y-76110761D02*
X220558095Y-76825047D01*
X221177142Y-76825047D01*
X255860476Y-77120761D02*
X256003333Y-77168380D01*
X256241428Y-77168380D01*
X256336666Y-77120761D01*
X256384285Y-77073142D01*
X256431904Y-76977904D01*
X256431904Y-76882666D01*
X256384285Y-76787428D01*
X256336666Y-76739809D01*
X256241428Y-76692190D01*
X256050952Y-76644571D01*
X255955714Y-76596952D01*
X255908095Y-76549333D01*
X255860476Y-76454095D01*
X255860476Y-76358857D01*
X255908095Y-76263619D01*
X255955714Y-76216000D01*
X256050952Y-76168380D01*
X256289047Y-76168380D01*
X256431904Y-76216000D01*
X256765238Y-76168380D02*
X257003333Y-77168380D01*
X257193809Y-76454095D01*
X257384285Y-77168380D01*
X257622380Y-76168380D01*
X258479523Y-76168380D02*
X258003333Y-76168380D01*
X257955714Y-76644571D01*
X258003333Y-76596952D01*
X258098571Y-76549333D01*
X258336666Y-76549333D01*
X258431904Y-76596952D01*
X258479523Y-76644571D01*
X258527142Y-76739809D01*
X258527142Y-76977904D01*
X258479523Y-77073142D01*
X258431904Y-77120761D01*
X258336666Y-77168380D01*
X258098571Y-77168380D01*
X258003333Y-77120761D01*
X257955714Y-77073142D01*
X259431904Y-76168380D02*
X258955714Y-76168380D01*
X258908095Y-76644571D01*
X258955714Y-76596952D01*
X259050952Y-76549333D01*
X259289047Y-76549333D01*
X259384285Y-76596952D01*
X259431904Y-76644571D01*
X259479523Y-76739809D01*
X259479523Y-76977904D01*
X259431904Y-77073142D01*
X259384285Y-77120761D01*
X259289047Y-77168380D01*
X259050952Y-77168380D01*
X258955714Y-77120761D01*
X258908095Y-77073142D01*
X329600476Y-96910761D02*
X329743333Y-96958380D01*
X329981428Y-96958380D01*
X330076666Y-96910761D01*
X330124285Y-96863142D01*
X330171904Y-96767904D01*
X330171904Y-96672666D01*
X330124285Y-96577428D01*
X330076666Y-96529809D01*
X329981428Y-96482190D01*
X329790952Y-96434571D01*
X329695714Y-96386952D01*
X329648095Y-96339333D01*
X329600476Y-96244095D01*
X329600476Y-96148857D01*
X329648095Y-96053619D01*
X329695714Y-96006000D01*
X329790952Y-95958380D01*
X330029047Y-95958380D01*
X330171904Y-96006000D01*
X330505238Y-95958380D02*
X330743333Y-96958380D01*
X330933809Y-96244095D01*
X331124285Y-96958380D01*
X331362380Y-95958380D01*
X332219523Y-95958380D02*
X331743333Y-95958380D01*
X331695714Y-96434571D01*
X331743333Y-96386952D01*
X331838571Y-96339333D01*
X332076666Y-96339333D01*
X332171904Y-96386952D01*
X332219523Y-96434571D01*
X332267142Y-96529809D01*
X332267142Y-96767904D01*
X332219523Y-96863142D01*
X332171904Y-96910761D01*
X332076666Y-96958380D01*
X331838571Y-96958380D01*
X331743333Y-96910761D01*
X331695714Y-96863142D01*
X333124285Y-95958380D02*
X332933809Y-95958380D01*
X332838571Y-96006000D01*
X332790952Y-96053619D01*
X332695714Y-96196476D01*
X332648095Y-96386952D01*
X332648095Y-96767904D01*
X332695714Y-96863142D01*
X332743333Y-96910761D01*
X332838571Y-96958380D01*
X333029047Y-96958380D01*
X333124285Y-96910761D01*
X333171904Y-96863142D01*
X333219523Y-96767904D01*
X333219523Y-96529809D01*
X333171904Y-96434571D01*
X333124285Y-96386952D01*
X333029047Y-96339333D01*
X332838571Y-96339333D01*
X332743333Y-96386952D01*
X332695714Y-96434571D01*
X332648095Y-96529809D01*
X35150476Y-57910761D02*
X35293333Y-57958380D01*
X35531428Y-57958380D01*
X35626666Y-57910761D01*
X35674285Y-57863142D01*
X35721904Y-57767904D01*
X35721904Y-57672666D01*
X35674285Y-57577428D01*
X35626666Y-57529809D01*
X35531428Y-57482190D01*
X35340952Y-57434571D01*
X35245714Y-57386952D01*
X35198095Y-57339333D01*
X35150476Y-57244095D01*
X35150476Y-57148857D01*
X35198095Y-57053619D01*
X35245714Y-57006000D01*
X35340952Y-56958380D01*
X35579047Y-56958380D01*
X35721904Y-57006000D01*
X36055238Y-56958380D02*
X36293333Y-57958380D01*
X36483809Y-57244095D01*
X36674285Y-57958380D01*
X36912380Y-56958380D01*
X37769523Y-56958380D02*
X37293333Y-56958380D01*
X37245714Y-57434571D01*
X37293333Y-57386952D01*
X37388571Y-57339333D01*
X37626666Y-57339333D01*
X37721904Y-57386952D01*
X37769523Y-57434571D01*
X37817142Y-57529809D01*
X37817142Y-57767904D01*
X37769523Y-57863142D01*
X37721904Y-57910761D01*
X37626666Y-57958380D01*
X37388571Y-57958380D01*
X37293333Y-57910761D01*
X37245714Y-57863142D01*
X38150476Y-56958380D02*
X38817142Y-56958380D01*
X38388571Y-57958380D01*
X73520476Y-57910761D02*
X73663333Y-57958380D01*
X73901428Y-57958380D01*
X73996666Y-57910761D01*
X74044285Y-57863142D01*
X74091904Y-57767904D01*
X74091904Y-57672666D01*
X74044285Y-57577428D01*
X73996666Y-57529809D01*
X73901428Y-57482190D01*
X73710952Y-57434571D01*
X73615714Y-57386952D01*
X73568095Y-57339333D01*
X73520476Y-57244095D01*
X73520476Y-57148857D01*
X73568095Y-57053619D01*
X73615714Y-57006000D01*
X73710952Y-56958380D01*
X73949047Y-56958380D01*
X74091904Y-57006000D01*
X74425238Y-56958380D02*
X74663333Y-57958380D01*
X74853809Y-57244095D01*
X75044285Y-57958380D01*
X75282380Y-56958380D01*
X76139523Y-56958380D02*
X75663333Y-56958380D01*
X75615714Y-57434571D01*
X75663333Y-57386952D01*
X75758571Y-57339333D01*
X75996666Y-57339333D01*
X76091904Y-57386952D01*
X76139523Y-57434571D01*
X76187142Y-57529809D01*
X76187142Y-57767904D01*
X76139523Y-57863142D01*
X76091904Y-57910761D01*
X75996666Y-57958380D01*
X75758571Y-57958380D01*
X75663333Y-57910761D01*
X75615714Y-57863142D01*
X76758571Y-57386952D02*
X76663333Y-57339333D01*
X76615714Y-57291714D01*
X76568095Y-57196476D01*
X76568095Y-57148857D01*
X76615714Y-57053619D01*
X76663333Y-57006000D01*
X76758571Y-56958380D01*
X76949047Y-56958380D01*
X77044285Y-57006000D01*
X77091904Y-57053619D01*
X77139523Y-57148857D01*
X77139523Y-57196476D01*
X77091904Y-57291714D01*
X77044285Y-57339333D01*
X76949047Y-57386952D01*
X76758571Y-57386952D01*
X76663333Y-57434571D01*
X76615714Y-57482190D01*
X76568095Y-57577428D01*
X76568095Y-57767904D01*
X76615714Y-57863142D01*
X76663333Y-57910761D01*
X76758571Y-57958380D01*
X76949047Y-57958380D01*
X77044285Y-57910761D01*
X77091904Y-57863142D01*
X77139523Y-57767904D01*
X77139523Y-57577428D01*
X77091904Y-57482190D01*
X77044285Y-57434571D01*
X76949047Y-57386952D01*
X111900476Y-57910761D02*
X112043333Y-57958380D01*
X112281428Y-57958380D01*
X112376666Y-57910761D01*
X112424285Y-57863142D01*
X112471904Y-57767904D01*
X112471904Y-57672666D01*
X112424285Y-57577428D01*
X112376666Y-57529809D01*
X112281428Y-57482190D01*
X112090952Y-57434571D01*
X111995714Y-57386952D01*
X111948095Y-57339333D01*
X111900476Y-57244095D01*
X111900476Y-57148857D01*
X111948095Y-57053619D01*
X111995714Y-57006000D01*
X112090952Y-56958380D01*
X112329047Y-56958380D01*
X112471904Y-57006000D01*
X112805238Y-56958380D02*
X113043333Y-57958380D01*
X113233809Y-57244095D01*
X113424285Y-57958380D01*
X113662380Y-56958380D01*
X114519523Y-56958380D02*
X114043333Y-56958380D01*
X113995714Y-57434571D01*
X114043333Y-57386952D01*
X114138571Y-57339333D01*
X114376666Y-57339333D01*
X114471904Y-57386952D01*
X114519523Y-57434571D01*
X114567142Y-57529809D01*
X114567142Y-57767904D01*
X114519523Y-57863142D01*
X114471904Y-57910761D01*
X114376666Y-57958380D01*
X114138571Y-57958380D01*
X114043333Y-57910761D01*
X113995714Y-57863142D01*
X115043333Y-57958380D02*
X115233809Y-57958380D01*
X115329047Y-57910761D01*
X115376666Y-57863142D01*
X115471904Y-57720285D01*
X115519523Y-57529809D01*
X115519523Y-57148857D01*
X115471904Y-57053619D01*
X115424285Y-57006000D01*
X115329047Y-56958380D01*
X115138571Y-56958380D01*
X115043333Y-57006000D01*
X114995714Y-57053619D01*
X114948095Y-57148857D01*
X114948095Y-57386952D01*
X114995714Y-57482190D01*
X115043333Y-57529809D01*
X115138571Y-57577428D01*
X115329047Y-57577428D01*
X115424285Y-57529809D01*
X115471904Y-57482190D01*
X115519523Y-57386952D01*
X150270476Y-57910761D02*
X150413333Y-57958380D01*
X150651428Y-57958380D01*
X150746666Y-57910761D01*
X150794285Y-57863142D01*
X150841904Y-57767904D01*
X150841904Y-57672666D01*
X150794285Y-57577428D01*
X150746666Y-57529809D01*
X150651428Y-57482190D01*
X150460952Y-57434571D01*
X150365714Y-57386952D01*
X150318095Y-57339333D01*
X150270476Y-57244095D01*
X150270476Y-57148857D01*
X150318095Y-57053619D01*
X150365714Y-57006000D01*
X150460952Y-56958380D01*
X150699047Y-56958380D01*
X150841904Y-57006000D01*
X151175238Y-56958380D02*
X151413333Y-57958380D01*
X151603809Y-57244095D01*
X151794285Y-57958380D01*
X152032380Y-56958380D01*
X152841904Y-56958380D02*
X152651428Y-56958380D01*
X152556190Y-57006000D01*
X152508571Y-57053619D01*
X152413333Y-57196476D01*
X152365714Y-57386952D01*
X152365714Y-57767904D01*
X152413333Y-57863142D01*
X152460952Y-57910761D01*
X152556190Y-57958380D01*
X152746666Y-57958380D01*
X152841904Y-57910761D01*
X152889523Y-57863142D01*
X152937142Y-57767904D01*
X152937142Y-57529809D01*
X152889523Y-57434571D01*
X152841904Y-57386952D01*
X152746666Y-57339333D01*
X152556190Y-57339333D01*
X152460952Y-57386952D01*
X152413333Y-57434571D01*
X152365714Y-57529809D01*
X153556190Y-56958380D02*
X153651428Y-56958380D01*
X153746666Y-57006000D01*
X153794285Y-57053619D01*
X153841904Y-57148857D01*
X153889523Y-57339333D01*
X153889523Y-57577428D01*
X153841904Y-57767904D01*
X153794285Y-57863142D01*
X153746666Y-57910761D01*
X153651428Y-57958380D01*
X153556190Y-57958380D01*
X153460952Y-57910761D01*
X153413333Y-57863142D01*
X153365714Y-57767904D01*
X153318095Y-57577428D01*
X153318095Y-57339333D01*
X153365714Y-57148857D01*
X153413333Y-57053619D01*
X153460952Y-57006000D01*
X153556190Y-56958380D01*
X188640476Y-57910761D02*
X188783333Y-57958380D01*
X189021428Y-57958380D01*
X189116666Y-57910761D01*
X189164285Y-57863142D01*
X189211904Y-57767904D01*
X189211904Y-57672666D01*
X189164285Y-57577428D01*
X189116666Y-57529809D01*
X189021428Y-57482190D01*
X188830952Y-57434571D01*
X188735714Y-57386952D01*
X188688095Y-57339333D01*
X188640476Y-57244095D01*
X188640476Y-57148857D01*
X188688095Y-57053619D01*
X188735714Y-57006000D01*
X188830952Y-56958380D01*
X189069047Y-56958380D01*
X189211904Y-57006000D01*
X189545238Y-56958380D02*
X189783333Y-57958380D01*
X189973809Y-57244095D01*
X190164285Y-57958380D01*
X190402380Y-56958380D01*
X191211904Y-56958380D02*
X191021428Y-56958380D01*
X190926190Y-57006000D01*
X190878571Y-57053619D01*
X190783333Y-57196476D01*
X190735714Y-57386952D01*
X190735714Y-57767904D01*
X190783333Y-57863142D01*
X190830952Y-57910761D01*
X190926190Y-57958380D01*
X191116666Y-57958380D01*
X191211904Y-57910761D01*
X191259523Y-57863142D01*
X191307142Y-57767904D01*
X191307142Y-57529809D01*
X191259523Y-57434571D01*
X191211904Y-57386952D01*
X191116666Y-57339333D01*
X190926190Y-57339333D01*
X190830952Y-57386952D01*
X190783333Y-57434571D01*
X190735714Y-57529809D01*
X192259523Y-57958380D02*
X191688095Y-57958380D01*
X191973809Y-57958380D02*
X191973809Y-56958380D01*
X191878571Y-57101238D01*
X191783333Y-57196476D01*
X191688095Y-57244095D01*
X227030476Y-57910761D02*
X227173333Y-57958380D01*
X227411428Y-57958380D01*
X227506666Y-57910761D01*
X227554285Y-57863142D01*
X227601904Y-57767904D01*
X227601904Y-57672666D01*
X227554285Y-57577428D01*
X227506666Y-57529809D01*
X227411428Y-57482190D01*
X227220952Y-57434571D01*
X227125714Y-57386952D01*
X227078095Y-57339333D01*
X227030476Y-57244095D01*
X227030476Y-57148857D01*
X227078095Y-57053619D01*
X227125714Y-57006000D01*
X227220952Y-56958380D01*
X227459047Y-56958380D01*
X227601904Y-57006000D01*
X227935238Y-56958380D02*
X228173333Y-57958380D01*
X228363809Y-57244095D01*
X228554285Y-57958380D01*
X228792380Y-56958380D01*
X229601904Y-56958380D02*
X229411428Y-56958380D01*
X229316190Y-57006000D01*
X229268571Y-57053619D01*
X229173333Y-57196476D01*
X229125714Y-57386952D01*
X229125714Y-57767904D01*
X229173333Y-57863142D01*
X229220952Y-57910761D01*
X229316190Y-57958380D01*
X229506666Y-57958380D01*
X229601904Y-57910761D01*
X229649523Y-57863142D01*
X229697142Y-57767904D01*
X229697142Y-57529809D01*
X229649523Y-57434571D01*
X229601904Y-57386952D01*
X229506666Y-57339333D01*
X229316190Y-57339333D01*
X229220952Y-57386952D01*
X229173333Y-57434571D01*
X229125714Y-57529809D01*
X230078095Y-57053619D02*
X230125714Y-57006000D01*
X230220952Y-56958380D01*
X230459047Y-56958380D01*
X230554285Y-57006000D01*
X230601904Y-57053619D01*
X230649523Y-57148857D01*
X230649523Y-57244095D01*
X230601904Y-57386952D01*
X230030476Y-57958380D01*
X230649523Y-57958380D01*
X265410476Y-57910761D02*
X265553333Y-57958380D01*
X265791428Y-57958380D01*
X265886666Y-57910761D01*
X265934285Y-57863142D01*
X265981904Y-57767904D01*
X265981904Y-57672666D01*
X265934285Y-57577428D01*
X265886666Y-57529809D01*
X265791428Y-57482190D01*
X265600952Y-57434571D01*
X265505714Y-57386952D01*
X265458095Y-57339333D01*
X265410476Y-57244095D01*
X265410476Y-57148857D01*
X265458095Y-57053619D01*
X265505714Y-57006000D01*
X265600952Y-56958380D01*
X265839047Y-56958380D01*
X265981904Y-57006000D01*
X266315238Y-56958380D02*
X266553333Y-57958380D01*
X266743809Y-57244095D01*
X266934285Y-57958380D01*
X267172380Y-56958380D01*
X267981904Y-56958380D02*
X267791428Y-56958380D01*
X267696190Y-57006000D01*
X267648571Y-57053619D01*
X267553333Y-57196476D01*
X267505714Y-57386952D01*
X267505714Y-57767904D01*
X267553333Y-57863142D01*
X267600952Y-57910761D01*
X267696190Y-57958380D01*
X267886666Y-57958380D01*
X267981904Y-57910761D01*
X268029523Y-57863142D01*
X268077142Y-57767904D01*
X268077142Y-57529809D01*
X268029523Y-57434571D01*
X267981904Y-57386952D01*
X267886666Y-57339333D01*
X267696190Y-57339333D01*
X267600952Y-57386952D01*
X267553333Y-57434571D01*
X267505714Y-57529809D01*
X268410476Y-56958380D02*
X269029523Y-56958380D01*
X268696190Y-57339333D01*
X268839047Y-57339333D01*
X268934285Y-57386952D01*
X268981904Y-57434571D01*
X269029523Y-57529809D01*
X269029523Y-57767904D01*
X268981904Y-57863142D01*
X268934285Y-57910761D01*
X268839047Y-57958380D01*
X268553333Y-57958380D01*
X268458095Y-57910761D01*
X268410476Y-57863142D01*
X12220476Y-96270761D02*
X12363333Y-96318380D01*
X12601428Y-96318380D01*
X12696666Y-96270761D01*
X12744285Y-96223142D01*
X12791904Y-96127904D01*
X12791904Y-96032666D01*
X12744285Y-95937428D01*
X12696666Y-95889809D01*
X12601428Y-95842190D01*
X12410952Y-95794571D01*
X12315714Y-95746952D01*
X12268095Y-95699333D01*
X12220476Y-95604095D01*
X12220476Y-95508857D01*
X12268095Y-95413619D01*
X12315714Y-95366000D01*
X12410952Y-95318380D01*
X12649047Y-95318380D01*
X12791904Y-95366000D01*
X13125238Y-95318380D02*
X13363333Y-96318380D01*
X13553809Y-95604095D01*
X13744285Y-96318380D01*
X13982380Y-95318380D01*
X14791904Y-95318380D02*
X14601428Y-95318380D01*
X14506190Y-95366000D01*
X14458571Y-95413619D01*
X14363333Y-95556476D01*
X14315714Y-95746952D01*
X14315714Y-96127904D01*
X14363333Y-96223142D01*
X14410952Y-96270761D01*
X14506190Y-96318380D01*
X14696666Y-96318380D01*
X14791904Y-96270761D01*
X14839523Y-96223142D01*
X14887142Y-96127904D01*
X14887142Y-95889809D01*
X14839523Y-95794571D01*
X14791904Y-95746952D01*
X14696666Y-95699333D01*
X14506190Y-95699333D01*
X14410952Y-95746952D01*
X14363333Y-95794571D01*
X14315714Y-95889809D01*
X15791904Y-95318380D02*
X15315714Y-95318380D01*
X15268095Y-95794571D01*
X15315714Y-95746952D01*
X15410952Y-95699333D01*
X15649047Y-95699333D01*
X15744285Y-95746952D01*
X15791904Y-95794571D01*
X15839523Y-95889809D01*
X15839523Y-96127904D01*
X15791904Y-96223142D01*
X15744285Y-96270761D01*
X15649047Y-96318380D01*
X15410952Y-96318380D01*
X15315714Y-96270761D01*
X15268095Y-96223142D01*
X279830476Y-77110761D02*
X279973333Y-77158380D01*
X280211428Y-77158380D01*
X280306666Y-77110761D01*
X280354285Y-77063142D01*
X280401904Y-76967904D01*
X280401904Y-76872666D01*
X280354285Y-76777428D01*
X280306666Y-76729809D01*
X280211428Y-76682190D01*
X280020952Y-76634571D01*
X279925714Y-76586952D01*
X279878095Y-76539333D01*
X279830476Y-76444095D01*
X279830476Y-76348857D01*
X279878095Y-76253619D01*
X279925714Y-76206000D01*
X280020952Y-76158380D01*
X280259047Y-76158380D01*
X280401904Y-76206000D01*
X280735238Y-76158380D02*
X280973333Y-77158380D01*
X281163809Y-76444095D01*
X281354285Y-77158380D01*
X281592380Y-76158380D01*
X282401904Y-76158380D02*
X282211428Y-76158380D01*
X282116190Y-76206000D01*
X282068571Y-76253619D01*
X281973333Y-76396476D01*
X281925714Y-76586952D01*
X281925714Y-76967904D01*
X281973333Y-77063142D01*
X282020952Y-77110761D01*
X282116190Y-77158380D01*
X282306666Y-77158380D01*
X282401904Y-77110761D01*
X282449523Y-77063142D01*
X282497142Y-76967904D01*
X282497142Y-76729809D01*
X282449523Y-76634571D01*
X282401904Y-76586952D01*
X282306666Y-76539333D01*
X282116190Y-76539333D01*
X282020952Y-76586952D01*
X281973333Y-76634571D01*
X281925714Y-76729809D01*
X283354285Y-76158380D02*
X283163809Y-76158380D01*
X283068571Y-76206000D01*
X283020952Y-76253619D01*
X282925714Y-76396476D01*
X282878095Y-76586952D01*
X282878095Y-76967904D01*
X282925714Y-77063142D01*
X282973333Y-77110761D01*
X283068571Y-77158380D01*
X283259047Y-77158380D01*
X283354285Y-77110761D01*
X283401904Y-77063142D01*
X283449523Y-76967904D01*
X283449523Y-76729809D01*
X283401904Y-76634571D01*
X283354285Y-76586952D01*
X283259047Y-76539333D01*
X283068571Y-76539333D01*
X282973333Y-76586952D01*
X282925714Y-76634571D01*
X282878095Y-76729809D01*
X83546666Y-71242380D02*
X83213333Y-70766190D01*
X82975238Y-71242380D02*
X82975238Y-70242380D01*
X83356190Y-70242380D01*
X83451428Y-70290000D01*
X83499047Y-70337619D01*
X83546666Y-70432857D01*
X83546666Y-70575714D01*
X83499047Y-70670952D01*
X83451428Y-70718571D01*
X83356190Y-70766190D01*
X82975238Y-70766190D01*
X83975238Y-70718571D02*
X84308571Y-70718571D01*
X84451428Y-71242380D02*
X83975238Y-71242380D01*
X83975238Y-70242380D01*
X84451428Y-70242380D01*
X85213333Y-70718571D02*
X84880000Y-70718571D01*
X84880000Y-71242380D02*
X84880000Y-70242380D01*
X85356190Y-70242380D01*
X85880000Y-70242380D02*
X85880000Y-70480476D01*
X85641904Y-70385238D02*
X85880000Y-70480476D01*
X86118095Y-70385238D01*
X85737142Y-70670952D02*
X85880000Y-70480476D01*
X86022857Y-70670952D01*
X86641904Y-70242380D02*
X86641904Y-70480476D01*
X86403809Y-70385238D02*
X86641904Y-70480476D01*
X86880000Y-70385238D01*
X86499047Y-70670952D02*
X86641904Y-70480476D01*
X86784761Y-70670952D01*
X189326666Y-90772380D02*
X188993333Y-90296190D01*
X188755238Y-90772380D02*
X188755238Y-89772380D01*
X189136190Y-89772380D01*
X189231428Y-89820000D01*
X189279047Y-89867619D01*
X189326666Y-89962857D01*
X189326666Y-90105714D01*
X189279047Y-90200952D01*
X189231428Y-90248571D01*
X189136190Y-90296190D01*
X188755238Y-90296190D01*
X189755238Y-90248571D02*
X190088571Y-90248571D01*
X190231428Y-90772380D02*
X189755238Y-90772380D01*
X189755238Y-89772380D01*
X190231428Y-89772380D01*
X190993333Y-90248571D02*
X190660000Y-90248571D01*
X190660000Y-90772380D02*
X190660000Y-89772380D01*
X191136190Y-89772380D01*
X191660000Y-89772380D02*
X191660000Y-90010476D01*
X191421904Y-89915238D02*
X191660000Y-90010476D01*
X191898095Y-89915238D01*
X191517142Y-90200952D02*
X191660000Y-90010476D01*
X191802857Y-90200952D01*
X192421904Y-89772380D02*
X192421904Y-90010476D01*
X192183809Y-89915238D02*
X192421904Y-90010476D01*
X192660000Y-89915238D01*
X192279047Y-90200952D02*
X192421904Y-90010476D01*
X192564761Y-90200952D01*
X112346666Y-90772380D02*
X112013333Y-90296190D01*
X111775238Y-90772380D02*
X111775238Y-89772380D01*
X112156190Y-89772380D01*
X112251428Y-89820000D01*
X112299047Y-89867619D01*
X112346666Y-89962857D01*
X112346666Y-90105714D01*
X112299047Y-90200952D01*
X112251428Y-90248571D01*
X112156190Y-90296190D01*
X111775238Y-90296190D01*
X112775238Y-90248571D02*
X113108571Y-90248571D01*
X113251428Y-90772380D02*
X112775238Y-90772380D01*
X112775238Y-89772380D01*
X113251428Y-89772380D01*
X114013333Y-90248571D02*
X113680000Y-90248571D01*
X113680000Y-90772380D02*
X113680000Y-89772380D01*
X114156190Y-89772380D01*
X114680000Y-89772380D02*
X114680000Y-90010476D01*
X114441904Y-89915238D02*
X114680000Y-90010476D01*
X114918095Y-89915238D01*
X114537142Y-90200952D02*
X114680000Y-90010476D01*
X114822857Y-90200952D01*
X115441904Y-89772380D02*
X115441904Y-90010476D01*
X115203809Y-89915238D02*
X115441904Y-90010476D01*
X115680000Y-89915238D01*
X115299047Y-90200952D02*
X115441904Y-90010476D01*
X115584761Y-90200952D01*
X6025714Y-110562380D02*
X6025714Y-109562380D01*
X6263809Y-109562380D01*
X6406666Y-109610000D01*
X6501904Y-109705238D01*
X6549523Y-109800476D01*
X6597142Y-109990952D01*
X6597142Y-110133809D01*
X6549523Y-110324285D01*
X6501904Y-110419523D01*
X6406666Y-110514761D01*
X6263809Y-110562380D01*
X6025714Y-110562380D01*
X7454285Y-109562380D02*
X7263809Y-109562380D01*
X7168571Y-109610000D01*
X7120952Y-109657619D01*
X7025714Y-109800476D01*
X6978095Y-109990952D01*
X6978095Y-110371904D01*
X7025714Y-110467142D01*
X7073333Y-110514761D01*
X7168571Y-110562380D01*
X7359047Y-110562380D01*
X7454285Y-110514761D01*
X7501904Y-110467142D01*
X7549523Y-110371904D01*
X7549523Y-110133809D01*
X7501904Y-110038571D01*
X7454285Y-109990952D01*
X7359047Y-109943333D01*
X7168571Y-109943333D01*
X7073333Y-109990952D01*
X7025714Y-110038571D01*
X6978095Y-110133809D01*
X8454285Y-109562380D02*
X7978095Y-109562380D01*
X7930476Y-110038571D01*
X7978095Y-109990952D01*
X8073333Y-109943333D01*
X8311428Y-109943333D01*
X8406666Y-109990952D01*
X8454285Y-110038571D01*
X8501904Y-110133809D01*
X8501904Y-110371904D01*
X8454285Y-110467142D01*
X8406666Y-110514761D01*
X8311428Y-110562380D01*
X8073333Y-110562380D01*
X7978095Y-110514761D01*
X7930476Y-110467142D01*
X23617619Y-136105238D02*
X23570000Y-136200476D01*
X23474761Y-136295714D01*
X23331904Y-136438571D01*
X23284285Y-136533809D01*
X23284285Y-136629047D01*
X23522380Y-136581428D02*
X23474761Y-136676666D01*
X23379523Y-136771904D01*
X23189047Y-136819523D01*
X22855714Y-136819523D01*
X22665238Y-136771904D01*
X22570000Y-136676666D01*
X22522380Y-136581428D01*
X22522380Y-136390952D01*
X22570000Y-136295714D01*
X22665238Y-136200476D01*
X22855714Y-136152857D01*
X23189047Y-136152857D01*
X23379523Y-136200476D01*
X23474761Y-136295714D01*
X23522380Y-136390952D01*
X23522380Y-136581428D01*
X23522380Y-135200476D02*
X23522380Y-135771904D01*
X23522380Y-135486190D02*
X22522380Y-135486190D01*
X22665238Y-135581428D01*
X22760476Y-135676666D01*
X22808095Y-135771904D01*
X18732380Y-136316666D02*
X18256190Y-136650000D01*
X18732380Y-136888095D02*
X17732380Y-136888095D01*
X17732380Y-136507142D01*
X17780000Y-136411904D01*
X17827619Y-136364285D01*
X17922857Y-136316666D01*
X18065714Y-136316666D01*
X18160952Y-136364285D01*
X18208571Y-136411904D01*
X18256190Y-136507142D01*
X18256190Y-136888095D01*
X18732380Y-135364285D02*
X18732380Y-135935714D01*
X18732380Y-135650000D02*
X17732380Y-135650000D01*
X17875238Y-135745238D01*
X17970476Y-135840476D01*
X18018095Y-135935714D01*
X22183333Y-141962380D02*
X21850000Y-141486190D01*
X21611904Y-141962380D02*
X21611904Y-140962380D01*
X21992857Y-140962380D01*
X22088095Y-141010000D01*
X22135714Y-141057619D01*
X22183333Y-141152857D01*
X22183333Y-141295714D01*
X22135714Y-141390952D01*
X22088095Y-141438571D01*
X21992857Y-141486190D01*
X21611904Y-141486190D01*
X22564285Y-141057619D02*
X22611904Y-141010000D01*
X22707142Y-140962380D01*
X22945238Y-140962380D01*
X23040476Y-141010000D01*
X23088095Y-141057619D01*
X23135714Y-141152857D01*
X23135714Y-141248095D01*
X23088095Y-141390952D01*
X22516666Y-141962380D01*
X23135714Y-141962380D01*
X24022380Y-136316666D02*
X23546190Y-136650000D01*
X24022380Y-136888095D02*
X23022380Y-136888095D01*
X23022380Y-136507142D01*
X23070000Y-136411904D01*
X23117619Y-136364285D01*
X23212857Y-136316666D01*
X23355714Y-136316666D01*
X23450952Y-136364285D01*
X23498571Y-136411904D01*
X23546190Y-136507142D01*
X23546190Y-136888095D01*
X23022380Y-135983333D02*
X23022380Y-135364285D01*
X23403333Y-135697619D01*
X23403333Y-135554761D01*
X23450952Y-135459523D01*
X23498571Y-135411904D01*
X23593809Y-135364285D01*
X23831904Y-135364285D01*
X23927142Y-135411904D01*
X23974761Y-135459523D01*
X24022380Y-135554761D01*
X24022380Y-135840476D01*
X23974761Y-135935714D01*
X23927142Y-135983333D01*
X19382380Y-140316666D02*
X18906190Y-140650000D01*
X19382380Y-140888095D02*
X18382380Y-140888095D01*
X18382380Y-140507142D01*
X18430000Y-140411904D01*
X18477619Y-140364285D01*
X18572857Y-140316666D01*
X18715714Y-140316666D01*
X18810952Y-140364285D01*
X18858571Y-140411904D01*
X18906190Y-140507142D01*
X18906190Y-140888095D01*
X18715714Y-139459523D02*
X19382380Y-139459523D01*
X18334761Y-139697619D02*
X19049047Y-139935714D01*
X19049047Y-139316666D01*
X16392380Y-136356666D02*
X15916190Y-136690000D01*
X16392380Y-136928095D02*
X15392380Y-136928095D01*
X15392380Y-136547142D01*
X15440000Y-136451904D01*
X15487619Y-136404285D01*
X15582857Y-136356666D01*
X15725714Y-136356666D01*
X15820952Y-136404285D01*
X15868571Y-136451904D01*
X15916190Y-136547142D01*
X15916190Y-136928095D01*
X15392380Y-135451904D02*
X15392380Y-135928095D01*
X15868571Y-135975714D01*
X15820952Y-135928095D01*
X15773333Y-135832857D01*
X15773333Y-135594761D01*
X15820952Y-135499523D01*
X15868571Y-135451904D01*
X15963809Y-135404285D01*
X16201904Y-135404285D01*
X16297142Y-135451904D01*
X16344761Y-135499523D01*
X16392380Y-135594761D01*
X16392380Y-135832857D01*
X16344761Y-135928095D01*
X16297142Y-135975714D01*
X8208095Y-142912380D02*
X8208095Y-143721904D01*
X8255714Y-143817142D01*
X8303333Y-143864761D01*
X8398571Y-143912380D01*
X8589047Y-143912380D01*
X8684285Y-143864761D01*
X8731904Y-143817142D01*
X8779523Y-143721904D01*
X8779523Y-142912380D01*
X9779523Y-143912380D02*
X9208095Y-143912380D01*
X9493809Y-143912380D02*
X9493809Y-142912380D01*
X9398571Y-143055238D01*
X9303333Y-143150476D01*
X9208095Y-143198095D01*
M02*
