G04 #@! TF.GenerationSoftware,KiCad,Pcbnew,(5.1.5)-2*
G04 #@! TF.CreationDate,2021-01-09T12:48:30+01:00*
G04 #@! TF.ProjectId,VIC20_kbd,56494332-305f-46b6-9264-2e6b69636164,2.0*
G04 #@! TF.SameCoordinates,Original*
G04 #@! TF.FileFunction,Other,User*
%FSLAX46Y46*%
G04 Gerber Fmt 4.6, Leading zero omitted, Abs format (unit mm)*
G04 Created by KiCad (PCBNEW (5.1.5)-2) date 2021-01-09 12:48:30*
%MOMM*%
%LPD*%
G04 APERTURE LIST*
%ADD10C,0.050000*%
G04 APERTURE END LIST*
D10*
X66370000Y-128450000D02*
X66370000Y-127110000D01*
X69170000Y-128450000D02*
X66370000Y-128450000D01*
X69170000Y-127110000D02*
X69170000Y-128450000D01*
X66370000Y-127110000D02*
X69170000Y-127110000D01*
X104820000Y-128380000D02*
X104820000Y-127040000D01*
X107620000Y-128380000D02*
X104820000Y-128380000D01*
X107620000Y-127040000D02*
X107620000Y-128380000D01*
X104820000Y-127040000D02*
X107620000Y-127040000D01*
X143260000Y-128380000D02*
X143260000Y-127040000D01*
X146060000Y-128380000D02*
X143260000Y-128380000D01*
X146060000Y-127040000D02*
X146060000Y-128380000D01*
X143260000Y-127040000D02*
X146060000Y-127040000D01*
X181630000Y-128380000D02*
X181630000Y-127040000D01*
X184430000Y-128380000D02*
X181630000Y-128380000D01*
X184430000Y-127040000D02*
X184430000Y-128380000D01*
X181630000Y-127040000D02*
X184430000Y-127040000D01*
X219960000Y-128380000D02*
X219960000Y-127040000D01*
X222760000Y-128380000D02*
X219960000Y-128380000D01*
X222760000Y-127040000D02*
X222760000Y-128380000D01*
X219960000Y-127040000D02*
X222760000Y-127040000D01*
X258280000Y-128380000D02*
X258280000Y-127040000D01*
X261080000Y-128380000D02*
X258280000Y-128380000D01*
X261080000Y-127040000D02*
X261080000Y-128380000D01*
X258280000Y-127040000D02*
X261080000Y-127040000D01*
X296610000Y-128380000D02*
X296610000Y-127040000D01*
X299410000Y-128380000D02*
X296610000Y-128380000D01*
X299410000Y-127040000D02*
X299410000Y-128380000D01*
X296610000Y-127040000D02*
X299410000Y-127040000D01*
X334980000Y-128380000D02*
X334980000Y-127040000D01*
X337780000Y-128380000D02*
X334980000Y-128380000D01*
X337780000Y-127040000D02*
X337780000Y-128380000D01*
X334980000Y-127040000D02*
X337780000Y-127040000D01*
X47250000Y-128380000D02*
X47250000Y-127040000D01*
X50050000Y-128380000D02*
X47250000Y-128380000D01*
X50050000Y-127040000D02*
X50050000Y-128380000D01*
X47250000Y-127040000D02*
X50050000Y-127040000D01*
X95250000Y-147580000D02*
X95250000Y-146240000D01*
X98050000Y-147580000D02*
X95250000Y-147580000D01*
X98050000Y-146240000D02*
X98050000Y-147580000D01*
X95250000Y-146240000D02*
X98050000Y-146240000D01*
X133700000Y-147540000D02*
X133700000Y-146200000D01*
X136500000Y-147540000D02*
X133700000Y-147540000D01*
X136500000Y-146200000D02*
X136500000Y-147540000D01*
X133700000Y-146200000D02*
X136500000Y-146200000D01*
X171990000Y-147580000D02*
X171990000Y-146240000D01*
X174790000Y-147580000D02*
X171990000Y-147580000D01*
X174790000Y-146240000D02*
X174790000Y-147580000D01*
X171990000Y-146240000D02*
X174790000Y-146240000D01*
X210320000Y-147580000D02*
X210320000Y-146240000D01*
X213120000Y-147580000D02*
X210320000Y-147580000D01*
X213120000Y-146240000D02*
X213120000Y-147580000D01*
X210320000Y-146240000D02*
X213120000Y-146240000D01*
X248760000Y-147580000D02*
X248760000Y-146240000D01*
X251560000Y-147580000D02*
X248760000Y-147580000D01*
X251560000Y-146240000D02*
X251560000Y-147580000D01*
X248760000Y-146240000D02*
X251560000Y-146240000D01*
X287240000Y-147620000D02*
X287240000Y-146280000D01*
X290040000Y-147620000D02*
X287240000Y-147620000D01*
X290040000Y-146280000D02*
X290040000Y-147620000D01*
X287240000Y-146280000D02*
X290040000Y-146280000D01*
X321680000Y-166710000D02*
X321680000Y-165370000D01*
X324480000Y-166710000D02*
X321680000Y-166710000D01*
X324480000Y-165370000D02*
X324480000Y-166710000D01*
X321680000Y-165370000D02*
X324480000Y-165370000D01*
X52130000Y-147580000D02*
X52130000Y-146240000D01*
X54930000Y-147580000D02*
X52130000Y-147580000D01*
X54930000Y-146240000D02*
X54930000Y-147580000D01*
X52130000Y-146240000D02*
X54930000Y-146240000D01*
X81880000Y-166780000D02*
X81880000Y-165440000D01*
X84680000Y-166780000D02*
X81880000Y-166780000D01*
X84680000Y-165440000D02*
X84680000Y-166780000D01*
X81880000Y-165440000D02*
X84680000Y-165440000D01*
X120250000Y-166740000D02*
X120250000Y-165400000D01*
X123050000Y-166740000D02*
X120250000Y-166740000D01*
X123050000Y-165400000D02*
X123050000Y-166740000D01*
X120250000Y-165400000D02*
X123050000Y-165400000D01*
X158580000Y-166740000D02*
X158580000Y-165400000D01*
X161380000Y-166740000D02*
X158580000Y-166740000D01*
X161380000Y-165400000D02*
X161380000Y-166740000D01*
X158580000Y-165400000D02*
X161380000Y-165400000D01*
X197060000Y-166740000D02*
X197060000Y-165400000D01*
X199860000Y-166740000D02*
X197060000Y-166740000D01*
X199860000Y-165400000D02*
X199860000Y-166740000D01*
X197060000Y-165400000D02*
X199860000Y-165400000D01*
X235420000Y-166710000D02*
X235420000Y-165370000D01*
X238220000Y-166710000D02*
X235420000Y-166710000D01*
X238220000Y-165370000D02*
X238220000Y-166710000D01*
X235420000Y-165370000D02*
X238220000Y-165370000D01*
X273750000Y-166740000D02*
X273750000Y-165400000D01*
X276550000Y-166740000D02*
X273750000Y-166740000D01*
X276550000Y-165400000D02*
X276550000Y-166740000D01*
X273750000Y-165400000D02*
X276550000Y-165400000D01*
X331320000Y-185970000D02*
X331320000Y-184630000D01*
X334120000Y-185970000D02*
X331320000Y-185970000D01*
X334120000Y-184630000D02*
X334120000Y-185970000D01*
X331320000Y-184630000D02*
X334120000Y-184630000D01*
X43510000Y-166780000D02*
X43510000Y-165440000D01*
X46310000Y-166780000D02*
X43510000Y-166780000D01*
X46310000Y-165440000D02*
X46310000Y-166780000D01*
X43510000Y-165440000D02*
X46310000Y-165440000D01*
X67430000Y-185970000D02*
X67430000Y-184630000D01*
X70230000Y-185970000D02*
X67430000Y-185970000D01*
X70230000Y-184630000D02*
X70230000Y-185970000D01*
X67430000Y-184630000D02*
X70230000Y-184630000D01*
X110540000Y-185970000D02*
X110540000Y-184630000D01*
X113340000Y-185970000D02*
X110540000Y-185970000D01*
X113340000Y-184630000D02*
X113340000Y-185970000D01*
X110540000Y-184630000D02*
X113340000Y-184630000D01*
X148960000Y-185970000D02*
X148960000Y-184630000D01*
X151760000Y-185970000D02*
X148960000Y-185970000D01*
X151760000Y-184630000D02*
X151760000Y-185970000D01*
X148960000Y-184630000D02*
X151760000Y-184630000D01*
X187350000Y-185970000D02*
X187350000Y-184630000D01*
X190150000Y-185970000D02*
X187350000Y-185970000D01*
X190150000Y-184630000D02*
X190150000Y-185970000D01*
X187350000Y-184630000D02*
X190150000Y-184630000D01*
X225740000Y-185970000D02*
X225740000Y-184630000D01*
X228540000Y-185970000D02*
X225740000Y-185970000D01*
X228540000Y-184630000D02*
X228540000Y-185970000D01*
X225740000Y-184630000D02*
X228540000Y-184630000D01*
X264210000Y-185970000D02*
X264210000Y-184630000D01*
X267010000Y-185970000D02*
X264210000Y-185970000D01*
X267010000Y-184630000D02*
X267010000Y-185970000D01*
X264210000Y-184630000D02*
X267010000Y-184630000D01*
X312070000Y-185970000D02*
X312070000Y-184630000D01*
X314870000Y-185970000D02*
X312070000Y-185970000D01*
X314870000Y-184630000D02*
X314870000Y-185970000D01*
X312070000Y-184630000D02*
X314870000Y-184630000D01*
X172220000Y-205190000D02*
X172220000Y-203850000D01*
X175020000Y-205190000D02*
X172220000Y-205190000D01*
X175020000Y-203850000D02*
X175020000Y-205190000D01*
X172220000Y-203850000D02*
X175020000Y-203850000D01*
X91290000Y-185970000D02*
X91290000Y-184630000D01*
X94090000Y-185970000D02*
X91290000Y-185970000D01*
X94090000Y-184630000D02*
X94090000Y-185970000D01*
X91290000Y-184630000D02*
X94090000Y-184630000D01*
X129740000Y-185970000D02*
X129740000Y-184630000D01*
X132540000Y-185970000D02*
X129740000Y-185970000D01*
X132540000Y-184630000D02*
X132540000Y-185970000D01*
X129740000Y-184630000D02*
X132540000Y-184630000D01*
X168160000Y-186000000D02*
X168160000Y-184660000D01*
X170960000Y-186000000D02*
X168160000Y-186000000D01*
X170960000Y-184660000D02*
X170960000Y-186000000D01*
X168160000Y-184660000D02*
X170960000Y-184660000D01*
X206630000Y-185970000D02*
X206630000Y-184630000D01*
X209430000Y-185970000D02*
X206630000Y-185970000D01*
X209430000Y-184630000D02*
X209430000Y-185970000D01*
X206630000Y-184630000D02*
X209430000Y-184630000D01*
X244960000Y-185970000D02*
X244960000Y-184630000D01*
X247760000Y-185970000D02*
X244960000Y-185970000D01*
X247760000Y-184630000D02*
X247760000Y-185970000D01*
X244960000Y-184630000D02*
X247760000Y-184630000D01*
X288150000Y-185970000D02*
X288150000Y-184630000D01*
X290950000Y-185970000D02*
X288150000Y-185970000D01*
X290950000Y-184630000D02*
X290950000Y-185970000D01*
X288150000Y-184630000D02*
X290950000Y-184630000D01*
X380170000Y-128800000D02*
X380170000Y-127460000D01*
X382970000Y-128800000D02*
X380170000Y-128800000D01*
X382970000Y-127460000D02*
X382970000Y-128800000D01*
X380170000Y-127460000D02*
X382970000Y-127460000D01*
X43490000Y-186000000D02*
X43490000Y-184660000D01*
X46290000Y-186000000D02*
X43490000Y-186000000D01*
X46290000Y-184660000D02*
X46290000Y-186000000D01*
X43490000Y-184660000D02*
X46290000Y-184660000D01*
X101120000Y-166740000D02*
X101120000Y-165400000D01*
X103920000Y-166740000D02*
X101120000Y-166740000D01*
X103920000Y-165400000D02*
X103920000Y-166740000D01*
X101120000Y-165400000D02*
X103920000Y-165400000D01*
X139490000Y-166740000D02*
X139490000Y-165400000D01*
X142290000Y-166740000D02*
X139490000Y-166740000D01*
X142290000Y-165400000D02*
X142290000Y-166740000D01*
X139490000Y-165400000D02*
X142290000Y-165400000D01*
X177860000Y-166740000D02*
X177860000Y-165400000D01*
X180660000Y-166740000D02*
X177860000Y-166740000D01*
X180660000Y-165400000D02*
X180660000Y-166740000D01*
X177860000Y-165400000D02*
X180660000Y-165400000D01*
X216150000Y-166740000D02*
X216150000Y-165400000D01*
X218950000Y-166740000D02*
X216150000Y-166740000D01*
X218950000Y-165400000D02*
X218950000Y-166740000D01*
X216150000Y-165400000D02*
X218950000Y-165400000D01*
X254590000Y-166740000D02*
X254590000Y-165400000D01*
X257390000Y-166740000D02*
X254590000Y-166740000D01*
X257390000Y-165400000D02*
X257390000Y-166740000D01*
X254590000Y-165400000D02*
X257390000Y-165400000D01*
X292880000Y-166780000D02*
X292880000Y-165440000D01*
X295680000Y-166780000D02*
X292880000Y-166780000D01*
X295680000Y-165440000D02*
X295680000Y-166780000D01*
X292880000Y-165440000D02*
X295680000Y-165440000D01*
X380170000Y-148080000D02*
X380170000Y-146740000D01*
X382970000Y-148080000D02*
X380170000Y-148080000D01*
X382970000Y-146740000D02*
X382970000Y-148080000D01*
X380170000Y-146740000D02*
X382970000Y-146740000D01*
X75980000Y-147580000D02*
X75980000Y-146240000D01*
X78780000Y-147580000D02*
X75980000Y-147580000D01*
X78780000Y-146240000D02*
X78780000Y-147580000D01*
X75980000Y-146240000D02*
X78780000Y-146240000D01*
X114460000Y-147580000D02*
X114460000Y-146240000D01*
X117260000Y-147580000D02*
X114460000Y-147580000D01*
X117260000Y-146240000D02*
X117260000Y-147580000D01*
X114460000Y-146240000D02*
X117260000Y-146240000D01*
X152860000Y-147620000D02*
X152860000Y-146280000D01*
X155660000Y-147620000D02*
X152860000Y-147620000D01*
X155660000Y-146280000D02*
X155660000Y-147620000D01*
X152860000Y-146280000D02*
X155660000Y-146280000D01*
X191190000Y-147580000D02*
X191190000Y-146240000D01*
X193990000Y-147580000D02*
X191190000Y-147580000D01*
X193990000Y-146240000D02*
X193990000Y-147580000D01*
X191190000Y-146240000D02*
X193990000Y-146240000D01*
X229630000Y-147580000D02*
X229630000Y-146240000D01*
X232430000Y-147580000D02*
X229630000Y-147580000D01*
X232430000Y-146240000D02*
X232430000Y-147580000D01*
X229630000Y-146240000D02*
X232430000Y-146240000D01*
X268040000Y-147580000D02*
X268040000Y-146240000D01*
X270840000Y-147580000D02*
X268040000Y-147580000D01*
X270840000Y-146240000D02*
X270840000Y-147580000D01*
X268040000Y-146240000D02*
X270840000Y-146240000D01*
X306330000Y-147580000D02*
X306330000Y-146240000D01*
X309130000Y-147580000D02*
X306330000Y-147580000D01*
X309130000Y-146240000D02*
X309130000Y-147580000D01*
X306330000Y-146240000D02*
X309130000Y-146240000D01*
X380170000Y-167390000D02*
X380170000Y-166050000D01*
X382970000Y-167390000D02*
X380170000Y-167390000D01*
X382970000Y-166050000D02*
X382970000Y-167390000D01*
X380170000Y-166050000D02*
X382970000Y-166050000D01*
X85580000Y-128380000D02*
X85580000Y-127040000D01*
X88380000Y-128380000D02*
X85580000Y-128380000D01*
X88380000Y-127040000D02*
X88380000Y-128380000D01*
X85580000Y-127040000D02*
X88380000Y-127040000D01*
X123940000Y-128340000D02*
X123940000Y-127000000D01*
X126740000Y-128340000D02*
X123940000Y-128340000D01*
X126740000Y-127000000D02*
X126740000Y-128340000D01*
X123940000Y-127000000D02*
X126740000Y-127000000D01*
X162350000Y-128380000D02*
X162350000Y-127040000D01*
X165150000Y-128380000D02*
X162350000Y-128380000D01*
X165150000Y-127040000D02*
X165150000Y-128380000D01*
X162350000Y-127040000D02*
X165150000Y-127040000D01*
X200680000Y-128340000D02*
X200680000Y-127000000D01*
X203480000Y-128340000D02*
X200680000Y-128340000D01*
X203480000Y-127000000D02*
X203480000Y-128340000D01*
X200680000Y-127000000D02*
X203480000Y-127000000D01*
X239160000Y-128420000D02*
X239160000Y-127080000D01*
X241960000Y-128420000D02*
X239160000Y-128420000D01*
X241960000Y-127080000D02*
X241960000Y-128420000D01*
X239160000Y-127080000D02*
X241960000Y-127080000D01*
X277520000Y-128380000D02*
X277520000Y-127040000D01*
X280320000Y-128380000D02*
X277520000Y-128380000D01*
X280320000Y-127040000D02*
X280320000Y-128380000D01*
X277520000Y-127040000D02*
X280320000Y-127040000D01*
X315850000Y-128380000D02*
X315850000Y-127040000D01*
X318650000Y-128380000D02*
X315850000Y-128380000D01*
X318650000Y-127040000D02*
X318650000Y-128380000D01*
X315850000Y-127040000D02*
X318650000Y-127040000D01*
X380170000Y-186670000D02*
X380170000Y-185330000D01*
X382970000Y-186670000D02*
X380170000Y-186670000D01*
X382970000Y-185330000D02*
X382970000Y-186670000D01*
X380170000Y-185330000D02*
X382970000Y-185330000D01*
M02*
