M48
; DRILL file {KiCad (5.1.5)-2} date 2021-01-09 12:48:28
; FORMAT={-:-/ absolute / metric / decimal}
; #@! TF.CreationDate,2021-01-09T12:48:28+01:00
; #@! TF.GenerationSoftware,Kicad,Pcbnew,(5.1.5)-2
; #@! TF.FileFunction,Plated,1,2,PTH
FMAT,2
METRIC
T1C0.400
T2C0.900
T3C1.000
T4C1.499
%
G90
G05
T1
X41.99Y-209.75
X48.72Y-214.47
X49.38Y-206.07
X49.4Y-208.75
X56.03Y-207.09
X58.26Y-207.12
X58.58Y-214.7
X60.59Y-210.85
X60.81Y-207.12
X64.25Y-205.89
X66.6Y-209.82
X87.22Y-179.86
X206.12Y-119.56
X220.69Y-119.11
X223.33Y-128.58
X223.33Y-130.61
X223.87Y-168.9
X224.52Y-183.03
X230.76Y-147.78
X232.18Y-122.97
X232.22Y-126.51
X235.38Y-148.83
X243.88Y-116.82
X259.92Y-125.93
X277.68Y-200.08
X300.07Y-126.51
X310.95Y-146.26
X360.99Y-162.61
X363.29Y-162.0
T2
X50.47Y-181.49
X53.01Y-181.49
T3
X194.11Y-113.86
X196.65Y-113.86
X199.19Y-113.86
X201.73Y-113.86
X204.27Y-113.86
X206.81Y-113.86
X209.35Y-113.86
X211.89Y-113.86
X214.43Y-113.86
X216.97Y-113.86
X219.51Y-113.86
X222.05Y-113.86
X224.59Y-113.86
X227.13Y-113.86
X229.67Y-113.86
X232.21Y-113.86
X234.75Y-113.86
X237.29Y-113.86
X239.83Y-113.86
X242.37Y-113.86
T4
X150.67Y-168.62
X157.02Y-166.08
X44.09Y-149.46
X50.44Y-146.92
X240.81Y-149.46
X247.16Y-146.92
X372.1Y-149.95
X378.45Y-147.41
X179.43Y-187.83
X185.78Y-185.29
X231.14Y-130.26
X237.49Y-127.72
X83.41Y-187.84
X89.76Y-185.3
X93.12Y-168.62
X99.47Y-166.08
X246.58Y-168.62
X252.93Y-166.08
X59.46Y-187.83
X65.81Y-185.29
X164.04Y-149.46
X170.39Y-146.92
X313.68Y-168.62
X320.03Y-166.08
X87.25Y-149.46
X93.6Y-146.92
X183.22Y-149.46
X189.57Y-146.92
X106.45Y-149.46
X112.8Y-146.92
X260.01Y-149.46
X266.36Y-146.92
X217.83Y-187.83
X224.18Y-185.29
X121.82Y-187.83
X128.17Y-185.29
X35.52Y-168.64
X41.87Y-166.1
X202.4Y-149.46
X208.75Y-146.92
X279.22Y-149.47
X285.57Y-146.93
X125.65Y-149.46
X132.0Y-146.92
X298.36Y-149.47
X304.71Y-146.93
X164.3Y-207.02
X170.65Y-204.48
X192.77Y-130.26
X199.12Y-127.72
X211.97Y-130.26
X218.32Y-127.72
X372.1Y-130.67
X378.45Y-128.13
X237.03Y-187.83
X243.38Y-185.29
X265.78Y-168.62
X272.13Y-166.08
X39.32Y-130.26
X45.67Y-127.72
X144.84Y-149.46
X151.19Y-146.92
X68.05Y-149.46
X74.4Y-146.92
X116.02Y-130.26
X122.37Y-127.72
X173.57Y-130.26
X179.92Y-127.72
X154.4Y-130.26
X160.75Y-127.72
X322.33Y-149.46
X328.68Y-146.92
X189.05Y-168.62
X195.4Y-166.08
X112.28Y-168.62
X118.63Y-166.08
X327.1Y-130.26
X333.45Y-127.72
X284.97Y-168.64
X291.32Y-166.1
X169.85Y-168.62
X176.2Y-166.08
X208.21Y-168.62
X214.56Y-166.08
X135.21Y-130.26
X141.56Y-127.72
X160.22Y-187.83
X166.57Y-185.29
X198.63Y-187.83
X204.98Y-185.29
X323.3Y-187.83
X329.65Y-185.29
X141.03Y-187.83
X147.38Y-185.29
X73.92Y-168.64
X80.27Y-166.1
X288.72Y-130.26
X295.07Y-127.72
X372.1Y-188.54
X378.45Y-186.0
X280.17Y-187.83
X286.52Y-185.29
X54.72Y-168.62
X61.07Y-166.08
X77.65Y-130.26
X84.0Y-127.72
X96.85Y-130.26
X103.2Y-127.72
X372.1Y-169.26
X378.45Y-166.72
X304.12Y-187.83
X310.47Y-185.29
X227.42Y-168.62
X233.77Y-166.08
X102.62Y-187.83
X108.97Y-185.29
X250.34Y-130.26
X256.69Y-127.72
X269.53Y-130.26
X275.88Y-127.72
X131.47Y-168.62
X137.82Y-166.08
X307.91Y-130.26
X314.26Y-127.72
X221.61Y-149.46
X227.96Y-146.92
X58.46Y-130.26
X64.81Y-127.72
X256.22Y-187.83
X262.57Y-185.29
X35.51Y-187.84
X41.86Y-185.3
T0
M30
