G04 #@! TF.GenerationSoftware,KiCad,Pcbnew,(5.1.5)-2*
G04 #@! TF.CreationDate,2020-03-07T20:44:29+01:00*
G04 #@! TF.ProjectId,VIC20_kbd,56494332-305f-46b6-9264-2e6b69636164,rev?*
G04 #@! TF.SameCoordinates,Original*
G04 #@! TF.FileFunction,Legend,Bot*
G04 #@! TF.FilePolarity,Positive*
%FSLAX46Y46*%
G04 Gerber Fmt 4.6, Leading zero omitted, Abs format (unit mm)*
G04 Created by KiCad (PCBNEW (5.1.5)-2) date 2020-03-07 20:44:29*
%MOMM*%
%LPD*%
G04 APERTURE LIST*
%ADD10C,0.120000*%
%ADD11C,0.150000*%
G04 APERTURE END LIST*
D10*
X24570000Y-59790000D02*
X24570000Y-60930000D01*
X24570000Y-60930000D02*
X22470000Y-60930000D01*
X24570000Y-59790000D02*
X22470000Y-59790000D01*
X63020000Y-59720000D02*
X63020000Y-60860000D01*
X63020000Y-60860000D02*
X60920000Y-60860000D01*
X63020000Y-59720000D02*
X60920000Y-59720000D01*
X101460000Y-59720000D02*
X101460000Y-60860000D01*
X101460000Y-60860000D02*
X99360000Y-60860000D01*
X101460000Y-59720000D02*
X99360000Y-59720000D01*
X139830000Y-59720000D02*
X139830000Y-60860000D01*
X139830000Y-60860000D02*
X137730000Y-60860000D01*
X139830000Y-59720000D02*
X137730000Y-59720000D01*
X178160000Y-59720000D02*
X178160000Y-60860000D01*
X178160000Y-60860000D02*
X176060000Y-60860000D01*
X178160000Y-59720000D02*
X176060000Y-59720000D01*
X216480000Y-59720000D02*
X216480000Y-60860000D01*
X216480000Y-60860000D02*
X214380000Y-60860000D01*
X216480000Y-59720000D02*
X214380000Y-59720000D01*
X254810000Y-59720000D02*
X254810000Y-60860000D01*
X254810000Y-60860000D02*
X252710000Y-60860000D01*
X254810000Y-59720000D02*
X252710000Y-59720000D01*
X293180000Y-59720000D02*
X293180000Y-60860000D01*
X293180000Y-60860000D02*
X291080000Y-60860000D01*
X293180000Y-59720000D02*
X291080000Y-59720000D01*
X5450000Y-59720000D02*
X5450000Y-60860000D01*
X5450000Y-60860000D02*
X3350000Y-60860000D01*
X5450000Y-59720000D02*
X3350000Y-59720000D01*
X53450000Y-78920000D02*
X53450000Y-80060000D01*
X53450000Y-80060000D02*
X51350000Y-80060000D01*
X53450000Y-78920000D02*
X51350000Y-78920000D01*
X91900000Y-78880000D02*
X91900000Y-80020000D01*
X91900000Y-80020000D02*
X89800000Y-80020000D01*
X91900000Y-78880000D02*
X89800000Y-78880000D01*
X130190000Y-78920000D02*
X130190000Y-80060000D01*
X130190000Y-80060000D02*
X128090000Y-80060000D01*
X130190000Y-78920000D02*
X128090000Y-78920000D01*
X168520000Y-78920000D02*
X168520000Y-80060000D01*
X168520000Y-80060000D02*
X166420000Y-80060000D01*
X168520000Y-78920000D02*
X166420000Y-78920000D01*
X206960000Y-78920000D02*
X206960000Y-80060000D01*
X206960000Y-80060000D02*
X204860000Y-80060000D01*
X206960000Y-78920000D02*
X204860000Y-78920000D01*
X245440000Y-78960000D02*
X245440000Y-80100000D01*
X245440000Y-80100000D02*
X243340000Y-80100000D01*
X245440000Y-78960000D02*
X243340000Y-78960000D01*
X279880000Y-98050000D02*
X279880000Y-99190000D01*
X279880000Y-99190000D02*
X277780000Y-99190000D01*
X279880000Y-98050000D02*
X277780000Y-98050000D01*
X10330000Y-78920000D02*
X10330000Y-80060000D01*
X10330000Y-80060000D02*
X8230000Y-80060000D01*
X10330000Y-78920000D02*
X8230000Y-78920000D01*
X40080000Y-98120000D02*
X40080000Y-99260000D01*
X40080000Y-99260000D02*
X37980000Y-99260000D01*
X40080000Y-98120000D02*
X37980000Y-98120000D01*
X78450000Y-98080000D02*
X78450000Y-99220000D01*
X78450000Y-99220000D02*
X76350000Y-99220000D01*
X78450000Y-98080000D02*
X76350000Y-98080000D01*
X116780000Y-98080000D02*
X116780000Y-99220000D01*
X116780000Y-99220000D02*
X114680000Y-99220000D01*
X116780000Y-98080000D02*
X114680000Y-98080000D01*
X155260000Y-98080000D02*
X155260000Y-99220000D01*
X155260000Y-99220000D02*
X153160000Y-99220000D01*
X155260000Y-98080000D02*
X153160000Y-98080000D01*
X193620000Y-98050000D02*
X193620000Y-99190000D01*
X193620000Y-99190000D02*
X191520000Y-99190000D01*
X193620000Y-98050000D02*
X191520000Y-98050000D01*
X231950000Y-98080000D02*
X231950000Y-99220000D01*
X231950000Y-99220000D02*
X229850000Y-99220000D01*
X231950000Y-98080000D02*
X229850000Y-98080000D01*
X289520000Y-117310000D02*
X289520000Y-118450000D01*
X289520000Y-118450000D02*
X287420000Y-118450000D01*
X289520000Y-117310000D02*
X287420000Y-117310000D01*
X1710000Y-98120000D02*
X1710000Y-99260000D01*
X1710000Y-99260000D02*
X-390000Y-99260000D01*
X1710000Y-98120000D02*
X-390000Y-98120000D01*
X25630000Y-117310000D02*
X25630000Y-118450000D01*
X25630000Y-118450000D02*
X23530000Y-118450000D01*
X25630000Y-117310000D02*
X23530000Y-117310000D01*
X68740000Y-117310000D02*
X68740000Y-118450000D01*
X68740000Y-118450000D02*
X66640000Y-118450000D01*
X68740000Y-117310000D02*
X66640000Y-117310000D01*
X107160000Y-117310000D02*
X107160000Y-118450000D01*
X107160000Y-118450000D02*
X105060000Y-118450000D01*
X107160000Y-117310000D02*
X105060000Y-117310000D01*
X145550000Y-117310000D02*
X145550000Y-118450000D01*
X145550000Y-118450000D02*
X143450000Y-118450000D01*
X145550000Y-117310000D02*
X143450000Y-117310000D01*
X183940000Y-117310000D02*
X183940000Y-118450000D01*
X183940000Y-118450000D02*
X181840000Y-118450000D01*
X183940000Y-117310000D02*
X181840000Y-117310000D01*
X222410000Y-117310000D02*
X222410000Y-118450000D01*
X222410000Y-118450000D02*
X220310000Y-118450000D01*
X222410000Y-117310000D02*
X220310000Y-117310000D01*
X270270000Y-117310000D02*
X270270000Y-118450000D01*
X270270000Y-118450000D02*
X268170000Y-118450000D01*
X270270000Y-117310000D02*
X268170000Y-117310000D01*
X130420000Y-136530000D02*
X130420000Y-137670000D01*
X130420000Y-137670000D02*
X128320000Y-137670000D01*
X130420000Y-136530000D02*
X128320000Y-136530000D01*
X49490000Y-117310000D02*
X49490000Y-118450000D01*
X49490000Y-118450000D02*
X47390000Y-118450000D01*
X49490000Y-117310000D02*
X47390000Y-117310000D01*
X87940000Y-117310000D02*
X87940000Y-118450000D01*
X87940000Y-118450000D02*
X85840000Y-118450000D01*
X87940000Y-117310000D02*
X85840000Y-117310000D01*
X126360000Y-117340000D02*
X126360000Y-118480000D01*
X126360000Y-118480000D02*
X124260000Y-118480000D01*
X126360000Y-117340000D02*
X124260000Y-117340000D01*
X164830000Y-117310000D02*
X164830000Y-118450000D01*
X164830000Y-118450000D02*
X162730000Y-118450000D01*
X164830000Y-117310000D02*
X162730000Y-117310000D01*
X203160000Y-117310000D02*
X203160000Y-118450000D01*
X203160000Y-118450000D02*
X201060000Y-118450000D01*
X203160000Y-117310000D02*
X201060000Y-117310000D01*
X246350000Y-117310000D02*
X246350000Y-118450000D01*
X246350000Y-118450000D02*
X244250000Y-118450000D01*
X246350000Y-117310000D02*
X244250000Y-117310000D01*
X338370000Y-60140000D02*
X338370000Y-61280000D01*
X338370000Y-61280000D02*
X336270000Y-61280000D01*
X338370000Y-60140000D02*
X336270000Y-60140000D01*
X1690000Y-117340000D02*
X1690000Y-118480000D01*
X1690000Y-118480000D02*
X-410000Y-118480000D01*
X1690000Y-117340000D02*
X-410000Y-117340000D01*
X59320000Y-98080000D02*
X59320000Y-99220000D01*
X59320000Y-99220000D02*
X57220000Y-99220000D01*
X59320000Y-98080000D02*
X57220000Y-98080000D01*
X97690000Y-98080000D02*
X97690000Y-99220000D01*
X97690000Y-99220000D02*
X95590000Y-99220000D01*
X97690000Y-98080000D02*
X95590000Y-98080000D01*
X136060000Y-98080000D02*
X136060000Y-99220000D01*
X136060000Y-99220000D02*
X133960000Y-99220000D01*
X136060000Y-98080000D02*
X133960000Y-98080000D01*
X174350000Y-98080000D02*
X174350000Y-99220000D01*
X174350000Y-99220000D02*
X172250000Y-99220000D01*
X174350000Y-98080000D02*
X172250000Y-98080000D01*
X212790000Y-98080000D02*
X212790000Y-99220000D01*
X212790000Y-99220000D02*
X210690000Y-99220000D01*
X212790000Y-98080000D02*
X210690000Y-98080000D01*
X251080000Y-98120000D02*
X251080000Y-99260000D01*
X251080000Y-99260000D02*
X248980000Y-99260000D01*
X251080000Y-98120000D02*
X248980000Y-98120000D01*
X338370000Y-79420000D02*
X338370000Y-80560000D01*
X338370000Y-80560000D02*
X336270000Y-80560000D01*
X338370000Y-79420000D02*
X336270000Y-79420000D01*
X34180000Y-78920000D02*
X34180000Y-80060000D01*
X34180000Y-80060000D02*
X32080000Y-80060000D01*
X34180000Y-78920000D02*
X32080000Y-78920000D01*
X72660000Y-78920000D02*
X72660000Y-80060000D01*
X72660000Y-80060000D02*
X70560000Y-80060000D01*
X72660000Y-78920000D02*
X70560000Y-78920000D01*
X111060000Y-78960000D02*
X111060000Y-80100000D01*
X111060000Y-80100000D02*
X108960000Y-80100000D01*
X111060000Y-78960000D02*
X108960000Y-78960000D01*
X149390000Y-78920000D02*
X149390000Y-80060000D01*
X149390000Y-80060000D02*
X147290000Y-80060000D01*
X149390000Y-78920000D02*
X147290000Y-78920000D01*
X187830000Y-78920000D02*
X187830000Y-80060000D01*
X187830000Y-80060000D02*
X185730000Y-80060000D01*
X187830000Y-78920000D02*
X185730000Y-78920000D01*
X226240000Y-78920000D02*
X226240000Y-80060000D01*
X226240000Y-80060000D02*
X224140000Y-80060000D01*
X226240000Y-78920000D02*
X224140000Y-78920000D01*
X264530000Y-78920000D02*
X264530000Y-80060000D01*
X264530000Y-80060000D02*
X262430000Y-80060000D01*
X264530000Y-78920000D02*
X262430000Y-78920000D01*
X338370000Y-98730000D02*
X338370000Y-99870000D01*
X338370000Y-99870000D02*
X336270000Y-99870000D01*
X338370000Y-98730000D02*
X336270000Y-98730000D01*
X43780000Y-59720000D02*
X43780000Y-60860000D01*
X43780000Y-60860000D02*
X41680000Y-60860000D01*
X43780000Y-59720000D02*
X41680000Y-59720000D01*
X82140000Y-59680000D02*
X82140000Y-60820000D01*
X82140000Y-60820000D02*
X80040000Y-60820000D01*
X82140000Y-59680000D02*
X80040000Y-59680000D01*
X120550000Y-59720000D02*
X120550000Y-60860000D01*
X120550000Y-60860000D02*
X118450000Y-60860000D01*
X120550000Y-59720000D02*
X118450000Y-59720000D01*
X158880000Y-59680000D02*
X158880000Y-60820000D01*
X158880000Y-60820000D02*
X156780000Y-60820000D01*
X158880000Y-59680000D02*
X156780000Y-59680000D01*
X197360000Y-59760000D02*
X197360000Y-60900000D01*
X197360000Y-60900000D02*
X195260000Y-60900000D01*
X197360000Y-59760000D02*
X195260000Y-59760000D01*
X235720000Y-59720000D02*
X235720000Y-60860000D01*
X235720000Y-60860000D02*
X233620000Y-60860000D01*
X235720000Y-59720000D02*
X233620000Y-59720000D01*
X274050000Y-59720000D02*
X274050000Y-60860000D01*
X274050000Y-60860000D02*
X271950000Y-60860000D01*
X274050000Y-59720000D02*
X271950000Y-59720000D01*
X338370000Y-118010000D02*
X338370000Y-119150000D01*
X338370000Y-119150000D02*
X336270000Y-119150000D01*
X338370000Y-118010000D02*
X336270000Y-118010000D01*
D11*
X24008095Y-59412380D02*
X24008095Y-58412380D01*
X23770000Y-58412380D01*
X23627142Y-58460000D01*
X23531904Y-58555238D01*
X23484285Y-58650476D01*
X23436666Y-58840952D01*
X23436666Y-58983809D01*
X23484285Y-59174285D01*
X23531904Y-59269523D01*
X23627142Y-59364761D01*
X23770000Y-59412380D01*
X24008095Y-59412380D01*
X22484285Y-59412380D02*
X23055714Y-59412380D01*
X22770000Y-59412380D02*
X22770000Y-58412380D01*
X22865238Y-58555238D01*
X22960476Y-58650476D01*
X23055714Y-58698095D01*
X62458095Y-59342380D02*
X62458095Y-58342380D01*
X62220000Y-58342380D01*
X62077142Y-58390000D01*
X61981904Y-58485238D01*
X61934285Y-58580476D01*
X61886666Y-58770952D01*
X61886666Y-58913809D01*
X61934285Y-59104285D01*
X61981904Y-59199523D01*
X62077142Y-59294761D01*
X62220000Y-59342380D01*
X62458095Y-59342380D01*
X61505714Y-58437619D02*
X61458095Y-58390000D01*
X61362857Y-58342380D01*
X61124761Y-58342380D01*
X61029523Y-58390000D01*
X60981904Y-58437619D01*
X60934285Y-58532857D01*
X60934285Y-58628095D01*
X60981904Y-58770952D01*
X61553333Y-59342380D01*
X60934285Y-59342380D01*
X100898095Y-59342380D02*
X100898095Y-58342380D01*
X100660000Y-58342380D01*
X100517142Y-58390000D01*
X100421904Y-58485238D01*
X100374285Y-58580476D01*
X100326666Y-58770952D01*
X100326666Y-58913809D01*
X100374285Y-59104285D01*
X100421904Y-59199523D01*
X100517142Y-59294761D01*
X100660000Y-59342380D01*
X100898095Y-59342380D01*
X99993333Y-58342380D02*
X99374285Y-58342380D01*
X99707619Y-58723333D01*
X99564761Y-58723333D01*
X99469523Y-58770952D01*
X99421904Y-58818571D01*
X99374285Y-58913809D01*
X99374285Y-59151904D01*
X99421904Y-59247142D01*
X99469523Y-59294761D01*
X99564761Y-59342380D01*
X99850476Y-59342380D01*
X99945714Y-59294761D01*
X99993333Y-59247142D01*
X139268095Y-59342380D02*
X139268095Y-58342380D01*
X139030000Y-58342380D01*
X138887142Y-58390000D01*
X138791904Y-58485238D01*
X138744285Y-58580476D01*
X138696666Y-58770952D01*
X138696666Y-58913809D01*
X138744285Y-59104285D01*
X138791904Y-59199523D01*
X138887142Y-59294761D01*
X139030000Y-59342380D01*
X139268095Y-59342380D01*
X137839523Y-58675714D02*
X137839523Y-59342380D01*
X138077619Y-58294761D02*
X138315714Y-59009047D01*
X137696666Y-59009047D01*
X177598095Y-59342380D02*
X177598095Y-58342380D01*
X177360000Y-58342380D01*
X177217142Y-58390000D01*
X177121904Y-58485238D01*
X177074285Y-58580476D01*
X177026666Y-58770952D01*
X177026666Y-58913809D01*
X177074285Y-59104285D01*
X177121904Y-59199523D01*
X177217142Y-59294761D01*
X177360000Y-59342380D01*
X177598095Y-59342380D01*
X176121904Y-58342380D02*
X176598095Y-58342380D01*
X176645714Y-58818571D01*
X176598095Y-58770952D01*
X176502857Y-58723333D01*
X176264761Y-58723333D01*
X176169523Y-58770952D01*
X176121904Y-58818571D01*
X176074285Y-58913809D01*
X176074285Y-59151904D01*
X176121904Y-59247142D01*
X176169523Y-59294761D01*
X176264761Y-59342380D01*
X176502857Y-59342380D01*
X176598095Y-59294761D01*
X176645714Y-59247142D01*
X215918095Y-59342380D02*
X215918095Y-58342380D01*
X215680000Y-58342380D01*
X215537142Y-58390000D01*
X215441904Y-58485238D01*
X215394285Y-58580476D01*
X215346666Y-58770952D01*
X215346666Y-58913809D01*
X215394285Y-59104285D01*
X215441904Y-59199523D01*
X215537142Y-59294761D01*
X215680000Y-59342380D01*
X215918095Y-59342380D01*
X214489523Y-58342380D02*
X214680000Y-58342380D01*
X214775238Y-58390000D01*
X214822857Y-58437619D01*
X214918095Y-58580476D01*
X214965714Y-58770952D01*
X214965714Y-59151904D01*
X214918095Y-59247142D01*
X214870476Y-59294761D01*
X214775238Y-59342380D01*
X214584761Y-59342380D01*
X214489523Y-59294761D01*
X214441904Y-59247142D01*
X214394285Y-59151904D01*
X214394285Y-58913809D01*
X214441904Y-58818571D01*
X214489523Y-58770952D01*
X214584761Y-58723333D01*
X214775238Y-58723333D01*
X214870476Y-58770952D01*
X214918095Y-58818571D01*
X214965714Y-58913809D01*
X254248095Y-59342380D02*
X254248095Y-58342380D01*
X254010000Y-58342380D01*
X253867142Y-58390000D01*
X253771904Y-58485238D01*
X253724285Y-58580476D01*
X253676666Y-58770952D01*
X253676666Y-58913809D01*
X253724285Y-59104285D01*
X253771904Y-59199523D01*
X253867142Y-59294761D01*
X254010000Y-59342380D01*
X254248095Y-59342380D01*
X253343333Y-58342380D02*
X252676666Y-58342380D01*
X253105238Y-59342380D01*
X292618095Y-59342380D02*
X292618095Y-58342380D01*
X292380000Y-58342380D01*
X292237142Y-58390000D01*
X292141904Y-58485238D01*
X292094285Y-58580476D01*
X292046666Y-58770952D01*
X292046666Y-58913809D01*
X292094285Y-59104285D01*
X292141904Y-59199523D01*
X292237142Y-59294761D01*
X292380000Y-59342380D01*
X292618095Y-59342380D01*
X291475238Y-58770952D02*
X291570476Y-58723333D01*
X291618095Y-58675714D01*
X291665714Y-58580476D01*
X291665714Y-58532857D01*
X291618095Y-58437619D01*
X291570476Y-58390000D01*
X291475238Y-58342380D01*
X291284761Y-58342380D01*
X291189523Y-58390000D01*
X291141904Y-58437619D01*
X291094285Y-58532857D01*
X291094285Y-58580476D01*
X291141904Y-58675714D01*
X291189523Y-58723333D01*
X291284761Y-58770952D01*
X291475238Y-58770952D01*
X291570476Y-58818571D01*
X291618095Y-58866190D01*
X291665714Y-58961428D01*
X291665714Y-59151904D01*
X291618095Y-59247142D01*
X291570476Y-59294761D01*
X291475238Y-59342380D01*
X291284761Y-59342380D01*
X291189523Y-59294761D01*
X291141904Y-59247142D01*
X291094285Y-59151904D01*
X291094285Y-58961428D01*
X291141904Y-58866190D01*
X291189523Y-58818571D01*
X291284761Y-58770952D01*
X4888095Y-59342380D02*
X4888095Y-58342380D01*
X4650000Y-58342380D01*
X4507142Y-58390000D01*
X4411904Y-58485238D01*
X4364285Y-58580476D01*
X4316666Y-58770952D01*
X4316666Y-58913809D01*
X4364285Y-59104285D01*
X4411904Y-59199523D01*
X4507142Y-59294761D01*
X4650000Y-59342380D01*
X4888095Y-59342380D01*
X3840476Y-59342380D02*
X3650000Y-59342380D01*
X3554761Y-59294761D01*
X3507142Y-59247142D01*
X3411904Y-59104285D01*
X3364285Y-58913809D01*
X3364285Y-58532857D01*
X3411904Y-58437619D01*
X3459523Y-58390000D01*
X3554761Y-58342380D01*
X3745238Y-58342380D01*
X3840476Y-58390000D01*
X3888095Y-58437619D01*
X3935714Y-58532857D01*
X3935714Y-58770952D01*
X3888095Y-58866190D01*
X3840476Y-58913809D01*
X3745238Y-58961428D01*
X3554761Y-58961428D01*
X3459523Y-58913809D01*
X3411904Y-58866190D01*
X3364285Y-58770952D01*
X53364285Y-78542380D02*
X53364285Y-77542380D01*
X53126190Y-77542380D01*
X52983333Y-77590000D01*
X52888095Y-77685238D01*
X52840476Y-77780476D01*
X52792857Y-77970952D01*
X52792857Y-78113809D01*
X52840476Y-78304285D01*
X52888095Y-78399523D01*
X52983333Y-78494761D01*
X53126190Y-78542380D01*
X53364285Y-78542380D01*
X51840476Y-78542380D02*
X52411904Y-78542380D01*
X52126190Y-78542380D02*
X52126190Y-77542380D01*
X52221428Y-77685238D01*
X52316666Y-77780476D01*
X52411904Y-77828095D01*
X51221428Y-77542380D02*
X51126190Y-77542380D01*
X51030952Y-77590000D01*
X50983333Y-77637619D01*
X50935714Y-77732857D01*
X50888095Y-77923333D01*
X50888095Y-78161428D01*
X50935714Y-78351904D01*
X50983333Y-78447142D01*
X51030952Y-78494761D01*
X51126190Y-78542380D01*
X51221428Y-78542380D01*
X51316666Y-78494761D01*
X51364285Y-78447142D01*
X51411904Y-78351904D01*
X51459523Y-78161428D01*
X51459523Y-77923333D01*
X51411904Y-77732857D01*
X51364285Y-77637619D01*
X51316666Y-77590000D01*
X51221428Y-77542380D01*
X91814285Y-78502380D02*
X91814285Y-77502380D01*
X91576190Y-77502380D01*
X91433333Y-77550000D01*
X91338095Y-77645238D01*
X91290476Y-77740476D01*
X91242857Y-77930952D01*
X91242857Y-78073809D01*
X91290476Y-78264285D01*
X91338095Y-78359523D01*
X91433333Y-78454761D01*
X91576190Y-78502380D01*
X91814285Y-78502380D01*
X90290476Y-78502380D02*
X90861904Y-78502380D01*
X90576190Y-78502380D02*
X90576190Y-77502380D01*
X90671428Y-77645238D01*
X90766666Y-77740476D01*
X90861904Y-77788095D01*
X89338095Y-78502380D02*
X89909523Y-78502380D01*
X89623809Y-78502380D02*
X89623809Y-77502380D01*
X89719047Y-77645238D01*
X89814285Y-77740476D01*
X89909523Y-77788095D01*
X130104285Y-78542380D02*
X130104285Y-77542380D01*
X129866190Y-77542380D01*
X129723333Y-77590000D01*
X129628095Y-77685238D01*
X129580476Y-77780476D01*
X129532857Y-77970952D01*
X129532857Y-78113809D01*
X129580476Y-78304285D01*
X129628095Y-78399523D01*
X129723333Y-78494761D01*
X129866190Y-78542380D01*
X130104285Y-78542380D01*
X128580476Y-78542380D02*
X129151904Y-78542380D01*
X128866190Y-78542380D02*
X128866190Y-77542380D01*
X128961428Y-77685238D01*
X129056666Y-77780476D01*
X129151904Y-77828095D01*
X128199523Y-77637619D02*
X128151904Y-77590000D01*
X128056666Y-77542380D01*
X127818571Y-77542380D01*
X127723333Y-77590000D01*
X127675714Y-77637619D01*
X127628095Y-77732857D01*
X127628095Y-77828095D01*
X127675714Y-77970952D01*
X128247142Y-78542380D01*
X127628095Y-78542380D01*
X168434285Y-78542380D02*
X168434285Y-77542380D01*
X168196190Y-77542380D01*
X168053333Y-77590000D01*
X167958095Y-77685238D01*
X167910476Y-77780476D01*
X167862857Y-77970952D01*
X167862857Y-78113809D01*
X167910476Y-78304285D01*
X167958095Y-78399523D01*
X168053333Y-78494761D01*
X168196190Y-78542380D01*
X168434285Y-78542380D01*
X166910476Y-78542380D02*
X167481904Y-78542380D01*
X167196190Y-78542380D02*
X167196190Y-77542380D01*
X167291428Y-77685238D01*
X167386666Y-77780476D01*
X167481904Y-77828095D01*
X166577142Y-77542380D02*
X165958095Y-77542380D01*
X166291428Y-77923333D01*
X166148571Y-77923333D01*
X166053333Y-77970952D01*
X166005714Y-78018571D01*
X165958095Y-78113809D01*
X165958095Y-78351904D01*
X166005714Y-78447142D01*
X166053333Y-78494761D01*
X166148571Y-78542380D01*
X166434285Y-78542380D01*
X166529523Y-78494761D01*
X166577142Y-78447142D01*
X206874285Y-78542380D02*
X206874285Y-77542380D01*
X206636190Y-77542380D01*
X206493333Y-77590000D01*
X206398095Y-77685238D01*
X206350476Y-77780476D01*
X206302857Y-77970952D01*
X206302857Y-78113809D01*
X206350476Y-78304285D01*
X206398095Y-78399523D01*
X206493333Y-78494761D01*
X206636190Y-78542380D01*
X206874285Y-78542380D01*
X205350476Y-78542380D02*
X205921904Y-78542380D01*
X205636190Y-78542380D02*
X205636190Y-77542380D01*
X205731428Y-77685238D01*
X205826666Y-77780476D01*
X205921904Y-77828095D01*
X204493333Y-77875714D02*
X204493333Y-78542380D01*
X204731428Y-77494761D02*
X204969523Y-78209047D01*
X204350476Y-78209047D01*
X245354285Y-78582380D02*
X245354285Y-77582380D01*
X245116190Y-77582380D01*
X244973333Y-77630000D01*
X244878095Y-77725238D01*
X244830476Y-77820476D01*
X244782857Y-78010952D01*
X244782857Y-78153809D01*
X244830476Y-78344285D01*
X244878095Y-78439523D01*
X244973333Y-78534761D01*
X245116190Y-78582380D01*
X245354285Y-78582380D01*
X243830476Y-78582380D02*
X244401904Y-78582380D01*
X244116190Y-78582380D02*
X244116190Y-77582380D01*
X244211428Y-77725238D01*
X244306666Y-77820476D01*
X244401904Y-77868095D01*
X242925714Y-77582380D02*
X243401904Y-77582380D01*
X243449523Y-78058571D01*
X243401904Y-78010952D01*
X243306666Y-77963333D01*
X243068571Y-77963333D01*
X242973333Y-78010952D01*
X242925714Y-78058571D01*
X242878095Y-78153809D01*
X242878095Y-78391904D01*
X242925714Y-78487142D01*
X242973333Y-78534761D01*
X243068571Y-78582380D01*
X243306666Y-78582380D01*
X243401904Y-78534761D01*
X243449523Y-78487142D01*
X279794285Y-97672380D02*
X279794285Y-96672380D01*
X279556190Y-96672380D01*
X279413333Y-96720000D01*
X279318095Y-96815238D01*
X279270476Y-96910476D01*
X279222857Y-97100952D01*
X279222857Y-97243809D01*
X279270476Y-97434285D01*
X279318095Y-97529523D01*
X279413333Y-97624761D01*
X279556190Y-97672380D01*
X279794285Y-97672380D01*
X278270476Y-97672380D02*
X278841904Y-97672380D01*
X278556190Y-97672380D02*
X278556190Y-96672380D01*
X278651428Y-96815238D01*
X278746666Y-96910476D01*
X278841904Y-96958095D01*
X277413333Y-96672380D02*
X277603809Y-96672380D01*
X277699047Y-96720000D01*
X277746666Y-96767619D01*
X277841904Y-96910476D01*
X277889523Y-97100952D01*
X277889523Y-97481904D01*
X277841904Y-97577142D01*
X277794285Y-97624761D01*
X277699047Y-97672380D01*
X277508571Y-97672380D01*
X277413333Y-97624761D01*
X277365714Y-97577142D01*
X277318095Y-97481904D01*
X277318095Y-97243809D01*
X277365714Y-97148571D01*
X277413333Y-97100952D01*
X277508571Y-97053333D01*
X277699047Y-97053333D01*
X277794285Y-97100952D01*
X277841904Y-97148571D01*
X277889523Y-97243809D01*
X10244285Y-78542380D02*
X10244285Y-77542380D01*
X10006190Y-77542380D01*
X9863333Y-77590000D01*
X9768095Y-77685238D01*
X9720476Y-77780476D01*
X9672857Y-77970952D01*
X9672857Y-78113809D01*
X9720476Y-78304285D01*
X9768095Y-78399523D01*
X9863333Y-78494761D01*
X10006190Y-78542380D01*
X10244285Y-78542380D01*
X8720476Y-78542380D02*
X9291904Y-78542380D01*
X9006190Y-78542380D02*
X9006190Y-77542380D01*
X9101428Y-77685238D01*
X9196666Y-77780476D01*
X9291904Y-77828095D01*
X8387142Y-77542380D02*
X7720476Y-77542380D01*
X8149047Y-78542380D01*
X39994285Y-97742380D02*
X39994285Y-96742380D01*
X39756190Y-96742380D01*
X39613333Y-96790000D01*
X39518095Y-96885238D01*
X39470476Y-96980476D01*
X39422857Y-97170952D01*
X39422857Y-97313809D01*
X39470476Y-97504285D01*
X39518095Y-97599523D01*
X39613333Y-97694761D01*
X39756190Y-97742380D01*
X39994285Y-97742380D01*
X38470476Y-97742380D02*
X39041904Y-97742380D01*
X38756190Y-97742380D02*
X38756190Y-96742380D01*
X38851428Y-96885238D01*
X38946666Y-96980476D01*
X39041904Y-97028095D01*
X37899047Y-97170952D02*
X37994285Y-97123333D01*
X38041904Y-97075714D01*
X38089523Y-96980476D01*
X38089523Y-96932857D01*
X38041904Y-96837619D01*
X37994285Y-96790000D01*
X37899047Y-96742380D01*
X37708571Y-96742380D01*
X37613333Y-96790000D01*
X37565714Y-96837619D01*
X37518095Y-96932857D01*
X37518095Y-96980476D01*
X37565714Y-97075714D01*
X37613333Y-97123333D01*
X37708571Y-97170952D01*
X37899047Y-97170952D01*
X37994285Y-97218571D01*
X38041904Y-97266190D01*
X38089523Y-97361428D01*
X38089523Y-97551904D01*
X38041904Y-97647142D01*
X37994285Y-97694761D01*
X37899047Y-97742380D01*
X37708571Y-97742380D01*
X37613333Y-97694761D01*
X37565714Y-97647142D01*
X37518095Y-97551904D01*
X37518095Y-97361428D01*
X37565714Y-97266190D01*
X37613333Y-97218571D01*
X37708571Y-97170952D01*
X78364285Y-97702380D02*
X78364285Y-96702380D01*
X78126190Y-96702380D01*
X77983333Y-96750000D01*
X77888095Y-96845238D01*
X77840476Y-96940476D01*
X77792857Y-97130952D01*
X77792857Y-97273809D01*
X77840476Y-97464285D01*
X77888095Y-97559523D01*
X77983333Y-97654761D01*
X78126190Y-97702380D01*
X78364285Y-97702380D01*
X76840476Y-97702380D02*
X77411904Y-97702380D01*
X77126190Y-97702380D02*
X77126190Y-96702380D01*
X77221428Y-96845238D01*
X77316666Y-96940476D01*
X77411904Y-96988095D01*
X76364285Y-97702380D02*
X76173809Y-97702380D01*
X76078571Y-97654761D01*
X76030952Y-97607142D01*
X75935714Y-97464285D01*
X75888095Y-97273809D01*
X75888095Y-96892857D01*
X75935714Y-96797619D01*
X75983333Y-96750000D01*
X76078571Y-96702380D01*
X76269047Y-96702380D01*
X76364285Y-96750000D01*
X76411904Y-96797619D01*
X76459523Y-96892857D01*
X76459523Y-97130952D01*
X76411904Y-97226190D01*
X76364285Y-97273809D01*
X76269047Y-97321428D01*
X76078571Y-97321428D01*
X75983333Y-97273809D01*
X75935714Y-97226190D01*
X75888095Y-97130952D01*
X116694285Y-97702380D02*
X116694285Y-96702380D01*
X116456190Y-96702380D01*
X116313333Y-96750000D01*
X116218095Y-96845238D01*
X116170476Y-96940476D01*
X116122857Y-97130952D01*
X116122857Y-97273809D01*
X116170476Y-97464285D01*
X116218095Y-97559523D01*
X116313333Y-97654761D01*
X116456190Y-97702380D01*
X116694285Y-97702380D01*
X115741904Y-96797619D02*
X115694285Y-96750000D01*
X115599047Y-96702380D01*
X115360952Y-96702380D01*
X115265714Y-96750000D01*
X115218095Y-96797619D01*
X115170476Y-96892857D01*
X115170476Y-96988095D01*
X115218095Y-97130952D01*
X115789523Y-97702380D01*
X115170476Y-97702380D01*
X114551428Y-96702380D02*
X114456190Y-96702380D01*
X114360952Y-96750000D01*
X114313333Y-96797619D01*
X114265714Y-96892857D01*
X114218095Y-97083333D01*
X114218095Y-97321428D01*
X114265714Y-97511904D01*
X114313333Y-97607142D01*
X114360952Y-97654761D01*
X114456190Y-97702380D01*
X114551428Y-97702380D01*
X114646666Y-97654761D01*
X114694285Y-97607142D01*
X114741904Y-97511904D01*
X114789523Y-97321428D01*
X114789523Y-97083333D01*
X114741904Y-96892857D01*
X114694285Y-96797619D01*
X114646666Y-96750000D01*
X114551428Y-96702380D01*
X155174285Y-97702380D02*
X155174285Y-96702380D01*
X154936190Y-96702380D01*
X154793333Y-96750000D01*
X154698095Y-96845238D01*
X154650476Y-96940476D01*
X154602857Y-97130952D01*
X154602857Y-97273809D01*
X154650476Y-97464285D01*
X154698095Y-97559523D01*
X154793333Y-97654761D01*
X154936190Y-97702380D01*
X155174285Y-97702380D01*
X154221904Y-96797619D02*
X154174285Y-96750000D01*
X154079047Y-96702380D01*
X153840952Y-96702380D01*
X153745714Y-96750000D01*
X153698095Y-96797619D01*
X153650476Y-96892857D01*
X153650476Y-96988095D01*
X153698095Y-97130952D01*
X154269523Y-97702380D01*
X153650476Y-97702380D01*
X152698095Y-97702380D02*
X153269523Y-97702380D01*
X152983809Y-97702380D02*
X152983809Y-96702380D01*
X153079047Y-96845238D01*
X153174285Y-96940476D01*
X153269523Y-96988095D01*
X193534285Y-97672380D02*
X193534285Y-96672380D01*
X193296190Y-96672380D01*
X193153333Y-96720000D01*
X193058095Y-96815238D01*
X193010476Y-96910476D01*
X192962857Y-97100952D01*
X192962857Y-97243809D01*
X193010476Y-97434285D01*
X193058095Y-97529523D01*
X193153333Y-97624761D01*
X193296190Y-97672380D01*
X193534285Y-97672380D01*
X192581904Y-96767619D02*
X192534285Y-96720000D01*
X192439047Y-96672380D01*
X192200952Y-96672380D01*
X192105714Y-96720000D01*
X192058095Y-96767619D01*
X192010476Y-96862857D01*
X192010476Y-96958095D01*
X192058095Y-97100952D01*
X192629523Y-97672380D01*
X192010476Y-97672380D01*
X191629523Y-96767619D02*
X191581904Y-96720000D01*
X191486666Y-96672380D01*
X191248571Y-96672380D01*
X191153333Y-96720000D01*
X191105714Y-96767619D01*
X191058095Y-96862857D01*
X191058095Y-96958095D01*
X191105714Y-97100952D01*
X191677142Y-97672380D01*
X191058095Y-97672380D01*
X231864285Y-97702380D02*
X231864285Y-96702380D01*
X231626190Y-96702380D01*
X231483333Y-96750000D01*
X231388095Y-96845238D01*
X231340476Y-96940476D01*
X231292857Y-97130952D01*
X231292857Y-97273809D01*
X231340476Y-97464285D01*
X231388095Y-97559523D01*
X231483333Y-97654761D01*
X231626190Y-97702380D01*
X231864285Y-97702380D01*
X230911904Y-96797619D02*
X230864285Y-96750000D01*
X230769047Y-96702380D01*
X230530952Y-96702380D01*
X230435714Y-96750000D01*
X230388095Y-96797619D01*
X230340476Y-96892857D01*
X230340476Y-96988095D01*
X230388095Y-97130952D01*
X230959523Y-97702380D01*
X230340476Y-97702380D01*
X230007142Y-96702380D02*
X229388095Y-96702380D01*
X229721428Y-97083333D01*
X229578571Y-97083333D01*
X229483333Y-97130952D01*
X229435714Y-97178571D01*
X229388095Y-97273809D01*
X229388095Y-97511904D01*
X229435714Y-97607142D01*
X229483333Y-97654761D01*
X229578571Y-97702380D01*
X229864285Y-97702380D01*
X229959523Y-97654761D01*
X230007142Y-97607142D01*
X289434285Y-116932380D02*
X289434285Y-115932380D01*
X289196190Y-115932380D01*
X289053333Y-115980000D01*
X288958095Y-116075238D01*
X288910476Y-116170476D01*
X288862857Y-116360952D01*
X288862857Y-116503809D01*
X288910476Y-116694285D01*
X288958095Y-116789523D01*
X289053333Y-116884761D01*
X289196190Y-116932380D01*
X289434285Y-116932380D01*
X288481904Y-116027619D02*
X288434285Y-115980000D01*
X288339047Y-115932380D01*
X288100952Y-115932380D01*
X288005714Y-115980000D01*
X287958095Y-116027619D01*
X287910476Y-116122857D01*
X287910476Y-116218095D01*
X287958095Y-116360952D01*
X288529523Y-116932380D01*
X287910476Y-116932380D01*
X287053333Y-116265714D02*
X287053333Y-116932380D01*
X287291428Y-115884761D02*
X287529523Y-116599047D01*
X286910476Y-116599047D01*
X1624285Y-97742380D02*
X1624285Y-96742380D01*
X1386190Y-96742380D01*
X1243333Y-96790000D01*
X1148095Y-96885238D01*
X1100476Y-96980476D01*
X1052857Y-97170952D01*
X1052857Y-97313809D01*
X1100476Y-97504285D01*
X1148095Y-97599523D01*
X1243333Y-97694761D01*
X1386190Y-97742380D01*
X1624285Y-97742380D01*
X671904Y-96837619D02*
X624285Y-96790000D01*
X529047Y-96742380D01*
X290952Y-96742380D01*
X195714Y-96790000D01*
X148095Y-96837619D01*
X100476Y-96932857D01*
X100476Y-97028095D01*
X148095Y-97170952D01*
X719523Y-97742380D01*
X100476Y-97742380D01*
X-804285Y-96742380D02*
X-328095Y-96742380D01*
X-280476Y-97218571D01*
X-328095Y-97170952D01*
X-423333Y-97123333D01*
X-661428Y-97123333D01*
X-756666Y-97170952D01*
X-804285Y-97218571D01*
X-851904Y-97313809D01*
X-851904Y-97551904D01*
X-804285Y-97647142D01*
X-756666Y-97694761D01*
X-661428Y-97742380D01*
X-423333Y-97742380D01*
X-328095Y-97694761D01*
X-280476Y-97647142D01*
X25544285Y-116932380D02*
X25544285Y-115932380D01*
X25306190Y-115932380D01*
X25163333Y-115980000D01*
X25068095Y-116075238D01*
X25020476Y-116170476D01*
X24972857Y-116360952D01*
X24972857Y-116503809D01*
X25020476Y-116694285D01*
X25068095Y-116789523D01*
X25163333Y-116884761D01*
X25306190Y-116932380D01*
X25544285Y-116932380D01*
X24591904Y-116027619D02*
X24544285Y-115980000D01*
X24449047Y-115932380D01*
X24210952Y-115932380D01*
X24115714Y-115980000D01*
X24068095Y-116027619D01*
X24020476Y-116122857D01*
X24020476Y-116218095D01*
X24068095Y-116360952D01*
X24639523Y-116932380D01*
X24020476Y-116932380D01*
X23163333Y-115932380D02*
X23353809Y-115932380D01*
X23449047Y-115980000D01*
X23496666Y-116027619D01*
X23591904Y-116170476D01*
X23639523Y-116360952D01*
X23639523Y-116741904D01*
X23591904Y-116837142D01*
X23544285Y-116884761D01*
X23449047Y-116932380D01*
X23258571Y-116932380D01*
X23163333Y-116884761D01*
X23115714Y-116837142D01*
X23068095Y-116741904D01*
X23068095Y-116503809D01*
X23115714Y-116408571D01*
X23163333Y-116360952D01*
X23258571Y-116313333D01*
X23449047Y-116313333D01*
X23544285Y-116360952D01*
X23591904Y-116408571D01*
X23639523Y-116503809D01*
X68654285Y-116932380D02*
X68654285Y-115932380D01*
X68416190Y-115932380D01*
X68273333Y-115980000D01*
X68178095Y-116075238D01*
X68130476Y-116170476D01*
X68082857Y-116360952D01*
X68082857Y-116503809D01*
X68130476Y-116694285D01*
X68178095Y-116789523D01*
X68273333Y-116884761D01*
X68416190Y-116932380D01*
X68654285Y-116932380D01*
X67701904Y-116027619D02*
X67654285Y-115980000D01*
X67559047Y-115932380D01*
X67320952Y-115932380D01*
X67225714Y-115980000D01*
X67178095Y-116027619D01*
X67130476Y-116122857D01*
X67130476Y-116218095D01*
X67178095Y-116360952D01*
X67749523Y-116932380D01*
X67130476Y-116932380D01*
X66797142Y-115932380D02*
X66130476Y-115932380D01*
X66559047Y-116932380D01*
X107074285Y-116932380D02*
X107074285Y-115932380D01*
X106836190Y-115932380D01*
X106693333Y-115980000D01*
X106598095Y-116075238D01*
X106550476Y-116170476D01*
X106502857Y-116360952D01*
X106502857Y-116503809D01*
X106550476Y-116694285D01*
X106598095Y-116789523D01*
X106693333Y-116884761D01*
X106836190Y-116932380D01*
X107074285Y-116932380D01*
X106121904Y-116027619D02*
X106074285Y-115980000D01*
X105979047Y-115932380D01*
X105740952Y-115932380D01*
X105645714Y-115980000D01*
X105598095Y-116027619D01*
X105550476Y-116122857D01*
X105550476Y-116218095D01*
X105598095Y-116360952D01*
X106169523Y-116932380D01*
X105550476Y-116932380D01*
X104979047Y-116360952D02*
X105074285Y-116313333D01*
X105121904Y-116265714D01*
X105169523Y-116170476D01*
X105169523Y-116122857D01*
X105121904Y-116027619D01*
X105074285Y-115980000D01*
X104979047Y-115932380D01*
X104788571Y-115932380D01*
X104693333Y-115980000D01*
X104645714Y-116027619D01*
X104598095Y-116122857D01*
X104598095Y-116170476D01*
X104645714Y-116265714D01*
X104693333Y-116313333D01*
X104788571Y-116360952D01*
X104979047Y-116360952D01*
X105074285Y-116408571D01*
X105121904Y-116456190D01*
X105169523Y-116551428D01*
X105169523Y-116741904D01*
X105121904Y-116837142D01*
X105074285Y-116884761D01*
X104979047Y-116932380D01*
X104788571Y-116932380D01*
X104693333Y-116884761D01*
X104645714Y-116837142D01*
X104598095Y-116741904D01*
X104598095Y-116551428D01*
X104645714Y-116456190D01*
X104693333Y-116408571D01*
X104788571Y-116360952D01*
X145464285Y-116932380D02*
X145464285Y-115932380D01*
X145226190Y-115932380D01*
X145083333Y-115980000D01*
X144988095Y-116075238D01*
X144940476Y-116170476D01*
X144892857Y-116360952D01*
X144892857Y-116503809D01*
X144940476Y-116694285D01*
X144988095Y-116789523D01*
X145083333Y-116884761D01*
X145226190Y-116932380D01*
X145464285Y-116932380D01*
X144511904Y-116027619D02*
X144464285Y-115980000D01*
X144369047Y-115932380D01*
X144130952Y-115932380D01*
X144035714Y-115980000D01*
X143988095Y-116027619D01*
X143940476Y-116122857D01*
X143940476Y-116218095D01*
X143988095Y-116360952D01*
X144559523Y-116932380D01*
X143940476Y-116932380D01*
X143464285Y-116932380D02*
X143273809Y-116932380D01*
X143178571Y-116884761D01*
X143130952Y-116837142D01*
X143035714Y-116694285D01*
X142988095Y-116503809D01*
X142988095Y-116122857D01*
X143035714Y-116027619D01*
X143083333Y-115980000D01*
X143178571Y-115932380D01*
X143369047Y-115932380D01*
X143464285Y-115980000D01*
X143511904Y-116027619D01*
X143559523Y-116122857D01*
X143559523Y-116360952D01*
X143511904Y-116456190D01*
X143464285Y-116503809D01*
X143369047Y-116551428D01*
X143178571Y-116551428D01*
X143083333Y-116503809D01*
X143035714Y-116456190D01*
X142988095Y-116360952D01*
X183854285Y-116932380D02*
X183854285Y-115932380D01*
X183616190Y-115932380D01*
X183473333Y-115980000D01*
X183378095Y-116075238D01*
X183330476Y-116170476D01*
X183282857Y-116360952D01*
X183282857Y-116503809D01*
X183330476Y-116694285D01*
X183378095Y-116789523D01*
X183473333Y-116884761D01*
X183616190Y-116932380D01*
X183854285Y-116932380D01*
X182949523Y-115932380D02*
X182330476Y-115932380D01*
X182663809Y-116313333D01*
X182520952Y-116313333D01*
X182425714Y-116360952D01*
X182378095Y-116408571D01*
X182330476Y-116503809D01*
X182330476Y-116741904D01*
X182378095Y-116837142D01*
X182425714Y-116884761D01*
X182520952Y-116932380D01*
X182806666Y-116932380D01*
X182901904Y-116884761D01*
X182949523Y-116837142D01*
X181711428Y-115932380D02*
X181616190Y-115932380D01*
X181520952Y-115980000D01*
X181473333Y-116027619D01*
X181425714Y-116122857D01*
X181378095Y-116313333D01*
X181378095Y-116551428D01*
X181425714Y-116741904D01*
X181473333Y-116837142D01*
X181520952Y-116884761D01*
X181616190Y-116932380D01*
X181711428Y-116932380D01*
X181806666Y-116884761D01*
X181854285Y-116837142D01*
X181901904Y-116741904D01*
X181949523Y-116551428D01*
X181949523Y-116313333D01*
X181901904Y-116122857D01*
X181854285Y-116027619D01*
X181806666Y-115980000D01*
X181711428Y-115932380D01*
X222324285Y-116932380D02*
X222324285Y-115932380D01*
X222086190Y-115932380D01*
X221943333Y-115980000D01*
X221848095Y-116075238D01*
X221800476Y-116170476D01*
X221752857Y-116360952D01*
X221752857Y-116503809D01*
X221800476Y-116694285D01*
X221848095Y-116789523D01*
X221943333Y-116884761D01*
X222086190Y-116932380D01*
X222324285Y-116932380D01*
X221419523Y-115932380D02*
X220800476Y-115932380D01*
X221133809Y-116313333D01*
X220990952Y-116313333D01*
X220895714Y-116360952D01*
X220848095Y-116408571D01*
X220800476Y-116503809D01*
X220800476Y-116741904D01*
X220848095Y-116837142D01*
X220895714Y-116884761D01*
X220990952Y-116932380D01*
X221276666Y-116932380D01*
X221371904Y-116884761D01*
X221419523Y-116837142D01*
X219848095Y-116932380D02*
X220419523Y-116932380D01*
X220133809Y-116932380D02*
X220133809Y-115932380D01*
X220229047Y-116075238D01*
X220324285Y-116170476D01*
X220419523Y-116218095D01*
X270184285Y-116932380D02*
X270184285Y-115932380D01*
X269946190Y-115932380D01*
X269803333Y-115980000D01*
X269708095Y-116075238D01*
X269660476Y-116170476D01*
X269612857Y-116360952D01*
X269612857Y-116503809D01*
X269660476Y-116694285D01*
X269708095Y-116789523D01*
X269803333Y-116884761D01*
X269946190Y-116932380D01*
X270184285Y-116932380D01*
X269279523Y-115932380D02*
X268660476Y-115932380D01*
X268993809Y-116313333D01*
X268850952Y-116313333D01*
X268755714Y-116360952D01*
X268708095Y-116408571D01*
X268660476Y-116503809D01*
X268660476Y-116741904D01*
X268708095Y-116837142D01*
X268755714Y-116884761D01*
X268850952Y-116932380D01*
X269136666Y-116932380D01*
X269231904Y-116884761D01*
X269279523Y-116837142D01*
X268279523Y-116027619D02*
X268231904Y-115980000D01*
X268136666Y-115932380D01*
X267898571Y-115932380D01*
X267803333Y-115980000D01*
X267755714Y-116027619D01*
X267708095Y-116122857D01*
X267708095Y-116218095D01*
X267755714Y-116360952D01*
X268327142Y-116932380D01*
X267708095Y-116932380D01*
X130334285Y-136152380D02*
X130334285Y-135152380D01*
X130096190Y-135152380D01*
X129953333Y-135200000D01*
X129858095Y-135295238D01*
X129810476Y-135390476D01*
X129762857Y-135580952D01*
X129762857Y-135723809D01*
X129810476Y-135914285D01*
X129858095Y-136009523D01*
X129953333Y-136104761D01*
X130096190Y-136152380D01*
X130334285Y-136152380D01*
X129429523Y-135152380D02*
X128810476Y-135152380D01*
X129143809Y-135533333D01*
X129000952Y-135533333D01*
X128905714Y-135580952D01*
X128858095Y-135628571D01*
X128810476Y-135723809D01*
X128810476Y-135961904D01*
X128858095Y-136057142D01*
X128905714Y-136104761D01*
X129000952Y-136152380D01*
X129286666Y-136152380D01*
X129381904Y-136104761D01*
X129429523Y-136057142D01*
X128477142Y-135152380D02*
X127858095Y-135152380D01*
X128191428Y-135533333D01*
X128048571Y-135533333D01*
X127953333Y-135580952D01*
X127905714Y-135628571D01*
X127858095Y-135723809D01*
X127858095Y-135961904D01*
X127905714Y-136057142D01*
X127953333Y-136104761D01*
X128048571Y-136152380D01*
X128334285Y-136152380D01*
X128429523Y-136104761D01*
X128477142Y-136057142D01*
X49404285Y-116932380D02*
X49404285Y-115932380D01*
X49166190Y-115932380D01*
X49023333Y-115980000D01*
X48928095Y-116075238D01*
X48880476Y-116170476D01*
X48832857Y-116360952D01*
X48832857Y-116503809D01*
X48880476Y-116694285D01*
X48928095Y-116789523D01*
X49023333Y-116884761D01*
X49166190Y-116932380D01*
X49404285Y-116932380D01*
X48499523Y-115932380D02*
X47880476Y-115932380D01*
X48213809Y-116313333D01*
X48070952Y-116313333D01*
X47975714Y-116360952D01*
X47928095Y-116408571D01*
X47880476Y-116503809D01*
X47880476Y-116741904D01*
X47928095Y-116837142D01*
X47975714Y-116884761D01*
X48070952Y-116932380D01*
X48356666Y-116932380D01*
X48451904Y-116884761D01*
X48499523Y-116837142D01*
X47023333Y-116265714D02*
X47023333Y-116932380D01*
X47261428Y-115884761D02*
X47499523Y-116599047D01*
X46880476Y-116599047D01*
X87854285Y-116932380D02*
X87854285Y-115932380D01*
X87616190Y-115932380D01*
X87473333Y-115980000D01*
X87378095Y-116075238D01*
X87330476Y-116170476D01*
X87282857Y-116360952D01*
X87282857Y-116503809D01*
X87330476Y-116694285D01*
X87378095Y-116789523D01*
X87473333Y-116884761D01*
X87616190Y-116932380D01*
X87854285Y-116932380D01*
X86949523Y-115932380D02*
X86330476Y-115932380D01*
X86663809Y-116313333D01*
X86520952Y-116313333D01*
X86425714Y-116360952D01*
X86378095Y-116408571D01*
X86330476Y-116503809D01*
X86330476Y-116741904D01*
X86378095Y-116837142D01*
X86425714Y-116884761D01*
X86520952Y-116932380D01*
X86806666Y-116932380D01*
X86901904Y-116884761D01*
X86949523Y-116837142D01*
X85425714Y-115932380D02*
X85901904Y-115932380D01*
X85949523Y-116408571D01*
X85901904Y-116360952D01*
X85806666Y-116313333D01*
X85568571Y-116313333D01*
X85473333Y-116360952D01*
X85425714Y-116408571D01*
X85378095Y-116503809D01*
X85378095Y-116741904D01*
X85425714Y-116837142D01*
X85473333Y-116884761D01*
X85568571Y-116932380D01*
X85806666Y-116932380D01*
X85901904Y-116884761D01*
X85949523Y-116837142D01*
X126274285Y-116962380D02*
X126274285Y-115962380D01*
X126036190Y-115962380D01*
X125893333Y-116010000D01*
X125798095Y-116105238D01*
X125750476Y-116200476D01*
X125702857Y-116390952D01*
X125702857Y-116533809D01*
X125750476Y-116724285D01*
X125798095Y-116819523D01*
X125893333Y-116914761D01*
X126036190Y-116962380D01*
X126274285Y-116962380D01*
X125369523Y-115962380D02*
X124750476Y-115962380D01*
X125083809Y-116343333D01*
X124940952Y-116343333D01*
X124845714Y-116390952D01*
X124798095Y-116438571D01*
X124750476Y-116533809D01*
X124750476Y-116771904D01*
X124798095Y-116867142D01*
X124845714Y-116914761D01*
X124940952Y-116962380D01*
X125226666Y-116962380D01*
X125321904Y-116914761D01*
X125369523Y-116867142D01*
X123893333Y-115962380D02*
X124083809Y-115962380D01*
X124179047Y-116010000D01*
X124226666Y-116057619D01*
X124321904Y-116200476D01*
X124369523Y-116390952D01*
X124369523Y-116771904D01*
X124321904Y-116867142D01*
X124274285Y-116914761D01*
X124179047Y-116962380D01*
X123988571Y-116962380D01*
X123893333Y-116914761D01*
X123845714Y-116867142D01*
X123798095Y-116771904D01*
X123798095Y-116533809D01*
X123845714Y-116438571D01*
X123893333Y-116390952D01*
X123988571Y-116343333D01*
X124179047Y-116343333D01*
X124274285Y-116390952D01*
X124321904Y-116438571D01*
X124369523Y-116533809D01*
X164744285Y-116932380D02*
X164744285Y-115932380D01*
X164506190Y-115932380D01*
X164363333Y-115980000D01*
X164268095Y-116075238D01*
X164220476Y-116170476D01*
X164172857Y-116360952D01*
X164172857Y-116503809D01*
X164220476Y-116694285D01*
X164268095Y-116789523D01*
X164363333Y-116884761D01*
X164506190Y-116932380D01*
X164744285Y-116932380D01*
X163839523Y-115932380D02*
X163220476Y-115932380D01*
X163553809Y-116313333D01*
X163410952Y-116313333D01*
X163315714Y-116360952D01*
X163268095Y-116408571D01*
X163220476Y-116503809D01*
X163220476Y-116741904D01*
X163268095Y-116837142D01*
X163315714Y-116884761D01*
X163410952Y-116932380D01*
X163696666Y-116932380D01*
X163791904Y-116884761D01*
X163839523Y-116837142D01*
X162887142Y-115932380D02*
X162220476Y-115932380D01*
X162649047Y-116932380D01*
X203074285Y-116932380D02*
X203074285Y-115932380D01*
X202836190Y-115932380D01*
X202693333Y-115980000D01*
X202598095Y-116075238D01*
X202550476Y-116170476D01*
X202502857Y-116360952D01*
X202502857Y-116503809D01*
X202550476Y-116694285D01*
X202598095Y-116789523D01*
X202693333Y-116884761D01*
X202836190Y-116932380D01*
X203074285Y-116932380D01*
X202169523Y-115932380D02*
X201550476Y-115932380D01*
X201883809Y-116313333D01*
X201740952Y-116313333D01*
X201645714Y-116360952D01*
X201598095Y-116408571D01*
X201550476Y-116503809D01*
X201550476Y-116741904D01*
X201598095Y-116837142D01*
X201645714Y-116884761D01*
X201740952Y-116932380D01*
X202026666Y-116932380D01*
X202121904Y-116884761D01*
X202169523Y-116837142D01*
X200979047Y-116360952D02*
X201074285Y-116313333D01*
X201121904Y-116265714D01*
X201169523Y-116170476D01*
X201169523Y-116122857D01*
X201121904Y-116027619D01*
X201074285Y-115980000D01*
X200979047Y-115932380D01*
X200788571Y-115932380D01*
X200693333Y-115980000D01*
X200645714Y-116027619D01*
X200598095Y-116122857D01*
X200598095Y-116170476D01*
X200645714Y-116265714D01*
X200693333Y-116313333D01*
X200788571Y-116360952D01*
X200979047Y-116360952D01*
X201074285Y-116408571D01*
X201121904Y-116456190D01*
X201169523Y-116551428D01*
X201169523Y-116741904D01*
X201121904Y-116837142D01*
X201074285Y-116884761D01*
X200979047Y-116932380D01*
X200788571Y-116932380D01*
X200693333Y-116884761D01*
X200645714Y-116837142D01*
X200598095Y-116741904D01*
X200598095Y-116551428D01*
X200645714Y-116456190D01*
X200693333Y-116408571D01*
X200788571Y-116360952D01*
X246264285Y-116932380D02*
X246264285Y-115932380D01*
X246026190Y-115932380D01*
X245883333Y-115980000D01*
X245788095Y-116075238D01*
X245740476Y-116170476D01*
X245692857Y-116360952D01*
X245692857Y-116503809D01*
X245740476Y-116694285D01*
X245788095Y-116789523D01*
X245883333Y-116884761D01*
X246026190Y-116932380D01*
X246264285Y-116932380D01*
X245359523Y-115932380D02*
X244740476Y-115932380D01*
X245073809Y-116313333D01*
X244930952Y-116313333D01*
X244835714Y-116360952D01*
X244788095Y-116408571D01*
X244740476Y-116503809D01*
X244740476Y-116741904D01*
X244788095Y-116837142D01*
X244835714Y-116884761D01*
X244930952Y-116932380D01*
X245216666Y-116932380D01*
X245311904Y-116884761D01*
X245359523Y-116837142D01*
X244264285Y-116932380D02*
X244073809Y-116932380D01*
X243978571Y-116884761D01*
X243930952Y-116837142D01*
X243835714Y-116694285D01*
X243788095Y-116503809D01*
X243788095Y-116122857D01*
X243835714Y-116027619D01*
X243883333Y-115980000D01*
X243978571Y-115932380D01*
X244169047Y-115932380D01*
X244264285Y-115980000D01*
X244311904Y-116027619D01*
X244359523Y-116122857D01*
X244359523Y-116360952D01*
X244311904Y-116456190D01*
X244264285Y-116503809D01*
X244169047Y-116551428D01*
X243978571Y-116551428D01*
X243883333Y-116503809D01*
X243835714Y-116456190D01*
X243788095Y-116360952D01*
X338284285Y-59762380D02*
X338284285Y-58762380D01*
X338046190Y-58762380D01*
X337903333Y-58810000D01*
X337808095Y-58905238D01*
X337760476Y-59000476D01*
X337712857Y-59190952D01*
X337712857Y-59333809D01*
X337760476Y-59524285D01*
X337808095Y-59619523D01*
X337903333Y-59714761D01*
X338046190Y-59762380D01*
X338284285Y-59762380D01*
X336855714Y-59095714D02*
X336855714Y-59762380D01*
X337093809Y-58714761D02*
X337331904Y-59429047D01*
X336712857Y-59429047D01*
X336141428Y-58762380D02*
X336046190Y-58762380D01*
X335950952Y-58810000D01*
X335903333Y-58857619D01*
X335855714Y-58952857D01*
X335808095Y-59143333D01*
X335808095Y-59381428D01*
X335855714Y-59571904D01*
X335903333Y-59667142D01*
X335950952Y-59714761D01*
X336046190Y-59762380D01*
X336141428Y-59762380D01*
X336236666Y-59714761D01*
X336284285Y-59667142D01*
X336331904Y-59571904D01*
X336379523Y-59381428D01*
X336379523Y-59143333D01*
X336331904Y-58952857D01*
X336284285Y-58857619D01*
X336236666Y-58810000D01*
X336141428Y-58762380D01*
X1604285Y-116962380D02*
X1604285Y-115962380D01*
X1366190Y-115962380D01*
X1223333Y-116010000D01*
X1128095Y-116105238D01*
X1080476Y-116200476D01*
X1032857Y-116390952D01*
X1032857Y-116533809D01*
X1080476Y-116724285D01*
X1128095Y-116819523D01*
X1223333Y-116914761D01*
X1366190Y-116962380D01*
X1604285Y-116962380D01*
X175714Y-116295714D02*
X175714Y-116962380D01*
X413809Y-115914761D02*
X651904Y-116629047D01*
X32857Y-116629047D01*
X-871904Y-116962380D02*
X-300476Y-116962380D01*
X-586190Y-116962380D02*
X-586190Y-115962380D01*
X-490952Y-116105238D01*
X-395714Y-116200476D01*
X-300476Y-116248095D01*
X59234285Y-97702380D02*
X59234285Y-96702380D01*
X58996190Y-96702380D01*
X58853333Y-96750000D01*
X58758095Y-96845238D01*
X58710476Y-96940476D01*
X58662857Y-97130952D01*
X58662857Y-97273809D01*
X58710476Y-97464285D01*
X58758095Y-97559523D01*
X58853333Y-97654761D01*
X58996190Y-97702380D01*
X59234285Y-97702380D01*
X57805714Y-97035714D02*
X57805714Y-97702380D01*
X58043809Y-96654761D02*
X58281904Y-97369047D01*
X57662857Y-97369047D01*
X57329523Y-96797619D02*
X57281904Y-96750000D01*
X57186666Y-96702380D01*
X56948571Y-96702380D01*
X56853333Y-96750000D01*
X56805714Y-96797619D01*
X56758095Y-96892857D01*
X56758095Y-96988095D01*
X56805714Y-97130952D01*
X57377142Y-97702380D01*
X56758095Y-97702380D01*
X97604285Y-97702380D02*
X97604285Y-96702380D01*
X97366190Y-96702380D01*
X97223333Y-96750000D01*
X97128095Y-96845238D01*
X97080476Y-96940476D01*
X97032857Y-97130952D01*
X97032857Y-97273809D01*
X97080476Y-97464285D01*
X97128095Y-97559523D01*
X97223333Y-97654761D01*
X97366190Y-97702380D01*
X97604285Y-97702380D01*
X96175714Y-97035714D02*
X96175714Y-97702380D01*
X96413809Y-96654761D02*
X96651904Y-97369047D01*
X96032857Y-97369047D01*
X95747142Y-96702380D02*
X95128095Y-96702380D01*
X95461428Y-97083333D01*
X95318571Y-97083333D01*
X95223333Y-97130952D01*
X95175714Y-97178571D01*
X95128095Y-97273809D01*
X95128095Y-97511904D01*
X95175714Y-97607142D01*
X95223333Y-97654761D01*
X95318571Y-97702380D01*
X95604285Y-97702380D01*
X95699523Y-97654761D01*
X95747142Y-97607142D01*
X135974285Y-97702380D02*
X135974285Y-96702380D01*
X135736190Y-96702380D01*
X135593333Y-96750000D01*
X135498095Y-96845238D01*
X135450476Y-96940476D01*
X135402857Y-97130952D01*
X135402857Y-97273809D01*
X135450476Y-97464285D01*
X135498095Y-97559523D01*
X135593333Y-97654761D01*
X135736190Y-97702380D01*
X135974285Y-97702380D01*
X134545714Y-97035714D02*
X134545714Y-97702380D01*
X134783809Y-96654761D02*
X135021904Y-97369047D01*
X134402857Y-97369047D01*
X133593333Y-97035714D02*
X133593333Y-97702380D01*
X133831428Y-96654761D02*
X134069523Y-97369047D01*
X133450476Y-97369047D01*
X174264285Y-97702380D02*
X174264285Y-96702380D01*
X174026190Y-96702380D01*
X173883333Y-96750000D01*
X173788095Y-96845238D01*
X173740476Y-96940476D01*
X173692857Y-97130952D01*
X173692857Y-97273809D01*
X173740476Y-97464285D01*
X173788095Y-97559523D01*
X173883333Y-97654761D01*
X174026190Y-97702380D01*
X174264285Y-97702380D01*
X172835714Y-97035714D02*
X172835714Y-97702380D01*
X173073809Y-96654761D02*
X173311904Y-97369047D01*
X172692857Y-97369047D01*
X171835714Y-96702380D02*
X172311904Y-96702380D01*
X172359523Y-97178571D01*
X172311904Y-97130952D01*
X172216666Y-97083333D01*
X171978571Y-97083333D01*
X171883333Y-97130952D01*
X171835714Y-97178571D01*
X171788095Y-97273809D01*
X171788095Y-97511904D01*
X171835714Y-97607142D01*
X171883333Y-97654761D01*
X171978571Y-97702380D01*
X172216666Y-97702380D01*
X172311904Y-97654761D01*
X172359523Y-97607142D01*
X212704285Y-97702380D02*
X212704285Y-96702380D01*
X212466190Y-96702380D01*
X212323333Y-96750000D01*
X212228095Y-96845238D01*
X212180476Y-96940476D01*
X212132857Y-97130952D01*
X212132857Y-97273809D01*
X212180476Y-97464285D01*
X212228095Y-97559523D01*
X212323333Y-97654761D01*
X212466190Y-97702380D01*
X212704285Y-97702380D01*
X211275714Y-97035714D02*
X211275714Y-97702380D01*
X211513809Y-96654761D02*
X211751904Y-97369047D01*
X211132857Y-97369047D01*
X210323333Y-96702380D02*
X210513809Y-96702380D01*
X210609047Y-96750000D01*
X210656666Y-96797619D01*
X210751904Y-96940476D01*
X210799523Y-97130952D01*
X210799523Y-97511904D01*
X210751904Y-97607142D01*
X210704285Y-97654761D01*
X210609047Y-97702380D01*
X210418571Y-97702380D01*
X210323333Y-97654761D01*
X210275714Y-97607142D01*
X210228095Y-97511904D01*
X210228095Y-97273809D01*
X210275714Y-97178571D01*
X210323333Y-97130952D01*
X210418571Y-97083333D01*
X210609047Y-97083333D01*
X210704285Y-97130952D01*
X210751904Y-97178571D01*
X210799523Y-97273809D01*
X250994285Y-97742380D02*
X250994285Y-96742380D01*
X250756190Y-96742380D01*
X250613333Y-96790000D01*
X250518095Y-96885238D01*
X250470476Y-96980476D01*
X250422857Y-97170952D01*
X250422857Y-97313809D01*
X250470476Y-97504285D01*
X250518095Y-97599523D01*
X250613333Y-97694761D01*
X250756190Y-97742380D01*
X250994285Y-97742380D01*
X249565714Y-97075714D02*
X249565714Y-97742380D01*
X249803809Y-96694761D02*
X250041904Y-97409047D01*
X249422857Y-97409047D01*
X249137142Y-96742380D02*
X248470476Y-96742380D01*
X248899047Y-97742380D01*
X338284285Y-79042380D02*
X338284285Y-78042380D01*
X338046190Y-78042380D01*
X337903333Y-78090000D01*
X337808095Y-78185238D01*
X337760476Y-78280476D01*
X337712857Y-78470952D01*
X337712857Y-78613809D01*
X337760476Y-78804285D01*
X337808095Y-78899523D01*
X337903333Y-78994761D01*
X338046190Y-79042380D01*
X338284285Y-79042380D01*
X336855714Y-78375714D02*
X336855714Y-79042380D01*
X337093809Y-77994761D02*
X337331904Y-78709047D01*
X336712857Y-78709047D01*
X336189047Y-78470952D02*
X336284285Y-78423333D01*
X336331904Y-78375714D01*
X336379523Y-78280476D01*
X336379523Y-78232857D01*
X336331904Y-78137619D01*
X336284285Y-78090000D01*
X336189047Y-78042380D01*
X335998571Y-78042380D01*
X335903333Y-78090000D01*
X335855714Y-78137619D01*
X335808095Y-78232857D01*
X335808095Y-78280476D01*
X335855714Y-78375714D01*
X335903333Y-78423333D01*
X335998571Y-78470952D01*
X336189047Y-78470952D01*
X336284285Y-78518571D01*
X336331904Y-78566190D01*
X336379523Y-78661428D01*
X336379523Y-78851904D01*
X336331904Y-78947142D01*
X336284285Y-78994761D01*
X336189047Y-79042380D01*
X335998571Y-79042380D01*
X335903333Y-78994761D01*
X335855714Y-78947142D01*
X335808095Y-78851904D01*
X335808095Y-78661428D01*
X335855714Y-78566190D01*
X335903333Y-78518571D01*
X335998571Y-78470952D01*
X34094285Y-78542380D02*
X34094285Y-77542380D01*
X33856190Y-77542380D01*
X33713333Y-77590000D01*
X33618095Y-77685238D01*
X33570476Y-77780476D01*
X33522857Y-77970952D01*
X33522857Y-78113809D01*
X33570476Y-78304285D01*
X33618095Y-78399523D01*
X33713333Y-78494761D01*
X33856190Y-78542380D01*
X34094285Y-78542380D01*
X32665714Y-77875714D02*
X32665714Y-78542380D01*
X32903809Y-77494761D02*
X33141904Y-78209047D01*
X32522857Y-78209047D01*
X32094285Y-78542380D02*
X31903809Y-78542380D01*
X31808571Y-78494761D01*
X31760952Y-78447142D01*
X31665714Y-78304285D01*
X31618095Y-78113809D01*
X31618095Y-77732857D01*
X31665714Y-77637619D01*
X31713333Y-77590000D01*
X31808571Y-77542380D01*
X31999047Y-77542380D01*
X32094285Y-77590000D01*
X32141904Y-77637619D01*
X32189523Y-77732857D01*
X32189523Y-77970952D01*
X32141904Y-78066190D01*
X32094285Y-78113809D01*
X31999047Y-78161428D01*
X31808571Y-78161428D01*
X31713333Y-78113809D01*
X31665714Y-78066190D01*
X31618095Y-77970952D01*
X72574285Y-78542380D02*
X72574285Y-77542380D01*
X72336190Y-77542380D01*
X72193333Y-77590000D01*
X72098095Y-77685238D01*
X72050476Y-77780476D01*
X72002857Y-77970952D01*
X72002857Y-78113809D01*
X72050476Y-78304285D01*
X72098095Y-78399523D01*
X72193333Y-78494761D01*
X72336190Y-78542380D01*
X72574285Y-78542380D01*
X71098095Y-77542380D02*
X71574285Y-77542380D01*
X71621904Y-78018571D01*
X71574285Y-77970952D01*
X71479047Y-77923333D01*
X71240952Y-77923333D01*
X71145714Y-77970952D01*
X71098095Y-78018571D01*
X71050476Y-78113809D01*
X71050476Y-78351904D01*
X71098095Y-78447142D01*
X71145714Y-78494761D01*
X71240952Y-78542380D01*
X71479047Y-78542380D01*
X71574285Y-78494761D01*
X71621904Y-78447142D01*
X70431428Y-77542380D02*
X70336190Y-77542380D01*
X70240952Y-77590000D01*
X70193333Y-77637619D01*
X70145714Y-77732857D01*
X70098095Y-77923333D01*
X70098095Y-78161428D01*
X70145714Y-78351904D01*
X70193333Y-78447142D01*
X70240952Y-78494761D01*
X70336190Y-78542380D01*
X70431428Y-78542380D01*
X70526666Y-78494761D01*
X70574285Y-78447142D01*
X70621904Y-78351904D01*
X70669523Y-78161428D01*
X70669523Y-77923333D01*
X70621904Y-77732857D01*
X70574285Y-77637619D01*
X70526666Y-77590000D01*
X70431428Y-77542380D01*
X110974285Y-78582380D02*
X110974285Y-77582380D01*
X110736190Y-77582380D01*
X110593333Y-77630000D01*
X110498095Y-77725238D01*
X110450476Y-77820476D01*
X110402857Y-78010952D01*
X110402857Y-78153809D01*
X110450476Y-78344285D01*
X110498095Y-78439523D01*
X110593333Y-78534761D01*
X110736190Y-78582380D01*
X110974285Y-78582380D01*
X109498095Y-77582380D02*
X109974285Y-77582380D01*
X110021904Y-78058571D01*
X109974285Y-78010952D01*
X109879047Y-77963333D01*
X109640952Y-77963333D01*
X109545714Y-78010952D01*
X109498095Y-78058571D01*
X109450476Y-78153809D01*
X109450476Y-78391904D01*
X109498095Y-78487142D01*
X109545714Y-78534761D01*
X109640952Y-78582380D01*
X109879047Y-78582380D01*
X109974285Y-78534761D01*
X110021904Y-78487142D01*
X108498095Y-78582380D02*
X109069523Y-78582380D01*
X108783809Y-78582380D02*
X108783809Y-77582380D01*
X108879047Y-77725238D01*
X108974285Y-77820476D01*
X109069523Y-77868095D01*
X149304285Y-78542380D02*
X149304285Y-77542380D01*
X149066190Y-77542380D01*
X148923333Y-77590000D01*
X148828095Y-77685238D01*
X148780476Y-77780476D01*
X148732857Y-77970952D01*
X148732857Y-78113809D01*
X148780476Y-78304285D01*
X148828095Y-78399523D01*
X148923333Y-78494761D01*
X149066190Y-78542380D01*
X149304285Y-78542380D01*
X147828095Y-77542380D02*
X148304285Y-77542380D01*
X148351904Y-78018571D01*
X148304285Y-77970952D01*
X148209047Y-77923333D01*
X147970952Y-77923333D01*
X147875714Y-77970952D01*
X147828095Y-78018571D01*
X147780476Y-78113809D01*
X147780476Y-78351904D01*
X147828095Y-78447142D01*
X147875714Y-78494761D01*
X147970952Y-78542380D01*
X148209047Y-78542380D01*
X148304285Y-78494761D01*
X148351904Y-78447142D01*
X147399523Y-77637619D02*
X147351904Y-77590000D01*
X147256666Y-77542380D01*
X147018571Y-77542380D01*
X146923333Y-77590000D01*
X146875714Y-77637619D01*
X146828095Y-77732857D01*
X146828095Y-77828095D01*
X146875714Y-77970952D01*
X147447142Y-78542380D01*
X146828095Y-78542380D01*
X187744285Y-78542380D02*
X187744285Y-77542380D01*
X187506190Y-77542380D01*
X187363333Y-77590000D01*
X187268095Y-77685238D01*
X187220476Y-77780476D01*
X187172857Y-77970952D01*
X187172857Y-78113809D01*
X187220476Y-78304285D01*
X187268095Y-78399523D01*
X187363333Y-78494761D01*
X187506190Y-78542380D01*
X187744285Y-78542380D01*
X186268095Y-77542380D02*
X186744285Y-77542380D01*
X186791904Y-78018571D01*
X186744285Y-77970952D01*
X186649047Y-77923333D01*
X186410952Y-77923333D01*
X186315714Y-77970952D01*
X186268095Y-78018571D01*
X186220476Y-78113809D01*
X186220476Y-78351904D01*
X186268095Y-78447142D01*
X186315714Y-78494761D01*
X186410952Y-78542380D01*
X186649047Y-78542380D01*
X186744285Y-78494761D01*
X186791904Y-78447142D01*
X185887142Y-77542380D02*
X185268095Y-77542380D01*
X185601428Y-77923333D01*
X185458571Y-77923333D01*
X185363333Y-77970952D01*
X185315714Y-78018571D01*
X185268095Y-78113809D01*
X185268095Y-78351904D01*
X185315714Y-78447142D01*
X185363333Y-78494761D01*
X185458571Y-78542380D01*
X185744285Y-78542380D01*
X185839523Y-78494761D01*
X185887142Y-78447142D01*
X226154285Y-78542380D02*
X226154285Y-77542380D01*
X225916190Y-77542380D01*
X225773333Y-77590000D01*
X225678095Y-77685238D01*
X225630476Y-77780476D01*
X225582857Y-77970952D01*
X225582857Y-78113809D01*
X225630476Y-78304285D01*
X225678095Y-78399523D01*
X225773333Y-78494761D01*
X225916190Y-78542380D01*
X226154285Y-78542380D01*
X224678095Y-77542380D02*
X225154285Y-77542380D01*
X225201904Y-78018571D01*
X225154285Y-77970952D01*
X225059047Y-77923333D01*
X224820952Y-77923333D01*
X224725714Y-77970952D01*
X224678095Y-78018571D01*
X224630476Y-78113809D01*
X224630476Y-78351904D01*
X224678095Y-78447142D01*
X224725714Y-78494761D01*
X224820952Y-78542380D01*
X225059047Y-78542380D01*
X225154285Y-78494761D01*
X225201904Y-78447142D01*
X223773333Y-77875714D02*
X223773333Y-78542380D01*
X224011428Y-77494761D02*
X224249523Y-78209047D01*
X223630476Y-78209047D01*
X264444285Y-78542380D02*
X264444285Y-77542380D01*
X264206190Y-77542380D01*
X264063333Y-77590000D01*
X263968095Y-77685238D01*
X263920476Y-77780476D01*
X263872857Y-77970952D01*
X263872857Y-78113809D01*
X263920476Y-78304285D01*
X263968095Y-78399523D01*
X264063333Y-78494761D01*
X264206190Y-78542380D01*
X264444285Y-78542380D01*
X262968095Y-77542380D02*
X263444285Y-77542380D01*
X263491904Y-78018571D01*
X263444285Y-77970952D01*
X263349047Y-77923333D01*
X263110952Y-77923333D01*
X263015714Y-77970952D01*
X262968095Y-78018571D01*
X262920476Y-78113809D01*
X262920476Y-78351904D01*
X262968095Y-78447142D01*
X263015714Y-78494761D01*
X263110952Y-78542380D01*
X263349047Y-78542380D01*
X263444285Y-78494761D01*
X263491904Y-78447142D01*
X262015714Y-77542380D02*
X262491904Y-77542380D01*
X262539523Y-78018571D01*
X262491904Y-77970952D01*
X262396666Y-77923333D01*
X262158571Y-77923333D01*
X262063333Y-77970952D01*
X262015714Y-78018571D01*
X261968095Y-78113809D01*
X261968095Y-78351904D01*
X262015714Y-78447142D01*
X262063333Y-78494761D01*
X262158571Y-78542380D01*
X262396666Y-78542380D01*
X262491904Y-78494761D01*
X262539523Y-78447142D01*
X338284285Y-98352380D02*
X338284285Y-97352380D01*
X338046190Y-97352380D01*
X337903333Y-97400000D01*
X337808095Y-97495238D01*
X337760476Y-97590476D01*
X337712857Y-97780952D01*
X337712857Y-97923809D01*
X337760476Y-98114285D01*
X337808095Y-98209523D01*
X337903333Y-98304761D01*
X338046190Y-98352380D01*
X338284285Y-98352380D01*
X336808095Y-97352380D02*
X337284285Y-97352380D01*
X337331904Y-97828571D01*
X337284285Y-97780952D01*
X337189047Y-97733333D01*
X336950952Y-97733333D01*
X336855714Y-97780952D01*
X336808095Y-97828571D01*
X336760476Y-97923809D01*
X336760476Y-98161904D01*
X336808095Y-98257142D01*
X336855714Y-98304761D01*
X336950952Y-98352380D01*
X337189047Y-98352380D01*
X337284285Y-98304761D01*
X337331904Y-98257142D01*
X335903333Y-97352380D02*
X336093809Y-97352380D01*
X336189047Y-97400000D01*
X336236666Y-97447619D01*
X336331904Y-97590476D01*
X336379523Y-97780952D01*
X336379523Y-98161904D01*
X336331904Y-98257142D01*
X336284285Y-98304761D01*
X336189047Y-98352380D01*
X335998571Y-98352380D01*
X335903333Y-98304761D01*
X335855714Y-98257142D01*
X335808095Y-98161904D01*
X335808095Y-97923809D01*
X335855714Y-97828571D01*
X335903333Y-97780952D01*
X335998571Y-97733333D01*
X336189047Y-97733333D01*
X336284285Y-97780952D01*
X336331904Y-97828571D01*
X336379523Y-97923809D01*
X43694285Y-59342380D02*
X43694285Y-58342380D01*
X43456190Y-58342380D01*
X43313333Y-58390000D01*
X43218095Y-58485238D01*
X43170476Y-58580476D01*
X43122857Y-58770952D01*
X43122857Y-58913809D01*
X43170476Y-59104285D01*
X43218095Y-59199523D01*
X43313333Y-59294761D01*
X43456190Y-59342380D01*
X43694285Y-59342380D01*
X42218095Y-58342380D02*
X42694285Y-58342380D01*
X42741904Y-58818571D01*
X42694285Y-58770952D01*
X42599047Y-58723333D01*
X42360952Y-58723333D01*
X42265714Y-58770952D01*
X42218095Y-58818571D01*
X42170476Y-58913809D01*
X42170476Y-59151904D01*
X42218095Y-59247142D01*
X42265714Y-59294761D01*
X42360952Y-59342380D01*
X42599047Y-59342380D01*
X42694285Y-59294761D01*
X42741904Y-59247142D01*
X41837142Y-58342380D02*
X41170476Y-58342380D01*
X41599047Y-59342380D01*
X82054285Y-59302380D02*
X82054285Y-58302380D01*
X81816190Y-58302380D01*
X81673333Y-58350000D01*
X81578095Y-58445238D01*
X81530476Y-58540476D01*
X81482857Y-58730952D01*
X81482857Y-58873809D01*
X81530476Y-59064285D01*
X81578095Y-59159523D01*
X81673333Y-59254761D01*
X81816190Y-59302380D01*
X82054285Y-59302380D01*
X80578095Y-58302380D02*
X81054285Y-58302380D01*
X81101904Y-58778571D01*
X81054285Y-58730952D01*
X80959047Y-58683333D01*
X80720952Y-58683333D01*
X80625714Y-58730952D01*
X80578095Y-58778571D01*
X80530476Y-58873809D01*
X80530476Y-59111904D01*
X80578095Y-59207142D01*
X80625714Y-59254761D01*
X80720952Y-59302380D01*
X80959047Y-59302380D01*
X81054285Y-59254761D01*
X81101904Y-59207142D01*
X79959047Y-58730952D02*
X80054285Y-58683333D01*
X80101904Y-58635714D01*
X80149523Y-58540476D01*
X80149523Y-58492857D01*
X80101904Y-58397619D01*
X80054285Y-58350000D01*
X79959047Y-58302380D01*
X79768571Y-58302380D01*
X79673333Y-58350000D01*
X79625714Y-58397619D01*
X79578095Y-58492857D01*
X79578095Y-58540476D01*
X79625714Y-58635714D01*
X79673333Y-58683333D01*
X79768571Y-58730952D01*
X79959047Y-58730952D01*
X80054285Y-58778571D01*
X80101904Y-58826190D01*
X80149523Y-58921428D01*
X80149523Y-59111904D01*
X80101904Y-59207142D01*
X80054285Y-59254761D01*
X79959047Y-59302380D01*
X79768571Y-59302380D01*
X79673333Y-59254761D01*
X79625714Y-59207142D01*
X79578095Y-59111904D01*
X79578095Y-58921428D01*
X79625714Y-58826190D01*
X79673333Y-58778571D01*
X79768571Y-58730952D01*
X120464285Y-59342380D02*
X120464285Y-58342380D01*
X120226190Y-58342380D01*
X120083333Y-58390000D01*
X119988095Y-58485238D01*
X119940476Y-58580476D01*
X119892857Y-58770952D01*
X119892857Y-58913809D01*
X119940476Y-59104285D01*
X119988095Y-59199523D01*
X120083333Y-59294761D01*
X120226190Y-59342380D01*
X120464285Y-59342380D01*
X118988095Y-58342380D02*
X119464285Y-58342380D01*
X119511904Y-58818571D01*
X119464285Y-58770952D01*
X119369047Y-58723333D01*
X119130952Y-58723333D01*
X119035714Y-58770952D01*
X118988095Y-58818571D01*
X118940476Y-58913809D01*
X118940476Y-59151904D01*
X118988095Y-59247142D01*
X119035714Y-59294761D01*
X119130952Y-59342380D01*
X119369047Y-59342380D01*
X119464285Y-59294761D01*
X119511904Y-59247142D01*
X118464285Y-59342380D02*
X118273809Y-59342380D01*
X118178571Y-59294761D01*
X118130952Y-59247142D01*
X118035714Y-59104285D01*
X117988095Y-58913809D01*
X117988095Y-58532857D01*
X118035714Y-58437619D01*
X118083333Y-58390000D01*
X118178571Y-58342380D01*
X118369047Y-58342380D01*
X118464285Y-58390000D01*
X118511904Y-58437619D01*
X118559523Y-58532857D01*
X118559523Y-58770952D01*
X118511904Y-58866190D01*
X118464285Y-58913809D01*
X118369047Y-58961428D01*
X118178571Y-58961428D01*
X118083333Y-58913809D01*
X118035714Y-58866190D01*
X117988095Y-58770952D01*
X158794285Y-59302380D02*
X158794285Y-58302380D01*
X158556190Y-58302380D01*
X158413333Y-58350000D01*
X158318095Y-58445238D01*
X158270476Y-58540476D01*
X158222857Y-58730952D01*
X158222857Y-58873809D01*
X158270476Y-59064285D01*
X158318095Y-59159523D01*
X158413333Y-59254761D01*
X158556190Y-59302380D01*
X158794285Y-59302380D01*
X157365714Y-58302380D02*
X157556190Y-58302380D01*
X157651428Y-58350000D01*
X157699047Y-58397619D01*
X157794285Y-58540476D01*
X157841904Y-58730952D01*
X157841904Y-59111904D01*
X157794285Y-59207142D01*
X157746666Y-59254761D01*
X157651428Y-59302380D01*
X157460952Y-59302380D01*
X157365714Y-59254761D01*
X157318095Y-59207142D01*
X157270476Y-59111904D01*
X157270476Y-58873809D01*
X157318095Y-58778571D01*
X157365714Y-58730952D01*
X157460952Y-58683333D01*
X157651428Y-58683333D01*
X157746666Y-58730952D01*
X157794285Y-58778571D01*
X157841904Y-58873809D01*
X156651428Y-58302380D02*
X156556190Y-58302380D01*
X156460952Y-58350000D01*
X156413333Y-58397619D01*
X156365714Y-58492857D01*
X156318095Y-58683333D01*
X156318095Y-58921428D01*
X156365714Y-59111904D01*
X156413333Y-59207142D01*
X156460952Y-59254761D01*
X156556190Y-59302380D01*
X156651428Y-59302380D01*
X156746666Y-59254761D01*
X156794285Y-59207142D01*
X156841904Y-59111904D01*
X156889523Y-58921428D01*
X156889523Y-58683333D01*
X156841904Y-58492857D01*
X156794285Y-58397619D01*
X156746666Y-58350000D01*
X156651428Y-58302380D01*
X197274285Y-59382380D02*
X197274285Y-58382380D01*
X197036190Y-58382380D01*
X196893333Y-58430000D01*
X196798095Y-58525238D01*
X196750476Y-58620476D01*
X196702857Y-58810952D01*
X196702857Y-58953809D01*
X196750476Y-59144285D01*
X196798095Y-59239523D01*
X196893333Y-59334761D01*
X197036190Y-59382380D01*
X197274285Y-59382380D01*
X195845714Y-58382380D02*
X196036190Y-58382380D01*
X196131428Y-58430000D01*
X196179047Y-58477619D01*
X196274285Y-58620476D01*
X196321904Y-58810952D01*
X196321904Y-59191904D01*
X196274285Y-59287142D01*
X196226666Y-59334761D01*
X196131428Y-59382380D01*
X195940952Y-59382380D01*
X195845714Y-59334761D01*
X195798095Y-59287142D01*
X195750476Y-59191904D01*
X195750476Y-58953809D01*
X195798095Y-58858571D01*
X195845714Y-58810952D01*
X195940952Y-58763333D01*
X196131428Y-58763333D01*
X196226666Y-58810952D01*
X196274285Y-58858571D01*
X196321904Y-58953809D01*
X194798095Y-59382380D02*
X195369523Y-59382380D01*
X195083809Y-59382380D02*
X195083809Y-58382380D01*
X195179047Y-58525238D01*
X195274285Y-58620476D01*
X195369523Y-58668095D01*
X235634285Y-59342380D02*
X235634285Y-58342380D01*
X235396190Y-58342380D01*
X235253333Y-58390000D01*
X235158095Y-58485238D01*
X235110476Y-58580476D01*
X235062857Y-58770952D01*
X235062857Y-58913809D01*
X235110476Y-59104285D01*
X235158095Y-59199523D01*
X235253333Y-59294761D01*
X235396190Y-59342380D01*
X235634285Y-59342380D01*
X234205714Y-58342380D02*
X234396190Y-58342380D01*
X234491428Y-58390000D01*
X234539047Y-58437619D01*
X234634285Y-58580476D01*
X234681904Y-58770952D01*
X234681904Y-59151904D01*
X234634285Y-59247142D01*
X234586666Y-59294761D01*
X234491428Y-59342380D01*
X234300952Y-59342380D01*
X234205714Y-59294761D01*
X234158095Y-59247142D01*
X234110476Y-59151904D01*
X234110476Y-58913809D01*
X234158095Y-58818571D01*
X234205714Y-58770952D01*
X234300952Y-58723333D01*
X234491428Y-58723333D01*
X234586666Y-58770952D01*
X234634285Y-58818571D01*
X234681904Y-58913809D01*
X233729523Y-58437619D02*
X233681904Y-58390000D01*
X233586666Y-58342380D01*
X233348571Y-58342380D01*
X233253333Y-58390000D01*
X233205714Y-58437619D01*
X233158095Y-58532857D01*
X233158095Y-58628095D01*
X233205714Y-58770952D01*
X233777142Y-59342380D01*
X233158095Y-59342380D01*
X273964285Y-59342380D02*
X273964285Y-58342380D01*
X273726190Y-58342380D01*
X273583333Y-58390000D01*
X273488095Y-58485238D01*
X273440476Y-58580476D01*
X273392857Y-58770952D01*
X273392857Y-58913809D01*
X273440476Y-59104285D01*
X273488095Y-59199523D01*
X273583333Y-59294761D01*
X273726190Y-59342380D01*
X273964285Y-59342380D01*
X272535714Y-58342380D02*
X272726190Y-58342380D01*
X272821428Y-58390000D01*
X272869047Y-58437619D01*
X272964285Y-58580476D01*
X273011904Y-58770952D01*
X273011904Y-59151904D01*
X272964285Y-59247142D01*
X272916666Y-59294761D01*
X272821428Y-59342380D01*
X272630952Y-59342380D01*
X272535714Y-59294761D01*
X272488095Y-59247142D01*
X272440476Y-59151904D01*
X272440476Y-58913809D01*
X272488095Y-58818571D01*
X272535714Y-58770952D01*
X272630952Y-58723333D01*
X272821428Y-58723333D01*
X272916666Y-58770952D01*
X272964285Y-58818571D01*
X273011904Y-58913809D01*
X272107142Y-58342380D02*
X271488095Y-58342380D01*
X271821428Y-58723333D01*
X271678571Y-58723333D01*
X271583333Y-58770952D01*
X271535714Y-58818571D01*
X271488095Y-58913809D01*
X271488095Y-59151904D01*
X271535714Y-59247142D01*
X271583333Y-59294761D01*
X271678571Y-59342380D01*
X271964285Y-59342380D01*
X272059523Y-59294761D01*
X272107142Y-59247142D01*
X338284285Y-117632380D02*
X338284285Y-116632380D01*
X338046190Y-116632380D01*
X337903333Y-116680000D01*
X337808095Y-116775238D01*
X337760476Y-116870476D01*
X337712857Y-117060952D01*
X337712857Y-117203809D01*
X337760476Y-117394285D01*
X337808095Y-117489523D01*
X337903333Y-117584761D01*
X338046190Y-117632380D01*
X338284285Y-117632380D01*
X336855714Y-116632380D02*
X337046190Y-116632380D01*
X337141428Y-116680000D01*
X337189047Y-116727619D01*
X337284285Y-116870476D01*
X337331904Y-117060952D01*
X337331904Y-117441904D01*
X337284285Y-117537142D01*
X337236666Y-117584761D01*
X337141428Y-117632380D01*
X336950952Y-117632380D01*
X336855714Y-117584761D01*
X336808095Y-117537142D01*
X336760476Y-117441904D01*
X336760476Y-117203809D01*
X336808095Y-117108571D01*
X336855714Y-117060952D01*
X336950952Y-117013333D01*
X337141428Y-117013333D01*
X337236666Y-117060952D01*
X337284285Y-117108571D01*
X337331904Y-117203809D01*
X335903333Y-116965714D02*
X335903333Y-117632380D01*
X336141428Y-116584761D02*
X336379523Y-117299047D01*
X335760476Y-117299047D01*
M02*
